<?xml version="1.0" encoding="utf-8"?>
<!-- Generator: Adobe Illustrator 18.0.0, SVG Export Plug-In . SVG Version: 6.00 Build 0)  -->
<!DOCTYPE svg PUBLIC "-//W3C//DTD SVG 1.1//EN" "http://www.w3.org/Graphics/SVG/1.1/DTD/svg11.dtd">
<svg version="1.1" id="Layer_1" xmlns="http://www.w3.org/2000/svg" xmlns:xlink="http://www.w3.org/1999/xlink" x="0px" y="0px"
	 viewBox="0 0 64 64" enable-background="new 0 0 64 64" xml:space="preserve">
<g>
	<path fill="#E3ECFF" d="M63,5v54c0,2.2-1.8,4-4,4H5c-2.2,0-4-1.8-4-4V5c0-2.2,1.8-4,4-4h54C61.2,1,63,2.8,63,5z"/>
	<path fill="#C7D9F9" d="M63,5v54c0,2.2-1.8,4-4,4H5c-1.9,0-3.4-1.3-3.9-3c0.3,0.1,0.7,0.1,1,0.1H6c29.9,0,54.2-24.3,54.2-54.2V2.1
		c0-0.3,0-0.7-0.1-1C61.7,1.6,63,3.1,63,5z"/>
	<path fill="#FFD880" d="M63,5v10.9H1V5c0-2.2,1.8-4,4-4h54C61.2,1,63,2.8,63,5z"/>
	<path fill="none" stroke="#2A3C65" stroke-width="2" stroke-linecap="round" stroke-linejoin="round" stroke-miterlimit="10" d="
		M63,19.9V59c0,2.2-1.8,4-4,4H5c-2.2,0-4-1.8-4-4V19.9"/>
	
		<path fill="#38FCC4" stroke="#2A3C65" stroke-width="2" stroke-linecap="round" stroke-linejoin="round" stroke-miterlimit="10" d="
		M56.5,7h-25c-0.9,0-1.7,0.8-1.7,1.7s0.8,1.7,1.7,1.7h25c0.9,0,1.7-0.8,1.7-1.7S57.4,7,56.5,7z"/>
	<g>
		
			<circle fill="#38FCC4" stroke="#2A3C65" stroke-width="2" stroke-linecap="round" stroke-linejoin="round" stroke-miterlimit="10" cx="7.7" cy="8.5" r="1.9"/>
		
			<circle fill="#38FCC4" stroke="#2A3C65" stroke-width="2" stroke-linecap="round" stroke-linejoin="round" stroke-miterlimit="10" cx="14.4" cy="8.5" r="1.9"/>
		
			<circle fill="#38FCC4" stroke="#2A3C65" stroke-width="2" stroke-linecap="round" stroke-linejoin="round" stroke-miterlimit="10" cx="21" cy="8.5" r="1.9"/>
	</g>
	<path fill="none" stroke="#2A3C65" stroke-width="2" stroke-linecap="round" stroke-linejoin="round" stroke-miterlimit="10" d="
		M63,12.9"/>
	<path fill="none" stroke="#2A3C65" stroke-width="2" stroke-linecap="round" stroke-linejoin="round" stroke-miterlimit="10" d="
		M1,15.9h62v-4V5c0-2.2-1.8-4-4-4H5C2.8,1,1,2.8,1,5v6.9V15.9z"/>
	<path fill="#27D1FF" d="M31.5,36.7c-0.2,0.5-0.4,1-0.6,1.4c-0.1,0.3-0.2,0.6,0,0.9l1.1,2.3c0.2,0.4,0.1,0.8-0.2,1.1l-1.1,1.1
		c-0.3,0.3-0.8,0.4-1.1,0.2l-2.3-1.1c-0.3-0.1-0.6-0.1-0.9,0C26,42.8,25.5,43,25,43.2c-0.3,0.1-0.5,0.3-0.6,0.6l-0.8,2.4
		c-0.1,0.4-0.5,0.7-0.9,0.7H21c-0.4,0-0.8-0.3-0.9-0.7l-0.8-2.4c-0.1-0.3-0.3-0.5-0.6-0.6c-0.5-0.2-1-0.4-1.4-0.6
		c-0.3-0.1-0.6-0.2-0.9,0L14,43.7c-0.4,0.2-0.8,0.1-1.1-0.2l-1.1-1.1c-0.3-0.3-0.4-0.8-0.2-1.1l1.1-2.3c0.1-0.3,0.1-0.6,0-0.9
		c-0.2-0.5-0.4-0.9-0.6-1.4c-0.1-0.3-0.3-0.5-0.6-0.6l-2.4-0.8c-0.4-0.1-0.7-0.5-0.7-0.9v-1.5c0-0.4,0.3-0.8,0.7-0.9l2.4-0.8
		c0.3-0.1,0.5-0.3,0.6-0.6c0.2-0.5,0.4-1,0.6-1.4c0.1-0.3,0.2-0.6,0-0.9L11.6,26c-0.2-0.4-0.1-0.8,0.2-1.1l1.1-1.1
		c0.3-0.3,0.8-0.4,1.1-0.2l2.3,1.1c0.3,0.1,0.6,0.1,0.9,0c0.5-0.2,0.9-0.4,1.4-0.6c0.3-0.1,0.5-0.3,0.6-0.6l0.8-2.4
		c0.1-0.4,0.5-0.7,0.9-0.7h1.5c0.4,0,0.8,0.3,0.9,0.7l0.8,2.4c0.1,0.3,0.3,0.5,0.6,0.6c0.5,0.2,1,0.4,1.4,0.6c0.3,0.1,0.6,0.2,0.9,0
		l2.3-1.1c0.4-0.2,0.8-0.1,1.1,0.2l1.1,1.1c0.3,0.3,0.4,0.8,0.2,1.1l-0.8,2c-0.1,0.3-0.1,0.6,0,0.9c0.2,0.5,0.4,0.9,0.6,1.4
		c0.1,0.3,0.3,0.5,0.6,0.6l2.4,0.8c0.4,0.1,0.7,0.5,0.7,0.9v1.5c0,0.4-0.3,0.8-0.7,0.9l-2.4,1C31.8,36.1,31.6,36.4,31.5,36.7z"/>
	<path fill="none" stroke="#2A3C65" stroke-width="2" stroke-linecap="round" stroke-linejoin="round" stroke-miterlimit="10" d="
		M31.5,36.7c-0.2,0.5-0.4,1-0.6,1.4c-0.1,0.3-0.2,0.6,0,0.9l1.1,2.3c0.2,0.4,0.1,0.8-0.2,1.1l-1.1,1.1c-0.3,0.3-0.8,0.4-1.1,0.2
		l-2.3-1.1c-0.3-0.1-0.6-0.1-0.9,0C26,42.8,25.5,43,25,43.2c-0.3,0.1-0.5,0.3-0.6,0.6l-0.8,2.4c-0.1,0.4-0.5,0.7-0.9,0.7H21
		c-0.4,0-0.8-0.3-0.9-0.7l-0.8-2.4c-0.1-0.3-0.3-0.5-0.6-0.6c-0.5-0.2-1-0.4-1.4-0.6c-0.3-0.1-0.6-0.2-0.9,0L14,43.7
		c-0.4,0.2-0.8,0.1-1.1-0.2l-1.1-1.1c-0.3-0.3-0.4-0.8-0.2-1.1l1.1-2.3c0.1-0.3,0.1-0.6,0-0.9c-0.2-0.5-0.4-0.9-0.6-1.4
		c-0.1-0.3-0.3-0.5-0.6-0.6l-2.4-0.8c-0.4-0.1-0.7-0.5-0.7-0.9v-1.5c0-0.4,0.3-0.8,0.7-0.9l2.4-0.8c0.3-0.1,0.5-0.3,0.6-0.6
		c0.2-0.5,0.4-1,0.6-1.4c0.1-0.3,0.2-0.6,0-0.9L11.6,26c-0.2-0.4-0.1-0.8,0.2-1.1l1.1-1.1c0.3-0.3,0.8-0.4,1.1-0.2l2.3,1.1
		c0.3,0.1,0.6,0.1,0.9,0c0.5-0.2,0.9-0.4,1.4-0.6c0.3-0.1,0.5-0.3,0.6-0.6l0.8-2.4c0.1-0.4,0.5-0.7,0.9-0.7h1.5
		c0.4,0,0.8,0.3,0.9,0.7l0.8,2.4c0.1,0.3,0.3,0.5,0.6,0.6c0.5,0.2,1,0.4,1.4,0.6c0.3,0.1,0.6,0.2,0.9,0l2.3-1.1
		c0.4-0.2,0.8-0.1,1.1,0.2l1.1,1.1c0.3,0.3,0.4,0.8,0.2,1.1l-0.8,2c-0.1,0.3-0.1,0.6,0,0.9c0.2,0.5,0.4,0.9,0.6,1.4
		c0.1,0.3,0.3,0.5,0.6,0.6l2.4,0.8c0.4,0.1,0.7,0.5,0.7,0.9v1.5c0,0.4-0.3,0.8-0.7,0.9l-2.4,1C31.8,36.1,31.6,36.4,31.5,36.7z"/>
	
		<path fill="#C7D9F9" stroke="#2A3C65" stroke-width="2" stroke-linecap="round" stroke-linejoin="round" stroke-miterlimit="10" d="
		M27.1,33.5c0,2.9-2.4,5.3-5.3,5.3s-5.3-2.4-5.3-5.3s2.4-5.3,5.3-5.3S27.1,30.6,27.1,33.5z"/>
	<path fill="#FF7DAF" d="M52.4,50.1c-0.1,0.4-0.3,0.8-0.5,1.2c-0.1,0.2-0.1,0.5,0,0.8l0.9,1.9c0.2,0.3,0.1,0.7-0.2,1l-0.9,0.9
		c-0.3,0.3-0.7,0.3-1,0.2l-2-0.9c-0.2-0.1-0.5-0.1-0.8,0c-0.4,0.2-0.8,0.4-1.2,0.5c-0.3,0.1-0.5,0.3-0.6,0.5l-0.7,2.1
		c-0.1,0.3-0.4,0.6-0.8,0.6h-1.3c-0.4,0-0.7-0.2-0.8-0.6l-0.7-2.1c-0.1-0.3-0.3-0.4-0.6-0.5c-0.4-0.1-0.8-0.3-1.2-0.5
		c-0.2-0.1-0.5-0.1-0.8,0l-2,0.9c-0.3,0.2-0.7,0.1-1-0.2L35.5,55c-0.3-0.3-0.3-0.7-0.2-1l0.9-1.9c0.1-0.2,0.1-0.5,0-0.8
		c-0.2-0.4-0.4-0.8-0.5-1.2c-0.1-0.3-0.3-0.5-0.5-0.6l-2-0.7c-0.3-0.1-0.6-0.4-0.6-0.8v-1.3c0-0.4,0.2-0.7,0.6-0.8l2-0.7
		c0.3-0.1,0.4-0.3,0.5-0.6c0.1-0.4,0.3-0.8,0.5-1.2c0.1-0.2,0.1-0.5,0-0.8l-0.9-1.9c-0.2-0.3-0.1-0.7,0.2-1l0.9-0.9
		c0.3-0.3,0.7-0.3,1-0.2l2,0.9c0.2,0.1,0.5,0.1,0.8,0c0.4-0.2,0.8-0.4,1.2-0.5c0.3-0.1,0.5-0.3,0.6-0.5l0.7-2.1
		c0.1-0.3,0.4-0.6,0.8-0.6h1.3c0.4,0,0.7,0.2,0.8,0.6l0.7,2.1c0.1,0.3,0.3,0.4,0.6,0.5c0.4,0.1,0.8,0.3,1.2,0.5
		c0.2,0.1,0.5,0.1,0.8,0l2-0.9c0.3-0.2,0.7-0.1,1,0.2l0.9,0.9c0.3,0.3,0.3,0.7,0.2,1l-0.9,1.9c-0.1,0.2-0.1,0.5,0,0.8
		c0.2,0.4,0.4,0.8,0.5,1.2c0.1,0.3,0.3,0.5,0.5,0.6l2,0.7c0.3,0.1,0.6,0.4,0.6,0.8V48c0,0.4-0.2,0.7-0.6,0.8l-2,0.7
		C52.7,49.6,52.5,49.8,52.4,50.1z"/>
	<path fill="none" stroke="#2A3C65" stroke-width="2" stroke-linecap="round" stroke-linejoin="round" stroke-miterlimit="10" d="
		M52.4,50.1c-0.1,0.4-0.3,0.8-0.5,1.2c-0.1,0.2-0.1,0.5,0,0.8l0.9,1.9c0.2,0.3,0.1,0.7-0.2,1l-0.9,0.9c-0.3,0.3-0.7,0.3-1,0.2
		l-2-0.9c-0.2-0.1-0.5-0.1-0.8,0c-0.4,0.2-0.8,0.4-1.2,0.5c-0.3,0.1-0.5,0.3-0.6,0.5l-0.7,2.1c-0.1,0.3-0.4,0.6-0.8,0.6h-1.3
		c-0.4,0-0.7-0.2-0.8-0.6l-0.7-2.1c-0.1-0.3-0.3-0.4-0.6-0.5c-0.4-0.1-0.8-0.3-1.2-0.5c-0.2-0.1-0.5-0.1-0.8,0l-2,0.9
		c-0.3,0.2-0.7,0.1-1-0.2L35.5,55c-0.3-0.3-0.3-0.7-0.2-1l0.9-1.9c0.1-0.2,0.1-0.5,0-0.8c-0.2-0.4-0.4-0.8-0.5-1.2
		c-0.1-0.3-0.3-0.5-0.5-0.6l-2-0.7c-0.3-0.1-0.6-0.4-0.6-0.8v-1.3c0-0.4,0.2-0.7,0.6-0.8l2-0.7c0.3-0.1,0.4-0.3,0.5-0.6
		c0.1-0.4,0.3-0.8,0.5-1.2c0.1-0.2,0.1-0.5,0-0.8l-0.9-1.9c-0.2-0.3-0.1-0.7,0.2-1l0.9-0.9c0.3-0.3,0.7-0.3,1-0.2l2,0.9
		c0.2,0.1,0.5,0.1,0.8,0c0.4-0.2,0.8-0.4,1.2-0.5c0.3-0.1,0.5-0.3,0.6-0.5l0.7-2.1c0.1-0.3,0.4-0.6,0.8-0.6h1.3
		c0.4,0,0.7,0.2,0.8,0.6l0.7,2.1c0.1,0.3,0.3,0.4,0.6,0.5c0.4,0.1,0.8,0.3,1.2,0.5c0.2,0.1,0.5,0.1,0.8,0l2-0.9
		c0.3-0.2,0.7-0.1,1,0.2l0.9,0.9c0.3,0.3,0.3,0.7,0.2,1l-0.9,1.9c-0.1,0.2-0.1,0.5,0,0.8c0.2,0.4,0.4,0.8,0.5,1.2
		c0.1,0.3,0.3,0.5,0.5,0.6l2,0.7c0.3,0.1,0.6,0.4,0.6,0.8V48c0,0.4-0.2,0.7-0.6,0.8l-2,0.7C52.7,49.6,52.5,49.8,52.4,50.1z"/>
	
		<path fill="#C7D9F9" stroke="#2A3C65" stroke-width="2" stroke-linecap="round" stroke-linejoin="round" stroke-miterlimit="10" d="
		M48.6,47.3c0,2.5-2,4.5-4.5,4.5s-4.5-2-4.5-4.5s2-4.5,4.5-4.5S48.6,44.8,48.6,47.3z"/>
</g>
</svg>
