<?xml version="1.0" encoding="utf-8"?>
<!-- Generator: Adobe Illustrator 18.0.0, SVG Export Plug-In . SVG Version: 6.00 Build 0)  -->
<!DOCTYPE svg PUBLIC "-//W3C//DTD SVG 1.1//EN" "http://www.w3.org/Graphics/SVG/1.1/DTD/svg11.dtd">
<svg version="1.1" id="Layer_1" xmlns="http://www.w3.org/2000/svg" xmlns:xlink="http://www.w3.org/1999/xlink" x="0px" y="0px"
	 viewBox="0 0 66 66" enable-background="new 0 0 66 66" xml:space="preserve">
<g>
	<path fill="#E3ECFF" d="M31.4,4.9v4.2h-6.1V4.9c0-1.1,0.9-1.9,1.9-1.9h2.2C30.5,3,31.4,3.8,31.4,4.9z"/>
	<path fill="#E3ECFF" d="M48.8,4.9v4.2h-6.1V4.9c0-1.1,0.9-1.9,1.9-1.9h2.2C47.9,3,48.8,3.8,48.8,4.9z"/>
	<g>
		<path fill="none" stroke="#2A3C65" stroke-width="2" stroke-linecap="round" stroke-linejoin="round" stroke-miterlimit="10" d="
			M25.3,5.1V4.9c0-1.1,0.9-1.9,1.9-1.9h2.2c1.1,0,1.9,0.9,1.9,1.9v0.2"/>
		<path fill="none" stroke="#2A3C65" stroke-width="2" stroke-linecap="round" stroke-linejoin="round" stroke-miterlimit="10" d="
			M42.7,5.1V4.9c0-1.1,0.9-1.9,1.9-1.9h2.2c1.1,0,1.9,0.9,1.9,1.9v0.2"/>
	</g>
	<path fill="#C7D9F9" d="M59.2,12.9v32.3H14.8V12.9c0-2.1,1.7-3.9,3.9-3.9h36.6C57.5,9.1,59.2,10.8,59.2,12.9z"/>
	<path fill="none" stroke="#2A3C65" stroke-width="2" stroke-linecap="round" stroke-linejoin="round" stroke-miterlimit="10" d="
		M14.8,15.7v-2.8c0-2.1,1.7-3.9,3.9-3.9h36.7c2.1,0,3.9,1.7,3.9,3.9v28.3"/>
	
		<line fill="none" stroke="#2A3C65" stroke-width="2" stroke-linecap="round" stroke-linejoin="round" stroke-miterlimit="10" x1="14.8" y1="41.3" x2="14.8" y2="32.3"/>
	<rect x="19.7" y="13.9" fill="#27D1FF" width="34.7" height="26.5"/>
	
		<polyline fill="none" stroke="#2A3C65" stroke-width="2" stroke-linecap="round" stroke-linejoin="round" stroke-miterlimit="10" points="
		19.7,34.2 19.7,40.4 54.4,40.4 54.4,13.9 19.7,13.9 19.7,18.1 	"/>
	<polygon fill="#1DE9B6" points="25.6,36 25.1,36.8 34.9,36.8 38.4,36.8 36.7,33.7 31.8,24.9 30.6,27.1 	"/>
	<polygon fill="#1DE9B6" points="46.1,36.8 34.9,36.8 40.5,26.8 	"/>
	<g>
		
			<polyline fill="none" stroke="#2A3C65" stroke-width="2" stroke-linecap="round" stroke-linejoin="round" stroke-miterlimit="10" points="
			25.6,36 25.1,36.8 34.9,36.8 38.4,36.8 36.7,33.7 31.8,24.9 30.6,27.1 		"/>
		
			<polyline fill="none" stroke="#2A3C65" stroke-width="2" stroke-linecap="round" stroke-linejoin="round" stroke-miterlimit="10" points="
			34.9,36.8 38.4,36.8 46,36.8 40.5,26.8 36.7,33.7 		"/>
	</g>
	
		<circle fill="#FECB4D" stroke="#2A3C65" stroke-width="2" stroke-linecap="round" stroke-linejoin="round" stroke-miterlimit="10" cx="46" cy="21.4" r="2.9"/>
	<g>
		<path fill="#D5A6FF" d="M21.1,24.4c-0.3-0.8-0.8-1.4-1.5-1.9C18,21.6,3,14.1,2,15.8c-1,1.6,12.5,11.7,14.1,12.7
			c0.7,0.4,1.6,0.6,2.4,0.4L21.1,24.4z"/>
		<path fill="none" stroke="#2A3C65" stroke-width="2" stroke-linecap="round" stroke-linejoin="round" stroke-miterlimit="10" d="
			M21.1,24.4c-0.3-0.8-0.8-1.4-1.5-1.9C18,21.6,3,14.1,2,15.8c-1,1.6,12.5,11.7,14.1,12.7c0.7,0.4,1.6,0.6,2.4,0.4L21.1,24.4z"/>
		
			<path fill="#FECB4D" stroke="#2A3C65" stroke-width="2" stroke-linecap="round" stroke-linejoin="round" stroke-miterlimit="10" d="
			M22.6,25.6c-1.1-0.7-2.6-0.3-3.3,0.8c-0.7,1.1-0.3,2.6,0.8,3.3c0.6,0.4,2.9,0.8,4.8,1.2c0.9,0.2,1.6-0.9,1-1.6
			C24.7,27.7,23.2,26,22.6,25.6z"/>
	</g>
	<polygon fill="#FF5892" points="29.3,52.2 24.8,63 17,63 21.5,52.2 	"/>
	<polygon fill="#FF5892" points="57,63 49.2,63 44.7,52.2 52.5,52.2 	"/>
	
		<polyline fill="none" stroke="#2A3C65" stroke-width="2" stroke-linecap="round" stroke-linejoin="round" stroke-miterlimit="10" points="
		19.8,56.2 17,63 24.8,63 27.7,56.2 	"/>
	
		<polyline fill="none" stroke="#2A3C65" stroke-width="2" stroke-linecap="round" stroke-linejoin="round" stroke-miterlimit="10" points="
		54.2,56.2 57,63 49.2,63 46.4,56.2 	"/>
	<path fill="#FECB4D" d="M62,52.2H12c-1.1,0-2-0.9-2-2v-2.9c0-1.1,0.9-2,2-2h50c1.1,0,2,0.9,2,2v2.9C64,51.3,63.1,52.2,62,52.2z"/>
	<path fill="#F9B826" d="M64,49.2v1c0,1.1-0.9,2-2,2H12c-1.1,0-2-0.9-2-2v-2.9c0-1.1,0.9-2,2-2h1.1c0.5,2.3,2.5,3.9,4.8,3.9H64z"/>
	<path fill="none" stroke="#2A3C65" stroke-width="2" stroke-linecap="round" stroke-linejoin="round" stroke-miterlimit="10" d="
		M62,52.2H12c-1.1,0-2-0.9-2-2v-2.9c0-1.1,0.9-2,2-2h50c1.1,0,2,0.9,2,2v2.9C64,51.3,63.1,52.2,62,52.2z"/>
</g>
</svg>
