<?xml version="1.0" encoding="utf-8"?>
<!-- Generator: Adobe Illustrator 18.0.0, SVG Export Plug-In . SVG Version: 6.00 Build 0)  -->
<!DOCTYPE svg PUBLIC "-//W3C//DTD SVG 1.1//EN" "http://www.w3.org/Graphics/SVG/1.1/DTD/svg11.dtd">
<svg version="1.1" id="Layer_1" xmlns="http://www.w3.org/2000/svg" xmlns:xlink="http://www.w3.org/1999/xlink" x="0px" y="0px"
	 viewBox="0 0 66 66" enable-background="new 0 0 66 66" xml:space="preserve">
<g>
	<path fill="#02BEFF" d="M52.5,29.7c0.5,2.7-0.3,5.5-2.4,7.6c-1.4,1.4-3.1,2.2-4.9,2.4c-0.7,2.1-2.7,3.6-5,3.6
		c-2.9,0-5.3-2.4-5.3-5.3V7.3C35,4.4,37.4,2,40.3,2c1.7,0,3.2,0.8,4.1,2l0,0c2.1,0.1,4.2,0.9,5.8,2.5c1.9,1.9,2.7,4.5,2.4,7
		c0,0.2,0,0.4-0.1,0.5c3,1.3,5.1,4.3,5.1,7.8C57.6,25.4,55.5,28.4,52.5,29.7z"/>
	<path fill="#00ADDB" d="M52.4,10.6c-0.7-0.2-1.4-0.3-2.1-0.3l0,0c-0.9-1.2-2.5-2-4.1-2c-2.9,0-5.3,2.4-5.3,5.3v29.7
		c-0.2,0-0.4,0-0.6,0c-2.9,0-5.3-2.4-5.3-5.3V7.3C35,4.4,37.4,2,40.3,2c1.7,0,3.2,0.8,4.1,2l0,0c2.1,0.1,4.2,0.9,5.8,2.5
		C51.3,7.7,52.1,9.1,52.4,10.6z"/>
	<path fill="#02BEFF" d="M31,7.3V38c0,2.9-2.4,5.3-5.3,5.3c-2.3,0-4.3-1.5-5-3.6c-1.8-0.2-3.5-1-4.9-2.4c-2.1-2.1-2.8-4.9-2.4-7.6
		c-3-1.3-5.1-4.3-5.1-7.8s2.1-6.5,5.1-7.8c0-0.2-0.1-0.4-0.1-0.5c-0.3-2.5,0.5-5.1,2.4-7c1.6-1.6,3.7-2.4,5.8-2.5l0,0
		c0.9-1.2,2.5-2,4.1-2C28.6,2,31,4.4,31,7.3z"/>
	<path fill="#00ADDB" d="M30.9,6.6c-1,0.3-1.8,0.9-2.4,1.7l0,0c-2.1,0.1-4.2,0.9-5.8,2.5c-1.9,1.9-2.7,4.5-2.4,7
		c0,0.2,0,0.4,0.1,0.5c-3,1.3-5.1,4.3-5.1,7.8s2.1,6.5,5.1,7.8c-0.5,2.7,0.3,5.5,2.4,7.6c0.7,0.7,1.5,1.3,2.4,1.7
		c-2.1-0.2-3.8-1.6-4.5-3.6c-1.8-0.2-3.5-1-4.9-2.4c-2.1-2.1-2.8-4.9-2.4-7.6c-3-1.3-5.1-4.3-5.1-7.8s2.1-6.5,5.1-7.8
		c0-0.2-0.1-0.4-0.1-0.5c-0.3-2.5,0.5-5.1,2.4-7c1.6-1.6,3.7-2.4,5.8-2.5l0,0c0.9-1.2,2.5-2,4.1-2C28.4,2,30.6,4,30.9,6.6z"/>
	<g>
		<path fill="#FECB4D" d="M4.7,51.1h3.1v4.8H4.7c-1.3,0-2.4-1.1-2.4-2.4c0-0.7,0.3-1.3,0.7-1.7C3.5,51.4,4.1,51.1,4.7,51.1z"/>
		<rect x="16.7" y="51.1" fill="#FECB4D" width="32.6" height="4.8"/>
		<path fill="#FECB4D" d="M63.6,53.5c0,0.7-0.3,1.3-0.7,1.7s-1,0.7-1.7,0.7h-3.1v-4.8h3.1C62.6,51.1,63.6,52.2,63.6,53.5z"/>
	</g>
	<g>
		<path fill="#C7D9F9" d="M58.2,45v17c0,1.1-0.9,2-2,2h-4.9c-1.1,0-2-0.9-2-2V45c0-1.1,0.9-2,2-2h4.9C57.3,43.1,58.2,44,58.2,45z"/>
		<path fill="#C7D9F9" d="M16.7,45v17c0,1.1-0.9,2-2,2H9.8c-1.1,0-2-0.9-2-2V45c0-1.1,0.9-2,2-2h4.9C15.8,43.1,16.7,44,16.7,45z"/>
	</g>
	<g>
		<path fill="#B0CDF7" d="M58.2,45v2.5h-2.5c-1.1,0-2,0.9-2,2V64h-2.5c-1.1,0-2-0.9-2-2V45c0-1.1,0.9-2,2-2h4.9
			C57.3,43.1,58.2,44,58.2,45z"/>
		<path fill="#B0CDF7" d="M16.7,45v2.5h-2.5c-1.1,0-2,0.9-2,2V64H9.8c-1.1,0-2-0.9-2-2V45c0-1.1,0.9-2,2-2h4.9
			C15.8,43.1,16.7,44,16.7,45z"/>
	</g>
	
		<path fill="none" stroke="#3A3E59" stroke-width="1.977" stroke-linecap="round" stroke-linejoin="round" stroke-miterlimit="10" d="
		M4.7,51.1h3.1v4.8H4.7c-1.3,0-2.4-1.1-2.4-2.4c0-0.7,0.3-1.3,0.7-1.7C3.5,51.4,4.1,51.1,4.7,51.1z"/>
	
		<line fill="none" stroke="#3A3E59" stroke-width="1.977" stroke-linecap="round" stroke-linejoin="round" stroke-miterlimit="10" x1="45.4" y1="51.1" x2="20.6" y2="51.1"/>
	
		<line fill="none" stroke="#3A3E59" stroke-width="1.977" stroke-linecap="round" stroke-linejoin="round" stroke-miterlimit="10" x1="45.4" y1="55.9" x2="20.6" y2="55.9"/>
	
		<path fill="none" stroke="#3A3E59" stroke-width="1.977" stroke-linecap="round" stroke-linejoin="round" stroke-miterlimit="10" d="
		M63.6,53.5c0,0.7-0.3,1.3-0.7,1.7s-1,0.7-1.7,0.7h-3.1v-4.8h3.1C62.6,51.1,63.6,52.2,63.6,53.5z"/>
	
		<path fill="none" stroke="#3A3E59" stroke-width="1.977" stroke-linecap="round" stroke-linejoin="round" stroke-miterlimit="10" d="
		M14.7,64H9.8c-1.1,0-2-0.9-2-2V45c0-1.1,0.9-2,2-2h4.9c1.1,0,2,0.9,2,2v17C16.7,63.1,15.8,64,14.7,64z"/>
	
		<path fill="none" stroke="#3A3E59" stroke-width="1.977" stroke-linecap="round" stroke-linejoin="round" stroke-miterlimit="10" d="
		M56.2,64h-4.9c-1.1,0-2-0.9-2-2V45c0-1.1,0.9-2,2-2h4.9c1.1,0,2,0.9,2,2v17C58.2,63.1,57.3,64,56.2,64z"/>
	<g>
		
			<path fill="none" stroke="#3A3E59" stroke-width="1.977" stroke-linecap="round" stroke-linejoin="round" stroke-miterlimit="10" d="
			M14.6,26.7c-2.1,3.3-1.7,7.7,1.2,10.6c1.4,1.4,3.1,2.2,4.9,2.4"/>
		
			<path fill="none" stroke="#3A3E59" stroke-width="1.977" stroke-linecap="round" stroke-linejoin="round" stroke-miterlimit="10" d="
			M21.6,4c-2.1,0.1-4.2,0.9-5.8,2.5c-1.9,1.9-2.7,4.5-2.4,7c0.1,0.9,0.4,1.8,0.8,2.7"/>
		
			<path fill="none" stroke="#3A3E59" stroke-width="1.977" stroke-linecap="round" stroke-linejoin="round" stroke-miterlimit="10" d="
			M13.5,14.1c-3,1.3-5.1,4.3-5.1,7.8s2.1,6.5,5.1,7.8"/>
		
			<path fill="none" stroke="#3A3E59" stroke-width="1.977" stroke-linecap="round" stroke-linejoin="round" stroke-miterlimit="10" d="
			M20.5,38c0,2.9,2.4,5.3,5.3,5.3S31,40.9,31,38V7.3C31,4.4,28.6,2,25.7,2s-5.3,2.4-5.3,5.3"/>
		
			<path fill="none" stroke="#3A3E59" stroke-width="1.977" stroke-linecap="round" stroke-linejoin="round" stroke-miterlimit="10" d="
			M45.3,39.7c1.8-0.2,3.5-1,4.9-2.4c2.9-2.9,3.3-7.3,1.2-10.6"/>
		
			<path fill="none" stroke="#3A3E59" stroke-width="1.977" stroke-linecap="round" stroke-linejoin="round" stroke-miterlimit="10" d="
			M51.8,16.2c0.4-0.9,0.7-1.8,0.8-2.7c0.3-2.5-0.5-5.1-2.4-7c-1.6-1.6-3.7-2.4-5.8-2.5"/>
		
			<path fill="none" stroke="#3A3E59" stroke-width="1.977" stroke-linecap="round" stroke-linejoin="round" stroke-miterlimit="10" d="
			M52.5,29.7c3-1.3,5.1-4.3,5.1-7.8s-2.1-6.5-5.1-7.8"/>
		
			<path fill="none" stroke="#3A3E59" stroke-width="1.977" stroke-linecap="round" stroke-linejoin="round" stroke-miterlimit="10" d="
			M45.5,38c0,2.9-2.4,5.3-5.3,5.3c-2.9,0-5.3-2.4-5.3-5.3V7.3C35,4.4,37.4,2,40.3,2c2.9,0,5.3,2.4,5.3,5.3"/>
	</g>
	<g>
		
			<path fill="none" stroke="#3A3E59" stroke-width="1.977" stroke-linecap="round" stroke-linejoin="round" stroke-miterlimit="10" d="
			M31,28.1c0,2.2-1.8,4-4,4s-4-1.8-4-4"/>
		
			<path fill="none" stroke="#3A3E59" stroke-width="1.977" stroke-linecap="round" stroke-linejoin="round" stroke-miterlimit="10" d="
			M18.8,24.5c-1.5-1.5-1.5-4,0-5.6"/>
		
			<path fill="none" stroke="#3A3E59" stroke-width="1.977" stroke-linecap="round" stroke-linejoin="round" stroke-miterlimit="10" d="
			M23.1,18.2c0-2.2,1.8-4,4-4s4,1.8,4,4"/>
	</g>
	<g>
		
			<path fill="none" stroke="#3A3E59" stroke-width="1.977" stroke-linecap="round" stroke-linejoin="round" stroke-miterlimit="10" d="
			M35,28.1c0,2.2,1.8,4,4,4s4-1.8,4-4"/>
		
			<path fill="none" stroke="#3A3E59" stroke-width="1.977" stroke-linecap="round" stroke-linejoin="round" stroke-miterlimit="10" d="
			M47.3,24.5c1.5-1.5,1.5-4,0-5.6"/>
		
			<path fill="none" stroke="#3A3E59" stroke-width="1.977" stroke-linecap="round" stroke-linejoin="round" stroke-miterlimit="10" d="
			M42.9,18.2c0-2.2-1.8-4-4-4s-4,1.8-4,4"/>
	</g>
</g>
</svg>
