<?xml version="1.0" encoding="utf-8"?>
<!-- Generator: Adobe Illustrator 18.0.0, SVG Export Plug-In . SVG Version: 6.00 Build 0)  -->
<!DOCTYPE svg PUBLIC "-//W3C//DTD SVG 1.1//EN" "http://www.w3.org/Graphics/SVG/1.1/DTD/svg11.dtd">
<svg version="1.1" id="Layer_1" xmlns="http://www.w3.org/2000/svg" xmlns:xlink="http://www.w3.org/1999/xlink" x="0px" y="0px"
	 viewBox="0 0 64 64" enable-background="new 0 0 64 64" xml:space="preserve">
<g>
	<g>
		<path fill="#C7D9F9" d="M60.7,16.3v36.3H3.3V16.3c0-2.3,1.8-4.1,4.1-4.1h49.2C58.8,12.3,60.7,14.1,60.7,16.3z"/>
		<path fill="none" stroke="#2A3C65" stroke-width="2" stroke-linecap="round" stroke-linejoin="round" stroke-miterlimit="10" d="
			M3.3,48.6V16.3c0-2.3,1.8-4.1,4.1-4.1h2.2"/>
		<path fill="none" stroke="#2A3C65" stroke-width="2" stroke-linecap="round" stroke-linejoin="round" stroke-miterlimit="10" d="
			M54.4,12.3h2.2c2.3,0,4.1,1.8,4.1,4.1v32.3"/>
		<rect x="7.4" y="16.3" fill="#27D1FF" width="49.2" height="32.2"/>
		<polygon opacity="0.5" fill="#FFFFFF" enable-background="new    " points="46,16.3 24.5,48.6 7.4,48.6 7.4,45 26.6,16.3 		"/>
		<polygon opacity="0.5" fill="#FFFFFF" enable-background="new    " points="56.6,16.3 56.6,19.9 37.4,48.6 28,48.6 49.5,16.3 		
			"/>
		
			<polyline fill="none" stroke="#2A3C65" stroke-width="2" stroke-linecap="round" stroke-linejoin="round" stroke-miterlimit="10" points="
			54.4,16.3 56.6,16.3 56.6,48.6 7.4,48.6 7.4,16.3 9.6,16.3 		"/>
		
			<path fill="#C7D9F9" stroke="#2A3C65" stroke-width="2" stroke-linecap="round" stroke-linejoin="round" stroke-miterlimit="10" d="
			M60.9,52.6c1.5,0,2.5,1.6,1.8,2.9c-1.3,2.4-3.8,4-6.7,4H7.9c-2.9,0-5.4-1.6-6.7-4c-0.7-1.3,0.3-2.9,1.8-2.9H60.9z"/>
		<g>
			<path fill="#FF7DAF" d="M51.4,6.9v6.8H12.6V6.9c0-1.4,1.1-2.5,2.5-2.5h33.8C50.3,4.4,51.4,5.5,51.4,6.9z"/>
			<path fill="none" stroke="#2A3C65" stroke-width="2" stroke-linecap="round" stroke-linejoin="round" stroke-miterlimit="10" d="
				M51.4,6.9v6.8H12.6V6.9c0-1.4,1.1-2.5,2.5-2.5h33.8C50.3,4.4,51.4,5.5,51.4,6.9z"/>
			<path fill="#C7D9F9" d="M51.4,13.7v26.9c0,1.4-1.1,2.5-2.5,2.5H15.1c-1.4,0-2.5-1.1-2.5-2.5V13.7H51.4z"/>
			<path fill="none" stroke="#2A3C65" stroke-width="2" stroke-linecap="round" stroke-linejoin="round" stroke-miterlimit="10" d="
				M43,43.2h5.9c1.4,0,2.5-1.1,2.5-2.5V13.8H12.6v26.9c0,1.4,1.1,2.5,2.5,2.5H21"/>
			<g>
				
					<line fill="none" stroke="#2A3C65" stroke-width="2" stroke-linecap="round" stroke-linejoin="round" stroke-miterlimit="10" x1="17.4" y1="9.1" x2="18.4" y2="9.1"/>
				
					<line fill="none" stroke="#2A3C65" stroke-width="2" stroke-linecap="round" stroke-linejoin="round" stroke-miterlimit="10" x1="20.9" y1="9.1" x2="21.9" y2="9.1"/>
				
					<line fill="none" stroke="#2A3C65" stroke-width="2" stroke-linecap="round" stroke-linejoin="round" stroke-miterlimit="10" x1="24.4" y1="9.1" x2="25.4" y2="9.1"/>
			</g>
			
				<line fill="none" stroke="#2A3C65" stroke-width="2" stroke-linecap="round" stroke-linejoin="round" stroke-miterlimit="10" x1="32.9" y1="9.1" x2="46" y2="9.1"/>
		</g>
	</g>
	<g>
		<g>
			
				<polyline fill="none" stroke="#2A3C65" stroke-width="2" stroke-linecap="round" stroke-linejoin="round" stroke-miterlimit="10" points="
				31.1,35.2 24.3,40 25.6,44.8 			"/>
			
				<polyline fill="none" stroke="#2A3C65" stroke-width="2" stroke-linecap="round" stroke-linejoin="round" stroke-miterlimit="10" points="
				21.2,38.2 23.8,32.8 32.1,32.2 			"/>
			
				<polyline fill="none" stroke="#2A3C65" stroke-width="2" stroke-linecap="round" stroke-linejoin="round" stroke-miterlimit="10" points="
				22.6,22.3 23.9,28.4 32.5,29.7 			"/>
			
				<polyline fill="none" stroke="#2A3C65" stroke-width="2" stroke-linecap="round" stroke-linejoin="round" stroke-miterlimit="10" points="
				26.4,20.1 26.4,24.2 31.1,27.9 			"/>
		</g>
		<g>
			
				<polyline fill="none" stroke="#2A3C65" stroke-width="2" stroke-linecap="round" stroke-linejoin="round" stroke-miterlimit="10" points="
				33,35.2 39.7,40 38.4,44.8 			"/>
			
				<polyline fill="none" stroke="#2A3C65" stroke-width="2" stroke-linecap="round" stroke-linejoin="round" stroke-miterlimit="10" points="
				42.9,38.2 40.3,32.8 31.9,32.2 			"/>
			
				<polyline fill="none" stroke="#2A3C65" stroke-width="2" stroke-linecap="round" stroke-linejoin="round" stroke-miterlimit="10" points="
				41.4,22.3 40.1,28.4 31.5,29.7 			"/>
			
				<polyline fill="none" stroke="#2A3C65" stroke-width="2" stroke-linecap="round" stroke-linejoin="round" stroke-miterlimit="10" points="
				37.6,20.1 37.6,24.2 33,27.9 			"/>
		</g>
		
			<circle fill="#FECB4D" stroke="#2A3C65" stroke-width="2" stroke-linecap="round" stroke-linejoin="round" stroke-miterlimit="10" cx="32" cy="28.2" r="3.7"/>
		
			<circle fill="#FECB4D" stroke="#2A3C65" stroke-width="2" stroke-linecap="round" stroke-linejoin="round" stroke-miterlimit="10" cx="32" cy="35.1" r="6.4"/>
	</g>
</g>
</svg>
