<?xml version="1.0" encoding="utf-8"?>
<!-- Generator: Adobe Illustrator 18.0.0, SVG Export Plug-In . SVG Version: 6.00 Build 0)  -->
<!DOCTYPE svg PUBLIC "-//W3C//DTD SVG 1.1//EN" "http://www.w3.org/Graphics/SVG/1.1/DTD/svg11.dtd">
<svg version="1.1" id="Layer_1" xmlns="http://www.w3.org/2000/svg" xmlns:xlink="http://www.w3.org/1999/xlink" x="0px" y="0px"
	 viewBox="0 0 64 64" enable-background="new 0 0 64 64" xml:space="preserve">
<g>
	<path fill="#FFD880" d="M54.7,14v45c0,2.2-1.8,4-4,4H13.3c-2.2,0-4-1.8-4-4V14c0-2.2,1.8-4,4-4h37.3C52.9,10,54.7,11.8,54.7,14z"/>
	<path fill="none" stroke="#2A3C65" stroke-width="2" stroke-linecap="round" stroke-linejoin="round" stroke-miterlimit="10" d="
		M46.7,10h3.9c2.2,0,4,1.8,4,4v45c0,2.2-1.8,4-4,4H13.3c-2.2,0-4-1.8-4-4V14c0-2.2,1.8-4,4-4h3.9"/>
	<path fill="#E3ECFF" d="M13.3,57V16c0-1.1,0.9-2,2-2h33.3c1.1,0,2,0.9,2,2v41c0,1.1-0.9,2-2,2H15.3C14.2,59,13.3,58.1,13.3,57z"/>
	<path fill="none" stroke="#2A3C65" stroke-width="2" stroke-linecap="round" stroke-linejoin="round" stroke-miterlimit="10" d="
		M46.6,14h2c1.1,0,2,0.9,2,2v41c0,1.1-0.9,2-2,2H15.3c-1.1,0-2-0.9-2-2V16c0-1.1,0.9-2,2-2h2"/>
	<path fill="#27D1FF" d="M42.7,9.2v3.7c0,1.1-0.9,2.1-2.1,2.1H23.3c-1.1,0-2.1-0.9-2.1-2.1V9.2c0-1.1,0.9-2.1,2.1-2.1h17.4
		C41.8,7.1,42.7,8,42.7,9.2z"/>
	<path fill="none" stroke="#2A3C65" stroke-width="2" stroke-linecap="round" stroke-linejoin="round" stroke-miterlimit="10" d="
		M42.7,9.2v3.7c0,1.1-0.9,2.1-2.1,2.1H23.3c-1.1,0-2.1-0.9-2.1-2.1V9.2c0-1.1,0.9-2.1,2.1-2.1h17.4C41.8,7.1,42.7,8,42.7,9.2z"/>
	<path fill="none" stroke="#2A3C65" stroke-width="2" stroke-linecap="round" stroke-linejoin="round" stroke-miterlimit="10" d="
		M37,6c0,0.4,0,0.8-0.1,1.1h-9.7C27.1,6.8,27,6.4,27,6c0-2.8,2.2-5,5-5S37,3.2,37,6z"/>
	
		<line fill="none" stroke="#2A3C65" stroke-width="2" stroke-linecap="round" stroke-linejoin="round" stroke-miterlimit="10" x1="45.5" y1="21.3" x2="31.8" y2="21.3"/>
	
		<line fill="none" stroke="#2A3C65" stroke-width="2" stroke-linecap="round" stroke-linejoin="round" stroke-miterlimit="10" x1="31.8" y1="25.2" x2="38.7" y2="25.2"/>
	
		<line fill="none" stroke="#2A3C65" stroke-width="2" stroke-linecap="round" stroke-linejoin="round" stroke-miterlimit="10" x1="45.5" y1="34.6" x2="31.8" y2="34.6"/>
	
		<line fill="none" stroke="#2A3C65" stroke-width="2" stroke-linecap="round" stroke-linejoin="round" stroke-miterlimit="10" x1="31.8" y1="38.5" x2="38.7" y2="38.5"/>
	
		<path fill="#FF7DAF" stroke="#2A3C65" stroke-width="2" stroke-linecap="round" stroke-linejoin="round" stroke-miterlimit="10" d="
		M27,47.5V52c0,1.1-0.9,2-2,2h-4.5c-1.1,0-2-0.9-2-2v-4.5c0-1.1,0.9-2,2-2H25C26.1,45.5,27,46.4,27,47.5z"/>
	
		<line fill="none" stroke="#2A3C65" stroke-width="2" stroke-linecap="round" stroke-linejoin="round" stroke-miterlimit="10" x1="45.5" y1="47.8" x2="31.8" y2="47.8"/>
	
		<line fill="none" stroke="#2A3C65" stroke-width="2" stroke-linecap="round" stroke-linejoin="round" stroke-miterlimit="10" x1="31.8" y1="51.7" x2="38.7" y2="51.7"/>
	
		<polyline fill="none" stroke="#2A3C65" stroke-width="2" stroke-linecap="round" stroke-linejoin="round" stroke-miterlimit="10" points="
		24.2,48.6 22.2,50.6 21.2,49.6 	"/>
	
		<path fill="#FF7DAF" stroke="#2A3C65" stroke-width="2" stroke-linecap="round" stroke-linejoin="round" stroke-miterlimit="10" d="
		M27,21v4.5c0,1.1-0.9,2-2,2h-4.5c-1.1,0-2-0.9-2-2V21c0-1.1,0.9-2,2-2H25C26.1,19,27,19.9,27,21z"/>
	
		<polyline fill="none" stroke="#2A3C65" stroke-width="2" stroke-linecap="round" stroke-linejoin="round" stroke-miterlimit="10" points="
		23.9,22.3 22.3,23.8 21.5,23.1 	"/>
	
		<path fill="#FF7DAF" stroke="#2A3C65" stroke-width="2" stroke-linecap="round" stroke-linejoin="round" stroke-miterlimit="10" d="
		M27,34.3v4.5c0,1.1-0.9,2-2,2h-4.5c-1.1,0-2-0.9-2-2v-4.5c0-1.1,0.9-2,2-2H25C26.1,32.3,27,33.1,27,34.3z"/>
	
		<line fill="none" stroke="#2A3C65" stroke-width="2" stroke-linecap="round" stroke-linejoin="round" stroke-miterlimit="10" x1="23.8" y1="35.4" x2="21.7" y2="37.6"/>
	
		<line fill="none" stroke="#2A3C65" stroke-width="2" stroke-linecap="round" stroke-linejoin="round" stroke-miterlimit="10" x1="21.7" y1="35.4" x2="23.8" y2="37.6"/>
</g>
</svg>
