<?xml version="1.0" encoding="utf-8"?>
<!-- Generator: Adobe Illustrator 18.0.0, SVG Export Plug-In . SVG Version: 6.00 Build 0)  -->
<!DOCTYPE svg PUBLIC "-//W3C//DTD SVG 1.1//EN" "http://www.w3.org/Graphics/SVG/1.1/DTD/svg11.dtd">
<svg version="1.1" id="Layer_1" xmlns="http://www.w3.org/2000/svg" xmlns:xlink="http://www.w3.org/1999/xlink" x="0px" y="0px"
	 viewBox="0 0 64 64" enable-background="new 0 0 64 64" xml:space="preserve">
<g>
	<path fill="#E3ECFF" d="M63,29.9c0,1.8-0.4,3.4-1,5c-1.9,4.4-6.4,7.1-11.2,7.1H12c-4.1,0-8-2.2-9.8-5.8C1.4,34.7,1,33.1,1,31.3
		c0-6,4.9-10.9,10.9-10.9h0.4c0-2.5,1-4.8,2.7-6.4c1.6-1.6,3.9-2.6,6.4-2.6H22C24.2,4,32-0.3,39.4,1.8c7,2,11.2,8.9,10,15.9h1.3
		C57.5,17.7,63,23.1,63,29.9z"/>
	<path fill="#C7D9F9" d="M63,29.9c0,1.8-0.4,3.4-1,5c-1.9,4.4-6.4,7-11.2,7L12,42c-4.1,0-8-2.2-9.8-5.8c-0.4-0.7-0.6-1.5-0.8-2.3
		c1,0.2,1.9,0.4,2.9,0.4h38.8c4.8,0,9.3-2.7,11.2-7c0.7-1.5,1-3.2,1-5c0-1.3-0.2-2.7-0.6-3.9C59.5,20,63,24.5,63,29.9z"/>
	<path fill="none" stroke="#2A3C65" stroke-width="2" stroke-linecap="round" stroke-linejoin="round" stroke-miterlimit="10" d="
		M55.7,41c2.8-1.1,5.1-3.3,6.3-6.1c0.7-1.5,1-3.2,1-5c0-6.8-5.5-12.2-12.3-12.2h-1.3c1.2-7-3-13.9-10-15.9
		C31.9-0.4,24.2,3.9,22,11.3h-0.6c-2.5,0-4.8,1-6.4,2.6c-1.6,1.7-2.7,3.9-2.7,6.5h-0.4C5.9,20.4,1,25.3,1,31.3
		c0,1.8,0.4,3.4,1.1,4.9c0.6,1.2,1.4,2.2,2.4,3.1"/>
	<g>
		<path fill="#27D1FF" d="M31.5,40.6c-0.2,0.5-0.4,1-0.6,1.4c-0.1,0.3-0.2,0.6,0,0.9l1.1,2.3c0.2,0.4,0.1,0.8-0.2,1.1l-1.1,1.1
			c-0.3,0.3-0.8,0.4-1.1,0.2l-2.3-1.1c-0.3-0.1-0.6-0.1-0.9,0C26,46.8,25.5,47,25,47.2c-0.3,0.1-0.5,0.3-0.6,0.6l-0.8,2.4
			c-0.1,0.4-0.5,0.7-0.9,0.7H21c-0.4,0-0.8-0.3-0.9-0.7l-0.8-2.4c-0.1-0.3-0.3-0.5-0.6-0.6c-0.5-0.2-1-0.4-1.4-0.6
			c-0.3-0.1-0.6-0.2-0.9,0L14,47.7c-0.4,0.2-0.8,0.1-1.1-0.2l-1.1-1.1c-0.3-0.3-0.4-0.8-0.2-1.1l1.1-2.3c0.1-0.3,0.1-0.6,0-0.9
			c-0.2-0.5-0.4-0.9-0.6-1.4c-0.1-0.3-0.3-0.5-0.6-0.6l-2.4-0.8c-0.4-0.1-0.7-0.5-0.7-0.9v-1.5c0-0.4,0.3-0.8,0.7-0.9l2.4-0.8
			c0.3-0.1,0.5-0.3,0.6-0.6c0.2-0.5,0.4-1,0.6-1.4c0.1-0.3,0.2-0.6,0-0.9L11.6,30c-0.2-0.4-0.1-0.8,0.2-1.1l1.1-1.1
			c0.3-0.3,0.8-0.4,1.1-0.2l2.3,1.1c0.3,0.1,0.6,0.1,0.9,0c0.5-0.2,0.9-0.4,1.4-0.6c0.3-0.1,0.5-0.3,0.6-0.6l0.8-2.4
			c0.1-0.4,0.5-0.7,0.9-0.7h1.5c0.4,0,0.8,0.3,0.9,0.7l0.8,2.4c0.1,0.3,0.3,0.5,0.6,0.6c0.5,0.2,1,0.4,1.4,0.6
			c0.3,0.1,0.6,0.2,0.9,0l2.3-1.1c0.4-0.2,0.8-0.1,1.1,0.2l1.1,1.1c0.3,0.3,0.4,0.8,0.2,1.1l-1.1,2.3c-0.1,0.3-0.1,0.6,0,0.9
			c0.2,0.5,0.4,0.9,0.6,1.4c0.1,0.3,0.3,0.5,0.6,0.6l2.4,0.8c0.4,0.1,0.7,0.5,0.7,0.9v1.5c0,0.4-0.3,0.8-0.7,0.9L32.1,40
			C31.8,40.1,31.6,40.3,31.5,40.6z"/>
		<path fill="none" stroke="#2A3C65" stroke-width="2" stroke-linecap="round" stroke-linejoin="round" stroke-miterlimit="10" d="
			M31.5,40.6c-0.2,0.5-0.4,1-0.6,1.4c-0.1,0.3-0.2,0.6,0,0.9l1.1,2.3c0.2,0.4,0.1,0.8-0.2,1.1l-1.1,1.1c-0.3,0.3-0.8,0.4-1.1,0.2
			l-2.3-1.1c-0.3-0.1-0.6-0.1-0.9,0C26,46.8,25.5,47,25,47.2c-0.3,0.1-0.5,0.3-0.6,0.6l-0.8,2.4c-0.1,0.4-0.5,0.7-0.9,0.7H21
			c-0.4,0-0.8-0.3-0.9-0.7l-0.8-2.4c-0.1-0.3-0.3-0.5-0.6-0.6c-0.5-0.2-1-0.4-1.4-0.6c-0.3-0.1-0.6-0.2-0.9,0L14,47.7
			c-0.4,0.2-0.8,0.1-1.1-0.2l-1.1-1.1c-0.3-0.3-0.4-0.8-0.2-1.1l1.1-2.3c0.1-0.3,0.1-0.6,0-0.9c-0.2-0.5-0.4-0.9-0.6-1.4
			c-0.1-0.3-0.3-0.5-0.6-0.6l-2.4-0.8c-0.4-0.1-0.7-0.5-0.7-0.9v-1.5c0-0.4,0.3-0.8,0.7-0.9l2.4-0.8c0.3-0.1,0.5-0.3,0.6-0.6
			c0.2-0.5,0.4-1,0.6-1.4c0.1-0.3,0.2-0.6,0-0.9L11.6,30c-0.2-0.4-0.1-0.8,0.2-1.1l1.1-1.1c0.3-0.3,0.8-0.4,1.1-0.2l2.3,1.1
			c0.3,0.1,0.6,0.1,0.9,0c0.5-0.2,0.9-0.4,1.4-0.6c0.3-0.1,0.5-0.3,0.6-0.6l0.8-2.4c0.1-0.4,0.5-0.7,0.9-0.7h1.5
			c0.4,0,0.8,0.3,0.9,0.7l0.8,2.4c0.1,0.3,0.3,0.5,0.6,0.6c0.5,0.2,1,0.4,1.4,0.6c0.3,0.1,0.6,0.2,0.9,0l2.3-1.1
			c0.4-0.2,0.8-0.1,1.1,0.2l1.1,1.1c0.3,0.3,0.4,0.8,0.2,1.1l-1.1,2.3c-0.1,0.3-0.1,0.6,0,0.9c0.2,0.5,0.4,0.9,0.6,1.4
			c0.1,0.3,0.3,0.5,0.6,0.6l2.4,0.8c0.4,0.1,0.7,0.5,0.7,0.9v1.5c0,0.4-0.3,0.8-0.7,0.9L32.1,40C31.8,40.1,31.6,40.3,31.5,40.6z"/>
		
			<path fill="#E3ECFF" stroke="#2A3C65" stroke-width="2" stroke-linecap="round" stroke-linejoin="round" stroke-miterlimit="10" d="
			M27.1,37.5c0,2.9-2.4,5.3-5.3,5.3s-5.3-2.4-5.3-5.3s2.4-5.3,5.3-5.3S27.1,34.5,27.1,37.5z"/>
	</g>
	<g>
		<path fill="#FFD880" d="M52.4,54c-0.1,0.4-0.3,0.8-0.5,1.2c-0.1,0.2-0.1,0.5,0,0.8l0.9,1.9c0.2,0.3,0.1,0.7-0.2,1l-0.9,0.9
			c-0.3,0.3-0.7,0.3-1,0.2l-2-0.9c-0.2-0.1-0.5-0.1-0.8,0c-0.4,0.2-0.8,0.4-1.2,0.5c-0.3,0.1-0.5,0.3-0.6,0.5l-0.7,2.1
			c-0.1,0.3-0.4,0.6-0.8,0.6h-1.3c-0.4,0-0.7-0.2-0.8-0.6l-0.7-2.1c-0.1-0.3-0.3-0.4-0.6-0.5c-0.4-0.1-0.8-0.3-1.2-0.5
			c-0.2-0.1-0.5-0.1-0.8,0l-2,0.9c-0.3,0.2-0.7,0.1-1-0.2L35.5,59c-0.3-0.3-0.3-0.7-0.2-1l0.9-1.9c0.1-0.2,0.1-0.5,0-0.8
			c-0.2-0.4-0.4-0.8-0.5-1.2c-0.1-0.3-0.3-0.5-0.5-0.6l-2-0.7c-0.3-0.1-0.6-0.4-0.6-0.8v-1.3c0-0.4,0.2-0.7,0.6-0.8l2-0.7
			c0.3-0.1,0.4-0.3,0.5-0.6c0.1-0.4,0.3-0.8,0.5-1.2c0.1-0.2,0.1-0.5,0-0.8l-0.9-1.9c-0.2-0.3-0.1-0.7,0.2-1l0.9-0.9
			c0.3-0.3,0.7-0.3,1-0.2l2,0.9c0.2,0.1,0.5,0.1,0.8,0c0.4-0.2,0.8-0.4,1.2-0.5c0.3-0.1,0.5-0.3,0.6-0.5l0.7-2.1
			c0.1-0.3,0.4-0.6,0.8-0.6h1.3c0.4,0,0.7,0.2,0.8,0.6l0.7,2.1c0.1,0.3,0.3,0.4,0.6,0.5c0.4,0.1,0.8,0.3,1.2,0.5
			c0.2,0.1,0.5,0.1,0.8,0l2-0.9c0.3-0.2,0.7-0.1,1,0.2l0.9,0.9c0.3,0.3,0.3,0.7,0.2,1l-0.9,1.9c-0.1,0.2-0.1,0.5,0,0.8
			c0.2,0.4,0.4,0.8,0.5,1.2c0.1,0.3,0.3,0.5,0.5,0.6l2,0.7c0.3,0.1,0.6,0.4,0.6,0.8V52c0,0.4-0.2,0.7-0.6,0.8l-2,0.7
			C52.7,53.6,52.5,53.8,52.4,54z"/>
		<path fill="none" stroke="#2A3C65" stroke-width="2" stroke-linecap="round" stroke-linejoin="round" stroke-miterlimit="10" d="
			M52.4,54c-0.1,0.4-0.3,0.8-0.5,1.2c-0.1,0.2-0.1,0.5,0,0.8l0.9,1.9c0.2,0.3,0.1,0.7-0.2,1l-0.9,0.9c-0.3,0.3-0.7,0.3-1,0.2l-2-0.9
			c-0.2-0.1-0.5-0.1-0.8,0c-0.4,0.2-0.8,0.4-1.2,0.5c-0.3,0.1-0.5,0.3-0.6,0.5l-0.7,2.1c-0.1,0.3-0.4,0.6-0.8,0.6h-1.3
			c-0.4,0-0.7-0.2-0.8-0.6l-0.7-2.1c-0.1-0.3-0.3-0.4-0.6-0.5c-0.4-0.1-0.8-0.3-1.2-0.5c-0.2-0.1-0.5-0.1-0.8,0l-2,0.9
			c-0.3,0.2-0.7,0.1-1-0.2L35.5,59c-0.3-0.3-0.3-0.7-0.2-1l0.9-1.9c0.1-0.2,0.1-0.5,0-0.8c-0.2-0.4-0.4-0.8-0.5-1.2
			c-0.1-0.3-0.3-0.5-0.5-0.6l-2-0.7c-0.3-0.1-0.6-0.4-0.6-0.8v-1.3c0-0.4,0.2-0.7,0.6-0.8l2-0.7c0.3-0.1,0.4-0.3,0.5-0.6
			c0.1-0.4,0.3-0.8,0.5-1.2c0.1-0.2,0.1-0.5,0-0.8l-0.9-1.9c-0.2-0.3-0.1-0.7,0.2-1l0.9-0.9c0.3-0.3,0.7-0.3,1-0.2l2,0.9
			c0.2,0.1,0.5,0.1,0.8,0c0.4-0.2,0.8-0.4,1.2-0.5c0.3-0.1,0.5-0.3,0.6-0.5l0.7-2.1c0.1-0.3,0.4-0.6,0.8-0.6h1.3
			c0.4,0,0.7,0.2,0.8,0.6l0.7,2.1c0.1,0.3,0.3,0.4,0.6,0.5c0.4,0.1,0.8,0.3,1.2,0.5c0.2,0.1,0.5,0.1,0.8,0l2-0.9
			c0.3-0.2,0.7-0.1,1,0.2l0.9,0.9c0.3,0.3,0.3,0.7,0.2,1l-0.9,1.9c-0.1,0.2-0.1,0.5,0,0.8c0.2,0.4,0.4,0.8,0.5,1.2
			c0.1,0.3,0.3,0.5,0.5,0.6l2,0.7c0.3,0.1,0.6,0.4,0.6,0.8V52c0,0.4-0.2,0.7-0.6,0.8l-2,0.7C52.7,53.6,52.5,53.8,52.4,54z"/>
		
			<path fill="#FFFFFF" stroke="#2A3C65" stroke-width="2" stroke-linecap="round" stroke-linejoin="round" stroke-miterlimit="10" d="
			M48.6,51.3c0,2.5-2,4.5-4.5,4.5s-4.5-2-4.5-4.5s2-4.5,4.5-4.5S48.6,48.8,48.6,51.3z"/>
	</g>
</g>
</svg>
