<?xml version="1.0" encoding="utf-8"?>
<!-- Generator: Adobe Illustrator 18.0.0, SVG Export Plug-In . SVG Version: 6.00 Build 0)  -->
<!DOCTYPE svg PUBLIC "-//W3C//DTD SVG 1.1//EN" "http://www.w3.org/Graphics/SVG/1.1/DTD/svg11.dtd">
<svg version="1.1" id="Layer_1" xmlns="http://www.w3.org/2000/svg" xmlns:xlink="http://www.w3.org/1999/xlink" x="0px" y="0px"
	 viewBox="0 0 66 66" enable-background="new 0 0 66 66" xml:space="preserve">
<g>
	<path fill="#02BEFF" d="M39.5,22.3v19.6H2V22.3c0-0.9,0.7-1.6,1.6-1.6h34.3C38.8,20.7,39.5,21.4,39.5,22.3z"/>
	<path fill="#02BEFF" d="M39.5,22.3v19.6H2V22.3c0-0.9,0.7-1.6,1.6-1.6h34.3C38.8,20.7,39.5,21.4,39.5,22.3z"/>
	<g>
		<polygon fill="#27D1FF" points="26.8,20.7 16.4,41.9 6.7,41.9 17.1,20.7 		"/>
		<polygon fill="#27D1FF" points="34.8,20.7 24.4,41.9 19.5,41.9 30,20.7 		"/>
	</g>
	<path fill="none" stroke="#2A3C65" stroke-width="2" stroke-linecap="round" stroke-linejoin="round" stroke-miterlimit="10" d="
		M2,37.9V22.3c0-0.9,0.7-1.6,1.6-1.6h34.3c0.9,0,1.6,0.7,1.6,1.6v15.6"/>
	<path fill="#1DE9B6" d="M2,41.9v5c0,0.9,0.7,1.6,1.6,1.6h34.3c0.9,0,1.6-0.7,1.6-1.6v-5H2z"/>
	<path fill="#12D69E" d="M39.5,41.9v3.2H10.2c-2.2,0-4.1,1.4-4.7,3.4H3.6c-0.9,0-1.6-0.7-1.6-1.6v-5C2,41.9,39.5,41.9,39.5,41.9z"/>
	<path fill="none" stroke="#2A3C65" stroke-width="2" stroke-linecap="round" stroke-linejoin="round" stroke-miterlimit="10" d="
		M2,41.9v5c0,0.9,0.7,1.6,1.6,1.6h34.3c0.9,0,1.6-0.7,1.6-1.6v-5H2z"/>
	
		<polyline fill="none" stroke="#2A3C65" stroke-width="2" stroke-linecap="round" stroke-linejoin="round" stroke-miterlimit="10" points="
		26.6,52.5 27.7,56.3 13.8,56.3 14.9,52.5 15.8,49.5 	"/>
	
		<line fill="none" stroke="#2A3C65" stroke-width="2" stroke-linecap="round" stroke-linejoin="round" stroke-miterlimit="10" x1="11.4" y1="56.3" x2="30.1" y2="56.3"/>
	<path fill="#FF7DAF" d="M64,13.7v36c0,2.2-1.8,4-4,4H47.5c-2.2,0-4-1.8-4-4v-36c0-2.2,1.8-4,4-4H60C62.2,9.7,64,11.5,64,13.7z"/>
	<path fill="#FF5892" d="M64,13.7v0.5c-8.9,0.3-16,7.5-16,16.5v23h-0.5c-2.2,0-4-1.8-4-4v-36c0-2.2,1.8-4,4-4H60
		C62.2,9.7,64,11.5,64,13.7z"/>
	<path fill="none" stroke="#2A3C65" stroke-width="2" stroke-linecap="round" stroke-linejoin="round" stroke-miterlimit="10" d="
		M64,13.7v36c0,2.2-1.8,4-4,4H47.5c-2.2,0-4-1.8-4-4v-36c0-2.2,1.8-4,4-4H60C62.2,9.7,64,11.5,64,13.7z"/>
	
		<rect x="46.8" y="16.4" fill="#E3ECFF" stroke="#2A3C65" stroke-width="2" stroke-linecap="round" stroke-linejoin="round" stroke-miterlimit="10" width="14" height="4"/>
	
		<line fill="none" stroke="#2A3C65" stroke-width="2" stroke-linecap="round" stroke-linejoin="round" stroke-miterlimit="10" x1="46.8" y1="25.7" x2="60.8" y2="25.7"/>
	
		<line fill="none" stroke="#2A3C65" stroke-width="2" stroke-linecap="round" stroke-linejoin="round" stroke-miterlimit="10" x1="46.8" y1="30.9" x2="60.8" y2="30.9"/>
	
		<line fill="none" stroke="#2A3C65" stroke-width="2" stroke-linecap="round" stroke-linejoin="round" stroke-miterlimit="10" x1="46.8" y1="36.2" x2="60.8" y2="36.2"/>
	
		<circle fill="#FFD880" stroke="#2A3C65" stroke-width="2" stroke-linecap="round" stroke-linejoin="round" stroke-miterlimit="10" cx="53.8" cy="44.3" r="2.9"/>
</g>
</svg>
