<?xml version="1.0" encoding="utf-8"?>
<!-- Generator: Adobe Illustrator 18.0.0, SVG Export Plug-In . SVG Version: 6.00 Build 0)  -->
<!DOCTYPE svg PUBLIC "-//W3C//DTD SVG 1.1//EN" "http://www.w3.org/Graphics/SVG/1.1/DTD/svg11.dtd">
<svg version="1.1" id="Layer_1" xmlns="http://www.w3.org/2000/svg" xmlns:xlink="http://www.w3.org/1999/xlink" x="0px" y="0px"
	 viewBox="0 0 64 64" enable-background="new 0 0 64 64" xml:space="preserve">
<g>
	<g>
		<path fill="#42BAEB" d="M54.1,27.6c0,6.4-2.3,12.3-6,16.9c-4.9,5.9-12.3,9.7-20.5,9.7S11.9,50.3,7,44.4C3.3,39.8,1,34,1,27.6
			s2.3-12.3,6-16.9C11.9,4.8,19.3,1,27.6,1s15.7,3.8,20.5,9.7C51.9,15.3,54.1,21.1,54.1,27.6z"/>
		<path fill="#03ADDB" d="M46.4,27.6c0,4.6-1.6,8.7-4.3,12c-3.5,4.2-8.7,6.9-14.6,6.9s-11.1-2.7-14.5-7c-2.7-3.3-4.3-7.4-4.3-12
			s1.6-8.7,4.3-12c3.5-4.2,8.7-6.9,14.6-6.9s11.1,2.7,14.6,6.9C44.8,18.8,46.4,23,46.4,27.6z"/>
		<path fill="none" stroke="#2B3C65" stroke-width="2" stroke-linecap="round" stroke-linejoin="round" stroke-miterlimit="10" d="
			M53.7,23c-0.8-4.6-2.8-8.8-5.6-12.3C43.2,4.8,35.8,1,27.6,1S11.9,4.8,7,10.7c-3.8,4.6-6,10.5-6,16.9s2.3,12.3,6,16.9
			c0.2,0.3,0.5,0.6,0.8,0.9C8,45.6,8.2,45.8,8.4,46c0.9,0.9,1.8,1.7,2.8,2.5c0.4,0.3,0.8,0.6,1.1,0.8s0.6,0.4,0.9,0.6
			c0.6,0.4,1.2,0.8,1.8,1.1c0.2,0.1,0.4,0.2,0.7,0.3c0.5,0.2,0.9,0.5,1.4,0.7c0.4,0.2,0.7,0.3,1.1,0.4c0.2,0.1,0.3,0.1,0.5,0.2
			c0.2,0.1,0.4,0.2,0.6,0.2c1.1,0.4,2.3,0.7,3.4,0.9c0.4,0.1,0.9,0.1,1.4,0.2"/>
		<path fill="none" stroke="#2B3C65" stroke-width="2" stroke-linecap="round" stroke-linejoin="round" stroke-miterlimit="10" d="
			M22.8,52.8c-3.7-2-6.8-6.3-8.7-11.9C12.7,37,12,32.4,12,27.6s0.8-9.4,2.1-13.3C16.8,6.3,21.8,1,27.6,1S38.3,6.3,41,14.2
			c0.8,2.4,1.4,4.9,1.8,7.7"/>
		<g>
			<path fill="none" stroke="#2B3C65" stroke-width="2" stroke-linecap="round" stroke-linejoin="round" stroke-miterlimit="10" d="
				M24.1,53.9c-0.5-0.1-0.9-0.1-1.4-0.2c-1.2-0.2-2.3-0.5-3.4-0.9c-0.2-0.1-0.4-0.1-0.6-0.2c-0.2,0-0.3-0.1-0.5-0.2
				c-0.4-0.1-0.7-0.3-1.1-0.4c-0.5-0.2-1-0.4-1.4-0.7c-0.2-0.1-0.5-0.2-0.7-0.3c-0.6-0.3-1.3-0.7-1.8-1.1c-0.3-0.2-0.6-0.4-0.9-0.6
				c-0.4-0.3-0.8-0.5-1.1-0.8c-1-0.8-1.9-1.6-2.8-2.5c-0.2-0.2-0.4-0.4-0.6-0.6c-0.3-0.4-0.5-0.7-0.8-1c2-1.4,4.4-2.6,7-3.5
				c3.1-1.1,6.7-1.8,10.5-2.1"/>
			<path fill="none" stroke="#2B3C65" stroke-width="2" stroke-linecap="round" stroke-linejoin="round" stroke-miterlimit="10" d="
				M48.1,10.7c-4.9,3.5-12.3,5.7-20.5,5.7S11.9,14.2,7,10.7C11.9,4.8,19.3,1,27.6,1S43.2,4.8,48.1,10.7z"/>
		</g>
		<g>
			<g>
				
					<polyline fill="none" stroke="#2B3C65" stroke-width="2" stroke-linecap="round" stroke-linejoin="round" stroke-miterlimit="10" points="
					27.6,35.9 27.6,27.6 27.6,16.4 27.6,1 				"/>
			</g>
			
				<polyline fill="none" stroke="#2B3C65" stroke-width="2" stroke-linecap="round" stroke-linejoin="round" stroke-miterlimit="10" points="
				1,27.6 12,27.6 27.6,27.6 35.9,27.6 			"/>
		</g>
		<path fill="#FECB4D" d="M58.5,29v17.9H52V29c0-1.1,0.9-2.1,2.1-2.1h2.4C57.6,27,58.5,27.9,58.5,29z"/>
		<path fill="none" stroke="#2B3C65" stroke-width="2" stroke-linecap="round" stroke-linejoin="round" stroke-miterlimit="10" d="
			M52,29.6V29c0-1.1,0.9-2.1,2.1-2.1h2.4c1.1,0,2.1,0.9,2.1,2.1v7.1"/>
		<path fill="#C9D8EF" d="M60.5,42.3V63H26.8V42.3L43.1,26c0.3-0.3,0.8-0.3,1.1,0L60.5,42.3z"/>
		<path fill="#B2CBEA" d="M60.5,42.3V63H26.8v-4h9c11.4,0,20.7-9.3,20.7-20.7L60.5,42.3z"/>
		<g>
			<path fill="#77C9AE" d="M50,50.6V63H37.2V50.6c0-1.5,1.2-2.7,2.7-2.7h7.5C48.8,47.9,50,49.1,50,50.6z"/>
			<path fill="none" stroke="#2B3C65" stroke-width="2" stroke-linecap="round" stroke-linejoin="round" stroke-miterlimit="10" d="
				M50,59v-8.4c0-1.5-1.2-2.7-2.7-2.7h-7.5c-1.5,0-2.7,1.2-2.7,2.7V59"/>
		</g>
		
			<polyline fill="none" stroke="#2B3C65" stroke-width="2" stroke-linecap="round" stroke-linejoin="round" stroke-miterlimit="10" points="
			60.5,46.6 60.5,63 26.8,63 26.8,46.6 		"/>
		<path fill="none" stroke="#2B3C65" stroke-width="2" stroke-linecap="round" stroke-linejoin="round" stroke-miterlimit="10" d="
			M63,44.9l-2.5-2.5L44.2,26c-0.3-0.3-0.8-0.3-1.1,0L26.8,42.3l-2.5,2.5"/>
	</g>
	
		<line fill="none" stroke="#2B3C65" stroke-width="2" stroke-linecap="round" stroke-linejoin="round" stroke-miterlimit="10" x1="24.6" y1="63" x2="62.6" y2="63"/>
</g>
</svg>
