<?xml version="1.0" encoding="utf-8"?>
<!-- Generator: Adobe Illustrator 18.0.0, SVG Export Plug-In . SVG Version: 6.00 Build 0)  -->
<!DOCTYPE svg PUBLIC "-//W3C//DTD SVG 1.1//EN" "http://www.w3.org/Graphics/SVG/1.1/DTD/svg11.dtd">
<svg version="1.1" id="Layer_1" xmlns="http://www.w3.org/2000/svg" xmlns:xlink="http://www.w3.org/1999/xlink" x="0px" y="0px"
	 viewBox="0 0 64 64" enable-background="new 0 0 64 64" xml:space="preserve">
<g>
	
		<polygon fill="#FFD880" stroke="#2B3C65" stroke-width="2" stroke-linecap="round" stroke-linejoin="round" stroke-miterlimit="10" points="
		20.1,12.8 19.7,20.9 24.1,18.7 24.9,13.3 	"/>
	<path fill="#FFD880" d="M54.3,21.7v13c0,1.6-1.3,3-3,3H35c-1.6,0-3-1.3-3-3v-13c0-1.6,1.3-3,3-3h16.4C53,18.7,54.3,20.1,54.3,21.7z
		"/>
	<path fill="#FECB4D" d="M54.3,21.7v13c0,1.6-1.3,3-3,3H35c-1.5,0-2.8-1.1-2.9-2.6c0.1,0,0.3,0,0.4,0h3.3c8.9,0,16-7.2,16-16
		c0-0.1,0-0.3,0-0.4C53.2,19,54.3,20.2,54.3,21.7z"/>
	<path fill="none" stroke="#2B3C65" stroke-width="2" stroke-linecap="round" stroke-linejoin="round" stroke-miterlimit="10" d="
		M32.1,35.7c0.4,1.2,1.5,2.1,2.8,2.1h16.4c1.6,0,3-1.3,3-3v-13c0-1.6-1.3-3-3-3H35c-1.6,0-3,1.3-3,3v2.4"/>
	<path fill="#F27DAD" d="M26.6,28.8v7.9l6,9.5c0.5,0.8,0.8,1.7,0.9,2.7l0.5,5.5c0.1,0.8,0.8,1.3,1.5,1.2l3-0.3
		c0.8-0.1,1.5,0.5,1.5,1.4c0,0.6-0.4,1.1-0.9,1.3l-7.9,3c-0.8,0.3-1.8-0.3-1.8-1.2L28.9,54c-0.1-1-0.4-2-1-2.8L21.7,42l-1.6,8.7
		c-0.2,1.1-0.6,2.1-1.3,3l-1.9,2.6c-0.5,0.6-0.5,1.5,0,2.2l1.2,1.5c0.6,0.7,0.5,1.8-0.2,2.4c-0.3,0.3-0.8,0.5-1.2,0.5
		c-0.5,0-0.9-0.2-1.3-0.5l-5.2-5.1c-0.7-0.7-0.7-1.9,0-2.6l2.5-2.5c1.2-1.2,1.9-2.8,2.1-4.5l2.9-26.2c0.2-1.6,1.5-2.8,3.2-2.8h2.8
		c1.1,0,2.1,0.6,2.7,1.5l3.5,6.2c0.8,1.4,2.2,2.2,3.8,2.2h5.2c1.1,0,2,0.9,2,2c0,0.5-0.2,1-0.6,1.4c-0.4,0.4-0.9,0.6-1.4,0.6h-6.7
		c-1,0-1.9-0.4-2.6-1L26.6,28.8z"/>
	<path fill="#42BAEB" d="M38.6,55.2l-3,0.3c-0.8,0.1-1.4-0.5-1.5-1.2l-0.5-5.5c-0.1-0.9-0.4-1.8-0.9-2.7l-6-9.4H16.1l-1.2,11.1
		c-0.2,1.7-0.9,3.3-2.1,4.5l-2.5,2.5c-0.7,0.7-0.7,1.9,0,2.6l5.2,5.1c0.4,0.4,0.8,0.5,1.3,0.5c0.4,0,0.9-0.2,1.2-0.5
		c0.7-0.6,0.8-1.7,0.2-2.4L17,58.5c-0.5-0.6-0.5-1.5,0-2.2l1.9-2.6c0.7-0.9,1.1-1.9,1.3-3l1.6-8.7l6.3,9.3c0.6,0.8,0.9,1.8,1,2.8
		l0.5,5.6c0.1,0.9,1,1.5,1.8,1.2l7.9-3c0.5-0.2,0.9-0.7,0.9-1.3C40.1,55.7,39.4,55.1,38.6,55.2z"/>
	<path fill="none" stroke="#2B3C65" stroke-width="2" stroke-linecap="round" stroke-linejoin="round" stroke-miterlimit="10" d="
		M26.6,36.7l6,9.5c0.5,0.8,0.8,1.7,0.9,2.6l0.5,5.5c0.1,0.8,0.8,1.3,1.5,1.2l3-0.3c0.8-0.1,1.5,0.5,1.5,1.4l0,0
		c0,0.6-0.4,1.1-0.9,1.3l-7.9,3c-0.8,0.3-1.8-0.3-1.8-1.1L28.9,54c-0.1-1-0.4-2-1-2.8L21.7,42l-1.6,8.7c-0.2,1.1-0.6,2.1-1.3,3
		l-1.9,2.6c-0.5,0.6-0.5,1.5,0,2.2l1.2,1.6c0.6,0.7,0.5,1.8-0.2,2.4l0,0c-0.7,0.7-1.8,0.7-2.5,0l-5.2-5.1c-0.7-0.7-0.7-1.9,0-2.6
		l2.5-2.5c1.2-1.2,1.9-2.8,2.1-4.5l2.9-26.2c0.2-1.6,1.5-2.9,3.2-2.9h2.8c1.1,0,2.1,0.6,2.7,1.5l3.5,6.2c0.8,1.4,2.2,2.2,3.8,2.2
		h5.2c1.1,0,2,0.9,2,2l0,0c0,1.1-0.9,2-2,2h-6.7c-1,0-1.9-0.4-2.6-1l-3-2.8h-2.2"/>
	
		<path fill="#FFD880" stroke="#2B3C65" stroke-width="2" stroke-linecap="round" stroke-linejoin="round" stroke-miterlimit="10" d="
		M27.7,6.3v4.9c0,2.3-1.9,4.1-4.1,4.1h-1.2c-2.7,0-4.9-2.2-4.9-4.9V6.3H27.7z"/>
	
		<path fill="#62C3A6" stroke="#2B3C65" stroke-width="2" stroke-linecap="round" stroke-linejoin="round" stroke-miterlimit="10" d="
		M27.8,6.3H17.3c0-2.9,2.4-5.3,5.3-5.3C25.4,1,27.8,3.4,27.8,6.3z"/>
	
		<line fill="none" stroke="#2B3C65" stroke-width="2" stroke-linecap="round" stroke-linejoin="round" stroke-miterlimit="10" x1="24.4" y1="6.3" x2="33.2" y2="6.3"/>
	
		<polyline fill="none" stroke="#2B3C65" stroke-width="2" stroke-linecap="round" stroke-linejoin="round" stroke-miterlimit="10" points="
		20.4,36.7 26.6,36.7 26.6,28.8 	"/>
	
		<polygon fill="#C9D8EF" stroke="#2B3C65" stroke-width="2" stroke-linecap="round" stroke-linejoin="round" stroke-miterlimit="10" points="
		40.2,18.7 40.2,25.4 43.1,23 46,25.4 46,18.7 	"/>
	
		<line fill="none" stroke="#2B3C65" stroke-width="2" stroke-linecap="round" stroke-linejoin="round" stroke-miterlimit="10" x1="1" y1="63" x2="63" y2="63"/>
</g>
</svg>
