<?xml version="1.0" encoding="utf-8"?>
<!-- Generator: Adobe Illustrator 18.0.0, SVG Export Plug-In . SVG Version: 6.00 Build 0)  -->
<!DOCTYPE svg PUBLIC "-//W3C//DTD SVG 1.1//EN" "http://www.w3.org/Graphics/SVG/1.1/DTD/svg11.dtd">
<svg version="1.1" id="Layer_1" xmlns="http://www.w3.org/2000/svg" xmlns:xlink="http://www.w3.org/1999/xlink" x="0px" y="0px"
	 viewBox="0 0 66 66" enable-background="new 0 0 66 66" xml:space="preserve">
<g>
	<path fill="#27D1FF" d="M60.5,20.7v34.4h-55V20.7c0-1.7,1.3-3,3-3h49C59.2,17.7,60.5,19,60.5,20.7z"/>
	<polygon fill="#02BEFF" points="45.9,17.7 18.7,55.1 9.9,55.1 37.2,17.7 	"/>
	<polygon fill="#02BEFF" points="56.1,17.7 28.8,55.1 23,55.1 50.3,17.7 	"/>
	<path fill="none" stroke="#3A3E59" stroke-width="2" stroke-linecap="round" stroke-linejoin="round" stroke-miterlimit="10" d="
		M5.5,51.1V20.7c0-1.7,1.3-3,3-3h2"/>
	<path fill="none" stroke="#3A3E59" stroke-width="2" stroke-linecap="round" stroke-linejoin="round" stroke-miterlimit="10" d="
		M32.1,17.7h25.4c1.7,0,3,1.3,3,3v30.4"/>
	<path fill="#CC87FE" d="M63.1,58.6c0.5-0.4,0.9-1,0.9-1.7v-1.8l0,0H2l0,0v1.8c0,0.7,0.3,1.3,0.9,1.7l4.3,2.9
		c0.3,0.2,0.7,0.3,1.1,0.3h49.3c0.4,0,0.8-0.1,1.1-0.3L63.1,58.6z"/>
	<path fill="none" stroke="#3A3E59" stroke-width="2" stroke-linecap="round" stroke-linejoin="round" stroke-miterlimit="10" d="
		M63.1,58.6c0.5-0.4,0.9-1,0.9-1.7v-0.8c0-0.6-0.4-1-1-1H3c-0.6,0-1,0.4-1,1v0.8c0,0.7,0.3,1.3,0.9,1.7l4.3,2.9
		c0.3,0.2,0.7,0.3,1.1,0.3h49.3c0.4,0,0.8-0.1,1.1-0.3L63.1,58.6z"/>
	<path fill="#C7D9F9" d="M32.6,24.1c-2-2.3-20.9-21.8-23.3-19.8s12.8,24.6,14.8,27s5.5,2.6,7.9,0.6S34.6,26.4,32.6,24.1z"/>
	<path fill="#B0CDF7" d="M32,31.9c-2.3,2-5.9,1.7-7.8-0.6C22.1,29,7,6.3,9.3,4.3c0.4-0.3,1.3,0,2.5,0.7c4,7.5,11,17.8,12.3,19.3
		c2,2.4,5.5,2.6,7.8,0.6c0.3-0.2,0.5-0.5,0.7-0.8C34.6,26.5,34.3,30,32,31.9z"/>
	<path fill="#FECB4D" d="M38.2,32.8c-1.5-1.7-4.1-2-5.9-0.5c-1.7,1.5-2,4.1-0.5,5.9c0.8,1,4.3,3,7.2,4.6c1.4,0.8,3.1-0.6,2.5-2.2
		C40.5,37.6,39,33.8,38.2,32.8z"/>
	<path fill="none" stroke="#2A3C65" stroke-width="2" stroke-linecap="round" stroke-linejoin="round" stroke-miterlimit="10" d="
		M38.2,32.8c-1.5-1.7-4.1-2-5.9-0.5c-1.7,1.5-2,4.1-0.5,5.9c0.8,1,4.3,3,7.2,4.6c1.4,0.8,3.1-0.6,2.5-2.2
		C40.5,37.6,39,33.8,38.2,32.8z"/>
	<path fill="none" stroke="#2A3C65" stroke-width="2" stroke-linecap="round" stroke-linejoin="round" stroke-miterlimit="10" d="
		M27.2,33.1c-1.1-0.3-2.2-0.9-3-1.8C22.2,28.9,6.9,6.4,9.3,4.4c2.3-2,21.4,17.3,23.4,19.7c0.9,1,1.3,2.2,1.3,3.4"/>
</g>
</svg>
