<?xml version="1.0" encoding="utf-8"?>
<!-- Generator: Adobe Illustrator 18.0.0, SVG Export Plug-In . SVG Version: 6.00 Build 0)  -->
<!DOCTYPE svg PUBLIC "-//W3C//DTD SVG 1.1//EN" "http://www.w3.org/Graphics/SVG/1.1/DTD/svg11.dtd">
<svg version="1.1" id="Layer_1" xmlns="http://www.w3.org/2000/svg" xmlns:xlink="http://www.w3.org/1999/xlink" x="0px" y="0px"
	 viewBox="0 0 64 64" enable-background="new 0 0 64 64" xml:space="preserve">
<g>
	<path fill="#E3ECFF" d="M19,2.2L8.8,12.5c-0.8,0.8-1.2,1.8-1.2,2.8V59c0,2.2,1.8,4,4,4h40.8c2.2,0,4-1.8,4-4V5c0-2.2-1.8-4-4-4
		H21.9C20.8,1,19.8,1.4,19,2.2z"/>
	<g>
		<g>
			
				<line fill="none" stroke="#2A3C65" stroke-width="2" stroke-linecap="round" stroke-linejoin="round" stroke-miterlimit="10" x1="14.2" y1="39.3" x2="49.8" y2="39.3"/>
			
				<line fill="none" stroke="#2A3C65" stroke-width="2" stroke-linecap="round" stroke-linejoin="round" stroke-miterlimit="10" x1="14.2" y1="45.4" x2="49.8" y2="45.4"/>
			
				<line fill="none" stroke="#2A3C65" stroke-width="2" stroke-linecap="round" stroke-linejoin="round" stroke-miterlimit="10" x1="14.2" y1="51.4" x2="49.8" y2="51.4"/>
			
				<line fill="none" stroke="#2A3C65" stroke-width="2" stroke-linecap="round" stroke-linejoin="round" stroke-miterlimit="10" x1="14.2" y1="57.5" x2="49.8" y2="57.5"/>
			
				<line fill="none" stroke="#2A3C65" stroke-width="2" stroke-linecap="round" stroke-linejoin="round" stroke-miterlimit="10" x1="14.2" y1="33.3" x2="49.8" y2="33.3"/>
		</g>
		<g>
			
				<path fill="#FFD880" stroke="#2A3C65" stroke-width="2" stroke-linecap="round" stroke-linejoin="round" stroke-miterlimit="10" d="
				M33,20.6c0.1,0.3,0.2,0.6,0.3,0.8c0.2,0.5,0.2,1,0,1.5L33,23.5c-0.3,0.7-0.2,1.5,0.3,2l0,0c0.5,0.5,1.3,0.7,2,0.3l0.6-0.3
				c0.5-0.2,1-0.2,1.5,0c0.3,0.1,0.5,0.2,0.8,0.3c0.5,0.2,0.9,0.6,1,1.1l0.2,0.6c0.2,0.7,0.9,1.2,1.7,1.2l0,0c0.8,0,1.4-0.5,1.7-1.2
				l0.2-0.6c0.2-0.5,0.6-0.9,1.1-1.1c0.3-0.1,0.6-0.2,0.8-0.3c0.5-0.2,1-0.2,1.5,0l0.6,0.3c0.7,0.3,1.5,0.2,2-0.3l0,0
				c0.5-0.5,0.7-1.3,0.3-2L49,22.9c-0.2-0.5-0.2-1,0-1.5c0.1-0.3,0.2-0.5,0.3-0.8c0.2-0.5,0.6-0.9,1.1-1l0.6-0.2
				c0.7-0.2,1.2-0.9,1.2-1.7l0,0c0-0.8-0.5-1.4-1.2-1.7l-0.6-0.2c-0.5-0.2-0.9-0.6-1.1-1.1c-0.1-0.3-0.2-0.6-0.3-0.8
				c-0.2-0.5-0.2-1,0-1.5l0.3-0.6c0.3-0.7,0.2-1.5-0.3-2l0,0c-0.5-0.5-1.3-0.7-2-0.3l-0.6,0.3c-0.5,0.2-1,0.2-1.5,0
				c-0.3-0.1-0.5-0.2-0.8-0.3c-0.5-0.2-0.9-0.6-1.1-1.1l-0.2-0.6C42.7,7,42,6.5,41.3,6.5l0,0c-0.8,0-1.4,0.5-1.7,1.2l-0.2,0.6
				c-0.2,0.5-0.6,0.9-1,1.1c-0.3,0.1-0.6,0.2-0.8,0.3c-0.5,0.2-1,0.2-1.5,0l-0.6-0.3c-0.7-0.3-1.5-0.2-2,0.3l0,0
				c-0.5,0.5-0.7,1.3-0.3,2l0.3,0.6c0.2,0.5,0.2,1,0,1.5c-0.1,0.3-0.2,0.5-0.3,0.8c-0.2,0.5-0.6,0.9-1.1,1.1L31.3,16
				c-0.7,0.2-1.2,0.9-1.2,1.7l0,0c0,0.8,0.5,1.4,1.2,1.7l0.6,0.2C32.4,19.7,32.8,20.1,33,20.6z"/>
			
				<path fill="#E3ECFF" stroke="#2A3C65" stroke-width="2" stroke-linecap="round" stroke-linejoin="round" stroke-miterlimit="10" d="
				M36.7,17.6c0,2.5,2,4.5,4.5,4.5s4.5-2,4.5-4.5s-2-4.5-4.5-4.5S36.7,15.1,36.7,17.6z"/>
		</g>
	</g>
	<path fill="#C7D9F9" d="M13.6,13.6h2.6c2.2,0,4-1.8,4-4V7"/>
	<path fill="none" stroke="#2A3C65" stroke-width="2" stroke-linecap="round" stroke-linejoin="round" stroke-miterlimit="10" d="
		M19,2.2L8.8,12.5c-0.8,0.8-1.2,1.8-1.2,2.8V59c0,2.2,1.8,4,4,4h40.8c2.2,0,4-1.8,4-4V5c0-2.2-1.8-4-4-4H21.9
		C20.8,1,19.8,1.4,19,2.2z"/>
	<path fill="none" stroke="#2A3C65" stroke-width="2" stroke-linecap="round" stroke-linejoin="round" stroke-miterlimit="10" d="
		M13.6,13.6h2.6c2.2,0,4-1.8,4-4V7"/>
</g>
</svg>
