<?xml version="1.0" encoding="utf-8"?>
<!-- Generator: Adobe Illustrator 18.0.0, SVG Export Plug-In . SVG Version: 6.00 Build 0)  -->
<!DOCTYPE svg PUBLIC "-//W3C//DTD SVG 1.1//EN" "http://www.w3.org/Graphics/SVG/1.1/DTD/svg11.dtd">
<svg version="1.1" id="Layer_1" xmlns="http://www.w3.org/2000/svg" xmlns:xlink="http://www.w3.org/1999/xlink" x="0px" y="0px"
	 viewBox="0 0 64 64" enable-background="new 0 0 64 64" xml:space="preserve">
<g>
	<path fill="#E4EBF7" d="M48.3,16.7v42.2c0,2.3-1.8,4.1-4.1,4.1H5.1C2.8,63,1,61.2,1,58.9V5.1C1,2.8,2.8,1,5.1,1h27.5L48.3,16.7z"/>
	<path fill="#C9D8EF" d="M48.3,16.7v42.2c0,2.3-1.9,4.1-4.1,4.1H5.1C2.8,63,1,61.1,1,58.9v-0.7C24.5,57.8,43.5,38.6,43.5,15v-3.1
		L48.3,16.7z"/>
	<path fill="#AF8BBF" d="M48.3,16.7H36.8c-2.3,0-4.1-1.8-4.1-4.1V1L48.3,16.7z"/>
	<path fill="none" stroke="#2B3C65" stroke-width="2" stroke-linecap="round" stroke-linejoin="round" stroke-miterlimit="10" d="
		M48.3,35.2V16.7L32.6,1H5.1C2.8,1,1,2.9,1,5.1v53.7C1,61.2,2.8,63,5.1,63h35.3"/>
	<path fill="none" stroke="#2B3C65" stroke-width="2" stroke-linecap="round" stroke-linejoin="round" stroke-miterlimit="10" d="
		M32.6,6.7v5.9c0,2.3,1.9,4.1,4.1,4.1h5.9"/>
	
		<line fill="none" stroke="#2B3C65" stroke-width="2" stroke-linecap="round" stroke-linejoin="round" stroke-miterlimit="10" x1="7.1" y1="36.3" x2="42.2" y2="36.3"/>
	
		<line fill="none" stroke="#2B3C65" stroke-width="2" stroke-linecap="round" stroke-linejoin="round" stroke-miterlimit="10" x1="7.1" y1="27.7" x2="42.2" y2="27.7"/>
	
		<line fill="none" stroke="#2B3C65" stroke-width="2" stroke-linecap="round" stroke-linejoin="round" stroke-miterlimit="10" x1="7.1" y1="19" x2="25.9" y2="19"/>
	
		<line fill="none" stroke="#2B3C65" stroke-width="2" stroke-linecap="round" stroke-linejoin="round" stroke-miterlimit="10" x1="7.1" y1="10.3" x2="25.9" y2="10.3"/>
	<path fill="#45C8F5" d="M11.7,49.6l3.5-2.9c0.4-0.3,0.9-0.5,1.3-0.5h1.8c0.3,0,0.5,0.1,0.7,0.3l2.3,2.3c0.4,0.4,1.1,0.4,1.5,0
		l1.5-1.5c0.4-0.4,1.1-0.4,1.5,0l1.9,1.9c0.4,0.4,1.1,0.4,1.5,0l2.4-2.4c0.2-0.2,0.5-0.3,0.7-0.3h8.3v9.2H16.4
		c-0.4,0-0.8-0.1-1.2-0.4L11.8,53C10.7,52.2,10.6,50.5,11.7,49.6z"/>
	<path fill="none" stroke="#2B3C65" stroke-width="2" stroke-linecap="round" stroke-linejoin="round" stroke-miterlimit="10" d="
		M11.7,49.6l3.5-2.9c0.4-0.3,0.9-0.5,1.3-0.5h1.8c0.3,0,0.5,0.1,0.7,0.3l2.3,2.3c0.4,0.4,1.1,0.4,1.5,0l1.5-1.5
		c0.4-0.4,1.1-0.4,1.5,0l1.9,1.9c0.4,0.4,1.1,0.4,1.5,0l2.4-2.4c0.2-0.2,0.5-0.3,0.7-0.3h8.3v9.2H16.4c-0.4,0-0.8-0.1-1.2-0.4
		L11.8,53C10.7,52.2,10.6,50.5,11.7,49.6z"/>
	<circle fill="#FECB4D" cx="51" cy="51" r="12"/>
	<path fill="#F8B824" d="M63,51c0,6.6-5.4,12-12,12c-4.6,0-8.6-2.6-10.6-6.3c1.7,0.9,3.6,1.4,5.7,1.4c6.6,0,12-5.4,12-12
		c0-2-0.5-4-1.4-5.7C60.4,42.4,63,46.4,63,51z"/>
	
		<circle fill="none" stroke="#2B3C65" stroke-width="2" stroke-linecap="round" stroke-linejoin="round" stroke-miterlimit="10" cx="51" cy="51" r="12"/>
	
		<circle fill="#FFFFFF" stroke="#2B3C65" stroke-width="2" stroke-linecap="round" stroke-linejoin="round" stroke-miterlimit="10" cx="55.5" cy="51" r="3.2"/>
</g>
</svg>
