<?xml version="1.0" encoding="utf-8"?>
<!-- Generator: Adobe Illustrator 24.1.1, SVG Export Plug-In . SVG Version: 6.00 Build 0)  -->
<svg version="1.1" id="Layer_1" xmlns="http://www.w3.org/2000/svg" xmlns:xlink="http://www.w3.org/1999/xlink" x="0px" y="0px"
	 viewBox="0 0 64 64" style="enable-background:new 0 0 64 64;" xml:space="preserve">
<style type="text/css">
	.st0{fill:#38FCC4;}
	.st1{fill:#1DE9B6;}
	.st2{fill:none;stroke:#2A3C65;stroke-width:2.0667;stroke-linecap:round;stroke-linejoin:round;stroke-miterlimit:10;}
	.st3{fill:#E3ECFF;}
	.st4{fill:#C7D9F9;}
	.st5{fill:#FFD880;}
	.st6{fill:#FECB4D;}
	.st7{fill:#FF7DAF;}
	.st8{fill:#FFFFFF;stroke:#2A3C65;stroke-width:2.0667;stroke-linecap:round;stroke-linejoin:round;stroke-miterlimit:10;}
	.st9{fill:none;stroke:#2A3C65;stroke-width:2.1673;stroke-linecap:round;stroke-linejoin:round;stroke-miterlimit:10;}
	.st10{fill:#FFFFFF;}
	.st11{fill:#12D69E;}
	.st12{fill:none;stroke:#2A3C65;stroke-width:2.0666;stroke-linecap:round;stroke-linejoin:round;stroke-miterlimit:10;}
	.st13{fill:#B0CDF7;}
	.st14{fill:#CC87FE;}
	.st15{fill:#FFFFFF;stroke:#2A3C65;stroke-width:2.0666;stroke-linecap:round;stroke-linejoin:round;stroke-miterlimit:10;}
	.st16{fill:none;stroke:#2A3C65;stroke-width:2;stroke-linecap:round;stroke-linejoin:round;stroke-miterlimit:10;}
	.st17{opacity:0.5;fill:#E3ECFF;}
	.st18{fill:#FFFFFF;stroke:#2A3C65;stroke-width:2;stroke-linecap:round;stroke-linejoin:round;stroke-miterlimit:10;}
	.st19{fill:none;stroke:#2A3C65;stroke-width:2.0329;stroke-linecap:round;stroke-linejoin:round;stroke-miterlimit:10;}
	.st20{fill:#D5A6FF;}
	.st21{fill:#E3ECFF;stroke:#2A3C65;stroke-width:2.0329;stroke-linecap:round;stroke-linejoin:round;stroke-miterlimit:10;}
	.st22{fill:#27D1FF;stroke:#2A3C65;stroke-width:2.0329;stroke-linecap:round;stroke-linejoin:round;stroke-miterlimit:10;}
	.st23{fill:#FF5892;}
	.st24{fill:#FFFFFF;stroke:#2A3C65;stroke-width:2.0329;stroke-linecap:round;stroke-linejoin:round;stroke-miterlimit:10;}
	.st25{fill:none;stroke:#2A3C65;stroke-width:2.0295;stroke-linecap:round;stroke-linejoin:round;stroke-miterlimit:10;}
	.st26{fill:#27D1FF;}
	.st27{fill:#FFFFFF;stroke:#2A3C65;stroke-width:2.0295;stroke-linecap:round;stroke-linejoin:round;stroke-miterlimit:10;}
	.st28{fill:none;stroke:#2A3C65;stroke-width:1.9375;stroke-linecap:round;stroke-linejoin:round;stroke-miterlimit:10;}
	.st29{fill:#FFFFFF;stroke:#2A3C65;stroke-width:1.9375;stroke-linecap:round;stroke-linejoin:round;stroke-miterlimit:10;}
	.st30{fill:#2A3C65;}
	.st31{fill:none;stroke:#2A3C65;stroke-width:2.0609;stroke-linecap:round;stroke-linejoin:round;stroke-miterlimit:10;}
	.st32{fill:#FFFFFF;stroke:#2A3C65;stroke-width:2.0609;stroke-linecap:round;stroke-linejoin:round;stroke-miterlimit:10;}
	.st33{fill:#02BEFF;}
	.st34{fill:none;stroke:#2A3C65;stroke-width:1.9154;stroke-linecap:round;stroke-linejoin:round;stroke-miterlimit:10;}
	.st35{fill:#FF7DAF;stroke:#2A3C65;stroke-width:1.9154;stroke-linecap:round;stroke-linejoin:round;stroke-miterlimit:10;}
	.st36{fill:#FFD880;stroke:#2A3C65;stroke-width:2.1563;stroke-linecap:round;stroke-linejoin:round;stroke-miterlimit:10;}
	.st37{fill:none;stroke:#2A3C65;stroke-width:2.1563;stroke-linecap:round;stroke-linejoin:round;stroke-miterlimit:10;}
	.st38{fill:none;stroke:#2A3C65;stroke-width:2.1269;stroke-linecap:round;stroke-linejoin:round;stroke-miterlimit:10;}
	.st39{fill:#FFFFFF;stroke:#2A3C65;stroke-width:2.1269;stroke-linecap:round;stroke-linejoin:round;stroke-miterlimit:10;}
	.st40{fill:#FFD880;stroke:#2A3C65;stroke-width:2;stroke-linecap:round;stroke-linejoin:round;stroke-miterlimit:10;}
	.st41{fill:#E3ECFF;stroke:#2A3C65;stroke-width:2;stroke-linecap:round;stroke-linejoin:round;stroke-miterlimit:10;}
	.st42{fill:#E3ECFF;stroke:#2A3C65;stroke-width:2.009;stroke-linecap:round;stroke-linejoin:round;stroke-miterlimit:10;}
	.st43{fill:none;stroke:#2A3C65;stroke-width:2.009;stroke-linecap:round;stroke-linejoin:round;stroke-miterlimit:10;}
	.st44{fill:#FF5892;stroke:#2A3C65;stroke-width:2.009;stroke-linecap:round;stroke-linejoin:round;stroke-miterlimit:10;}
	.st45{fill:#27D1FF;stroke:#2A3C65;stroke-width:2;stroke-linecap:round;stroke-linejoin:round;stroke-miterlimit:10;}
	.st46{fill:#FF7DAF;stroke:#2A3C65;stroke-width:2.0666;stroke-linecap:round;stroke-linejoin:round;stroke-miterlimit:10;}
	.st47{fill:none;stroke:#2A3C65;stroke-width:1.9315;stroke-linecap:round;stroke-linejoin:round;stroke-miterlimit:10;}
	.st48{fill:#F9B826;}
	.st49{fill:#2A3C65;stroke:#2A3C65;stroke-width:2;stroke-linecap:round;stroke-linejoin:round;stroke-miterlimit:10;}
	.st50{fill:none;}
	.st51{fill:none;stroke:#2A3C65;stroke-width:1.9999;stroke-linecap:round;stroke-linejoin:round;stroke-miterlimit:10;}
	.st52{fill:#00ADDB;}
	.st53{fill:none;stroke:#2A3C65;stroke-width:2.0001;stroke-linecap:round;stroke-linejoin:round;stroke-miterlimit:10;}
	.st54{fill:#FF7DAF;stroke:#2A3C65;stroke-width:2.0001;stroke-linecap:round;stroke-linejoin:round;stroke-miterlimit:10;}
	.st55{fill:none;stroke:#2A3C65;stroke-width:2.0334;stroke-linecap:round;stroke-linejoin:round;stroke-miterlimit:10;}
	.st56{fill:#E3ECFF;stroke:#2A3C65;stroke-width:2.0334;stroke-linecap:round;stroke-linejoin:round;stroke-miterlimit:10;}
	.st57{fill:#02BEFF;stroke:#2A3C65;stroke-width:2;stroke-linecap:round;stroke-linejoin:round;stroke-miterlimit:10;}
	.st58{fill:#FECB4D;stroke:#2A3C65;stroke-width:2;stroke-linecap:round;stroke-linejoin:round;stroke-miterlimit:10;}
	.st59{fill:none;stroke:#2A3C65;stroke-width:1.9481;stroke-linecap:round;stroke-linejoin:round;stroke-miterlimit:10;}
	.st60{fill:#38FCC4;stroke:#2A3C65;stroke-width:1.9481;stroke-linecap:round;stroke-linejoin:round;stroke-miterlimit:10;}
	.st61{fill:none;stroke:#2A3C65;stroke-width:1.993;stroke-linecap:round;stroke-linejoin:round;stroke-miterlimit:10;}
	.st62{fill:#27D1FF;stroke:#2A3C65;stroke-width:1.9999;stroke-linecap:round;stroke-linejoin:round;stroke-miterlimit:10;}
	.st63{fill:#E3ECFF;stroke:#2A3C65;stroke-width:1.9999;stroke-linecap:round;stroke-linejoin:round;stroke-miterlimit:10;}
	.st64{fill:#FF7DAF;stroke:#2A3C65;stroke-width:1.9999;stroke-linecap:round;stroke-linejoin:round;stroke-miterlimit:10;}
	.st65{fill:none;stroke:#2A3C65;stroke-width:2.0003;stroke-linecap:round;stroke-linejoin:round;stroke-miterlimit:10;}
	.st66{fill:#FF7DAF;stroke:#2A3C65;stroke-width:2.0003;stroke-linecap:round;stroke-linejoin:round;stroke-miterlimit:10;}
	.st67{fill:#B45FFF;}
	.st68{fill:none;stroke:#2A3C65;stroke-width:1.8975;stroke-linecap:round;stroke-linejoin:round;stroke-miterlimit:10;}
	
		.st69{fill:none;stroke:#2A3C65;stroke-width:1.8975;stroke-linecap:round;stroke-linejoin:round;stroke-miterlimit:10;stroke-dasharray:2.8463;}
	.st70{fill:#27D1FF;stroke:#2A3C65;stroke-width:1.8975;stroke-linecap:round;stroke-linejoin:round;stroke-miterlimit:10;}
</style>
<g>
	<g>
		<path class="st42" d="M10.26,30.22l0.21,0.8l2.77,10.77l-1.52,4.97l-7.59-8.64c-0.8-0.91-1.29-2.01-1.44-3.14"/>
		<path class="st42" d="M6.35,32.63c4.25-0.15,4.45-1.41,3.91-2.41c-0.43-0.8-1.3-1.29-2.23-1.36c-4.54-0.35-6.3,0.87-6.85,2.35
			c-0.76,2.06,0.94,4.21,3.22,4.21h4.54"/>
		<path class="st42" d="M53.74,30.22l-0.21,0.8l-2.77,10.77l1.52,4.97l7.59-8.64c0.8-0.91,1.29-2.01,1.44-3.14"/>
		<path class="st42" d="M57.65,32.63c-4.25-0.15-4.45-1.41-3.91-2.41c0.43-0.8,1.3-1.29,2.23-1.36c4.54-0.35,6.3,0.87,6.85,2.35
			c0.76,2.06-0.94,4.21-3.22,4.21h-4.54"/>
		<path class="st4" d="M62.47,33.92l-9.8,25.56c-0.61,1.6-2.14,2.65-3.85,2.65H15.18c-1.72,0-3.24-1.05-3.85-2.65l-9.8-25.56
			c0.6,0.89,1.65,1.5,2.87,1.5h55.2C60.82,35.42,61.87,34.81,62.47,33.92z"/>
		<path class="st13" d="M62.48,33.92l-9.8,25.57c-0.6,1.6-2.14,2.65-3.85,2.65H15.17c-1.71,0-3.24-1.05-3.85-2.65l-1.88-4.9h15.37
			c13.22,0,25.18-7.5,31-19.17h3.79C60.82,35.42,61.87,34.81,62.48,33.92z"/>
		<path class="st43" d="M5.01,43.02l-3.49-9.1c0.6,0.89,1.66,1.5,2.87,1.5H59.6c1.22,0,2.27-0.6,2.87-1.5l-3.49,9.1"/>
		<path class="st43" d="M11.2,59.13l0.13,0.35c0.6,1.6,2.14,2.65,3.85,2.65h33.65c1.71,0,3.24-1.05,3.85-2.65l0.13-0.35"/>
		<path class="st5" d="M11.26,56.12c-5.29,0.01-7.05-4.49-7.39-8.04c-0.13-1.36,1.15-2.36,2.49-2.09c0.57,0.12,1.27,0.14,2.1,0.01
			c3.33-0.52,6.51-2.16,7.36,1.71C16.69,51.58,16.01,56.11,11.26,56.12z"/>
		<path class="st6" d="M11.24,53.1c-2.23,0-3.63-1.35-4.18-4.01c0.11,0,0.23,0.01,0.35,0.01c0.49,0,1.01-0.04,1.53-0.12
			c0.69-0.11,1.37-0.26,2.03-0.4c0.69-0.15,1.4-0.31,1.9-0.35c0.01,0.04,0.02,0.08,0.03,0.13c0.47,2.14,0.2,3.7-0.27,4.3
			c-0.1,0.12-0.36,0.45-1.36,0.45H11.24z"/>
		<path class="st5" d="M52.74,56.12c5.29,0.01,7.05-4.49,7.39-8.04c0.13-1.36-1.15-2.36-2.49-2.09c-0.57,0.12-1.27,0.14-2.1,0.01
			c-3.33-0.52-6.51-2.16-7.36,1.71C47.31,51.58,47.99,56.11,52.74,56.12z"/>
		<path class="st6" d="M52.75,53.1c-1.01,0-1.27-0.33-1.36-0.45c-0.48-0.59-0.75-2.15-0.27-4.3c0.01-0.05,0.02-0.09,0.03-0.13
			c0.49,0.04,1.2,0.19,1.9,0.35c0.66,0.15,1.34,0.29,2.03,0.4c0.52,0.08,1.03,0.12,1.53,0.12c0.12,0,0.23,0,0.35-0.01
			c-0.55,2.66-1.95,4.01-4.18,4.01H52.75z"/>
		<path class="st43" d="M11.26,56.12c-5.29,0.01-7.05-4.49-7.39-8.04c-0.13-1.36,1.15-2.36,2.49-2.09c0.57,0.12,1.27,0.14,2.1,0.01
			c3.33-0.52,6.51-2.16,7.36,1.71C16.69,51.58,16.01,56.11,11.26,56.12z"/>
		<path class="st43" d="M52.74,56.12c5.29,0.01,7.05-4.49,7.39-8.04c0.13-1.36-1.15-2.36-2.49-2.09c-0.57,0.12-1.27,0.14-2.1,0.01
			c-3.33-0.52-6.51-2.16-7.36,1.71C47.31,51.58,47.99,56.11,52.74,56.12z"/>
		<ellipse class="st5" cx="32" cy="21.75" rx="9.39" ry="9.38"/>
		<ellipse class="st43" cx="32" cy="21.75" rx="9.39" ry="9.38"/>
		<path class="st4" d="M44.15,19.81h-24.3c-0.67,0-1.19-0.66-0.96-1.29c0.2-0.55,0.51-1.05,0.92-1.46c0.7-0.7,1.67-1.14,2.74-1.14
			h18.89c1.69,0,3.13,1.08,3.67,2.59C45.34,19.15,44.82,19.81,44.15,19.81z"/>
		<path class="st43" d="M44.15,19.81h-24.3c-0.67,0-1.19-0.66-0.96-1.29c0.2-0.55,0.51-1.05,0.92-1.46c0.7-0.7,1.67-1.14,2.74-1.14
			h18.89c1.69,0,3.13,1.08,3.67,2.59C45.34,19.15,44.82,19.81,44.15,19.81z"/>
		<path class="st23" d="M42.52,15.41v0.52H21.48v-0.52C21.48,9.6,26.19,4.89,32,4.89c2.91,0,5.53,1.18,7.44,3.08
			C41.35,9.87,42.52,12.5,42.52,15.41z"/>
		<path class="st43" d="M38.55,7.19c0.31,0.24,0.61,0.5,0.89,0.78c1.9,1.9,3.08,4.53,3.08,7.43v0.52H21.47v-0.52
			c0-3.34,1.56-6.31,3.98-8.23"/>
		<path class="st44" d="M29.47,9.65V4.39c0-1.4,1.13-2.53,2.53-2.53h0c1.4,0,2.53,1.13,2.53,2.53v5.26"/>
	</g>
</g>
</svg>
