<?xml version="1.0" encoding="utf-8"?>
<!-- Generator: Adobe Illustrator 18.0.0, SVG Export Plug-In . SVG Version: 6.00 Build 0)  -->
<!DOCTYPE svg PUBLIC "-//W3C//DTD SVG 1.1//EN" "http://www.w3.org/Graphics/SVG/1.1/DTD/svg11.dtd">
<svg version="1.1" id="Layer_1" xmlns="http://www.w3.org/2000/svg" xmlns:xlink="http://www.w3.org/1999/xlink" x="0px" y="0px"
	 viewBox="0 0 64 64" enable-background="new 0 0 64 64" xml:space="preserve">
<g>
	
		<polyline fill="none" stroke="#2A3C65" stroke-width="1.9375" stroke-linecap="round" stroke-linejoin="round" stroke-miterlimit="10" points="
		32,31.4 32,37.3 32,43.1 	"/>
	
		<path fill="none" stroke="#2A3C65" stroke-width="1.9375" stroke-linecap="round" stroke-linejoin="round" stroke-miterlimit="10" d="
		M7.8,43.1v-2.9c0-1.6,1.3-2.9,2.9-2.9H32h21.3c1.6,0,2.9,1.3,2.9,2.9v2.9"/>
	<path fill="#FFD880" d="M46.4,23.7V7.3c0-2.1-1.7-3.9-3.9-3.9H21.4c-2.1,0-3.9,1.7-3.9,3.9v16.4c0,2.1,1.7,3.9,3.9,3.9h21.1
		C44.7,27.6,46.4,25.8,46.4,23.7z"/>
	<path fill="#FECB4D" d="M46.4,7.3v16.4c0,2.1-1.7,3.9-3.9,3.9H21.4c-1.6,0-2.9-0.9-3.5-2.3c0.5,0.2,1,0.3,1.6,0.3h4.8
		c11.2,0,20.2-9.1,20.2-20.2c0-0.6-0.1-1.1-0.3-1.6C45.5,4.4,46.4,5.7,46.4,7.3z"/>
	
		<path fill="none" stroke="#2A3C65" stroke-width="1.9375" stroke-linecap="round" stroke-linejoin="round" stroke-miterlimit="10" d="
		M46.4,23.7V7.3c0-2.1-1.7-3.9-3.9-3.9H21.4c-2.1,0-3.9,1.7-3.9,3.9v16.4c0,2.1,1.7,3.9,3.9,3.9h21.1C44.7,27.6,46.4,25.8,46.4,23.7
		z"/>
	<path fill="#FF7DAF" d="M4.9,46.9h5.9c2.1,0,3.9,1.7,3.9,3.9v5.9c0,2.1-1.7,3.9-3.9,3.9H4.9c-2.1,0-3.9-1.7-3.9-3.9v-5.9
		C1,48.7,2.7,46.9,4.9,46.9z"/>
	<path fill="#FF7DAF" d="M29.1,46.9H35c2.1,0,3.9,1.7,3.9,3.9v5.9c0,2.1-1.7,3.9-3.9,3.9h-5.9c-2.1,0-3.9-1.7-3.9-3.9v-5.9
		C25.2,48.7,26.9,46.9,29.1,46.9z"/>
	<path fill="#FF7DAF" d="M63,50.8v5.9c0,2.1-1.7,3.9-3.9,3.9h-5.9c-2.1,0-3.9-1.7-3.9-3.9v-5.9c0-2.1,1.7-3.9,3.9-3.9h5.9
		C61.3,46.9,63,48.7,63,50.8z"/>
	<path fill="#FF5892" d="M14.6,50.8v5.9c0,2.1-1.7,3.9-3.9,3.9H4.9c-1.9,0-3.5-1.4-3.8-3.2c0.2,0,0.4,0.1,0.7,0.1h5.9
		c2.1,0,3.9-1.7,3.9-3.9v-5.9c0-0.2,0-0.5-0.1-0.7C13.2,47.3,14.6,48.9,14.6,50.8z"/>
	<path fill="#FF5892" d="M38.8,50.8v5.9c0,2.1-1.7,3.9-3.9,3.9H29c-1.9,0-3.5-1.4-3.8-3.2c0.2,0,0.4,0.1,0.7,0.1h5.9
		c2.1,0,3.9-1.7,3.9-3.9v-5.9c0-0.2,0-0.5-0.1-0.7C37.4,47.3,38.8,48.9,38.8,50.8z"/>
	<path fill="#FF5892" d="M63,50.8v5.9c0,2.1-1.7,3.9-3.9,3.9h-5.9c-1.9,0-3.5-1.4-3.8-3.2c0.2,0,0.4,0.1,0.7,0.1H56
		c2.1,0,3.9-1.7,3.9-3.9v-5.9c0-0.2,0-0.5-0.1-0.7C61.6,47.3,63,48.9,63,50.8z"/>
	
		<path fill="none" stroke="#2A3C65" stroke-width="1.9375" stroke-linecap="round" stroke-linejoin="round" stroke-miterlimit="10" d="
		M4.9,46.9h5.9c2.1,0,3.9,1.7,3.9,3.9v5.9c0,2.1-1.7,3.9-3.9,3.9H4.9c-2.1,0-3.9-1.7-3.9-3.9v-5.9C1,48.7,2.7,46.9,4.9,46.9z"/>
	
		<path fill="none" stroke="#2A3C65" stroke-width="1.9375" stroke-linecap="round" stroke-linejoin="round" stroke-miterlimit="10" d="
		M29.1,46.9H35c2.1,0,3.9,1.7,3.9,3.9v5.9c0,2.1-1.7,3.9-3.9,3.9h-5.9c-2.1,0-3.9-1.7-3.9-3.9v-5.9C25.2,48.7,26.9,46.9,29.1,46.9z"
		/>
	
		<path fill="none" stroke="#2A3C65" stroke-width="1.9375" stroke-linecap="round" stroke-linejoin="round" stroke-miterlimit="10" d="
		M63,50.8v5.9c0,2.1-1.7,3.9-3.9,3.9h-5.9c-2.1,0-3.9-1.7-3.9-3.9v-5.9c0-2.1,1.7-3.9,3.9-3.9h5.9C61.3,46.9,63,48.7,63,50.8z"/>
	
		<line fill="none" stroke="#2A3C65" stroke-width="1.9375" stroke-linecap="round" stroke-linejoin="round" stroke-miterlimit="10" x1="39.9" y1="17.6" x2="24.1" y2="17.6"/>
	
		<line fill="none" stroke="#2A3C65" stroke-width="1.9375" stroke-linecap="round" stroke-linejoin="round" stroke-miterlimit="10" x1="24.1" y1="13.4" x2="39.9" y2="13.4"/>
	
		<line fill="none" stroke="#2A3C65" stroke-width="1.9375" stroke-linecap="round" stroke-linejoin="round" stroke-miterlimit="10" x1="36.5" y1="21.9" x2="27.5" y2="21.9"/>
	
		<line fill="none" stroke="#2A3C65" stroke-width="1.9375" stroke-linecap="round" stroke-linejoin="round" stroke-miterlimit="10" x1="27.5" y1="9.1" x2="36.5" y2="9.1"/>
</g>
</svg>
