<?xml version="1.0" encoding="utf-8"?>
<!-- Generator: Adobe Illustrator 18.0.0, SVG Export Plug-In . SVG Version: 6.00 Build 0)  -->
<!DOCTYPE svg PUBLIC "-//W3C//DTD SVG 1.1//EN" "http://www.w3.org/Graphics/SVG/1.1/DTD/svg11.dtd">
<svg version="1.1" id="Layer_1" xmlns="http://www.w3.org/2000/svg" xmlns:xlink="http://www.w3.org/1999/xlink" x="0px" y="0px"
	 viewBox="0 0 66 66" enable-background="new 0 0 66 66" xml:space="preserve">
<g>
	<path fill="#FF5892" d="M47.8,52.1L31.6,4.4h-5L10.3,52c-0.8,2.4-2.9,4.1-5.4,4.5L2,56.9v3.3h5.5h3.9H21v-3.3l0,0
		c-4.2-0.6-6.9-4.9-5.5-8.9l2-5.9h19.3l2,6c1.4,4.1-1.3,8.3-5.6,8.8l0,0v3.3h9.7h7.7h5v-3.3l-2.1-0.3C50.8,56.3,48.7,54.6,47.8,52.1
		z M18.8,38.3l8.4-24.8l8.3,24.8H18.8z"/>
	<rect x="42.3" y="8.8" fill="#1DE9B6" width="16.9" height="12.1"/>
	<path fill="#12D69E" d="M59.2,17.3v3.5H42.3v-12h3.5c0.3,4.8,4.2,8.6,9.1,8.6h4.3V17.3z"/>
	<polygon fill="#FECB4D" points="55.5,39 55.5,50.9 50.7,55.9 45.9,50.9 45.9,39 	"/>
	<path fill="#F9B826" d="M55.6,50.4v0.5l-4.8,5l-4.8-5V39h3v7c0,1.3,0.5,2.5,1.4,3.4C51.7,50.8,53.8,51.1,55.6,50.4z"/>
	<polygon fill="#606060" points="52.1,60.2 50.7,61.6 49.4,60.2 	"/>
	<path fill="#02BEFF" d="M64,23.3v6.1c0,0.8-0.2,1.5-0.7,2.1l-4.4,6C58.2,38.4,57.1,39,56,39H45.5c-1.2,0-2.2-0.5-2.9-1.5l-4.4-6
		c-0.5-0.6-0.7-1.4-0.7-2.1v-6.1c0-1.3,1.1-2.4,2.4-2.4h21.7C62.9,20.8,64,21.9,64,23.3z"/>
	<path fill="#00ADDB" d="M60.8,34.9l-1.9,2.6C58.2,38.4,57.1,39,56,39H45.5c-1.2,0-2.2-0.5-2.9-1.5l-4.4-6c-0.5-0.6-0.7-1.4-0.7-2.1
		v-6.1c0-1.3,1.1-2.4,2.4-2.4h1.6v4.5c0,0.8,0.3,1.5,0.7,2.1c3.5,4.7,9,7.5,14.8,7.5h3C60.2,35,60.5,34.9,60.8,34.9z"/>
	<path fill="none" stroke="#2A3C65" stroke-width="2" stroke-linecap="round" stroke-linejoin="round" stroke-miterlimit="10" d="
		M36.2,18L31.6,4.4h-5L10.3,52c-0.8,2.4-2.9,4.1-5.4,4.5L2,56.9v3.3h5.5h3.9H21v-3.3c-3.5-0.5-5.9-3.4-5.9-6.7
		c0-0.7,0.1-1.5,0.4-2.2l2-5.9h19.3l2,6c1.4,4.1-1.3,8.3-5.6,8.8v3.3h9.7h6.5h1.2h1.5h3.5v-3.3h-0.3 M27.2,13.5l-8.4,24.8h16.8
		L27.2,13.5z"/>
	
		<line fill="none" stroke="#2A3C65" stroke-width="2" stroke-linecap="round" stroke-linejoin="round" stroke-miterlimit="10" x1="42.3" y1="8.8" x2="42.3" y2="16.8"/>
	
		<line fill="none" stroke="#2A3C65" stroke-width="2" stroke-linecap="round" stroke-linejoin="round" stroke-miterlimit="10" x1="59.2" y1="16.8" x2="59.2" y2="8.8"/>
	
		<polyline fill="none" stroke="#2A3C65" stroke-width="2" stroke-linecap="round" stroke-linejoin="round" stroke-miterlimit="10" points="
		55.6,42.9 55.6,50.9 50.7,55.9 45.9,50.9 45.9,42.9 	"/>
	<path fill="none" stroke="#2A3C65" stroke-width="2" stroke-linecap="round" stroke-linejoin="round" stroke-miterlimit="10" d="
		M64,23.3v6.1c0,0.8-0.2,1.5-0.7,2.1l-4.4,6C58.2,38.4,57.1,39,56,39H45.5c-1.2,0-2.2-0.5-2.9-1.5l-4.4-6c-0.5-0.6-0.7-1.4-0.7-2.1
		v-6.1c0-1.3,1.1-2.4,2.4-2.4h21.7C62.9,20.8,64,21.9,64,23.3z"/>
</g>
</svg>
