<?xml version="1.0" encoding="utf-8"?>
<!-- Generator: Adobe Illustrator 18.0.0, SVG Export Plug-In . SVG Version: 6.00 Build 0)  -->
<!DOCTYPE svg PUBLIC "-//W3C//DTD SVG 1.1//EN" "http://www.w3.org/Graphics/SVG/1.1/DTD/svg11.dtd">
<svg version="1.1" id="Layer_1" xmlns="http://www.w3.org/2000/svg" xmlns:xlink="http://www.w3.org/1999/xlink" x="0px" y="0px"
	 viewBox="0 0 64 64" enable-background="new 0 0 64 64" xml:space="preserve">
<g>
	<g>
		<path fill="#77C9AE" d="M40.3,57.4V33.8c0-1.4-1.1-2.5-2.5-2.5H27.7c-1.4,0-2.5,1.1-2.5,2.5v23.6H40.3z"/>
		<path fill="#62C3A6" d="M40.3,57.4V33.8c0-1.4-1.1-2.4-2.4-2.4h-0.1v15.3c0,4.6-2.5,8.6-6.1,10.8L40.3,57.4L40.3,57.4z"/>
		<path fill="none" stroke="#2B3C65" stroke-width="2" stroke-linecap="round" stroke-linejoin="round" stroke-miterlimit="10" d="
			M40.3,57.4V33.8c0-1.4-1.1-2.4-2.4-2.4H27.7c-1.3,0-2.4,1.1-2.4,2.4v23.6H40.3z"/>
		
			<path fill="#FFD880" stroke="#2B3C65" stroke-width="2" stroke-linecap="round" stroke-linejoin="round" stroke-miterlimit="10" d="
			M41,22.6v3.3c0,0.4-0.1,0.9-0.3,1.3l-2,4.3c-0.3-0.1-0.6-0.2-0.9-0.2H27.7c-0.4,0-0.8,0.1-1.1,0.3v-1.4c0-0.8-0.3-1.6-0.9-2.1
			l-1.8-1.9c-0.6-0.6-0.9-1.3-0.9-2.1v-6c0-0.9,0.6-1.7,1.4-1.8c0.6-0.1,1.2,0.1,1.6,0.5c0.3,0.3,0.5,0.8,0.5,1.3"/>
		
			<path fill="#FFD880" stroke="#2B3C65" stroke-width="2" stroke-linecap="round" stroke-linejoin="round" stroke-miterlimit="10" d="
			M26.6,22.6V10.9c0-1,0.8-1.8,1.8-1.8c0.5,0,0.9,0.2,1.3,0.5c0.3,0.3,0.5,0.8,0.5,1.3v11.7"/>
		
			<path fill="#FFD880" stroke="#2B3C65" stroke-width="2" stroke-linecap="round" stroke-linejoin="round" stroke-miterlimit="10" d="
			M30.2,22.6V8.4c0-1,0.8-1.8,1.8-1.8c0.5,0,0.9,0.2,1.3,0.5c0.3,0.3,0.5,0.8,0.5,1.3v14.2"/>
		
			<path fill="#FFD880" stroke="#2B3C65" stroke-width="2" stroke-linecap="round" stroke-linejoin="round" stroke-miterlimit="10" d="
			M33.8,22.6v-11c0-1,0.8-1.8,1.8-1.8c0.5,0,0.9,0.2,1.3,0.5c0.3,0.3,0.5,0.8,0.5,1.3v11"/>
		
			<path fill="#FFD880" stroke="#2B3C65" stroke-width="2" stroke-linecap="round" stroke-linejoin="round" stroke-miterlimit="10" d="
			M37.4,22.6v-9.2c0-1,0.8-1.8,1.8-1.8c0.5,0,0.9,0.2,1.3,0.5c0.3,0.3,0.5,0.8,0.5,1.3v9.2"/>
	</g>
	<g>
		<g>
			<path fill="#C9D8EF" d="M62.3,57.4V46.5c0-1.4-1.1-2.5-2.5-2.5H49.7c-1.4,0-2.5,1.1-2.5,2.5v10.8h15.1V57.4z"/>
			<path fill="#B2CBEA" d="M62.3,57.4V46.5c0-1.4-1.1-2.4-2.4-2.4h-0.1v13.3C59.8,57.4,62.3,57.4,62.3,57.4z"/>
			<path fill="none" stroke="#2B3C65" stroke-width="2" stroke-linecap="round" stroke-linejoin="round" stroke-miterlimit="10" d="
				M62.3,57.4V46.5c0-1.4-1.1-2.4-2.4-2.4H49.7c-1.3,0-2.4,1.1-2.4,2.4v10.8h15V57.4z"/>
			
				<path fill="#FFD880" stroke="#2B3C65" stroke-width="2" stroke-linecap="round" stroke-linejoin="round" stroke-miterlimit="10" d="
				M63,35.4v3.3c0,0.4-0.1,0.9-0.3,1.3l-2,4.3c-0.3-0.1-0.6-0.2-0.9-0.2H49.7c-0.4,0-0.8,0.1-1.1,0.3V43c0-0.8-0.3-1.6-0.9-2.1
				L45.9,39c-0.6-0.6-0.9-1.3-0.9-2.1v-6c0-0.9,0.6-1.7,1.4-1.8c0.6-0.1,1.2,0.1,1.6,0.5c0.3,0.3,0.5,0.8,0.5,1.3"/>
			
				<path fill="#FFD880" stroke="#2B3C65" stroke-width="2" stroke-linecap="round" stroke-linejoin="round" stroke-miterlimit="10" d="
				M48.7,35.4V23.7c0-1,0.8-1.8,1.8-1.8c0.5,0,0.9,0.2,1.3,0.5c0.3,0.3,0.5,0.8,0.5,1.3v11.7"/>
			
				<path fill="#FFD880" stroke="#2B3C65" stroke-width="2" stroke-linecap="round" stroke-linejoin="round" stroke-miterlimit="10" d="
				M52.2,35.4V21.2c0-1,0.8-1.8,1.8-1.8c0.5,0,0.9,0.2,1.3,0.5c0.3,0.3,0.5,0.8,0.5,1.3v14.2"/>
			
				<path fill="#FFD880" stroke="#2B3C65" stroke-width="2" stroke-linecap="round" stroke-linejoin="round" stroke-miterlimit="10" d="
				M55.8,35.4v-11c0-1,0.8-1.8,1.8-1.8c0.5,0,0.9,0.2,1.3,0.5c0.3,0.3,0.5,0.8,0.5,1.3v11"/>
			
				<path fill="#FFD880" stroke="#2B3C65" stroke-width="2" stroke-linecap="round" stroke-linejoin="round" stroke-miterlimit="10" d="
				M59.4,35.4v-9.2c0-1,0.8-1.8,1.8-1.8c0.5,0,0.9,0.2,1.3,0.5c0.3,0.3,0.5,0.8,0.5,1.3v9.2"/>
		</g>
		<g>
			<path fill="#F27DAD" d="M18.2,57.4V46.5c0-1.4-1.1-2.5-2.5-2.5h-10c-1.4,0-2.5,1.1-2.5,2.5v10.8h15V57.4z"/>
			<path fill="#EE3C81" d="M18.2,57.4V46.5c0-1.4-1.1-2.4-2.4-2.4h-0.1v13.3C15.7,57.4,18.2,57.4,18.2,57.4z"/>
			<path fill="none" stroke="#2B3C65" stroke-width="2" stroke-linecap="round" stroke-linejoin="round" stroke-miterlimit="10" d="
				M18.2,57.4V46.5c0-1.4-1.1-2.4-2.4-2.4H5.7c-1.3,0-2.4,1.1-2.4,2.4v10.8h14.9V57.4z"/>
			
				<path fill="#FFD880" stroke="#2B3C65" stroke-width="2" stroke-linecap="round" stroke-linejoin="round" stroke-miterlimit="10" d="
				M18.9,35.4v3.3c0,0.4-0.1,0.9-0.3,1.3l-2,4.3c-0.3-0.1-0.6-0.2-0.9-0.2h-10c-0.4,0-0.8,0.1-1.1,0.3V43c0-0.8-0.3-1.6-0.9-2.1
				L1.9,39C1.3,38.3,1,37.5,1,36.7v-6c0-0.9,0.6-1.7,1.4-1.8C3,28.8,3.6,29,4,29.4c0.3,0.3,0.5,0.8,0.5,1.3"/>
			
				<path fill="#FFD880" stroke="#2B3C65" stroke-width="2" stroke-linecap="round" stroke-linejoin="round" stroke-miterlimit="10" d="
				M4.6,35.4V23.7c0-1,0.8-1.8,1.8-1.8c0.5,0,0.9,0.2,1.3,0.5c0.3,0.3,0.5,0.8,0.5,1.3v11.7"/>
			
				<path fill="#FFD880" stroke="#2B3C65" stroke-width="2" stroke-linecap="round" stroke-linejoin="round" stroke-miterlimit="10" d="
				M8.2,35.4V21.2c0-1,0.8-1.8,1.8-1.8c0.5,0,0.9,0.2,1.3,0.5c0.3,0.3,0.5,0.8,0.5,1.3v14.2"/>
			
				<path fill="#FFD880" stroke="#2B3C65" stroke-width="2" stroke-linecap="round" stroke-linejoin="round" stroke-miterlimit="10" d="
				M11.8,35.4v-11c0-1,0.8-1.8,1.8-1.8c0.5,0,0.9,0.2,1.3,0.5c0.3,0.3,0.5,0.8,0.5,1.3v11"/>
			
				<path fill="#FFD880" stroke="#2B3C65" stroke-width="2" stroke-linecap="round" stroke-linejoin="round" stroke-miterlimit="10" d="
				M15.3,35.4v-9.2c0-1,0.8-1.8,1.8-1.8c0.5,0,0.9,0.2,1.3,0.5c0.3,0.3,0.5,0.8,0.5,1.3v9.2"/>
		</g>
	</g>
</g>
</svg>
