<?xml version="1.0" encoding="utf-8"?>
<!-- Generator: Adobe Illustrator 18.0.0, SVG Export Plug-In . SVG Version: 6.00 Build 0)  -->
<!DOCTYPE svg PUBLIC "-//W3C//DTD SVG 1.1//EN" "http://www.w3.org/Graphics/SVG/1.1/DTD/svg11.dtd">
<svg version="1.1" id="Layer_1" xmlns="http://www.w3.org/2000/svg" xmlns:xlink="http://www.w3.org/1999/xlink" x="0px" y="0px"
	 viewBox="0 0 64 64" enable-background="new 0 0 64 64" xml:space="preserve">
<g>
	<path fill="#F05991" d="M63,21.1c0,19.3-22,34-28.9,38.1c-1.3,0.8-2.8,0.8-4.1,0C23,55.1,1,40.4,1,21.1c0-9.4,7.6-17,16.9-17
		c5.8,0,11,3,14.1,7.5c3.1-4.5,8.2-7.5,14.1-7.5C55.4,4.2,63,11.8,63,21.1z"/>
	<path fill="#EE3C81" d="M63,21.1c0,19.3-22,34-29,38.1c-1.3,0.8-2.8,0.8-4.1,0c-4.5-2.7-15.3-9.8-22.4-19.8
		c3.4,2.6,6.4,4.5,8.2,5.6c1.3,0.8,2.8,0.8,4.1,0c6.9-4.1,29-18.9,29-38.1c0-0.9-0.1-1.8-0.2-2.6C56.8,5.6,63,12.6,63,21.1z"/>
	<path fill="none" stroke="#2B3C65" stroke-width="2" stroke-linecap="round" stroke-linejoin="round" stroke-miterlimit="10" d="
		M63,21.1c0,19.3-22,34-28.9,38.1c-1.3,0.8-2.8,0.8-4.1,0C23,55.1,1,40.4,1,21.1c0-9.4,7.6-17,16.9-17c5.8,0,11,3,14.1,7.5
		c3.1-4.5,8.2-7.5,14.1-7.5C55.4,4.2,63,11.8,63,21.1z"/>
	
		<polyline fill="none" stroke="#2B3C65" stroke-width="2" stroke-linecap="round" stroke-linejoin="round" stroke-miterlimit="10" points="
		6.5,29.3 12.5,29.3 20.4,38 28.5,19.1 37.1,44.9 43.8,25.1 48.2,34.5 51.5,29.5 57.4,29.5 	"/>
</g>
</svg>
