<?xml version="1.0" encoding="utf-8"?>
<!-- Generator: Adobe Illustrator 24.1.1, SVG Export Plug-In . SVG Version: 6.00 Build 0)  -->
<svg version="1.1" id="Layer_1" xmlns="http://www.w3.org/2000/svg" xmlns:xlink="http://www.w3.org/1999/xlink" x="0px" y="0px"
	 viewBox="0 0 63 63" style="enable-background:new 0 0 63 63;" xml:space="preserve">
<style type="text/css">
	.st0{fill:#D5A6FF;}
	.st1{fill:#CC87FE;}
	.st2{fill:none;stroke:#2A3C65;stroke-width:2;stroke-linecap:round;stroke-linejoin:round;stroke-miterlimit:10;}
	.st3{fill:#FF7DAF;}
	.st4{fill:#FF5892;}
	.st5{fill:#FFD880;}
	.st6{fill:#FECB4D;}
	.st7{fill:#E3ECFF;}
	.st8{fill:#02BEFF;stroke:#2A3C65;stroke-width:2;stroke-linecap:round;stroke-linejoin:round;stroke-miterlimit:10;}
	.st9{fill:#FECB4D;stroke:#2A3C65;stroke-width:2;stroke-linecap:round;stroke-linejoin:round;stroke-miterlimit:10;}
	.st10{fill:#1DE9B6;stroke:#2A3C65;stroke-width:2;stroke-linecap:round;stroke-linejoin:round;stroke-miterlimit:10;}
	.st11{fill:#FFD880;stroke:#2A3C65;stroke-width:2;stroke-linecap:round;stroke-linejoin:round;stroke-miterlimit:10;}
</style>
<g>
	<path class="st0" d="M57.66,29.23v32.33H5.34V29.22c0.63-0.11,1.25-0.39,1.79-0.82L29.6,10.09c1.1-0.89,2.69-0.89,3.79,0
		L55.87,28.4C56.41,28.84,57.03,29.11,57.66,29.23z"/>
	<path class="st1" d="M57.66,29.24v32.33H5.34v-4.71h17.41c16.8,0,30.62-12.82,32.18-29.22l0.94,0.77
		C56.41,28.85,57.03,29.12,57.66,29.24z"/>
	<polyline class="st2" points="57.66,33.27 57.66,61.57 5.34,61.57 5.34,33.26 	"/>
	<path class="st3" d="M61.5,27.83c-1.4,1.71-3.91,1.97-5.63,0.58L33.39,10.09c-1.1-0.89-2.69-0.89-3.79,0L7.13,28.4
		c-1.71,1.4-4.23,1.14-5.63-0.57l0,0c-1.4-1.71-1.14-4.23,0.57-5.63L24.55,3.89c4.03-3.28,9.87-3.28,13.89,0L60.92,22.2
		C62.64,23.6,62.9,26.12,61.5,27.83L61.5,27.83z"/>
	<path class="st4" d="M58.4,26.3c-0.16,0-0.4-0.04-0.63-0.22L35.29,7.77c-1.06-0.87-2.41-1.34-3.79-1.34s-2.73,0.48-3.79,1.35
		L5.23,26.08C5,26.26,4.76,26.3,4.6,26.3c-0.18,0-0.52-0.05-0.78-0.37c-0.23-0.28-0.24-0.58-0.22-0.73s0.08-0.45,0.36-0.67
		L26.44,6.22c1.41-1.15,3.21-1.79,5.05-1.79s3.64,0.63,5.05,1.78l22.48,18.31c0.28,0.23,0.35,0.52,0.36,0.67
		c0.02,0.15,0.01,0.45-0.22,0.73C58.91,26.26,58.57,26.3,58.4,26.3z"/>
	<path class="st2" d="M61.5,27.83c-1.4,1.71-3.91,1.97-5.63,0.58L33.39,10.09c-1.1-0.89-2.69-0.89-3.79,0L7.13,28.4
		c-1.71,1.4-4.23,1.14-5.63-0.57l0,0c-1.4-1.71-1.14-4.23,0.57-5.63L24.55,3.89c4.03-3.28,9.87-3.28,13.89,0L60.92,22.2
		C62.64,23.6,62.9,26.12,61.5,27.83L61.5,27.83z"/>
	<path class="st5" d="M25.08,41.49v20.07H9.99V41.49c0-1.11,0.9-2,2-2h11.09C24.19,39.49,25.08,40.38,25.08,41.49z"/>
	<rect x="12.99" y="42.49" class="st6" width="9.09" height="16.07"/>
	<path class="st2" d="M25.08,41.49v20.07H9.99V41.49c0-1.11,0.9-2,2-2h11.09C24.19,39.49,25.08,40.38,25.08,41.49z"/>
	<line class="st2" x1="13.06" y1="49.54" x2="13.06" y2="51.46"/>
	<path class="st7" d="M53.01,32.79v15.25c0,1.1-0.9,2-2,2H30.74c-1.1,0-2-0.9-2-2V32.79c0-1.1,0.9-2,2-2h20.27
		C52.11,30.79,53.01,31.69,53.01,32.79z"/>
	<path class="st2" d="M53.01,32.79v15.25c0,1.1-0.9,2-2,2H30.74c-1.1,0-2-0.9-2-2V32.79c0-1.1,0.9-2,2-2h20.27
		C52.11,30.79,53.01,31.69,53.01,32.79z"/>
	<path class="st8" d="M48.57,48.9v1.15H33.19V48.9c0.19-1.23,0.93-2.29,1.98-2.94c0.96-0.58,1.97-1.05,2.63-1.33
		c0.27-0.11,0.49-0.19,0.62-0.25c0.1-0.03,0.14-0.04,0.14-0.04h4.64c0,0,0.05,0.01,0.14,0.04c0.13,0.05,0.35,0.14,0.62,0.25
		c0.66,0.28,1.67,0.75,2.63,1.33C47.63,46.6,48.37,47.66,48.57,48.9z"/>
	<path class="st9" d="M42.85,42.33v3.22c0,0.07-0.01,0.15-0.02,0.23c-0.04,0.22-0.07,0.41-0.1,0.58c-0.4,2.01-3.28,2.02-3.69,0.01
		c-0.03-0.17-0.07-0.36-0.11-0.58c-0.01-0.09-0.02-0.17-0.02-0.24v-3.22C38.91,42.33,42.85,42.33,42.85,42.33z"/>
	<path class="st10" d="M44.84,37.85c0,2.1-1.77,4.7-3.96,4.7s-3.96-2.6-3.96-4.7c0-2.1,1.77-3.21,3.96-3.21S44.84,35.75,44.84,37.85
		z"/>
	<path class="st11" d="M44.31,39.7v1.23c0,1.86-1.42,3.47-3.26,3.56c-1.97,0.1-3.6-1.49-3.6-3.46v-1.56c0-0.34,0.2-0.65,0.5-0.8
		c0.25-0.13,0.56-0.33,0.8-0.64c0.27-0.36,0.78-0.42,1.16-0.19c0.64,0.39,1.75,0.83,3.58,0.98C43.95,38.85,44.31,39.23,44.31,39.7z"
		/>
	<line class="st2" x1="0.97" y1="61.56" x2="62.03" y2="61.56"/>
</g>
</svg>
