<?xml version="1.0" encoding="utf-8"?>
<!-- Generator: Adobe Illustrator 18.0.0, SVG Export Plug-In . SVG Version: 6.00 Build 0)  -->
<!DOCTYPE svg PUBLIC "-//W3C//DTD SVG 1.1//EN" "http://www.w3.org/Graphics/SVG/1.1/DTD/svg11.dtd">
<svg version="1.1" id="Layer_1" xmlns="http://www.w3.org/2000/svg" xmlns:xlink="http://www.w3.org/1999/xlink" x="0px" y="0px"
	 viewBox="0 0 64 64" enable-background="new 0 0 64 64" xml:space="preserve">
<g>
	<path fill="#62C3A6" d="M58.9,38.5c0,0,0,0.1,0,0.2c0,1.2-0.4,2.4-1.1,3.3c1.4,0.6,2.4,1.9,2.4,3.5c0,2.1-1.7,3.8-3.8,3.8
		c-0.9,0-1.8-0.8-2.5-1.7c-1.2-1.6-3-2.6-5-2.6c-0.2,0-0.4,0-0.6,0c0.2-1,0.7-2,1.4-2.7c-0.7-0.7-1.2-1.7-1.4-2.8
		c-0.2,0-0.4,0-0.6,0c-3.9,0-7-3.8-5.6-7.9c0.8-2.4,3.1-4,5.6-4h0.1c0-0.1,0-0.1,0-0.2c-0.5,0.2-1,0.2-1.6,0.2
		c-3.2,0-5.8-2.5-5.9-5.7c-0.8-0.6-1.4-1.5-1.7-2.5c-0.5,0.2-1,0.2-1.5,0.2s-1-0.1-1.4-0.2c-0.5,2.2-2.4,3.9-4.8,3.9
		c-2.6,0-4.7-2-4.9-4.5c-0.3,0.1-0.6,0.1-1,0.1c-0.6,0-1.2-0.1-1.8-0.3c0.3,0.7,0.5,1.5,0.5,2.3c0,3.3-2.7,6-5.9,6
		c-0.9,0-1.8-0.2-2.6-0.6c-0.1,0.2-0.3,0.5-0.5,0.7c3.2,0.4,5.5,3.4,5.1,6.8c-0.5,3.2-3.6,5.5-6.8,5l0,0c0,0.2,0,0.4,0,0.5
		c0,1.6-0.7,3-1.7,3.9c0.6,1,0.9,2.3,0.6,3.6c-0.3,2.1-1.9,3.8-4,4.3c-3.7,1-6.9-1.6-6.9-5c0-1.5,0.7-3,1.7-3.9
		C2.3,41.3,2,40.4,2,39.4c0-1.7,0.8-3.1,1.9-4.1C2.2,34.4,1,32.6,1,30.5c0-2.6,1.8-4.7,4.2-5.2C5,24.8,5,24.3,5,23.7
		c0-2.3,1.5-4.3,3.5-5c-1.3-1-2.1-2.5-2.1-4.3c0-3,2.4-5.4,5.4-5.4c1.6,0,3.1,0.7,4.1,1.9c0.5-2.5,2.7-4.3,5.3-4.3
		c1.1,0,2.1,0.3,2.9,0.9c0.1-2.9,2.5-5.1,5.4-5.1c2.4,0,4.4,1.6,5.1,3.8c1-0.9,2.3-1.5,3.7-1.5c2.7,0,4.9,1.9,5.3,4.5
		c0.7-0.3,1.4-0.5,2.2-0.5c2.3,0,4.3,1.4,5,3.5c0.9-0.4,1.9-0.6,3-0.5c2.4,0.3,4.3,2.2,4.6,4.6s-1,4.6-3.1,5.6
		c1.8,0.8,3.1,2.7,3.1,4.9c0,0.4-0.1,0.8-0.1,1.2c2.7,0.3,4.8,2.6,4.8,5.3C63,35.8,61.2,37.9,58.9,38.5z"/>
	<path fill="#4FBD96" d="M45.6,14.3h12.1c-0.9-1.6-2.7-2.7-4.7-2.7c-0.8,0-1.6,0.2-2.3,0.5c-0.8-2-2.7-3.5-5-3.5
		c-0.8,0-1.5,0.2-2.2,0.5c-0.4-2.5-2.6-4.5-5.3-4.5c-1.4,0-2.7,0.6-3.7,1.5c-0.7-2.2-2.7-3.8-5.1-3.8c-2.9,0-5.2,2.3-5.4,5.1
		c-0.8-0.6-1.8-0.9-2.9-0.9c-2.6,0-4.8,1.9-5.3,4.3C14.7,9.5,13,8.7,11.1,9c-2.4,0.3-4.4,2.2-4.7,4.6c-0.3,2,0.6,3.9,2.1,5
		c-2,0.8-3.5,2.7-3.5,5c0,0.5,0.1,1.1,0.2,1.6C2.8,25.8,1,28,1,30.5c0,2.1,1.2,3.9,2.9,4.8c-1.2,1-1.9,2.5-1.9,4.1
		c0,1,0.3,1.9,0.7,2.7c-1.3,1.2-2.1,3.2-1.6,5.2s2.1,3.6,4.1,4c2.3,0.5,4.4-0.5,5.6-2.2l0,0C10.8,29.9,26.4,14.3,45.6,14.3z"/>
	
		<path fill="none" stroke="#2B3C65" stroke-width="1.913" stroke-linecap="round" stroke-linejoin="round" stroke-miterlimit="10" d="
		M9.6,50.3c-0.9,0.7-2,1.1-3.3,1.1c-3,0-5.4-2.4-5.4-5.4c0-1.5,0.7-3,1.7-3.9C2.3,41.3,2,40.4,2,39.4c0-1.7,0.8-3.1,1.9-4.1
		C2.2,34.4,1,32.6,1,30.5c0-2.6,1.8-4.7,4.2-5.2C5,24.8,5,24.3,5,23.7c0-2.3,1.5-4.3,3.5-5c-1.3-1-2.1-2.5-2.1-4.3
		c0-3,2.4-5.4,5.4-5.4c1.6,0,3.1,0.7,4.1,1.9c0.5-2.5,2.7-4.3,5.3-4.3c1.1,0,2.1,0.3,2.9,0.9c0.1-2.9,2.5-5.1,5.4-5.1
		c2.4,0,4.4,1.6,5.1,3.8c1-0.9,2.3-1.5,3.7-1.5c2.7,0,4.9,1.9,5.3,4.5c0.7-0.3,1.4-0.5,2.2-0.5c2.3,0,4.3,1.4,5,3.5
		c0.7-0.4,1.5-0.5,2.4-0.5c3,0,5.4,2.4,5.4,5.4c0,2.2-1.3,4-3.1,4.9c1.8,0.8,3.1,2.7,3.1,4.9c0,0.4-0.1,0.8-0.1,1.2
		c2.7,0.3,4.8,2.6,4.8,5.3c0,2.5-1.8,4.6-4.1,5.2c0,0,0,0.1,0,0.2c0,1.4-0.5,2.7-1.4,3.7"/>
	
		<path fill="none" stroke="#2B3C65" stroke-width="1.913" stroke-linecap="round" stroke-linejoin="round" stroke-miterlimit="10" d="
		M57.5,42.3c1.5,0.4,2.5,1.8,2.5,3.4c0,2-1.6,3.6-3.6,3.6c-1.2,0-2.3-0.6-2.9-1.5"/>
	<path fill="#FECB4D" d="M51.4,37.4c0,13.4-9.1,24.3-20.3,24.3S10.8,50.8,10.8,37.4c0-5.9,1.7-11.2,4.6-15.4c0.9,0.7,2,1.2,3.2,1.2
		c2.5,0,4.6-1.9,4.9-4.3c0.6,0.2,1.2,0.3,1.8,0.3c0.3,0,0.7,0,1-0.1c0.2,2.5,2.3,4.5,4.9,4.5c2.4,0,4.4-1.7,4.8-3.9
		c0.4,0.1,0.9,0.2,1.4,0.2s1-0.1,1.5-0.2c0.6,2,2.5,3.5,4.7,3.5c1.2,0,2.3-0.4,3.2-1.2C49.6,26.1,51.4,31.5,51.4,37.4z"/>
	<path fill="#F8B824" d="M51.4,37.4c0,13.4-9.1,24.3-20.3,24.3c-6.5,0-12.3-3.6-16-9.3c2.8,1.8,6.1,2.8,9.5,2.8
		c11.2,0,20.3-10.9,20.3-24.3c0-2.7-0.4-5.3-1.1-7.8c1.1,0,2.2-0.5,3-1.2C49.6,26.1,51.4,31.5,51.4,37.4z"/>
	
		<path fill="none" stroke="#2B3C65" stroke-width="1.913" stroke-linecap="round" stroke-linejoin="round" stroke-miterlimit="10" d="
		M51.4,37.4c0,13.4-9.1,24.3-20.3,24.3S10.8,50.8,10.8,37.4c0-5.9,1.7-11.2,4.6-15.4c0.9,0.7,2,1.2,3.2,1.2c2.5,0,4.6-1.9,4.9-4.3
		c0.6,0.2,1.2,0.3,1.8,0.3c0.3,0,0.7,0,1-0.1c0.2,2.5,2.3,4.5,4.9,4.5c2.4,0,4.4-1.7,4.8-3.9c0.4,0.1,0.9,0.2,1.4,0.2s1-0.1,1.5-0.2
		c0.6,2,2.5,3.5,4.7,3.5c1.2,0,2.3-0.4,3.2-1.2C49.6,26.1,51.4,31.5,51.4,37.4z"/>
	
		<path fill="none" stroke="#2B3C65" stroke-width="1.913" stroke-linecap="round" stroke-linejoin="round" stroke-miterlimit="10" d="
		M42.8,48.4c-2.7,4.5-6.9,7.5-11.7,7.5s-9-2.9-11.7-7.5"/>
	
		<ellipse fill="#F05991" stroke="#2B3C65" stroke-width="1.913" stroke-linecap="round" stroke-linejoin="round" stroke-miterlimit="10" cx="31.1" cy="45.5" rx="6.6" ry="3.9"/>
	
		<path fill="#E4EBF7" stroke="#2B3C65" stroke-width="1.913" stroke-linecap="round" stroke-linejoin="round" stroke-miterlimit="10" d="
		M45.2,32.9c-2.8,0.9-4.8,2.9-6,6c-1.2-3.1-3.2-5.1-6-6c3-1,5-3,6-6C40.2,29.8,42.2,31.8,45.2,32.9z"/>
	
		<line fill="none" stroke="#2B3C65" stroke-width="1.913" stroke-linecap="round" stroke-linejoin="round" stroke-miterlimit="10" x1="38.6" y1="32.9" x2="39.7" y2="32.9"/>
	
		<path fill="#E4EBF7" stroke="#2B3C65" stroke-width="1.913" stroke-linecap="round" stroke-linejoin="round" stroke-miterlimit="10" d="
		M29,32.9c-2.8,0.9-4.8,2.9-6,6c-1.2-3.1-3.2-5.1-6-6c3-1,5-3,6-6C24,29.8,26,31.8,29,32.9z"/>
	
		<line fill="none" stroke="#2B3C65" stroke-width="1.913" stroke-linecap="round" stroke-linejoin="round" stroke-miterlimit="10" x1="22.4" y1="32.9" x2="23.5" y2="32.9"/>
</g>
</svg>
