<?xml version="1.0" encoding="utf-8"?>
<!-- Generator: Adobe Illustrator 24.1.1, SVG Export Plug-In . SVG Version: 6.00 Build 0)  -->
<svg version="1.1" id="Layer_1" xmlns="http://www.w3.org/2000/svg" xmlns:xlink="http://www.w3.org/1999/xlink" x="0px" y="0px"
	 viewBox="0 0 64 64" style="enable-background:new 0 0 64 64;" xml:space="preserve">
<style type="text/css">
	.st0{fill:#38FCC4;}
	.st1{fill:#1DE9B6;}
	.st2{fill:none;stroke:#2A3C65;stroke-width:2.0667;stroke-linecap:round;stroke-linejoin:round;stroke-miterlimit:10;}
	.st3{fill:#E3ECFF;}
	.st4{fill:#C7D9F9;}
	.st5{fill:#FFD880;}
	.st6{fill:#FECB4D;}
	.st7{fill:#FF7DAF;}
	.st8{fill:#FFFFFF;stroke:#2A3C65;stroke-width:2.0667;stroke-linecap:round;stroke-linejoin:round;stroke-miterlimit:10;}
	.st9{fill:none;stroke:#2A3C65;stroke-width:2.1673;stroke-linecap:round;stroke-linejoin:round;stroke-miterlimit:10;}
	.st10{fill:#FFFFFF;}
	.st11{fill:#12D69E;}
	.st12{fill:none;stroke:#2A3C65;stroke-width:2.0666;stroke-linecap:round;stroke-linejoin:round;stroke-miterlimit:10;}
	.st13{fill:#B0CDF7;}
	.st14{fill:#CC87FE;}
	.st15{fill:#FFFFFF;stroke:#2A3C65;stroke-width:2.0666;stroke-linecap:round;stroke-linejoin:round;stroke-miterlimit:10;}
	.st16{fill:none;stroke:#2A3C65;stroke-width:2;stroke-linecap:round;stroke-linejoin:round;stroke-miterlimit:10;}
	.st17{opacity:0.5;fill:#E3ECFF;}
	.st18{fill:#FFFFFF;stroke:#2A3C65;stroke-width:2;stroke-linecap:round;stroke-linejoin:round;stroke-miterlimit:10;}
	.st19{fill:none;stroke:#2A3C65;stroke-width:2.0329;stroke-linecap:round;stroke-linejoin:round;stroke-miterlimit:10;}
	.st20{fill:#D5A6FF;}
	.st21{fill:#E3ECFF;stroke:#2A3C65;stroke-width:2.0329;stroke-linecap:round;stroke-linejoin:round;stroke-miterlimit:10;}
	.st22{fill:#27D1FF;stroke:#2A3C65;stroke-width:2.0329;stroke-linecap:round;stroke-linejoin:round;stroke-miterlimit:10;}
	.st23{fill:#FF5892;}
	.st24{fill:#FFFFFF;stroke:#2A3C65;stroke-width:2.0329;stroke-linecap:round;stroke-linejoin:round;stroke-miterlimit:10;}
	.st25{fill:none;stroke:#2A3C65;stroke-width:2.0295;stroke-linecap:round;stroke-linejoin:round;stroke-miterlimit:10;}
	.st26{fill:#27D1FF;}
	.st27{fill:#FFFFFF;stroke:#2A3C65;stroke-width:2.0295;stroke-linecap:round;stroke-linejoin:round;stroke-miterlimit:10;}
	.st28{fill:none;stroke:#2A3C65;stroke-width:1.9375;stroke-linecap:round;stroke-linejoin:round;stroke-miterlimit:10;}
	.st29{fill:#FFFFFF;stroke:#2A3C65;stroke-width:1.9375;stroke-linecap:round;stroke-linejoin:round;stroke-miterlimit:10;}
	.st30{fill:#2A3C65;}
	.st31{fill:none;stroke:#2A3C65;stroke-width:2.0609;stroke-linecap:round;stroke-linejoin:round;stroke-miterlimit:10;}
	.st32{fill:#FFFFFF;stroke:#2A3C65;stroke-width:2.0609;stroke-linecap:round;stroke-linejoin:round;stroke-miterlimit:10;}
	.st33{fill:#02BEFF;}
	.st34{fill:none;stroke:#2A3C65;stroke-width:1.9154;stroke-linecap:round;stroke-linejoin:round;stroke-miterlimit:10;}
	.st35{fill:#FF7DAF;stroke:#2A3C65;stroke-width:1.9154;stroke-linecap:round;stroke-linejoin:round;stroke-miterlimit:10;}
	.st36{fill:#FFD880;stroke:#2A3C65;stroke-width:2.1563;stroke-linecap:round;stroke-linejoin:round;stroke-miterlimit:10;}
	.st37{fill:none;stroke:#2A3C65;stroke-width:2.1563;stroke-linecap:round;stroke-linejoin:round;stroke-miterlimit:10;}
	.st38{fill:none;stroke:#2A3C65;stroke-width:2.1269;stroke-linecap:round;stroke-linejoin:round;stroke-miterlimit:10;}
	.st39{fill:#FFFFFF;stroke:#2A3C65;stroke-width:2.1269;stroke-linecap:round;stroke-linejoin:round;stroke-miterlimit:10;}
	.st40{fill:#FFD880;stroke:#2A3C65;stroke-width:2;stroke-linecap:round;stroke-linejoin:round;stroke-miterlimit:10;}
	.st41{fill:#E3ECFF;stroke:#2A3C65;stroke-width:2;stroke-linecap:round;stroke-linejoin:round;stroke-miterlimit:10;}
	.st42{fill:#E3ECFF;stroke:#2A3C65;stroke-width:2.009;stroke-linecap:round;stroke-linejoin:round;stroke-miterlimit:10;}
	.st43{fill:none;stroke:#2A3C65;stroke-width:2.009;stroke-linecap:round;stroke-linejoin:round;stroke-miterlimit:10;}
	.st44{fill:#FF5892;stroke:#2A3C65;stroke-width:2.009;stroke-linecap:round;stroke-linejoin:round;stroke-miterlimit:10;}
	.st45{fill:#27D1FF;stroke:#2A3C65;stroke-width:2;stroke-linecap:round;stroke-linejoin:round;stroke-miterlimit:10;}
	.st46{fill:#FF7DAF;stroke:#2A3C65;stroke-width:2.0666;stroke-linecap:round;stroke-linejoin:round;stroke-miterlimit:10;}
	.st47{fill:none;stroke:#2A3C65;stroke-width:1.9315;stroke-linecap:round;stroke-linejoin:round;stroke-miterlimit:10;}
	.st48{fill:#F9B826;}
	.st49{fill:#2A3C65;stroke:#2A3C65;stroke-width:2;stroke-linecap:round;stroke-linejoin:round;stroke-miterlimit:10;}
	.st50{fill:none;}
	.st51{fill:none;stroke:#2A3C65;stroke-width:1.9999;stroke-linecap:round;stroke-linejoin:round;stroke-miterlimit:10;}
	.st52{fill:#00ADDB;}
	.st53{fill:none;stroke:#2A3C65;stroke-width:2.0001;stroke-linecap:round;stroke-linejoin:round;stroke-miterlimit:10;}
	.st54{fill:#FF7DAF;stroke:#2A3C65;stroke-width:2.0001;stroke-linecap:round;stroke-linejoin:round;stroke-miterlimit:10;}
	.st55{fill:none;stroke:#2A3C65;stroke-width:2.0334;stroke-linecap:round;stroke-linejoin:round;stroke-miterlimit:10;}
	.st56{fill:#E3ECFF;stroke:#2A3C65;stroke-width:2.0334;stroke-linecap:round;stroke-linejoin:round;stroke-miterlimit:10;}
	.st57{fill:#02BEFF;stroke:#2A3C65;stroke-width:2;stroke-linecap:round;stroke-linejoin:round;stroke-miterlimit:10;}
	.st58{fill:#FECB4D;stroke:#2A3C65;stroke-width:2;stroke-linecap:round;stroke-linejoin:round;stroke-miterlimit:10;}
	.st59{fill:none;stroke:#2A3C65;stroke-width:1.9481;stroke-linecap:round;stroke-linejoin:round;stroke-miterlimit:10;}
	.st60{fill:#38FCC4;stroke:#2A3C65;stroke-width:1.9481;stroke-linecap:round;stroke-linejoin:round;stroke-miterlimit:10;}
	.st61{fill:none;stroke:#2A3C65;stroke-width:1.993;stroke-linecap:round;stroke-linejoin:round;stroke-miterlimit:10;}
	.st62{fill:#27D1FF;stroke:#2A3C65;stroke-width:1.9999;stroke-linecap:round;stroke-linejoin:round;stroke-miterlimit:10;}
	.st63{fill:#E3ECFF;stroke:#2A3C65;stroke-width:1.9999;stroke-linecap:round;stroke-linejoin:round;stroke-miterlimit:10;}
	.st64{fill:#FF7DAF;stroke:#2A3C65;stroke-width:1.9999;stroke-linecap:round;stroke-linejoin:round;stroke-miterlimit:10;}
	.st65{fill:none;stroke:#2A3C65;stroke-width:2.0003;stroke-linecap:round;stroke-linejoin:round;stroke-miterlimit:10;}
	.st66{fill:#FF7DAF;stroke:#2A3C65;stroke-width:2.0003;stroke-linecap:round;stroke-linejoin:round;stroke-miterlimit:10;}
	.st67{fill:#B45FFF;}
	.st68{fill:none;stroke:#2A3C65;stroke-width:1.8975;stroke-linecap:round;stroke-linejoin:round;stroke-miterlimit:10;}
	
		.st69{fill:none;stroke:#2A3C65;stroke-width:1.8975;stroke-linecap:round;stroke-linejoin:round;stroke-miterlimit:10;stroke-dasharray:2.8463;}
	.st70{fill:#27D1FF;stroke:#2A3C65;stroke-width:1.8975;stroke-linecap:round;stroke-linejoin:round;stroke-miterlimit:10;}
</style>
<g>
	<g>
		<path class="st5" d="M48.21,43.27c-2.69,4.86-6.03,8.79-10.06,11.79c-0.95,0.7-2.11,1.06-3.29,1.06H24.41
			c-0.7,0-1.4,0.13-2.04,0.38l-1.88,1.21l-8.01-8l4.54-4.35c0.95-0.91,2.22-1.43,3.53-1.43h3.31c1.15,0,2.25,0.38,3.15,1.08
			c0.9,0.7,2,1.08,3.15,1.08h4.57c0.6,0,1.15,0.25,1.54,0.64c0.16,0.14,0.28,0.32,0.38,0.51c1.1-0.5,3.55-1.66,4.33-2.39
			c0.49-0.46,1.43-2.28,1.43-2.28c0.75-1.2,2.05-1.87,3.39-1.87c0.58,0,1.18,0.13,1.74,0.4C48.33,41.51,48.64,42.49,48.21,43.27z"/>
		<path class="st6" d="M48.21,43.27c-2.69,4.86-6.03,8.79-10.06,11.79c-0.95,0.7-2.11,1.06-3.29,1.06H24.41
			c-0.7,0-1.4,0.13-2.04,0.38l-1.88,1.21l-8.01-8l2.15-2.06c4.82,3.77,10.95,5.55,17.11,4.87l3.12-0.35c1.18,0,2.34-0.36,3.29-1.06
			c3.55-2.65,6.58-6.02,9.08-10.12c0.1,0.03,0.2,0.07,0.3,0.12C48.33,41.51,48.64,42.49,48.21,43.27z"/>
		<path class="st4" d="M39.32,34.52c-0.09,0.24-0.18,0.48-0.29,0.7c-0.17,0.35-0.13,0.77,0.1,1.09l1.01,1.38
			c0.31,0.42,0.27,1.01-0.1,1.38l-0.8,0.81c-0.38,0.38-0.97,0.42-1.4,0.11l-1.34-1c-0.32-0.24-0.75-0.27-1.11-0.1
			c-0.22,0.11-0.45,0.2-0.68,0.28c-0.37,0.13-0.64,0.46-0.7,0.84l-0.25,1.69c-0.08,0.52-0.53,0.91-1.06,0.91h-1.12
			c-0.53,0-0.98-0.39-1.06-0.91l-0.25-1.69c-0.06-0.39-0.33-0.71-0.7-0.84c-0.23-0.08-0.46-0.18-0.68-0.28
			c-0.36-0.17-0.79-0.14-1.11,0.1l-1.34,1c-0.43,0.32-1.03,0.27-1.4-0.11l-0.8-0.81c-0.37-0.37-0.41-0.96-0.1-1.38l1.01-1.38
			c0.23-0.32,0.27-0.73,0.1-1.09c-0.11-0.23-0.2-0.46-0.29-0.7c-0.13-0.37-0.45-0.64-0.84-0.7l-1.66-0.25
			c-0.52-0.08-0.91-0.53-0.91-1.06v-1.16c0-0.53,0.39-0.98,0.91-1.06l1.65-0.25c0.39-0.06,0.71-0.33,0.85-0.7
			c0.09-0.24,0.18-0.47,0.29-0.7c0.17-0.35,0.13-0.77-0.1-1.09l-1.01-1.38c-0.31-0.42-0.27-1.01,0.1-1.38l0.8-0.81
			c0.38-0.38,0.97-0.42,1.4-0.11l1.34,1c0.32,0.24,0.75,0.27,1.11,0.1c0.22-0.1,0.44-0.2,0.67-0.28c0.37-0.13,0.64-0.46,0.7-0.85
			l0.25-1.69c0.08-0.52,0.53-0.91,1.06-0.91h1.12c0.53,0,0.98,0.39,1.06,0.91l0.25,1.69c0.06,0.39,0.33,0.71,0.7,0.85
			c0.23,0.08,0.45,0.18,0.67,0.28c0.36,0.17,0.79,0.14,1.11-0.1l1.34-1c0.43-0.32,1.03-0.27,1.4,0.11l0.8,0.81
			c0.37,0.37,0.41,0.96,0.1,1.38l-1.01,1.38c-0.23,0.32-0.27,0.73-0.1,1.09c0.11,0.23,0.2,0.46,0.29,0.7
			c0.13,0.37,0.45,0.64,0.85,0.7l1.65,0.25c0.52,0.08,0.91,0.53,0.91,1.06v1.16c0,0.53-0.39,0.98-0.91,1.06l-1.66,0.25
			C39.77,33.88,39.45,34.15,39.32,34.52z"/>
		<path class="st13" d="M36.53,33.51c-0.05,0.15-0.11,0.29-0.18,0.43c-0.1,0.22-0.08,0.47,0.06,0.66l0.62,0.84
			c0.19,0.26,0.16,0.62-0.06,0.84l-0.49,0.49c-0.23,0.23-0.59,0.26-0.86,0.06l-0.82-0.61c-0.2-0.15-0.46-0.17-0.68-0.06
			c-0.13,0.06-0.27,0.12-0.41,0.17c-0.23,0.08-0.39,0.28-0.43,0.52l-0.15,1.03c-0.05,0.32-0.32,0.56-0.65,0.56h-0.68
			c-0.32,0-0.6-0.24-0.65-0.56l-0.15-1.03c-0.04-0.24-0.2-0.43-0.43-0.52c-0.14-0.05-0.28-0.11-0.41-0.17
			c-0.22-0.11-0.48-0.08-0.68,0.06l-0.82,0.61c-0.26,0.19-0.63,0.17-0.86-0.06l-0.49-0.49c-0.23-0.23-0.25-0.59-0.06-0.84l0.62-0.84
			c0.14-0.19,0.16-0.45,0.06-0.66c-0.07-0.14-0.13-0.28-0.18-0.43c-0.08-0.23-0.28-0.39-0.52-0.43l-1.01-0.16
			c-0.32-0.05-0.55-0.32-0.55-0.65v-0.71c0-0.32,0.24-0.6,0.56-0.65l1.01-0.15c0.24-0.04,0.44-0.2,0.52-0.43
			c0.05-0.15,0.11-0.29,0.18-0.43c0.1-0.22,0.08-0.47-0.06-0.67l-0.62-0.84c-0.19-0.26-0.16-0.62,0.06-0.84l0.49-0.49
			c0.23-0.23,0.59-0.26,0.86-0.06l0.82,0.61c0.2,0.15,0.46,0.17,0.68,0.06c0.13-0.06,0.27-0.12,0.41-0.17
			c0.23-0.08,0.39-0.28,0.43-0.52l0.15-1.03c0.05-0.32,0.32-0.56,0.65-0.56h0.68c0.32,0,0.6,0.24,0.65,0.56l0.15,1.03
			c0.04,0.24,0.2,0.43,0.43,0.52c0.14,0.05,0.28,0.11,0.41,0.17c0.22,0.11,0.48,0.08,0.68-0.06L35.63,27
			c0.26-0.19,0.63-0.17,0.86,0.06l0.49,0.49c0.23,0.23,0.25,0.59,0.06,0.84l-0.62,0.84c-0.14,0.19-0.16,0.45-0.06,0.67
			c0.07,0.14,0.12,0.28,0.18,0.43c0.08,0.23,0.28,0.39,0.52,0.43l1.01,0.15c0.32,0.05,0.56,0.32,0.56,0.65v0.71
			c0,0.32-0.24,0.6-0.55,0.65l-1.01,0.16C36.81,33.12,36.61,33.28,36.53,33.51z"/>
		<path class="st2" d="M39.32,34.52c-0.09,0.24-0.18,0.48-0.29,0.7c-0.17,0.35-0.13,0.77,0.1,1.09l1.01,1.38
			c0.31,0.42,0.27,1.01-0.1,1.38l-0.8,0.81c-0.38,0.38-0.97,0.42-1.4,0.11l-1.34-1c-0.32-0.24-0.75-0.27-1.11-0.1
			c-0.22,0.11-0.45,0.2-0.68,0.28c-0.37,0.13-0.64,0.46-0.7,0.84l-0.25,1.69c-0.08,0.52-0.53,0.91-1.06,0.91h-1.12
			c-0.53,0-0.98-0.39-1.06-0.91l-0.25-1.69c-0.06-0.39-0.33-0.71-0.7-0.84c-0.23-0.08-0.46-0.18-0.68-0.28
			c-0.36-0.17-0.79-0.14-1.11,0.1l-1.34,1c-0.43,0.32-1.03,0.27-1.4-0.11l-0.8-0.81c-0.37-0.37-0.41-0.96-0.1-1.38l1.01-1.38
			c0.23-0.32,0.27-0.73,0.1-1.09c-0.11-0.23-0.2-0.46-0.29-0.7c-0.13-0.37-0.45-0.64-0.84-0.7l-1.66-0.25
			c-0.52-0.08-0.91-0.53-0.91-1.06v-1.16c0-0.53,0.39-0.98,0.91-1.06l1.65-0.25c0.39-0.06,0.71-0.33,0.85-0.7
			c0.09-0.24,0.18-0.47,0.29-0.7c0.17-0.35,0.13-0.77-0.1-1.09l-1.01-1.38c-0.31-0.42-0.27-1.01,0.1-1.38l0.8-0.81
			c0.38-0.38,0.97-0.42,1.4-0.11l1.34,1c0.32,0.24,0.75,0.27,1.11,0.1c0.22-0.1,0.44-0.2,0.67-0.28c0.37-0.13,0.64-0.46,0.7-0.85
			l0.25-1.69c0.08-0.52,0.53-0.91,1.06-0.91h1.12c0.53,0,0.98,0.39,1.06,0.91l0.25,1.69c0.06,0.39,0.33,0.71,0.7,0.85
			c0.23,0.08,0.45,0.18,0.67,0.28c0.36,0.17,0.79,0.14,1.11-0.1l1.34-1c0.43-0.32,1.03-0.27,1.4,0.11l0.8,0.81
			c0.37,0.37,0.41,0.96,0.1,1.38l-1.01,1.38c-0.23,0.32-0.27,0.73-0.1,1.09c0.11,0.23,0.2,0.46,0.29,0.7
			c0.13,0.37,0.45,0.64,0.85,0.7l1.65,0.25c0.52,0.08,0.91,0.53,0.91,1.06v1.16c0,0.53-0.39,0.98-0.91,1.06l-1.66,0.25
			C39.77,33.88,39.45,34.15,39.32,34.52z"/>
		<ellipse class="st8" cx="32.15" cy="31.93" rx="3.42" ry="3.42"/>
		<path class="st5" d="M51.52,14.28l-4.54,4.35c-0.95,0.91-2.22,1.43-3.53,1.43h-3.31c-1.15,0-2.25-0.38-3.15-1.08
			c-0.9-0.7-2-1.09-3.15-1.09h-4.57c-0.6,0-1.15-0.25-1.54-0.64c-0.16-0.14-0.28-0.32-0.38-0.51c-1.1,0.5-3.55,1.66-4.33,2.39
			c-0.49,0.47-1.43,2.28-1.43,2.28c-0.75,1.2-2.05,1.87-3.39,1.87c-0.58,0-1.18-0.13-1.74-0.4c-0.8-0.38-1.11-1.36-0.68-2.15
			c2.69-4.86,6.03-8.79,10.06-11.79c0.95-0.7,2.11-1.06,3.29-1.06h10.46c0.7,0,1.4-0.13,2.04-0.38l1.88-1.21L51.52,14.28z"/>
		<path class="st6" d="M51.52,14.28l-2.82,2.71c-4.95-4.33-11.49-6.39-18.07-5.66l-3.12,0.35c-1.18,0-2.34,0.36-3.29,1.06
			c-3.3,2.45-6.14,5.54-8.54,9.24c-0.13-0.39-0.11-0.85,0.1-1.25c2.69-4.86,6.03-8.79,10.06-11.79c0.95-0.7,2.11-1.06,3.29-1.06
			h10.46c0.7,0,1.4-0.13,2.04-0.38l1.88-1.21L51.52,14.28z"/>
		<path class="st2" d="M43.56,6.24c-0.02,0.02-0.03,0.03-0.05,0.04"/>
		<path class="st2" d="M27.35,16.74c-1.1,0.5-3.55,1.66-4.33,2.39c-0.49,0.47-1.43,2.28-1.43,2.28c-0.75,1.2-2.05,1.87-3.39,1.87
			c-0.58,0-1.18-0.13-1.74-0.4c-0.8-0.38-1.11-1.36-0.68-2.15c2.69-4.86,6.03-8.79,10.06-11.79c0.95-0.7,2.11-1.06,3.29-1.06h10.37"
			/>
		<path class="st2" d="M48.53,17.14l-1.55,1.49c-0.95,0.91-2.22,1.43-3.53,1.43h-3.31c-1.15,0-2.25-0.38-3.15-1.08
			c-0.9-0.7-2-1.09-3.15-1.09h-4.57c-0.6,0-1.15-0.25-1.54-0.64c-0.16-0.14-0.28-0.32-0.38-0.51c-0.17-0.31-0.26-0.66-0.26-1.03
			c0-1.2,0.97-2.17,2.18-2.17h8.74"/>
		<path class="st0" d="M43.31,3.78L46.09,1l10.72,10.71l-2.78,2.78c-0.64,0.64-1.67,0.64-2.31,0l-8.41-8.4
			C42.67,5.44,42.67,4.41,43.31,3.78z"/>
		<path class="st2" d="M43.31,3.78L46.09,1l10.72,10.71l-2.78,2.78c-0.64,0.64-1.67,0.64-2.31,0l-8.41-8.4
			C42.67,5.44,42.67,4.41,43.31,3.78z"/>
		<path class="st2" d="M36.65,47.26c1.1-0.5,3.55-1.66,4.33-2.39c0.49-0.47,1.43-2.28,1.43-2.28c0.75-1.2,2.05-1.87,3.39-1.87
			c0.58,0,1.18,0.13,1.74,0.4c0.8,0.38,1.11,1.36,0.68,2.15c-2.69,4.86-6.03,8.79-10.06,11.79c-0.95,0.7-2.11,1.06-3.29,1.06H24.49"
			/>
		<path class="st2" d="M15.47,46.86l1.55-1.49c0.95-0.91,2.22-1.43,3.53-1.43h3.31c1.15,0,2.25,0.38,3.15,1.09s2,1.08,3.15,1.08
			h4.57c0.6,0,1.15,0.25,1.54,0.64c0.16,0.14,0.28,0.32,0.38,0.51c0.17,0.31,0.26,0.66,0.26,1.03c0,1.2-0.97,2.17-2.18,2.17h-8.74"
			/>
		<path class="st7" d="M20.69,60.22L17.91,63L7.19,52.29l2.78-2.78c0.64-0.64,1.67-0.64,2.31,0l8.41,8.4
			C21.33,58.56,21.33,59.59,20.69,60.22z"/>
		<path class="st2" d="M20.69,60.22L17.91,63L7.19,52.29l2.78-2.78c0.64-0.64,1.67-0.64,2.31,0l8.41,8.4
			C21.33,58.56,21.33,59.59,20.69,60.22z"/>
	</g>
</g>
</svg>
