<?xml version="1.0" encoding="utf-8"?>
<!-- Generator: Adobe Illustrator 18.0.0, SVG Export Plug-In . SVG Version: 6.00 Build 0)  -->
<!DOCTYPE svg PUBLIC "-//W3C//DTD SVG 1.1//EN" "http://www.w3.org/Graphics/SVG/1.1/DTD/svg11.dtd">
<svg version="1.1" id="Layer_1" xmlns="http://www.w3.org/2000/svg" xmlns:xlink="http://www.w3.org/1999/xlink" x="0px" y="0px"
	 viewBox="0 0 64 64" enable-background="new 0 0 64 64" xml:space="preserve">
<g>
	<path fill="#C9D8EF" d="M52.4,26.7c0,1.3-0.1,2.6-0.3,3.8C51.4,35,49.7,39,47,42.4c-4.7,6.1-12.1,10-20.3,10
		C12.5,52.4,1,40.9,1,26.7c0-1.9,0.2-3.7,0.6-5.4C3.5,12.5,9.8,5.5,18,2.5c2.7-1,5.6-1.5,8.7-1.5c5.9,0,11.4,2,15.7,5.4
		c2.6,2,4.9,4.6,6.6,7.5l0,0C51.2,17.7,52.4,22,52.4,26.7z"/>
	<path fill="#B2CBEA" d="M52.4,26.7c0,1.3-0.1,2.6-0.3,3.8C51.5,35,49.7,39,47,42.4c-4.7,6.1-12.1,10-20.3,10
		c-8.9,0-16.8-4.6-21.4-11.5c4.1,2.7,9,4.3,14.3,4.3c8.3,0,15.7-3.9,20.3-10c2.6-3.4,4.4-7.4,5.1-11.8c0.2-1.3,0.3-2.5,0.3-3.8
		c0-4.7-1.2-9-3.4-12.8l0,0c-0.3-0.5-0.6-1-0.9-1.5c0.5,0.3,1,0.7,1.5,1.1c2.7,2,4.9,4.6,6.6,7.5l0,0C51.2,17.7,52.4,22,52.4,26.7z"
		/>
	<path fill="#42BAEB" d="M29.4,16c-0.7,1.2-3.1,0.2-3.7,1.4c-0.3,0.7,0.2,1.5,0.8,1.9c0.6,0.5,1.3,0.9,1.5,1.6
		c0.3,1.1-0.9,2.1-2.1,2.1c-1.1,0-2.2-0.6-3.2-1.1c-1.3-0.6-2.7-1-4.2-1c-1.4,0.1-2.9,0.7-3.7,1.9c-1.1,1.6-1,3.7-1.1,5.7
		c-0.2,2-1.1,4.2-3,4.5c-1.6,0.2-3-1.1-3.6-2.6s-0.6-3.1-0.8-4.7c-0.2-1.3-0.7-2.8-1.8-3.7c-0.9-0.7-1.9-0.6-2.9-0.9
		C3.5,12.5,9.8,5.5,18,2.5c0.2,0.4,0.4,0.7,0.7,1c0.4,0.4,1,0.7,1.4,1.1c1.2,1.3,0.9,3.3,0.5,5c1.2-0.9,2.5-1.8,3.9-1.9
		c1.5-0.1,3.2,0.8,3.3,2.3c0.1,0.8-0.4,1.7-0.2,2.4c0.2,0.7,0.8,1.1,1.2,1.6C29.3,14.7,29.7,15.4,29.4,16z"/>
	<path fill="#42BAEB" d="M52.1,30.5C51.4,35,49.7,39,47,42.4c-0.5-0.7-1-1.2-1.8-1.5c-1.1-0.5-2.4-0.1-3.7,0.1
		c-1.2,0.2-2.7,0-3.3-1.1c-0.5-0.9-0.1-2,0.4-2.9s1.2-1.7,1.4-2.6c0.2-1.2-0.4-2.4-0.9-3.5c1.1-0.1,2.3-0.3,3.1-1s1.1-2.2,0.2-2.9
		c-0.6-0.5-1.5-0.4-2.2-0.7C39.1,25.7,39,23.9,40,23c0.9-0.9,2.5-0.9,3.6-0.4c1.2,0.6,2,1.6,2.8,2.6c0.7,1.1,1.4,2.2,2.3,3.1
		C49.8,29.2,51,29.8,52.1,30.5z"/>
	<path fill="#42BAEB" d="M49,13.9L49,13.9c-0.3,0.3-0.5,0.7-0.8,1c-0.8,1-2,2.1-3.3,1.7c-1-0.4-1.5-1.7-2.6-2c-1-0.3-2.1,0.4-3-0.2
		c-0.6-0.4-0.7-1.2-0.8-1.9c-0.1-0.9-0.2-1.9,0-2.8c0.3-1.9,1.5-2.5,3.2-3c0.2-0.1,0.5-0.2,0.6-0.3C45.1,8.4,47.3,11,49,13.9z"/>
	
		<path fill="none" stroke="#2B3C65" stroke-width="1.9375" stroke-linecap="round" stroke-linejoin="round" stroke-miterlimit="10" d="
		M18.9,51.2C8.5,47.9,1,38.2,1,26.7c0-1.9,0.2-3.7,0.6-5.4C3.5,12.5,9.8,5.5,18,2.5c2.7-1,5.6-1.5,8.7-1.5c5.9,0,11.4,2,15.7,5.4
		c2.7,2,4.9,4.6,6.6,7.5l0,0c2.2,3.8,3.4,8.1,3.4,12.8c0,0.7,0,1.3-0.1,2"/>
	
		<path fill="none" stroke="#2B3C65" stroke-width="1.9375" stroke-linecap="round" stroke-linejoin="round" stroke-miterlimit="10" d="
		M20.1,4.7c0.2,0.2,0.4,0.5,0.5,0.8C20.4,5.2,20.2,4.9,20.1,4.7C20.1,4.6,20.1,4.7,20.1,4.7z"/>
	
		<path fill="none" stroke="#2B3C65" stroke-width="1.9375" stroke-linecap="round" stroke-linejoin="round" stroke-miterlimit="10" d="
		M20.1,4.6L20,4.5C20,4.5,20,4.5,20.1,4.6C20,4.5,20,4.6,20.1,4.6z"/>
	<path fill="#42BAEB" d="M20,34.4c0.4,0.9,1.2,1.5,1.6,2.4c0.5,1.1,0.3,2.4,0.2,3.6s0,2.6,1,3.4c0.7,0.6,1.7,0.7,2.7,0.8
		c0.9,0.1,1.9,0,2.5-0.7c0.8-1-0.1-2.5,0-3.7c0.1-1.3,1.2-2.3,1.6-3.6c0.6-1.9-0.5-3.8-1.5-5.5c-0.5-0.9-1.1-1.8-1.9-2.5
		s-1.8-1.1-2.9-0.9c0.3,0-0.1,1.9-0.1,2c-0.3,0.7-0.8,1.3-1.4,1.8C20.7,32.1,19.2,32.6,20,34.4z"/>
	
		<path fill="none" stroke="#2B3C65" stroke-width="1.9375" stroke-linecap="round" stroke-linejoin="round" stroke-miterlimit="10" d="
		M20.8,5.7c0.4,1.2,0.2,2.7-0.1,4c1.2-0.9,2.5-1.8,3.9-1.9c1.5-0.1,3.2,0.8,3.3,2.3c0.1,0.8-0.4,1.6-0.2,2.4
		c0.2,0.7,0.8,1.1,1.2,1.6c0.5,0.5,0.8,1.2,0.5,1.8c-0.7,1.2-3.1,0.2-3.7,1.5c-0.3,0.7,0.2,1.5,0.9,1.9c0.6,0.4,1.3,0.9,1.6,1.6
		c0.3,1.1-0.9,2.1-2.1,2.1s-2.2-0.6-3.2-1.1c-1.3-0.6-2.7-1-4.2-1c-1.4,0.1-2.9,0.7-3.7,1.9c-1.1,1.6-0.9,3.7-1.1,5.7
		c-0.2,2-1.1,4.2-3,4.5c-1.6,0.2-3-1.1-3.6-2.6s-0.6-3.1-0.8-4.7c-0.2-1-0.5-2.1-1.1-2.9"/>
	
		<path fill="none" stroke="#2B3C65" stroke-width="1.9375" stroke-linecap="round" stroke-linejoin="round" stroke-miterlimit="10" d="
		M23.3,27.6c0.1,0,0.1,0.7,0,1.3"/>
	
		<path fill="none" stroke="#2B3C65" stroke-width="1.9375" stroke-linecap="round" stroke-linejoin="round" stroke-miterlimit="10" d="
		M23.3,27.6L23.3,27.6c1-0.2,2,0.2,2.7,0.8"/>
	
		<path fill="none" stroke="#2B3C65" stroke-width="1.9375" stroke-linecap="round" stroke-linejoin="round" stroke-miterlimit="10" d="
		M43.1,28.4c0.1-0.6-0.1-1.1-0.5-1.5c-0.6-0.5-1.5-0.4-2.2-0.7c-1.1-0.6-1.2-2.4-0.2-3.3c0.9-0.9,2.5-0.9,3.6-0.3
		c1.2,0.6,2,1.6,2.8,2.6c0.6,0.9,1.2,1.9,2,2.7"/>
	
		<path fill="none" stroke="#2B3C65" stroke-width="1.9375" stroke-linecap="round" stroke-linejoin="round" stroke-miterlimit="10" d="
		M38.9,8.6c-0.1,0.3-0.3,0.6-0.3,1c-0.2,0.9-0.1,1.9,0,2.8c0.1,0.7,0.2,1.5,0.8,1.9c0.8,0.5,2-0.1,3,0.2s1.5,1.6,2.5,2
		c0.4,0.1,0.7,0.1,1.1,0"/>
	<path fill="#62C3A6" d="M63,47.4v10.8c0,1-0.8,1.9-1.9,1.9H24.7c-1,0-1.9-0.8-1.9-1.9v-4.1h30.3V40.7h3.2c0.7,0,1.5,0.3,2,0.8
		c1.4,1.4,2.5,2.5,3.9,3.9C62.7,46,63,46.7,63,47.4z"/>
	
		<path fill="none" stroke="#2B3C65" stroke-width="1.9375" stroke-linecap="round" stroke-linejoin="round" stroke-miterlimit="10" d="
		M63,47.4v10.8c0,1-0.8,1.9-1.9,1.9H24.7c-1,0-1.9-0.8-1.9-1.9v-4.1h30.3V40.7h3.2c0.7,0,1.5,0.3,2,0.8c1.4,1.4,2.5,2.5,3.9,3.9
		C62.7,46,63,46.7,63,47.4z"/>
	<path fill="#FFD880" d="M53.1,35.1v19H22.8v-19c0-1.5,1.2-2.8,2.8-2.8h24.7C51.9,32.3,53.1,33.5,53.1,35.1z"/>
	<path fill="#FECB4D" d="M53.1,35.1v19H22.8v-2.5h8.8c10.5,0,19-8.5,19-19.1c0-0.1,0-0.2,0-0.3C52,32.4,53.1,33.6,53.1,35.1z"/>
	
		<path fill="none" stroke="#2B3C65" stroke-width="1.9375" stroke-linecap="round" stroke-linejoin="round" stroke-miterlimit="10" d="
		M53.1,35.1v19H22.8v-19c0-1.5,1.2-2.8,2.8-2.8h24.7C51.9,32.3,53.1,33.5,53.1,35.1z"/>
	
		<circle fill="#C9D8EF" stroke="#2B3C65" stroke-width="1.9375" stroke-linecap="round" stroke-linejoin="round" stroke-miterlimit="10" cx="31.5" cy="59.6" r="3.4"/>
	
		<circle fill="#C9D8EF" stroke="#2B3C65" stroke-width="1.9375" stroke-linecap="round" stroke-linejoin="round" stroke-miterlimit="10" cx="56" cy="59.6" r="3.4"/>
</g>
</svg>
