<?xml version="1.0" encoding="utf-8"?>
<!-- Generator: Adobe Illustrator 24.1.1, SVG Export Plug-In . SVG Version: 6.00 Build 0)  -->
<svg version="1.1" id="Layer_1" xmlns="http://www.w3.org/2000/svg" xmlns:xlink="http://www.w3.org/1999/xlink" x="0px" y="0px"
	 viewBox="0 0 64 64" style="enable-background:new 0 0 64 64;" xml:space="preserve">
<style type="text/css">
	.st0{fill:#38FCC4;}
	.st1{fill:#1DE9B6;}
	.st2{fill:none;stroke:#2A3C65;stroke-width:2.0667;stroke-linecap:round;stroke-linejoin:round;stroke-miterlimit:10;}
	.st3{fill:#E3ECFF;}
	.st4{fill:#C7D9F9;}
	.st5{fill:#FFD880;}
	.st6{fill:#FECB4D;}
	.st7{fill:#FF7DAF;}
	.st8{fill:#FFFFFF;stroke:#2A3C65;stroke-width:2.0667;stroke-linecap:round;stroke-linejoin:round;stroke-miterlimit:10;}
	.st9{fill:none;stroke:#2A3C65;stroke-width:2.1673;stroke-linecap:round;stroke-linejoin:round;stroke-miterlimit:10;}
	.st10{fill:#FFFFFF;}
	.st11{fill:#12D69E;}
	.st12{fill:none;stroke:#2A3C65;stroke-width:2.0666;stroke-linecap:round;stroke-linejoin:round;stroke-miterlimit:10;}
	.st13{fill:#B0CDF7;}
	.st14{fill:#CC87FE;}
	.st15{fill:#FFFFFF;stroke:#2A3C65;stroke-width:2.0666;stroke-linecap:round;stroke-linejoin:round;stroke-miterlimit:10;}
	.st16{fill:none;stroke:#2A3C65;stroke-width:2;stroke-linecap:round;stroke-linejoin:round;stroke-miterlimit:10;}
	.st17{opacity:0.5;fill:#E3ECFF;}
	.st18{fill:#FFFFFF;stroke:#2A3C65;stroke-width:2;stroke-linecap:round;stroke-linejoin:round;stroke-miterlimit:10;}
	.st19{fill:none;stroke:#2A3C65;stroke-width:2.0329;stroke-linecap:round;stroke-linejoin:round;stroke-miterlimit:10;}
	.st20{fill:#D5A6FF;}
	.st21{fill:#E3ECFF;stroke:#2A3C65;stroke-width:2.0329;stroke-linecap:round;stroke-linejoin:round;stroke-miterlimit:10;}
	.st22{fill:#27D1FF;stroke:#2A3C65;stroke-width:2.0329;stroke-linecap:round;stroke-linejoin:round;stroke-miterlimit:10;}
	.st23{fill:#FF5892;}
	.st24{fill:#FFFFFF;stroke:#2A3C65;stroke-width:2.0329;stroke-linecap:round;stroke-linejoin:round;stroke-miterlimit:10;}
	.st25{fill:none;stroke:#2A3C65;stroke-width:2.0295;stroke-linecap:round;stroke-linejoin:round;stroke-miterlimit:10;}
	.st26{fill:#27D1FF;}
	.st27{fill:#FFFFFF;stroke:#2A3C65;stroke-width:2.0295;stroke-linecap:round;stroke-linejoin:round;stroke-miterlimit:10;}
	.st28{fill:none;stroke:#2A3C65;stroke-width:1.9375;stroke-linecap:round;stroke-linejoin:round;stroke-miterlimit:10;}
	.st29{fill:#FFFFFF;stroke:#2A3C65;stroke-width:1.9375;stroke-linecap:round;stroke-linejoin:round;stroke-miterlimit:10;}
	.st30{fill:#2A3C65;}
	.st31{fill:none;stroke:#2A3C65;stroke-width:2.0609;stroke-linecap:round;stroke-linejoin:round;stroke-miterlimit:10;}
	.st32{fill:#FFFFFF;stroke:#2A3C65;stroke-width:2.0609;stroke-linecap:round;stroke-linejoin:round;stroke-miterlimit:10;}
	.st33{fill:#02BEFF;}
	.st34{fill:none;stroke:#2A3C65;stroke-width:1.9154;stroke-linecap:round;stroke-linejoin:round;stroke-miterlimit:10;}
	.st35{fill:#FF7DAF;stroke:#2A3C65;stroke-width:1.9154;stroke-linecap:round;stroke-linejoin:round;stroke-miterlimit:10;}
	.st36{fill:#FFD880;stroke:#2A3C65;stroke-width:2.1563;stroke-linecap:round;stroke-linejoin:round;stroke-miterlimit:10;}
	.st37{fill:none;stroke:#2A3C65;stroke-width:2.1563;stroke-linecap:round;stroke-linejoin:round;stroke-miterlimit:10;}
	.st38{fill:none;stroke:#2A3C65;stroke-width:2.1269;stroke-linecap:round;stroke-linejoin:round;stroke-miterlimit:10;}
	.st39{fill:#FFFFFF;stroke:#2A3C65;stroke-width:2.1269;stroke-linecap:round;stroke-linejoin:round;stroke-miterlimit:10;}
	.st40{fill:#FFD880;stroke:#2A3C65;stroke-width:2;stroke-linecap:round;stroke-linejoin:round;stroke-miterlimit:10;}
	.st41{fill:#E3ECFF;stroke:#2A3C65;stroke-width:2;stroke-linecap:round;stroke-linejoin:round;stroke-miterlimit:10;}
	.st42{fill:#E3ECFF;stroke:#2A3C65;stroke-width:2.009;stroke-linecap:round;stroke-linejoin:round;stroke-miterlimit:10;}
	.st43{fill:none;stroke:#2A3C65;stroke-width:2.009;stroke-linecap:round;stroke-linejoin:round;stroke-miterlimit:10;}
	.st44{fill:#FF5892;stroke:#2A3C65;stroke-width:2.009;stroke-linecap:round;stroke-linejoin:round;stroke-miterlimit:10;}
	.st45{fill:#27D1FF;stroke:#2A3C65;stroke-width:2;stroke-linecap:round;stroke-linejoin:round;stroke-miterlimit:10;}
	.st46{fill:#FF7DAF;stroke:#2A3C65;stroke-width:2.0666;stroke-linecap:round;stroke-linejoin:round;stroke-miterlimit:10;}
	.st47{fill:none;stroke:#2A3C65;stroke-width:1.9315;stroke-linecap:round;stroke-linejoin:round;stroke-miterlimit:10;}
	.st48{fill:#F9B826;}
	.st49{fill:#2A3C65;stroke:#2A3C65;stroke-width:2;stroke-linecap:round;stroke-linejoin:round;stroke-miterlimit:10;}
	.st50{fill:none;}
	.st51{fill:none;stroke:#2A3C65;stroke-width:1.9999;stroke-linecap:round;stroke-linejoin:round;stroke-miterlimit:10;}
	.st52{fill:#00ADDB;}
	.st53{fill:none;stroke:#2A3C65;stroke-width:2.0001;stroke-linecap:round;stroke-linejoin:round;stroke-miterlimit:10;}
	.st54{fill:#FF7DAF;stroke:#2A3C65;stroke-width:2.0001;stroke-linecap:round;stroke-linejoin:round;stroke-miterlimit:10;}
	.st55{fill:none;stroke:#2A3C65;stroke-width:2.0334;stroke-linecap:round;stroke-linejoin:round;stroke-miterlimit:10;}
	.st56{fill:#E3ECFF;stroke:#2A3C65;stroke-width:2.0334;stroke-linecap:round;stroke-linejoin:round;stroke-miterlimit:10;}
	.st57{fill:#02BEFF;stroke:#2A3C65;stroke-width:2;stroke-linecap:round;stroke-linejoin:round;stroke-miterlimit:10;}
	.st58{fill:#FECB4D;stroke:#2A3C65;stroke-width:2;stroke-linecap:round;stroke-linejoin:round;stroke-miterlimit:10;}
	.st59{fill:none;stroke:#2A3C65;stroke-width:1.9481;stroke-linecap:round;stroke-linejoin:round;stroke-miterlimit:10;}
	.st60{fill:#38FCC4;stroke:#2A3C65;stroke-width:1.9481;stroke-linecap:round;stroke-linejoin:round;stroke-miterlimit:10;}
	.st61{fill:none;stroke:#2A3C65;stroke-width:1.993;stroke-linecap:round;stroke-linejoin:round;stroke-miterlimit:10;}
	.st62{fill:#27D1FF;stroke:#2A3C65;stroke-width:1.9999;stroke-linecap:round;stroke-linejoin:round;stroke-miterlimit:10;}
	.st63{fill:#E3ECFF;stroke:#2A3C65;stroke-width:1.9999;stroke-linecap:round;stroke-linejoin:round;stroke-miterlimit:10;}
	.st64{fill:#FF7DAF;stroke:#2A3C65;stroke-width:1.9999;stroke-linecap:round;stroke-linejoin:round;stroke-miterlimit:10;}
	.st65{fill:none;stroke:#2A3C65;stroke-width:2.0003;stroke-linecap:round;stroke-linejoin:round;stroke-miterlimit:10;}
	.st66{fill:#FF7DAF;stroke:#2A3C65;stroke-width:2.0003;stroke-linecap:round;stroke-linejoin:round;stroke-miterlimit:10;}
	.st67{fill:#B45FFF;}
	.st68{fill:none;stroke:#2A3C65;stroke-width:1.8975;stroke-linecap:round;stroke-linejoin:round;stroke-miterlimit:10;}
	
		.st69{fill:none;stroke:#2A3C65;stroke-width:1.8975;stroke-linecap:round;stroke-linejoin:round;stroke-miterlimit:10;stroke-dasharray:2.8463;}
	.st70{fill:#27D1FF;stroke:#2A3C65;stroke-width:1.8975;stroke-linecap:round;stroke-linejoin:round;stroke-miterlimit:10;}
</style>
<g>
	<g>
		<path class="st3" d="M54.65,5.13v5.46H9.35V5.13C9.35,2.85,11.2,1,13.49,1h37.02C52.8,1,54.65,2.85,54.65,5.13z"/>
		<path class="st3" d="M9.35,53.41h45.29v5.46c0,2.28-1.85,4.13-4.13,4.13H13.49c-2.28,0-4.13-1.85-4.13-4.13V53.41z"/>
		<path class="st4" d="M54.65,5.13v5.46H9.35V5.13C9.35,2.85,11.2,1,13.48,1h37.03C52.79,1,54.65,2.85,54.65,5.13z"/>
		<path class="st4" d="M54.65,54.07v4.79c0,2.28-1.86,4.13-4.13,4.13H13.48c-2.28,0-4.13-1.85-4.13-4.13v-4.79
			c0,2.28,1.85,4.13,4.13,4.13h37.03C52.79,58.21,54.65,56.36,54.65,54.07z"/>
		<path class="st4" d="M54.65,5.13v0.66H9.35V5.13C9.35,2.85,11.2,1,13.48,1h37.03C52.79,1,54.65,2.85,54.65,5.13z"/>
		<path class="st2" d="M9.35,10.59V5.13C9.35,2.85,11.2,1,13.49,1h37.02c2.28,0,4.13,1.85,4.13,4.13v5.46"/>
		<path class="st2" d="M54.65,53.41v5.46c0,2.28-1.85,4.13-4.13,4.13H13.49c-2.28,0-4.13-1.85-4.13-4.13v-5.46"/>
		<rect x="9.35" y="10.59" class="st33" width="45.3" height="42.82"/>
		<g>
			<polygon class="st26" points="50.01,10.59 22.48,53.41 9.35,53.41 9.35,40.48 28.57,10.59 			"/>
			<polygon class="st26" points="54.65,10.59 54.65,23.52 35.43,53.41 26.7,53.41 54.23,10.59 			"/>
		</g>
		<line class="st2" x1="9.35" y1="53.41" x2="9.35" y2="10.59"/>
		<line class="st2" x1="54.65" y1="53.41" x2="54.65" y2="10.59"/>
		<line class="st2" x1="50.52" y1="53.41" x2="13.48" y2="53.41"/>
		<line class="st2" x1="50.52" y1="10.59" x2="13.48" y2="10.59"/>
		<line class="st2" x1="26.25" y1="5.79" x2="37.75" y2="5.79"/>
		<line class="st2" x1="43.92" y1="5.79" x2="45.58" y2="5.79"/>
		<line class="st2" x1="29.31" y1="58.21" x2="34.69" y2="58.21"/>
		<path class="st5" d="M42.54,35.81c-0.13,0.35-0.27,0.7-0.43,1.04c-0.25,0.52-0.19,1.13,0.15,1.6l1.48,2.03
			c0.45,0.62,0.39,1.48-0.15,2.03l-1.17,1.19c-0.55,0.56-1.43,0.62-2.06,0.16l-1.97-1.47c-0.47-0.35-1.1-0.4-1.63-0.15
			c-0.32,0.15-0.65,0.29-0.99,0.42c-0.54,0.2-0.94,0.67-1.02,1.24l-0.37,2.48c-0.12,0.77-0.78,1.34-1.56,1.34h-1.64
			c-0.78,0-1.44-0.57-1.56-1.34l-0.37-2.48c-0.09-0.57-0.48-1.05-1.02-1.24c-0.34-0.12-0.67-0.26-0.99-0.42
			c-0.53-0.25-1.16-0.2-1.63,0.15l-1.97,1.47c-0.63,0.47-1.51,0.4-2.06-0.16l-1.17-1.19c-0.54-0.55-0.61-1.41-0.15-2.03l1.48-2.03
			c0.34-0.47,0.39-1.08,0.15-1.6c-0.16-0.34-0.3-0.68-0.43-1.04c-0.19-0.55-0.67-0.95-1.24-1.03l-2.43-0.37
			c-0.77-0.12-1.33-0.78-1.33-1.55v-1.7c0-0.78,0.57-1.44,1.34-1.55l2.43-0.37c0.57-0.09,1.05-0.49,1.24-1.04
			c0.12-0.35,0.27-0.7,0.43-1.03c0.25-0.52,0.19-1.13-0.15-1.6l-1.48-2.03c-0.45-0.62-0.39-1.48,0.15-2.03l1.18-1.19
			c0.55-0.56,1.43-0.62,2.06-0.16l1.97,1.47c0.47,0.35,1.1,0.4,1.63,0.15c0.32-0.15,0.65-0.29,0.99-0.42
			c0.54-0.2,0.94-0.67,1.03-1.24l0.37-2.49c0.12-0.77,0.78-1.34,1.56-1.34h1.64c0.78,0,1.44,0.57,1.56,1.34l0.37,2.49
			c0.09,0.57,0.48,1.05,1.03,1.24c0.34,0.12,0.67,0.26,0.99,0.42c0.53,0.25,1.16,0.2,1.63-0.15l1.97-1.47
			c0.63-0.47,1.51-0.4,2.06,0.16l1.18,1.19c0.54,0.55,0.61,1.41,0.15,2.03l-1.48,2.03c-0.34,0.47-0.39,1.08-0.15,1.6
			c0.16,0.34,0.3,0.68,0.43,1.03c0.19,0.55,0.67,0.95,1.24,1.04l2.43,0.37c0.77,0.12,1.34,0.78,1.34,1.55v1.7
			c0,0.78-0.57,1.44-1.33,1.55l-2.43,0.37C43.21,34.87,42.73,35.27,42.54,35.81z"/>
		<path class="st6" d="M32,42.32c-0.5-1.18-1.47-2.12-2.72-2.57c-0.24-0.09-0.48-0.19-0.71-0.3c-0.63-0.3-1.34-0.46-2.03-0.46
			c-0.61,0-1.21,0.12-1.76,0.34c0.5-1.2,0.48-2.59-0.09-3.8c-0.11-0.24-0.22-0.49-0.31-0.75c-0.46-1.28-1.43-2.28-2.65-2.78
			c1.23-0.49,2.2-1.5,2.65-2.78c0.09-0.25,0.19-0.5,0.31-0.75c0.57-1.21,0.59-2.6,0.09-3.8c0.55,0.23,1.15,0.34,1.76,0.34
			c0.7,0,1.4-0.16,2.04-0.46c0.23-0.11,0.46-0.21,0.7-0.3c1.24-0.45,2.22-1.39,2.72-2.57c0.5,1.18,1.47,2.12,2.72,2.57
			c0.24,0.09,0.47,0.19,0.7,0.3c0.63,0.3,1.34,0.46,2.04,0.46c0.61,0,1.21-0.12,1.76-0.34c-0.5,1.21-0.49,2.59,0.09,3.8
			c0.11,0.24,0.22,0.49,0.31,0.74c0.46,1.28,1.43,2.28,2.65,2.78c-1.23,0.49-2.2,1.5-2.65,2.78c-0.09,0.25-0.19,0.51-0.31,0.75
			c-0.57,1.21-0.59,2.59-0.09,3.8c-0.55-0.23-1.15-0.34-1.76-0.34c-0.7,0-1.4,0.16-2.03,0.46c-0.23,0.11-0.47,0.21-0.71,0.3
			C33.47,40.2,32.5,41.14,32,42.32z"/>
		<path class="st2" d="M42.54,35.81c-0.13,0.35-0.27,0.7-0.43,1.04c-0.25,0.52-0.19,1.13,0.15,1.6l1.48,2.03
			c0.45,0.62,0.39,1.48-0.15,2.03l-1.17,1.19c-0.55,0.56-1.43,0.62-2.06,0.16l-1.97-1.47c-0.47-0.35-1.1-0.4-1.63-0.15
			c-0.32,0.15-0.65,0.29-0.99,0.42c-0.54,0.2-0.94,0.67-1.02,1.24l-0.37,2.48c-0.12,0.77-0.78,1.34-1.56,1.34h-1.64
			c-0.78,0-1.44-0.57-1.56-1.34l-0.37-2.48c-0.09-0.57-0.48-1.05-1.02-1.24c-0.34-0.12-0.67-0.26-0.99-0.42
			c-0.53-0.25-1.16-0.2-1.63,0.15l-1.97,1.47c-0.63,0.47-1.51,0.4-2.06-0.16l-1.17-1.19c-0.54-0.55-0.61-1.41-0.15-2.03l1.48-2.03
			c0.34-0.47,0.39-1.08,0.15-1.6c-0.16-0.34-0.3-0.68-0.43-1.04c-0.19-0.55-0.67-0.95-1.24-1.03l-2.43-0.37
			c-0.77-0.12-1.33-0.78-1.33-1.55v-1.7c0-0.78,0.57-1.44,1.34-1.55l2.43-0.37c0.57-0.09,1.05-0.49,1.24-1.04
			c0.12-0.35,0.27-0.7,0.43-1.03c0.25-0.52,0.19-1.13-0.15-1.6l-1.48-2.03c-0.45-0.62-0.39-1.48,0.15-2.03l1.18-1.19
			c0.55-0.56,1.43-0.62,2.06-0.16l1.97,1.47c0.47,0.35,1.1,0.4,1.63,0.15c0.32-0.15,0.65-0.29,0.99-0.42
			c0.54-0.2,0.94-0.67,1.03-1.24l0.37-2.49c0.12-0.77,0.78-1.34,1.56-1.34h1.64c0.78,0,1.44,0.57,1.56,1.34l0.37,2.49
			c0.09,0.57,0.48,1.05,1.03,1.24c0.34,0.12,0.67,0.26,0.99,0.42c0.53,0.25,1.16,0.2,1.63-0.15l1.97-1.47
			c0.63-0.47,1.51-0.4,2.06,0.16l1.18,1.19c0.54,0.55,0.61,1.41,0.15,2.03l-1.48,2.03c-0.34,0.47-0.39,1.08-0.15,1.6
			c0.16,0.34,0.3,0.68,0.43,1.03c0.19,0.55,0.67,0.95,1.24,1.04l2.43,0.37c0.77,0.12,1.34,0.78,1.34,1.55v1.7
			c0,0.78-0.57,1.44-1.33,1.55l-2.43,0.37C43.21,34.87,42.73,35.27,42.54,35.81z"/>
		<circle class="st8" cx="32" cy="32" r="5.86"/>
	</g>
</g>
</svg>
