<?xml version="1.0" encoding="utf-8"?>
<!-- Generator: Adobe Illustrator 18.0.0, SVG Export Plug-In . SVG Version: 6.00 Build 0)  -->
<!DOCTYPE svg PUBLIC "-//W3C//DTD SVG 1.1//EN" "http://www.w3.org/Graphics/SVG/1.1/DTD/svg11.dtd">
<svg version="1.1" id="Layer_1" xmlns="http://www.w3.org/2000/svg" xmlns:xlink="http://www.w3.org/1999/xlink" x="0px" y="0px"
	 viewBox="0 0 64 64" enable-background="new 0 0 64 64" xml:space="preserve">
<g>
	<path fill="#C7D9F9" d="M42.7,4.9v54.3c0,2.1-1.7,3.9-3.9,3.9H5c-2.1,0-3.9-1.7-3.9-3.9V4.9C1.1,2.7,2.9,1,5,1h33.8
		C41,1,42.7,2.7,42.7,4.9z"/>
	<path fill="none" stroke="#2A3C65" stroke-width="2" stroke-linecap="round" stroke-linejoin="round" stroke-miterlimit="10" d="
		M42.7,52.8v6.3c0,2.2-1.7,3.9-3.9,3.9H5c-2.1,0-3.9-1.7-3.9-3.9V4.9C1.1,2.7,2.9,1,5,1h33.8c2.1,0,3.9,1.7,3.9,3.9v6.3"/>
	<rect x="5.1" y="9" fill="#38FCC4" width="33.6" height="45.9"/>
	
		<polyline fill="none" stroke="#2A3C65" stroke-width="2" stroke-linecap="round" stroke-linejoin="round" stroke-miterlimit="10" points="
		38.7,53.9 38.7,55 5.1,55 5.1,9 38.7,9 38.7,10 	"/>
	
		<line fill="none" stroke="#2A3C65" stroke-width="2" stroke-linecap="round" stroke-linejoin="round" stroke-miterlimit="10" x1="17.3" y1="5" x2="26.5" y2="5"/>
	
		<line fill="none" stroke="#2A3C65" stroke-width="2" stroke-linecap="round" stroke-linejoin="round" stroke-miterlimit="10" x1="20.5" y1="59" x2="23.3" y2="59"/>
	
		<path fill="#FFD880" stroke="#2A3C65" stroke-width="2" stroke-linecap="round" stroke-linejoin="round" stroke-miterlimit="10" d="
		M52.2,45.7l-3.8,3.8c-1.2,1.2-3.1,1.2-4.3,0L43,48.3l0.1-0.1c3.3-1.8,6-4.5,7.7-7.8l0.1-0.1l1.2,1.2C53.4,42.6,53.4,44.5,52.2,45.7
		z"/>
	
		<path fill="#FECB4D" stroke="#2A3C65" stroke-width="2" stroke-linecap="round" stroke-linejoin="round" stroke-miterlimit="10" d="
		M53,44.9l-5.4,5.4l8.7,8.7c0.7,0.7,1.7,1.1,2.7,1.1s1.9-0.4,2.7-1.1c1.5-1.5,1.5-3.9,0-5.4L53,44.9z"/>
	<path fill="#27D1FF" d="M16.2,32c0,10.1,8.2,18.4,18.4,18.4c10.1,0,18.3-8.2,18.3-18.4s-8.2-18.3-18.3-18.3
		C24.4,13.6,16.2,21.8,16.2,32z"/>
	<path fill="#02BEFF" d="M52.9,32c0,10.1-8.2,18.4-18.3,18.4c-6,0-11.4-2.9-14.7-7.4c3.1,2.3,6.8,3.6,11,3.6
		c10.1,0,18.3-8.2,18.3-18.4c0-4.1-1.3-7.9-3.6-10.9C50,20.6,52.9,26,52.9,32z"/>
	<path fill="none" stroke="#2A3C65" stroke-width="2" stroke-linecap="round" stroke-linejoin="round" stroke-miterlimit="10" d="
		M16.2,32c0,10.1,8.2,18.4,18.4,18.4c10.1,0,18.3-8.2,18.3-18.4s-8.2-18.3-18.3-18.3C24.4,13.6,16.2,21.8,16.2,32z"/>
	<path fill="#E3ECFF" d="M43.7,35c-0.2,0.5-0.3,0.9-0.6,1.4c-0.1,0.3-0.1,0.6,0,0.8l1,2.1c0.2,0.4,0.1,0.8-0.2,1.1l-1,1
		c-0.3,0.3-0.7,0.4-1.1,0.2l-2.1-1c-0.3-0.1-0.6-0.1-0.8,0c-0.4,0.2-0.9,0.4-1.4,0.6c-0.3,0.1-0.5,0.3-0.6,0.6l-0.8,2.3
		c-0.1,0.4-0.5,0.6-0.9,0.6h-1.4c-0.4,0-0.8-0.3-0.9-0.6l-0.8-2.3c-0.1-0.3-0.3-0.5-0.6-0.6c-0.5-0.2-0.9-0.3-1.4-0.6
		c-0.3-0.1-0.6-0.1-0.8,0l-2.1,1c-0.4,0.2-0.8,0.1-1.1-0.2l-1-1c-0.3-0.3-0.4-0.7-0.2-1.1l1-2.1c0.1-0.3,0.1-0.6,0-0.8
		c-0.2-0.4-0.4-0.9-0.6-1.4c-0.1-0.3-0.3-0.5-0.6-0.6l-2.2-0.8c-0.4-0.1-0.6-0.5-0.6-0.9v-1.4c0-0.4,0.3-0.8,0.6-0.9l2.2-0.8
		c0.3-0.1,0.5-0.3,0.6-0.6c0.2-0.5,0.3-0.9,0.6-1.4c0.1-0.3,0.1-0.6,0-0.8l-1-2.1c-0.2-0.4-0.1-0.8,0.2-1.1l1-1
		c0.3-0.3,0.7-0.4,1.1-0.2l2.1,1c0.3,0.1,0.6,0.1,0.8,0c0.4-0.2,0.9-0.4,1.4-0.6c0.3-0.1,0.5-0.3,0.6-0.6L33,20
		c0.1-0.4,0.5-0.6,0.9-0.6h1.4c0.4,0,0.8,0.3,0.9,0.6l0.8,2.3c0.1,0.3,0.3,0.5,0.6,0.6c0.5,0.2,0.9,0.3,1.4,0.6
		c0.3,0.1,0.6,0.1,0.8,0l2.1-1c0.4-0.2,0.8-0.1,1.1,0.2l1,1c0.3,0.3,0.4,0.7,0.2,1.1l-1,2.1c-0.1,0.3-0.1,0.6,0,0.8
		c0.2,0.4,0.4,0.9,0.6,1.4c0.1,0.3,0.3,0.5,0.6,0.6l2.2,0.8c0.4,0.1,0.6,0.5,0.6,0.9v1.4c0,0.4-0.3,0.8-0.6,0.9l-2.2,0.8
		C44,34.5,43.8,34.7,43.7,35z"/>
	<path fill="none" stroke="#2A3C65" stroke-width="2" stroke-linecap="round" stroke-linejoin="round" stroke-miterlimit="10" d="
		M43.7,35c-0.2,0.5-0.3,0.9-0.6,1.4c-0.1,0.3-0.1,0.6,0,0.8l1,2.1c0.2,0.4,0.1,0.8-0.2,1.1l-1,1c-0.3,0.3-0.7,0.4-1.1,0.2l-2.1-1
		c-0.3-0.1-0.6-0.1-0.8,0c-0.4,0.2-0.9,0.4-1.4,0.6c-0.3,0.1-0.5,0.3-0.6,0.6l-0.8,2.3c-0.1,0.4-0.5,0.6-0.9,0.6h-1.4
		c-0.4,0-0.8-0.3-0.9-0.6l-0.8-2.3c-0.1-0.3-0.3-0.5-0.6-0.6c-0.5-0.2-0.9-0.3-1.4-0.6c-0.3-0.1-0.6-0.1-0.8,0l-2.1,1
		c-0.4,0.2-0.8,0.1-1.1-0.2l-1-1c-0.3-0.3-0.4-0.7-0.2-1.1l1-2.1c0.1-0.3,0.1-0.6,0-0.8c-0.2-0.4-0.4-0.9-0.6-1.4
		c-0.1-0.3-0.3-0.5-0.6-0.6l-2.2-0.8c-0.4-0.1-0.6-0.5-0.6-0.9v-1.4c0-0.4,0.3-0.8,0.6-0.9l2.2-0.8c0.3-0.1,0.5-0.3,0.6-0.6
		c0.2-0.5,0.3-0.9,0.6-1.4c0.1-0.3,0.1-0.6,0-0.8l-1-2.1c-0.2-0.4-0.1-0.8,0.2-1.1l1-1c0.3-0.3,0.7-0.4,1.1-0.2l2.1,1
		c0.3,0.1,0.6,0.1,0.8,0c0.4-0.2,0.9-0.4,1.4-0.6c0.3-0.1,0.5-0.3,0.6-0.6L33,20c0.1-0.4,0.5-0.6,0.9-0.6h1.4c0.4,0,0.8,0.3,0.9,0.6
		l0.8,2.3c0.1,0.3,0.3,0.5,0.6,0.6c0.5,0.2,0.9,0.3,1.4,0.6c0.3,0.1,0.6,0.1,0.8,0l2.1-1c0.4-0.2,0.8-0.1,1.1,0.2l1,1
		c0.3,0.3,0.4,0.7,0.2,1.1l-1,2.1c-0.1,0.3-0.1,0.6,0,0.8c0.2,0.4,0.4,0.9,0.6,1.4c0.1,0.3,0.3,0.5,0.6,0.6l2.2,0.8
		c0.4,0.1,0.6,0.5,0.6,0.9v1.4c0,0.4-0.3,0.8-0.6,0.9l-2.2,0.8C44,34.5,43.8,34.7,43.7,35z"/>
	
		<path fill="#27D1FF" stroke="#2A3C65" stroke-width="2" stroke-linecap="round" stroke-linejoin="round" stroke-miterlimit="10" d="
		M39.5,32c0,2.7-2.2,5-5,5c-2.7,0-5-2.2-5-5s2.2-5,5-5S39.5,29.2,39.5,32z"/>
</g>
</svg>
