<?xml version="1.0" encoding="utf-8"?>
<!-- Generator: Adobe Illustrator 24.1.1, SVG Export Plug-In . SVG Version: 6.00 Build 0)  -->
<svg version="1.1" id="Layer_1" xmlns="http://www.w3.org/2000/svg" xmlns:xlink="http://www.w3.org/1999/xlink" x="0px" y="0px"
	 viewBox="0 0 64 64" style="enable-background:new 0 0 64 64;" xml:space="preserve">
<style type="text/css">
	.st0{fill:#38FCC4;}
	.st1{fill:#1DE9B6;}
	.st2{fill:none;stroke:#2A3C65;stroke-width:2.0667;stroke-linecap:round;stroke-linejoin:round;stroke-miterlimit:10;}
	.st3{fill:#E3ECFF;}
	.st4{fill:#C7D9F9;}
	.st5{fill:#FFD880;}
	.st6{fill:#FECB4D;}
	.st7{fill:#FF7DAF;}
	.st8{fill:#FFFFFF;stroke:#2A3C65;stroke-width:2.0667;stroke-linecap:round;stroke-linejoin:round;stroke-miterlimit:10;}
	.st9{fill:none;stroke:#2A3C65;stroke-width:2.1673;stroke-linecap:round;stroke-linejoin:round;stroke-miterlimit:10;}
	.st10{fill:#FFFFFF;}
	.st11{fill:#12D69E;}
	.st12{fill:none;stroke:#2A3C65;stroke-width:2.0666;stroke-linecap:round;stroke-linejoin:round;stroke-miterlimit:10;}
	.st13{fill:#B0CDF7;}
	.st14{fill:#CC87FE;}
	.st15{fill:#FFFFFF;stroke:#2A3C65;stroke-width:2.0666;stroke-linecap:round;stroke-linejoin:round;stroke-miterlimit:10;}
	.st16{fill:none;stroke:#2A3C65;stroke-width:2;stroke-linecap:round;stroke-linejoin:round;stroke-miterlimit:10;}
	.st17{opacity:0.5;fill:#E3ECFF;}
	.st18{fill:#FFFFFF;stroke:#2A3C65;stroke-width:2;stroke-linecap:round;stroke-linejoin:round;stroke-miterlimit:10;}
	.st19{fill:none;stroke:#2A3C65;stroke-width:2.0329;stroke-linecap:round;stroke-linejoin:round;stroke-miterlimit:10;}
	.st20{fill:#D5A6FF;}
	.st21{fill:#E3ECFF;stroke:#2A3C65;stroke-width:2.0329;stroke-linecap:round;stroke-linejoin:round;stroke-miterlimit:10;}
	.st22{fill:#27D1FF;stroke:#2A3C65;stroke-width:2.0329;stroke-linecap:round;stroke-linejoin:round;stroke-miterlimit:10;}
	.st23{fill:#FF5892;}
	.st24{fill:#FFFFFF;stroke:#2A3C65;stroke-width:2.0329;stroke-linecap:round;stroke-linejoin:round;stroke-miterlimit:10;}
	.st25{fill:none;stroke:#2A3C65;stroke-width:2.0295;stroke-linecap:round;stroke-linejoin:round;stroke-miterlimit:10;}
	.st26{fill:#27D1FF;}
	.st27{fill:#FFFFFF;stroke:#2A3C65;stroke-width:2.0295;stroke-linecap:round;stroke-linejoin:round;stroke-miterlimit:10;}
	.st28{fill:none;stroke:#2A3C65;stroke-width:1.9375;stroke-linecap:round;stroke-linejoin:round;stroke-miterlimit:10;}
	.st29{fill:#FFFFFF;stroke:#2A3C65;stroke-width:1.9375;stroke-linecap:round;stroke-linejoin:round;stroke-miterlimit:10;}
	.st30{fill:#2A3C65;}
	.st31{fill:none;stroke:#2A3C65;stroke-width:2.0609;stroke-linecap:round;stroke-linejoin:round;stroke-miterlimit:10;}
	.st32{fill:#FFFFFF;stroke:#2A3C65;stroke-width:2.0609;stroke-linecap:round;stroke-linejoin:round;stroke-miterlimit:10;}
	.st33{fill:#02BEFF;}
	.st34{fill:none;stroke:#2A3C65;stroke-width:1.9154;stroke-linecap:round;stroke-linejoin:round;stroke-miterlimit:10;}
	.st35{fill:#FF7DAF;stroke:#2A3C65;stroke-width:1.9154;stroke-linecap:round;stroke-linejoin:round;stroke-miterlimit:10;}
	.st36{fill:#FFD880;stroke:#2A3C65;stroke-width:2.1563;stroke-linecap:round;stroke-linejoin:round;stroke-miterlimit:10;}
	.st37{fill:none;stroke:#2A3C65;stroke-width:2.1563;stroke-linecap:round;stroke-linejoin:round;stroke-miterlimit:10;}
	.st38{fill:none;stroke:#2A3C65;stroke-width:2.1269;stroke-linecap:round;stroke-linejoin:round;stroke-miterlimit:10;}
	.st39{fill:#FFFFFF;stroke:#2A3C65;stroke-width:2.1269;stroke-linecap:round;stroke-linejoin:round;stroke-miterlimit:10;}
	.st40{fill:#FFD880;stroke:#2A3C65;stroke-width:2;stroke-linecap:round;stroke-linejoin:round;stroke-miterlimit:10;}
	.st41{fill:#E3ECFF;stroke:#2A3C65;stroke-width:2;stroke-linecap:round;stroke-linejoin:round;stroke-miterlimit:10;}
	.st42{fill:#E3ECFF;stroke:#2A3C65;stroke-width:2.009;stroke-linecap:round;stroke-linejoin:round;stroke-miterlimit:10;}
	.st43{fill:none;stroke:#2A3C65;stroke-width:2.009;stroke-linecap:round;stroke-linejoin:round;stroke-miterlimit:10;}
	.st44{fill:#FF5892;stroke:#2A3C65;stroke-width:2.009;stroke-linecap:round;stroke-linejoin:round;stroke-miterlimit:10;}
	.st45{fill:#27D1FF;stroke:#2A3C65;stroke-width:2;stroke-linecap:round;stroke-linejoin:round;stroke-miterlimit:10;}
	.st46{fill:#FF7DAF;stroke:#2A3C65;stroke-width:2.0666;stroke-linecap:round;stroke-linejoin:round;stroke-miterlimit:10;}
	.st47{fill:none;stroke:#2A3C65;stroke-width:1.9315;stroke-linecap:round;stroke-linejoin:round;stroke-miterlimit:10;}
	.st48{fill:#F9B826;}
	.st49{fill:#2A3C65;stroke:#2A3C65;stroke-width:2;stroke-linecap:round;stroke-linejoin:round;stroke-miterlimit:10;}
	.st50{fill:none;}
	.st51{fill:none;stroke:#2A3C65;stroke-width:1.9999;stroke-linecap:round;stroke-linejoin:round;stroke-miterlimit:10;}
	.st52{fill:#00ADDB;}
	.st53{fill:none;stroke:#2A3C65;stroke-width:2.0001;stroke-linecap:round;stroke-linejoin:round;stroke-miterlimit:10;}
	.st54{fill:#FF7DAF;stroke:#2A3C65;stroke-width:2.0001;stroke-linecap:round;stroke-linejoin:round;stroke-miterlimit:10;}
	.st55{fill:none;stroke:#2A3C65;stroke-width:2.0334;stroke-linecap:round;stroke-linejoin:round;stroke-miterlimit:10;}
	.st56{fill:#E3ECFF;stroke:#2A3C65;stroke-width:2.0334;stroke-linecap:round;stroke-linejoin:round;stroke-miterlimit:10;}
	.st57{fill:#02BEFF;stroke:#2A3C65;stroke-width:2;stroke-linecap:round;stroke-linejoin:round;stroke-miterlimit:10;}
	.st58{fill:#FECB4D;stroke:#2A3C65;stroke-width:2;stroke-linecap:round;stroke-linejoin:round;stroke-miterlimit:10;}
	.st59{fill:none;stroke:#2A3C65;stroke-width:1.9481;stroke-linecap:round;stroke-linejoin:round;stroke-miterlimit:10;}
	.st60{fill:#38FCC4;stroke:#2A3C65;stroke-width:1.9481;stroke-linecap:round;stroke-linejoin:round;stroke-miterlimit:10;}
	.st61{fill:none;stroke:#2A3C65;stroke-width:1.993;stroke-linecap:round;stroke-linejoin:round;stroke-miterlimit:10;}
	.st62{fill:#27D1FF;stroke:#2A3C65;stroke-width:1.9999;stroke-linecap:round;stroke-linejoin:round;stroke-miterlimit:10;}
	.st63{fill:#E3ECFF;stroke:#2A3C65;stroke-width:1.9999;stroke-linecap:round;stroke-linejoin:round;stroke-miterlimit:10;}
	.st64{fill:#FF7DAF;stroke:#2A3C65;stroke-width:1.9999;stroke-linecap:round;stroke-linejoin:round;stroke-miterlimit:10;}
	.st65{fill:none;stroke:#2A3C65;stroke-width:2.0003;stroke-linecap:round;stroke-linejoin:round;stroke-miterlimit:10;}
	.st66{fill:#FF7DAF;stroke:#2A3C65;stroke-width:2.0003;stroke-linecap:round;stroke-linejoin:round;stroke-miterlimit:10;}
	.st67{fill:#B45FFF;}
	.st68{fill:none;stroke:#2A3C65;stroke-width:1.8975;stroke-linecap:round;stroke-linejoin:round;stroke-miterlimit:10;}
	
		.st69{fill:none;stroke:#2A3C65;stroke-width:1.8975;stroke-linecap:round;stroke-linejoin:round;stroke-miterlimit:10;stroke-dasharray:2.8463;}
	.st70{fill:#27D1FF;stroke:#2A3C65;stroke-width:1.8975;stroke-linecap:round;stroke-linejoin:round;stroke-miterlimit:10;}
</style>
<g>
	<g>
		<path class="st47" d="M3.95,9.2V56c0,2.67,2.16,4.83,4.83,4.83h15.01"/>
		<path class="st7" d="M6.9,16.33v22.18c0,1.55-1.26,2.8-2.8,2.8H3.8c-1.55,0-2.8-1.26-2.8-2.8V16.33c0-1.55,1.26-2.8,2.8-2.8h0.3
			C5.65,13.53,6.9,14.79,6.9,16.33z"/>
		<path class="st3" d="M6.9,23.04v-6.61c0-1.6-1.32-2.89-2.95-2.89c-1.63,0-2.95,1.3-2.95,2.89v6.61H6.9z"/>
		<path class="st47" d="M6.9,23.04v-6.61c0-1.6-1.32-2.89-2.95-2.89c-1.63,0-2.95,1.3-2.95,2.89v6.61H6.9z"/>
		<path class="st47" d="M15.34,9.2v46.81c0,2.67,2.16,4.83,4.83,4.83h7.14c2.18,0,4.04-1.46,4.64-3.45"/>
		<path class="st7" d="M17.4,16.19v22.18c0,1.55-1.26,2.8-2.8,2.8h-0.3c-1.55,0-2.8-1.26-2.8-2.8V16.19c0-1.55,1.26-2.8,2.8-2.8h0.3
			C16.14,13.39,17.4,14.64,17.4,16.19z"/>
		<path class="st47" d="M6.9,16.33v22.18c0,1.55-1.26,2.8-2.8,2.8H3.8c-1.55,0-2.8-1.26-2.8-2.8V16.33c0-1.55,1.26-2.8,2.8-2.8h0.3
			C5.65,13.53,6.9,14.79,6.9,16.33z"/>
		<path class="st47" d="M18.3,16.33v22.18c0,1.55-1.26,2.8-2.8,2.8h-0.3c-1.55,0-2.8-1.26-2.8-2.8V16.33c0-1.55,1.26-2.8,2.8-2.8
			h0.3C17.04,13.53,18.3,14.79,18.3,16.33z"/>
		<path class="st3" d="M18.29,23.04v-6.61c0-1.6-1.32-2.89-2.95-2.89c-1.63,0-2.95,1.3-2.95,2.89v6.61H18.29z"/>
		<path class="st47" d="M18.29,23.04v-6.61c0-1.6-1.32-2.89-2.95-2.89c-1.63,0-2.95,1.3-2.95,2.89v6.61H18.29z"/>
		<path class="st5" d="M63,20.3v29.37c0,2.13-1.73,3.86-3.86,3.86H28.77c-2.13,0-3.86-1.73-3.86-3.86V20.3H63z"/>
		<path class="st6" d="M63,20.29v29.37c0,2.13-1.73,3.86-3.86,3.86H28.77c-1.72,0-3.19-1.13-3.68-2.68
			c0.37,0.12,0.76,0.18,1.18,0.18h0.99c17.51,0,31.86-13.54,33.13-30.73H63z"/>
		<path class="st47" d="M63,20.3v29.37c0,2.13-1.73,3.86-3.86,3.86H28.77c-2.13,0-3.86-1.73-3.86-3.86V20.3H63z"/>
		<polyline class="st47" points="50.8,40.66 53.77,46.03 59.19,46.03 		"/>
		<circle class="st3" cx="43.95" cy="36.91" r="7.81"/>
		<circle class="st4" cx="43.95" cy="36.91" r="3.94"/>
		<circle class="st47" cx="43.95" cy="36.91" r="7.81"/>
		<line class="st47" x1="51.76" y1="36.91" x2="46.2" y2="36.91"/>
		<polyline class="st47" points="29.74,47.34 34.22,47.34 38.61,42.6 		"/>
		<polyline class="st47" points="29.74,25.17 36.15,25.17 43.95,29.11 		"/>
		<line class="st47" x1="56.12" y1="34.4" x2="58.17" y2="34.4"/>
		<line class="st47" x1="56.12" y1="31.32" x2="58.17" y2="31.32"/>
		<line class="st47" x1="56.12" y1="28.24" x2="58.17" y2="28.24"/>
		<line class="st47" x1="56.12" y1="25.17" x2="58.17" y2="25.17"/>
		<path class="st3" d="M63,20.3V7.03c0-2.13-1.73-3.86-3.86-3.86H28.77c-2.13,0-3.86,1.73-3.86,3.86V20.3H63z"/>
		<path class="st26" d="M58.17,10.89v9.41H29.74v-9.41c0-1.59,1.29-2.9,2.9-2.9h22.64C56.88,7.99,58.17,9.29,58.17,10.89z"/>
		<path class="st47" d="M63,20.3V7.03c0-2.13-1.73-3.86-3.86-3.86H28.77c-2.13,0-3.86,1.73-3.86,3.86V20.3H63z"/>
		<path class="st47" d="M58.17,16.43v-5.54c0-1.59-1.29-2.9-2.9-2.9H32.64c-1.6,0-2.9,1.3-2.9,2.9v5.54"/>
	</g>
</g>
</svg>
