<?xml version="1.0" encoding="utf-8"?>
<!-- Generator: Adobe Illustrator 18.0.0, SVG Export Plug-In . SVG Version: 6.00 Build 0)  -->
<!DOCTYPE svg PUBLIC "-//W3C//DTD SVG 1.1//EN" "http://www.w3.org/Graphics/SVG/1.1/DTD/svg11.dtd">
<svg version="1.1" id="Layer_1" xmlns="http://www.w3.org/2000/svg" xmlns:xlink="http://www.w3.org/1999/xlink" x="0px" y="0px"
	 viewBox="0 0 64 64" enable-background="new 0 0 64 64" xml:space="preserve">
<g>
	<g>
		<g>
			
				<path fill="#F27DAD" stroke="#2B3C65" stroke-width="1.9375" stroke-linecap="round" stroke-linejoin="round" stroke-miterlimit="10" d="
				M23.6,59.4V63H2v-3.6c0-4.3,3.5-7.8,7.8-7.8H16C20.2,51.6,23.6,55.1,23.6,59.4z"/>
			<g>
				
					<path fill="#FECB4D" stroke="#2B3C65" stroke-width="1.9375" stroke-linecap="round" stroke-linejoin="round" stroke-miterlimit="10" d="
					M15.6,49.6v2.8c0,0.8-0.3,1.5-0.8,2s-1.2,0.8-2,0.8c-1.5,0-2.8-1.2-2.8-2.8v-2.8H15.6z"/>
				<g>
					
						<path fill="#FECB4D" stroke="#2B3C65" stroke-width="1.9375" stroke-linecap="round" stroke-linejoin="round" stroke-miterlimit="10" d="
						M18,43.4v2.9c0,2.8-2.1,5.2-4.9,5.3c-3,0.1-5.4-2.2-5.4-5.2v-3c0-2.8,2.3-5.2,5.2-5.2l0,0C15.7,38.3,18,40.6,18,43.4z"/>
					<path fill="#AF8BBF" d="M8.3,44.4l0.5-2c0.1-0.4,0.6-0.6,1-0.4c1.1,0.5,3.3,1.3,6.5,0.7c0.4-0.1,0.7,0.2,0.8,0.6l0.2,1.1
						c0,0.2,0.2,0.4,0.4,0.4h0.1c0.2,0,0.3-0.1,0.4-0.2c0.3-0.5,0.5-1,0.6-1.5c0.9-2.7-0.3-5.8-2.8-7.1c-0.8-0.4-1.6-0.6-2.4-0.6
						c-2,0-3.7,1.1-4.6,1.9c-0.4,0.3-0.9,0.7-1.4,0.9c-2,0.9-0.9,4.5-0.2,6.3c0.1,0.2,0.2,0.3,0.4,0.3l0,0
						C8.1,44.7,8.3,44.6,8.3,44.4z"/>
					
						<path fill="none" stroke="#2B3C65" stroke-width="1.9375" stroke-linecap="round" stroke-linejoin="round" stroke-miterlimit="10" d="
						M8.3,44.4l0.5-2c0.1-0.4,0.6-0.6,1-0.4c1.1,0.5,3.3,1.3,6.5,0.7c0.4-0.1,0.7,0.2,0.8,0.6l0.2,1.1c0,0.2,0.2,0.4,0.4,0.4h0.1
						c0.2,0,0.3-0.1,0.4-0.2c0.3-0.5,0.5-1,0.6-1.5c0.9-2.7-0.3-5.8-2.8-7.1c-0.8-0.4-1.6-0.6-2.4-0.6c-2,0-3.7,1.1-4.6,1.9
						c-0.4,0.3-0.9,0.7-1.4,0.9c-2,0.9-0.9,4.5-0.2,6.3c0.1,0.2,0.2,0.3,0.4,0.3l0,0C8.1,44.7,8.3,44.6,8.3,44.4z"/>
				</g>
			</g>
			
				<polyline fill="#F27DAD" stroke="#2B3C65" stroke-width="1.9375" stroke-linecap="round" stroke-linejoin="round" stroke-miterlimit="10" points="
				18.8,58.1 18.8,63 6.8,63 6.8,58.1 			"/>
		</g>
		<g>
			
				<path fill="#C9D8EF" stroke="#2B3C65" stroke-width="1.9375" stroke-linecap="round" stroke-linejoin="round" stroke-miterlimit="10" d="
				M62,59.4V63H40.4v-3.6c0-4.3,3.5-7.8,7.8-7.8h6.2C58.6,51.6,62,55.1,62,59.4z"/>
			<g>
				
					<path fill="#FECB4D" stroke="#2B3C65" stroke-width="1.9375" stroke-linecap="round" stroke-linejoin="round" stroke-miterlimit="10" d="
					M54,49.6v2.8c0,0.8-0.3,1.5-0.8,2s-1.2,0.8-2,0.8c-1.5,0-2.8-1.2-2.8-2.8v-2.8H54z"/>
				<g>
					
						<path fill="#FECB4D" stroke="#2B3C65" stroke-width="1.9375" stroke-linecap="round" stroke-linejoin="round" stroke-miterlimit="10" d="
						M56.4,43.4v2.9c0,2.8-2.1,5.2-4.9,5.3c-3,0.1-5.4-2.2-5.4-5.2v-3c0-2.8,2.3-5.2,5.2-5.2l0,0C54,38.3,56.4,40.6,56.4,43.4z"/>
					<path fill="#F27DAD" d="M46.7,44.4l0.5-2c0.1-0.4,0.6-0.6,1-0.4c1.1,0.5,3.3,1.3,6.5,0.7c0.4-0.1,0.7,0.2,0.8,0.6l0.2,1.1
						c0,0.2,0.2,0.4,0.4,0.4h0.1c0.2,0,0.3-0.1,0.4-0.2c0.3-0.5,0.5-1,0.6-1.5c0.9-2.7-0.3-5.8-2.8-7.1c-0.8-0.4-1.6-0.6-2.4-0.6
						c-2,0-3.7,1.1-4.6,1.9C47,37.6,46.5,38,46,38.2c-2,0.9-0.9,4.5-0.2,6.3c0.1,0.2,0.2,0.3,0.4,0.3l0,0
						C46.5,44.7,46.7,44.6,46.7,44.4z"/>
					
						<path fill="none" stroke="#2B3C65" stroke-width="1.9375" stroke-linecap="round" stroke-linejoin="round" stroke-miterlimit="10" d="
						M46.7,44.4l0.5-2c0.1-0.4,0.6-0.6,1-0.4c1.1,0.5,3.3,1.3,6.5,0.7c0.4-0.1,0.7,0.2,0.8,0.6l0.2,1.1c0,0.2,0.2,0.4,0.4,0.4h0.1
						c0.2,0,0.3-0.1,0.4-0.2c0.3-0.5,0.5-1,0.6-1.5c0.9-2.7-0.3-5.8-2.8-7.1c-0.8-0.4-1.6-0.6-2.4-0.6c-2,0-3.7,1.1-4.6,1.9
						C47,37.6,46.5,38,46,38.2c-2,0.9-0.9,4.5-0.2,6.3c0.1,0.2,0.2,0.3,0.4,0.3l0,0C46.5,44.7,46.7,44.6,46.7,44.4z"/>
				</g>
			</g>
			
				<polyline fill="#C9D8EF" stroke="#2B3C65" stroke-width="1.9375" stroke-linecap="round" stroke-linejoin="round" stroke-miterlimit="10" points="
				57.2,58.1 57.2,63 45.2,63 45.2,58.1 			"/>
		</g>
	</g>
	<g>
		
			<path fill="#45C8F5" stroke="#2B3C65" stroke-width="1.9375" stroke-linecap="round" stroke-linejoin="round" stroke-miterlimit="10" d="
			M42.8,25v4.6H21.2V25c0-4.3,3.5-7.8,7.8-7.8h6.2C39.4,17.3,42.8,20.8,42.8,25z"/>
		<g>
			
				<path fill="#FECB4D" stroke="#2B3C65" stroke-width="1.9375" stroke-linecap="round" stroke-linejoin="round" stroke-miterlimit="10" d="
				M34.8,15.3V18c0,0.8-0.3,1.5-0.8,2s-1.2,0.8-2,0.8c-1.5,0-2.8-1.2-2.8-2.8v-2.8h5.6V15.3z"/>
			<g>
				
					<path fill="#FECB4D" stroke="#2B3C65" stroke-width="1.9375" stroke-linecap="round" stroke-linejoin="round" stroke-miterlimit="10" d="
					M37.2,9.1V12c0,2.8-2.1,5.2-4.9,5.3c-3,0.1-5.4-2.2-5.4-5.2v-3c0-2.8,2.3-5.2,5.2-5.2l0,0C34.8,3.9,37.2,6.2,37.2,9.1z"/>
				<path fill="#77C9AE" d="M27.5,10.1L28,8c0.1-0.4,0.6-0.6,1-0.4c1.1,0.5,3.3,1.3,6.5,0.7c0.4-0.1,0.7,0.2,0.8,0.6l0.2,1.1
					c0,0.2,0.2,0.4,0.4,0.4H37c0.2,0,0.3-0.1,0.4-0.2c0.3-0.5,0.5-1,0.6-1.5c0.9-2.7-0.3-5.8-2.8-7.1C34.4,1.2,33.6,1,32.8,1
					c-2,0-3.7,1.1-4.6,1.9c-0.4,0.3-0.9,0.7-1.4,0.9c-2,0.9-0.9,4.5-0.2,6.3c0.1,0.2,0.2,0.3,0.4,0.3l0,0
					C27.3,10.4,27.5,10.2,27.5,10.1z"/>
				
					<path fill="none" stroke="#2B3C65" stroke-width="1.9375" stroke-linecap="round" stroke-linejoin="round" stroke-miterlimit="10" d="
					M27.5,10.1L28,8c0.1-0.4,0.6-0.6,1-0.4c1.1,0.5,3.3,1.3,6.5,0.7c0.4-0.1,0.7,0.2,0.8,0.6l0.2,1.1c0,0.2,0.2,0.4,0.4,0.4H37
					c0.2,0,0.3-0.1,0.4-0.2c0.3-0.5,0.5-1,0.6-1.5c0.9-2.7-0.3-5.8-2.8-7.1C34.4,1.2,33.6,1,32.8,1c-2,0-3.7,1.1-4.6,1.9
					c-0.4,0.3-0.9,0.7-1.4,0.9c-2,0.9-0.9,4.5-0.2,6.3c0.1,0.2,0.2,0.3,0.4,0.3l0,0C27.3,10.4,27.5,10.2,27.5,10.1z"/>
			</g>
		</g>
		
			<polyline fill="#45C8F5" stroke="#2B3C65" stroke-width="1.9375" stroke-linecap="round" stroke-linejoin="round" stroke-miterlimit="10" points="
			38,23.7 38,29.6 26,29.6 26,23.7 		"/>
	</g>
	<g>
		
			<path fill="none" stroke="#2B3C65" stroke-width="1.9375" stroke-linecap="round" stroke-linejoin="round" stroke-miterlimit="10" d="
			M12.2,31.4v-4.8c0-1.6,1.3-2.9,2.9-2.9h2.5"/>
		
			<path fill="none" stroke="#2B3C65" stroke-width="1.9375" stroke-linecap="round" stroke-linejoin="round" stroke-miterlimit="10" d="
			M51.8,31.4v-4.8c0-1.6-1.3-2.9-2.9-2.9h-2.5"/>
	</g>
	
		<line fill="none" stroke="#2B3C65" stroke-width="1.9375" stroke-linecap="round" stroke-linejoin="round" stroke-miterlimit="10" x1="27.8" y1="59.6" x2="36.2" y2="59.6"/>
</g>
</svg>
