<?xml version="1.0" encoding="utf-8"?>
<!-- Generator: Adobe Illustrator 18.0.0, SVG Export Plug-In . SVG Version: 6.00 Build 0)  -->
<!DOCTYPE svg PUBLIC "-//W3C//DTD SVG 1.1//EN" "http://www.w3.org/Graphics/SVG/1.1/DTD/svg11.dtd">
<svg version="1.1" id="Layer_1" xmlns="http://www.w3.org/2000/svg" xmlns:xlink="http://www.w3.org/1999/xlink" x="0px" y="0px"
	 viewBox="0 0 66 66" enable-background="new 0 0 66 66" xml:space="preserve">
<g>
	<path fill="#D5A6FF" d="M26.8,2.4c3.4,0,37.2,2.7,37.2,6s-33.8,6.1-37.2,6.1s-6.1-2.7-6.1-6.1S23.5,2.4,26.8,2.4z"/>
	<path fill="#CC87FE" d="M64,8.4c0,3.4-33.8,6.1-37.2,6.1s-6.1-2.7-6.1-6.1c0-2.6,1.6-4.8,3.9-5.7c-0.3,0.7-0.4,1.4-0.4,2.2
		c0,3.4,2.7,6.1,6.1,6.1c2.6,0,22.7-1.6,32.2-3.8C63.5,7.6,64,8,64,8.4z"/>
	<path fill="#1DE9B6" d="M15.6,3.9c2.5,0,4.5,2,4.5,4.5s-2,4.5-4.5,4.5C13.1,13,2,8.4,2,8.4S13.1,3.9,15.6,3.9z"/>
	<path fill="#12D69E" d="M20.2,8.4c0,2.5-2,4.5-4.5,4.5S2,8.4,2,8.4S2.9,8,4.3,7.5c3.2,1.2,7,2.5,8.3,2.5c2.5,0,4.5-2,4.5-4.5
		c0-0.5-0.1-0.9-0.2-1.3C18.8,4.7,20.2,6.4,20.2,8.4z"/>
	<path fill="none" stroke="#2A3C65" stroke-width="2" stroke-linecap="round" stroke-linejoin="round" stroke-miterlimit="10" d="
		M15.6,3.9c2.5,0,4.5,2,4.5,4.5s-2,4.5-4.5,4.5C13.1,13,2,8.4,2,8.4S13.1,3.9,15.6,3.9z"/>
	<path fill="none" stroke="#2A3C65" stroke-width="2" stroke-linecap="round" stroke-linejoin="round" stroke-miterlimit="10" d="
		M22.8,3.8c1.1-0.9,2.5-1.5,4-1.5C30.2,2.4,64,5.1,64,8.4c0,3.4-33.8,6.1-37.2,6.1c-1.5,0-2.9-0.6-4-1.5"/>
	<path fill="#E3ECFF" d="M64,23.7v34.7c0,2.9-2.4,5.3-5.3,5.3H7.3c-2.9,0-5.3-2.4-5.3-5.3V23.7c0-2.9,2.4-5.3,5.3-5.3h51.4
		C61.6,18.4,64,20.8,64,23.7z"/>
	<path fill="none" stroke="#2A3C65" stroke-width="2" stroke-linecap="round" stroke-linejoin="round" stroke-miterlimit="10" d="
		M64,23.7v34.7c0,2.9-2.4,5.3-5.3,5.3H7.3c-2.9,0-5.3-2.4-5.3-5.3V23.7c0-2.9,2.4-5.3,5.3-5.3h51.4C61.6,18.4,64,20.8,64,23.7z"/>
	<g>
		<g>
			<circle fill="#FF5892" cx="14.9" cy="31.2" r="6"/>
			<path fill="#F93580" d="M14.9,34.6c-1.9,0-3.4-1.5-3.4-3.4s1.5-3.4,3.4-3.4s3.4,1.5,3.4,3.4S16.8,34.6,14.9,34.6z"/>
			<circle fill="#1DE9B6" cx="14.9" cy="50.8" r="6"/>
			<path fill="#12D69E" d="M14.9,54.2c-1.9,0-3.4-1.5-3.4-3.4s1.5-3.4,3.4-3.4s3.4,1.5,3.4,3.4S16.8,54.2,14.9,54.2z"/>
		</g>
		<g>
			<circle fill="#02BEFF" cx="33" cy="31.2" r="6"/>
			<path fill="#00ADDB" d="M33,34.6c-1.9,0-3.4-1.5-3.4-3.4s1.5-3.4,3.4-3.4c1.9,0,3.4,1.5,3.4,3.4S34.9,34.6,33,34.6z"/>
			<circle fill="#FECB4D" cx="33" cy="50.8" r="6"/>
			<path fill="#F9B826" d="M33,54.2c-1.9,0-3.4-1.5-3.4-3.4s1.5-3.4,3.4-3.4c1.9,0,3.4,1.5,3.4,3.4S34.9,54.2,33,54.2z"/>
		</g>
		<g>
			<circle fill="#CC87FE" cx="51.1" cy="31.2" r="6"/>
			<path fill="#B45FFF" d="M51.1,34.6c-1.9,0-3.4-1.5-3.4-3.4s1.5-3.4,3.4-3.4s3.4,1.5,3.4,3.4S53,34.6,51.1,34.6z"/>
			<circle fill="#C7D9F9" cx="51.1" cy="50.8" r="6"/>
			<path fill="#B0CDF7" d="M51.1,54.2c-1.9,0-3.4-1.5-3.4-3.4s1.5-3.4,3.4-3.4s3.4,1.5,3.4,3.4S53,54.2,51.1,54.2z"/>
		</g>
		<path fill="none" stroke="#2A3C65" stroke-width="2" stroke-linecap="round" stroke-linejoin="round" stroke-miterlimit="10" d="
			M12,36.5c0.9,0.5,1.8,0.7,2.9,0.7c3.3,0,6-2.7,6-6s-2.7-6-6-6s-6,2.7-6,6c0,0.3,0,0.6,0.1,0.9"/>
		<path fill="none" stroke="#2A3C65" stroke-width="2" stroke-linecap="round" stroke-linejoin="round" stroke-miterlimit="10" d="
			M20.8,52.3c0.1-0.5,0.2-1,0.2-1.5c0-3.3-2.7-6-6-6s-6,2.7-6,6s2.7,6,6,6c0.9,0,1.7-0.2,2.4-0.5"/>
		<path fill="none" stroke="#2A3C65" stroke-width="2" stroke-linecap="round" stroke-linejoin="round" stroke-miterlimit="10" d="
			M29.5,36.2c1,0.7,2.2,1.1,3.5,1.1c3.3,0,6-2.7,6-6s-2.7-6-6-6s-6,2.7-6,6c0,0,0,0,0,0.1"/>
		<path fill="none" stroke="#2A3C65" stroke-width="2" stroke-linecap="round" stroke-linejoin="round" stroke-miterlimit="10" d="
			M38.6,53c0.3-0.7,0.4-1.4,0.4-2.2c0-3.3-2.7-6-6-6s-6,2.7-6,6s2.7,6,6,6c0.6,0,1.2-0.1,1.8-0.3"/>
		<path fill="none" stroke="#2A3C65" stroke-width="2" stroke-linecap="round" stroke-linejoin="round" stroke-miterlimit="10" d="
			M47.1,35.7c1.1,0.9,2.5,1.5,4,1.5c3.3,0,6-2.7,6-6s-2.7-6-6-6c-3,0-5.5,2.2-5.9,5.1"/>
		<path fill="none" stroke="#2A3C65" stroke-width="2" stroke-linecap="round" stroke-linejoin="round" stroke-miterlimit="10" d="
			M56.4,53.7c0.4-0.8,0.7-1.8,0.7-2.8c0-3.3-2.7-6-6-6s-6,2.7-6,6s2.7,6,6,6c0.3,0,0.7,0,1-0.1"/>
	</g>
</g>
</svg>
