<?xml version="1.0" encoding="utf-8"?>
<!-- Generator: Adobe Illustrator 18.0.0, SVG Export Plug-In . SVG Version: 6.00 Build 0)  -->
<!DOCTYPE svg PUBLIC "-//W3C//DTD SVG 1.1//EN" "http://www.w3.org/Graphics/SVG/1.1/DTD/svg11.dtd">
<svg version="1.1" id="Layer_1" xmlns="http://www.w3.org/2000/svg" xmlns:xlink="http://www.w3.org/1999/xlink" x="0px" y="0px"
	 viewBox="0 0 64 64" enable-background="new 0 0 64 64" xml:space="preserve">
<g>
	<path fill="#FFD880" d="M49.3,37.9c-0.3,0.8-0.6,1.5-0.9,2.2c-0.4,0.8-0.4,1.8,0,2.6l1,2c0.6,1.1,0.3,2.5-0.6,3.4l-0.7,0.7
		c-0.9,0.9-2.3,1.1-3.4,0.6l-2-1c-0.8-0.4-1.8-0.4-2.6,0c-0.7,0.3-1.4,0.6-2.2,0.9c-0.9,0.3-1.5,1-1.8,1.8l-0.7,2.1
		c-0.4,1.2-1.6,2-2.8,2h-1c-1.3,0-2.4-0.8-2.8-2l-0.8-2c-0.3-0.9-1-1.5-1.8-1.8s-1.5-0.6-2.2-0.9c-0.8-0.4-1.8-0.4-2.6,0l-2,1
		c-1.1,0.6-2.5,0.3-3.4-0.6l-0.7-0.7c-0.9-0.9-1.1-2.3-0.6-3.4l1-2c0.4-0.8,0.4-1.8,0-2.6c-0.3-0.7-0.7-1.4-0.9-2.2
		c-0.3-0.9-1-1.5-1.8-1.8l-2.1-0.7c-1.2-0.4-2-1.6-2-2.8v-1c0-1.3,0.8-2.4,2-2.8l2.1-0.7c0.9-0.3,1.5-1,1.8-1.8s0.6-1.5,0.9-2.2
		c0.4-0.8,0.4-1.8,0-2.6l-1-2c-0.6-1.1-0.3-2.5,0.6-3.4l0.7-0.7c0.9-0.9,2.3-1.1,3.4-0.6l2,1c0.8,0.4,1.8,0.4,2.6,0
		c0.7-0.4,1.4-0.7,2.2-0.9c0.9-0.3,1.5-1,1.8-1.8l0.7-2.1c0.4-1.2,1.6-2,2.8-2h1c1.3,0,2.4,0.8,2.8,2l0.7,2.1c0.3,0.9,1,1.5,1.8,1.8
		s1.5,0.6,2.2,0.9c0.8,0.4,1.8,0.4,2.6,0l2-1c1.1-0.6,2.5-0.3,3.4,0.6l0.7,0.7c0.9,0.9,1.1,2.3,0.6,3.4l-1,2c-0.4,0.8-0.4,1.8,0,2.6
		c0.3,0.7,0.7,1.4,0.9,2.2c0.3,0.9,1,1.5,1.8,1.8l2.1,0.7c1.2,0.4,2,1.6,2,2.8v1c0,1.3-0.8,2.4-2,2.8L51.2,36
		C50.3,36.3,49.6,37,49.3,37.9z"/>
	<path fill="#FECB4D" d="M55.3,31.5v1c0,1.3-0.8,2.4-2,2.8L51.2,36c-0.9,0.3-1.5,1-1.8,1.8s-0.6,1.5-0.9,2.2c-0.4,0.8-0.4,1.8,0,2.6
		l1,2c0.6,1.2,0.3,2.5-0.6,3.4l-0.7,0.7c-0.9,0.9-2.3,1.1-3.4,0.6l-2-1c-0.8-0.4-1.8-0.4-2.6,0c-0.7,0.4-1.4,0.7-2.2,0.9
		c-0.9,0.3-1.5,1-1.9,1.8l-0.7,2.1c-0.4,1.2-1.6,2-2.8,2h-1c-1.3,0-2.4-0.8-2.8-2L28,51.2c-0.2-0.6-0.6-1.1-1.1-1.5H27
		c1.3,0,2.4-0.8,2.8-2l0.7-2.1c0.3-0.9,1-1.5,1.9-1.8c0.8-0.3,1.5-0.6,2.2-0.9c0.8-0.4,1.8-0.4,2.6,0l2,1c1.2,0.6,2.5,0.3,3.4-0.6
		l0.7-0.7c0.9-0.9,1.1-2.3,0.6-3.4l-1-2c-0.4-0.8-0.4-1.8,0-2.6c0.4-0.7,0.7-1.4,0.9-2.2c0.3-0.9,1-1.5,1.8-1.8l2.1-0.7
		c1.2-0.4,2-1.6,2-2.8V27c0.3,0.5,0.9,0.9,1.5,1.1l2.1,0.7C54.4,29.1,55.3,30.2,55.3,31.5z"/>
	<path fill="none" stroke="#2A3C65" stroke-width="2" stroke-linecap="round" stroke-linejoin="round" stroke-miterlimit="10" d="
		M49.3,37.9c-0.3,0.8-0.6,1.5-0.9,2.2c-0.4,0.8-0.4,1.8,0,2.6l1,2c0.6,1.1,0.3,2.5-0.6,3.4l-0.7,0.7c-0.9,0.9-2.3,1.1-3.4,0.6l-2-1
		c-0.8-0.4-1.8-0.4-2.6,0c-0.7,0.3-1.4,0.6-2.2,0.9c-0.9,0.3-1.5,1-1.8,1.8l-0.7,2.1c-0.4,1.2-1.6,2-2.8,2h-1c-1.3,0-2.4-0.8-2.8-2
		l-0.8-2c-0.3-0.9-1-1.5-1.8-1.8s-1.5-0.6-2.2-0.9c-0.8-0.4-1.8-0.4-2.6,0l-2,1c-1.1,0.6-2.5,0.3-3.4-0.6l-0.7-0.7
		c-0.9-0.9-1.1-2.3-0.6-3.4l1-2c0.4-0.8,0.4-1.8,0-2.6c-0.3-0.7-0.7-1.4-0.9-2.2c-0.3-0.9-1-1.5-1.8-1.8l-2.1-0.7
		c-1.2-0.4-2-1.6-2-2.8v-1c0-1.3,0.8-2.4,2-2.8l2.1-0.7c0.9-0.3,1.5-1,1.8-1.8s0.6-1.5,0.9-2.2c0.4-0.8,0.4-1.8,0-2.6l-1-2
		c-0.6-1.1-0.3-2.5,0.6-3.4l0.7-0.7c0.9-0.9,2.3-1.1,3.4-0.6l2,1c0.8,0.4,1.8,0.4,2.6,0c0.7-0.4,1.4-0.7,2.2-0.9
		c0.9-0.3,1.5-1,1.8-1.8l0.7-2.1c0.4-1.2,1.6-2,2.8-2h1c1.3,0,2.4,0.8,2.8,2l0.7,2.1c0.3,0.9,1,1.5,1.8,1.8s1.5,0.6,2.2,0.9
		c0.8,0.4,1.8,0.4,2.6,0l2-1c1.1-0.6,2.5-0.3,3.4,0.6l0.7,0.7c0.9,0.9,1.1,2.3,0.6,3.4l-1,2c-0.4,0.8-0.4,1.8,0,2.6
		c0.3,0.7,0.7,1.4,0.9,2.2c0.3,0.9,1,1.5,1.8,1.8l2.1,0.7c1.2,0.4,2,1.6,2,2.8v1c0,1.3-0.8,2.4-2,2.8L51.2,36
		C50.3,36.3,49.6,37,49.3,37.9z"/>
	<path fill="none" stroke="#2A3C65" stroke-width="2" stroke-linecap="round" stroke-linejoin="round" stroke-miterlimit="10" d="
		M33.7,24.8l-3.4,14.4"/>
	<g>
		
			<polyline fill="none" stroke="#2A3C65" stroke-width="2" stroke-linecap="round" stroke-linejoin="round" stroke-miterlimit="10" points="
			37.3,36.4 44.2,32 37.3,27.6 		"/>
		
			<polyline fill="none" stroke="#2A3C65" stroke-width="2" stroke-linecap="round" stroke-linejoin="round" stroke-miterlimit="10" points="
			26.6,27.6 19.8,32 26.6,36.4 		"/>
	</g>
	
		<polyline fill="none" stroke="#2A3C65" stroke-width="2" stroke-linecap="round" stroke-linejoin="round" stroke-miterlimit="10" points="
		57.3,7.1 56.9,13.6 50.4,13.3 	"/>
	<path fill="none" stroke="#2A3C65" stroke-width="2" stroke-linecap="round" stroke-linejoin="round" stroke-miterlimit="10" d="
		M8.1,12.2c1.6-1.9,3.4-3.6,5.4-5.1c13.8-10.2,33.2-7.3,43.4,6.6"/>
	
		<polyline fill="none" stroke="#2A3C65" stroke-width="2" stroke-linecap="round" stroke-linejoin="round" stroke-miterlimit="10" points="
		6.7,56.9 7.1,50.4 13.6,50.7 	"/>
	<path fill="none" stroke="#2A3C65" stroke-width="2" stroke-linecap="round" stroke-linejoin="round" stroke-miterlimit="10" d="
		M55.9,51.8c-1.6,1.9-3.4,3.6-5.4,5.1c-13.8,10.2-33.2,7.3-43.4-6.6"/>
</g>
</svg>
