<?xml version="1.0" encoding="utf-8"?>
<!-- Generator: Adobe Illustrator 24.1.1, SVG Export Plug-In . SVG Version: 6.00 Build 0)  -->
<svg version="1.1" id="Layer_1" xmlns="http://www.w3.org/2000/svg" xmlns:xlink="http://www.w3.org/1999/xlink" x="0px" y="0px"
	 viewBox="0 0 64 64" style="enable-background:new 0 0 64 64;" xml:space="preserve">
<style type="text/css">
	.st0{fill:#38FCC4;}
	.st1{fill:#1DE9B6;}
	.st2{fill:none;stroke:#2A3C65;stroke-width:2.0667;stroke-linecap:round;stroke-linejoin:round;stroke-miterlimit:10;}
	.st3{fill:#E3ECFF;}
	.st4{fill:#C7D9F9;}
	.st5{fill:#FFD880;}
	.st6{fill:#FECB4D;}
	.st7{fill:#FF7DAF;}
	.st8{fill:#FFFFFF;stroke:#2A3C65;stroke-width:2.0667;stroke-linecap:round;stroke-linejoin:round;stroke-miterlimit:10;}
	.st9{fill:none;stroke:#2A3C65;stroke-width:2.1673;stroke-linecap:round;stroke-linejoin:round;stroke-miterlimit:10;}
	.st10{fill:#FFFFFF;}
	.st11{fill:#12D69E;}
	.st12{fill:none;stroke:#2A3C65;stroke-width:2.0666;stroke-linecap:round;stroke-linejoin:round;stroke-miterlimit:10;}
	.st13{fill:#B0CDF7;}
	.st14{fill:#CC87FE;}
	.st15{fill:#FFFFFF;stroke:#2A3C65;stroke-width:2.0666;stroke-linecap:round;stroke-linejoin:round;stroke-miterlimit:10;}
	.st16{fill:none;stroke:#2A3C65;stroke-width:2;stroke-linecap:round;stroke-linejoin:round;stroke-miterlimit:10;}
	.st17{opacity:0.5;fill:#E3ECFF;}
	.st18{fill:#FFFFFF;stroke:#2A3C65;stroke-width:2;stroke-linecap:round;stroke-linejoin:round;stroke-miterlimit:10;}
	.st19{fill:none;stroke:#2A3C65;stroke-width:2.0329;stroke-linecap:round;stroke-linejoin:round;stroke-miterlimit:10;}
	.st20{fill:#D5A6FF;}
	.st21{fill:#E3ECFF;stroke:#2A3C65;stroke-width:2.0329;stroke-linecap:round;stroke-linejoin:round;stroke-miterlimit:10;}
	.st22{fill:#27D1FF;stroke:#2A3C65;stroke-width:2.0329;stroke-linecap:round;stroke-linejoin:round;stroke-miterlimit:10;}
	.st23{fill:#FF5892;}
	.st24{fill:#FFFFFF;stroke:#2A3C65;stroke-width:2.0329;stroke-linecap:round;stroke-linejoin:round;stroke-miterlimit:10;}
	.st25{fill:none;stroke:#2A3C65;stroke-width:2.0295;stroke-linecap:round;stroke-linejoin:round;stroke-miterlimit:10;}
	.st26{fill:#27D1FF;}
	.st27{fill:#FFFFFF;stroke:#2A3C65;stroke-width:2.0295;stroke-linecap:round;stroke-linejoin:round;stroke-miterlimit:10;}
	.st28{fill:none;stroke:#2A3C65;stroke-width:1.9375;stroke-linecap:round;stroke-linejoin:round;stroke-miterlimit:10;}
	.st29{fill:#FFFFFF;stroke:#2A3C65;stroke-width:1.9375;stroke-linecap:round;stroke-linejoin:round;stroke-miterlimit:10;}
	.st30{fill:#2A3C65;}
	.st31{fill:none;stroke:#2A3C65;stroke-width:2.0609;stroke-linecap:round;stroke-linejoin:round;stroke-miterlimit:10;}
	.st32{fill:#FFFFFF;stroke:#2A3C65;stroke-width:2.0609;stroke-linecap:round;stroke-linejoin:round;stroke-miterlimit:10;}
	.st33{fill:#02BEFF;}
	.st34{fill:none;stroke:#2A3C65;stroke-width:1.9154;stroke-linecap:round;stroke-linejoin:round;stroke-miterlimit:10;}
	.st35{fill:#FF7DAF;stroke:#2A3C65;stroke-width:1.9154;stroke-linecap:round;stroke-linejoin:round;stroke-miterlimit:10;}
	.st36{fill:#FFD880;stroke:#2A3C65;stroke-width:2.1563;stroke-linecap:round;stroke-linejoin:round;stroke-miterlimit:10;}
	.st37{fill:none;stroke:#2A3C65;stroke-width:2.1563;stroke-linecap:round;stroke-linejoin:round;stroke-miterlimit:10;}
	.st38{fill:none;stroke:#2A3C65;stroke-width:2.1269;stroke-linecap:round;stroke-linejoin:round;stroke-miterlimit:10;}
	.st39{fill:#FFFFFF;stroke:#2A3C65;stroke-width:2.1269;stroke-linecap:round;stroke-linejoin:round;stroke-miterlimit:10;}
	.st40{fill:#FFD880;stroke:#2A3C65;stroke-width:2;stroke-linecap:round;stroke-linejoin:round;stroke-miterlimit:10;}
	.st41{fill:#E3ECFF;stroke:#2A3C65;stroke-width:2;stroke-linecap:round;stroke-linejoin:round;stroke-miterlimit:10;}
	.st42{fill:#E3ECFF;stroke:#2A3C65;stroke-width:2.009;stroke-linecap:round;stroke-linejoin:round;stroke-miterlimit:10;}
	.st43{fill:none;stroke:#2A3C65;stroke-width:2.009;stroke-linecap:round;stroke-linejoin:round;stroke-miterlimit:10;}
	.st44{fill:#FF5892;stroke:#2A3C65;stroke-width:2.009;stroke-linecap:round;stroke-linejoin:round;stroke-miterlimit:10;}
	.st45{fill:#27D1FF;stroke:#2A3C65;stroke-width:2;stroke-linecap:round;stroke-linejoin:round;stroke-miterlimit:10;}
	.st46{fill:#FF7DAF;stroke:#2A3C65;stroke-width:2.0666;stroke-linecap:round;stroke-linejoin:round;stroke-miterlimit:10;}
	.st47{fill:none;stroke:#2A3C65;stroke-width:1.9315;stroke-linecap:round;stroke-linejoin:round;stroke-miterlimit:10;}
	.st48{fill:#F9B826;}
	.st49{fill:#2A3C65;stroke:#2A3C65;stroke-width:2;stroke-linecap:round;stroke-linejoin:round;stroke-miterlimit:10;}
	.st50{fill:none;}
	.st51{fill:none;stroke:#2A3C65;stroke-width:1.9999;stroke-linecap:round;stroke-linejoin:round;stroke-miterlimit:10;}
	.st52{fill:#00ADDB;}
	.st53{fill:none;stroke:#2A3C65;stroke-width:2.0001;stroke-linecap:round;stroke-linejoin:round;stroke-miterlimit:10;}
	.st54{fill:#FF7DAF;stroke:#2A3C65;stroke-width:2.0001;stroke-linecap:round;stroke-linejoin:round;stroke-miterlimit:10;}
	.st55{fill:none;stroke:#2A3C65;stroke-width:2.0334;stroke-linecap:round;stroke-linejoin:round;stroke-miterlimit:10;}
	.st56{fill:#E3ECFF;stroke:#2A3C65;stroke-width:2.0334;stroke-linecap:round;stroke-linejoin:round;stroke-miterlimit:10;}
	.st57{fill:#02BEFF;stroke:#2A3C65;stroke-width:2;stroke-linecap:round;stroke-linejoin:round;stroke-miterlimit:10;}
	.st58{fill:#FECB4D;stroke:#2A3C65;stroke-width:2;stroke-linecap:round;stroke-linejoin:round;stroke-miterlimit:10;}
	.st59{fill:none;stroke:#2A3C65;stroke-width:1.9481;stroke-linecap:round;stroke-linejoin:round;stroke-miterlimit:10;}
	.st60{fill:#38FCC4;stroke:#2A3C65;stroke-width:1.9481;stroke-linecap:round;stroke-linejoin:round;stroke-miterlimit:10;}
	.st61{fill:none;stroke:#2A3C65;stroke-width:1.993;stroke-linecap:round;stroke-linejoin:round;stroke-miterlimit:10;}
	.st62{fill:#27D1FF;stroke:#2A3C65;stroke-width:1.9999;stroke-linecap:round;stroke-linejoin:round;stroke-miterlimit:10;}
	.st63{fill:#E3ECFF;stroke:#2A3C65;stroke-width:1.9999;stroke-linecap:round;stroke-linejoin:round;stroke-miterlimit:10;}
	.st64{fill:#FF7DAF;stroke:#2A3C65;stroke-width:1.9999;stroke-linecap:round;stroke-linejoin:round;stroke-miterlimit:10;}
	.st65{fill:none;stroke:#2A3C65;stroke-width:2.0003;stroke-linecap:round;stroke-linejoin:round;stroke-miterlimit:10;}
	.st66{fill:#FF7DAF;stroke:#2A3C65;stroke-width:2.0003;stroke-linecap:round;stroke-linejoin:round;stroke-miterlimit:10;}
	.st67{fill:#B45FFF;}
	.st68{fill:none;stroke:#2A3C65;stroke-width:1.8975;stroke-linecap:round;stroke-linejoin:round;stroke-miterlimit:10;}
	
		.st69{fill:none;stroke:#2A3C65;stroke-width:1.8975;stroke-linecap:round;stroke-linejoin:round;stroke-miterlimit:10;stroke-dasharray:2.8463;}
	.st70{fill:#27D1FF;stroke:#2A3C65;stroke-width:1.8975;stroke-linecap:round;stroke-linejoin:round;stroke-miterlimit:10;}
</style>
<g>
	<g>
		<path class="st36" d="M47.25,32.92c0.48,0.48,0.72,1.11,0.72,1.74c0,0.63-0.24,1.26-0.72,1.74L36.83,46.82
			c-0.96,0.96-2.52,0.96-3.48,0c-0.48-0.48-0.72-1.11-0.72-1.74c0-0.63,0.24-1.26,0.72-1.74l10.42-10.42
			C44.74,31.95,46.29,31.95,47.25,32.92z"/>
		<path class="st7" d="M46.65,37l14.17,14.17c2.54,2.55,2.54,6.67,0,9.21c-2.54,2.54-6.67,2.54-9.22,0L37.43,46.21L46.65,37z"/>
		<path class="st23" d="M62.22,58.29c-0.31,0.77-0.79,1.48-1.4,2.09c-2.54,2.54-6.67,2.54-9.22,0L37.43,46.21l3.51-3.51l14.17,14.17
			C57.03,58.8,59.86,59.27,62.22,58.29z"/>
		<path class="st37" d="M46.65,37l14.17,14.17c2.54,2.55,2.54,6.67,0,9.21c-2.54,2.54-6.67,2.54-9.22,0L37.43,46.21L46.65,37z"/>
		<path class="st26" d="M41.01,35.68l-4.89,4.89L15.3,19.76l-3.06-0.85c-0.54-0.15-1-0.51-1.29-1l-2.61-4.5
			C7.86,12.56,8,11.49,8.69,10.8l2.55-2.55c0.69-0.69,1.76-0.83,2.61-0.34l4.5,2.61c0.49,0.28,0.84,0.74,1,1.29l0.85,3.06
			L41.01,35.68z"/>
		<polyline class="st37" points="40.72,35.39 41.01,35.68 36.12,40.58 35.83,40.28 		"/>
		<polyline class="st37" points="22.81,27.27 15.3,19.76 20.19,14.86 27.71,22.38 		"/>
		<path class="st37" d="M19.34,11.81l0.85,3.05l-4.89,4.89l-3.05-0.85c-0.54-0.15-1.01-0.51-1.29-1L8.35,13.4
			C7.86,12.55,8,11.49,8.69,10.79l2.55-2.55c0.69-0.69,1.76-0.83,2.61-0.34l4.51,2.61C18.84,10.8,19.19,11.27,19.34,11.81z"/>
		<g>
			<line class="st37" x1="43.96" y1="46.44" x2="52.46" y2="54.94"/>
			<line class="st37" x1="46.87" y1="43.53" x2="55.37" y2="52.02"/>
		</g>
		<path class="st3" d="M58.14,21.03c-2.97,2.96-7.19,3.95-10.98,2.94c-0.57-0.15-1.18,0.05-1.6,0.46L23.52,46.49
			c-0.41,0.41-0.61,1.01-0.46,1.58c0.99,3.74,0.05,7.89-2.83,10.87c-2,2.06-4.59,3.2-7.24,3.41c-1.47,0.12-2.28-1.69-1.25-2.75
			l1.76-1.82c2.2-2.26,2.15-5.9-0.13-8.1c-2.26-2.21-5.9-2.16-8.11,0.11L3.51,51.6c-1.03,1.06-2.86,0.3-2.78-1.17
			c0.13-2.66,1.2-5.28,3.19-7.34c2.97-3.05,7.24-4.08,11.08-3.05c0.55,0.15,1.13,0.02,1.53-0.38l22.12-22.13
			c0.42-0.42,0.62-1.03,0.46-1.6c-1.01-3.79-0.02-8.01,2.95-10.97c2.03-2.03,4.63-3.13,7.28-3.3c1.47-0.1,2.25,1.72,1.21,2.77
			l-1.79,1.79c-2.23,2.23-2.23,5.87,0.01,8.11c2.23,2.23,5.87,2.24,8.11,0l1.78-1.78c1.04-1.04,2.86-0.26,2.77,1.21
			C61.26,16.4,60.17,19.01,58.14,21.03z"/>
		<path class="st4" d="M61.43,13.75c-0.17,2.65-1.27,5.26-3.29,7.28c-2.98,2.96-7.19,3.95-10.99,2.94c-0.57-0.15-1.18,0.05-1.6,0.46
			L23.51,46.49c-0.41,0.41-0.6,1-0.45,1.57c0.99,3.73,0.05,7.89-2.82,10.86c-2.01,2.06-4.59,3.2-7.25,3.42
			c-1.47,0.12-2.27-1.69-1.25-2.75l1.77-1.82c0.1-0.1,0.19-0.2,0.27-0.31c1.04-0.54,1.99-1.26,2.85-2.13
			c2.89-2.98,3.83-7.13,2.84-10.87c-0.15-0.56,0.04-1.16,0.45-1.57l22.04-22.05c0.42-0.42,1.04-0.61,1.61-0.46
			c3.78,1,8,0.02,10.98-2.94c0.86-0.86,1.55-1.83,2.08-2.86c0.1-0.08,0.19-0.17,0.28-0.26l1.78-1.78
			C59.72,11.49,61.53,12.27,61.43,13.75z"/>
		<path class="st37" d="M58.14,21.03c-2.97,2.96-7.19,3.95-10.98,2.94c-0.57-0.15-1.18,0.05-1.6,0.46L23.52,46.49
			c-0.41,0.41-0.61,1.01-0.46,1.58c0.99,3.74,0.05,7.89-2.83,10.87c-2,2.06-4.59,3.2-7.24,3.41c-1.47,0.12-2.28-1.69-1.25-2.75
			l1.76-1.82c2.2-2.26,2.15-5.9-0.13-8.1c-2.26-2.21-5.9-2.16-8.11,0.11L3.51,51.6c-1.03,1.06-2.86,0.3-2.78-1.17
			c0.13-2.66,1.2-5.28,3.19-7.34c2.97-3.05,7.24-4.08,11.08-3.05c0.55,0.15,1.13,0.02,1.53-0.38l22.12-22.13
			c0.42-0.42,0.62-1.03,0.46-1.6c-1.01-3.79-0.02-8.01,2.95-10.97c2.03-2.03,4.63-3.13,7.28-3.3c1.47-0.1,2.25,1.72,1.21,2.77
			l-1.79,1.79c-2.23,2.23-2.23,5.87,0.01,8.11c2.23,2.23,5.87,2.24,8.11,0l1.78-1.78c1.04-1.04,2.86-0.26,2.77,1.21
			C61.26,16.4,60.17,19.01,58.14,21.03z"/>
	</g>
</g>
</svg>
