<?xml version="1.0" encoding="utf-8"?>
<!-- Generator: Adobe Illustrator 18.0.0, SVG Export Plug-In . SVG Version: 6.00 Build 0)  -->
<!DOCTYPE svg PUBLIC "-//W3C//DTD SVG 1.1//EN" "http://www.w3.org/Graphics/SVG/1.1/DTD/svg11.dtd">
<svg version="1.1" id="Layer_1" xmlns="http://www.w3.org/2000/svg" xmlns:xlink="http://www.w3.org/1999/xlink" x="0px" y="0px"
	 viewBox="0 0 66 66" enable-background="new 0 0 66 66" xml:space="preserve">
<g>
	<path fill="#02BEFF" d="M54.9,33.4h-6.5l1.8-24.6c0.1-0.8,0.7-1.3,1.4-1.3l0,0c0.8,0,1.4,0.6,1.4,1.3L54.9,33.4z"/>
	<path fill="none" stroke="#2A3C65" stroke-width="2" stroke-linecap="round" stroke-linejoin="round" stroke-miterlimit="10" d="
		M48.7,29.4l1.5-20.6c0.1-0.8,0.7-1.3,1.4-1.3c0.8,0,1.4,0.6,1.4,1.3l1.5,20.6"/>
	<path fill="none" stroke="#2A3C65" stroke-width="2" stroke-linecap="round" stroke-linejoin="round" stroke-miterlimit="10" d="
		M41.6,21.7C38,17.4,38.7,11,43,7.5"/>
	<path fill="none" stroke="#2A3C65" stroke-width="2" stroke-linecap="round" stroke-linejoin="round" stroke-miterlimit="10" d="
		M45.2,18.7c-1.9-2.3-1.6-5.7,0.8-7.6"/>
	<path fill="none" stroke="#2A3C65" stroke-width="2" stroke-linecap="round" stroke-linejoin="round" stroke-miterlimit="10" d="
		M61.7,21.7c3.5-4.3,2.9-10.7-1.4-14.2"/>
	<path fill="none" stroke="#2A3C65" stroke-width="2" stroke-linecap="round" stroke-linejoin="round" stroke-miterlimit="10" d="
		M58.1,18.7c1.9-2.3,1.6-5.7-0.8-7.6"/>
	<path fill="#FECB4D" d="M64,39.8V49c0,2.1-1.7,3.8-3.8,3.8H5.8C3.7,52.8,2,51.1,2,49v-9.2H64z"/>
	<path fill="#F9B826" d="M64,39.8v4.5H15.8c-2.6,0-4.9,1-6.5,2.7c-1.5,1.5-2.5,3.5-2.7,5.7H5.8C3.7,52.8,2,51.1,2,49v-9.2H64z"/>
	<path fill="none" stroke="#2A3C65" stroke-width="2" stroke-linecap="round" stroke-linejoin="round" stroke-miterlimit="10" d="
		M64,39.8V49c0,2.1-1.7,3.8-3.8,3.8H5.8C3.7,52.8,2,51.1,2,49v-9.2"/>
	<path fill="#FF5892" d="M64,39.8v-2.6c0-2.1-1.7-3.8-3.8-3.8H5.8c-2.1,0-3.8,1.7-3.8,3.8v2.6H64z"/>
	<path fill="#F93580" d="M63.9,36.2c-0.3-0.1-0.6-0.1-1-0.1H8.4c-2.1,0-3.8,1.7-3.8,3.8H2v-2.6c0-2.1,1.7-3.8,3.8-3.8h54.5
		C62,33.4,63.4,34.6,63.9,36.2z"/>
	
		<line fill="none" stroke="#2A3C65" stroke-width="2" stroke-linecap="round" stroke-linejoin="round" stroke-miterlimit="10" x1="60" y1="39.8" x2="6" y2="39.8"/>
	<path fill="none" stroke="#2A3C65" stroke-width="2" stroke-linecap="round" stroke-linejoin="round" stroke-miterlimit="10" d="
		M64,39.8v-2.6c0-2.1-1.7-3.8-3.8-3.8H5.8c-2.1,0-3.8,1.7-3.8,3.8v2.6"/>
	
		<line fill="none" stroke="#2A3C65" stroke-width="2" stroke-linecap="round" stroke-linejoin="round" stroke-miterlimit="10" x1="18.9" y1="46.3" x2="21.7" y2="46.3"/>
	
		<line fill="none" stroke="#2A3C65" stroke-width="2" stroke-linecap="round" stroke-linejoin="round" stroke-miterlimit="10" x1="25.3" y1="46.3" x2="28.1" y2="46.3"/>
	
		<line fill="none" stroke="#2A3C65" stroke-width="2" stroke-linecap="round" stroke-linejoin="round" stroke-miterlimit="10" x1="31.6" y1="46.3" x2="34.4" y2="46.3"/>
	
		<line fill="none" stroke="#2A3C65" stroke-width="2" stroke-linecap="round" stroke-linejoin="round" stroke-miterlimit="10" x1="37.9" y1="46.3" x2="40.8" y2="46.3"/>
	
		<line fill="none" stroke="#2A3C65" stroke-width="2" stroke-linecap="round" stroke-linejoin="round" stroke-miterlimit="10" x1="44.3" y1="46.3" x2="47.1" y2="46.3"/>
	
		<rect x="8.6" y="52.8" fill="#CC87FE" stroke="#2A3C65" stroke-width="2" stroke-linecap="round" stroke-linejoin="round" stroke-miterlimit="10" width="6.5" height="5.8"/>
	
		<rect x="50.9" y="52.8" fill="#CC87FE" stroke="#2A3C65" stroke-width="2" stroke-linecap="round" stroke-linejoin="round" stroke-miterlimit="10" width="6.5" height="5.8"/>
</g>
</svg>
