<?xml version="1.0" encoding="utf-8"?>
<!-- Generator: Adobe Illustrator 18.0.0, SVG Export Plug-In . SVG Version: 6.00 Build 0)  -->
<!DOCTYPE svg PUBLIC "-//W3C//DTD SVG 1.1//EN" "http://www.w3.org/Graphics/SVG/1.1/DTD/svg11.dtd">
<svg version="1.1" id="Layer_1" xmlns="http://www.w3.org/2000/svg" xmlns:xlink="http://www.w3.org/1999/xlink" x="0px" y="0px"
	 viewBox="0 0 66 66" enable-background="new 0 0 66 66" xml:space="preserve">
<g>
	<path fill="#02BEFF" d="M17.2,36.9H9.8l1.9-31.2c0.1-1,0.9-1.7,1.8-1.7l0,0c0.9,0,1.7,0.7,1.8,1.7L17.2,36.9z"/>
	<path fill="#02BEFF" d="M56.2,36.9h-7.3l1.9-31.2c0-1,0.8-1.7,1.7-1.7l0,0c0.9,0,1.7,0.7,1.8,1.7L56.2,36.9z"/>
	<path fill="none" stroke="#2A3C65" stroke-width="2" stroke-linecap="round" stroke-linejoin="round" stroke-miterlimit="10" d="
		M10.1,32.9l1.7-27.2c0-1,0.8-1.7,1.7-1.7s1.7,0.7,1.8,1.7L17,32.9"/>
	<path fill="none" stroke="#2A3C65" stroke-width="2" stroke-linecap="round" stroke-linejoin="round" stroke-miterlimit="10" d="
		M49.1,32.9l1.7-27.2c0-1,0.8-1.7,1.7-1.7s1.7,0.7,1.8,1.7L56,32.9"/>
	<g>
		<g>
			<path fill="none" stroke="#2A3C65" stroke-width="2" stroke-linecap="round" stroke-linejoin="round" stroke-miterlimit="10" d="
				M20.1,14.7c7.1-7.1,18.7-7.1,25.8,0"/>
			<path fill="none" stroke="#2A3C65" stroke-width="2" stroke-linecap="round" stroke-linejoin="round" stroke-miterlimit="10" d="
				M23.6,18.2c5.2-5.2,13.6-5.2,18.8,0"/>
			<path fill="none" stroke="#2A3C65" stroke-width="2" stroke-linecap="round" stroke-linejoin="round" stroke-miterlimit="10" d="
				M27.1,21.7c3.2-3.2,8.5-3.2,11.7,0"/>
			<path fill="none" stroke="#2A3C65" stroke-width="2" stroke-linecap="round" stroke-linejoin="round" stroke-miterlimit="10" d="
				M30.7,25.2c1.3-1.3,3.4-1.3,4.7,0"/>
		</g>
	</g>
	
		<circle fill="#FECB4D" stroke="#2A3C65" stroke-width="2" stroke-linecap="round" stroke-linejoin="round" stroke-miterlimit="10" cx="33" cy="29.8" r="1.7"/>
	<path fill="#FECB4D" d="M64,40.9v11.4c0,2.2-1.8,4-4,4H6c-2.2,0-4-1.8-4-4V40.9c0-2.2,1.8-4,4-4h54C62.2,36.9,64,38.7,64,40.9z"/>
	<path fill="#F9B826" d="M64,40.9v1.8H23.2c-4.3,0-8.1,1.7-10.9,4.5c-2.4,2.4-4,5.6-4.4,9.1H6c-2.2,0-4-1.8-4-4V40.9
		c0-2.2,1.8-4,4-4h54C62.2,36.9,64,38.7,64,40.9z"/>
	<path fill="none" stroke="#2A3C65" stroke-width="2" stroke-linecap="round" stroke-linejoin="round" stroke-miterlimit="10" d="
		M64,40.9v11.4c0,2.2-1.8,4-4,4H6c-2.2,0-4-1.8-4-4V40.9c0-2.2,1.8-4,4-4h54C62.2,36.9,64,38.7,64,40.9z"/>
	<path fill="#E3ECFF" d="M30.7,42.9v7.5c0,1.1-0.9,2-2,2H8c-1.1,0-2-0.9-2-2v-7.5c0-1.1,0.9-2,2-2h20.7
		C29.8,40.9,30.7,41.8,30.7,42.9z"/>
	<path fill="#C7D9F9" d="M30.7,42.9v2.4c-0.2,0-0.4,0-0.7,0H18.8c-4.3,0-7.9,3-8.8,7.1H8c-1.1,0-2-0.9-2-2V43c0-1.1,0.9-2,2-2h20.7
		C29.8,40.9,30.7,41.8,30.7,42.9z"/>
	<path fill="none" stroke="#2A3C65" stroke-width="2" stroke-linecap="round" stroke-linejoin="round" stroke-miterlimit="10" d="
		M30.7,42.9v7.5c0,1.1-0.9,2-2,2H8c-1.1,0-2-0.9-2-2v-7.5c0-1.1,0.9-2,2-2h20.7C29.8,40.9,30.7,41.8,30.7,42.9z"/>
	<path fill="#FF5892" d="M15.3,62H9.8c-0.6,0-1-0.4-1-1v-4.7h7.5V61C16.3,61.6,15.8,62,15.3,62z"/>
	<path fill="#FF5892" d="M56.3,62h-5.5c-0.6,0-1-0.4-1-1v-4.7h7.5V61C57.3,61.6,56.8,62,56.3,62z"/>
	<path fill="none" stroke="#2A3C65" stroke-width="2" stroke-linecap="round" stroke-linejoin="round" stroke-miterlimit="10" d="
		M15.3,62H9.8c-0.6,0-1-0.4-1-1v-4.7h7.5V61C16.3,61.6,15.8,62,15.3,62z"/>
	<path fill="none" stroke="#2A3C65" stroke-width="2" stroke-linecap="round" stroke-linejoin="round" stroke-miterlimit="10" d="
		M56.3,62h-5.5c-0.6,0-1-0.4-1-1v-4.7h7.5V61C57.3,61.6,56.8,62,56.3,62z"/>
	
		<circle fill="#02BEFF" stroke="#2A3C65" stroke-width="2" stroke-linecap="round" stroke-linejoin="round" stroke-miterlimit="10" cx="39.7" cy="46.6" r="2.9"/>
	
		<circle fill="#02BEFF" stroke="#2A3C65" stroke-width="2" stroke-linecap="round" stroke-linejoin="round" stroke-miterlimit="10" cx="48.4" cy="46.6" r="2.9"/>
	
		<circle fill="#02BEFF" stroke="#2A3C65" stroke-width="2" stroke-linecap="round" stroke-linejoin="round" stroke-miterlimit="10" cx="57.1" cy="46.6" r="2.9"/>
</g>
</svg>
