<?xml version="1.0" encoding="utf-8"?>
<!-- Generator: Adobe Illustrator 18.0.0, SVG Export Plug-In . SVG Version: 6.00 Build 0)  -->
<!DOCTYPE svg PUBLIC "-//W3C//DTD SVG 1.1//EN" "http://www.w3.org/Graphics/SVG/1.1/DTD/svg11.dtd">
<svg version="1.1" id="Layer_1" xmlns="http://www.w3.org/2000/svg" xmlns:xlink="http://www.w3.org/1999/xlink" x="0px" y="0px"
	 viewBox="0 0 64 64" enable-background="new 0 0 64 64" xml:space="preserve">
<g>
	<path fill="#C9D8EF" d="M63,16.7v42.2c0,2.3-1.8,4.1-4.1,4.1H19.8c-2.3,0-4.1-1.8-4.1-4.1V5.1c0-2.3,1.8-4.1,4.1-4.1h27.5L63,16.7z
		"/>
	<path fill="#B2CBEA" d="M63,16.7v42.2c0,2.3-1.8,4.1-4.1,4.1H19.8c-2.2,0-3.9-1.7-4.1-3.8c0.1,0,0.2,0,0.4,0
		c23.8,0,43.2-19.3,43.2-43.2v-3L63,16.7z"/>
	<path fill="#45C8F5" d="M63,16.7H51.4c-2.3,0-4.1-1.8-4.1-4.1V1L63,16.7z"/>
	
		<path fill="none" stroke="#2B3C65" stroke-width="1.9997" stroke-linecap="round" stroke-linejoin="round" stroke-miterlimit="10" d="
		M24.2,63h34.7c2.3,0,4.1-1.8,4.1-4.1V16.7L47.3,1H19.8c-2.3,0-4.1,1.8-4.1,4.1v17.7"/>
	
		<path fill="none" stroke="#2B3C65" stroke-width="1.9997" stroke-linecap="round" stroke-linejoin="round" stroke-miterlimit="10" d="
		M47.3,6.7v5.9c0,2.3,1.8,4.1,4.1,4.1h5.9"/>
	
		<line fill="none" stroke="#2B3C65" stroke-width="1.9997" stroke-linecap="round" stroke-linejoin="round" stroke-miterlimit="10" x1="56.9" y1="53.7" x2="31.9" y2="53.7"/>
	
		<line fill="none" stroke="#2B3C65" stroke-width="1.9997" stroke-linecap="round" stroke-linejoin="round" stroke-miterlimit="10" x1="56.9" y1="45" x2="34.5" y2="45"/>
	
		<line fill="none" stroke="#2B3C65" stroke-width="1.9997" stroke-linecap="round" stroke-linejoin="round" stroke-miterlimit="10" x1="56.9" y1="36.3" x2="34.7" y2="36.3"/>
	
		<line fill="none" stroke="#2B3C65" stroke-width="1.9997" stroke-linecap="round" stroke-linejoin="round" stroke-miterlimit="10" x1="26.6" y1="27.7" x2="56.9" y2="27.7"/>
	
		<line fill="none" stroke="#2B3C65" stroke-width="1.9997" stroke-linecap="round" stroke-linejoin="round" stroke-miterlimit="10" x1="21.8" y1="19" x2="40.6" y2="19"/>
	
		<line fill="none" stroke="#2B3C65" stroke-width="1.9997" stroke-linecap="round" stroke-linejoin="round" stroke-miterlimit="10" x1="21.8" y1="10.3" x2="40.6" y2="10.3"/>
	<g>
		
			<path fill="#FECB4D" stroke="#2B3C65" stroke-width="1.9997" stroke-linecap="round" stroke-linejoin="round" stroke-miterlimit="10" d="
			M17.5,27.5c-0.9-0.9-2.3-0.9-3.2,0l0,0c-2,2-5.5,4.5-11,4.5C2,32,1,33,1,34.3v7.2c0,1.1,0.1,2.1,0.2,3.1
			c1.1,7.9,6.1,14.8,13.5,17.9c0.3,0.1,0.6,0.2,0.9,0.2h0.5c0.3,0,0.6-0.1,0.9-0.2c8.4-3.5,13.7-11.9,13.7-21.1v-7.2
			c0-1.3-1-2.3-2.3-2.3C22.9,32,19.3,29.5,17.5,27.5z"/>
		<path fill="#45C8F5" d="M15.9,58.5C10.2,56,6.2,50.5,5.3,44c-0.1-0.9-0.2-1.7-0.2-2.6V36c4-0.3,7.7-1.8,10.7-4.4
			c3,2.5,6.7,4,10.7,4.4v5.4C26.6,48.9,22.4,55.6,15.9,58.5z"/>
		
			<path fill="none" stroke="#2B3C65" stroke-width="1.9997" stroke-linecap="round" stroke-linejoin="round" stroke-miterlimit="10" d="
			M15.9,58.5C10.2,56,6.2,50.5,5.3,44c-0.1-0.9-0.2-1.7-0.2-2.6V36c4-0.3,7.7-1.8,10.7-4.4c3,2.5,6.7,4,10.7,4.4v5.4
			C26.6,48.9,22.4,55.6,15.9,58.5z"/>
		
			<path fill="#C9D8EF" stroke="#2B3C65" stroke-width="1.9997" stroke-linecap="round" stroke-linejoin="round" stroke-miterlimit="10" d="
			M18.1,46.5l0.6,2.8c0.1,0.6-0.3,1.1-0.9,1.1h-3.9c-0.6,0-1-0.5-0.9-1.1l0.6-2.8c0.1-0.3,0-0.6-0.2-0.8c-0.9-0.8-1.4-2-1.2-3.3
			c0.2-1.6,1.5-2.9,3.1-3.1c2.3-0.3,4.2,1.4,4.2,3.6c0,1.1-0.5,2.1-1.2,2.7C18.1,45.8,18,46.2,18.1,46.5z"/>
	</g>
</g>
</svg>
