<?xml version="1.0" encoding="utf-8"?>
<!-- Generator: Adobe Illustrator 18.0.0, SVG Export Plug-In . SVG Version: 6.00 Build 0)  -->
<!DOCTYPE svg PUBLIC "-//W3C//DTD SVG 1.1//EN" "http://www.w3.org/Graphics/SVG/1.1/DTD/svg11.dtd">
<svg version="1.1" id="Layer_1" xmlns="http://www.w3.org/2000/svg" xmlns:xlink="http://www.w3.org/1999/xlink" x="0px" y="0px"
	 viewBox="0 0 64 64" enable-background="new 0 0 64 64" xml:space="preserve">
<g>
	<path fill="#CC87FE" d="M39.2,28.4c-0.3,0.8-0.6,1.6-1,2.4c-0.2,0.5-0.3,1,0,1.5l1.8,3.8c0.3,0.6,0.2,1.4-0.3,1.9L38,39.7
		c-0.5,0.5-1.3,0.6-1.9,0.3l-3.8-1.8c-0.5-0.2-1-0.2-1.5,0c-0.8,0.4-1.6,0.7-2.4,1c-0.5,0.2-0.9,0.5-1.1,1l-1.4,4
		c-0.2,0.7-0.9,1.1-1.6,1.1h-2.5c-0.7,0-1.3-0.4-1.6-1.1l-1.4-4c-0.2-0.5-0.6-0.9-1.1-1c-0.8-0.3-1.6-0.6-2.4-1
		c-0.5-0.2-1-0.2-1.5,0L10.3,40c-0.6,0.3-1.4,0.2-1.9-0.3L6.6,38c-0.5-0.5-0.6-1.3-0.3-1.9l1.8-3.8c0.2-0.5,0.2-1,0-1.5
		c-0.4-0.8-0.7-1.6-1-2.4c-0.2-0.5-0.5-0.9-1-1.1l-4-1.3C1.4,25.7,1,25.1,1,24.4v-2.5c0-0.7,0.4-1.3,1.1-1.6l4-1.3
		c0.5-0.2,0.9-0.6,1-1.1c0.3-0.8,0.6-1.6,1-2.4c0.2-0.5,0.3-1,0-1.5l-1.8-3.8C6,9.6,6.1,8.9,6.6,8.4l1.8-1.8C8.9,6.1,9.6,6,10.3,6.3
		L14,8.1c0.5,0.2,1,0.2,1.5,0c0.8-0.4,1.6-0.7,2.4-1c0.5-0.2,0.9-0.5,1.1-1l1.4-4C20.6,1.4,21.2,1,21.9,1h2.5c0.7,0,1.3,0.4,1.6,1.1
		l1.4,4c0.2,0.5,0.6,0.9,1.1,1c0.8,0.3,1.6,0.6,2.4,1c0.5,0.2,1,0.2,1.5,0l3.8-1.8C36.7,6,37.5,6.1,38,6.6l1.8,1.8
		c0.5,0.5,0.6,1.3,0.3,1.9L38.2,14c-0.2,0.5-0.2,1,0,1.5c0.4,0.8,0.7,1.6,1,2.4c0.2,0.5,0.5,0.9,1,1.1l3.9,1.4
		c0.7,0.2,1.1,0.9,1.1,1.6v2.5c0,0.7-0.4,1.3-1.1,1.6l-3.9,1.4C39.8,27.5,39.4,27.9,39.2,28.4z"/>
	
		<path fill="none" stroke="#2A3C65" stroke-width="1.9375" stroke-linecap="round" stroke-linejoin="round" stroke-miterlimit="10" d="
		M10.1,40.1c-0.6,0.2-1.3,0.1-1.7-0.4l-1.8-1.8C6.1,37.4,6,36.7,6.3,36l1.8-3.8c0.2-0.5,0.2-1,0-1.5c-0.4-0.8-0.7-1.6-1-2.4
		c-0.2-0.5-0.5-0.9-1-1.1l-4-1.4C1.4,25.7,1,25.1,1,24.4v-2.5c0-0.7,0.4-1.3,1.1-1.6l4-1.4c0.5-0.2,0.9-0.6,1-1.1
		c0.3-0.8,0.6-1.6,1-2.4c0.2-0.5,0.3-1,0-1.5l-1.8-3.8C6,9.6,6.1,8.9,6.6,8.4l1.8-1.8C8.9,6.1,9.6,6,10.3,6.3L14,8.1
		c0.5,0.2,1,0.2,1.5,0c0.8-0.4,1.6-0.7,2.4-1c0.5-0.2,0.9-0.5,1.1-1l1.4-4C20.6,1.4,21.2,1,21.9,1h2.5c0.7,0,1.3,0.4,1.6,1.1l1.4,4
		c0.2,0.5,0.6,0.9,1.1,1c0.8,0.3,1.6,0.6,2.4,1c0.5,0.2,1,0.2,1.5,0l3.8-1.8c0.6-0.3,1.4-0.2,1.9,0.3l1.8,1.8
		c0.5,0.5,0.6,1.3,0.3,1.9l0,0"/>
	
		<path fill="none" stroke="#2A3C65" stroke-width="1.9375" stroke-linecap="round" stroke-linejoin="round" stroke-miterlimit="10" d="
		M26.6,42.5l0.8-2.3c0.2-0.5,0.6-0.9,1.1-1c0.8-0.3,1.6-0.6,2.4-1c0.5-0.2,1-0.3,1.5,0l3.8,1.8c0.6,0.3,1.4,0.2,1.9-0.3l1.8-1.8
		c0.5-0.5,0.6-1.2,0.3-1.9l-1.8-3.8c-0.2-0.5-0.2-1,0-1.5c0.4-0.8,0.7-1.6,1-2.4c0.2-0.5,0.5-0.9,1-1.1l2-0.7"/>
	<path fill="#FFFFFF" d="M34.7,23.2c0,6.4-5.2,11.5-11.5,11.5c-6.4,0-11.5-5.2-11.5-11.5s5.2-11.5,11.5-11.5
		C29.5,11.6,34.7,16.8,34.7,23.2z"/>
	
		<path fill="none" stroke="#2A3C65" stroke-width="1.9375" stroke-linecap="round" stroke-linejoin="round" stroke-miterlimit="10" d="
		M11.7,22.3L11.7,22.3c0.4-5.7,5.1-10.3,10.8-10.7l0,0"/>
	
		<path fill="none" stroke="#2A3C65" stroke-width="1.9375" stroke-linecap="round" stroke-linejoin="round" stroke-miterlimit="10" d="
		M34.6,21.9c0,0.4,0.1,0.8,0.1,1.2c0,6.3-5.2,11.5-11.5,11.5c-0.5,0-0.9,0-1.4-0.1"/>
	
		<path fill="#FFD880" stroke="#2A3C65" stroke-width="1.9375" stroke-linecap="round" stroke-linejoin="round" stroke-miterlimit="10" d="
		M52.5,48.8l-3.7,3.7c-1.2,1.1-3,1.1-4.2,0l-4-4l7.8-7.9l4.1,4.1C53.7,45.8,53.7,47.7,52.5,48.8z"/>
	
		<path fill="#C7D9F9" stroke="#2A3C65" stroke-width="1.9375" stroke-linecap="round" stroke-linejoin="round" stroke-miterlimit="10" d="
		M53.3,48L48,53.3l8.6,8.6c0.7,0.7,1.7,1.1,2.6,1.1c1,0,1.9-0.4,2.6-1.1c1.5-1.5,1.5-3.8,0-5.3L53.3,48z"/>
	<path fill="#38FCC4" d="M33,13.1c-11.1,0-20.1,9-20.1,20.1s9,20.1,20.1,20.1s20.1-9,20.1-20.1S44.1,13.1,33,13.1z M33,48.4
		c-8.4,0-15.2-6.8-15.2-15.2S24.6,18,33,18s15.2,6.8,15.2,15.2S41.4,48.4,33,48.4z"/>
	
		<path fill="none" stroke="#2A3C65" stroke-width="1.877" stroke-linecap="round" stroke-linejoin="round" stroke-miterlimit="10" d="
		M33,13.1c-11.1,0-20.1,9-20.1,20.1s9,20.1,20.1,20.1s20.1-9,20.1-20.1S44.1,13.1,33,13.1z M33,48.4c-8.4,0-15.2-6.8-15.2-15.2
		S24.6,18,33,18s15.2,6.8,15.2,15.2S41.4,48.4,33,48.4z"/>
	<path opacity="0.5" fill="#E3ECFF" enable-background="new    " d="M48.2,33.2c0,8.4-6.8,15.2-15.2,15.2s-15.2-6.8-15.2-15.2
		S24.6,18,33,18C41.4,17.9,48.2,24.8,48.2,33.2z"/>
	
		<path fill="none" stroke="#2A3C65" stroke-width="1.9375" stroke-linecap="round" stroke-linejoin="round" stroke-miterlimit="10" d="
		M48.2,33.2c0,8.4-6.8,15.2-15.2,15.2s-15.2-6.8-15.2-15.2S24.6,18,33,18C41.4,17.9,48.2,24.8,48.2,33.2z"/>
</g>
</svg>
