<?xml version="1.0" encoding="utf-8"?>
<!-- Generator: Adobe Illustrator 18.0.0, SVG Export Plug-In . SVG Version: 6.00 Build 0)  -->
<!DOCTYPE svg PUBLIC "-//W3C//DTD SVG 1.1//EN" "http://www.w3.org/Graphics/SVG/1.1/DTD/svg11.dtd">
<svg version="1.1" id="Layer_1" xmlns="http://www.w3.org/2000/svg" xmlns:xlink="http://www.w3.org/1999/xlink" x="0px" y="0px"
	 viewBox="0 0 64 64" enable-background="new 0 0 64 64" xml:space="preserve">
<g>
	<path fill="#27D1FF" d="M8.5,3.8H5c-2.2,0-4,1.8-4,4V41h4h54h4V7.8c0-2.2-1.8-4-4-4h-3.5C55.5,3.8,8.5,3.8,8.5,3.8z"/>
	<path fill="#FFD880" d="M56.1,16.8v1.8c0,1.7-1.3,3-3,3H10.9c-1.7,0-3-1.3-3-3v-1.8c0-1.7,1.3-3,3-3h42.2
		C54.7,13.8,56.1,15.1,56.1,16.8z"/>
	<path fill="#E3ECFF" d="M17.2,13.8h-6.3c-1.7,0-3,1.3-3,3v1.8c0,1.7,1.3,3,3,3h6.3V13.8z"/>
	<path fill="none" stroke="#2A3C65" stroke-width="2" stroke-linecap="round" stroke-linejoin="round" stroke-miterlimit="10" d="
		M18.9,21.6h-8c-1.7,0-3-1.3-3-3v-1.8c0-1.7,1.3-3,3-3h9"/>
	<path fill="none" stroke="#2A3C65" stroke-width="2" stroke-linecap="round" stroke-linejoin="round" stroke-miterlimit="10" d="
		M47.8,13.8h5.3c1.7,0,3,1.3,3,3v1.8c0,1.7-1.3,3-3,3h-4.3"/>
	<path fill="none" stroke="#2A3C65" stroke-width="2" stroke-linecap="round" stroke-linejoin="round" stroke-miterlimit="10" d="
		M17.2,13.8h-6.3c-1.7,0-3,1.3-3,3v1.8c0,1.7,1.3,3,3,3h6.3V13.8z"/>
	
		<path fill="#FF7DAF" stroke="#2A3C65" stroke-width="2" stroke-linecap="round" stroke-linejoin="round" stroke-miterlimit="10" d="
		M43.4,25.2l6.9,7.5c1.2,1.3,1.1,3.3-0.2,4.5c-0.7,0.6-1.5,0.9-2.3,0.8c-0.8,0-1.6-0.4-2.2-1l-6.9-7.5"/>
	<path opacity="0.5" fill="#FFFFFF" enable-background="new    " d="M34.3,8.5c6.1,0.3,10.9,5.4,10.6,11.5
		c-0.3,6.1-5.4,10.9-11.5,10.6c-2-0.1-3.9-0.7-5.5-1.7c-3.2-2.1-5.3-5.7-5.1-9.8c0.2-4.1,2.5-7.6,5.9-9.3
		C30.3,8.9,32.2,8.4,34.3,8.5z"/>
	<path fill="none" d="M34.3,8.5c6.1,0.3,10.9,5.4,10.6,11.5c-0.3,6.1-5.4,10.9-11.5,10.6c-2-0.1-3.9-0.7-5.5-1.7
		c-3.2-2.1-5.3-5.7-5.1-9.8c0.2-4.1,2.5-7.6,5.9-9.3C30.3,8.9,32.2,8.4,34.3,8.5z"/>
	<path fill="none" stroke="#2A3C65" stroke-width="2" stroke-linecap="round" stroke-linejoin="round" stroke-miterlimit="10" d="
		M34.3,8.5c6.1,0.3,10.9,5.4,10.6,11.5c-0.3,6.1-5.4,10.9-11.5,10.6c-2-0.1-3.9-0.7-5.5-1.7c-3.2-2.1-5.3-5.7-5.1-9.8
		c0.2-4.1,2.5-7.6,5.9-9.3C30.3,8.9,32.2,8.4,34.3,8.5z"/>
	
		<path fill="#C7D9F9" stroke="#2A3C65" stroke-width="2" stroke-linecap="round" stroke-linejoin="round" stroke-miterlimit="10" d="
		M47.4,58.9v1.3H16.6v-1.3c0-1.6,1.3-3,2.9-3h25C46.1,55.9,47.4,57.2,47.4,58.9z"/>
	<path fill="#E3ECFF" d="M1,41v3.8c0,2.2,1.8,4,4,4h54c2.2,0,4-1.8,4-4V41H1z"/>
	<path fill="none" stroke="#2A3C65" stroke-width="2" stroke-linecap="round" stroke-linejoin="round" stroke-miterlimit="10" d="
		M63,7.8v37c0,2.2-1.8,4-4,4H5c-2.2,0-4-1.8-4-4v-37c0-2.2,1.8-4,4-4h54C61.2,3.8,63,5.6,63,7.8z"/>
	
		<polygon fill="#E3ECFF" stroke="#2A3C65" stroke-width="2" stroke-linecap="round" stroke-linejoin="round" stroke-miterlimit="10" points="
		42.8,55.9 40.2,48.8 23.8,48.8 21.2,55.9 	"/>
	
		<line fill="none" stroke="#2A3C65" stroke-width="2" stroke-linecap="round" stroke-linejoin="round" stroke-miterlimit="10" x1="59" y1="41" x2="5" y2="41"/>
</g>
</svg>
