<?xml version="1.0" encoding="utf-8"?>
<!-- Generator: Adobe Illustrator 24.1.1, SVG Export Plug-In . SVG Version: 6.00 Build 0)  -->
<svg version="1.1" id="Layer_1" xmlns="http://www.w3.org/2000/svg" xmlns:xlink="http://www.w3.org/1999/xlink" x="0px" y="0px"
	 viewBox="0 0 64 64" style="enable-background:new 0 0 64 64;" xml:space="preserve">
<style type="text/css">
	.st0{fill:#38FCC4;}
	.st1{fill:#1DE9B6;}
	.st2{fill:none;stroke:#2A3C65;stroke-width:2.0667;stroke-linecap:round;stroke-linejoin:round;stroke-miterlimit:10;}
	.st3{fill:#E3ECFF;}
	.st4{fill:#C7D9F9;}
	.st5{fill:#FFD880;}
	.st6{fill:#FECB4D;}
	.st7{fill:#FF7DAF;}
	.st8{fill:#FFFFFF;stroke:#2A3C65;stroke-width:2.0667;stroke-linecap:round;stroke-linejoin:round;stroke-miterlimit:10;}
	.st9{fill:none;stroke:#2A3C65;stroke-width:2.1673;stroke-linecap:round;stroke-linejoin:round;stroke-miterlimit:10;}
	.st10{fill:#FFFFFF;}
	.st11{fill:#12D69E;}
	.st12{fill:none;stroke:#2A3C65;stroke-width:2.0666;stroke-linecap:round;stroke-linejoin:round;stroke-miterlimit:10;}
	.st13{fill:#B0CDF7;}
	.st14{fill:#CC87FE;}
	.st15{fill:#FFFFFF;stroke:#2A3C65;stroke-width:2.0666;stroke-linecap:round;stroke-linejoin:round;stroke-miterlimit:10;}
	.st16{fill:none;stroke:#2A3C65;stroke-width:2;stroke-linecap:round;stroke-linejoin:round;stroke-miterlimit:10;}
	.st17{opacity:0.5;fill:#E3ECFF;}
	.st18{fill:#FFFFFF;stroke:#2A3C65;stroke-width:2;stroke-linecap:round;stroke-linejoin:round;stroke-miterlimit:10;}
	.st19{fill:none;stroke:#2A3C65;stroke-width:2.0329;stroke-linecap:round;stroke-linejoin:round;stroke-miterlimit:10;}
	.st20{fill:#D5A6FF;}
	.st21{fill:#E3ECFF;stroke:#2A3C65;stroke-width:2.0329;stroke-linecap:round;stroke-linejoin:round;stroke-miterlimit:10;}
	.st22{fill:#27D1FF;stroke:#2A3C65;stroke-width:2.0329;stroke-linecap:round;stroke-linejoin:round;stroke-miterlimit:10;}
	.st23{fill:#FF5892;}
	.st24{fill:#FFFFFF;stroke:#2A3C65;stroke-width:2.0329;stroke-linecap:round;stroke-linejoin:round;stroke-miterlimit:10;}
	.st25{fill:none;stroke:#2A3C65;stroke-width:2.0295;stroke-linecap:round;stroke-linejoin:round;stroke-miterlimit:10;}
	.st26{fill:#27D1FF;}
	.st27{fill:#FFFFFF;stroke:#2A3C65;stroke-width:2.0295;stroke-linecap:round;stroke-linejoin:round;stroke-miterlimit:10;}
	.st28{fill:none;stroke:#2A3C65;stroke-width:1.9375;stroke-linecap:round;stroke-linejoin:round;stroke-miterlimit:10;}
	.st29{fill:#FFFFFF;stroke:#2A3C65;stroke-width:1.9375;stroke-linecap:round;stroke-linejoin:round;stroke-miterlimit:10;}
	.st30{fill:#2A3C65;}
	.st31{fill:none;stroke:#2A3C65;stroke-width:2.0609;stroke-linecap:round;stroke-linejoin:round;stroke-miterlimit:10;}
	.st32{fill:#FFFFFF;stroke:#2A3C65;stroke-width:2.0609;stroke-linecap:round;stroke-linejoin:round;stroke-miterlimit:10;}
	.st33{fill:#02BEFF;}
	.st34{fill:none;stroke:#2A3C65;stroke-width:1.9154;stroke-linecap:round;stroke-linejoin:round;stroke-miterlimit:10;}
	.st35{fill:#FF7DAF;stroke:#2A3C65;stroke-width:1.9154;stroke-linecap:round;stroke-linejoin:round;stroke-miterlimit:10;}
	.st36{fill:#FFD880;stroke:#2A3C65;stroke-width:2.1563;stroke-linecap:round;stroke-linejoin:round;stroke-miterlimit:10;}
	.st37{fill:none;stroke:#2A3C65;stroke-width:2.1563;stroke-linecap:round;stroke-linejoin:round;stroke-miterlimit:10;}
	.st38{fill:none;stroke:#2A3C65;stroke-width:2.1269;stroke-linecap:round;stroke-linejoin:round;stroke-miterlimit:10;}
	.st39{fill:#FFFFFF;stroke:#2A3C65;stroke-width:2.1269;stroke-linecap:round;stroke-linejoin:round;stroke-miterlimit:10;}
	.st40{fill:#FFD880;stroke:#2A3C65;stroke-width:2;stroke-linecap:round;stroke-linejoin:round;stroke-miterlimit:10;}
	.st41{fill:#E3ECFF;stroke:#2A3C65;stroke-width:2;stroke-linecap:round;stroke-linejoin:round;stroke-miterlimit:10;}
	.st42{fill:#E3ECFF;stroke:#2A3C65;stroke-width:2.009;stroke-linecap:round;stroke-linejoin:round;stroke-miterlimit:10;}
	.st43{fill:none;stroke:#2A3C65;stroke-width:2.009;stroke-linecap:round;stroke-linejoin:round;stroke-miterlimit:10;}
	.st44{fill:#FF5892;stroke:#2A3C65;stroke-width:2.009;stroke-linecap:round;stroke-linejoin:round;stroke-miterlimit:10;}
	.st45{fill:#27D1FF;stroke:#2A3C65;stroke-width:2;stroke-linecap:round;stroke-linejoin:round;stroke-miterlimit:10;}
	.st46{fill:#FF7DAF;stroke:#2A3C65;stroke-width:2.0666;stroke-linecap:round;stroke-linejoin:round;stroke-miterlimit:10;}
	.st47{fill:none;stroke:#2A3C65;stroke-width:1.9315;stroke-linecap:round;stroke-linejoin:round;stroke-miterlimit:10;}
	.st48{fill:#F9B826;}
	.st49{fill:#2A3C65;stroke:#2A3C65;stroke-width:2;stroke-linecap:round;stroke-linejoin:round;stroke-miterlimit:10;}
	.st50{fill:none;}
	.st51{fill:none;stroke:#2A3C65;stroke-width:1.9999;stroke-linecap:round;stroke-linejoin:round;stroke-miterlimit:10;}
	.st52{fill:#00ADDB;}
	.st53{fill:none;stroke:#2A3C65;stroke-width:2.0001;stroke-linecap:round;stroke-linejoin:round;stroke-miterlimit:10;}
	.st54{fill:#FF7DAF;stroke:#2A3C65;stroke-width:2.0001;stroke-linecap:round;stroke-linejoin:round;stroke-miterlimit:10;}
	.st55{fill:none;stroke:#2A3C65;stroke-width:2.0334;stroke-linecap:round;stroke-linejoin:round;stroke-miterlimit:10;}
	.st56{fill:#E3ECFF;stroke:#2A3C65;stroke-width:2.0334;stroke-linecap:round;stroke-linejoin:round;stroke-miterlimit:10;}
	.st57{fill:#02BEFF;stroke:#2A3C65;stroke-width:2;stroke-linecap:round;stroke-linejoin:round;stroke-miterlimit:10;}
	.st58{fill:#FECB4D;stroke:#2A3C65;stroke-width:2;stroke-linecap:round;stroke-linejoin:round;stroke-miterlimit:10;}
	.st59{fill:none;stroke:#2A3C65;stroke-width:1.9481;stroke-linecap:round;stroke-linejoin:round;stroke-miterlimit:10;}
	.st60{fill:#38FCC4;stroke:#2A3C65;stroke-width:1.9481;stroke-linecap:round;stroke-linejoin:round;stroke-miterlimit:10;}
	.st61{fill:none;stroke:#2A3C65;stroke-width:1.993;stroke-linecap:round;stroke-linejoin:round;stroke-miterlimit:10;}
	.st62{fill:#27D1FF;stroke:#2A3C65;stroke-width:1.9999;stroke-linecap:round;stroke-linejoin:round;stroke-miterlimit:10;}
	.st63{fill:#E3ECFF;stroke:#2A3C65;stroke-width:1.9999;stroke-linecap:round;stroke-linejoin:round;stroke-miterlimit:10;}
	.st64{fill:#FF7DAF;stroke:#2A3C65;stroke-width:1.9999;stroke-linecap:round;stroke-linejoin:round;stroke-miterlimit:10;}
	.st65{fill:none;stroke:#2A3C65;stroke-width:2.0003;stroke-linecap:round;stroke-linejoin:round;stroke-miterlimit:10;}
	.st66{fill:#FF7DAF;stroke:#2A3C65;stroke-width:2.0003;stroke-linecap:round;stroke-linejoin:round;stroke-miterlimit:10;}
	.st67{fill:#B45FFF;}
	.st68{fill:none;stroke:#2A3C65;stroke-width:1.8975;stroke-linecap:round;stroke-linejoin:round;stroke-miterlimit:10;}
	
		.st69{fill:none;stroke:#2A3C65;stroke-width:1.8975;stroke-linecap:round;stroke-linejoin:round;stroke-miterlimit:10;stroke-dasharray:2.8463;}
	.st70{fill:#27D1FF;stroke:#2A3C65;stroke-width:1.8975;stroke-linecap:round;stroke-linejoin:round;stroke-miterlimit:10;}
</style>
<g>
	<g>
		<path class="st5" d="M59.35,16.51v14.23c0,5.43-1.13,10.85-3.51,15.71c-4.39,9-11.75,14.01-23.15,16.48c-0.46,0.1-0.95,0.1-1.39,0
			c-11.4-2.48-18.76-7.49-23.15-16.48c-2.38-4.86-3.51-10.27-3.51-15.71V16.51c0-1.58,1.17-2.9,2.74-3.15
			c11.59-1.81,18.9-7.82,22.32-11.38c1.25-1.31,3.33-1.31,4.58,0c3.41,3.56,10.72,9.57,22.32,11.38
			C58.19,13.6,59.35,14.92,59.35,16.51z"/>
		<path class="st6" d="M59.36,16.51v14.23c0,5.43-1.13,10.85-3.51,15.71c-4.39,9-11.75,14.01-23.16,16.48c-0.45,0.1-0.95,0.1-1.38,0
			c-9.9-2.15-16.76-6.21-21.27-13.13c3.65,2.36,8.05,4.04,13.3,5.18c0.45,0.1,0.94,0.1,1.39,0c11.4-2.48,18.76-7.49,23.15-16.48
			c2.38-4.86,3.51-10.27,3.51-15.71V12.21c1.63,0.47,3.37,0.86,5.21,1.15C58.19,13.6,59.36,14.92,59.36,16.51z"/>
		<path class="st38" d="M59.35,16.51v14.23c0,5.43-1.13,10.85-3.51,15.71c-4.39,9-11.75,14.01-23.15,16.48
			c-0.46,0.1-0.95,0.1-1.39,0c-11.4-2.48-18.76-7.49-23.15-16.48c-2.38-4.86-3.51-10.27-3.51-15.71V16.51c0-1.58,1.17-2.9,2.74-3.15
			c11.59-1.81,18.9-7.82,22.32-11.38c1.25-1.31,3.33-1.31,4.58,0c3.41,3.56,10.72,9.57,22.32,11.38
			C58.19,13.6,59.35,14.92,59.35,16.51z"/>
		<path class="st3" d="M32,57.64c-9.81-2.21-15.53-6.27-19.07-13.52c-1.94-3.97-2.97-8.59-2.97-13.37V18.31
			C20.63,16.23,27.91,10.99,32,7.18c4.07,3.81,11.35,9.05,22.04,11.12v12.43c0,4.79-1.03,9.41-2.97,13.37
			C47.53,51.36,41.81,55.42,32,57.64z"/>
		<path class="st4" d="M54.04,18.3v12.43c0,4.79-1.03,9.41-2.97,13.37C47.52,51.37,41.81,55.43,32,57.64
			c-9.14-2.06-14.71-5.72-18.29-12.06c2.7,1.51,5.92,2.67,9.77,3.54c9.82-2.21,15.54-6.27,19.08-13.53
			c1.95-3.97,2.97-8.58,2.97-13.37v-6.46C48.08,16.81,50.92,17.7,54.04,18.3z"/>
		<path class="st38" d="M32,57.64c-9.81-2.21-15.53-6.27-19.07-13.52c-1.94-3.97-2.97-8.59-2.97-13.37V18.31
			C20.63,16.23,27.91,10.99,32,7.18c4.07,3.81,11.35,9.05,22.04,11.12v12.43c0,4.79-1.03,9.41-2.97,13.37
			C47.53,51.36,41.81,55.42,32,57.64z"/>
		<path class="st7" d="M41.62,35.89c-0.11,0.32-0.24,0.64-0.39,0.95c-0.22,0.48-0.18,1.04,0.13,1.46l1.36,1.86
			c0.42,0.57,0.36,1.35-0.14,1.86l-1.07,1.09c-0.5,0.51-1.31,0.57-1.88,0.14l-1.8-1.34c-0.43-0.32-1-0.37-1.49-0.14
			c-0.29,0.14-0.6,0.27-0.91,0.38c-0.5,0.18-0.86,0.61-0.94,1.13l-0.34,2.26c-0.11,0.7-0.71,1.22-1.42,1.22h-1.5
			c-0.71,0-1.31-0.52-1.42-1.22l-0.34-2.26c-0.08-0.52-0.44-0.95-0.94-1.13c-0.31-0.11-0.61-0.24-0.91-0.38
			c-0.48-0.23-1.05-0.18-1.49,0.14l-1.8,1.34c-0.57,0.43-1.38,0.37-1.88-0.14l-1.07-1.09c-0.49-0.5-0.55-1.29-0.14-1.86l1.36-1.86
			c0.31-0.43,0.36-0.98,0.13-1.46c-0.14-0.31-0.27-0.62-0.39-0.95c-0.18-0.5-0.61-0.86-1.13-0.94l-2.22-0.34
			c-0.7-0.11-1.22-0.71-1.22-1.42v-1.56c0-0.71,0.52-1.31,1.22-1.42l2.22-0.34c0.52-0.08,0.96-0.45,1.13-0.95
			c0.11-0.32,0.24-0.64,0.39-0.94c0.23-0.48,0.18-1.04-0.13-1.46l-1.35-1.86c-0.42-0.57-0.36-1.35,0.14-1.86l1.07-1.09
			c0.5-0.51,1.3-0.57,1.88-0.14l1.8,1.34c0.43,0.32,1,0.37,1.49,0.14c0.29-0.14,0.59-0.27,0.9-0.38c0.5-0.18,0.86-0.61,0.94-1.14
			l0.34-2.27c0.11-0.7,0.71-1.22,1.42-1.22h1.5c0.71,0,1.31,0.52,1.42,1.22l0.34,2.27c0.08,0.52,0.44,0.96,0.94,1.14
			c0.31,0.11,0.61,0.24,0.9,0.38c0.48,0.23,1.05,0.18,1.49-0.14l1.8-1.34c0.57-0.43,1.38-0.37,1.88,0.14l1.07,1.09
			c0.5,0.5,0.55,1.29,0.14,1.86l-1.35,1.86c-0.31,0.43-0.36,0.99-0.13,1.46c0.14,0.31,0.27,0.62,0.39,0.94
			c0.18,0.5,0.61,0.87,1.13,0.95l2.22,0.34c0.7,0.11,1.22,0.71,1.22,1.42v1.56c0,0.71-0.52,1.31-1.22,1.42l-2.22,0.34
			C42.23,35.03,41.8,35.39,41.62,35.89z"/>
		<path class="st23" d="M32,42.34c-0.36-1.24-1.3-2.25-2.54-2.7c-0.23-0.08-0.45-0.18-0.67-0.28c-0.55-0.26-1.17-0.41-1.78-0.41
			c-0.7,0-1.38,0.17-1.98,0.51c0.65-1.15,0.71-2.55,0.13-3.77c-0.11-0.23-0.2-0.46-0.29-0.7c-0.46-1.28-1.51-2.25-2.8-2.59
			c1.29-0.34,2.35-1.31,2.8-2.59c0.09-0.24,0.18-0.47,0.29-0.7c0.57-1.22,0.52-2.62-0.14-3.77c0.6,0.34,1.28,0.51,1.98,0.51
			c0.61,0,1.23-0.14,1.78-0.41c0.22-0.1,0.44-0.2,0.66-0.28c1.24-0.45,2.18-1.46,2.54-2.7c0.36,1.24,1.3,2.25,2.54,2.7
			c0.22,0.08,0.44,0.17,0.66,0.28c0.56,0.27,1.17,0.41,1.79,0.41c0.7,0,1.38-0.18,1.98-0.51c-0.65,1.15-0.71,2.55-0.14,3.77
			c0.11,0.23,0.2,0.46,0.29,0.7c0.45,1.29,1.51,2.25,2.8,2.59c-1.3,0.35-2.35,1.31-2.8,2.59c-0.08,0.24-0.18,0.47-0.29,0.7
			c-0.57,1.22-0.51,2.62,0.13,3.77c-0.6-0.33-1.28-0.51-1.98-0.51c-0.61,0-1.23,0.14-1.78,0.41c-0.21,0.1-0.44,0.2-0.66,0.28
			C33.3,40.1,32.36,41.1,32,42.34z"/>
		<path class="st38" d="M41.62,35.89c-0.11,0.32-0.24,0.64-0.39,0.95c-0.22,0.48-0.18,1.04,0.13,1.46l1.36,1.86
			c0.42,0.57,0.36,1.35-0.14,1.86l-1.07,1.09c-0.5,0.51-1.31,0.57-1.88,0.14l-1.8-1.34c-0.43-0.32-1-0.37-1.49-0.14
			c-0.29,0.14-0.6,0.27-0.91,0.38c-0.5,0.18-0.86,0.61-0.94,1.13l-0.34,2.26c-0.11,0.7-0.71,1.22-1.42,1.22h-1.5
			c-0.71,0-1.31-0.52-1.42-1.22l-0.34-2.26c-0.08-0.52-0.44-0.95-0.94-1.13c-0.31-0.11-0.61-0.24-0.91-0.38
			c-0.48-0.23-1.05-0.18-1.49,0.14l-1.8,1.34c-0.57,0.43-1.38,0.37-1.88-0.14l-1.07-1.09c-0.49-0.5-0.55-1.29-0.14-1.86l1.36-1.86
			c0.31-0.43,0.36-0.98,0.13-1.46c-0.14-0.31-0.27-0.62-0.39-0.95c-0.18-0.5-0.61-0.86-1.13-0.94l-2.22-0.34
			c-0.7-0.11-1.22-0.71-1.22-1.42v-1.56c0-0.71,0.52-1.31,1.22-1.42l2.22-0.34c0.52-0.08,0.96-0.45,1.13-0.95
			c0.11-0.32,0.24-0.64,0.39-0.94c0.23-0.48,0.18-1.04-0.13-1.46l-1.35-1.86c-0.42-0.57-0.36-1.35,0.14-1.86l1.07-1.09
			c0.5-0.51,1.3-0.57,1.88-0.14l1.8,1.34c0.43,0.32,1,0.37,1.49,0.14c0.29-0.14,0.59-0.27,0.9-0.38c0.5-0.18,0.86-0.61,0.94-1.14
			l0.34-2.27c0.11-0.7,0.71-1.22,1.42-1.22h1.5c0.71,0,1.31,0.52,1.42,1.22l0.34,2.27c0.08,0.52,0.44,0.96,0.94,1.14
			c0.31,0.11,0.61,0.24,0.9,0.38c0.48,0.23,1.05,0.18,1.49-0.14l1.8-1.34c0.57-0.43,1.38-0.37,1.88,0.14l1.07,1.09
			c0.5,0.5,0.55,1.29,0.14,1.86l-1.35,1.86c-0.31,0.43-0.36,0.99-0.13,1.46c0.14,0.31,0.27,0.62,0.39,0.94
			c0.18,0.5,0.61,0.87,1.13,0.95l2.22,0.34c0.7,0.11,1.22,0.71,1.22,1.42v1.56c0,0.71-0.52,1.31-1.22,1.42l-2.22,0.34
			C42.23,35.03,41.8,35.39,41.62,35.89z"/>
		<circle class="st39" cx="32" cy="32.41" r="5.35"/>
	</g>
</g>
</svg>
