<?xml version="1.0" encoding="utf-8"?>
<!-- Generator: Adobe Illustrator 18.0.0, SVG Export Plug-In . SVG Version: 6.00 Build 0)  -->
<!DOCTYPE svg PUBLIC "-//W3C//DTD SVG 1.1//EN" "http://www.w3.org/Graphics/SVG/1.1/DTD/svg11.dtd">
<svg version="1.1" id="Layer_1" xmlns="http://www.w3.org/2000/svg" xmlns:xlink="http://www.w3.org/1999/xlink" x="0px" y="0px"
	 viewBox="0 0 64 64" enable-background="new 0 0 64 64" xml:space="preserve">
<g>
	<rect x="14.5" y="8" fill="#77C9AE" width="43.6" height="45.9"/>
	
		<polyline fill="none" stroke="#2B3C65" stroke-width="2" stroke-linecap="round" stroke-linejoin="round" stroke-miterlimit="10" points="
		14.5,22 14.5,8 58.2,8 58.2,22.5 58.2,39.4 58.2,44 58.2,53.9 31.2,53.9 14.5,53.9 14.5,44 	"/>
	<path fill="#C9D8EF" d="M59,17.8H13.7c-2.2,0-4-1.8-4-4V5c0-2.2,1.8-4,4-4H59c2.2,0,4,1.8,4,4v8.8C63,16.1,61.2,17.8,59,17.8z"/>
	<path fill="#B2CBEA" d="M63,5v8.8c0,2.2-1.8,4-4,4H13.7c-1.8,0-3.4-1.3-3.9-3c0.3,0.1,0.7,0.1,1,0.1h36.4c3.6,0,6.8-1.4,9.1-3.8
		c2.3-2.3,3.8-5.5,3.8-9.1c0-0.4,0-0.7-0.2-1.1C61.8,1.6,63,3.1,63,5z"/>
	<path fill="none" stroke="#2B3C65" stroke-width="2" stroke-linecap="round" stroke-linejoin="round" stroke-miterlimit="10" d="
		M59,17.8H13.7c-2.2,0-4-1.8-4-4V5c0-2.2,1.8-4,4-4H59c2.2,0,4,1.8,4,4v8.8C63,16.1,61.2,17.8,59,17.8z"/>
	
		<circle fill="#45C8F5" stroke="#2B3C65" stroke-width="2" stroke-linecap="round" stroke-linejoin="round" stroke-miterlimit="10" cx="55.2" cy="9.4" r="2.9"/>
	
		<circle fill="#F27DAD" stroke="#2B3C65" stroke-width="2" stroke-linecap="round" stroke-linejoin="round" stroke-miterlimit="10" cx="46.5" cy="9.4" r="2.9"/>
	
		<circle fill="#FECB4D" stroke="#2B3C65" stroke-width="2" stroke-linecap="round" stroke-linejoin="round" stroke-miterlimit="10" cx="37.7" cy="9.4" r="2.9"/>
	
		<line fill="none" stroke="#2B3C65" stroke-width="2" stroke-linecap="round" stroke-linejoin="round" stroke-miterlimit="10" x1="14.5" y1="7.2" x2="29" y2="7.2"/>
	
		<line fill="none" stroke="#2B3C65" stroke-width="2" stroke-linecap="round" stroke-linejoin="round" stroke-miterlimit="10" x1="14.5" y1="11.6" x2="29" y2="11.6"/>
	<path fill="#C9D8EF" d="M59,39.4H13.7c-2.2,0-4-1.8-4-4v-8.8c0-2.2,1.8-4,4-4H59c2.2,0,4,1.8,4,4v8.8C63,37.6,61.2,39.4,59,39.4z"
		/>
	<path fill="#B2CBEA" d="M63,26.5v8.8c0,2.2-1.8,4-4,4H13.7c-1.8,0-3.4-1.3-3.9-3c0.3,0.1,0.7,0.1,1,0.1h36.4c3.6,0,6.8-1.4,9.1-3.8
		c2.3-2.3,3.8-5.5,3.8-9.1c0-0.4,0-0.7-0.2-1.1C61.8,23.1,63,24.7,63,26.5z"/>
	<path fill="none" stroke="#2B3C65" stroke-width="2" stroke-linecap="round" stroke-linejoin="round" stroke-miterlimit="10" d="
		M35,39.4h23.2H59c2.2,0,4-1.8,4-4v-8.8c0-2.2-1.8-4-4-4h-0.8H18.9"/>
	
		<circle fill="#45C8F5" stroke="#2B3C65" stroke-width="2" stroke-linecap="round" stroke-linejoin="round" stroke-miterlimit="10" cx="55.2" cy="30.9" r="2.9"/>
	
		<circle fill="#F27DAD" stroke="#2B3C65" stroke-width="2" stroke-linecap="round" stroke-linejoin="round" stroke-miterlimit="10" cx="46.5" cy="30.9" r="2.9"/>
	
		<circle fill="#FECB4D" stroke="#2B3C65" stroke-width="2" stroke-linecap="round" stroke-linejoin="round" stroke-miterlimit="10" cx="37.7" cy="30.9" r="2.9"/>
	<path fill="#C9D8EF" d="M59,60.9H13.7c-2.2,0-4-1.8-4-4v-8.8c0-2.2,1.8-4,4-4H59c2.2,0,4,1.8,4,4v8.8C63,59.1,61.2,60.9,59,60.9z"
		/>
	<path fill="#B2CBEA" d="M63,48.1v8.8c0,2.2-1.8,4-4,4H13.7c-1.8,0-3.4-1.3-3.9-3c0.3,0.1,0.7,0.1,1,0.1h36.4c3.6,0,6.8-1.4,9.1-3.8
		c2.3-2.3,3.8-5.5,3.8-9.1c0-0.4,0-0.7-0.2-1.1C61.8,44.7,63,46.2,63,48.1z"/>
	<path fill="none" stroke="#2B3C65" stroke-width="2" stroke-linecap="round" stroke-linejoin="round" stroke-miterlimit="10" d="
		M34.5,44h23.7H59c2.2,0,4,1.8,4,4v8.9c0,2.2-1.8,4-4,4H26.5"/>
	
		<circle fill="#45C8F5" stroke="#2B3C65" stroke-width="2" stroke-linecap="round" stroke-linejoin="round" stroke-miterlimit="10" cx="55.2" cy="52.5" r="2.9"/>
	
		<circle fill="#F27DAD" stroke="#2B3C65" stroke-width="2" stroke-linecap="round" stroke-linejoin="round" stroke-miterlimit="10" cx="46.5" cy="52.5" r="2.9"/>
	
		<circle fill="#FECB4D" stroke="#2B3C65" stroke-width="2" stroke-linecap="round" stroke-linejoin="round" stroke-miterlimit="10" cx="37.7" cy="52.5" r="2.9"/>
	<path fill="#FECB4D" d="M29.6,32.9c0.9,0.2,1.5,1,1.5,1.9v2.1c0,5.4-1.2,10.8-3.6,15.6c-2.6,5-6.1,8.6-10.7,10.4
		c-0.4,0.2-0.9,0.2-1.3,0c-4.6-1.7-8.1-5.4-10.7-10.4C2.2,47.7,1,42.3,1,36.9v-2.1c0-0.9,0.6-1.7,1.5-1.9c5.4-1.1,9.4-3.4,12.2-6.5
		c0.7-0.8,2.1-0.8,2.8,0C20.2,29.5,24.2,31.8,29.6,32.9z"/>
	<path fill="none" stroke="#2B3C65" stroke-width="2" stroke-linecap="round" stroke-linejoin="round" stroke-miterlimit="10" d="
		M29.6,32.9c0.9,0.2,1.5,1,1.5,1.9v2.1c0,5.4-1.2,10.8-3.6,15.6c-2.6,5-6.1,8.6-10.7,10.4c-0.4,0.2-0.9,0.2-1.3,0
		c-4.6-1.7-8.1-5.4-10.7-10.4C2.2,47.7,1,42.3,1,36.9v-2.1c0-0.9,0.6-1.7,1.5-1.9c5.4-1.1,9.4-3.4,12.2-6.5c0.7-0.8,2.1-0.8,2.8,0
		C20.2,29.5,24.2,31.8,29.6,32.9z"/>
	<path fill="#45C8F5" d="M16.1,58.8c-3.2-1.4-5.7-4.1-7.8-8.2C6.1,46.6,5,41.9,5,36.9v-0.5c4.4-1.2,8.1-3.1,11.1-5.7
		c2.9,2.6,6.6,4.6,11.1,5.7v0.5c0,5-1.1,9.7-3.2,13.7C21.8,54.7,19.2,57.4,16.1,58.8z"/>
	<path fill="#42BAEB" d="M27.1,36.4v0.5c0,5-1.1,9.7-3.2,13.7c-2.1,4.1-4.7,6.8-7.9,8.2c-3-1.3-5.4-3.8-7.4-7.4
		c4.1,2.7,10.1,1.6,12.6-3.2c0,0,0-0.1,0.1-0.1c1.9-3.7,3-8,3.2-12.5C25.3,35.9,26.2,36.2,27.1,36.4z"/>
	<path fill="none" stroke="#2B3C65" stroke-width="2" stroke-linecap="round" stroke-linejoin="round" stroke-miterlimit="10" d="
		M16.1,58.8c-3.2-1.4-5.7-4.1-7.8-8.2C6.1,46.6,5,41.9,5,36.9v-0.5c4.4-1.2,8.1-3.1,11.1-5.7c2.9,2.6,6.6,4.6,11.1,5.7v0.5
		c0,5-1.1,9.7-3.2,13.7C21.8,54.7,19.2,57.4,16.1,58.8z"/>
	
		<path fill="#C9D8EF" stroke="#2B3C65" stroke-width="2" stroke-linecap="round" stroke-linejoin="round" stroke-miterlimit="10" d="
		M18,45.9l0.6,2.5c0.1,0.5-0.3,1-0.8,1h-3.5c-0.5,0-0.9-0.5-0.8-1l0.6-2.5c0.1-0.3,0-0.5-0.2-0.7c-0.8-0.7-1.2-1.8-1.1-2.9
		c0.2-1.4,1.4-2.5,2.8-2.7c2-0.3,3.7,1.3,3.7,3.2c0,1-0.4,1.8-1.1,2.4C18,45.3,18,45.6,18,45.9z"/>
</g>
</svg>
