<?xml version="1.0" encoding="utf-8"?>
<!-- Generator: Adobe Illustrator 18.0.0, SVG Export Plug-In . SVG Version: 6.00 Build 0)  -->
<!DOCTYPE svg PUBLIC "-//W3C//DTD SVG 1.1//EN" "http://www.w3.org/Graphics/SVG/1.1/DTD/svg11.dtd">
<svg version="1.1" id="Layer_1" xmlns="http://www.w3.org/2000/svg" xmlns:xlink="http://www.w3.org/1999/xlink" x="0px" y="0px"
	 viewBox="0 0 64 64" enable-background="new 0 0 64 64" xml:space="preserve">
<g>
	<path fill="#62C3A6" d="M13.8,51.9H4.3v-5.3h9.5c1,0,1.8-0.8,1.8-1.8V34.7h5.3v10.1C20.9,48.7,17.7,51.9,13.8,51.9z"/>
	<path fill="none" stroke="#2B3C65" stroke-width="2" stroke-linecap="round" stroke-linejoin="round" stroke-miterlimit="10" d="
		M20.9,44v0.8c0,3.9-3.2,7.1-7.1,7.1H4.3v-5.3h9.5c1,0,1.8-0.8,1.8-1.8V44"/>
	<path fill="#C9D8EF" d="M54.4,28.3l-4.2,8.3c-1.8,3.5-6,4.9-9.5,3.1L7.5,23c-1.3-0.7-1.8-2.3-1.2-3.6l6.1-12.2
		C13.1,5.9,14.7,5.4,16,6l37.1,18.7C54.5,25.4,55.1,27,54.4,28.3z"/>
	<path fill="#B2CBEA" d="M54.4,28.3l-4.2,8.3c-1.8,3.5-6,4.9-9.5,3.1L7.5,23c-1.3-0.7-1.8-2.3-1.2-3.6L7,18.1
		c0.1,0.1,0.3,0.2,0.5,0.3l33.2,16.7c3.5,1.8,7.8,0.4,9.5-3.1l3.5-6.9C54.7,25.8,55,27.2,54.4,28.3z"/>
	<path fill="none" stroke="#2B3C65" stroke-width="2" stroke-linecap="round" stroke-linejoin="round" stroke-miterlimit="10" d="
		M13.6,6.1c-0.5,0.3-0.8,0.6-1.1,1.1L6.4,19.4c-0.7,1.3-0.1,2.9,1.2,3.6l33.2,16.7c3.5,1.8,7.8,0.4,9.5-3.1l1.6-3.1"/>
	<path fill="#FECB4D" d="M50,29.9L50,29.9c2.7-1,5.6-0.9,8.2,0.4l1,0.5c1.3,0.7,2.9,0.1,3.5-1.2l0,0c0.7-1.3,0.1-2.9-1.2-3.5
		L20.4,5.4C19.5,5,18.5,5.3,18,6.2l-3.8,7.5c-0.4,0.9-0.1,1.9,0.8,2.4l26.7,13.4C44.3,30.8,47.3,30.9,50,29.9z"/>
	<path fill="#F8B824" d="M63,28.4c0,0.4-0.1,0.8-0.3,1.2c-0.7,1.3-2.2,1.8-3.5,1.2l-1-0.5c-2.6-1.3-5.5-1.4-8.2-0.4
		s-5.7,0.9-8.2-0.4L15,16.1c-0.9-0.4-1.2-1.5-0.8-2.4l0.6-1.3l0.1,0.1l26.7,13.4c2.5,1.3,5.5,1.4,8.2,0.4s5.6-0.9,8.2,0.4l1,0.5
		c1.1,0.5,2.3,0.3,3.1-0.6C62.8,27.1,63,27.8,63,28.4z"/>
	<path fill="none" stroke="#2B3C65" stroke-width="2" stroke-linecap="round" stroke-linejoin="round" stroke-miterlimit="10" d="
		M50,29.9L50,29.9c2.7-1,5.6-0.9,8.2,0.4l1,0.5c1.3,0.7,2.9,0.1,3.5-1.2l0,0c0.7-1.3,0.1-2.9-1.2-3.5L20.4,5.4
		C19.5,5,18.5,5.3,18,6.2l-3.8,7.5c-0.4,0.9-0.1,1.9,0.8,2.4l26.7,13.4C44.3,30.8,47.3,30.9,50,29.9z"/>
	
		<path fill="#42BAEB" stroke="#2B3C65" stroke-width="2" stroke-linecap="round" stroke-linejoin="round" stroke-miterlimit="10" d="
		M52.3,32.5l-2.5,5l3.3,1.6c0.4,0.2,1,0,1.2-0.4l1.7-3.4c0.2-0.4,0-1-0.4-1.2L52.3,32.5z"/>
	
		<circle fill="#F05991" stroke="#2B3C65" stroke-width="2" stroke-linecap="round" stroke-linejoin="round" stroke-miterlimit="10" cx="20.5" cy="12.8" r="1.8"/>
	<path fill="#42BAEB" d="M15,26.8l-2.3,4.6c-1.5,3.1-0.3,6.8,2.8,8.3s6.8,0.3,8.3-2.8l2.3-4.6L15,26.8z"/>
	<path fill="none" stroke="#2B3C65" stroke-width="2" stroke-linecap="round" stroke-linejoin="round" stroke-miterlimit="10" d="
		M15,26.8l-2.3,4.6c-1.5,3.1-0.3,6.8,2.8,8.3s6.8,0.3,8.3-2.8l2.3-4.6L15,26.8z"/>
	
		<circle fill="#E4EBF7" stroke="#2B3C65" stroke-width="2" stroke-linecap="round" stroke-linejoin="round" stroke-miterlimit="10" cx="18.3" cy="34.2" r="2.1"/>
	<path fill="#C9D8EF" d="M4,39.7H1v19.1h3c2,0,3.5-1.6,3.5-3.5v-12C7.6,41.3,6,39.7,4,39.7z"/>
	<path fill="none" stroke="#2B3C65" stroke-width="2" stroke-linecap="round" stroke-linejoin="round" stroke-miterlimit="10" d="
		M4,39.7H1v19.1h3c2,0,3.5-1.6,3.5-3.5v-12C7.6,41.3,6,39.7,4,39.7z"/>
</g>
</svg>
