<?xml version="1.0" encoding="utf-8"?>
<!-- Generator: Adobe Illustrator 18.0.0, SVG Export Plug-In . SVG Version: 6.00 Build 0)  -->
<!DOCTYPE svg PUBLIC "-//W3C//DTD SVG 1.1//EN" "http://www.w3.org/Graphics/SVG/1.1/DTD/svg11.dtd">
<svg version="1.1" id="Layer_1" xmlns="http://www.w3.org/2000/svg" xmlns:xlink="http://www.w3.org/1999/xlink" x="0px" y="0px"
	 viewBox="0 0 64 64" enable-background="new 0 0 64 64" xml:space="preserve">
<g>
	<path fill="#38FCC4" d="M56.3,1H7.7C6,1,4.6,2.4,4.6,4.1V11c0,1.7,1.4,3.1,3.1,3.1h48.5c1.7,0,3.1-1.4,3.1-3.1V4.1
		C59.4,2.4,58,1,56.3,1z"/>
	<path fill="#FFD880" d="M56.3,19H7.7c-1.7,0-3.1,1.4-3.1,3.1V29c0,1.7,1.4,3.1,3.1,3.1h48.5c1.7,0,3.1-1.4,3.1-3.1v-6.8
		C59.4,20.4,58,19,56.3,19z"/>
	<path fill="#D5A6FF" d="M56.3,37H7.7c-1.7,0-3.1,1.4-3.1,3.1V47c0,1.7,1.4,3.1,3.1,3.1h48.5c1.7,0,3.1-1.4,3.1-3.1v-6.8
		C59.4,38.4,58,37,56.3,37z"/>
	<path fill="#1DE9B6" d="M59.4,4.1V11c0,1.7-1.4,3.2-3.1,3.2H7.7c-1.7,0-3.1-1.4-3.1-3.2v-0.3h48.3c1.7,0,3.2-1.4,3.2-3.1V1h0.3
		C58,1,59.4,2.4,59.4,4.1z"/>
	<path fill="#FECB4D" d="M59.4,22.1V29c0,1.7-1.4,3.2-3.1,3.2H7.7c-1.7,0-3.1-1.4-3.1-3.2v-0.3h48.3c1.7,0,3.2-1.4,3.2-3.1V19h0.3
		C58,19,59.4,20.4,59.4,22.1z"/>
	<path fill="#CC87FE" d="M59.4,40.1V47c0,1.7-1.4,3.1-3.1,3.1H7.7c-1.7,0-3.1-1.4-3.1-3.1v-0.3h48.3c1.7,0,3.2-1.4,3.2-3.2V37h0.3
		C58,37,59.4,38.4,59.4,40.1z"/>
	<path fill="none" stroke="#2A3C65" stroke-width="2" stroke-linecap="round" stroke-linejoin="round" stroke-miterlimit="10" d="
		M56.3,1H7.7C6,1,4.6,2.4,4.6,4.1V11c0,1.7,1.4,3.1,3.1,3.1h48.5c1.7,0,3.1-1.4,3.1-3.1V4.1C59.4,2.4,58,1,56.3,1z"/>
	
		<circle fill="#E3ECFF" stroke="#2A3C65" stroke-width="2" stroke-linecap="round" stroke-linejoin="round" stroke-miterlimit="10" cx="25.1" cy="7.6" r="2"/>
	
		<circle fill="#E3ECFF" stroke="#2A3C65" stroke-width="2" stroke-linecap="round" stroke-linejoin="round" stroke-miterlimit="10" cx="10.8" cy="7.6" r="2"/>
	
		<circle fill="#E3ECFF" stroke="#2A3C65" stroke-width="2" stroke-linecap="round" stroke-linejoin="round" stroke-miterlimit="10" cx="17.9" cy="7.6" r="2"/>
	<path fill="none" stroke="#2A3C65" stroke-width="2" stroke-linecap="round" stroke-linejoin="round" stroke-miterlimit="10" d="
		M56.3,19H7.7c-1.7,0-3.1,1.4-3.1,3.1V29c0,1.7,1.4,3.1,3.1,3.1h48.5c1.7,0,3.1-1.4,3.1-3.1v-6.8C59.4,20.4,58,19,56.3,19z"/>
	
		<circle fill="#E3ECFF" stroke="#2A3C65" stroke-width="2" stroke-linecap="round" stroke-linejoin="round" stroke-miterlimit="10" cx="10.8" cy="25.6" r="2"/>
	
		<circle fill="#E3ECFF" stroke="#2A3C65" stroke-width="2" stroke-linecap="round" stroke-linejoin="round" stroke-miterlimit="10" cx="17.9" cy="25.6" r="2"/>
	
		<circle fill="#E3ECFF" stroke="#2A3C65" stroke-width="2" stroke-linecap="round" stroke-linejoin="round" stroke-miterlimit="10" cx="25.1" cy="25.6" r="2"/>
	
		<path fill="#E3ECFF" stroke="#2A3C65" stroke-width="2" stroke-linecap="round" stroke-linejoin="round" stroke-miterlimit="10" d="
		M54.6,24.2c0.4,0.4,0.6,0.8,0.6,1.4c0,1.1-0.9,2-2,2H40.4c-1.1,0-2-0.9-2-2s0.9-2,2-2h12.9C53.8,23.6,54.3,23.8,54.6,24.2z"/>
	
		<path fill="#E3ECFF" stroke="#2A3C65" stroke-width="2" stroke-linecap="round" stroke-linejoin="round" stroke-miterlimit="10" d="
		M38.4,7.6c0-1.1,0.9-2,2-2h12.9c0.6,0,1,0.2,1.4,0.6C55,6.5,55.2,7,55.2,7.6c0,1.1-0.9,2-2,2H40.4C39.3,9.5,38.4,8.6,38.4,7.6z"/>
	
		<line fill="none" stroke="#2A3C65" stroke-width="2" stroke-linecap="round" stroke-linejoin="round" stroke-miterlimit="10" x1="12.8" y1="19" x2="12.8" y2="14.1"/>
	
		<line fill="none" stroke="#2A3C65" stroke-width="2" stroke-linecap="round" stroke-linejoin="round" stroke-miterlimit="10" x1="51.2" y1="14.1" x2="51.2" y2="19"/>
	
		<line fill="none" stroke="#2A3C65" stroke-width="2" stroke-linecap="round" stroke-linejoin="round" stroke-miterlimit="10" x1="12.8" y1="37" x2="12.8" y2="32.1"/>
	
		<line fill="none" stroke="#2A3C65" stroke-width="2" stroke-linecap="round" stroke-linejoin="round" stroke-miterlimit="10" x1="51.2" y1="32.1" x2="51.2" y2="37"/>
	
		<line fill="none" stroke="#2A3C65" stroke-width="2" stroke-linecap="round" stroke-linejoin="round" stroke-miterlimit="10" x1="32" y1="56.7" x2="32" y2="54.8"/>
	
		<line fill="none" stroke="#2A3C65" stroke-width="2" stroke-linecap="round" stroke-linejoin="round" stroke-miterlimit="10" x1="58.4" y1="59.9" x2="35.1" y2="59.9"/>
	
		<line fill="none" stroke="#2A3C65" stroke-width="2" stroke-linecap="round" stroke-linejoin="round" stroke-miterlimit="10" x1="28.9" y1="59.9" x2="5.6" y2="59.9"/>
	
		<path fill="#C7D9F9" stroke="#2A3C65" stroke-width="2" stroke-linecap="round" stroke-linejoin="round" stroke-miterlimit="10" d="
		M35.1,59.9c0,1.7-1.4,3.1-3.1,3.1c-1.7,0-3.1-1.4-3.1-3.1c0-1.7,1.4-3.1,3.1-3.1C33.7,56.7,35.1,58.1,35.1,59.9z"/>
	<path fill="none" stroke="#2A3C65" stroke-width="2" stroke-linecap="round" stroke-linejoin="round" stroke-miterlimit="10" d="
		M56.3,37H7.7c-1.7,0-3.1,1.4-3.1,3.1V47c0,1.7,1.4,3.1,3.1,3.1h48.5c1.7,0,3.1-1.4,3.1-3.1v-6.8C59.4,38.4,58,37,56.3,37z"/>
	
		<circle fill="#E3ECFF" stroke="#2A3C65" stroke-width="2" stroke-linecap="round" stroke-linejoin="round" stroke-miterlimit="10" cx="10.8" cy="43.5" r="2"/>
	
		<circle fill="#E3ECFF" stroke="#2A3C65" stroke-width="2" stroke-linecap="round" stroke-linejoin="round" stroke-miterlimit="10" cx="17.9" cy="43.5" r="2"/>
	
		<circle fill="#E3ECFF" stroke="#2A3C65" stroke-width="2" stroke-linecap="round" stroke-linejoin="round" stroke-miterlimit="10" cx="25.1" cy="43.5" r="2"/>
	
		<path fill="#E3ECFF" stroke="#2A3C65" stroke-width="2" stroke-linecap="round" stroke-linejoin="round" stroke-miterlimit="10" d="
		M54.6,42.1c0.4,0.4,0.6,0.8,0.6,1.4c0,1.1-0.9,2-2,2H40.4c-1.1,0-2-0.9-2-2s0.9-2,2-2h12.9C53.8,41.6,54.3,41.8,54.6,42.1z"/>
</g>
</svg>
