<?xml version="1.0" encoding="utf-8"?>
<!-- Generator: Adobe Illustrator 18.0.0, SVG Export Plug-In . SVG Version: 6.00 Build 0)  -->
<!DOCTYPE svg PUBLIC "-//W3C//DTD SVG 1.1//EN" "http://www.w3.org/Graphics/SVG/1.1/DTD/svg11.dtd">
<svg version="1.1" id="Layer_1" xmlns="http://www.w3.org/2000/svg" xmlns:xlink="http://www.w3.org/1999/xlink" x="0px" y="0px"
	 viewBox="0 0 64 64" enable-background="new 0 0 64 64" xml:space="preserve">
<g>
	<path fill="#27D1FF" d="M53.9,1H5.2C3.4,1,2,2.4,2,4.2V11c0,1.7,1.4,3.2,3.2,3.2h48.7c1.7,0,3.2-1.4,3.2-3.2V4.2
		C57.1,2.4,55.7,1,53.9,1z"/>
	<g>
		<g>
			<path fill="#02BEFF" d="M57.1,4.2V11c0,1.8-1.4,3.2-3.2,3.2H5.2c-1.5,0-2.7-1-3-2.3C2.4,12,2.7,12,3,12h41.9c5.5,0,10-4.5,10-10
				c0-0.3,0-0.6-0.1-0.8C56.1,1.5,57.1,2.7,57.1,4.2z"/>
		</g>
	</g>
	<g>
		<g>
			<path fill="none" stroke="#2A3C65" stroke-width="2" stroke-linecap="round" stroke-linejoin="round" stroke-miterlimit="10" d="
				M53.9,1H5.2C3.4,1,2,2.4,2,4.2V11c0,1.7,1.4,3.2,3.2,3.2h48.7c1.7,0,3.2-1.4,3.2-3.2V4.2C57.1,2.4,55.7,1,53.9,1z"/>
		</g>
	</g>
	
		<circle fill="#E3ECFF" stroke="#2A3C65" stroke-width="2" stroke-linecap="round" stroke-linejoin="round" stroke-miterlimit="10" cx="22.7" cy="7.6" r="2"/>
	
		<circle fill="#E3ECFF" stroke="#2A3C65" stroke-width="2" stroke-linecap="round" stroke-linejoin="round" stroke-miterlimit="10" cx="8.3" cy="7.6" r="2"/>
	
		<circle fill="#E3ECFF" stroke="#2A3C65" stroke-width="2" stroke-linecap="round" stroke-linejoin="round" stroke-miterlimit="10" cx="15.5" cy="7.6" r="2"/>
	
		<rect x="36" y="5.6" fill="#E3ECFF" stroke="#2A3C65" stroke-width="2" stroke-linecap="round" stroke-linejoin="round" stroke-miterlimit="10" width="16.9" height="3.9"/>
	
		<line fill="none" stroke="#2A3C65" stroke-width="2" stroke-linecap="round" stroke-linejoin="round" stroke-miterlimit="10" x1="10.2" y1="19.1" x2="10.2" y2="14.2"/>
	
		<line fill="none" stroke="#2A3C65" stroke-width="2" stroke-linecap="round" stroke-linejoin="round" stroke-miterlimit="10" x1="48.9" y1="14.2" x2="48.9" y2="19.1"/>
	
		<line fill="none" stroke="#2A3C65" stroke-width="2" stroke-linecap="round" stroke-linejoin="round" stroke-miterlimit="10" x1="10.2" y1="37.1" x2="10.2" y2="32.2"/>
	
		<line fill="none" stroke="#2A3C65" stroke-width="2" stroke-linecap="round" stroke-linejoin="round" stroke-miterlimit="10" x1="48.9" y1="32.2" x2="48.9" y2="37.1"/>
	<path fill="#38FCC4" d="M53.9,19.1H5.2c-1.7,0-3.2,1.4-3.2,3.2v6.9c0,1.7,1.4,3.2,3.2,3.2h48.7c1.7,0,3.2-1.4,3.2-3.2v-6.9
		C57.1,20.5,55.7,19.1,53.9,19.1z"/>
	<path fill="#1DE9B6" d="M57.1,22.2v6.9c0,1.8-1.4,3.2-3.2,3.2H5.2c-1.5,0-2.7-1-3-2.3c0.2,0,0.5,0,0.8,0h41.9c5.5,0,10-4.5,10-10
		c0-0.3,0-0.6-0.1-0.8C56.1,19.5,57.1,20.8,57.1,22.2z"/>
	<path fill="none" stroke="#2A3C65" stroke-width="2" stroke-linecap="round" stroke-linejoin="round" stroke-miterlimit="10" d="
		M56.5,30.9c0.3-0.5,0.5-1.1,0.5-1.8v-6.9c0-1.7-1.4-3.1-3.2-3.1H5.2c-1.7,0-3.2,1.4-3.2,3.1v6.9c0,1.7,1.4,3.2,3.2,3.2h27.5"/>
	
		<circle fill="#E3ECFF" stroke="#2A3C65" stroke-width="2" stroke-linecap="round" stroke-linejoin="round" stroke-miterlimit="10" cx="22.7" cy="25.6" r="2"/>
	
		<circle fill="#E3ECFF" stroke="#2A3C65" stroke-width="2" stroke-linecap="round" stroke-linejoin="round" stroke-miterlimit="10" cx="8.3" cy="25.6" r="2"/>
	
		<circle fill="#E3ECFF" stroke="#2A3C65" stroke-width="2" stroke-linecap="round" stroke-linejoin="round" stroke-miterlimit="10" cx="15.5" cy="25.6" r="2"/>
	
		<rect x="36" y="23.7" fill="#E3ECFF" stroke="#2A3C65" stroke-width="2" stroke-linecap="round" stroke-linejoin="round" stroke-miterlimit="10" width="16.9" height="3.9"/>
	<path fill="#FFD880" d="M53.9,37.1H5.2c-1.7,0-3.2,1.4-3.2,3.2v6.9c0,1.7,1.4,3.2,3.2,3.2h48.7c1.7,0,3.2-1.4,3.2-3.2v-6.9
		C57.1,38.5,55.7,37.1,53.9,37.1z"/>
	<path fill="#E3ECFF" d="M38.1,40.2v5.3h17C52.7,39.3,43.4,39.3,38.1,40.2z"/>
	<path fill="#FECB4D" d="M57.1,40.3v6.9c0,1.8-1.4,3.2-3.2,3.2H5.2c-1.5,0-2.7-1-3-2.3c0.3,0.1,0.6,0.1,0.9,0.1H45
		c5.5,0,10-4.5,10-10c0-0.3,0-0.6-0.1-0.8C56.1,37.6,57.1,38.8,57.1,40.3z"/>
	<path fill="none" stroke="#2A3C65" stroke-width="2" stroke-linecap="round" stroke-linejoin="round" stroke-miterlimit="10" d="
		M26.6,50.3H5.2c-1.7,0-3.2-1.4-3.2-3.2v-6.9C2,38.4,3.4,37,5.2,37h24.6"/>
	
		<circle fill="#E3ECFF" stroke="#2A3C65" stroke-width="2" stroke-linecap="round" stroke-linejoin="round" stroke-miterlimit="10" cx="22.7" cy="43.7" r="2"/>
	
		<circle fill="#E3ECFF" stroke="#2A3C65" stroke-width="2" stroke-linecap="round" stroke-linejoin="round" stroke-miterlimit="10" cx="8.3" cy="43.7" r="2"/>
	
		<circle fill="#E3ECFF" stroke="#2A3C65" stroke-width="2" stroke-linecap="round" stroke-linejoin="round" stroke-miterlimit="10" cx="15.5" cy="43.7" r="2"/>
	
		<line fill="none" stroke="#2A3C65" stroke-width="2" stroke-linecap="round" stroke-linejoin="round" stroke-miterlimit="10" x1="47.9" y1="45.7" x2="44.2" y2="45.7"/>
	<path fill="#C7D9F9" d="M61.2,45l-2.8-1c-0.4-0.1-0.6-0.4-0.7-0.8c-0.2-0.6-0.4-1.2-0.7-1.7c-0.2-0.3-0.2-0.7,0-1.1l1.3-2.7
		c0.2-0.5,0.1-1-0.2-1.4L56.8,35c-0.4-0.4-0.9-0.4-1.4-0.2l-2.7,1.3c-0.3,0.2-0.7,0.2-1.1,0c-0.5-0.3-1.1-0.5-1.7-0.7
		c-0.4-0.1-0.7-0.4-0.8-0.7l-1-2.8c-0.2-0.5-0.6-0.8-1.1-0.8h-1.8c-0.5,0-1,0.3-1.1,0.8l-1,2.8c-0.1,0.4-0.4,0.6-0.8,0.7
		c-0.6,0.2-1.2,0.4-1.7,0.7c-0.3,0.2-0.7,0.2-1,0l-2.7-1.3c-0.5-0.2-1-0.1-1.4,0.2l-1.3,1.3c-0.4,0.4-0.5,0.9-0.2,1.4l1.3,2.7
		c0.2,0.3,0.2,0.7,0,1.1c-0.3,0.5-0.5,1.1-0.7,1.7c-0.1,0.4-0.4,0.6-0.7,0.8l-2.8,1c-0.5,0.2-0.8,0.6-0.8,1.1V48
		c0,0.5,0.3,1,0.8,1.1l2.8,1c0.4,0.1,0.6,0.4,0.7,0.8c0.2,0.6,0.4,1.2,0.7,1.7c0.2,0.3,0.2,0.7,0,1.1L34,56.4
		c-0.2,0.5-0.1,1,0.2,1.4l1.3,1.3c0.4,0.4,0.9,0.5,1.4,0.2l2.7-1.3c0.3-0.2,0.7-0.1,1,0c0.5,0.3,1.1,0.5,1.7,0.7
		c0.4,0.1,0.7,0.4,0.8,0.7l1,2.9c0.2,0.5,0.6,0.8,1.1,0.8H47c0.5,0,1-0.3,1.1-0.8l1-2.9c0.1-0.4,0.4-0.6,0.8-0.7
		c0.6-0.2,1.2-0.4,1.7-0.7c0.3-0.2,0.7-0.2,1.1,0l2.7,1.3c0.5,0.2,1,0.1,1.4-0.2l1.3-1.3c0.4-0.4,0.5-0.9,0.2-1.4L57,53.7
		c-0.2-0.3-0.2-0.7,0-1.1c0.3-0.5,0.5-1.1,0.7-1.7c0.1-0.3,0.4-0.6,0.7-0.8l2.8-1c0.5-0.2,0.8-0.6,0.8-1.1v-1.8
		C62,45.7,61.7,45.2,61.2,45z M46,53.4c-3.5,0-6.3-2.8-6.3-6.3s2.8-6.3,6.3-6.3s6.3,2.8,6.3,6.3C52.3,50.5,49.5,53.4,46,53.4z"/>
	<path fill="none" stroke="#2A3C65" stroke-width="2" stroke-linecap="round" stroke-linejoin="round" stroke-miterlimit="10" d="
		M57.6,50.9c-0.2,0.6-0.4,1.2-0.7,1.7c-0.2,0.3-0.2,0.7,0,1.1l1.3,2.7c0.2,0.5,0.1,1-0.2,1.4L56.7,59c-0.4,0.4-0.9,0.5-1.4,0.2
		l-2.7-1.3c-0.3-0.2-0.7-0.1-1,0c-0.6,0.3-1.1,0.5-1.7,0.7c-0.4,0.1-0.6,0.4-0.8,0.7l-1,2.9C47.9,62.7,47.5,63,47,63h-1.8
		c-0.5,0-1-0.3-1.1-0.8l-1-2.9c-0.1-0.4-0.4-0.6-0.8-0.7c-0.6-0.2-1.2-0.4-1.7-0.7c-0.3-0.2-0.7-0.2-1,0l-2.7,1.3
		c-0.5,0.2-1,0.1-1.4-0.2l-1.3-1.3c-0.4-0.4-0.5-0.9-0.2-1.4l1.3-2.7c0.2-0.3,0.1-0.7,0-1.1c-0.3-0.5-0.5-1.1-0.7-1.7
		c-0.1-0.4-0.4-0.6-0.7-0.8l-2.8-1c-0.5-0.2-0.8-0.6-0.8-1.1v-1.8c0-0.5,0.3-1,0.8-1.1l2.8-1c0.4-0.1,0.6-0.4,0.7-0.8
		c0.2-0.6,0.4-1.2,0.7-1.7c0.2-0.3,0.2-0.7,0-1.1L34,37.7c-0.2-0.5-0.1-1,0.2-1.4l1.3-1.3c0.4-0.4,0.9-0.5,1.4-0.2l2.7,1.3
		c0.3,0.2,0.7,0.1,1,0c0.6-0.3,1.1-0.5,1.7-0.7c0.4-0.1,0.6-0.4,0.8-0.7l1-2.9c0.2-0.5,0.6-0.8,1.1-0.8H47c0.5,0,1,0.3,1.1,0.8
		l1,2.9c0.1,0.4,0.4,0.6,0.8,0.7c0.6,0.2,1.2,0.4,1.7,0.7c0.3,0.2,0.7,0.2,1,0l2.7-1.3c0.5-0.2,1-0.1,1.4,0.2l1.3,1.3
		c0.4,0.4,0.5,0.9,0.2,1.4l-1.3,2.7c-0.2,0.3-0.1,0.7,0,1.1c0.3,0.5,0.5,1.1,0.7,1.7c0.1,0.4,0.4,0.6,0.7,0.8l2.8,1
		c0.5,0.2,0.8,0.6,0.8,1.1V48c0,0.5-0.3,1-0.8,1.1l-2.8,1C58,50.2,57.7,50.5,57.6,50.9z"/>
	<path fill="none" stroke="#2A3C65" stroke-width="2" stroke-linecap="round" stroke-linejoin="round" stroke-miterlimit="10" d="
		M52.3,47.1c0,3.5-2.8,6.3-6.3,6.3s-6.3-2.8-6.3-6.3s2.8-6.3,6.3-6.3S52.3,43.6,52.3,47.1z"/>
</g>
</svg>
