<?xml version="1.0" encoding="utf-8"?>
<!-- Generator: Adobe Illustrator 18.0.0, SVG Export Plug-In . SVG Version: 6.00 Build 0)  -->
<!DOCTYPE svg PUBLIC "-//W3C//DTD SVG 1.1//EN" "http://www.w3.org/Graphics/SVG/1.1/DTD/svg11.dtd">
<svg version="1.1" id="Layer_1" xmlns="http://www.w3.org/2000/svg" xmlns:xlink="http://www.w3.org/1999/xlink" x="0px" y="0px"
	 viewBox="0 0 64 64" enable-background="new 0 0 64 64" xml:space="preserve">
<g>
	<path fill="#FECB4D" d="M53.8,27.5l-0.1,15h-3.5c-0.8,0-1.6,0.3-2.2,0.9c0,0-2.1,2.6-5.8,2.5L43,27.5C43,27.5,53.8,27.5,53.8,27.5z
		"/>
	<path fill="#FFD880" d="M45.4,30l0.2-0.3c-0.1,0-0.1-0.1-0.2-0.1c-1.1-0.6-1.9-1.8-2.3-3C42.8,25.5,43,24,43.6,23l-9.2-8
		c-2.3-1.6-7.7-1.4-13.3-1.1c-1.5,0-2.8,0.6-3.8,1.5c-0.7,0.6-1.1,1.5-1.4,2.4c-0.2,0.9-1.1,1.4-2,1.4h-3.5l-0.1,16.1h3.4l19.8,13.6
		l3.2-5.1l0,0l0,0l1.6,1.9c1,1.2,2.7,1.3,3.7,0.3l0.1-0.1c1-1,1-2.5,0.1-3.5l0,0c1,1,2.5,1.1,3.5,0.1c0.5-0.5,0.8-1.2,0.8-1.8
		s-0.2-1.2-0.6-1.7l-0.1-0.1c0.9,1.1,2.5,1.1,3.6,0.1l0.1-0.1c1-0.9,1-2.5,0.1-3.5L45.4,30z"/>
	
		<path fill="none" stroke="#2B3C65" stroke-width="1.984" stroke-linecap="round" stroke-linejoin="round" stroke-miterlimit="10" d="
		M10.2,35.3l0.1-16h3.5c0.9,0,1.7-0.6,2-1.4c0.3-0.9,0.7-1.7,1.4-2.4c1-1,2.3-1.6,3.8-1.5c2.9-0.2,5.7-0.3,8.1-0.2"/>
	
		<line fill="none" stroke="#2B3C65" stroke-width="1.984" stroke-linecap="round" stroke-linejoin="round" stroke-miterlimit="10" x1="33.5" y1="48.9" x2="21" y2="40.4"/>
	
		<line fill="none" stroke="#2B3C65" stroke-width="1.984" stroke-linecap="round" stroke-linejoin="round" stroke-miterlimit="10" x1="37.8" y1="18" x2="47.7" y2="26.5"/>
	
		<path fill="#45C8F5" stroke="#2B3C65" stroke-width="1.984" stroke-linecap="round" stroke-linejoin="round" stroke-miterlimit="10" d="
		M1.2,16.2l7,0.1c1.2,0,2.2,1,2.2,2.3L10.2,36c0,1.3-1,2.3-2.3,2.2l-7-0.1L1.2,16.2z"/>
	
		<line fill="none" stroke="#2B3C65" stroke-width="1.984" stroke-linecap="round" stroke-linejoin="round" stroke-miterlimit="10" x1="34.3" y1="41" x2="32.8" y2="39.2"/>
	
		<path fill="none" stroke="#2B3C65" stroke-width="1.984" stroke-linecap="round" stroke-linejoin="round" stroke-miterlimit="10" d="
		M33.2,32.6l9,9.8c0.9,1,0.9,2.6-0.1,3.5L42,46c-0.8,0.8-2.1,0.9-3,0.3"/>
	
		<line fill="none" stroke="#2B3C65" stroke-width="1.984" stroke-linecap="round" stroke-linejoin="round" stroke-miterlimit="10" x1="28.6" y1="45.3" x2="28.6" y2="45.3"/>
	
		<line fill="none" stroke="#2B3C65" stroke-width="1.984" stroke-linecap="round" stroke-linejoin="round" stroke-miterlimit="10" x1="24" y1="41.6" x2="23.9" y2="41.6"/>
	
		<line fill="none" stroke="#2B3C65" stroke-width="1.984" stroke-linecap="round" stroke-linejoin="round" stroke-miterlimit="10" x1="34.3" y1="41" x2="32.8" y2="39.2"/>
	
		<path fill="#FECB4D" stroke="#2B3C65" stroke-width="1.984" stroke-linecap="round" stroke-linejoin="round" stroke-miterlimit="10" d="
		M30.9,50.3c-0.6,0-1.3-0.2-1.8-0.7c-1.3-1-1.4-3-0.4-4.3l2.4-3.2c0.9-1.1,2.4-1.6,3.7-1c1.8,0.9,2.2,3.1,1.1,4.6l-2.6,3.4
		C32.7,49.9,31.8,50.3,30.9,50.3z"/>
	
		<path fill="#FECB4D" stroke="#2B3C65" stroke-width="1.984" stroke-linecap="round" stroke-linejoin="round" stroke-miterlimit="10" d="
		M25.7,47.3c-0.7,0-1.3-0.2-1.9-0.7c-1.3-1.1-1.4-3-0.4-4.3l4-5.1c1-1.3,2.8-1.7,4.2-0.8c1.4,1,1.7,3,0.7,4.3L28,46.1
		C27.4,46.9,26.5,47.3,25.7,47.3z"/>
	
		<path fill="#FECB4D" stroke="#2B3C65" stroke-width="1.984" stroke-linecap="round" stroke-linejoin="round" stroke-miterlimit="10" d="
		M20.1,44.7c-0.7,0-1.3-0.2-1.9-0.7c-1.3-1.1-1.4-3-0.4-4.3l4.6-6c1.1-1.5,3.4-1.6,4.7-0.1c0.9,1.1,0.9,2.7,0,3.9l-4.6,6
		C21.9,44.3,21,44.7,20.1,44.7z"/>
	
		<path fill="#FECB4D" stroke="#2B3C65" stroke-width="1.984" stroke-linecap="round" stroke-linejoin="round" stroke-miterlimit="10" d="
		M15.7,40.6c-0.7,0-1.3-0.2-1.9-0.7c-1.3-1.1-1.4-3-0.4-4.3l2.1-2.7c1-1.3,2.8-1.7,4.2-0.8c1.4,1,1.7,3,0.7,4.3l-2.3,3
		C17.5,40.2,16.6,40.6,15.7,40.6z"/>
	
		<path fill="#FECB4D" stroke="#2B3C65" stroke-width="1.984" stroke-linecap="round" stroke-linejoin="round" stroke-miterlimit="10" d="
		M27.4,37c-0.1,0.1-0.2,0.3-0.3,0.4L24,41.6l-0.9,1.2c0.1-0.1,0.2-0.3,0.3-0.4l0.6-0.8L27.4,37z"/>
	
		<path fill="#F27DAD" stroke="#2B3C65" stroke-width="1.984" stroke-linecap="round" stroke-linejoin="round" stroke-miterlimit="10" d="
		M62.8,44.4l-7-0.1c-1.2,0-2.2-1-2.2-2.3l0.1-18.5c0-1.3,1-2.3,2.3-2.2l7,0.1L62.8,44.4z"/>
	<path fill="#FECB4D" d="M43,24.2l-0.1,3.2h10.9v-4.5h-3.9c-1.4,0-2.7-0.9-3.1-2.3c-0.4-1.3-1.1-2.4-2.2-3.3
		c-1.3-1.1-2.9-1.7-4.6-2.1c-1.6-0.3-3.2-0.5-4.7-0.4c-2.6,0.1-5,1.3-6.9,3.2c-2.2,2.2-5.4,5.5-7,7.2c-0.7,0.7-0.6,1.8,0.2,2.4
		c0.6,0.4,1.3,0.7,2.1,0.9c2.1,0.4,4.3-0.4,5.7-1.9l4.6-4.8C35.5,26,40.1,27,43,24.2z"/>
	
		<path fill="none" stroke="#2B3C65" stroke-width="1.984" stroke-linecap="round" stroke-linejoin="round" stroke-miterlimit="10" d="
		M43,24.2c-2.9,2.7-7.5,1.8-9.1-2.3l-4.6,4.8c-1.5,1.5-3.7,2.3-5.7,1.9c-0.8-0.2-1.5-0.5-2.1-0.9c-0.8-0.5-0.9-1.7-0.2-2.4
		c1.7-1.7,4.9-5,7-7.2c1.8-1.9,4.3-3.1,6.9-3.2c1.6-0.1,3.1,0.1,4.7,0.4c1.7,0.3,3.3,1,4.6,2.1c1.1,0.9,1.9,2,2.2,3.3
		c0.4,1.4,1.7,2.3,3.1,2.3h3.9l-0.1,19.5h-3.5c-0.8,0-1.6,0.3-2.2,0.9c0,0-0.8,0.9-2.2,1.7"/>
	
		<path fill="#FFD880" stroke="#2B3C65" stroke-width="1.984" stroke-linecap="round" stroke-linejoin="round" stroke-miterlimit="10" d="
		M44.2,28.3l5.4,7.1c0,0.1,0.1,0.1,0.1,0.2c0.7,1,0.6,2.4-0.3,3.3L49.3,39c-0.8,0.7-1.8,0.9-2.7,0.5c-0.3-0.1-0.6-0.3-0.8-0.6
		l-8.2-9.2l-1.3-1.5"/>
	
		<path fill="#FFD880" stroke="#2B3C65" stroke-width="1.984" stroke-linecap="round" stroke-linejoin="round" stroke-miterlimit="10" d="
		M33.2,32.6l9,9.7c0.9,1,2.5,1.1,3.5,0.1l0,0c1-0.9,1-2.5,0.1-3.5l-9.7-10.8"/>
</g>
</svg>
