<?xml version="1.0" encoding="utf-8"?>
<!-- Generator: Adobe Illustrator 18.0.0, SVG Export Plug-In . SVG Version: 6.00 Build 0)  -->
<!DOCTYPE svg PUBLIC "-//W3C//DTD SVG 1.1//EN" "http://www.w3.org/Graphics/SVG/1.1/DTD/svg11.dtd">
<svg version="1.1" id="Layer_1" xmlns="http://www.w3.org/2000/svg" xmlns:xlink="http://www.w3.org/1999/xlink" x="0px" y="0px"
	 viewBox="0 0 64 64" enable-background="new 0 0 64 64" xml:space="preserve">
<g>
	<path fill="none" stroke="#2A3C65" stroke-width="2" stroke-linecap="round" stroke-linejoin="round" stroke-miterlimit="10" d="
		M7.2,49.1l-2.1,2.1c-1.3,1.3-1.3,3.4,0,4.7l6.2,6.2c1.3,1.3,3.4,1.3,4.7,0l36.8-36.8c1.6-1.6,4.2-1.6,5.9,0l0,0
		c1.6,1.6,1.6,4.2,0,5.9l-21.2,21"/>
	
		<path fill="#C7D9F9" stroke="#2A3C65" stroke-width="2" stroke-linecap="round" stroke-linejoin="round" stroke-miterlimit="10" d="
		M55,2.8l-7.5,8.5L45,8.8l8.5-7.6C54.5,0.4,55.9,1.8,55,2.8z"/>
	<path fill="#FFD880" d="M47.3,7.4L48.9,9c1,1,1,2.5,0,3.5L32.6,28.7l-5.1-5.1L43.8,7.4C44.8,6.4,46.3,6.4,47.3,7.4z"/>
	<path fill="#FECB4D" d="M48.9,12.5L32.7,28.7L31,27.1l16.2-16.3c1-1,1-2.5,0-3.5L48.9,9C49.9,9.9,49.9,11.5,48.9,12.5z"/>
	<path fill="none" stroke="#2A3C65" stroke-width="2" stroke-linecap="round" stroke-linejoin="round" stroke-miterlimit="10" d="
		M30.4,20.8L43.8,7.4c1-1,2.5-1,3.5,0L48.9,9c1,1,1,2.5,0,3.5L35.5,25.9"/>
	<path fill="#38FCC4" d="M26.1,22.2l8,8L9.8,51.3c-1.4,1.2-3.4,1.1-4.7-0.2c-0.6-0.6-1-1.5-1-2.3s0.3-1.7,0.8-2.4L26.1,22.2z"/>
	<path fill="#1DE9B6" d="M34.1,30.2L9.8,51.3c-1.3,1.2-3.4,1.1-4.7-0.2c-0.4-0.4-0.6-0.8-0.8-1.2c1.1,0.4,2.5,0.2,3.4-0.6L32,28.2
		L34.1,30.2z"/>
	<path fill="none" stroke="#2A3C65" stroke-width="2" stroke-linecap="round" stroke-linejoin="round" stroke-miterlimit="10" d="
		M19.6,29.6L5,46.5c-0.6,0.7-0.9,1.5-0.8,2.4c0,0.8,0.4,1.7,1,2.3c1.3,1.3,3.3,1.3,4.7,0.2l16.8-14.6"/>
	
		<path fill="#FF7DAF" stroke="#2A3C65" stroke-width="2" stroke-linecap="round" stroke-linejoin="round" stroke-miterlimit="10" d="
		M26,22.1l8.1,8.1c0.6,0.6,0.9,1.3,0.9,2.1s-0.3,1.5-0.9,2.1c-1.1,1.1-3,1.2-4.1,0l-8.1-8.1C21.3,25.7,21,25,21,24.2
		c0-0.7,0.3-1.5,0.9-2.1C23,21,24.9,21,26,22.1z"/>
</g>
</svg>
