<?xml version="1.0" encoding="utf-8"?>
<!-- Generator: Adobe Illustrator 18.0.0, SVG Export Plug-In . SVG Version: 6.00 Build 0)  -->
<!DOCTYPE svg PUBLIC "-//W3C//DTD SVG 1.1//EN" "http://www.w3.org/Graphics/SVG/1.1/DTD/svg11.dtd">
<svg version="1.1" id="Layer_1" xmlns="http://www.w3.org/2000/svg" xmlns:xlink="http://www.w3.org/1999/xlink" x="0px" y="0px"
	 viewBox="0 0 64 64" enable-background="new 0 0 64 64" xml:space="preserve">
<g>
	<g>
		<path fill="#C9D8EF" d="M34.8,3l3.2,9.8c0.4,1.2,1.5,2,2.8,2H51c2.8,0,4,3.6,1.7,5.2l-8.3,6.1c-1,0.7-1.4,2-1,3.2l3.2,9.8
			c0.9,2.7-2.2,4.9-4.5,3.2l-8.3-6.1c-1-0.7-2.4-0.7-3.4,0L22,42.4c-2.3,1.6-5.3-0.6-4.5-3.2l3.2-9.8c0.4-1.2,0-2.5-1-3.2L11.3,20
			c-2.3-1.6-1.1-5.2,1.7-5.2h10.3c1.3,0,2.4-0.8,2.8-2L29.2,3C30.1,0.3,33.9,0.3,34.8,3z"/>
	</g>
	<g>
		
			<path fill="none" stroke="#2B3C65" stroke-width="1.9281" stroke-linecap="round" stroke-linejoin="round" stroke-miterlimit="10" d="
			M41.2,41.8l0.9,0.6c2.3,1.6,5.3-0.6,4.5-3.2l-3.2-9.8c-0.4-1.2,0-2.5,1-3.2l8.3-6.1c2.3-1.6,1.1-5.2-1.7-5.2H40.7
			c-1.3,0-2.4-0.8-2.8-2L34.7,3c-0.9-2.7-4.6-2.7-5.5,0L26,12.8c-0.4,1.2-1.5,2-2.8,2H13c-2.8,0-4,3.6-1.7,5.2l8.3,6.1
			c1,0.7,1.4,2,1,3.2l-3.2,9.8c-0.9,2.7,2.2,4.9,4.5,3.2l1-0.7"/>
	</g>
	<g>
		<path fill="#42BAEB" d="M15.9,54.9L15.9,54.9c0,3.3,2.7,6,6,6h20.2c3.3,0,6-2.7,6-6l0,0c0-5.2-4.2-9.4-9.4-9.4H25.4
			C20.1,45.4,15.9,49.7,15.9,54.9z"/>
		<path fill="#42BAEB" d="M46.5,49.7c-0.2,0-0.4,0-0.6,0H32.7c-5.2,0-9.4,4.2-9.4,9.4v1.8H22c-3.3,0-6-2.7-6-6l0,0
			c0-5.2,4.2-9.4,9.4-9.4h13.3C41.9,45.4,44.8,47.1,46.5,49.7z"/>
		
			<path fill="none" stroke="#2B3C65" stroke-width="1.9281" stroke-linecap="round" stroke-linejoin="round" stroke-miterlimit="10" d="
			M38.1,45.4h0.5c5.2,0,9.4,4.2,9.4,9.4l0,0c0,3.3-2.7,6-6,6H21.9c-3.3,0-6-2.7-6-6l0,0c0-5.2,4.2-9.4,9.4-9.4h0.6H38.1z"/>
		<g>
			
				<path fill="#FECB4D" stroke="#2B3C65" stroke-width="1.9281" stroke-linecap="round" stroke-linejoin="round" stroke-miterlimit="10" d="
				M35.5,43v2.9c0,0.9-0.4,1.8-1,2.4c-0.6,0.6-1.5,1-2.4,1c-1.9,0-3.4-1.5-3.4-3.4V43H35.5z"/>
			
				<path fill="#FECB4D" stroke="#2B3C65" stroke-width="1.9281" stroke-linecap="round" stroke-linejoin="round" stroke-miterlimit="10" d="
				M38.8,31.3v7.4c0,3.7-3,6.7-6.7,6.7s-6.7-3-6.7-6.7v-7.4C25.4,31.3,38.8,31.3,38.8,31.3z"/>
			<path fill="#F27DAD" d="M38.8,36.2c0,0-0.2-0.2-0.5-0.6c-0.3-0.5-0.8-1.3-1.2-2.4c-0.2-0.7-1-1-1.6-0.7c-1.3,0.5-3.7,1.1-6.4-0.1
				c-0.7-0.3-1.4,0-1.7,0.7c-0.4,1.1-1.2,2.6-1.9,3c-0.1,0.1-2.3-7.4,1.7-8c0,0,6.3-6.7,11.9,2.1c0.2,0.3,0.3,0.7,0.3,1
				C39.4,32.6,39.4,35.3,38.8,36.2z"/>
			
				<path fill="none" stroke="#2B3C65" stroke-width="1.9281" stroke-linecap="round" stroke-linejoin="round" stroke-miterlimit="10" d="
				M38.8,36.2c0,0-0.2-0.2-0.5-0.6c-0.3-0.5-0.8-1.3-1.2-2.4c-0.2-0.7-1-1-1.6-0.7c-1.3,0.5-3.7,1.1-6.4-0.1c-0.7-0.3-1.4,0-1.7,0.7
				c-0.4,1.1-1.2,2.6-1.9,3c-0.1,0.1-2.3-7.4,1.7-8c0,0,6.3-6.7,11.9,2.1c0.2,0.3,0.3,0.7,0.3,1C39.4,32.6,39.4,35.3,38.8,36.2z"/>
		</g>
		
			<path fill="#E4EBF7" stroke="#2B3C65" stroke-width="1.9281" stroke-linecap="round" stroke-linejoin="round" stroke-miterlimit="10" d="
			M44.1,51.6L41.6,63h-18l-2.5-11.4c-0.3-1.5,0.8-3,2.4-3h18.1C43.2,48.6,44.4,50.1,44.1,51.6z"/>
		
			<line fill="none" stroke="#2B3C65" stroke-width="1.9281" stroke-linecap="round" stroke-linejoin="round" stroke-miterlimit="10" x1="18" y1="63" x2="47.2" y2="63"/>
	</g>
</g>
</svg>
