<?xml version="1.0" encoding="UTF-8" standalone="no"?>
<!-- Generator: Adobe Illustrator 24.1.1, SVG Export Plug-In . SVG Version: 6.00 Build 0)  -->

<svg
   version="1.1"
   id="Layer_1"
   x="0px"
   y="0px"
   viewBox="0 0 64 64"
   style="enable-background:new 0 0 64 64;"
   xml:space="preserve"
   sodipodi:docname="system.svg"
   inkscape:export-filename="system.svg"
   inkscape:export-xdpi="96"
   inkscape:export-ydpi="96"
   inkscape:version="1.4.2 (ebf0e940d0, 2025-05-08)"
   xmlns:inkscape="http://www.inkscape.org/namespaces/inkscape"
   xmlns:sodipodi="http://sodipodi.sourceforge.net/DTD/sodipodi-0.dtd"
   xmlns="http://www.w3.org/2000/svg"
   xmlns:svg="http://www.w3.org/2000/svg"><defs
   id="defs11" /><sodipodi:namedview
   id="namedview11"
   pagecolor="#505050"
   bordercolor="#ffffff"
   borderopacity="1"
   inkscape:showpageshadow="0"
   inkscape:pageopacity="0"
   inkscape:pagecheckerboard="1"
   inkscape:deskcolor="#505050"
   showguides="true"
   inkscape:zoom="14.0625"
   inkscape:cx="31.146667"
   inkscape:cy="36.48"
   inkscape:window-width="1920"
   inkscape:window-height="1131"
   inkscape:window-x="0"
   inkscape:window-y="32"
   inkscape:window-maximized="1"
   inkscape:current-layer="Layer_1" />
<style
   type="text/css"
   id="style1">
	.st0{fill:#38FCC4;}
	.st1{fill:#1DE9B6;}
	.st2{fill:none;stroke:#2A3C65;stroke-width:2.0667;stroke-linecap:round;stroke-linejoin:round;stroke-miterlimit:10;}
	.st3{fill:#E3ECFF;}
	.st4{fill:#C7D9F9;}
	.st5{fill:#FFD880;}
	.st6{fill:#FECB4D;}
	.st7{fill:#FF7DAF;}
	.st8{fill:#FFFFFF;stroke:#2A3C65;stroke-width:2.0667;stroke-linecap:round;stroke-linejoin:round;stroke-miterlimit:10;}
	.st9{fill:none;stroke:#2A3C65;stroke-width:2.1673;stroke-linecap:round;stroke-linejoin:round;stroke-miterlimit:10;}
	.st10{fill:#FFFFFF;}
	.st11{fill:#12D69E;}
	.st12{fill:none;stroke:#2A3C65;stroke-width:2.0666;stroke-linecap:round;stroke-linejoin:round;stroke-miterlimit:10;}
	.st13{fill:#B0CDF7;}
	.st14{fill:#CC87FE;}
	.st15{fill:#FFFFFF;stroke:#2A3C65;stroke-width:2.0666;stroke-linecap:round;stroke-linejoin:round;stroke-miterlimit:10;}
	.st16{fill:none;stroke:#2A3C65;stroke-width:2;stroke-linecap:round;stroke-linejoin:round;stroke-miterlimit:10;}
	.st17{opacity:0.5;fill:#E3ECFF;}
	.st18{fill:#FFFFFF;stroke:#2A3C65;stroke-width:2;stroke-linecap:round;stroke-linejoin:round;stroke-miterlimit:10;}
	.st19{fill:none;stroke:#2A3C65;stroke-width:2.0329;stroke-linecap:round;stroke-linejoin:round;stroke-miterlimit:10;}
	.st20{fill:#D5A6FF;}
	.st21{fill:#E3ECFF;stroke:#2A3C65;stroke-width:2.0329;stroke-linecap:round;stroke-linejoin:round;stroke-miterlimit:10;}
	.st22{fill:#27D1FF;stroke:#2A3C65;stroke-width:2.0329;stroke-linecap:round;stroke-linejoin:round;stroke-miterlimit:10;}
	.st23{fill:#FF5892;}
	.st24{fill:#FFFFFF;stroke:#2A3C65;stroke-width:2.0329;stroke-linecap:round;stroke-linejoin:round;stroke-miterlimit:10;}
	.st25{fill:none;stroke:#2A3C65;stroke-width:2.0295;stroke-linecap:round;stroke-linejoin:round;stroke-miterlimit:10;}
	.st26{fill:#27D1FF;}
	.st27{fill:#FFFFFF;stroke:#2A3C65;stroke-width:2.0295;stroke-linecap:round;stroke-linejoin:round;stroke-miterlimit:10;}
	.st28{fill:none;stroke:#2A3C65;stroke-width:1.9375;stroke-linecap:round;stroke-linejoin:round;stroke-miterlimit:10;}
	.st29{fill:#FFFFFF;stroke:#2A3C65;stroke-width:1.9375;stroke-linecap:round;stroke-linejoin:round;stroke-miterlimit:10;}
	.st30{fill:#2A3C65;}
	.st31{fill:none;stroke:#2A3C65;stroke-width:2.0609;stroke-linecap:round;stroke-linejoin:round;stroke-miterlimit:10;}
	.st32{fill:#FFFFFF;stroke:#2A3C65;stroke-width:2.0609;stroke-linecap:round;stroke-linejoin:round;stroke-miterlimit:10;}
	.st33{fill:#02BEFF;}
	.st34{fill:none;stroke:#2A3C65;stroke-width:1.9154;stroke-linecap:round;stroke-linejoin:round;stroke-miterlimit:10;}
	.st35{fill:#FF7DAF;stroke:#2A3C65;stroke-width:1.9154;stroke-linecap:round;stroke-linejoin:round;stroke-miterlimit:10;}
	.st36{fill:#FFD880;stroke:#2A3C65;stroke-width:2.1563;stroke-linecap:round;stroke-linejoin:round;stroke-miterlimit:10;}
	.st37{fill:none;stroke:#2A3C65;stroke-width:2.1563;stroke-linecap:round;stroke-linejoin:round;stroke-miterlimit:10;}
	.st38{fill:none;stroke:#2A3C65;stroke-width:2.1269;stroke-linecap:round;stroke-linejoin:round;stroke-miterlimit:10;}
	.st39{fill:#FFFFFF;stroke:#2A3C65;stroke-width:2.1269;stroke-linecap:round;stroke-linejoin:round;stroke-miterlimit:10;}
	.st40{fill:#FFD880;stroke:#2A3C65;stroke-width:2;stroke-linecap:round;stroke-linejoin:round;stroke-miterlimit:10;}
	.st41{fill:#E3ECFF;stroke:#2A3C65;stroke-width:2;stroke-linecap:round;stroke-linejoin:round;stroke-miterlimit:10;}
	.st42{fill:#E3ECFF;stroke:#2A3C65;stroke-width:2.009;stroke-linecap:round;stroke-linejoin:round;stroke-miterlimit:10;}
	.st43{fill:none;stroke:#2A3C65;stroke-width:2.009;stroke-linecap:round;stroke-linejoin:round;stroke-miterlimit:10;}
	.st44{fill:#FF5892;stroke:#2A3C65;stroke-width:2.009;stroke-linecap:round;stroke-linejoin:round;stroke-miterlimit:10;}
	.st45{fill:#27D1FF;stroke:#2A3C65;stroke-width:2;stroke-linecap:round;stroke-linejoin:round;stroke-miterlimit:10;}
	.st46{fill:#FF7DAF;stroke:#2A3C65;stroke-width:2.0666;stroke-linecap:round;stroke-linejoin:round;stroke-miterlimit:10;}
	.st47{fill:none;stroke:#2A3C65;stroke-width:1.9315;stroke-linecap:round;stroke-linejoin:round;stroke-miterlimit:10;}
	.st48{fill:#F9B826;}
	.st49{fill:#2A3C65;stroke:#2A3C65;stroke-width:2;stroke-linecap:round;stroke-linejoin:round;stroke-miterlimit:10;}
	.st50{fill:none;}
	.st51{fill:none;stroke:#2A3C65;stroke-width:1.9999;stroke-linecap:round;stroke-linejoin:round;stroke-miterlimit:10;}
	.st52{fill:#00ADDB;}
	.st53{fill:none;stroke:#2A3C65;stroke-width:2.0001;stroke-linecap:round;stroke-linejoin:round;stroke-miterlimit:10;}
	.st54{fill:#FF7DAF;stroke:#2A3C65;stroke-width:2.0001;stroke-linecap:round;stroke-linejoin:round;stroke-miterlimit:10;}
	.st55{fill:none;stroke:#2A3C65;stroke-width:2.0334;stroke-linecap:round;stroke-linejoin:round;stroke-miterlimit:10;}
	.st56{fill:#E3ECFF;stroke:#2A3C65;stroke-width:2.0334;stroke-linecap:round;stroke-linejoin:round;stroke-miterlimit:10;}
	.st57{fill:#02BEFF;stroke:#2A3C65;stroke-width:2;stroke-linecap:round;stroke-linejoin:round;stroke-miterlimit:10;}
	.st58{fill:#FECB4D;stroke:#2A3C65;stroke-width:2;stroke-linecap:round;stroke-linejoin:round;stroke-miterlimit:10;}
	.st59{fill:none;stroke:#2A3C65;stroke-width:1.9481;stroke-linecap:round;stroke-linejoin:round;stroke-miterlimit:10;}
	.st60{fill:#38FCC4;stroke:#2A3C65;stroke-width:1.9481;stroke-linecap:round;stroke-linejoin:round;stroke-miterlimit:10;}
	.st61{fill:none;stroke:#2A3C65;stroke-width:1.993;stroke-linecap:round;stroke-linejoin:round;stroke-miterlimit:10;}
	.st62{fill:#27D1FF;stroke:#2A3C65;stroke-width:1.9999;stroke-linecap:round;stroke-linejoin:round;stroke-miterlimit:10;}
	.st63{fill:#E3ECFF;stroke:#2A3C65;stroke-width:1.9999;stroke-linecap:round;stroke-linejoin:round;stroke-miterlimit:10;}
	.st64{fill:#FF7DAF;stroke:#2A3C65;stroke-width:1.9999;stroke-linecap:round;stroke-linejoin:round;stroke-miterlimit:10;}
	.st65{fill:none;stroke:#2A3C65;stroke-width:2.0003;stroke-linecap:round;stroke-linejoin:round;stroke-miterlimit:10;}
	.st66{fill:#FF7DAF;stroke:#2A3C65;stroke-width:2.0003;stroke-linecap:round;stroke-linejoin:round;stroke-miterlimit:10;}
	.st67{fill:#B45FFF;}
	.st68{fill:none;stroke:#2A3C65;stroke-width:1.8975;stroke-linecap:round;stroke-linejoin:round;stroke-miterlimit:10;}
	
		.st69{fill:none;stroke:#2A3C65;stroke-width:1.8975;stroke-linecap:round;stroke-linejoin:round;stroke-miterlimit:10;stroke-dasharray:2.8463;}
	.st70{fill:#27D1FF;stroke:#2A3C65;stroke-width:1.8975;stroke-linecap:round;stroke-linejoin:round;stroke-miterlimit:10;}
</style>
<g
   id="g11">
	<g
   id="g10">
		<path
   id="path1"
   class="st5"
   d="M 18.039062 25.800781 C 17.199062 25.800781 16.479609 26.419766 16.349609 27.259766 L 15.939453 29.970703 C 15.839453 30.590703 15.410312 31.110312 14.820312 31.320312 C 14.450312 31.450312 14.090234 31.599531 13.740234 31.769531 C 13.160234 32.049531 12.480703 31.989375 11.970703 31.609375 L 9.8203125 30.009766 C 9.1403125 29.499766 8.1800781 29.569688 7.5800781 30.179688 L 6.3007812 31.480469 C 5.7007812 32.070469 5.6308594 33.009453 6.1308594 33.689453 L 7.75 35.900391 C 8.12 36.400391 8.1801562 37.070625 7.9101562 37.640625 C 7.7401562 38.010625 7.5892187 38.389531 7.4492188 38.769531 C 7.2392188 39.369531 6.7296094 39.800391 6.0996094 39.900391 L 3.4492188 40.300781 C 2.6192187 40.420781 2 41.140234 2 41.990234 L 2 43.849609 C 2 44.689609 2.6207031 45.409297 3.4707031 45.529297 L 6.1191406 45.939453 C 6.7391406 46.039453 7.2607031 46.470312 7.4707031 47.070312 C 7.6007031 47.460313 7.7596875 47.829219 7.9296875 48.199219 C 8.1996875 48.769219 8.1395312 49.429453 7.7695312 49.939453 L 6.1503906 52.160156 C 5.6603906 52.830156 5.7303125 53.769141 6.3203125 54.369141 L 7.5996094 55.660156 C 8.1996094 56.270156 9.1498438 56.340078 9.8398438 55.830078 L 11.980469 54.230469 C 12.490469 53.850469 13.17 53.790312 13.75 54.070312 C 14.1 54.230312 14.460078 54.389531 14.830078 54.519531 C 15.430078 54.729531 15.859219 55.249141 15.949219 55.869141 L 16.359375 58.570312 C 16.479375 59.410312 17.200781 60.029297 18.050781 60.029297 L 19.839844 60.029297 C 20.679844 60.029297 21.399297 59.410313 21.529297 58.570312 L 21.939453 55.869141 C 22.039453 55.249141 22.470547 54.739531 23.060547 54.519531 C 23.430547 54.389531 23.790625 54.240313 24.140625 54.070312 C 24.720625 53.790312 25.400156 53.850469 25.910156 54.230469 L 28.050781 55.830078 C 28.730781 56.340078 29.689062 56.270156 30.289062 55.660156 L 31.570312 54.369141 C 32.170312 53.779141 32.240234 52.840156 31.740234 52.160156 L 30.119141 49.939453 C 29.749141 49.439453 29.690938 48.769219 29.960938 48.199219 C 30.130938 47.829219 30.279922 47.460313 30.419922 47.070312 C 30.629922 46.480312 31.139531 46.039219 31.769531 45.949219 L 34.419922 45.539062 C 35.249922 45.409063 35.869141 44.699609 35.869141 43.849609 L 35.869141 41.990234 C 35.869141 41.150234 35.259922 40.430781 34.419922 40.300781 L 31.769531 39.900391 C 31.149531 39.800391 30.629922 39.369531 30.419922 38.769531 C 30.289922 38.379531 30.130938 38.010625 29.960938 37.640625 C 29.690938 37.080625 29.749141 36.410391 30.119141 35.900391 L 31.740234 33.689453 C 32.230234 33.019453 32.160313 32.080469 31.570312 31.480469 L 30.289062 30.179688 C 29.689062 29.569688 28.740781 29.499766 28.050781 30.009766 L 25.900391 31.609375 C 25.390391 31.989375 24.710859 32.049531 24.130859 31.769531 C 23.780859 31.599531 23.420781 31.450312 23.050781 31.320312 C 22.450781 31.110312 22.019687 30.590703 21.929688 29.970703 L 21.519531 27.259766 C 21.399531 26.419766 20.680078 25.800781 19.830078 25.800781 L 18.039062 25.800781 z M 18.939453 36.259766 A 6.6599998 6.6599998 0 0 1 25.599609 42.919922 A 6.6599998 6.6599998 0 0 1 18.939453 49.580078 A 6.6599998 6.6599998 0 0 1 12.279297 42.919922 A 6.6599998 6.6599998 0 0 1 18.939453 36.259766 z " />
		<path
   id="path2"
   class="st6"
   d="M 18.75 28.380859 L 18.449219 30.349609 C 18.209219 31.899609 17.140156 33.200234 15.660156 33.740234 C 15.370156 33.840234 15.090312 33.959844 14.820312 34.089844 C 14.240313 34.369844 13.589219 34.519531 12.949219 34.519531 C 12.029219 34.519531 11.140391 34.219922 10.400391 33.669922 L 8.859375 32.519531 L 8.6191406 32.759766 L 9.8007812 34.380859 C 10.730781 35.640859 10.880937 37.320234 10.210938 38.740234 C 10.070938 39.030234 9.9498437 39.330859 9.8398438 39.630859 C 9.3098437 41.120859 8.0092188 42.199453 6.4492188 42.439453 L 4.5390625 42.730469 L 4.5390625 43.099609 L 6.4609375 43.400391 C 8.0209375 43.640391 9.3196094 44.720937 9.8496094 46.210938 C 9.9596094 46.510938 10.080703 46.809609 10.220703 47.099609 C 10.890703 48.519609 10.730547 50.200938 9.8105469 51.460938 L 8.6308594 53.080078 L 8.8691406 53.320312 L 10.410156 52.169922 C 11.160156 51.609922 12.040703 51.320312 12.970703 51.320312 C 13.610703 51.320312 14.259844 51.47 14.839844 51.75 C 15.119844 51.89 15.399453 51.999375 15.689453 52.109375 C 17.179453 52.649375 18.250469 53.95 18.480469 55.5 L 18.779297 57.470703 L 18.779297 57.490234 L 19.009766 57.490234 L 19.310547 55.519531 C 19.550547 53.969531 20.609609 52.670859 22.099609 52.130859 C 22.389609 52.020859 22.669219 51.899531 22.949219 51.769531 C 23.529219 51.489531 24.180312 51.339844 24.820312 51.339844 C 25.750312 51.339844 26.640859 51.639453 27.380859 52.189453 L 28.919922 53.339844 L 29.160156 53.099609 L 27.980469 51.480469 C 27.060469 50.220469 26.900312 48.549141 27.570312 47.119141 C 27.710312 46.829141 27.829453 46.530469 27.939453 46.230469 C 28.469453 44.740469 29.770078 43.659922 31.330078 43.419922 L 33.25 43.119141 L 33.25 42.75 L 31.339844 42.460938 C 29.779844 42.220937 28.479219 41.140625 27.949219 39.640625 C 27.849219 39.330625 27.729844 39.04 27.589844 38.75 C 26.919844 37.33 27.08 35.660625 28 34.390625 L 29.179688 32.769531 L 28.939453 32.529297 L 27.400391 33.679688 C 26.660391 34.239688 25.779609 34.529297 24.849609 34.529297 C 24.209609 34.529297 23.560469 34.379609 22.980469 34.099609 C 22.710469 33.969609 22.430625 33.85 22.140625 33.75 C 20.650625 33.21 19.579609 31.909609 19.349609 30.349609 L 19.050781 28.380859 L 18.75 28.380859 z M 18.939453 36.259766 A 6.6599998 6.6599998 0 0 1 25.599609 42.919922 A 6.6599998 6.6599998 0 0 1 18.939453 49.580078 A 6.6599998 6.6599998 0 0 1 12.279297 42.919922 A 6.6599998 6.6599998 0 0 1 18.939453 36.259766 z " />
		<path
   class="st31"
   d="M30.42,47.07c-0.14,0.39-0.29,0.76-0.46,1.13c-0.27,0.57-0.21,1.24,0.16,1.74l1.62,2.22    c0.5,0.68,0.43,1.62-0.17,2.21l-1.28,1.29c-0.6,0.61-1.56,0.68-2.24,0.17l-2.14-1.6c-0.51-0.38-1.19-0.44-1.77-0.16    c-0.35,0.17-0.71,0.32-1.08,0.45c-0.59,0.22-1.02,0.73-1.12,1.35l-0.41,2.7c-0.13,0.84-0.85,1.46-1.69,1.46h-1.79    c-0.85,0-1.57-0.62-1.69-1.46l-0.41-2.7c-0.09-0.62-0.52-1.14-1.12-1.35c-0.37-0.13-0.73-0.29-1.08-0.45    c-0.58-0.28-1.26-0.22-1.77,0.16l-2.14,1.6c-0.69,0.51-1.64,0.44-2.24-0.17l-1.28-1.29c-0.59-0.6-0.66-1.54-0.17-2.21l1.62-2.22    c0.37-0.51,0.43-1.17,0.16-1.74c-0.17-0.37-0.33-0.74-0.46-1.13c-0.21-0.6-0.73-1.03-1.35-1.13l-2.65-0.41    C2.62,45.41,2,44.69,2,43.85v-1.86c0-0.85,0.62-1.57,1.45-1.69l2.65-0.4c0.63-0.1,1.14-0.53,1.35-1.13    c0.14-0.38,0.29-0.76,0.46-1.13c0.27-0.57,0.21-1.24-0.16-1.74l-1.62-2.21c-0.5-0.68-0.43-1.62,0.17-2.21l1.28-1.3    c0.6-0.61,1.56-0.68,2.24-0.17l2.15,1.6c0.51,0.38,1.19,0.44,1.77,0.16c0.35-0.17,0.71-0.32,1.08-0.45    c0.59-0.21,1.02-0.73,1.12-1.35l0.41-2.71c0.13-0.84,0.85-1.46,1.69-1.46h1.79c0.85,0,1.57,0.62,1.69,1.46l0.41,2.71    c0.09,0.62,0.52,1.14,1.12,1.35c0.37,0.13,0.73,0.28,1.08,0.45c0.58,0.28,1.26,0.22,1.77-0.16l2.15-1.6    c0.69-0.51,1.64-0.44,2.24,0.17l1.28,1.3c0.59,0.6,0.66,1.54,0.17,2.21l-1.62,2.21c-0.37,0.51-0.43,1.18-0.16,1.74    c0.17,0.37,0.33,0.74,0.46,1.13c0.21,0.6,0.73,1.03,1.35,1.13l2.65,0.4c0.84,0.13,1.45,0.85,1.45,1.69v1.86    c0,0.85-0.62,1.56-1.45,1.69l-2.65,0.41C31.14,46.04,30.63,46.48,30.42,47.07z"
   id="path3" />
		<circle
   class="st32"
   cx="18.94"
   cy="42.92"
   r="6.66"
   id="circle3"
   style="fill:none" />
		<path
   id="path4"
   style="display:inline"
   class="st7"
   d="M 46.189453 7.5703125 C 45.349453 7.5703125 44.63 8.1892969 44.5 9.0292969 L 44.089844 11.740234 C 43.989844 12.360234 43.560703 12.879844 42.970703 13.089844 C 42.600703 13.219844 42.240625 13.369063 41.890625 13.539062 C 41.310625 13.819062 40.629141 13.760859 40.119141 13.380859 L 37.970703 11.779297 C 37.290703 11.269297 36.330469 11.339219 35.730469 11.949219 L 34.449219 13.25 C 33.849219 13.84 33.779297 14.780938 34.279297 15.460938 L 35.900391 17.669922 C 36.270391 18.169922 36.330547 18.840156 36.060547 19.410156 C 35.890547 19.780156 35.739609 20.159063 35.599609 20.539062 C 35.389609 21.139063 34.88 21.569922 34.25 21.669922 L 31.599609 22.070312 C 30.769609 22.190313 30.150391 22.909766 30.150391 23.759766 L 30.150391 25.619141 C 30.150391 26.459141 30.759609 27.180547 31.599609 27.310547 L 34.25 27.720703 C 34.87 27.820703 35.389609 28.249609 35.599609 28.849609 C 35.729609 29.239609 35.890547 29.610469 36.060547 29.980469 C 36.330547 30.550469 36.270391 31.210703 35.900391 31.720703 L 34.279297 33.939453 C 33.789297 34.609453 33.859219 35.550391 34.449219 36.150391 L 35.730469 37.439453 C 36.330469 38.049453 37.280703 38.119375 37.970703 37.609375 L 40.109375 36.009766 C 40.619375 35.629766 41.300859 35.569609 41.880859 35.849609 C 42.230859 36.009609 42.590938 36.170781 42.960938 36.300781 C 43.560938 36.510781 43.990078 37.030391 44.080078 37.650391 L 44.490234 40.349609 C 44.610234 41.189609 45.329687 41.810547 46.179688 41.810547 L 47.970703 41.810547 C 48.810703 41.810547 49.530156 41.189609 49.660156 40.349609 L 50.070312 37.650391 C 50.170312 37.030391 50.599453 36.520781 51.189453 36.300781 C 51.559453 36.170781 51.919531 36.019609 52.269531 35.849609 C 52.849531 35.569609 53.529063 35.629766 54.039062 36.009766 L 56.179688 37.609375 C 56.859688 38.119375 57.819922 38.049453 58.419922 37.439453 L 59.699219 36.150391 C 60.299219 35.560391 60.369141 34.619453 59.869141 33.939453 L 58.25 31.720703 C 57.88 31.220703 57.819844 30.550469 58.089844 29.980469 C 58.259844 29.610469 58.410781 29.239609 58.550781 28.849609 C 58.760781 28.249609 59.270391 27.820469 59.900391 27.730469 L 62.550781 27.320312 C 63.380781 27.190313 64 26.480859 64 25.630859 L 64 23.769531 C 64 22.919531 63.380313 22.200312 62.570312 22.070312 L 59.919922 21.669922 C 59.299922 21.569922 58.780313 21.139063 58.570312 20.539062 C 58.440312 20.149062 58.279375 19.780156 58.109375 19.410156 C 57.839375 18.850156 57.899531 18.179922 58.269531 17.669922 L 59.890625 15.460938 C 60.380625 14.790937 60.310703 13.85 59.720703 13.25 L 58.439453 11.949219 C 57.839453 11.339219 56.889219 11.269297 56.199219 11.779297 L 54.050781 13.380859 C 53.540781 13.760859 52.859297 13.819062 52.279297 13.539062 C 51.929297 13.369063 51.569219 13.219844 51.199219 13.089844 C 50.599219 12.879844 50.170078 12.360234 50.080078 11.740234 L 49.669922 9.0292969 C 49.549922 8.1892969 48.830469 7.5703125 47.980469 7.5703125 L 46.189453 7.5703125 z M 47.060547 17.669922 A 7.02 7.02 0 0 1 54.080078 24.689453 A 7.02 7.02 0 0 1 47.060547 31.710938 A 7.02 7.02 0 0 1 40.039062 24.689453 A 7.02 7.02 0 0 1 47.060547 17.669922 z " />
		<path
   id="path5"
   style="display:inline"
   class="st23"
   d="m 46.869141,10.169922 -0.298829,1.970703 c -0.239999,1.56 -1.301015,2.858437 -2.791015,3.398437 -0.29,0.1 -0.569844,0.221563 -0.839844,0.351563 -0.58,0.28 -1.22914,0.429687 -1.869141,0.429687 -0.919999,0 -1.810781,-0.299609 -2.550781,-0.849609 l -1.539062,-1.150391 -0.240235,0.240235 1.179688,1.619141 c 0.93,1.259999 1.080156,2.929375 0.410156,4.359374 -0.13,0.28 -0.249375,0.58086 -0.359375,0.88086 -0.53,1.49 -1.830625,2.570547 -3.390625,2.810547 l -1.910156,0.289062 v 0.371094 l 1.919922,0.289063 c 1.56,0.239999 2.860625,1.320546 3.390625,2.810546 0.11,0.3 0.22914,0.600625 0.36914,0.890625 0.67,1.42 0.509844,3.089375 -0.410156,4.359375 L 36.759766,34.859375 37,35.099609 l 1.539062,-1.15039 c 0.75,-0.56 1.630547,-0.84961 2.560547,-0.84961 0.64,0 1.291094,0.149688 1.871094,0.429688 0.28,0.14 0.55961,0.261328 0.849609,0.361328 1.49,0.54 2.559063,1.838672 2.789063,3.388672 L 46.910156,39.25 v 0.0293 h 0.240235 l 0.298828,-1.96875 c 0.23,-1.55 1.30125,-2.850625 2.78125,-3.390625 0.29,-0.11 0.569609,-0.229375 0.849609,-0.359375 0.58,-0.28 1.229141,-0.429688 1.869141,-0.429688 0.93,0 1.820547,0.29961 2.560547,0.84961 l 1.541015,1.15039 0.228516,-0.240234 -1.179688,-1.621094 c -0.93,-1.26 -1.080156,-2.929375 -0.410156,-4.359375 0.14,-0.29 0.261094,-0.590625 0.371094,-0.890625 0.53,-1.49 1.828672,-2.568594 3.388672,-2.808593 l 1.919922,-0.300782 V 24.539062 L 59.460938,24.25 c -1.560001,-0.24 -2.860625,-1.320312 -3.390626,-2.820312 -0.1,-0.310001 -0.219374,-0.600626 -0.359374,-0.890626 -0.67,-1.419999 -0.511797,-3.089375 0.408203,-4.359374 l 1.18164,-1.619141 -0.240234,-0.240235 -1.541016,1.150391 c -0.74,0.56 -1.618828,0.849609 -2.548828,0.849609 -0.64,0 -1.291094,-0.149687 -1.871094,-0.429687 -0.27,-0.13 -0.549843,-0.251563 -0.839843,-0.351563 -1.49,-0.539999 -2.559063,-1.838437 -2.789063,-3.398437 l -0.300781,-1.970703 z m 0.191406,7.5 a 7.02,7.02 0 0 1 7.019531,7.019531 7.02,7.02 0 0 1 -7.019531,7.021485 7.02,7.02 0 0 1 -7.021485,-7.021485 7.02,7.02 0 0 1 7.021485,-7.019531 z" />
		<path
   class="st31"
   d="M58.55,28.85c-0.14,0.39-0.29,0.76-0.46,1.13c-0.27,0.57-0.21,1.24,0.16,1.74l1.62,2.22    c0.5,0.68,0.43,1.62-0.17,2.21l-1.28,1.29c-0.6,0.61-1.56,0.68-2.24,0.17l-2.14-1.6c-0.51-0.38-1.19-0.44-1.77-0.16    c-0.35,0.17-0.71,0.32-1.08,0.45c-0.59,0.22-1.02,0.73-1.12,1.35l-0.41,2.7c-0.13,0.84-0.85,1.46-1.69,1.46h-1.79    c-0.85,0-1.57-0.62-1.69-1.46l-0.41-2.7c-0.09-0.62-0.52-1.14-1.12-1.35c-0.37-0.13-0.73-0.29-1.08-0.45    c-0.58-0.28-1.26-0.22-1.77,0.16l-2.14,1.6c-0.69,0.51-1.64,0.44-2.24-0.17l-1.28-1.29c-0.59-0.6-0.66-1.54-0.17-2.21l1.62-2.22    c0.37-0.51,0.43-1.17,0.16-1.74c-0.17-0.37-0.33-0.74-0.46-1.13c-0.21-0.6-0.73-1.03-1.35-1.13l-2.65-0.41    c-0.84-0.13-1.45-0.85-1.45-1.69v-1.86c0-0.85,0.62-1.57,1.45-1.69l2.65-0.4c0.63-0.1,1.14-0.53,1.35-1.13    c0.14-0.38,0.29-0.76,0.46-1.13c0.27-0.57,0.21-1.24-0.16-1.74l-1.62-2.21c-0.5-0.68-0.43-1.62,0.17-2.21l1.28-1.3    c0.6-0.61,1.56-0.68,2.24-0.17l2.15,1.6c0.51,0.38,1.19,0.44,1.77,0.16c0.35-0.17,0.71-0.32,1.08-0.45    c0.59-0.21,1.02-0.73,1.12-1.35l0.41-2.71c0.13-0.84,0.85-1.46,1.69-1.46h1.79c0.85,0,1.57,0.62,1.69,1.46l0.41,2.71    c0.09,0.62,0.52,1.14,1.12,1.35c0.37,0.13,0.73,0.28,1.08,0.45c0.58,0.28,1.26,0.22,1.77-0.16l2.15-1.6    c0.69-0.51,1.64-0.44,2.24,0.17l1.28,1.3c0.59,0.6,0.66,1.54,0.17,2.21l-1.62,2.21c-0.37,0.51-0.43,1.18-0.16,1.74    c0.17,0.37,0.33,0.74,0.46,1.13c0.21,0.6,0.73,1.03,1.35,1.13l2.65,0.4C63.38,22.2,64,22.92,64,23.77v1.86    c0,0.85-0.62,1.56-1.45,1.69l-2.65,0.41C59.27,27.82,58.76,28.25,58.55,28.85z"
   id="path6" />
		<circle
   class="st32"
   cx="47.060001"
   cy="24.690001"
   r="7.02"
   id="circle6"
   style="display:inline;fill:none" />
		<path
   class="st14"
   d="M28.56,14.11c-0.08,0.24-0.18,0.47-0.28,0.69c-0.16,0.35-0.13,0.76,0.1,1.07l0.99,1.36    c0.3,0.42,0.26,0.99-0.1,1.35l-0.78,0.79c-0.37,0.37-0.95,0.42-1.37,0.1l-1.31-0.98c-0.31-0.23-0.73-0.27-1.08-0.1    c-0.22,0.1-0.44,0.2-0.66,0.28c-0.36,0.13-0.63,0.45-0.68,0.83l-0.25,1.65c-0.08,0.51-0.52,0.89-1.04,0.89h-1.09    c-0.52,0-0.96-0.38-1.04-0.89l-0.25-1.65c-0.06-0.38-0.32-0.7-0.68-0.83c-0.23-0.08-0.45-0.18-0.66-0.28    c-0.35-0.17-0.77-0.13-1.08,0.1l-1.31,0.98c-0.42,0.31-1,0.27-1.37-0.1l-0.78-0.79c-0.36-0.37-0.4-0.94-0.1-1.35l0.99-1.36    c0.23-0.31,0.26-0.72,0.1-1.07c-0.11-0.22-0.2-0.45-0.28-0.69c-0.13-0.36-0.44-0.63-0.83-0.69l-1.62-0.25    c-0.51-0.08-0.89-0.52-0.89-1.04V11c0-0.52,0.38-0.96,0.89-1.04l1.62-0.25c0.38-0.06,0.7-0.33,0.83-0.69    c0.08-0.24,0.18-0.47,0.28-0.69c0.16-0.35,0.13-0.76-0.1-1.07L13.7,5.92c-0.3-0.42-0.26-0.99,0.1-1.35l0.78-0.79    c0.37-0.37,0.95-0.42,1.37-0.1l1.31,0.98c0.31,0.23,0.73,0.27,1.08,0.1c0.21-0.1,0.43-0.2,0.66-0.28    c0.36-0.13,0.63-0.45,0.68-0.83l0.25-1.66c0.08-0.51,0.52-0.89,1.04-0.89h1.09c0.52,0,0.96,0.38,1.04,0.89l0.25,1.66    c0.06,0.38,0.32,0.7,0.68,0.83c0.22,0.08,0.44,0.17,0.66,0.28c0.35,0.17,0.77,0.13,1.08-0.1l1.31-0.98c0.42-0.31,1-0.27,1.37,0.1    l0.78,0.79c0.36,0.37,0.4,0.94,0.1,1.35l-0.99,1.36c-0.23,0.31-0.26,0.72-0.1,1.07c0.11,0.22,0.2,0.45,0.28,0.69    c0.13,0.37,0.45,0.63,0.83,0.69L31,9.97c0.51,0.08,0.89,0.52,0.89,1.04v1.14c0,0.52-0.38,0.96-0.89,1.04l-1.62,0.25    C29,13.48,28.69,13.75,28.56,14.11z"
   id="path7"
   style="fill:none" />
		<path
   id="path8"
   class="st31"
   d="M 20.970703 1.0996094 C 20.450703 1.0996094 20.009687 1.4802344 19.929688 1.9902344 L 19.679688 3.6503906 C 19.629687 4.0303906 19.36 4.3504688 19 4.4804688 C 18.77 4.5604688 18.549844 4.6597656 18.339844 4.7597656 C 17.989844 4.9297656 17.569766 4.8901563 17.259766 4.6601562 L 15.949219 3.6796875 C 15.529219 3.3596875 14.950078 3.4092969 14.580078 3.7792969 L 13.800781 4.5703125 C 13.440781 4.9303125 13.399219 5.4999219 13.699219 5.9199219 L 14.730469 7.2597656 C 14.960469 7.5697656 14.990078 7.9800781 14.830078 8.3300781 C 14.730078 8.5500781 14.630781 8.7795312 14.550781 9.0195312 C 14.420781 9.3795313 14.100703 9.6509375 13.720703 9.7109375 L 12.099609 9.9609375 C 11.589609 10.040937 11.210938 10.48 11.210938 11 L 11.210938 12.130859 C 11.210937 12.650859 11.589609 13.089922 12.099609 13.169922 L 13.720703 13.419922 C 14.110703 13.479922 14.420781 13.749375 14.550781 14.109375 C 14.630781 14.349375 14.720078 14.580781 14.830078 14.800781 C 14.990078 15.150781 14.960469 15.559141 14.730469 15.869141 L 13.740234 17.230469 C 13.440234 17.640469 13.479844 18.210078 13.839844 18.580078 L 14.619141 19.369141 C 14.989141 19.739141 15.570234 19.780703 15.990234 19.470703 L 17.300781 18.490234 C 17.610781 18.260234 18.030859 18.220625 18.380859 18.390625 C 18.590859 18.490625 18.809062 18.589922 19.039062 18.669922 C 19.399062 18.799922 19.660703 19.12 19.720703 19.5 L 19.970703 21.150391 C 20.050703 21.660391 20.489766 22.039062 21.009766 22.039062 L 22.099609 22.039062 C 22.619609 22.039062 23.060625 21.660391 23.140625 21.150391 L 23.390625 19.5 C 23.440625 19.12 23.710313 18.799922 24.070312 18.669922 C 24.290313 18.589922 24.510469 18.490625 24.730469 18.390625 C 25.080469 18.220625 25.500547 18.260234 25.810547 18.490234 L 27.119141 19.470703 C 27.539141 19.790703 28.120234 19.739141 28.490234 19.369141 L 29.269531 18.580078 C 29.629531 18.220078 29.669141 17.650469 29.369141 17.230469 L 28.380859 15.869141 C 28.150859 15.559141 28.119297 15.150781 28.279297 14.800781 C 28.379297 14.580781 28.480547 14.349375 28.560547 14.109375 C 28.690547 13.749375 29.000859 13.479453 29.380859 13.439453 L 31 13.189453 C 31.51 13.109453 31.890625 12.670391 31.890625 12.150391 L 31.890625 11.009766 C 31.890625 10.489766 31.51 10.050703 31 9.9707031 L 29.349609 9.7304688 C 28.969609 9.6704687 28.649531 9.4090625 28.519531 9.0390625 C 28.439531 8.7990625 28.350234 8.5696094 28.240234 8.3496094 C 28.080234 7.9996094 28.109844 7.5892969 28.339844 7.2792969 L 29.330078 5.9199219 C 29.630078 5.5099219 29.590469 4.9403125 29.230469 4.5703125 L 28.449219 3.7792969 C 28.079219 3.4092969 27.500078 3.3696875 27.080078 3.6796875 L 25.769531 4.6601562 C 25.459531 4.8901562 25.039453 4.9297656 24.689453 4.7597656 C 24.469453 4.6497656 24.249297 4.5604688 24.029297 4.4804688 C 23.669297 4.3504688 23.409609 4.0303906 23.349609 3.6503906 L 23.099609 1.9902344 C 23.019609 1.4802344 22.580547 1.0996094 22.060547 1.0996094 L 20.970703 1.0996094 z M 21.529297 8.1992188 A 3.3699999 3.3699999 0 0 1 24.900391 11.570312 A 3.3699999 3.3699999 0 0 1 21.529297 14.939453 A 3.3699999 3.3699999 0 0 1 18.160156 11.570312 A 3.3699999 3.3699999 0 0 1 21.529297 8.1992188 z "
   style="fill:#cc87fe;fill-opacity:1" />
		
		<path
   id="path9"
   class="st0"
   d="M 43.179688 44.099609 C 42.709688 44.099609 42.32 44.440391 42.25 44.900391 L 42.029297 46.390625 C 41.979297 46.730625 41.749922 47.010859 41.419922 47.130859 C 41.219922 47.200859 41.020078 47.290859 40.830078 47.380859 C 40.520078 47.530859 40.139375 47.499063 39.859375 47.289062 L 38.679688 46.410156 C 38.299687 46.130156 37.779219 46.17 37.449219 46.5 L 36.75 47.210938 C 36.43 47.540938 36.390156 48.059688 36.660156 48.429688 L 37.550781 49.650391 C 37.760781 49.930391 37.790625 50.299375 37.640625 50.609375 C 37.550625 50.809375 37.460625 51.020469 37.390625 51.230469 C 37.280625 51.560469 36.990391 51.799609 36.650391 51.849609 L 35.199219 52.070312 C 34.739219 52.140312 34.400391 52.54 34.400391 53 L 34.400391 54.019531 C 34.400391 54.479531 34.739219 54.879219 35.199219 54.949219 L 36.660156 55.169922 C 37.000156 55.219922 37.280391 55.459063 37.400391 55.789062 C 37.480391 55.999063 37.570156 56.210156 37.660156 56.410156 C 37.800156 56.720156 37.770313 57.089141 37.570312 57.369141 L 36.679688 58.589844 C 36.409688 58.969844 36.449531 59.480547 36.769531 59.810547 L 37.470703 60.519531 C 37.800703 60.849531 38.319219 60.889375 38.699219 60.609375 L 39.880859 59.730469 C 40.160859 59.520469 40.529609 59.490625 40.849609 59.640625 C 41.039609 59.730625 41.239453 59.820625 41.439453 59.890625 C 41.759453 60.000625 42.000781 60.290859 42.050781 60.630859 L 42.269531 62.109375 C 42.339531 62.569375 42.729219 62.910156 43.199219 62.910156 L 44.179688 62.910156 C 44.649687 62.910156 45.039375 62.569375 45.109375 62.109375 L 45.330078 60.630859 C 45.380078 60.290859 45.609453 60.010625 45.939453 59.890625 C 46.139453 59.820625 46.339297 59.730625 46.529297 59.640625 C 46.839297 59.490625 47.22 59.520469 47.5 59.730469 L 48.679688 60.609375 C 49.049688 60.889375 49.580156 60.849531 49.910156 60.519531 L 50.609375 59.810547 C 50.929375 59.480547 50.969219 58.959844 50.699219 58.589844 L 49.810547 57.369141 C 49.600547 57.089141 49.570703 56.720156 49.720703 56.410156 C 49.820703 56.210156 49.900469 55.999063 49.980469 55.789062 C 50.090469 55.459062 50.379687 55.219922 50.679688 55.169922 L 52.140625 54.949219 C 52.600625 54.879219 52.939453 54.479531 52.939453 54.019531 L 52.939453 53 C 52.939453 52.54 52.600625 52.140313 52.140625 52.070312 L 50.689453 51.849609 C 50.349453 51.799609 50.069219 51.560469 49.949219 51.230469 C 49.879219 51.020469 49.789219 50.809375 49.699219 50.609375 C 49.559219 50.299375 49.589062 49.930391 49.789062 49.650391 L 50.679688 48.429688 C 50.949687 48.049688 50.909844 47.540937 50.589844 47.210938 L 49.890625 46.5 C 49.560625 46.17 49.040156 46.130156 48.660156 46.410156 L 47.480469 47.289062 C 47.200469 47.499063 46.829766 47.530859 46.509766 47.380859 C 46.319766 47.290859 46.119922 47.200859 45.919922 47.130859 C 45.599922 47.020859 45.360547 46.730625 45.310547 46.390625 L 45.089844 44.900391 C 45.019844 44.440391 44.630156 44.099609 44.160156 44.099609 L 43.179688 44.099609 z M 43.669922 50.689453 A 2.8199999 2.8199999 0 0 1 46.490234 53.509766 A 2.8199999 2.8199999 0 0 1 43.669922 56.330078 A 2.8199999 2.8199999 0 0 1 40.849609 53.509766 A 2.8199999 2.8199999 0 0 1 43.669922 50.689453 z " />
		<path
   class="st31"
   d="M49.98,55.79c-0.08,0.21-0.16,0.42-0.26,0.62c-0.15,0.31-0.12,0.68,0.09,0.96l0.89,1.22    c0.27,0.37,0.23,0.89-0.09,1.22l-0.7,0.71c-0.33,0.33-0.86,0.37-1.23,0.09l-1.18-0.88c-0.28-0.21-0.66-0.24-0.97-0.09    c-0.19,0.09-0.39,0.18-0.59,0.25c-0.33,0.12-0.56,0.4-0.61,0.74l-0.22,1.48c-0.07,0.46-0.46,0.8-0.93,0.8h-0.98    c-0.47,0-0.86-0.34-0.93-0.8l-0.22-1.48c-0.05-0.34-0.29-0.63-0.61-0.74c-0.2-0.07-0.4-0.16-0.59-0.25    c-0.32-0.15-0.69-0.12-0.97,0.09l-1.18,0.88c-0.38,0.28-0.9,0.24-1.23-0.09l-0.7-0.71c-0.32-0.33-0.36-0.84-0.09-1.22l0.89-1.22    c0.2-0.28,0.23-0.65,0.09-0.96c-0.09-0.2-0.18-0.41-0.26-0.62c-0.12-0.33-0.4-0.57-0.74-0.62l-1.46-0.22    c-0.46-0.07-0.8-0.47-0.8-0.93V53c0-0.46,0.34-0.86,0.8-0.93l1.45-0.22c0.34-0.05,0.63-0.29,0.74-0.62    c0.07-0.21,0.16-0.42,0.25-0.62c0.15-0.31,0.12-0.68-0.09-0.96l-0.89-1.22c-0.27-0.37-0.23-0.89,0.09-1.22l0.7-0.71    c0.33-0.33,0.85-0.37,1.23-0.09l1.18,0.88c0.28,0.21,0.66,0.24,0.97,0.09c0.19-0.09,0.39-0.18,0.59-0.25    c0.33-0.12,0.56-0.4,0.61-0.74l0.22-1.49c0.07-0.46,0.46-0.8,0.93-0.8h0.98c0.47,0,0.86,0.34,0.93,0.8l0.22,1.49    c0.05,0.34,0.29,0.63,0.61,0.74c0.2,0.07,0.4,0.16,0.59,0.25c0.32,0.15,0.69,0.12,0.97-0.09l1.18-0.88    c0.38-0.28,0.9-0.24,1.23,0.09l0.7,0.71c0.32,0.33,0.36,0.84,0.09,1.22l-0.89,1.22c-0.2,0.28-0.23,0.65-0.09,0.96    c0.09,0.2,0.18,0.41,0.25,0.62c0.12,0.33,0.4,0.57,0.74,0.62l1.45,0.22c0.46,0.07,0.8,0.47,0.8,0.93v1.02    c0,0.46-0.34,0.86-0.8,0.93l-1.46,0.22C50.38,55.22,50.09,55.46,49.98,55.79z"
   id="path10" />
		
	<circle
   class="st32"
   cx="43.67"
   cy="53.51"
   r="2.82"
   id="circle14"
   style="fill:none" /></g>
</g>
</svg>
