<?xml version="1.0" encoding="utf-8"?>
<!-- Generator: Adobe Illustrator 18.0.0, SVG Export Plug-In . SVG Version: 6.00 Build 0)  -->
<!DOCTYPE svg PUBLIC "-//W3C//DTD SVG 1.1//EN" "http://www.w3.org/Graphics/SVG/1.1/DTD/svg11.dtd">
<svg version="1.1" id="Layer_1" xmlns="http://www.w3.org/2000/svg" xmlns:xlink="http://www.w3.org/1999/xlink" x="0px" y="0px"
	 viewBox="0 0 64 64" enable-background="new 0 0 64 64" xml:space="preserve">
<g>
	<path fill="#E4EBF7" d="M18.8,25.7H6.9c-1.4,0-2.6,1.2-2.6,2.6V39c0,1.4,1.2,2.6,2.6,2.6h11.9c1.4,0,2.6-1.2,2.6-2.6V28.3
		C21.4,26.9,20.3,25.7,18.8,25.7z"/>
	<path fill="none" stroke="#2B3C65" stroke-width="2" stroke-linecap="round" stroke-linejoin="round" stroke-miterlimit="10" d="
		M6.9,41.6c-1.4,0-2.5-1.2-2.5-2.6V28.3c0-1.4,1.2-2.6,2.6-2.6h2.5h5.6h3.7c1.4,0,2.6,1.2,2.6,2.6V39c0,1.4-1.2,2.6-2.6,2.6H15H6.9z
		"/>
	<path fill="#F8B824" d="M45.7,34.4c0,1-0.9,1.9-1.9,1.9h-2.6c0.5,0,1,0.2,1.3,0.6c0.4,0.3,0.6,0.8,0.6,1.3c0,1.1-0.9,1.9-1.9,1.9
		h-5.5c0.5,0,1,0.2,1.3,0.6c0.4,0.4,0.7,1,0.5,1.7c-0.2,0.9-1,1.5-1.9,1.5h-6.4c-0.9,0-1.7-0.3-2.3-0.9l-2-2
		c-0.6-0.6-1.4-0.9-2.3-0.9h-1.5c0.2-0.3,0.3-0.7,0.3-1.2V28.3c0-0.3-0.1-0.7-0.2-1l4.6-2.1c0.4-0.2,0.9-0.3,1.4-0.3h3.5l0,0l0,0
		h7.8c0.5,0,1,0.2,1.3,0.6c0.3,0.3,0.6,0.8,0.6,1.3c0,1.1-0.8,1.9-1.9,1.9h2c0.5,0,1,0.2,1.3,0.6c0.4,0.3,0.6,0.8,0.6,1.3
		c0,1.1-0.9,1.9-1.9,1.9h3.4c0.5,0,1,0.2,1.3,0.6C45.5,33.4,45.7,33.9,45.7,34.4z"/>
	<path fill="none" stroke="#2B3C65" stroke-width="2" stroke-linecap="round" stroke-linejoin="round" stroke-miterlimit="10" d="
		M37.5,42.6c-0.2,0.8-1,1.4-1.9,1.4h-1.1h-5.2c-0.8,0-1.7-0.3-2.3-0.9l-2-2c-0.6-0.6-1.4-0.9-2.3-0.9h-1.5c0.2-0.3,0.3-0.7,0.3-1.2
		V28.3c0-0.3-0.1-0.7-0.2-1l1.8-0.8"/>
	<path fill="#45C8F5" d="M39.6,51.4l6,10.3c0.7,1.2,2.3,1.7,3.5,0.9l9.3-5.3c1.2-0.7,1.7-2.3,0.9-3.5l-6-10.3
		c-0.7-1.2-2.3-1.7-3.5-0.9l-9.3,5.3C39.3,48.6,38.9,50.1,39.6,51.4z"/>
	<path fill="none" stroke="#2B3C65" stroke-width="2" stroke-linecap="round" stroke-linejoin="round" stroke-miterlimit="10" d="
		M59.3,53.8c0.7,1.2,0.2,2.8-1,3.5L49,62.6c-1.2,0.7-2.8,0.3-3.5-0.9l-1.3-2.2l-2.8-4.9l-1.9-3.2c-0.7-1.2-0.3-2.8,1-3.5l9.3-5.3
		c1.2-0.7,2.8-0.3,3.5,0.9l1.9,3.3L59.3,53.8z"/>
	<path fill="#FECB4D" d="M33.8,23.8c0.9-0.5,2.1-0.2,2.6,0.7l1.3,2.3c-0.3-0.4-0.3-1-0.2-1.4c0.1-0.5,0.4-0.9,0.9-1.2
		c0.9-0.5,2.1-0.2,2.6,0.7l2.7,4.7c-0.3-0.5-0.3-1-0.2-1.4c0.2-0.6,0.6-1.1,1.2-1.3c0.9-0.3,1.8,0.1,2.3,0.9l3.2,5.5
		c0.4,0.7,0.6,1.6,0.3,2.4l-0.7,2.7c-0.2,0.8-0.1,1.7,0.3,2.4l0.8,1.3c-0.4,0-0.8,0.1-1.1,0.3l-9.3,5.3c-0.3,0.2-0.5,0.4-0.7,0.6
		l-4.1-2.9c-0.4-0.3-0.7-0.6-0.9-1l-1.7-3l0,0l0,0l-3.9-6.8c-0.3-0.5-0.3-1-0.2-1.4s0.4-0.9,0.9-1.2c0.9-0.5,2.1-0.2,2.6,0.7l-1-1.7
		c-0.3-0.5-0.3-1-0.2-1.4c0.1-0.5,0.4-0.9,0.9-1.2c0.9-0.5,2.1-0.2,2.6,0.7l-1.7-2.9c-0.3-0.5-0.3-1-0.2-1.4
		C33,24.5,33.3,24,33.8,23.8z"/>
	<path fill="none" stroke="#2B3C65" stroke-width="2" stroke-linecap="round" stroke-linejoin="round" stroke-miterlimit="10" d="
		M49.9,32.7l0.3,0.5c0.4,0.7,0.5,1.6,0.3,2.4l-0.7,2.7c-0.2,0.8-0.1,1.7,0.3,2.4l0.8,1.3c-0.4,0-0.8,0.1-1.1,0.3l-9.3,5.3
		c-0.3,0.2-0.5,0.4-0.7,0.6l-4.1-2.9c-0.4-0.3-0.7-0.6-0.9-1l-0.4-0.6L34,43.1"/>
	<path fill="#77C9AE" d="M51.5,20.6l6-10.3c0.7-1.2,0.3-2.8-0.9-3.5l-9.3-5.3c-1.2-0.7-2.8-0.3-3.5,0.9l-6,10.3
		c-0.7,1.2-0.3,2.8,0.9,3.5l9.3,5.3C49.2,22.2,50.8,21.8,51.5,20.6z"/>
	<path fill="none" stroke="#2B3C65" stroke-width="2" stroke-linecap="round" stroke-linejoin="round" stroke-miterlimit="10" d="
		M43.7,2.2C44.4,1,46,0.6,47.2,1.4l9.3,5.3c1.2,0.7,1.7,2.3,0.9,3.5l-1.3,2.2l-2.8,4.9l-1.9,3.2c-0.7,1.2-2.3,1.7-3.6,0.9l-9.3-5.3
		c-1.2-0.7-1.7-2.3-0.9-3.5l1.9-3.3L43.7,2.2z"/>
	<path fill="#FFD880" d="M30.5,39.4c-0.9-0.5-1.2-1.7-0.7-2.6l1.3-2.3c-0.3,0.4-0.7,0.8-1.2,0.9c-0.5,0.1-1,0.1-1.4-0.2
		c-0.9-0.5-1.2-1.7-0.7-2.6l2.7-4.7c-0.3,0.5-0.7,0.8-1.2,0.9c-0.6,0.2-1.2,0-1.7-0.4c-0.7-0.6-0.8-1.7-0.3-2.4l3.2-5.5
		c0.4-0.7,1.1-1.3,1.9-1.5l2.7-0.8c0.8-0.2,1.5-0.8,1.9-1.5l0.8-1.3c0.2,0.3,0.5,0.6,0.9,0.8l9.3,5.3c0.3,0.2,0.6,0.3,0.9,0.3
		l-0.5,5c0,0.5-0.2,0.9-0.4,1.3l-1.7,3l0,0l0,0l-3.9,6.8c-0.3,0.5-0.7,0.8-1.2,0.9c-0.5,0.1-1,0.1-1.4-0.2c-0.9-0.5-1.2-1.7-0.7-2.6
		l-1,1.7c-0.3,0.5-0.7,0.8-1.1,0.9c-0.5,0.1-1,0.1-1.4-0.2c-0.9-0.5-1.2-1.7-0.7-2.6l-1.7,2.9c-0.3,0.5-0.7,0.8-1.2,0.9
		C31.5,39.7,30.9,39.7,30.5,39.4z"/>
	<g>
		<path fill="none" stroke="#2B3C65" stroke-width="2" stroke-linecap="round" stroke-linejoin="round" stroke-miterlimit="10" d="
			M30.5,27.9c-0.3,0.5-0.7,0.8-1.2,0.9c-0.6,0.2-1.2,0-1.7-0.4c-0.7-0.6-0.8-1.7-0.4-2.4l3.2-5.5c0.4-0.7,1.1-1.3,1.9-1.5l2.7-0.8
			c0.8-0.2,1.5-0.8,1.9-1.5l0.8-1.3c0.2,0.3,0.5,0.6,0.9,0.8l9.3,5.3c0.3,0.2,0.6,0.3,0.9,0.3l-0.5,5c0,0.5-0.2,0.9-0.4,1.3l-1.7,3"
			/>
		<path fill="none" stroke="#2B3C65" stroke-width="2" stroke-linecap="round" stroke-linejoin="round" stroke-miterlimit="10" d="
			M33.1,23.5l-5.3,9.1c-0.5,0.9-0.2,2.1,0.7,2.6c0.5,0.3,1,0.3,1.4,0.2c0.5-0.1,0.9-0.4,1.2-0.9l5.3-9.1"/>
		<path fill="none" stroke="#2B3C65" stroke-width="2" stroke-linecap="round" stroke-linejoin="round" stroke-miterlimit="10" d="
			M36.4,25.4l-6.6,11.4c-0.5,0.9-0.2,2.1,0.7,2.6c0.5,0.3,1,0.3,1.4,0.2c0.5-0.1,0.9-0.4,1.2-0.9l6.6-11.4"/>
		<path fill="none" stroke="#2B3C65" stroke-width="2" stroke-linecap="round" stroke-linejoin="round" stroke-miterlimit="10" d="
			M39.6,27.3l-4.9,8.5c-0.5,0.9-0.2,2.1,0.7,2.6c0.5,0.3,1,0.3,1.4,0.2c0.5-0.1,0.9-0.4,1.1-0.9l4.9-8.5"/>
		<path fill="none" stroke="#2B3C65" stroke-width="2" stroke-linecap="round" stroke-linejoin="round" stroke-miterlimit="10" d="
			M42.9,29.2L39,36c-0.5,0.9-0.2,2.1,0.7,2.6c0.5,0.3,1,0.3,1.4,0.2s0.9-0.4,1.2-0.9l3.9-6.8"/>
	</g>
</g>
</svg>
