<?xml version="1.0" encoding="utf-8"?>
<!-- Generator: Adobe Illustrator 18.0.0, SVG Export Plug-In . SVG Version: 6.00 Build 0)  -->
<!DOCTYPE svg PUBLIC "-//W3C//DTD SVG 1.1//EN" "http://www.w3.org/Graphics/SVG/1.1/DTD/svg11.dtd">
<svg version="1.1" id="Layer_1" xmlns="http://www.w3.org/2000/svg" xmlns:xlink="http://www.w3.org/1999/xlink" x="0px" y="0px"
	 viewBox="0 0 64 64" enable-background="new 0 0 64 64" xml:space="preserve">
<g>
	<path fill="#FFD880" d="M57,31.6h-1.3c2.9,0,5.2,2.4,5.1,5.3c-0.2,2.7-2.6,4.8-5.3,4.8h-1.3c2.9,0,5.2,2.4,5.1,5.3
		c-0.2,2.7-2.6,4.8-5.3,4.8h-1.3c2.9,0,5.2,2.4,5.1,5.3C57.5,60,55.1,62,52.3,62H28.8c-4.4,0-8.7-1.4-12.2-4V25.5c0,0,1.3-1,3.1-2
		c4.4-2.4,7.6-6.6,9-11.5l2.2-8c0.3-2.3,2.7-3.6,4.8-2.7c3.4,1.5,5.5,5.5,5.5,9.1l-1.4,7.5c-0.3,1.9,1.1,3.6,3,3.6h14.4
		c2.9,0,5.2,2.4,5,5.4C62.2,29.6,59.7,31.6,57,31.6z"/>
	<path fill="#FECB4D" d="M62.3,26.9c0.2-2.9-2.1-5.4-5-5.4h-7.8v3.2c0,18.1-14.7,32.8-32.8,32.8l0,0V58c3.5,2.6,7.8,4,12.2,4h23.5
		c2.7,0,5.2-2.1,5.3-4.8c0.2-2.9-2.2-5.3-5.1-5.3h1.3c2.7,0,5.2-2.1,5.3-4.8c0.1-2.9-2.2-5.3-5.1-5.3h1.3c2.7,0,5.2-2.1,5.3-4.8
		c0.2-2.9-2.2-5.3-5.1-5.3H57C59.7,31.6,62.2,29.6,62.3,26.9z"/>
	<line fill="none" x1="55.7" y1="31.6" x2="41.8" y2="31.6"/>
	<line fill="none" x1="54.2" y1="41.8" x2="38.9" y2="41.8"/>
	<path fill="none" stroke="#2A3C65" stroke-width="2" stroke-linecap="round" stroke-linejoin="round" stroke-miterlimit="10" d="
		M20.6,60.3c2.6,1.1,5.4,1.8,8.3,1.8h23.5c2.7,0,5.2-2,5.4-4.8c0.1-2.9-2.2-5.3-5.1-5.3H54c2.7,0,5.2-2.1,5.3-4.8
		c0.1-2.9-2.2-5.3-5.1-5.3h1.3c2.7,0,5.2-2,5.4-4.8c0.1-2.9-2.2-5.3-5.1-5.3H57c2.7,0,5.2-2,5.3-4.8c0.2-2.9-2.1-5.4-5-5.4H42.8
		c-1.9,0-3.3-1.7-3-3.6l1.4-7.5c0-3.6-2.1-7.6-5.5-9.1c-2.1-0.9-4.5,0.4-4.8,2.7l-2.2,8c-1.3,4.7-4.3,8.7-8.5,11.2"/>
	<path fill="#27D1FF" d="M16.7,25.7v33.2c0,2.2-1.8,4.1-4.1,4.1H5.7c-2.2,0-4.1-1.8-4.1-4.1V25.7c0-2.2,1.8-4.1,4.1-4.1h6.9
		C14.9,21.7,16.7,23.5,16.7,25.7z"/>
	<path fill="none" stroke="#2A3C65" stroke-width="2" stroke-linecap="round" stroke-linejoin="round" stroke-miterlimit="10" d="
		M16.7,25.7v33.2c0,2.2-1.8,4.1-4.1,4.1H5.7c-2.2,0-4.1-1.8-4.1-4.1V25.7c0-2.2,1.8-4.1,4.1-4.1h6.9C14.9,21.7,16.7,23.5,16.7,25.7z
		"/>
	
		<line fill="none" stroke="#2A3C65" stroke-width="2" stroke-linecap="round" stroke-linejoin="round" stroke-miterlimit="10" x1="55.7" y1="31.6" x2="41.8" y2="31.6"/>
	
		<line fill="none" stroke="#2A3C65" stroke-width="2" stroke-linecap="round" stroke-linejoin="round" stroke-miterlimit="10" x1="54.2" y1="41.8" x2="38.9" y2="41.8"/>
	
		<line fill="none" stroke="#2A3C65" stroke-width="2" stroke-linecap="round" stroke-linejoin="round" stroke-miterlimit="10" x1="52.6" y1="51.9" x2="36" y2="51.9"/>
	
		<path fill="#E3ECFF" stroke="#2A3C65" stroke-width="2" stroke-linecap="round" stroke-linejoin="round" stroke-miterlimit="10" d="
		M12.5,56.7c0,1.2-1,2.2-2.2,2.2s-2.2-1-2.2-2.2s1-2.2,2.2-2.2C11.5,54.4,12.5,55.4,12.5,56.7z"/>
</g>
</svg>
