<?xml version="1.0" encoding="utf-8"?>
<!-- Generator: Adobe Illustrator 18.0.0, SVG Export Plug-In . SVG Version: 6.00 Build 0)  -->
<!DOCTYPE svg PUBLIC "-//W3C//DTD SVG 1.1//EN" "http://www.w3.org/Graphics/SVG/1.1/DTD/svg11.dtd">
<svg version="1.1" id="Layer_1" xmlns="http://www.w3.org/2000/svg" xmlns:xlink="http://www.w3.org/1999/xlink" x="0px" y="0px"
	 viewBox="0 0 64 64" enable-background="new 0 0 64 64" xml:space="preserve">
<g>
	<path fill="#45C8F5" d="M28.1,10L28.1,10c0.8,0,1.4,0.6,1.4,1.4v27.4h5V11.4c0-0.8,0.6-1.4,1.4-1.4l0,0c1.1,0,1.8-1.2,1.2-2.2
		l-3.9-6.2c-0.5-0.9-1.8-0.9-2.4,0l-3.9,6.2C26.3,8.8,27,10,28.1,10z"/>
	<path fill="#45C8F5" d="M9.9,19.7L9.9,19.7c0.8,0,1.4,0.6,1.4,1.4v17.7h5V21.1c0-0.8,0.6-1.4,1.4-1.4l0,0c1.1,0,1.8-1.2,1.2-2.2
		L15,11.4c-0.5-0.9-1.8-0.9-2.4,0l-3.9,6.2C8.1,18.5,8.7,19.7,9.9,19.7z"/>
	<path fill="#45C8F5" d="M46.3,19.7L46.3,19.7c0.8,0,1.4,0.6,1.4,1.4v17.7h5V21.1c0-0.8,0.6-1.4,1.4-1.4l0,0c1.1,0,1.8-1.2,1.2-2.2
		l-3.9-6.2c-0.5-0.9-1.8-0.9-2.4,0l-3.9,6.2C44.5,18.5,45.2,19.7,46.3,19.7z"/>
	
		<path fill="none" stroke="#2B3C65" stroke-width="1.8894" stroke-linecap="round" stroke-linejoin="round" stroke-miterlimit="10" d="
		M29.5,25.5V11.4c0-0.8-0.6-1.4-1.4-1.4l0,0c-1.1,0-1.8-1.2-1.2-2.2l3.9-6.2c0.5-0.9,1.8-0.9,2.4,0l3.9,6.2c0.6,1-0.1,2.2-1.2,2.2
		l0,0c-0.8,0-1.4,0.6-1.4,1.4v13.9"/>
	
		<path fill="none" stroke="#2B3C65" stroke-width="1.8894" stroke-linecap="round" stroke-linejoin="round" stroke-miterlimit="10" d="
		M11.3,26.9v-5.8c0-0.8-0.6-1.4-1.4-1.4l0,0c-1.1,0-1.8-1.2-1.2-2.2l3.9-6.2c0.6-0.9,1.8-0.9,2.4,0l3.9,6.2c0.6,0.9-0.1,2.2-1.2,2.2
		l0,0c-0.8,0-1.4,0.6-1.4,1.4v5.3"/>
	
		<path fill="none" stroke="#2B3C65" stroke-width="1.8894" stroke-linecap="round" stroke-linejoin="round" stroke-miterlimit="10" d="
		M47.7,26.5v-5.4c0-0.8-0.6-1.4-1.4-1.4l0,0c-1.1,0-1.8-1.2-1.2-2.2l3.9-6.2c0.5-0.9,1.8-0.9,2.4,0l3.9,6.2c0.6,0.9-0.1,2.2-1.2,2.2
		l0,0c-0.8,0-1.4,0.6-1.4,1.4v5.6"/>
	<g>
		<path fill="#C9D8EF" d="M61,52.3V63H38.4V52.3c0.1-3.8,3.2-6.8,7-6.8H54C57.8,45.5,60.9,48.5,61,52.3z"/>
		
			<path fill="none" stroke="#2B3C65" stroke-width="1.8894" stroke-linecap="round" stroke-linejoin="round" stroke-miterlimit="10" d="
			M61,63V52.3c-0.1-3.8-3.2-6.8-7-6.8h-8.6h-0.1"/>
		
			<path fill="#FECB4D" stroke="#2B3C65" stroke-width="1.8894" stroke-linecap="round" stroke-linejoin="round" stroke-miterlimit="10" d="
			M52.3,43.1v2.2c0,0.7-0.3,1.4-0.8,1.8c-0.5,0.5-1.1,0.8-1.8,0.8c-1.4,0-2.6-1.2-2.6-2.6v-2.2H52.3z"/>
		
			<path fill="#FECB4D" stroke="#2B3C65" stroke-width="1.8894" stroke-linecap="round" stroke-linejoin="round" stroke-miterlimit="10" d="
			M54.8,34.2v5.6c0,2.8-2.3,5.1-5.1,5.1s-5.1-2.3-5.1-5.1v-5.6H54.8z"/>
		<path fill="#77C9AE" d="M54.8,38c0,0-0.1-0.2-0.3-0.4c-0.3-0.4-0.6-1-1-1.8c-0.2-0.5-0.8-0.8-1.3-0.6c-1,0.4-2.8,0.8-4.9,0
			c-0.5-0.2-1.1,0-1.3,0.5c-0.3,0.8-0.9,2-1.5,2.3c-0.1,0-1.7-5.6,1.3-6.1c0,0,4.8-5.1,9.1,1.6c0.2,0.2,0.2,0.5,0.2,0.8
			C55.3,35.2,55.3,37.3,54.8,38z"/>
		
			<path fill="none" stroke="#2B3C65" stroke-width="1.8894" stroke-linecap="round" stroke-linejoin="round" stroke-miterlimit="10" d="
			M54.8,38c0,0-0.1-0.2-0.3-0.4c-0.3-0.4-0.6-1-1-1.8c-0.2-0.5-0.8-0.8-1.3-0.6c-1,0.4-2.8,0.8-4.9,0c-0.5-0.2-1.1,0-1.3,0.5
			c-0.3,0.8-0.9,2-1.5,2.3c-0.1,0-1.7-5.6,1.3-6.1c0,0,4.8-5.1,9.1,1.6c0.2,0.2,0.2,0.5,0.2,0.8C55.3,35.2,55.3,37.3,54.8,38z"/>
		<path fill="#C9D8EF" d="M25.6,52.3V63H3V52.3c0.1-3.8,3.2-6.8,7-6.8h8.6C22.4,45.5,25.5,48.5,25.6,52.3z"/>
		
			<path fill="none" stroke="#2B3C65" stroke-width="1.8894" stroke-linecap="round" stroke-linejoin="round" stroke-miterlimit="10" d="
			M3,63V52.3c0.1-3.8,3.2-6.8,7-6.8h8.6h0.1"/>
		
			<path fill="#FECB4D" stroke="#2B3C65" stroke-width="1.8894" stroke-linecap="round" stroke-linejoin="round" stroke-miterlimit="10" d="
			M16.9,43.1v2.2c0,0.7-0.3,1.4-0.8,1.8C15.7,47.7,15,48,14.3,48c-1.4,0-2.6-1.2-2.6-2.6v-2.2h5.2V43.1z"/>
		
			<path fill="#FECB4D" stroke="#2B3C65" stroke-width="1.8894" stroke-linecap="round" stroke-linejoin="round" stroke-miterlimit="10" d="
			M19.4,34.2v5.6c0,2.8-2.3,5.1-5.1,5.1s-5.1-2.3-5.1-5.1v-5.6H19.4z"/>
		<path fill="#77C9AE" d="M19.4,38c0,0-0.1-0.2-0.3-0.4c-0.3-0.4-0.6-1-1-1.8c-0.2-0.5-0.8-0.8-1.3-0.6c-1,0.4-2.8,0.8-4.9,0
			c-0.5-0.2-1.1,0-1.3,0.5c-0.3,0.8-0.9,2-1.5,2.3c-0.1,0-1.7-5.6,1.3-6.1c0,0,4.8-5.1,9.1,1.6c0.2,0.2,0.2,0.5,0.2,0.8
			C19.9,35.2,19.9,37.3,19.4,38z"/>
		
			<path fill="none" stroke="#2B3C65" stroke-width="1.8894" stroke-linecap="round" stroke-linejoin="round" stroke-miterlimit="10" d="
			M19.4,38c0,0-0.1-0.2-0.3-0.4c-0.3-0.4-0.6-1-1-1.8c-0.2-0.5-0.8-0.8-1.3-0.6c-1,0.4-2.8,0.8-4.9,0c-0.5-0.2-1.1,0-1.3,0.5
			c-0.3,0.8-0.9,2-1.5,2.3c-0.1,0-1.7-5.6,1.3-6.1c0,0,4.8-5.1,9.1,1.6c0.2,0.2,0.2,0.5,0.2,0.8C19.9,35.2,19.9,37.3,19.4,38z"/>
		<path fill="#C9D8EF" d="M43.7,51.9V63H20.3V51.9c0.1-3.9,3.3-7,7.3-7h8.9C40.4,44.9,43.6,48,43.7,51.9z"/>
		
			<path fill="none" stroke="#2B3C65" stroke-width="1.8894" stroke-linecap="round" stroke-linejoin="round" stroke-miterlimit="10" d="
			M20.3,63V51.9c0.1-3.9,3.3-7,7.3-7h8.9c3.9,0,7.1,3.1,7.3,7V63"/>
		
			<path fill="#FECB4D" stroke="#2B3C65" stroke-width="1.8894" stroke-linecap="round" stroke-linejoin="round" stroke-miterlimit="10" d="
			M34.7,42.4v2.3c0,0.7-0.3,1.4-0.8,1.9s-1.2,0.8-1.9,0.8c-1.5,0-2.7-1.2-2.7-2.7v-2.3H34.7z"/>
		
			<path fill="#FECB4D" stroke="#2B3C65" stroke-width="1.8894" stroke-linecap="round" stroke-linejoin="round" stroke-miterlimit="10" d="
			M37.3,33.2V39c0,2.9-2.4,5.3-5.3,5.3s-5.3-2.4-5.3-5.3v-5.8H37.3z"/>
		<path fill="#F27DAD" d="M37.3,37.1c0,0-0.1-0.2-0.4-0.5c-0.3-0.4-0.7-1-1-1.9c-0.2-0.5-0.8-0.8-1.3-0.6c-1.1,0.4-2.9,0.8-5.1,0
			c-0.5-0.2-1.1,0-1.3,0.6c-0.4,0.9-0.9,2.1-1.5,2.4c-0.1,0.1-1.8-5.9,1.3-6.3c0,0,5-5.3,9.4,1.7c0.2,0.2,0.2,0.5,0.3,0.8
			C37.8,34.2,37.8,36.3,37.3,37.1z"/>
		
			<path fill="none" stroke="#2B3C65" stroke-width="1.8894" stroke-linecap="round" stroke-linejoin="round" stroke-miterlimit="10" d="
			M37.3,37.1c0,0-0.1-0.2-0.4-0.5c-0.3-0.4-0.7-1-1-1.9c-0.2-0.5-0.8-0.8-1.3-0.6c-1.1,0.4-2.9,0.8-5.1,0c-0.5-0.2-1.1,0-1.3,0.6
			c-0.4,0.9-0.9,2.1-1.5,2.4c-0.1,0.1-1.8-5.9,1.3-6.3c0,0,5-5.3,9.4,1.7c0.2,0.2,0.2,0.5,0.3,0.8C37.8,34.2,37.8,36.3,37.3,37.1z"
			/>
	</g>
</g>
</svg>
