<?xml version="1.0" encoding="utf-8"?>
<!-- Generator: Adobe Illustrator 18.0.0, SVG Export Plug-In . SVG Version: 6.00 Build 0)  -->
<!DOCTYPE svg PUBLIC "-//W3C//DTD SVG 1.1//EN" "http://www.w3.org/Graphics/SVG/1.1/DTD/svg11.dtd">
<svg version="1.1" id="Layer_1" xmlns="http://www.w3.org/2000/svg" xmlns:xlink="http://www.w3.org/1999/xlink" x="0px" y="0px"
	 viewBox="0 0 66 66" enable-background="new 0 0 66 66" xml:space="preserve">
<g>
	
		<path fill="none" stroke="#2A3C65" stroke-width="1.8872" stroke-linecap="round" stroke-linejoin="round" stroke-miterlimit="10" d="
		M32.7,28.8C43.8,27.3,50,20.4,51.3,7.9"/>
	
		<path fill="none" stroke="#2A3C65" stroke-width="1.8872" stroke-linecap="round" stroke-linejoin="round" stroke-miterlimit="10" d="
		M26.8,29.5C14.7,31.9,8.7,39,8.5,50.7"/>
	<path fill="#FECB4D" d="M58.1,53l-1.4-8.8c-0.2-1.1-1-2-2.1-2.3l-19.9-5.3L40,56.5c0.3,1.1,1.2,1.9,2.3,2.1l8.8,1.4L58.1,53z"/>
	<path fill="#F9B826" d="M58.1,53l-7,7l-8.8-1.4c-1.1-0.2-2-1-2.3-2.1l-5.3-19.9l2.7,0.7L41,50.8c0.3,1.1,1.2,1.9,2.3,2.1
		c0.9,0.2,1.9,0.2,2.8,0.2c4.2,0,8.2-1.5,11.4-4.2L58.1,53z"/>
	
		<path fill="none" stroke="#2A3C65" stroke-width="1.8872" stroke-linecap="round" stroke-linejoin="round" stroke-miterlimit="10" d="
		M46.9,59.3l-4.5-0.7c-1.1-0.2-2-1-2.3-2.1l-5.3-19.9l19.9,5.3c1.1,0.3,1.9,1.2,2.1,2.3l0.7,4.5"/>
	
		<line fill="none" stroke="#2A3C65" stroke-width="1.8872" stroke-linecap="round" stroke-linejoin="round" stroke-miterlimit="10" x1="44.9" y1="46.7" x2="34.8" y2="36.6"/>
	
		<rect x="51.8" y="55.9" transform="matrix(-0.7071 0.7071 -0.7071 -0.7071 138.345 59.9029)" fill="#00ADDB" stroke="#2A3C65" stroke-width="1.8872" stroke-linecap="round" stroke-linejoin="round" stroke-miterlimit="10" width="9.9" height="5.4"/>
	
		<circle fill="none" stroke="#2A3C65" stroke-width="1.8872" stroke-linecap="round" stroke-linejoin="round" stroke-miterlimit="10" cx="46.8" cy="48.5" r="2.6"/>
	
		<line fill="none" stroke="#2A3C65" stroke-width="1.8872" stroke-linecap="round" stroke-linejoin="round" stroke-miterlimit="10" x1="50.7" y1="29.2" x2="32.7" y2="29.2"/>
	
		<line fill="none" stroke="#2A3C65" stroke-width="1.8872" stroke-linecap="round" stroke-linejoin="round" stroke-miterlimit="10" x1="26.8" y1="29.2" x2="9.1" y2="29.2"/>
	
		<path fill="#FF5892" stroke="#2A3C65" stroke-width="1.8872" stroke-linecap="round" stroke-linejoin="round" stroke-miterlimit="10" d="
		M31.5,32h-3.6c-0.7,0-1.2-0.5-1.2-1.2v-3.6c0-0.7,0.5-1.2,1.2-1.2h3.6c0.7,0,1.2,0.5,1.2,1.2v3.6C32.7,31.5,32.2,32,31.5,32z"/>
	
		<path fill="#FF5892" stroke="#2A3C65" stroke-width="1.8872" stroke-linecap="round" stroke-linejoin="round" stroke-miterlimit="10" d="
		M10.2,56.6H6.7c-0.7,0-1.2-0.5-1.2-1.2v-3.6c0-0.7,0.5-1.2,1.2-1.2h3.6c0.7,0,1.2,0.5,1.2,1.2v3.6C11.4,56.1,10.9,56.6,10.2,56.6z"
		/>
	
		<path fill="#FF5892" stroke="#2A3C65" stroke-width="1.8872" stroke-linecap="round" stroke-linejoin="round" stroke-miterlimit="10" d="
		M53.3,7.9h-3.6c-0.7,0-1.2-0.5-1.2-1.2V3.2C48.5,2.5,49,2,49.7,2h3.6c0.7,0,1.2,0.5,1.2,1.2v3.6C54.5,7.4,53.9,7.9,53.3,7.9z"/>
	
		<circle fill="#02BEFF" stroke="#2A3C65" stroke-width="1.8872" stroke-linecap="round" stroke-linejoin="round" stroke-miterlimit="10" cx="6.5" cy="29.2" r="2.6"/>
	
		<circle fill="#02BEFF" stroke="#2A3C65" stroke-width="1.8872" stroke-linecap="round" stroke-linejoin="round" stroke-miterlimit="10" cx="53.3" cy="29.2" r="2.6"/>
</g>
</svg>
