<?xml version="1.0" encoding="utf-8"?>
<!-- Generator: Adobe Illustrator 18.0.0, SVG Export Plug-In . SVG Version: 6.00 Build 0)  -->
<!DOCTYPE svg PUBLIC "-//W3C//DTD SVG 1.1//EN" "http://www.w3.org/Graphics/SVG/1.1/DTD/svg11.dtd">
<svg version="1.1" id="Layer_1" xmlns="http://www.w3.org/2000/svg" xmlns:xlink="http://www.w3.org/1999/xlink" x="0px" y="0px"
	 viewBox="0 0 64 64" enable-background="new 0 0 64 64" xml:space="preserve">
<g>
	<path fill="#FFD880" d="M51.7,4.9v42.7c0,1.1-0.4,2-1.1,2.7c-0.7,0.7-1.7,1.1-2.7,1.1h-43c-1.1,0-2-0.4-2.7-1.1
		C1.4,49.6,1,48.6,1,47.6V4.9c0-1.1,0.4-2,1.1-2.7C2.8,1.4,3.8,1,4.9,1h42.9c1.1,0,2,0.4,2.7,1.1C51.2,2.8,51.7,3.8,51.7,4.9z"/>
	
		<path fill="none" stroke="#2B3C65" stroke-width="1.9375" stroke-linecap="round" stroke-linejoin="round" stroke-miterlimit="10" d="
		M50.5,2.1l-7,7H9.1l-7-7C2.8,1.4,3.8,1,4.9,1h42.9C48.9,1,49.8,1.4,50.5,2.1z"/>
	
		<path fill="none" stroke="#2B3C65" stroke-width="1.9375" stroke-linecap="round" stroke-linejoin="round" stroke-miterlimit="10" d="
		M31.9,43.3H9.1l-7,7c0.7,0.7,1.7,1.1,2.7,1.1h27"/>
	
		<path fill="none" stroke="#2B3C65" stroke-width="1.9375" stroke-linecap="round" stroke-linejoin="round" stroke-miterlimit="10" d="
		M51.7,28.4V4.9c0-1.1-0.4-2-1.1-2.7l-7,7l0,0v19.3"/>
	
		<path fill="none" stroke="#2B3C65" stroke-width="1.9375" stroke-linecap="round" stroke-linejoin="round" stroke-miterlimit="10" d="
		M9.1,43.3L9.1,43.3l-7,7C1.4,49.6,1,48.6,1,47.6V4.9c0-1.1,0.4-2,1.1-2.7l7,7l0,0V43.3z"/>
	<rect x="9.1" y="9.1" fill="#FECB4D" width="34.4" height="34.2"/>
	<path fill="#F8B824" d="M43.6,9.1v34.2H9.1v-2.6C26.1,39.6,39.8,26,41,9L43.6,9.1L43.6,9.1z"/>
	
		<polyline fill="none" stroke="#2B3C65" stroke-width="1.9375" stroke-linecap="round" stroke-linejoin="round" stroke-miterlimit="10" points="
		31.9,43.3 9.1,43.3 9.1,43.3 9.1,9.1 43.5,9.1 43.6,9.1 43.6,28.4 	"/>
	
		<line fill="none" stroke="#2B3C65" stroke-width="1.9375" stroke-linecap="round" stroke-linejoin="round" stroke-miterlimit="10" x1="39.7" y1="37.5" x2="37.8" y2="39.5"/>
	
		<line fill="none" stroke="#2B3C65" stroke-width="1.9375" stroke-linecap="round" stroke-linejoin="round" stroke-miterlimit="10" x1="32.6" y1="32.3" x2="25.4" y2="39.5"/>
	
		<line fill="none" stroke="#2B3C65" stroke-width="1.9375" stroke-linecap="round" stroke-linejoin="round" stroke-miterlimit="10" x1="39.7" y1="25.2" x2="35.9" y2="29"/>
	
		<line fill="none" stroke="#2B3C65" stroke-width="1.9375" stroke-linecap="round" stroke-linejoin="round" stroke-miterlimit="10" x1="39.6" y1="13" x2="13.1" y2="39.5"/>
	
		<line fill="none" stroke="#2B3C65" stroke-width="1.9375" stroke-linecap="round" stroke-linejoin="round" stroke-miterlimit="10" x1="27.2" y1="13" x2="13" y2="27.2"/>
	
		<line fill="none" stroke="#2B3C65" stroke-width="1.9375" stroke-linecap="round" stroke-linejoin="round" stroke-miterlimit="10" x1="14.9" y1="13" x2="13" y2="14.9"/>
	<path fill="#C9D8EF" d="M63,35.3V60c0,1.7-1.3,3-3,3H38.8c-1.7,0-3-1.3-3-3V35.3c0-1.7,1.3-3,3-3H60C61.7,32.2,63,33.6,63,35.3z"/>
	<path fill="#B2CBEA" d="M63,35.3V60c0,1.7-1.3,3-3,3H38.8c-1.5,0-2.7-1-3-2.4c0.2,0,0.4,0.1,0.6,0.1c13.4,0,24.2-10.8,24.2-24.2V33
		c0-0.2,0-0.4-0.1-0.6C62,32.6,63,33.8,63,35.3z"/>
	
		<path fill="none" stroke="#2B3C65" stroke-width="1.9375" stroke-linecap="round" stroke-linejoin="round" stroke-miterlimit="10" d="
		M63,35.3V60c0,1.7-1.3,3-3,3H38.8c-1.7,0-3-1.3-3-3V35.3c0-1.7,1.3-3,3-3H60C61.7,32.2,63,33.6,63,35.3z"/>
	
		<line fill="none" stroke="#2B3C65" stroke-width="1.9375" stroke-linecap="round" stroke-linejoin="round" stroke-miterlimit="10" x1="58.6" y1="58.5" x2="40.2" y2="58.5"/>
	
		<line fill="none" stroke="#2B3C65" stroke-width="1.9375" stroke-linecap="round" stroke-linejoin="round" stroke-miterlimit="10" x1="58.6" y1="54.1" x2="40.2" y2="54.1"/>
	
		<line fill="none" stroke="#2B3C65" stroke-width="1.9375" stroke-linecap="round" stroke-linejoin="round" stroke-miterlimit="10" x1="58.6" y1="49.8" x2="40.2" y2="49.8"/>
	
		<line fill="none" stroke="#2B3C65" stroke-width="1.9375" stroke-linecap="round" stroke-linejoin="round" stroke-miterlimit="10" x1="58.6" y1="45.4" x2="52.5" y2="45.4"/>
	
		<line fill="none" stroke="#2B3C65" stroke-width="1.9375" stroke-linecap="round" stroke-linejoin="round" stroke-miterlimit="10" x1="58.6" y1="41.1" x2="52.5" y2="41.1"/>
	
		<line fill="none" stroke="#2B3C65" stroke-width="1.9375" stroke-linecap="round" stroke-linejoin="round" stroke-miterlimit="10" x1="58.6" y1="36.8" x2="52.5" y2="36.8"/>
	<path fill="#77C9AE" d="M46.7,36.8h-4.5c-1.1,0-1.9,0.9-1.9,1.9v4.8c0,1.1,0.9,1.9,1.9,1.9h4.5c1.1,0,1.9-0.9,1.9-1.9v-4.8
		C48.6,37.6,47.7,36.8,46.7,36.8z"/>
	
		<path fill="none" stroke="#2B3C65" stroke-width="1.9375" stroke-linecap="round" stroke-linejoin="round" stroke-miterlimit="10" d="
		M46.7,36.8h-4.5c-1.1,0-1.9,0.9-1.9,1.9v4.8c0,1.1,0.9,1.9,1.9,1.9h4.5c1.1,0,1.9-0.9,1.9-1.9v-4.8C48.6,37.6,47.7,36.8,46.7,36.8z
		"/>
</g>
</svg>
