<?xml version="1.0" encoding="utf-8"?>
<!-- Generator: Adobe Illustrator 18.0.0, SVG Export Plug-In . SVG Version: 6.00 Build 0)  -->
<!DOCTYPE svg PUBLIC "-//W3C//DTD SVG 1.1//EN" "http://www.w3.org/Graphics/SVG/1.1/DTD/svg11.dtd">
<svg version="1.1" id="Layer_1" xmlns="http://www.w3.org/2000/svg" xmlns:xlink="http://www.w3.org/1999/xlink" x="0px" y="0px"
	 viewBox="0 0 64 64" enable-background="new 0 0 64 64" xml:space="preserve">
<g>
	<g>
		<path fill="#E3ECFF" d="M63,5v54c0,2.2-1.8,4-4,4H5c-2.2,0-4-1.8-4-4V5c0-2.2,1.8-4,4-4h54C61.2,1,63,2.8,63,5z"/>
		<path fill="#C7D9F9" d="M63,5v54c0,2.2-1.8,4-4,4H5c-1.9,0-3.4-1.3-3.9-3c0.3,0.1,0.7,0.1,1,0.1H6c29.9,0,54.2-24.3,54.2-54.2V2.1
			c0-0.3,0-0.7-0.1-1C61.7,1.6,63,3.1,63,5z"/>
		<path fill="#38FCC4" d="M63,5v10.9H1V5c0-2.2,1.8-4,4-4h54C61.2,1,63,2.8,63,5z"/>
		<path fill="none" stroke="#2A3C65" stroke-width="2" stroke-linecap="round" stroke-linejoin="round" stroke-miterlimit="10" d="
			M63,19.9V59c0,2.2-1.8,4-4,4H5c-2.2,0-4-1.8-4-4V19.9"/>
		
			<path fill="#E3ECFF" stroke="#2A3C65" stroke-width="2" stroke-linecap="round" stroke-linejoin="round" stroke-miterlimit="10" d="
			M56.5,7h-25c-0.9,0-1.7,0.8-1.7,1.7s0.8,1.7,1.7,1.7h25c0.9,0,1.7-0.8,1.7-1.7S57.4,7,56.5,7z"/>
		
			<circle fill="#E3ECFF" stroke="#2A3C65" stroke-width="2" stroke-linecap="round" stroke-linejoin="round" stroke-miterlimit="10" cx="7.7" cy="8.5" r="1.9"/>
		
			<circle fill="#E3ECFF" stroke="#2A3C65" stroke-width="2" stroke-linecap="round" stroke-linejoin="round" stroke-miterlimit="10" cx="14.4" cy="8.5" r="1.9"/>
		
			<circle fill="#E3ECFF" stroke="#2A3C65" stroke-width="2" stroke-linecap="round" stroke-linejoin="round" stroke-miterlimit="10" cx="21" cy="8.5" r="1.9"/>
		<path fill="none" stroke="#2A3C65" stroke-width="2" stroke-linecap="round" stroke-linejoin="round" stroke-miterlimit="10" d="
			M63,12.9"/>
		<path fill="none" stroke="#2A3C65" stroke-width="2" stroke-linecap="round" stroke-linejoin="round" stroke-miterlimit="10" d="
			M1,15.9h62v-4V5c0-2.2-1.8-4-4-4H5C2.8,1,1,2.8,1,5v6.9V15.9z"/>
	</g>
	<g>
		<path fill="#FFD880" d="M55.3,24.7V30c0,1.1-0.9,2-2,2H10.8c-1.1,0-2-0.9-2-2v-5.3c0-1.1,0.9-2,2-2h42.5
			C54.3,22.7,55.3,23.6,55.3,24.7z"/>
		<path fill="none" stroke="#2A3C65" stroke-width="2" stroke-linecap="round" stroke-linejoin="round" stroke-miterlimit="10" d="
			M55.3,24.7V30c0,1.1-0.9,2-2,2H10.8c-1.1,0-2-0.9-2-2v-5.3c0-1.1,0.9-2,2-2h42.5C54.3,22.7,55.3,23.6,55.3,24.7z"/>
		
			<path fill="#FF7DAF" stroke="#2A3C65" stroke-width="2" stroke-linecap="round" stroke-linejoin="round" stroke-miterlimit="10" d="
			M53.3,22.7h-7.9V32h7.9c1.1,0,2-0.9,2-2v-5.3C55.3,23.6,54.3,22.7,53.3,22.7z"/>
		<path fill="#38FCC4" d="M19.3,43.8v8.5c0,1.1-0.9,2-2,2H8.8c-1.1,0-2-0.9-2-2v-8.5c0-1.1,0.9-2,2-2h8.5
			C18.4,41.8,19.3,42.7,19.3,43.8z"/>
		<path fill="#1DE9B6" d="M19.3,43.8v8.5c0,1.1-0.9,2-2,2H8.8c-1,0-1.8-0.7-2-1.7c0.1,0,0.2,0,0.3,0c5.8,0,10.5-4.7,10.5-10.5
			c0-0.1,0-0.2,0-0.3C18.6,41.9,19.3,42.8,19.3,43.8z"/>
		<path fill="none" stroke="#2A3C65" stroke-width="2" stroke-linecap="round" stroke-linejoin="round" stroke-miterlimit="10" d="
			M19.3,43.8v8.5c0,1.1-0.9,2-2,2H8.8c-1.1,0-2-0.9-2-2v-8.5c0-1.1,0.9-2,2-2h8.5C18.4,41.8,19.3,42.7,19.3,43.8z"/>
		
			<line fill="none" stroke="#2A3C65" stroke-width="2" stroke-linecap="round" stroke-linejoin="round" stroke-miterlimit="10" x1="23.6" y1="42.6" x2="57.2" y2="42.6"/>
		
			<line fill="none" stroke="#2A3C65" stroke-width="2" stroke-linecap="round" stroke-linejoin="round" stroke-miterlimit="10" x1="23.6" y1="48" x2="57.2" y2="48"/>
		
			<line fill="none" stroke="#2A3C65" stroke-width="2" stroke-linecap="round" stroke-linejoin="round" stroke-miterlimit="10" x1="23.6" y1="53.4" x2="46.2" y2="53.4"/>
		
			<path fill="#02BEFF" stroke="#2A3C65" stroke-width="2" stroke-linecap="round" stroke-linejoin="round" stroke-miterlimit="10" d="
			M30.1,38.9l0.9-1.5c0.3-0.5,1.1-0.5,1.4,0l1.1,1.7c0.3,0.4,0.8,0.5,1.2,0.2l0.8-0.5c0.4-0.3,0.5-0.8,0.2-1.2l-1.1-1.7
			c-0.3-0.5,0-1.2,0.6-1.3l1.8-0.3c0.8-0.1,1-1.2,0.3-1.6l-8.8-5.2c-0.6-0.4-1.4,0.1-1.3,0.8l1.2,10.2
			C28.6,39.3,29.6,39.5,30.1,38.9z"/>
	</g>
</g>
</svg>
