<?xml version="1.0" encoding="UTF-8" standalone="no"?>
<svg
   width="161.46278"
   height="174.79013"
   viewBox="0 0 42.720361 46.246555"
   version="1.1"
   id="svg1"
   xml:space="preserve"
   xmlns="http://www.w3.org/2000/svg"
   xmlns:svg="http://www.w3.org/2000/svg"><defs
     id="defs1" /><g
     id="layer1"
     transform="translate(-6.6811794,-2.6093994)"><g
       id="g349"
       transform="translate(3.6674917,0.78589108)"><path
         id="path46-6"
         d="m 35.540649,126.15095 c 2.36039,-0.45686 3.657334,0.20156 5.24788,1.45021 0.365271,-0.22878 0.73979,-0.46212 1.111995,-0.69548 -0.0069,-0.0263 -0.01388,-0.0526 -0.02082,-0.0789 -0.314411,0.0305 -0.577961,-0.0504 -0.813767,-0.26287 -0.601079,-0.54174 -1.211406,-1.07344 -1.835602,-1.58953 -0.515542,-0.42713 -1.0542,-0.82659 -1.585923,-1.24066 -0.945544,0.61379 -1.703827,1.34566 -2.103777,2.41726 m -1.174415,-0.13769 c -0.684305,0.49141 -1.266888,0.98352 -1.82173,1.47767 0.01388,0.23611 0.01618,0.44497 0.0393,0.65201 0.02313,0.21734 0.04855,0.43627 0.09941,0.64905 0.490111,2.10201 1.763933,3.69522 3.379913,5.05826 1.190598,1.00343 2.438991,1.94117 3.513997,3.0727 0.261238,0.27475 0.51554,0.55799 0.779091,0.84671 0.03236,-0.0917 -0.0069,-0.14374 -0.03005,-0.20202 -0.656562,-1.80298 -1.851786,-3.22301 -3.280503,-4.46984 -0.818391,-0.71332 -1.634472,-1.42231 -2.267916,-2.31477 -0.663497,-0.93845 -0.927047,-1.97458 -0.827639,-3.11158 0.04855,-0.55091 0.164142,-1.08441 0.416132,-1.65819 m -0.649629,-7.06442 c 0.168765,0.15216 0.284356,0.26905 0.413821,0.37154 1.273826,1.01876 2.545337,2.04093 3.826095,3.05051 1.199846,0.94509 2.376574,1.91624 3.544053,2.89703 0.610326,0.50993 0.984845,0.50741 1.542,-0.0259 0.478551,-0.45846 0.959413,-0.9158 1.48189,-1.32623 0.212689,-0.167 0.427691,-0.33011 0.66581,-0.51313 -0.938608,-0.99564 -1.724632,-2.06952 -2.406627,-3.21959 -0.749036,-0.32257 -1.49345,-0.64378 -2.304906,-0.99403 0.779091,1.25873 1.514256,2.44769 2.274852,3.676 -0.08091,-0.0188 -0.11328,-0.0177 -0.13408,-0.0322 -1.130489,-0.78586 -2.191625,-1.64286 -2.989209,-2.77758 -0.11328,-0.16198 -0.261239,-0.25028 -0.432316,-0.33975 -0.906241,-0.4738 -1.99743,-0.66642 -2.582326,-1.66482 -0.896995,0.43264 -1.837914,0.74903 -2.899049,0.8982 m 8.311069,25.96985 c -0.0045,-0.0832 -0.0045,-0.16699 -0.01388,-0.24981 -0.275111,-2.57421 -1.377858,-4.7597 -3.17647,-6.61876 -1.172104,-1.21367 -2.556898,-2.19054 -3.812228,-3.31269 -1.498071,-1.34086 -2.77652,-2.85032 -3.511685,-4.74048 -0.931672,-2.39279 -0.834575,-4.73088 0.494735,-6.96673 0.462366,-0.7767 1.012584,-1.49208 1.777803,-2.0551 -0.698175,-0.35896 -1.368608,-0.70327 -1.951192,-1.2123 -0.372207,0.44841 -0.688929,0.88422 -0.964038,1.35505 -1.257642,2.14021 -1.65759,4.43873 -1.246083,6.86149 0.416131,2.45569 1.613666,4.52636 3.310556,6.3449 1.155922,1.23722 2.51066,2.24271 3.80298,3.32001 2.383508,1.98693 4.376313,4.24406 5.289491,7.27442 m -10.160539,-2.27119 c -0.270485,-0.1172 -0.503981,-0.21574 -0.735165,-0.31777 -0.240432,-0.1064 -0.485487,-0.20591 -0.718984,-0.32557 -2.506034,-1.27883 -4.739274,-2.90842 -6.623423,-4.99761 -1.703827,-1.88879 -3.023888,-3.99743 -3.85615,-6.39936 -1.056513,-3.05051 -1.331621,-6.14564 -0.485487,-9.28538 1.176726,-4.36621 3.631903,-7.90356 7.206006,-10.69191 0.56178,-0.43901 1.160547,-0.83182 1.75469,-1.25369 -0.08324,-0.46556 -0.164142,-0.92334 -0.24968,-1.40927 -0.159516,0.0807 -0.305162,0.14212 -0.436937,0.22238 -1.359364,0.82245 -2.600822,1.79636 -3.752118,2.88098 -1.706138,1.60693 -3.102491,3.45294 -4.200615,5.5124 -1.02877,1.92446 -1.780119,3.95349 -2.025174,6.12252 -0.242743,2.14753 -0.06937,4.2866 0.462369,6.38678 0.836886,3.32207 2.496788,6.1994 4.864113,8.68506 2.408938,2.52866 5.252502,4.29093 8.796555,4.87044 m -3.067805,-31.52324 c -0.864629,0.52803 -1.590546,1.1535 -2.291034,1.80826 -3.151038,2.94092 -5.243256,6.43505 -5.749548,10.75916 -0.157207,1.34978 -0.122535,2.69889 0.09478,4.03609 0.406884,2.52134 1.389416,4.81529 2.892113,6.8894 1.451836,2.00132 3.21346,3.66569 5.421268,4.83426 0.508606,0.26907 1.040329,0.49372 1.643719,0.65157 -0.104037,-0.16357 -0.238121,-0.21184 -0.344463,-0.29283 -0.108656,-0.0831 -0.226561,-0.1535 -0.332907,-0.23908 -3.134856,-2.52409 -5.578472,-5.53685 -6.78294,-9.42079 -0.744414,-2.39921 -1.007964,-4.82837 -0.457745,-7.30784 0.755971,-3.42183 2.499101,-6.27697 5.072179,-8.6558 0.478551,-0.44175 0.998715,-0.83297 1.530439,-1.2427 -0.235807,-0.61154 -0.50167,-1.19056 -0.695864,-1.8197 m -0.984845,7.99714 c 0.22656,-0.94874 0.686616,-1.75084 1.181352,-2.53875 -0.968662,0.88355 -1.768559,1.88901 -2.413563,3.01986 -1.516567,2.65976 -2.092217,5.50003 -1.662214,8.52515 0.374519,2.64718 1.523505,4.97019 3.171847,7.05686 1.782427,2.25392 4.041096,3.97341 6.415358,5.56822 2.076033,1.3944 4.300026,2.60714 5.897506,4.61099 0.04161,-0.0756 0.0069,-0.1304 -0.0093,-0.18873 -0.37683,-1.33469 -1.079631,-2.49413 -1.95813,-3.55771 -1.11893,-1.35186 -2.531467,-2.37196 -3.937066,-3.3985 -1.64603,-1.20404 -3.21577,-2.49092 -4.510402,-4.07542 -2.242486,-2.74419 -3.405342,-5.82743 -3.019265,-9.39886 0.203443,-1.89131 0.843823,-3.61766 1.96969,-5.16419 0.08322,-0.11518 0.184947,-0.22053 0.224249,-0.3816 -0.450809,-0.0273 -0.8785,-0.0972 -1.350116,-0.0773 m 2.899049,-11.23455 c 0.02313,0.0551 0.05087,0.10983 0.07165,0.16561 0.612639,1.56829 1.502697,2.97254 2.612383,4.23811 2.311839,2.63621 5.127662,4.63205 8.218594,6.26712 0.358335,0.18875 0.714359,0.388 1.121243,0.51247 0.04855,-0.54175 -0.06011,-1.02677 -0.231184,-1.50421 -0.499358,-1.38524 -1.225276,-2.66319 -1.870279,-3.98051 -0.325971,-0.66344 -0.781404,-1.14593 -1.396354,-1.52317 -0.205753,-0.12676 -0.388389,-0.28987 -0.587207,-0.42623 -0.129471,-0.0872 -0.210377,-0.1988 -0.272796,-0.33744 -0.432317,-0.989 -0.871565,-1.97526 -1.301567,-2.96472 -0.18957,-0.43331 -0.36527,-0.87232 -0.545595,-1.30883 -0.04855,0.1 -0.06243,0.19079 -0.05779,0.28117 0.04392,0.99175 0.196506,1.96954 0.430002,3.01046 -2.885178,-1.9526 -5.516053,-4.05735 -7.296171,-7.11725 -0.117913,1.78927 -0.173389,3.50098 0.108655,5.20514 0.309787,1.86888 0.873877,3.63939 2.085281,5.14977 0.381453,0.47676 0.795273,0.92677 1.363986,1.3404 -1.188286,-2.26854 -2.200873,-4.50736 -2.452864,-7.00789"
         style="fill:#ffffff;fill-opacity:1;fill-rule:nonzero;stroke:none;stroke-width:0.0356478"
         transform="matrix(0.98960468,0,0,1.0000163,-14.43938,-98.322864)" /><path
         id="path47"
         d="m 33.910802,106.44249 h 2.603433 v -2.57624 h -2.603433 z"
         style="fill:#00f0f0;fill-opacity:1;fill-rule:nonzero;stroke:none;stroke-width:0.0356478"
         transform="matrix(0.98960468,0,0,1.0000163,-14.43938,-98.322864)" /><path
         id="path48"
         d="m 37.88948,108.50353 h 4.425812 v -4.37974 H 37.88948 Z"
         style="fill:#00f0f0;fill-opacity:1;fill-rule:nonzero;stroke:none;stroke-width:0.0356478"
         transform="matrix(0.98960468,0,0,1.0000163,-14.43938,-98.322864)" /><path
         id="path49"
         d="m 36.761301,102.63518 h 2.516648 v -2.49044 h -2.516648 z"
         style="fill:#00f0f0;fill-opacity:1;fill-rule:nonzero;stroke:none;stroke-width:0.0356478"
         transform="matrix(0.98960468,0,0,1.0000163,-14.43938,-98.322864)" /><text
         style="font-weight:bold;font-size:3.73589px;font-family:Hermit;-inkscape-font-specification:'Hermit, Bold';fill:#00f0f0;fill-opacity:1;stroke-width:0.793752;stroke-linejoin:round"
         x="11.860452"
         y="47.9646"
         id="text340">M</text><text
         style="font-weight:bold;font-size:3.73589px;font-family:Hermit;-inkscape-font-specification:'Hermit, Bold';fill:#ffffff;stroke-width:0.793752;stroke-linejoin:round"
         x="14.169232"
         y="47.9646"
         id="text339">i</text><text
         style="font-weight:bold;font-size:3.73589px;font-family:Hermit;-inkscape-font-specification:'Hermit, Bold';fill:#ffffff;stroke-width:0.793752;stroke-linejoin:round"
         x="16.478012"
         y="47.9646"
         id="text338">k</text><text
         style="font-weight:bold;font-size:3.73589px;font-family:Hermit;-inkscape-font-specification:'Hermit, Bold';fill:#ffffff;stroke-width:0.793752;stroke-linejoin:round"
         x="18.786793"
         y="47.9646"
         id="text337">a</text><text
         style="font-weight:bold;font-size:3.73589px;font-family:Hermit;-inkscape-font-specification:'Hermit, Bold';fill:#ffffff;stroke-width:0.793752;stroke-linejoin:round"
         x="21.095572"
         y="47.9646"
         id="text336">l</text><text
         style="font-weight:bold;font-size:3.73589px;font-family:Hermit;-inkscape-font-specification:'Hermit, Bold';fill:#00f0f0;fill-opacity:1;stroke-width:0.793752;stroke-linejoin:round"
         x="27.480488"
         y="48.062592"
         id="text348">S</text><text
         style="font-weight:bold;font-size:3.73589px;font-family:Hermit;-inkscape-font-specification:'Hermit, Bold';fill:#ffffff;stroke-width:0.793752;stroke-linejoin:round"
         x="29.789268"
         y="48.062592"
         id="text347">v</text><text
         style="font-weight:bold;font-size:3.73589px;font-family:Hermit;-inkscape-font-specification:'Hermit, Bold';fill:#ffffff;stroke-width:0.793752;stroke-linejoin:round"
         x="32.098049"
         y="48.062592"
         id="text346">e</text><text
         style="font-weight:bold;font-size:3.73589px;font-family:Hermit;-inkscape-font-specification:'Hermit, Bold';fill:#ffffff;stroke-width:0.793752;stroke-linejoin:round"
         x="34.40683"
         y="48.062592"
         id="text345">n</text><text
         style="font-weight:bold;font-size:3.73589px;font-family:Hermit;-inkscape-font-specification:'Hermit, Bold';fill:#ffffff;stroke-width:0.793752;stroke-linejoin:round"
         x="36.715611"
         y="48.062592"
         id="text344">d</text><text
         style="font-weight:bold;font-size:3.73589px;font-family:Hermit;-inkscape-font-specification:'Hermit, Bold';fill:#ffffff;stroke-width:0.793752;stroke-linejoin:round"
         x="39.024387"
         y="48.062592"
         id="text343">s</text><text
         style="font-weight:bold;font-size:3.73589px;font-family:Hermit;-inkscape-font-specification:'Hermit, Bold';fill:#ffffff;stroke-width:0.793752;stroke-linejoin:round"
         x="41.333168"
         y="48.062592"
         id="text342">e</text><text
         style="font-weight:bold;font-size:3.73589px;font-family:Hermit;-inkscape-font-specification:'Hermit, Bold';fill:#ffffff;stroke-width:0.793752;stroke-linejoin:round"
         x="43.641949"
         y="48.062592"
         id="text341">n</text></g></g></svg>
