<?xml version="1.0" encoding="UTF-8" standalone="no"?>
<svg
   width="103.05801"
   height="170.9095"
   viewBox="0 0 27.267434 45.219805"
   version="1.1"
   id="svg1"
   xml:space="preserve"
   xmlns="http://www.w3.org/2000/svg"
   xmlns:svg="http://www.w3.org/2000/svg"><defs
     id="defs1" /><g
     id="layer1"
     transform="translate(-14.147145,-3.3952905)"><g
       id="g349"
       transform="translate(7.4659653,0.78589108)"><path
         id="path46-6"
         d="m 24.399305,28.616033 c 2.335853,-0.456867 3.619314,0.201564 5.193326,1.450234 0.361474,-0.228784 0.7321,-0.462128 1.100436,-0.695491 -0.0068,-0.0263 -0.01374,-0.0526 -0.0206,-0.0789 -0.311143,0.0305 -0.571953,-0.0504 -0.805308,-0.262874 -0.59483,-0.541749 -1.198813,-1.073458 -1.81652,-1.589556 -0.510183,-0.427137 -1.043241,-0.826603 -1.569437,-1.24068 -0.935714,0.6138 -1.686115,1.345682 -2.081907,2.417299 m -1.162207,-0.137692 c -0.677191,0.491418 -1.253718,0.983536 -1.802792,1.477694 0.01374,0.236114 0.01601,0.444977 0.03889,0.652021 0.02289,0.217343 0.04805,0.436277 0.09838,0.64906 0.485016,2.102045 1.745596,3.695281 3.344777,5.058343 1.178222,1.003446 2.413637,1.941201 3.477468,3.07275 0.258523,0.274754 0.510181,0.557999 0.770992,0.846724 0.03202,-0.0917 -0.0068,-0.143743 -0.02974,-0.202024 -0.649737,-1.803009 -1.832536,-3.223062 -3.246401,-4.469913 -0.809884,-0.713331 -1.617482,-1.422333 -2.244341,-2.314807 -0.656599,-0.938466 -0.91741,-1.974612 -0.819035,-3.111631 0.04805,-0.550919 0.162436,-1.084428 0.411806,-1.658217 m -0.642876,-7.064535 c 0.167011,0.152162 0.2814,0.269054 0.409519,0.371546 1.260585,1.018777 2.518878,2.040963 3.786322,3.05056 1.187373,0.945105 2.351869,1.916271 3.507211,2.897077 0.603982,0.509938 0.974608,0.507418 1.525971,-0.0259 0.473576,-0.458467 0.949439,-0.915814 1.466485,-1.326251 0.210478,-0.167003 0.423245,-0.330116 0.658889,-0.513139 -0.928851,-0.995656 -1.706704,-2.069553 -2.38161,-3.219642 -0.741249,-0.322575 -1.477925,-0.643791 -2.280945,-0.994046 0.770992,1.25875 1.498514,2.44773 2.251204,3.67606 -0.08007,-0.0188 -0.112103,-0.0177 -0.132686,-0.0322 -1.118738,-0.785873 -2.168843,-1.642887 -2.958136,-2.777625 -0.112102,-0.161983 -0.258523,-0.250284 -0.427822,-0.339756 -0.89682,-0.473807 -1.976666,-0.66643 -2.555481,-1.664847 -0.887671,0.432647 -1.818809,0.749042 -2.868913,0.898215 m 8.224673,25.970273 c -0.0045,-0.0832 -0.0045,-0.166993 -0.01374,-0.249814 -0.272251,-2.574252 -1.363535,-4.759777 -3.143449,-6.618868 -1.15992,-1.21369 -2.530319,-2.190575 -3.772599,-3.312744 -1.482498,-1.340882 -2.747657,-2.850366 -3.47518,-4.740557 -0.921987,-2.392829 -0.825899,-4.730957 0.489592,-6.966844 0.45756,-0.776712 1.002058,-1.492104 1.759322,-2.055133 -0.690917,-0.358966 -1.354381,-0.703282 -1.930908,-1.21232 -0.368338,0.448417 -0.681768,0.884235 -0.954017,1.355072 -1.244568,2.140245 -1.640359,4.438803 -1.23313,6.861602 0.411806,2.45573 1.596892,4.526434 3.276142,6.345003 1.143906,1.237241 2.484561,2.242747 3.763447,3.320065 2.358731,1.986962 4.33082,4.244129 5.234505,7.274538 M 20.763966,45.112932 C 20.496293,44.99573 20.265224,44.897189 20.036443,44.795157 19.798511,44.688755 19.556003,44.589244 19.324933,44.469582 16.84495,43.190731 14.634926,41.561114 12.770363,39.47189 11.084248,37.583069 9.7779093,35.474395 8.9542989,33.072426 7.9087687,30.021866 7.6365205,26.926686 8.4738587,23.786895 9.6383523,19.420613 12.068007,15.883206 15.604956,13.09481 c 0.55594,-0.439017 1.148483,-0.831833 1.736449,-1.25371 -0.08237,-0.465568 -0.162435,-0.923355 -0.247084,-1.409293 -0.157858,0.0807 -0.30199,0.142122 -0.432395,0.222383 -1.345233,0.822464 -2.573786,1.79639 -3.713114,2.881027 -1.688402,1.606957 -3.0702391,3.452997 -4.1569478,5.51249 -1.0180756,1.924492 -1.7616141,3.953555 -2.0041217,6.12262 -0.2402196,2.147565 -0.068649,4.28667 0.4575626,6.386884 0.8281863,3.322124 2.4708331,6.199501 4.8135489,8.685202 2.383896,2.528701 5.197901,4.291 8.705112,4.870519 M 17.728052,13.589178 c -0.855641,0.528039 -1.574012,1.153519 -2.267218,1.80829 -3.118282,2.940968 -5.188751,6.435155 -5.6897797,10.759335 -0.1555728,1.349802 -0.1212612,2.698934 0.093795,4.036156 0.4026537,2.521381 1.3749727,4.815368 2.8620487,6.889512 1.436743,2.001353 3.180055,3.66575 5.364912,4.834339 0.503319,0.269074 1.029514,0.493728 1.626632,0.651581 -0.102956,-0.163573 -0.235646,-0.211844 -0.340882,-0.292835 -0.107527,-0.0831 -0.224206,-0.153503 -0.329447,-0.239084 -3.102268,-2.524131 -5.520482,-5.53694 -6.712429,-9.420944 -0.736675,-2.399249 -0.997486,-4.828448 -0.452986,-7.307959 0.748112,-3.421885 2.473122,-6.277072 5.019452,-8.655941 0.473576,-0.441757 0.988333,-0.832983 1.514529,-1.24272 -0.233356,-0.61155 -0.496455,-1.190579 -0.68863,-1.81973 m -0.974607,7.997271 c 0.224205,-0.948756 0.679478,-1.750869 1.169071,-2.538792 -0.958592,0.883565 -1.750174,1.889041 -2.388473,3.01991 -1.500802,2.659803 -2.070468,5.500119 -1.644935,8.525288 0.370626,2.647224 1.507668,4.970271 3.138875,7.056976 1.763898,2.253956 3.999087,3.973474 6.348668,5.56831 2.054452,1.394423 4.255326,2.607183 5.8362,4.611065 0.04118,-0.0756 0.0068,-0.130402 -0.0092,-0.188733 -0.372912,-1.334711 -1.068408,-2.49417 -1.937774,-3.557768 -1.107299,-1.351882 -2.505152,-2.371998 -3.896139,-3.398555 -1.628919,-1.20406 -3.182341,-2.490961 -4.463515,-4.075486 -2.219175,-2.744235 -3.369943,-5.827525 -2.987879,-9.399014 0.201328,-1.89134 0.835051,-3.617719 1.949214,-5.164274 0.08235,-0.115182 0.183025,-0.220533 0.221918,-0.381606 -0.446122,-0.0273 -0.869367,-0.0972 -1.336081,-0.0773 m 2.868913,-11.234733 c 0.02289,0.0551 0.05034,0.109831 0.0709,0.165612 0.60627,1.568316 1.487076,2.972589 2.585226,4.238179 2.287807,2.636253 5.074359,4.632126 8.133159,6.267222 0.35461,0.188754 0.706933,0.388007 1.109588,0.512479 0.04804,-0.541759 -0.05948,-1.026787 -0.228781,-1.504235 C 30.798231,18.645731 30.079859,17.36776 29.441561,16.050418 29.118979,15.386968 28.66828,14.90447 28.059723,14.527224 27.856109,14.400462 27.675371,14.237349 27.47862,14.100987 27.350495,14.013785 27.27043,13.902183 27.20866,13.763541 26.780837,12.774525 26.346155,11.788249 25.920623,10.798773 25.733024,10.365456 25.55915,9.9264386 25.3807,9.4899215 c -0.04805,0.1000016 -0.06178,0.1907931 -0.05719,0.2811746 0.04346,0.9917659 0.194464,1.9695719 0.425532,3.0105089 -2.855185,-1.952632 -5.458712,-4.057416 -7.220325,-7.1173658 -0.116687,1.7892991 -0.171586,3.501037 0.107526,5.2052248 0.306566,1.86891 0.864793,3.639449 2.063604,5.149854 0.377487,0.476768 0.787005,0.926785 1.349807,1.340422 -1.175934,-2.268577 -2.177995,-4.507434 -2.427366,-7.008004"
         style="fill:#ffffff;fill-opacity:1;fill-rule:nonzero;stroke:none;stroke-width:0.0354623" /><path
         id="path47"
         d="m 22.7864,8.907252 h 2.57637 V 6.33097 H 22.7864 Z"
         style="fill:#00f0f0;fill-opacity:1;fill-rule:nonzero;stroke:none;stroke-width:0.0354623" /><path
         id="path48"
         d="m 26.723719,10.968326 h 4.379804 V 6.5885142 h -4.379804 z"
         style="fill:#00f0f0;fill-opacity:1;fill-rule:nonzero;stroke:none;stroke-width:0.0354623" /><path
         id="path49"
         d="m 25.607268,5.09988 h 2.490486 V 2.6093994 h -2.490486 z"
         style="fill:#00f0f0;fill-opacity:1;fill-rule:nonzero;stroke:none;stroke-width:0.0354623" /></g></g></svg>
