<?xml version="1.0" encoding="UTF-8" standalone="no"?>
<!-- Created with Inkscape (http://www.inkscape.org/) -->

<svg
   version="1.1"
   id="svg1"
   width="2000.0511"
   height="2146.6345"
   viewBox="0 0 2000.0512 2146.6345"
   xmlns="http://www.w3.org/2000/svg"
   xmlns:svg="http://www.w3.org/2000/svg">
  <defs
     id="defs1">
    <clipPath
       clipPathUnits="userSpaceOnUse"
       id="clipPath6">
      <path
         d="M 893.813,7139.4 C 1571.21,1746.7 6273.25,287.199 12909.1,287.199 19545,287.199 24060,1619 24924.4,7139.4 25814.3,12822.1 22247.3,19162.8 12909.1,19092.2 3174.12,19018.7 138.203,13154.9 893.813,7139.4 Z"
         id="path6" />
    </clipPath>
    <clipPath
       clipPathUnits="userSpaceOnUse"
       id="clipPath8">
      <path
         d="M 893.813,7139.4 C 1571.21,1746.7 6273.25,287.199 12909.1,287.199 19545,287.199 24060,1619 24924.4,7139.4 25814.3,12822.1 22247.3,19162.8 12909.1,19092.2 3174.12,19018.7 138.203,13154.9 893.813,7139.4 Z"
         id="path8" />
    </clipPath>
    <clipPath
       clipPathUnits="userSpaceOnUse"
       id="clipPath10">
      <path
         d="M 893.813,7139.4 C 1571.21,1746.7 6273.25,287.199 12909.1,287.199 19545,287.199 24060,1619 24924.4,7139.4 25814.3,12822.1 22247.3,19162.8 12909.1,19092.2 3174.12,19018.7 138.203,13154.9 893.813,7139.4 Z"
         id="path10" />
    </clipPath>
    <clipPath
       clipPathUnits="userSpaceOnUse"
       id="clipPath12">
      <path
         d="M 893.813,7139.4 C 1571.21,1746.7 6273.25,287.199 12909.1,287.199 19545,287.199 24060,1619 24924.4,7139.4 25814.3,12822.1 22247.3,19162.8 12909.1,19092.2 3174.12,19018.7 138.203,13154.9 893.813,7139.4 Z"
         id="path12" />
    </clipPath>
    <clipPath
       clipPathUnits="userSpaceOnUse"
       id="clipPath14">
      <path
         d="M 893.813,7139.4 C 1571.21,1746.7 6273.25,287.199 12909.1,287.199 19545,287.199 24060,1619 24924.4,7139.4 25814.3,12822.1 22247.3,19162.8 12909.1,19092.2 3174.12,19018.7 138.203,13154.9 893.813,7139.4 Z"
         id="path14" />
    </clipPath>
    <clipPath
       clipPathUnits="userSpaceOnUse"
       id="clipPath16">
      <path
         d="M 893.813,7139.4 C 1571.21,1746.7 6273.25,287.199 12909.1,287.199 19545,287.199 24060,1619 24924.4,7139.4 25814.3,12822.1 22247.3,19162.8 12909.1,19092.2 3174.12,19018.7 138.203,13154.9 893.813,7139.4 Z"
         id="path16" />
    </clipPath>
    <clipPath
       clipPathUnits="userSpaceOnUse"
       id="clipPath18">
      <path
         d="M 893.813,7139.4 C 1571.21,1746.7 6273.25,287.199 12909.1,287.199 19545,287.199 24060,1619 24924.4,7139.4 25814.3,12822.1 22247.3,19162.8 12909.1,19092.2 3174.12,19018.7 138.203,13154.9 893.813,7139.4 Z"
         id="path18" />
    </clipPath>
    <clipPath
       clipPathUnits="userSpaceOnUse"
       id="clipPath20">
      <path
         d="M 893.813,7139.4 C 1571.21,1746.7 6273.25,287.199 12909.1,287.199 19545,287.199 24060,1619 24924.4,7139.4 25814.3,12822.1 22247.3,19162.8 12909.1,19092.2 3174.12,19018.7 138.203,13154.9 893.813,7139.4 Z"
         id="path20" />
    </clipPath>
    <clipPath
       clipPathUnits="userSpaceOnUse"
       id="clipPath22">
      <path
         d="M 893.813,7139.4 C 1571.21,1746.7 6273.25,287.199 12909.1,287.199 19545,287.199 24060,1619 24924.4,7139.4 25814.3,12822.1 22247.3,19162.8 12909.1,19092.2 3174.12,19018.7 138.203,13154.9 893.813,7139.4 Z"
         id="path22" />
    </clipPath>
    <clipPath
       clipPathUnits="userSpaceOnUse"
       id="clipPath24">
      <path
         d="M 893.813,7139.4 C 1571.21,1746.7 6273.25,287.199 12909.1,287.199 19545,287.199 24060,1619 24924.4,7139.4 25814.3,12822.1 22247.3,19162.8 12909.1,19092.2 3174.12,19018.7 138.203,13154.9 893.813,7139.4 Z"
         id="path24" />
    </clipPath>
    <clipPath
       clipPathUnits="userSpaceOnUse"
       id="clipPath26">
      <path
         d="M 893.813,7139.4 C 1571.21,1746.7 6273.25,287.199 12909.1,287.199 19545,287.199 24060,1619 24924.4,7139.4 25814.3,12822.1 22247.3,19162.8 12909.1,19092.2 3174.12,19018.7 138.203,13154.9 893.813,7139.4 Z"
         id="path26" />
    </clipPath>
    <clipPath
       clipPathUnits="userSpaceOnUse"
       id="clipPath28">
      <path
         d="M 893.813,7139.4 C 1571.21,1746.7 6273.25,287.199 12909.1,287.199 19545,287.199 24060,1619 24924.4,7139.4 25814.3,12822.1 22247.3,19162.8 12909.1,19092.2 3174.12,19018.7 138.203,13154.9 893.813,7139.4 Z"
         id="path28" />
    </clipPath>
    <clipPath
       clipPathUnits="userSpaceOnUse"
       id="clipPath30">
      <path
         d="M 893.813,7139.4 C 1571.21,1746.7 6273.25,287.199 12909.1,287.199 19545,287.199 24060,1619 24924.4,7139.4 25814.3,12822.1 22247.3,19162.8 12909.1,19092.2 3174.12,19018.7 138.203,13154.9 893.813,7139.4 Z"
         id="path30" />
    </clipPath>
    <clipPath
       clipPathUnits="userSpaceOnUse"
       id="clipPath32">
      <path
         d="M 893.813,7139.4 C 1571.21,1746.7 6273.25,287.199 12909.1,287.199 19545,287.199 24060,1619 24924.4,7139.4 25814.3,12822.1 22247.3,19162.8 12909.1,19092.2 3174.12,19018.7 138.203,13154.9 893.813,7139.4 Z"
         id="path32" />
    </clipPath>
    <clipPath
       clipPathUnits="userSpaceOnUse"
       id="clipPath34">
      <path
         d="M 893.813,7139.4 C 1571.21,1746.7 6273.25,287.199 12909.1,287.199 19545,287.199 24060,1619 24924.4,7139.4 25814.3,12822.1 22247.3,19162.8 12909.1,19092.2 3174.12,19018.7 138.203,13154.9 893.813,7139.4 Z"
         id="path34" />
    </clipPath>
    <clipPath
       clipPathUnits="userSpaceOnUse"
       id="clipPath36">
      <path
         d="M 893.813,7139.4 C 1571.21,1746.7 6273.25,287.199 12909.1,287.199 19545,287.199 24060,1619 24924.4,7139.4 25814.3,12822.1 22247.3,19162.8 12909.1,19092.2 3174.12,19018.7 138.203,13154.9 893.813,7139.4 Z"
         id="path36" />
    </clipPath>
    <clipPath
       clipPathUnits="userSpaceOnUse"
       id="clipPath38">
      <path
         d="M 893.813,7139.4 C 1571.21,1746.7 6273.25,287.199 12909.1,287.199 19545,287.199 24060,1619 24924.4,7139.4 25814.3,12822.1 22247.3,19162.8 12909.1,19092.2 3174.12,19018.7 138.203,13154.9 893.813,7139.4 Z"
         id="path38" />
    </clipPath>
    <clipPath
       clipPathUnits="userSpaceOnUse"
       id="clipPath40">
      <path
         d="M 893.813,7139.4 C 1571.21,1746.7 6273.25,287.199 12909.1,287.199 19545,287.199 24060,1619 24924.4,7139.4 25814.3,12822.1 22247.3,19162.8 12909.1,19092.2 3174.12,19018.7 138.203,13154.9 893.813,7139.4 Z"
         id="path40" />
    </clipPath>
    <clipPath
       clipPathUnits="userSpaceOnUse"
       id="clipPath42">
      <path
         d="M 893.813,7139.4 C 1571.21,1746.7 6273.25,287.199 12909.1,287.199 19545,287.199 24060,1619 24924.4,7139.4 25814.3,12822.1 22247.3,19162.8 12909.1,19092.2 3174.12,19018.7 138.203,13154.9 893.813,7139.4 Z"
         id="path42" />
    </clipPath>
    <clipPath
       clipPathUnits="userSpaceOnUse"
       id="clipPath44">
      <path
         d="M 893.813,7139.4 C 1571.21,1746.7 6273.25,287.199 12909.1,287.199 19545,287.199 24060,1619 24924.4,7139.4 25814.3,12822.1 22247.3,19162.8 12909.1,19092.2 3174.12,19018.7 138.203,13154.9 893.813,7139.4 Z"
         id="path44" />
    </clipPath>
    <clipPath
       clipPathUnits="userSpaceOnUse"
       id="clipPath46">
      <path
         d="M 893.813,7139.4 C 1571.21,1746.7 6273.25,287.199 12909.1,287.199 19545,287.199 24060,1619 24924.4,7139.4 25814.3,12822.1 22247.3,19162.8 12909.1,19092.2 3174.12,19018.7 138.203,13154.9 893.813,7139.4 Z"
         id="path46" />
    </clipPath>
    <clipPath
       clipPathUnits="userSpaceOnUse"
       id="clipPath48">
      <path
         d="M 893.813,7139.4 C 1571.21,1746.7 6273.25,287.199 12909.1,287.199 19545,287.199 24060,1619 24924.4,7139.4 25814.3,12822.1 22247.3,19162.8 12909.1,19092.2 3174.12,19018.7 138.203,13154.9 893.813,7139.4 Z"
         id="path48" />
    </clipPath>
    <clipPath
       clipPathUnits="userSpaceOnUse"
       id="clipPath50">
      <path
         d="M 893.813,7139.4 C 1571.21,1746.7 6273.25,287.199 12909.1,287.199 19545,287.199 24060,1619 24924.4,7139.4 25814.3,12822.1 22247.3,19162.8 12909.1,19092.2 3174.12,19018.7 138.203,13154.9 893.813,7139.4 Z"
         id="path50" />
    </clipPath>
    <clipPath
       clipPathUnits="userSpaceOnUse"
       id="clipPath52">
      <path
         d="M 893.813,7139.4 C 1571.21,1746.7 6273.25,287.199 12909.1,287.199 19545,287.199 24060,1619 24924.4,7139.4 25814.3,12822.1 22247.3,19162.8 12909.1,19092.2 3174.12,19018.7 138.203,13154.9 893.813,7139.4 Z"
         id="path52" />
    </clipPath>
    <clipPath
       clipPathUnits="userSpaceOnUse"
       id="clipPath54">
      <path
         d="M 893.813,7139.4 C 1571.21,1746.7 6273.25,287.199 12909.1,287.199 19545,287.199 24060,1619 24924.4,7139.4 25814.3,12822.1 22247.3,19162.8 12909.1,19092.2 3174.12,19018.7 138.203,13154.9 893.813,7139.4 Z"
         id="path54" />
    </clipPath>
    <clipPath
       clipPathUnits="userSpaceOnUse"
       id="clipPath56">
      <path
         d="M 893.813,7139.4 C 1571.21,1746.7 6273.25,287.199 12909.1,287.199 19545,287.199 24060,1619 24924.4,7139.4 25814.3,12822.1 22247.3,19162.8 12909.1,19092.2 3174.12,19018.7 138.203,13154.9 893.813,7139.4 Z"
         id="path56" />
    </clipPath>
    <clipPath
       clipPathUnits="userSpaceOnUse"
       id="clipPath58">
      <path
         d="M 893.813,7139.4 C 1571.21,1746.7 6273.25,287.199 12909.1,287.199 19545,287.199 24060,1619 24924.4,7139.4 25814.3,12822.1 22247.3,19162.8 12909.1,19092.2 3174.12,19018.7 138.203,13154.9 893.813,7139.4 Z"
         id="path58" />
    </clipPath>
    <clipPath
       clipPathUnits="userSpaceOnUse"
       id="clipPath60">
      <path
         d="M 893.813,7139.4 C 1571.21,1746.7 6273.25,287.199 12909.1,287.199 19545,287.199 24060,1619 24924.4,7139.4 25814.3,12822.1 22247.3,19162.8 12909.1,19092.2 3174.12,19018.7 138.203,13154.9 893.813,7139.4 Z"
         id="path60" />
    </clipPath>
    <clipPath
       clipPathUnits="userSpaceOnUse"
       id="clipPath62">
      <path
         d="M 893.813,7139.4 C 1571.21,1746.7 6273.25,287.199 12909.1,287.199 19545,287.199 24060,1619 24924.4,7139.4 25814.3,12822.1 22247.3,19162.8 12909.1,19092.2 3174.12,19018.7 138.203,13154.9 893.813,7139.4 Z"
         id="path62" />
    </clipPath>
    <clipPath
       clipPathUnits="userSpaceOnUse"
       id="clipPath64">
      <path
         d="M 893.813,7139.4 C 1571.21,1746.7 6273.25,287.199 12909.1,287.199 19545,287.199 24060,1619 24924.4,7139.4 25814.3,12822.1 22247.3,19162.8 12909.1,19092.2 3174.12,19018.7 138.203,13154.9 893.813,7139.4 Z"
         id="path64" />
    </clipPath>
    <clipPath
       clipPathUnits="userSpaceOnUse"
       id="clipPath66">
      <path
         d="M 893.813,7139.4 C 1571.21,1746.7 6273.25,287.199 12909.1,287.199 19545,287.199 24060,1619 24924.4,7139.4 25814.3,12822.1 22247.3,19162.8 12909.1,19092.2 3174.12,19018.7 138.203,13154.9 893.813,7139.4 Z"
         id="path66" />
    </clipPath>
    <clipPath
       clipPathUnits="userSpaceOnUse"
       id="clipPath68">
      <path
         d="M 893.813,7139.4 C 1571.21,1746.7 6273.25,287.199 12909.1,287.199 19545,287.199 24060,1619 24924.4,7139.4 25814.3,12822.1 22247.3,19162.8 12909.1,19092.2 3174.12,19018.7 138.203,13154.9 893.813,7139.4 Z"
         id="path68" />
    </clipPath>
    <clipPath
       clipPathUnits="userSpaceOnUse"
       id="clipPath70">
      <path
         d="M 893.813,7139.4 C 1571.21,1746.7 6273.25,287.199 12909.1,287.199 19545,287.199 24060,1619 24924.4,7139.4 25814.3,12822.1 22247.3,19162.8 12909.1,19092.2 3174.12,19018.7 138.203,13154.9 893.813,7139.4 Z"
         id="path70" />
    </clipPath>
    <clipPath
       clipPathUnits="userSpaceOnUse"
       id="clipPath72">
      <path
         d="M 893.813,7139.4 C 1571.21,1746.7 6273.25,287.199 12909.1,287.199 19545,287.199 24060,1619 24924.4,7139.4 25814.3,12822.1 22247.3,19162.8 12909.1,19092.2 3174.12,19018.7 138.203,13154.9 893.813,7139.4 Z"
         id="path72" />
    </clipPath>
    <clipPath
       clipPathUnits="userSpaceOnUse"
       id="clipPath74">
      <path
         d="M 893.813,7139.4 C 1571.21,1746.7 6273.25,287.199 12909.1,287.199 19545,287.199 24060,1619 24924.4,7139.4 25814.3,12822.1 22247.3,19162.8 12909.1,19092.2 3174.12,19018.7 138.203,13154.9 893.813,7139.4 Z"
         id="path74" />
    </clipPath>
    <clipPath
       clipPathUnits="userSpaceOnUse"
       id="clipPath76">
      <path
         d="M 893.813,7139.4 C 1571.21,1746.7 6273.25,287.199 12909.1,287.199 19545,287.199 24060,1619 24924.4,7139.4 25814.3,12822.1 22247.3,19162.8 12909.1,19092.2 3174.12,19018.7 138.203,13154.9 893.813,7139.4 Z"
         id="path76" />
    </clipPath>
    <clipPath
       clipPathUnits="userSpaceOnUse"
       id="clipPath78">
      <path
         d="M 893.813,7139.4 C 1571.21,1746.7 6273.25,287.199 12909.1,287.199 19545,287.199 24060,1619 24924.4,7139.4 25814.3,12822.1 22247.3,19162.8 12909.1,19092.2 3174.12,19018.7 138.203,13154.9 893.813,7139.4 Z"
         id="path78" />
    </clipPath>
    <clipPath
       clipPathUnits="userSpaceOnUse"
       id="clipPath80">
      <path
         d="M 893.813,7139.4 C 1571.21,1746.7 6273.25,287.199 12909.1,287.199 19545,287.199 24060,1619 24924.4,7139.4 25814.3,12822.1 22247.3,19162.8 12909.1,19092.2 3174.12,19018.7 138.203,13154.9 893.813,7139.4 Z"
         id="path80" />
    </clipPath>
    <clipPath
       clipPathUnits="userSpaceOnUse"
       id="clipPath82">
      <path
         d="M 893.813,7139.4 C 1571.21,1746.7 6273.25,287.199 12909.1,287.199 19545,287.199 24060,1619 24924.4,7139.4 25814.3,12822.1 22247.3,19162.8 12909.1,19092.2 3174.12,19018.7 138.203,13154.9 893.813,7139.4 Z"
         id="path82" />
    </clipPath>
    <clipPath
       clipPathUnits="userSpaceOnUse"
       id="clipPath84">
      <path
         d="M 893.813,7139.4 C 1571.21,1746.7 6273.25,287.199 12909.1,287.199 19545,287.199 24060,1619 24924.4,7139.4 25814.3,12822.1 22247.3,19162.8 12909.1,19092.2 3174.12,19018.7 138.203,13154.9 893.813,7139.4 Z"
         id="path84" />
    </clipPath>
    <clipPath
       clipPathUnits="userSpaceOnUse"
       id="clipPath86">
      <path
         d="M 893.813,7139.4 C 1571.21,1746.7 6273.25,287.199 12909.1,287.199 19545,287.199 24060,1619 24924.4,7139.4 25814.3,12822.1 22247.3,19162.8 12909.1,19092.2 3174.12,19018.7 138.203,13154.9 893.813,7139.4 Z"
         id="path86" />
    </clipPath>
    <clipPath
       clipPathUnits="userSpaceOnUse"
       id="clipPath88">
      <path
         d="M 893.813,7139.4 C 1571.21,1746.7 6273.25,287.199 12909.1,287.199 19545,287.199 24060,1619 24924.4,7139.4 25814.3,12822.1 22247.3,19162.8 12909.1,19092.2 3174.12,19018.7 138.203,13154.9 893.813,7139.4 Z"
         id="path88" />
    </clipPath>
    <clipPath
       clipPathUnits="userSpaceOnUse"
       id="clipPath90">
      <path
         d="M 893.813,7139.4 C 1571.21,1746.7 6273.25,287.199 12909.1,287.199 19545,287.199 24060,1619 24924.4,7139.4 25814.3,12822.1 22247.3,19162.8 12909.1,19092.2 3174.12,19018.7 138.203,13154.9 893.813,7139.4 Z"
         id="path90" />
    </clipPath>
    <clipPath
       clipPathUnits="userSpaceOnUse"
       id="clipPath92">
      <path
         d="M 893.813,7139.4 C 1571.21,1746.7 6273.25,287.199 12909.1,287.199 19545,287.199 24060,1619 24924.4,7139.4 25814.3,12822.1 22247.3,19162.8 12909.1,19092.2 3174.12,19018.7 138.203,13154.9 893.813,7139.4 Z"
         id="path92" />
    </clipPath>
    <clipPath
       clipPathUnits="userSpaceOnUse"
       id="clipPath94">
      <path
         d="M 893.813,7139.4 C 1571.21,1746.7 6273.25,287.199 12909.1,287.199 19545,287.199 24060,1619 24924.4,7139.4 25814.3,12822.1 22247.3,19162.8 12909.1,19092.2 3174.12,19018.7 138.203,13154.9 893.813,7139.4 Z"
         id="path94" />
    </clipPath>
    <clipPath
       clipPathUnits="userSpaceOnUse"
       id="clipPath96">
      <path
         d="M 893.813,7139.4 C 1571.21,1746.7 6273.25,287.199 12909.1,287.199 19545,287.199 24060,1619 24924.4,7139.4 25814.3,12822.1 22247.3,19162.8 12909.1,19092.2 3174.12,19018.7 138.203,13154.9 893.813,7139.4 Z"
         id="path96" />
    </clipPath>
    <clipPath
       clipPathUnits="userSpaceOnUse"
       id="clipPath98">
      <path
         d="M 893.813,7139.4 C 1571.21,1746.7 6273.25,287.199 12909.1,287.199 19545,287.199 24060,1619 24924.4,7139.4 25814.3,12822.1 22247.3,19162.8 12909.1,19092.2 3174.12,19018.7 138.203,13154.9 893.813,7139.4 Z"
         id="path98" />
    </clipPath>
    <clipPath
       clipPathUnits="userSpaceOnUse"
       id="clipPath100">
      <path
         d="M 893.813,7139.4 C 1571.21,1746.7 6273.25,287.199 12909.1,287.199 19545,287.199 24060,1619 24924.4,7139.4 25814.3,12822.1 22247.3,19162.8 12909.1,19092.2 3174.12,19018.7 138.203,13154.9 893.813,7139.4 Z"
         id="path100" />
    </clipPath>
    <clipPath
       clipPathUnits="userSpaceOnUse"
       id="clipPath102">
      <path
         d="M 893.813,7139.4 C 1571.21,1746.7 6273.25,287.199 12909.1,287.199 19545,287.199 24060,1619 24924.4,7139.4 25814.3,12822.1 22247.3,19162.8 12909.1,19092.2 3174.12,19018.7 138.203,13154.9 893.813,7139.4 Z"
         id="path102" />
    </clipPath>
    <clipPath
       clipPathUnits="userSpaceOnUse"
       id="clipPath104">
      <path
         d="M 893.813,7139.4 C 1571.21,1746.7 6273.25,287.199 12909.1,287.199 19545,287.199 24060,1619 24924.4,7139.4 25814.3,12822.1 22247.3,19162.8 12909.1,19092.2 3174.12,19018.7 138.203,13154.9 893.813,7139.4 Z"
         id="path104" />
    </clipPath>
    <clipPath
       clipPathUnits="userSpaceOnUse"
       id="clipPath106">
      <path
         d="M 893.813,7139.4 C 1571.21,1746.7 6273.25,287.199 12909.1,287.199 19545,287.199 24060,1619 24924.4,7139.4 25814.3,12822.1 22247.3,19162.8 12909.1,19092.2 3174.12,19018.7 138.203,13154.9 893.813,7139.4 Z"
         id="path106" />
    </clipPath>
    <clipPath
       clipPathUnits="userSpaceOnUse"
       id="clipPath108">
      <path
         d="M 893.813,7139.4 C 1571.21,1746.7 6273.25,287.199 12909.1,287.199 19545,287.199 24060,1619 24924.4,7139.4 25814.3,12822.1 22247.3,19162.8 12909.1,19092.2 3174.12,19018.7 138.203,13154.9 893.813,7139.4 Z"
         id="path108" />
    </clipPath>
    <clipPath
       clipPathUnits="userSpaceOnUse"
       id="clipPath110">
      <path
         d="M 893.813,7139.4 C 1571.21,1746.7 6273.25,287.199 12909.1,287.199 19545,287.199 24060,1619 24924.4,7139.4 25814.3,12822.1 22247.3,19162.8 12909.1,19092.2 3174.12,19018.7 138.203,13154.9 893.813,7139.4 Z"
         id="path110" />
    </clipPath>
    <clipPath
       clipPathUnits="userSpaceOnUse"
       id="clipPath112">
      <path
         d="M 893.813,7139.4 C 1571.21,1746.7 6273.25,287.199 12909.1,287.199 19545,287.199 24060,1619 24924.4,7139.4 25814.3,12822.1 22247.3,19162.8 12909.1,19092.2 3174.12,19018.7 138.203,13154.9 893.813,7139.4 Z"
         id="path112" />
    </clipPath>
    <clipPath
       clipPathUnits="userSpaceOnUse"
       id="clipPath114">
      <path
         d="M 893.813,7139.4 C 1571.21,1746.7 6273.25,287.199 12909.1,287.199 19545,287.199 24060,1619 24924.4,7139.4 25814.3,12822.1 22247.3,19162.8 12909.1,19092.2 3174.12,19018.7 138.203,13154.9 893.813,7139.4 Z"
         id="path114" />
    </clipPath>
    <clipPath
       clipPathUnits="userSpaceOnUse"
       id="clipPath116">
      <path
         d="M 893.813,7139.4 C 1571.21,1746.7 6273.25,287.199 12909.1,287.199 19545,287.199 24060,1619 24924.4,7139.4 25814.3,12822.1 22247.3,19162.8 12909.1,19092.2 3174.12,19018.7 138.203,13154.9 893.813,7139.4 Z"
         id="path116" />
    </clipPath>
    <clipPath
       clipPathUnits="userSpaceOnUse"
       id="clipPath118">
      <path
         d="M 893.813,7139.4 C 1571.21,1746.7 6273.25,287.199 12909.1,287.199 19545,287.199 24060,1619 24924.4,7139.4 25814.3,12822.1 22247.3,19162.8 12909.1,19092.2 3174.12,19018.7 138.203,13154.9 893.813,7139.4 Z"
         id="path118" />
    </clipPath>
    <clipPath
       clipPathUnits="userSpaceOnUse"
       id="clipPath120">
      <path
         d="M 893.813,7139.4 C 1571.21,1746.7 6273.25,287.199 12909.1,287.199 19545,287.199 24060,1619 24924.4,7139.4 25814.3,12822.1 22247.3,19162.8 12909.1,19092.2 3174.12,19018.7 138.203,13154.9 893.813,7139.4 Z"
         id="path120" />
    </clipPath>
    <clipPath
       clipPathUnits="userSpaceOnUse"
       id="clipPath122">
      <path
         d="M 893.813,7139.4 C 1571.21,1746.7 6273.25,287.199 12909.1,287.199 19545,287.199 24060,1619 24924.4,7139.4 25814.3,12822.1 22247.3,19162.8 12909.1,19092.2 3174.12,19018.7 138.203,13154.9 893.813,7139.4 Z"
         id="path122" />
    </clipPath>
    <clipPath
       clipPathUnits="userSpaceOnUse"
       id="clipPath124">
      <path
         d="M 893.813,7139.4 C 1571.21,1746.7 6273.25,287.199 12909.1,287.199 19545,287.199 24060,1619 24924.4,7139.4 25814.3,12822.1 22247.3,19162.8 12909.1,19092.2 3174.12,19018.7 138.203,13154.9 893.813,7139.4 Z"
         id="path124" />
    </clipPath>
    <clipPath
       clipPathUnits="userSpaceOnUse"
       id="clipPath126">
      <path
         d="M 893.813,7139.4 C 1571.21,1746.7 6273.25,287.199 12909.1,287.199 19545,287.199 24060,1619 24924.4,7139.4 25814.3,12822.1 22247.3,19162.8 12909.1,19092.2 3174.12,19018.7 138.203,13154.9 893.813,7139.4 Z"
         id="path126" />
    </clipPath>
    <clipPath
       clipPathUnits="userSpaceOnUse"
       id="clipPath128">
      <path
         d="M 893.813,7139.4 C 1571.21,1746.7 6273.25,287.199 12909.1,287.199 19545,287.199 24060,1619 24924.4,7139.4 25814.3,12822.1 22247.3,19162.8 12909.1,19092.2 3174.12,19018.7 138.203,13154.9 893.813,7139.4 Z"
         id="path128" />
    </clipPath>
    <clipPath
       clipPathUnits="userSpaceOnUse"
       id="clipPath130">
      <path
         d="M 893.813,7139.4 C 1571.21,1746.7 6273.25,287.199 12909.1,287.199 19545,287.199 24060,1619 24924.4,7139.4 25814.3,12822.1 22247.3,19162.8 12909.1,19092.2 3174.12,19018.7 138.203,13154.9 893.813,7139.4 Z"
         id="path130" />
    </clipPath>
    <clipPath
       clipPathUnits="userSpaceOnUse"
       id="clipPath132">
      <path
         d="M 893.813,7139.4 C 1571.21,1746.7 6273.25,287.199 12909.1,287.199 19545,287.199 24060,1619 24924.4,7139.4 25814.3,12822.1 22247.3,19162.8 12909.1,19092.2 3174.12,19018.7 138.203,13154.9 893.813,7139.4 Z"
         id="path132" />
    </clipPath>
    <clipPath
       clipPathUnits="userSpaceOnUse"
       id="clipPath134">
      <path
         d="M 893.813,7139.4 C 1571.21,1746.7 6273.25,287.199 12909.1,287.199 19545,287.199 24060,1619 24924.4,7139.4 25814.3,12822.1 22247.3,19162.8 12909.1,19092.2 3174.12,19018.7 138.203,13154.9 893.813,7139.4 Z"
         id="path134" />
    </clipPath>
    <clipPath
       clipPathUnits="userSpaceOnUse"
       id="clipPath136">
      <path
         d="M 893.813,7139.4 C 1571.21,1746.7 6273.25,287.199 12909.1,287.199 19545,287.199 24060,1619 24924.4,7139.4 25814.3,12822.1 22247.3,19162.8 12909.1,19092.2 3174.12,19018.7 138.203,13154.9 893.813,7139.4 Z"
         id="path136" />
    </clipPath>
    <clipPath
       clipPathUnits="userSpaceOnUse"
       id="clipPath138">
      <path
         d="M 893.813,7139.4 C 1571.21,1746.7 6273.25,287.199 12909.1,287.199 19545,287.199 24060,1619 24924.4,7139.4 25814.3,12822.1 22247.3,19162.8 12909.1,19092.2 3174.12,19018.7 138.203,13154.9 893.813,7139.4 Z"
         id="path138" />
    </clipPath>
    <clipPath
       clipPathUnits="userSpaceOnUse"
       id="clipPath140">
      <path
         d="M 893.813,7139.4 C 1571.21,1746.7 6273.25,287.199 12909.1,287.199 19545,287.199 24060,1619 24924.4,7139.4 25814.3,12822.1 22247.3,19162.8 12909.1,19092.2 3174.12,19018.7 138.203,13154.9 893.813,7139.4 Z"
         id="path140" />
    </clipPath>
    <clipPath
       clipPathUnits="userSpaceOnUse"
       id="clipPath142">
      <path
         d="M 893.813,7139.4 C 1571.21,1746.7 6273.25,287.199 12909.1,287.199 19545,287.199 24060,1619 24924.4,7139.4 25814.3,12822.1 22247.3,19162.8 12909.1,19092.2 3174.12,19018.7 138.203,13154.9 893.813,7139.4 Z"
         id="path142" />
    </clipPath>
    <clipPath
       clipPathUnits="userSpaceOnUse"
       id="clipPath144">
      <path
         d="M 893.813,7139.4 C 1571.21,1746.7 6273.25,287.199 12909.1,287.199 19545,287.199 24060,1619 24924.4,7139.4 25814.3,12822.1 22247.3,19162.8 12909.1,19092.2 3174.12,19018.7 138.203,13154.9 893.813,7139.4 Z"
         id="path144" />
    </clipPath>
    <clipPath
       clipPathUnits="userSpaceOnUse"
       id="clipPath146">
      <path
         d="M 893.813,7139.4 C 1571.21,1746.7 6273.25,287.199 12909.1,287.199 19545,287.199 24060,1619 24924.4,7139.4 25814.3,12822.1 22247.3,19162.8 12909.1,19092.2 3174.12,19018.7 138.203,13154.9 893.813,7139.4 Z"
         id="path146" />
    </clipPath>
    <clipPath
       clipPathUnits="userSpaceOnUse"
       id="clipPath148">
      <path
         d="M 893.813,7139.4 C 1571.21,1746.7 6273.25,287.199 12909.1,287.199 19545,287.199 24060,1619 24924.4,7139.4 25814.3,12822.1 22247.3,19162.8 12909.1,19092.2 3174.12,19018.7 138.203,13154.9 893.813,7139.4 Z"
         id="path148" />
    </clipPath>
    <clipPath
       clipPathUnits="userSpaceOnUse"
       id="clipPath150">
      <path
         d="M 893.813,7139.4 C 1571.21,1746.7 6273.25,287.199 12909.1,287.199 19545,287.199 24060,1619 24924.4,7139.4 25814.3,12822.1 22247.3,19162.8 12909.1,19092.2 3174.12,19018.7 138.203,13154.9 893.813,7139.4 Z"
         id="path150" />
    </clipPath>
    <clipPath
       clipPathUnits="userSpaceOnUse"
       id="clipPath152">
      <path
         d="M 893.813,7139.4 C 1571.21,1746.7 6273.25,287.199 12909.1,287.199 19545,287.199 24060,1619 24924.4,7139.4 25814.3,12822.1 22247.3,19162.8 12909.1,19092.2 3174.12,19018.7 138.203,13154.9 893.813,7139.4 Z"
         id="path152" />
    </clipPath>
    <clipPath
       clipPathUnits="userSpaceOnUse"
       id="clipPath154">
      <path
         d="M 893.813,7139.4 C 1571.21,1746.7 6273.25,287.199 12909.1,287.199 19545,287.199 24060,1619 24924.4,7139.4 25814.3,12822.1 22247.3,19162.8 12909.1,19092.2 3174.12,19018.7 138.203,13154.9 893.813,7139.4 Z"
         id="path154" />
    </clipPath>
    <clipPath
       clipPathUnits="userSpaceOnUse"
       id="clipPath156">
      <path
         d="M 893.813,7139.4 C 1571.21,1746.7 6273.25,287.199 12909.1,287.199 19545,287.199 24060,1619 24924.4,7139.4 25814.3,12822.1 22247.3,19162.8 12909.1,19092.2 3174.12,19018.7 138.203,13154.9 893.813,7139.4 Z"
         id="path156" />
    </clipPath>
    <clipPath
       clipPathUnits="userSpaceOnUse"
       id="clipPath158">
      <path
         d="M 893.813,7139.4 C 1571.21,1746.7 6273.25,287.199 12909.1,287.199 19545,287.199 24060,1619 24924.4,7139.4 25814.3,12822.1 22247.3,19162.8 12909.1,19092.2 3174.12,19018.7 138.203,13154.9 893.813,7139.4 Z"
         id="path158" />
    </clipPath>
    <clipPath
       clipPathUnits="userSpaceOnUse"
       id="clipPath160">
      <path
         d="M 893.813,7139.4 C 1571.21,1746.7 6273.25,287.199 12909.1,287.199 19545,287.199 24060,1619 24924.4,7139.4 25814.3,12822.1 22247.3,19162.8 12909.1,19092.2 3174.12,19018.7 138.203,13154.9 893.813,7139.4 Z"
         id="path160" />
    </clipPath>
    <clipPath
       clipPathUnits="userSpaceOnUse"
       id="clipPath162">
      <path
         d="M 893.813,7139.4 C 1571.21,1746.7 6273.25,287.199 12909.1,287.199 19545,287.199 24060,1619 24924.4,7139.4 25814.3,12822.1 22247.3,19162.8 12909.1,19092.2 3174.12,19018.7 138.203,13154.9 893.813,7139.4 Z"
         id="path162" />
    </clipPath>
    <clipPath
       clipPathUnits="userSpaceOnUse"
       id="clipPath164">
      <path
         d="M 893.813,7139.4 C 1571.21,1746.7 6273.25,287.199 12909.1,287.199 19545,287.199 24060,1619 24924.4,7139.4 25814.3,12822.1 22247.3,19162.8 12909.1,19092.2 3174.12,19018.7 138.203,13154.9 893.813,7139.4 Z"
         id="path164" />
    </clipPath>
  </defs>
  <g
     id="g1"
     transform="translate(-700.9962,-380.20398)">
    <g
       id="group-R5"
       transform="translate(3.7736399,-18.868199)">
      <path
         id="path5"
         d="m 18323,15968.6 c -225.1,141.2 -526,100.5 -860.7,164.5 -174.5,33.3 -421,171.5 -606.1,194.6 -548.5,68.6 -1201.4,-52.1 -1592,-332.4 -347.4,-249.3 -464.7,-658.6 -464.7,-658.6 0,0 -173.1,-438.1 -168,-921.8 5,-483.7 188.4,-1012.9 188.4,-1012.9 l 3871.8,-3.6 c 0,0 140.6,39.8 294.9,184.4 159.4,149.2 332.9,406.3 347.7,607.5 35.5,483.1 -462.2,1433.7 -1011.3,1778.3"
         style="fill:#cc8960;fill-opacity:1;fill-rule:evenodd;stroke:none"
         transform="matrix(0.13333333,0,0,-0.13333333,0,2584)"
         clip-path="url(#clipPath6)" />
      <path
         id="path7"
         d="m 11074.9,14408.8 c -446.3,630.1 -1284.73,905.4 -1941.12,827.4 -568.71,-67.6 -1115.14,-373.5 -1115.14,-373.5 0,0 -237.39,-190.2 -502.23,-374.8 -203.9,-142.1 -422.19,-233.8 -572.62,-523.1 -129.82,-249.6 -141.99,-683.6 -133.72,-1010 5.68,-224.7 -42.5,-660.9 -87.75,-1202.9 -34.92,-418.1 -39.15,-906.8 -195.28,-1363.1 C 6182.09,9380.6 5415.56,8451.9 5280.56,7671 5086.48,6548.7 5941.65,6521.2 5941.65,6521.2 c 0,0 124.16,-138 289.95,-212.7 165.76,-74.8 370.25,-41.2 370.25,-41.2 l 4449.85,3501.62 c 0,0 428.5,167.04 702.1,554.88 172.3,244.3 260.7,640.4 272.4,905.6 44.8,1020.4 -453.4,2476.5 -951.3,3179.4"
         style="fill:#f9bf76;fill-opacity:1;fill-rule:evenodd;stroke:none"
         transform="matrix(0.13333333,0,0,-0.13333333,0,2584)"
         clip-path="url(#clipPath8)" />
      <path
         id="path9"
         d="m 11160.9,9707.9 -2638.99,-441 c 0,0 -272.18,-174.2 -568.1,-381.9 -334.95,-235.3 -705.84,-520.2 -850.34,-768.8 -189.2,-325.6 -238.4,-576.7 -256.17,-835 -17.88,-259.5 -71.9,-645.5 -71.9,-645.5 0,0 -353.52,-763.7 -420.09,-1113.2 -95.94,-504.2 70.65,-1281 106.15,-2072.7 42.38,-946.2 -0.49,-1819 -19.94,-2426.7 -20.55,-641.397 -19,-991.7992 -19,-991.7992 L 11852.8,28 11772.1,784.801 13163.1,5720 c 0,0 235,2054 19.3,2518.4 -89.8,193.3 -153.3,315.4 -298.3,458.7 -377.2,372.7 -948.2,635.9 -1302,782.48 -222.4,92.23 -421.2,228.32 -421.2,228.32"
         style="fill:#f99e95;fill-opacity:1;fill-rule:evenodd;stroke:none"
         transform="matrix(0.13333333,0,0,-0.13333333,0,2584)"
         clip-path="url(#clipPath10)" />
      <path
         id="path11"
         d="m 19776.3,8351 c -50.7,574.1 -619.5,954.4 -1099.9,1268.22 -469.2,306.65 -872.2,548.18 -872.2,548.18 l -2813.2,445 c 0,0 -222.5,-140.3 -482.1,-256 -326.8,-145.7 -730.7,-294.9 -1028.8,-552.92 -534.7,-462.88 -628,-1042.88 -628,-1042.88 0,0 303.9,-249.2 388.8,-931.8 84.8,-682.5 -49.3,-1798.4 -49.3,-1798.4 l 491.8,-3189.9 c 0,0 62.6,-429 34.3,-1130.7 C 13689.5,1008.1 13560,5.10156 13560,5.10156 l 6243.9,46.09764 c 0,0 59.9,1919.5008 57.1,3236.3008 -2.8,1316.8 -68.4,2031 -68.4,2031 l -27.8,1311.1 c 0,0 85.7,460.7 92.8,868.6 6.4,361.2 -64.5,661.3 -81.3,852.8"
         style="fill:#ffffff;fill-opacity:1;fill-rule:evenodd;stroke:none"
         transform="matrix(0.13333333,0,0,-0.13333333,0,2584)"
         clip-path="url(#clipPath12)" />
      <path
         id="path13"
         d="m 18213.5,14690.6 c -113,223.1 -503.3,295.1 -795.5,189.5 -139.3,-50.3 -238.2,-339.7 -503.6,-745.9 -260.2,-398.3 -704.9,-250.4 -704.9,-250.4 0,0 -173.9,-311.5 -422.7,-343.5 -206.6,-26.5 -403.9,98.9 -591.5,107.9 -91.3,4.3 -234.4,-44.7 -271.1,-102.8 -75.5,-119.1 -133,-389.2 -49.7,-573.5 96.6,-213.4 343,-334.4 343,-334.4 0,0 93.4,-1000.2 34.2,-1507.3 -59.2,-507.2 -270.9,-521.3 -270.9,-521.3 0,0 231.5,-275.1 587.6,-491.4 317.4,-192.68 741.1,-325.51 1074.8,-379.15 369.8,-59.4 801.9,-9.65 1006.7,114.7 187.3,113.75 163.4,300.75 163.4,300.75 l -331.7,310.8 4.9,439.1 c 0,0 547.1,274.7 824.1,817.3 277,542.6 283.9,1353 283.9,1353 l 151.3,668.6 c 0,0 -219.9,-17 -293.5,113.5 -150.7,267.2 -217.9,793.4 -238.8,834.5"
         style="fill:#ffddc0;fill-opacity:1;fill-rule:evenodd;stroke:none"
         transform="matrix(0.13333333,0,0,-0.13333333,0,2584)"
         clip-path="url(#clipPath14)" />
      <path
         id="path15"
         d="m 20159.5,5893 c -75.6,98 -338.4,165.5 -472,243.7 -120.6,70.6 -488.7,466.4 -642.5,522.9 -56.9,20.9 -323.6,26.9 -383.4,45 -220,66.5 -446.1,437.1 -682.2,470.9 -196.3,28.1 -297.3,-201.6 -370.1,-436.7 -53,-171 -103.8,-365.5 -103.8,-365.5 0,0 -138,-16.4 -191.5,-100.7 -53.4,-84.3 -22.3,-236.3 -22.3,-236.3 0,0 -239.2,-393.5 -647.2,-808 -407.9,-414.4 -984.7,-849.9 -984.7,-849.9 0,0 -140.9,335.2 -262.6,832.7 -121.6,497.4 -245.3,1178.1 -245.3,1178.1 0,0 -444,125.3 -932.8,27.7 -488.9,-97.6 -1022.7,-418.1 -1022.7,-418.1 l -89,-934.9 c 0,0 177.1,-1158.1 471.8,-1964.2 331.3,-906.2 635.4,-1372.4 952.2,-1640.7 269.3,-228 728.2,-278.9 1183.7,111.9 567.5,486.9 1146.4,1415.8 1558.2,2048.6 299.3,459.8 524.5,728.1 524.5,728.1 0,0 703.8,-127.4 913.8,-70.6 264.4,71.6 117.6,440.1 117.6,440.1 0,0 258.6,-80.6 416.5,225.1 72.8,140.9 -147.8,349.4 -147.8,349.4 0,0 164.7,-24.3 248.6,60.5 84,84.8 87.4,278.8 87.4,278.8 0,0 386.5,-72.7 598.2,-20.9 175,42.8 190.1,201.6 127.4,283"
         style="fill:#ffddc0;fill-opacity:1;fill-rule:evenodd;stroke:none"
         transform="matrix(0.13333333,0,0,-0.13333333,0,2584)"
         clip-path="url(#clipPath16)" />
      <path
         id="path17"
         d="m 9616.69,12610.7 c -254.39,102.5 -611.23,307.5 -892.09,549.7 -274.67,236.8 -474.11,510.7 -656.92,642 -253.85,182.5 -354.6,3.8 -354.6,3.8 0,0 -82.01,-188.8 -147.12,-548.7 -62.55,-345.4 -185.66,-815.5 -185.66,-815.5 0,0 149.55,-506 218.06,-707.6 28.76,-84.6 118.18,-678.1 362,-1029.8 336.95,-485.9 851.28,-751.81 851.28,-751.81 l 24.72,-406.22 -288.61,-249.87 c 0,0 -85.58,-190.3 -147.23,-609.6 -40.32,-274.1 -60.98,-869.9 -32.26,-1076.2 44.02,-316.4 82.7,-618.2 201.54,-604.7 302.45,34.5 1181.29,877 1712.4,1482.3 620.8,707.5 876.8,1200.11 876.8,1200.11 0,0 -288.6,190.85 -303.9,356.39 -49.8,537.9 -33.7,1777.9 -33.7,1777.9 0,0 328.5,182.4 340.2,573.3 10.7,356.4 -273.8,454.5 -485,389.8 -273.8,-83.8 -580.9,-368.2 -1059.91,-175.3"
         style="fill:#ffddc0;fill-opacity:1;fill-rule:evenodd;stroke:none"
         transform="matrix(0.13333333,0,0,-0.13333333,0,2584)"
         clip-path="url(#clipPath18)" />
      <path
         id="path19"
         d="m 13163,5707 c 0,0 -556,276 -1128.8,327.6 -572.8,51.5 -1162.2,-121.3 -1162.2,-121.3 0,0 -35.8,-509.1 -88.5,-1007.3 -52.6,-498.1 -122.1,-985.4 -122.1,-985.4 0,0 -427.2,442.3 -698.99,846.5 -271.8,404.2 -388.21,770.5 -388.21,770.5 0,0 55.05,122.5 18.65,207.9 -36.38,85.3 -164.13,133.5 -164.13,133.5 0,0 -44.55,614.3 -181.87,744.2 -183.49,173.6 -728.53,-263.7 -728.53,-263.7 0,0 -404.79,55.6 -518.49,-21.2 -175.58,-118.6 -397.72,-278 -605.13,-362.2 -213.49,-86.6 -410.83,-97.2 -484.7,-164.9 -103.4,-94.7 -44.33,-259.5 96.04,-315.5 196.9,-78.6 523.71,-29.4 523.71,-29.4 0,0 -18.52,-188.5 47.96,-278.3 66.48,-89.8 218,-81.1 218,-81.1 0,0 -313.5,-128.6 -143.04,-446.6 73.09,-136.2 310.32,-148.9 310.32,-148.9 0,0 -212.66,-212.2 28.89,-421.7 113.57,-98.5 850.45,-91.5 850.45,-91.5 0,0 89.94,-104.4 229.52,-399.9 226.16,-478.9 598.07,-1304.3 1043.55,-1842.3 352.5,-425.8 691.6,-812 1047.7,-952.598 371.1,-146.504 756.1,-33.3 961.1,227.798 469.3,598.2 705.7,2005.2 853.7,3145 105.4,811.6 185.1,1530.8 185.1,1530.8"
         style="fill:#ffddc0;fill-opacity:1;fill-rule:evenodd;stroke:none"
         transform="matrix(0.13333333,0,0,-0.13333333,0,2584)"
         clip-path="url(#clipPath20)" />
      <path
         id="path21"
         d="m 14845.2,13333.9 c 6.9,0 13.9,1.4 20.5,4.5 24.4,11.4 35.1,40.4 23.8,64.8 -3,6.3 -292,639.3 -179.2,1225.2 5,26.5 -12.3,52.1 -38.8,57.2 -26.4,5 -52,-12.3 -57.1,-38.8 -118.8,-617.3 174,-1257.7 186.5,-1284.7 8.3,-17.8 25.9,-28.2 44.3,-28.2"
         style="fill:#000000;fill-opacity:1;fill-rule:nonzero;stroke:none"
         transform="matrix(0.13333333,0,0,-0.13333333,0,2584)"
         clip-path="url(#clipPath22)" />
      <path
         id="path23"
         d="m 14367.1,14767.4 c 2.6,0 5.3,0.2 7.9,0.6 267.4,43.6 346.6,246.8 438.3,482.1 81.7,209.7 174.3,447.5 421,649.4 479.5,392.6 1550.2,555.1 2116,185.2 22.5,-14.8 52.8,-8.4 67.6,14.1 14.7,22.6 8.4,52.8 -14.2,67.6 -598.1,391 -1726.8,221.6 -2231.3,-191.4 -266.4,-218.1 -368.3,-479.5 -450.1,-689.5 -87.4,-224.4 -150.6,-386.5 -363,-421.1 -26.6,-4.4 -44.7,-29.4 -40.3,-56 3.9,-24 24.6,-41 48.1,-41"
         style="fill:#000000;fill-opacity:1;fill-rule:nonzero;stroke:none"
         transform="matrix(0.13333333,0,0,-0.13333333,0,2584)"
         clip-path="url(#clipPath24)" />
      <path
         id="path25"
         d="m 19206,15249.1 c 25.6,0 47,19.9 48.6,45.8 1.7,26.9 -18.7,50.1 -45.6,51.7 -281.2,17.5 -336.9,85.8 -544.1,339.8 l -29.2,35.9 c -221.7,271.1 -454.5,440.1 -929.2,445 -0.2,0 -0.4,0 -0.5,0 -26.8,0 -48.6,-21.6 -48.8,-48.4 -0.3,-26.9 21.3,-49 48.3,-49.3 438.6,-4.4 645.5,-153.4 854.6,-409.2 l 29.2,-35.7 c 210.9,-258.6 289.8,-355.4 613.6,-375.5 1,0 2.1,-0.1 3.1,-0.1"
         style="fill:#000000;fill-opacity:1;fill-rule:nonzero;stroke:none"
         transform="matrix(0.13333333,0,0,-0.13333333,0,2584)"
         clip-path="url(#clipPath26)" />
      <path
         id="path27"
         d="m 18893.4,13466 c 10,0 20.1,3.1 28.8,9.5 272.2,199.7 431.3,448.1 460.2,718.3 33.3,311.3 -100.2,639 -396.8,973.9 -17.9,20.2 -48.7,22.1 -68.9,4.2 -20.2,-17.9 -22.1,-48.8 -4.2,-69 277.6,-313.4 403.1,-615.8 372.8,-898.8 -25.8,-242.1 -171.4,-466.8 -420.8,-649.9 -21.8,-15.9 -26.5,-46.5 -10.5,-68.2 9.5,-13.1 24.3,-20 39.4,-20"
         style="fill:#000000;fill-opacity:1;fill-rule:nonzero;stroke:none"
         transform="matrix(0.13333333,0,0,-0.13333333,0,2584)"
         clip-path="url(#clipPath28)" />
      <path
         id="path29"
         d="m 16347.4,13806.5 c 52.6,-0.1 105.7,4.7 158.1,15.1 194.2,38.8 348.7,147.7 459.1,323.9 43.1,68.8 84.9,139.5 125.2,207.8 157.7,267.2 306.7,519.6 470.2,540.8 72.2,9.4 148.2,-26.8 232.8,-110.4 19.2,-18.9 50.1,-18.8 69,0.4 19,19.2 18.8,50.1 -0.4,69 -107.3,106.2 -210,151.4 -313.9,137.8 -210.8,-27.3 -364.2,-287.1 -541.8,-588 -40,-67.7 -81.4,-137.9 -123.8,-205.5 -95.6,-152.6 -228.7,-246.8 -395.5,-280 -246.7,-49.3 -498.7,48.2 -607.9,125.7 -22,15.6 -52.5,10.4 -68.1,-11.6 -15.6,-22 -10.4,-52.4 11.6,-68 117.6,-83.5 317.6,-157 525.4,-157"
         style="fill:#000000;fill-opacity:1;fill-rule:nonzero;stroke:none"
         transform="matrix(0.13333333,0,0,-0.13333333,0,2584)"
         clip-path="url(#clipPath30)" />
      <path
         id="path31"
         d="m 18722.3,13704.6 c 58,0 121.5,8.8 191.1,26.3 26.2,6.5 42,33.1 35.5,59.2 -6.6,26.1 -32.9,42.1 -59.2,35.5 -149.5,-37.6 -262.4,-29.8 -345.3,23.9 -145.7,94.3 -187.1,326.1 -227,550.3 -43.1,241.7 -83.8,470 -251.1,559.8 -23.7,12.7 -53.3,3.8 -66.1,-20 -12.7,-23.7 -3.8,-53.3 20,-66.1 125.6,-67.3 162.3,-273.1 201.1,-490.8 43.6,-244.8 88.7,-497.8 270.1,-615.2 64.9,-42 141.2,-62.9 230.9,-62.9"
         style="fill:#000000;fill-opacity:1;fill-rule:nonzero;stroke:none"
         transform="matrix(0.13333333,0,0,-0.13333333,0,2584)"
         clip-path="url(#clipPath32)" />
      <path
         id="path33"
         d="m 15762.9,13503.3 c 181.4,0 319.5,118.2 375,195.1 15.8,21.9 10.9,52.4 -11,68.2 -21.8,15.8 -52.3,10.9 -68.1,-11 -6.4,-8.7 -161.6,-216.2 -402.2,-137.2 -25.5,8.4 -53.1,-5.5 -61.6,-31.1 -8.4,-25.7 5.6,-53.2 31.2,-61.7 47.7,-15.6 93.4,-22.3 136.7,-22.3"
         style="fill:#000000;fill-opacity:1;fill-rule:nonzero;stroke:none"
         transform="matrix(0.13333333,0,0,-0.13333333,0,2584)"
         clip-path="url(#clipPath34)" />
      <path
         id="path35"
         d="m 17948.7,15196.5 c 5,0 10.2,0.8 15.3,2.5 25.6,8.4 39.5,36.1 31,61.7 -5.5,16.7 -138.4,412.5 -378.1,527 -24.2,11.7 -53.4,1.4 -65.1,-23 -11.6,-24.3 -1.3,-53.4 23,-65 202.6,-96.8 326.3,-465.9 327.5,-469.6 6.8,-20.5 25.9,-33.6 46.4,-33.6"
         style="fill:#000000;fill-opacity:1;fill-rule:nonzero;stroke:none"
         transform="matrix(0.13333333,0,0,-0.13333333,0,2584)"
         clip-path="url(#clipPath36)" />
      <path
         id="path37"
         d="m 9099.46,9863.4 c 310.23,0 1067.54,459.1 1302.74,934.3 11.9,24.2 2,53.5 -22.2,65.4 -24.1,12 -53.4,2.1 -65.4,-22.1 -217.1,-438.9 -933.87,-879.96 -1214.63,-879.96 -0.86,0 -1.71,0 -2.61,0.01 -221.31,2.15 -466.19,122.95 -770.63,380.15 -352.55,297.9 -482.66,650.3 -522.22,788.1 -51.96,180.6 -65.34,241.8 -92.03,363.6 -8.32,38 -17.95,82 -30.44,137.3 -27.9,123.6 -65.37,227.4 -105.07,337.2 -21,58.2 -42.73,118.3 -64.75,185.8 -60.33,184.9 -48.25,338.3 -48.12,339.8 2.29,26.8 -17.61,50.5 -44.42,52.8 -27.08,2.2 -50.47,-17.5 -52.82,-44.3 -0.61,-7 -14.27,-173.7 52.56,-378.6 22.47,-68.9 44.49,-129.8 65.75,-188.7 40.29,-111.5 75.09,-207.8 101.66,-325.5 12.39,-55 21.99,-98.8 30.28,-136.7 27.14,-123.9 40.78,-186 93.59,-369.7 42.01,-146.3 180.03,-520.6 553.05,-835.7 327.19,-276.41 584,-400.76 832.66,-403.18 1.02,0 2.03,-0.02 3.05,-0.02"
         style="fill:#000000;fill-opacity:1;fill-rule:nonzero;stroke:none"
         transform="matrix(0.13333333,0,0,-0.13333333,0,2584)"
         clip-path="url(#clipPath38)" />
      <path
         id="path39"
         d="m 10724.1,11739 c 6.1,0 12.4,1.2 18.5,3.7 291.1,119.4 445,308.9 470.4,579.4 18.1,192.3 -56.2,368.7 -193.9,460.2 -121.3,80.8 -270,81.4 -418.5,2.1 -23.7,-12.7 -32.7,-42.3 -20,-66.1 12.7,-23.7 42.4,-32.7 66.1,-20 115.4,61.7 228.4,62.6 318.4,2.7 106,-70.5 165.2,-215.6 150.7,-369.8 -22,-234.1 -152.4,-392.4 -410.3,-498.2 -24.9,-10.2 -36.8,-38.7 -26.6,-63.6 7.7,-18.9 26,-30.4 45.2,-30.4"
         style="fill:#000000;fill-opacity:1;fill-rule:nonzero;stroke:none"
         transform="matrix(0.13333333,0,0,-0.13333333,0,2584)"
         clip-path="url(#clipPath40)" />
      <path
         id="path41"
         d="m 10740.4,12196.8 c 20,0 38.8,12.4 46,32.4 0.2,0.6 28,76 83.3,133 18.7,19.4 18.3,50.3 -1.1,69 -19.3,18.8 -50.2,18.3 -69,-1 -70.4,-72.5 -103.8,-164.3 -105.1,-168.1 -9.1,-25.4 4.1,-53.4 29.5,-62.4 5.4,-2 10.9,-2.9 16.4,-2.9"
         style="fill:#000000;fill-opacity:1;fill-rule:nonzero;stroke:none"
         transform="matrix(0.13333333,0,0,-0.13333333,0,2584)"
         clip-path="url(#clipPath42)" />
      <path
         id="path43"
         d="m 8820.42,9959.78 c 0,0 265.6,-139.32 589.58,18 300.35,145.82 732.9,530.82 732.9,530.82 0,0 -331.88,-572.84 -659.52,-797.48 -308.85,-211.8 -631.95,-107.86 -631.95,-107.86 l -31.01,356.52"
         style="fill:#000000;fill-opacity:1;fill-rule:evenodd;stroke:none"
         transform="matrix(0.13333333,0,0,-0.13333333,0,2584)"
         clip-path="url(#clipPath44)" />
      <path
         id="path45"
         d="m 8689.84,11283.3 c 14.83,0 29.49,6.8 39.09,19.6 16.17,21.5 11.78,52.1 -9.79,68.3 -92.7,69.5 -115.93,111.3 -119.08,134.1 -3.46,25.1 15.12,51 45.79,91 39.53,51.6 88.79,115.9 91.14,213.2 4.87,203.3 -167.78,488.9 -175.13,501 -14.11,23 -44.08,30.2 -67.08,16.3 -23.01,-14 -30.33,-44.1 -16.3,-67.1 1.65,-2.7 165.09,-273.3 160.89,-447.8 -1.56,-65.6 -35.3,-109.6 -71.03,-156.3 -36.48,-47.6 -74.2,-96.9 -64.98,-163.6 8.61,-62.6 57.1,-123.9 157.24,-198.9 8.78,-6.6 19.03,-9.8 29.24,-9.8"
         style="fill:#000000;fill-opacity:1;fill-rule:nonzero;stroke:none"
         transform="matrix(0.13333333,0,0,-0.13333333,0,2584)"
         clip-path="url(#clipPath46)" />
      <path
         id="path47"
         d="m 8937.3,12892.8 c 8.55,0 17.19,2.3 25.07,7 255.62,153.2 470.19,56.3 479.19,52.1 24.27,-11.4 53.42,-0.9 64.89,23.4 11.45,24.3 1.17,53.3 -23.07,64.8 -10.9,5.2 -269.17,124.4 -571.22,-56.6 -23.11,-13.9 -30.64,-43.8 -16.75,-66.9 9.13,-15.3 25.3,-23.8 41.89,-23.8"
         style="fill:#000000;fill-opacity:1;fill-rule:nonzero;stroke:none"
         transform="matrix(0.13333333,0,0,-0.13333333,0,2584)"
         clip-path="url(#clipPath48)" />
      <path
         id="path49"
         d="m 7612.44,12621 c 12.62,0 25.24,4.9 34.77,14.6 6.19,6.1 140.17,136.3 366.78,78.3 26.2,-6.7 52.73,9.1 59.43,35.2 6.71,26.1 -9.02,52.7 -35.14,59.4 -283.15,72.7 -453.61,-97.3 -460.74,-104.6 -18.83,-19.2 -18.48,-50.1 0.77,-69 9.51,-9.3 21.84,-13.9 34.13,-13.9"
         style="fill:#000000;fill-opacity:1;fill-rule:nonzero;stroke:none"
         transform="matrix(0.13333333,0,0,-0.13333333,0,2584)"
         clip-path="url(#clipPath50)" />
      <path
         id="path51"
         d="m 9959.93,12504.7 c 126.97,0 250.77,26.7 367.87,88.6 23.8,12.6 32.9,42.1 20.3,65.9 -12.6,23.9 -42.1,33 -66,20.4 -785.28,-415 -1996.18,989.3 -2008.32,1003.6 -17.5,20.4 -48.26,22.9 -68.79,5.4 -20.53,-17.4 -22.98,-48.3 -5.5,-68.8 44.55,-52.2 961.09,-1115.1 1760.44,-1115.1"
         style="fill:#000000;fill-opacity:1;fill-rule:nonzero;stroke:none"
         transform="matrix(0.13333333,0,0,-0.13333333,0,2584)"
         clip-path="url(#clipPath52)" />
      <path
         id="path53"
         d="m 11257.5,9832.14 c 7.3,0 14.7,1.63 21.6,5.09 867.1,429.37 923.2,1600.67 686.6,2553.67 -177.2,713.8 -416.9,1333.2 -693.2,1791.3 -268.7,445.4 -588.8,768.2 -856.5,863.7 -25.4,9 -53.3,-4.2 -62.3,-29.6 -9.1,-25.4 4.2,-53.4 29.6,-62.4 247,-88.1 548.2,-395.4 805.6,-822.1 271.3,-449.9 507.2,-1060 682,-1764.4 227.5,-916.2 180.1,-2039 -635.1,-2442.69 -24.2,-11.97 -34.1,-41.24 -22.1,-65.4 8.5,-17.21 25.8,-27.17 43.8,-27.17"
         style="fill:#000000;fill-opacity:1;fill-rule:nonzero;stroke:none"
         transform="matrix(0.13333333,0,0,-0.13333333,0,2584)"
         clip-path="url(#clipPath54)" />
      <path
         id="path55"
         d="m 7760.5,14622.8 c 13.09,0 26.13,5.2 35.75,15.6 349.5,375.9 1779.58,812.3 2281.95,390.2 20.6,-17.3 51.4,-14.7 68.8,6 17.3,20.6 14.6,51.4 -6,68.7 -547.79,460.3 -2038.37,7.9 -2416.25,-398.5 -18.37,-19.7 -17.23,-50.6 2.51,-68.9 9.41,-8.8 21.32,-13.1 33.24,-13.1"
         style="fill:#000000;fill-opacity:1;fill-rule:nonzero;stroke:none"
         transform="matrix(0.13333333,0,0,-0.13333333,0,2584)"
         clip-path="url(#clipPath56)" />
      <path
         id="path57"
         d="m 5755.07,6517.4 c 21.97,0 41.93,14.9 47.39,37.2 6.42,26.1 -9.59,52.5 -35.79,59 -143.19,35.2 -255.05,130 -332.46,281.8 -160.16,314.1 -141.09,817.9 48.58,1283.5 96.33,236.5 250.14,508.4 412.97,796.3 332.4,587.71 709.14,1253.8 798.66,1942.4 81.93,630.1 120.15,1291.2 150.89,1822.4 28.24,488.7 50.59,874.7 94.15,1021.7 150.7,508.4 721.92,651.6 727.67,653 26.19,6.3 42.33,32.7 36.04,58.9 -6.29,26.2 -32.47,42.3 -58.79,36 -25.71,-6.1 -631.57,-156.9 -798.53,-720.2 -46.78,-157.8 -69.37,-548.8 -98.01,-1043.8 -30.63,-529.6 -68.73,-1188.7 -150.22,-1815.4 C 6510.55,10260.5 6138.77,9603.16 5810.78,9023.3 5646.36,8732.6 5491.09,8458 5392.41,8215.8 5192.47,7725 5174.74,7189.3 5347.27,6851 c 89.55,-175.7 226.54,-290.6 396.15,-332.2 3.9,-1 7.81,-1.4 11.65,-1.4"
         style="fill:#000000;fill-opacity:1;fill-rule:nonzero;stroke:none"
         transform="matrix(0.13333333,0,0,-0.13333333,0,2584)"
         clip-path="url(#clipPath58)" />
      <path
         id="path59"
         d="m 7035.54,10393.5 c 6.41,0 12.93,1.3 19.18,3.9 24.8,10.7 36.27,39.4 25.65,64.1 -253.5,591.6 66.23,1305.4 257.28,1731.8 56.63,126.5 101.35,226.3 121.49,299 81.64,294.6 126.17,569.6 173.3,860.9 9.87,61 19.85,122.6 30.31,185.3 18.34,109.9 72.8,252.6 165.92,293.3 54.3,23.7 119.96,10.5 195.34,-39 22.46,-14.8 52.72,-8.6 67.62,14 14.78,22.5 8.55,52.8 -13.98,67.6 -104.77,68.8 -201.67,84.6 -288.07,46.9 -162.08,-70.9 -211.74,-298.6 -223.12,-366.7 -10.49,-62.8 -20.5,-124.7 -30.39,-185.8 -46.71,-288.5 -90.82,-561 -170.99,-850.4 -18.18,-65.6 -63.75,-167.3 -116.54,-285.1 -197.56,-441.1 -528.25,-1179.4 -257.91,-1810.2 7.94,-18.5 25.96,-29.6 44.91,-29.6"
         style="fill:#000000;fill-opacity:1;fill-rule:nonzero;stroke:none"
         transform="matrix(0.13333333,0,0,-0.13333333,0,2584)"
         clip-path="url(#clipPath60)" />
      <path
         id="path61"
         d="m 7961.41,11931.9 c -25.49,97 10.96,190.6 81.38,209 70.42,18.5 148.15,-45.1 173.61,-142.1 25.48,-97 -10.97,-190.6 -81.39,-209.1 -70.43,-18.5 -148.12,45.1 -173.6,142.2"
         style="fill:#000000;fill-opacity:1;fill-rule:evenodd;stroke:none"
         transform="matrix(0.13333333,0,0,-0.13333333,0,2584)"
         clip-path="url(#clipPath62)" />
      <path
         id="path63"
         d="m 9198.07,12237 c -21.8,97.9 23.01,191.2 100.11,208.4 77.09,17.1 157.27,-48.3 179.07,-146.2 21.83,-97.8 -22.98,-191.1 -100.08,-208.3 -77.09,-17.2 -157.27,48.2 -179.1,146.1"
         style="fill:#000000;fill-opacity:1;fill-rule:evenodd;stroke:none"
         transform="matrix(0.13333333,0,0,-0.13333333,0,2584)"
         clip-path="url(#clipPath64)" />
      <path
         id="path65"
         d="m 8908.06,11073.3 c 249.65,56.2 526.48,139.1 526.48,139.1 0,0 16.59,-501.7 -375.98,-644.5 -409.98,-149.1 -649.68,436.5 -649.68,436.5 0,0 249.49,12.6 499.18,68.9"
         style="fill:#ffffff;fill-opacity:1;fill-rule:evenodd;stroke:none"
         transform="matrix(0.13333333,0,0,-0.13333333,0,2584)"
         clip-path="url(#clipPath66)" />
      <path
         id="path67"
         d="m 8918.77,11025.7 c -172.02,-38.8 -341.84,-57.1 -434.95,-64.9 72.26,-138.2 272.24,-451 558.06,-347 274,99.7 329.92,399.9 341.15,532.7 -97.56,-28.1 -288.46,-81.3 -464.26,-120.8 z m -555.08,-39.8 c -5.98,14.7 -4.51,31.3 3.97,44.7 8.48,13.3 22.95,21.7 38.74,22.5 2.45,0.2 248.48,13.2 490.95,67.8 v 0 c 245.04,55.2 520.43,137.4 523.17,138.2 14.49,4.3 30.19,1.7 42.52,-7.1 12.3,-8.9 19.77,-22.9 20.28,-38 0.73,-22 12.93,-538.8 -408.08,-692 -50.97,-18.5 -100.03,-26.8 -146.93,-26.8 -283.48,0 -488.19,304 -564.62,490.7"
         style="fill:#000000;fill-opacity:1;fill-rule:nonzero;stroke:none"
         transform="matrix(0.13333333,0,0,-0.13333333,0,2584)"
         clip-path="url(#clipPath68)" />
      <path
         id="path69"
         d="m 9432.12,5826.1 c 1.71,0 3.43,0.1 5.15,0.2 26.82,2.9 46.27,26.9 43.47,53.7 -1.46,13.9 -36.51,344.4 -97.68,591.4 -29.25,117.9 -104.91,198.2 -213.12,226.1 -120.43,30.9 -261.28,-12.8 -350.42,-109 -119.32,-128.9 -153.52,-289.2 -87.07,-408.4 61.14,-109.6 192.97,-156.4 352.61,-125.1 26.48,5.2 43.69,30.8 38.52,57.3 -5.14,26.4 -30.69,43.9 -57.26,38.5 -117.87,-23 -208.54,4.9 -248.61,76.9 -45.47,81.6 -16.65,197.1 73.45,294.4 65.42,70.7 167.53,103.2 254.44,80.8 50.82,-13.1 116.83,-50.6 142.69,-155 59.55,-240.3 94.99,-574.8 95.34,-578.1 2.63,-25.1 23.84,-43.7 48.49,-43.7"
         style="fill:#000000;fill-opacity:1;fill-rule:nonzero;stroke:none"
         transform="matrix(0.13333333,0,0,-0.13333333,0,2584)"
         clip-path="url(#clipPath70)" />
      <path
         id="path71"
         d="m 8421.18,6034.8 c 23.61,0 44.36,17.2 48.15,41.3 17.57,111.8 57.61,195.2 126.03,262.5 120.4,118.3 312.57,210.7 314.51,211.6 24.31,11.6 34.64,40.7 23.04,65.1 -11.57,24.3 -40.77,34.6 -65.02,23 -8.49,-4 -208.72,-100.1 -340.99,-230.1 -82.94,-81.6 -133.3,-185.2 -153.99,-317 -4.2,-26.6 14.01,-51.6 40.64,-55.8 2.54,-0.4 5.12,-0.6 7.63,-0.6"
         style="fill:#000000;fill-opacity:1;fill-rule:nonzero;stroke:none"
         transform="matrix(0.13333333,0,0,-0.13333333,0,2584)"
         clip-path="url(#clipPath72)" />
      <path
         id="path73"
         d="m 8752.86,3970.6 c 326.1,0 663.12,32.8 739.8,160.3 78.15,129.9 52.08,261.5 33.04,357.6 -7.72,38.9 -14.99,75.7 -12.89,101 2.25,27.5 26.56,58.6 54.69,94.6 49.7,63.7 111.54,142.9 116.94,271.7 2.51,60.7 -31.84,130 -68.19,203.5 -29.3,59.2 -59.59,120.4 -64.42,166.9 -2.8,26.9 16.52,65.3 36.99,106 44.74,89 105.98,211 22.12,366.9 -145.42,270.2 -1495.28,19.1 -1969.2,-173.9 -83.96,-34.2 -148.41,-126 -164.2,-233.9 -16.58,-113 23.65,-217.9 110.37,-287.7 110.08,-88.4 388.11,-35 442.74,-23.3 26.34,5.6 43.18,31.5 37.57,57.8 -5.6,26.4 -31.73,43.3 -57.87,37.6 -117.11,-24.8 -306.55,-40 -361.24,4 -80.87,65.1 -81.7,151.6 -74.99,197.5 10.55,72 53.51,136.8 104.42,157.5 243.39,99.2 689.59,203.7 1085.12,254.4 547.89,70.1 736.31,10.2 761.29,-36.2 59.84,-111.3 19.45,-191.7 -23.36,-276.8 -27.04,-53.9 -52.6,-104.7 -46.88,-160 6.68,-64 40.91,-133.2 74.04,-200.1 27.94,-56.4 59.63,-120.4 58.13,-156.1 -4.06,-97.5 -50.97,-157.6 -96.32,-215.7 -36.19,-46.3 -70.35,-90.1 -75.06,-146.6 -3.21,-38.9 5.37,-82.3 14.43,-128.1 17.74,-89.4 37.78,-190.7 -20.91,-288.3 -75.7,-125.8 -745.15,-141.4 -1322.82,-76.9 -115.61,12.9 -148.91,104.9 -157.88,143.8 -20.81,90.4 14.21,184.9 85.1,229.7 22.79,14.4 29.63,44.5 15.23,67.3 -14.46,22.8 -44.62,29.5 -67.34,15.2 -107.06,-67.6 -158.55,-201.8 -128.13,-334.1 27.96,-121.5 120.76,-205.4 242.22,-218.9 6.41,-0.7 335.99,-36.7 677.46,-36.7"
         style="fill:#000000;fill-opacity:1;fill-rule:nonzero;stroke:none"
         transform="matrix(0.13333333,0,0,-0.13333333,0,2584)"
         clip-path="url(#clipPath74)" />
      <path
         id="path75"
         d="m 7920.98,4475.9 c 320.65,0 1106.85,39 1115.08,39.4 26.92,1.4 47.64,24.3 46.31,51.2 -1.34,26.9 -23.68,47.5 -51.2,46.3 -8.46,-0.4 -850.9,-42.6 -1142.98,-39.1 -134.75,1.4 -221.28,113 -237.07,222.5 -5.97,41.4 -13.54,180.2 140.55,227.4 295.8,90.8 1295.53,220.7 1305.61,222 26.71,3.5 45.6,28 42.12,54.7 -3.46,26.7 -27.96,45.7 -54.65,42.1 -41.44,-5.3 -1018.03,-132.2 -1321.68,-225.4 -149.46,-45.8 -231.34,-177.2 -208.6,-334.8 21.78,-150.6 143.05,-304.2 332.7,-306.2 10.58,-0.1 21.87,-0.1 33.81,-0.1"
         style="fill:#000000;fill-opacity:1;fill-rule:nonzero;stroke:none"
         transform="matrix(0.13333333,0,0,-0.13333333,0,2584)"
         clip-path="url(#clipPath76)" />
      <path
         id="path77"
         d="m 7363.23,5402.4 c 95.44,0 167.06,7.4 174.44,8.1 26.82,2.9 46.17,27 43.31,53.8 -2.89,26.8 -26.41,46.4 -53.74,43.3 -119.23,-12.7 -454.97,-22.8 -575.25,82.7 -27.05,23.7 -40.61,51.6 -41.44,85.3 -2.64,103.5 71.31,130.9 267.71,177.7 101.97,24.3 217.55,51.8 325.31,109.3 91.62,48.9 194.39,119.6 285.08,181.9 96.93,66.6 197.13,135.4 238.8,145.1 91,21.1 183.38,18.6 272.75,16.3 127.74,-3.4 248.44,-6.5 334.5,66.1 20.62,17.3 23.23,48.1 5.85,68.7 -17.39,20.6 -48.18,23.2 -68.78,5.9 -57.67,-48.6 -155.58,-46.1 -269.03,-43.1 -90.92,2.4 -194.2,5.1 -297.35,-18.8 -56.76,-13.2 -140.37,-69.3 -272.03,-159.8 -88.57,-60.8 -188.95,-129.8 -275.75,-176.1 -96.66,-51.7 -205.76,-77.6 -301.98,-100.5 -170.88,-40.7 -347.54,-82.8 -342.71,-275.1 1.56,-61.7 26.73,-114.3 74.79,-156.4 108.98,-95.5 322.77,-114.4 475.52,-114.4"
         style="fill:#000000;fill-opacity:1;fill-rule:nonzero;stroke:none"
         transform="matrix(0.13333333,0,0,-0.13333333,0,2584)"
         clip-path="url(#clipPath78)" />
      <path
         id="path79"
         d="m 10858.3,9925.81 c 2.2,0 4.5,0.16 6.8,0.47 26.7,3.75 45.3,28.45 41.6,55.12 -0.8,5.5 -76.6,560.7 -39.4,1578.5 1,27 -20,49.6 -47,50.6 -26.7,1.3 -49.6,-20 -50.6,-47 -37.5,-1027.6 39.5,-1590.12 40.3,-1595.68 3.4,-24.39 24.3,-42.01 48.3,-42.01"
         style="fill:#000000;fill-opacity:1;fill-rule:nonzero;stroke:none"
         transform="matrix(0.13333333,0,0,-0.13333333,0,2584)"
         clip-path="url(#clipPath80)" />
      <path
         id="path81"
         d="m 8838.53,9319.8 c 24.91,0 46.17,19 48.52,44.3 25.55,274.76 -29.65,598.85 -32,612.51 -4.61,26.59 -29.74,44.49 -56.44,39.79 -26.53,-4.6 -44.36,-29.85 -39.78,-56.42 0.56,-3.22 55.36,-325.19 31.05,-586.78 -2.52,-26.9 17.21,-50.7 44.08,-53.1 1.52,-0.2 3.04,-0.3 4.57,-0.3"
         style="fill:#000000;fill-opacity:1;fill-rule:nonzero;stroke:none"
         transform="matrix(0.13333333,0,0,-0.13333333,0,2584)"
         clip-path="url(#clipPath82)" />
      <path
         id="path83"
         d="m 6343.68,6221.9 c 23.33,0 43.95,16.7 48.05,40.5 4.57,26.6 -13.28,51.8 -39.85,56.4 -153.49,26.4 -276.73,120 -366.25,278.3 -223.5,395.1 -185.88,1092.1 -22.85,1511.2 9.76,25.2 -2.7,53.5 -27.81,63.2 -25.07,9.7 -53.42,-2.7 -63.2,-27.8 -171.06,-439.9 -208.7,-1174.6 28.88,-1594.7 104.68,-185 250.93,-294.8 434.71,-326.4 2.79,-0.5 5.55,-0.7 8.32,-0.7"
         style="fill:#000000;fill-opacity:1;fill-rule:nonzero;stroke:none"
         transform="matrix(0.13333333,0,0,-0.13333333,0,2584)"
         clip-path="url(#clipPath84)" />
      <path
         id="path85"
         d="m 6714.22,6499 c 26.95,0 48.81,21.9 48.81,48.8 0,27 -21.86,48.8 -48.81,48.8 -109.22,0 -263.1,100.1 -337.36,382.2 -6.84,26.1 -33.44,41.8 -59.62,34.8 -26.06,-6.9 -41.63,-33.6 -34.77,-59.7 88.38,-335.8 287.82,-454.9 431.75,-454.9"
         style="fill:#000000;fill-opacity:1;fill-rule:nonzero;stroke:none"
         transform="matrix(0.13333333,0,0,-0.13333333,0,2584)"
         clip-path="url(#clipPath86)" />
      <path
         id="path87"
         d="m 11510.8,685.102 c 114.2,0 233.2,20.398 357.9,64.898 430.3,153.5 727.5,1135.9 797.7,1468 433.8,2053.5 894.5,5432 505.2,6161.8 -350.3,656.9 -1018,925.9 -1505.4,1122.32 l -54.5,21.98 c -262.6,106.14 -564,311.14 -567,313.2 -22.3,15.15 -52.7,9.49 -67.8,-12.77 -15.3,-22.26 -9.6,-52.65 12.7,-67.84 12.7,-8.63 313,-212.95 585.5,-323.09 l 54.6,-22.02 c 473.6,-190.78 1122.2,-452.18 1455.8,-1077.68 361.4,-677.6 -66.7,-3975.5 -514.7,-6095.7 -81.2,-384.3 -378.9,-1269.298 -734.9,-1396.302 -112.6,-40.097 -220.3,-59.097 -324.3,-59.097 -553.6,-0.102 -1002.9,537.099 -1547.12,1267.999 -16.15,21.6 -46.72,26 -68.29,10 -21.65,-16.1 -26.13,-46.7 -10.02,-68.3 C 10366,1348.2 10859.7,685.199 11510.8,685.102"
         style="fill:#000000;fill-opacity:1;fill-rule:nonzero;stroke:none"
         transform="matrix(0.13333333,0,0,-0.13333333,0,2584)"
         clip-path="url(#clipPath88)" />
      <path
         id="path89"
         d="m 9763.13,2235.4 c 8.23,0 16.52,2.1 24.15,6.5 23.42,13.3 31.59,43.1 18.2,66.5 -301,527.5 -470.19,878.9 -593.71,1135.5 -112.5,233.6 -193.76,402.3 -309.11,571.6 -15.16,22.3 -45.51,28.1 -67.82,12.8 -22.28,-15.1 -28.03,-45.5 -12.84,-67.8 111.22,-163.2 191.15,-329.2 301.81,-559 124.15,-257.8 294.2,-611 596.9,-1141.4 8.99,-15.8 25.48,-24.7 42.42,-24.7"
         style="fill:#000000;fill-opacity:1;fill-rule:nonzero;stroke:none"
         transform="matrix(0.13333333,0,0,-0.13333333,0,2584)"
         clip-path="url(#clipPath90)" />
      <path
         id="path91"
         d="m 11894.5,2562.4 c 10,0 20.2,3.1 28.9,9.6 21.7,15.9 26.3,46.5 10.3,68.2 -227.4,308.4 -497.8,574.9 -784.1,857.1 -512.9,505.6 -1094.2,1078.6 -1512.29,2018.5 -10.93,24.6 -39.71,35.8 -64.41,24.7 -24.62,-10.9 -35.72,-39.8 -24.76,-64.4 C 9973.66,4519.3 10562,3939.4 11081,3427.8 c 283.5,-279.4 551.3,-543.4 774.2,-845.6 9.5,-12.9 24.3,-19.8 39.3,-19.8"
         style="fill:#000000;fill-opacity:1;fill-rule:nonzero;stroke:none"
         transform="matrix(0.13333333,0,0,-0.13333333,0,2584)"
         clip-path="url(#clipPath92)" />
      <path
         id="path93"
         d="m 10699.9,4021.7 c 23.7,0 44.5,17.3 48.2,41.4 1.9,12.7 193.8,1278.8 193.8,2661 0,27 -21.8,48.8 -48.8,48.8 -26.9,0 -48.8,-21.8 -48.8,-48.8 0,-1374.4 -190.8,-2633.6 -192.7,-2646.2 -4.1,-26.6 14.2,-51.5 40.9,-55.6 2.5,-0.4 5,-0.6 7.4,-0.6"
         style="fill:#000000;fill-opacity:1;fill-rule:nonzero;stroke:none"
         transform="matrix(0.13333333,0,0,-0.13333333,0,2584)"
         clip-path="url(#clipPath94)" />
      <path
         id="path95"
         d="m 11847.1,-21.8008 c 1.5,0 3.1,0.1016 4.6,0.2031 26.9,2.5977 46.6,26.39848 44,53.1993 l -70.2,743.8004 c -2.5,26.899 -26.7,46.797 -53.2,43.996 -26.8,-2.597 -46.5,-26.398 -44,-53.199 L 11798.5,22.5 c 2.4,-25.30078 23.7,-44.3008 48.6,-44.3008"
         style="fill:#000000;fill-opacity:1;fill-rule:nonzero;stroke:none"
         transform="matrix(0.13333333,0,0,-0.13333333,0,2584)"
         clip-path="url(#clipPath96)" />
      <path
         id="path97"
         d="m 6422.91,-35.3008 c 26.69,0 48.49,21.5 48.81,48.2031 6.38,542.3987 20.08,1015.5977 32.19,1433.1977 22.3,770.1 39.94,1378.5 5.56,2041 -23.46,452.2 -61.24,796 -91.62,1072.2 -56.76,516.4 -88.03,800.8 38.86,1155.7 121.59,340 232.47,585.9 339.66,823.6 147.48,327.1 286.79,636 419.92,1127.9 7.03,26 -8.36,52.8 -34.39,59.9 -25.9,7 -52.78,-8.3 -59.86,-34.4 -131.06,-484.4 -268.82,-789.9 -414.65,-1113.3 -108.01,-239.5 -219.68,-487.1 -342.58,-830.8 -134.48,-376.1 -100.42,-685.9 -43.98,-1199.3 30.22,-274.9 67.85,-617.2 91.14,-1066.6 34.2,-658.6 16.62,-1265.1 -5.65,-2033.1 -12.11,-417.9 -25.84,-891.701 -32.23,-1434.7984 -0.32,-27 21.29,-49.1016 48.25,-49.4024 0.18,0 0.37,0 0.57,0"
         style="fill:#000000;fill-opacity:1;fill-rule:nonzero;stroke:none"
         transform="matrix(0.13333333,0,0,-0.13333333,0,2584)"
         clip-path="url(#clipPath98)" />
      <path
         id="path99"
         d="m 6874.13,7482.9 c 23.19,0 43.79,16.6 47.99,40.3 121.33,683.3 635.03,1022.5 1131.79,1350.5 246.38,162.6 479.1,316.3 646.89,504.4 17.95,20.12 16.17,50.99 -3.94,68.9 -20.15,18.06 -50.97,16.22 -68.9,-3.93 C 8468.63,9264.4 8241.06,9114.2 8000.14,8955.1 7510.08,8631.6 6954.68,8264.9 6826.02,7540.3 c -4.74,-26.6 12.96,-51.9 39.5,-56.6 2.89,-0.5 5.78,-0.8 8.61,-0.8"
         style="fill:#000000;fill-opacity:1;fill-rule:nonzero;stroke:none"
         transform="matrix(0.13333333,0,0,-0.13333333,0,2584)"
         clip-path="url(#clipPath100)" />
      <path
         id="path101"
         d="m 8560.27,6960.1 c 263.87,0 1141.43,863.9 1244.9,966.7 676.93,672.5 1188.43,1322.7 1368.23,1739.14 10.7,24.75 -0.7,53.48 -25.4,64.16 -24.7,10.73 -53.5,-0.73 -64.2,-25.46 C 10910.6,9303.4 10413.2,8671 9753.31,8013 9101.62,7363.1 8643.98,7040.1 8563.48,7056.6 c -1.81,0.8 -28.28,14 -60.02,110 -143.81,435 -134.05,1699.7 128,2130.6 14.01,23.1 6.7,53.1 -16.34,67.1 -22.97,14 -53.04,6.7 -67.05,-16.4 -279.08,-458.8 -289.79,-1750.7 -137.31,-2212 31.93,-96.6 69.14,-150.6 117.1,-170.1 9.4,-3.8 20.27,-5.7 32.41,-5.7"
         style="fill:#000000;fill-opacity:1;fill-rule:nonzero;stroke:none"
         transform="matrix(0.13333333,0,0,-0.13333333,0,2584)"
         clip-path="url(#clipPath102)" />
      <path
         id="path103"
         d="m 13164.7,5646.2 c 16.2,0 32.1,8.1 41.4,22.9 14.3,22.9 7.3,53 -15.5,67.3 -446.5,279.1 -1501.1,511.2 -2320.1,221.1 -25.4,-8.9 -38.8,-36.8 -29.8,-62.3 9,-25.3 36.8,-38.7 62.4,-29.7 779.5,276.1 1816.8,50 2235.7,-211.9 8.1,-5 17,-7.4 25.9,-7.4"
         style="fill:#000000;fill-opacity:1;fill-rule:nonzero;stroke:none"
         transform="matrix(0.13333333,0,0,-0.13333333,0,2584)"
         clip-path="url(#clipPath104)" />
      <path
         id="path105"
         d="m 17151.5,10750 c 15.1,0 29.4,0.8 42.8,2.2 262.6,28.9 521.1,187.7 838.1,514.8 361.4,373 467.9,783.7 496.9,942.9 36.8,201.8 44.6,269.6 60.4,404.8 4.7,40.3 10.1,86.9 17.2,145.1 30.1,246.1 60.6,361.4 92.8,483.4 14.1,53.3 28.7,108.4 43.4,175.4 18.7,85.2 39.4,187.7 51.2,301.3 2.8,26.8 -16.6,50.8 -43.4,53.6 -26.7,2.9 -50.9,-16.7 -53.6,-43.5 -11.4,-108.5 -30.6,-203.7 -49.6,-290.5 -14.2,-64.9 -28.5,-119.1 -42.3,-171.4 -33.2,-125.3 -64.5,-243.7 -95.4,-496.5 -7.1,-58.4 -12.6,-105.1 -17.3,-145.6 -16,-137.3 -23.2,-199.9 -59.5,-398.6 -27.4,-150.5 -128.1,-538.7 -470.9,-892.4 -296,-305.5 -543.5,-459.9 -778.7,-485.7 -295.5,-32.6 -1108.6,360.9 -1386.8,805.3 -14.3,22.9 -44.4,29.8 -67.3,15.5 -22.8,-14.3 -29.7,-44.4 -15.4,-67.3 287.8,-459.8 1085.1,-852.8 1437.4,-852.8"
         style="fill:#000000;fill-opacity:1;fill-rule:nonzero;stroke:none"
         transform="matrix(0.13333333,0,0,-0.13333333,0,2584)"
         clip-path="url(#clipPath106)" />
      <path
         id="path107"
         d="m 15359.6,12550.9 c 21,0 40.5,13.7 46.8,34.9 7.7,25.9 -7.1,53 -32.9,60.7 -285.8,85.1 -441.5,239.9 -490,487.1 -31.9,163 15.9,324.4 121.7,411.1 90.1,73.9 211.3,84.9 341.1,31.4 24.9,-10.3 53.5,1.6 63.8,26.5 10.2,24.9 -1.6,53.4 -26.6,63.7 -164.6,68 -321,51.6 -440.1,-46.1 -135.4,-110.8 -195,-304.5 -155.7,-505.3 55.4,-282.9 237.9,-466.7 558,-561.9 4.6,-1.4 9.3,-2.1 13.9,-2.1"
         style="fill:#000000;fill-opacity:1;fill-rule:nonzero;stroke:none"
         transform="matrix(0.13333333,0,0,-0.13333333,0,2584)"
         clip-path="url(#clipPath108)" />
      <path
         id="path109"
         d="m 15293.8,13034.5 c 7,0 14.2,1.5 20.9,4.7 24.3,11.6 34.7,40.7 23.1,65 -1.8,3.9 -46.6,97 -128.5,166.1 -20.6,17.4 -51.4,14.7 -68.8,-5.9 -17.3,-20.6 -14.7,-51.4 5.9,-68.8 65.3,-55 102.9,-132.6 103.3,-133.4 8.4,-17.5 25.9,-27.7 44.1,-27.7"
         style="fill:#000000;fill-opacity:1;fill-rule:nonzero;stroke:none"
         transform="matrix(0.13333333,0,0,-0.13333333,0,2584)"
         clip-path="url(#clipPath110)" />
      <path
         id="path111"
         d="m 17477,10880.5 c 0,0 -266.8,-175.9 -626.9,-43.4 -333.8,122.7 -833.2,485 -833.2,485 0,0 412.5,-572.1 783.6,-775.5 350,-191.8 681.5,-47.3 681.5,-47.3 l -5,381.2"
         style="fill:#000000;fill-opacity:1;fill-rule:evenodd;stroke:none"
         transform="matrix(0.13333333,0,0,-0.13333333,0,2584)"
         clip-path="url(#clipPath112)" />
      <path
         id="path113"
         d="m 17470,12300.4 c 11.8,0 23.6,4.2 33,12.8 97.5,89.6 142.1,159.1 144.6,225.3 2.6,70.5 -42.1,118.2 -85.4,164.3 -41.3,44.1 -83.9,89.6 -92.7,159.9 -23.1,185.6 121.9,490.6 123.4,493.6 11.7,24.3 1.4,53.5 -22.9,65.2 -24.3,11.6 -53.5,1.4 -65.1,-22.9 -6.5,-13.5 -158.9,-333.9 -132.3,-547.9 12.7,-101.9 71.3,-164.4 118.4,-214.6 37.3,-39.8 60.1,-65.6 59,-93.9 -1.3,-36.6 -39.4,-89.4 -113,-157 -19.9,-18.3 -21.2,-49.2 -3,-69 9.7,-10.5 22.8,-15.8 36,-15.8"
         style="fill:#000000;fill-opacity:1;fill-rule:nonzero;stroke:none"
         transform="matrix(0.13333333,0,0,-0.13333333,0,2584)"
         clip-path="url(#clipPath114)" />
      <path
         id="path115"
         d="m 17084.4,13950.8 c 18.3,0 35.9,10.3 44.2,28 11.5,24.4 1,53.5 -23.4,65 -337.9,159.1 -597.6,6.2 -608.5,-0.4 -23,-14 -30.4,-44 -16.5,-67 14,-23.1 43.9,-30.5 66.9,-16.6 9.6,5.6 227.9,131.6 516.5,-4.4 6.8,-3.1 13.8,-4.6 20.8,-4.6"
         style="fill:#000000;fill-opacity:1;fill-rule:nonzero;stroke:none"
         transform="matrix(0.13333333,0,0,-0.13333333,0,2584)"
         clip-path="url(#clipPath116)" />
      <path
         id="path117"
         d="m 18464.6,13761.5 c 14.1,0 28,6 37.6,17.7 17.2,20.6 14.5,51.2 -6.1,68.4 -8.3,7 -205.4,168 -496.4,61.5 -25.3,-9.2 -38.3,-37.3 -29.1,-62.6 9.3,-25.3 37.3,-38.3 62.6,-29.1 236.4,86.6 393.8,-39.4 400.4,-44.8 9.1,-7.4 20.1,-11.1 31,-11.1"
         style="fill:#000000;fill-opacity:1;fill-rule:nonzero;stroke:none"
         transform="matrix(0.13333333,0,0,-0.13333333,0,2584)"
         clip-path="url(#clipPath118)" />
      <path
         id="path119"
         d="m 18191.1,13077.4 c 16.8,105.5 -31.8,200.9 -108.4,213 -76.6,12.2 -152.3,-63.5 -169,-169.1 -16.7,-105.5 31.8,-200.9 108.4,-213 76.7,-12.2 152.3,63.6 169,169.1"
         style="fill:#000000;fill-opacity:1;fill-rule:evenodd;stroke:none"
         transform="matrix(0.13333333,0,0,-0.13333333,0,2584)"
         clip-path="url(#clipPath120)" />
      <path
         id="path121"
         d="m 16863.2,13205.5 c 12.7,106.1 -44.7,200.2 -128.2,210.3 -83.6,10 -161.6,-67.9 -174.4,-173.9 -12.7,-106.1 44.7,-200.2 128.2,-210.3 83.6,-10.1 161.6,67.8 174.4,173.9"
         style="fill:#000000;fill-opacity:1;fill-rule:evenodd;stroke:none"
         transform="matrix(0.13333333,0,0,-0.13333333,0,2584)"
         clip-path="url(#clipPath122)" />
      <path
         id="path123"
         d="m 17266.2,12051.7 c -270.7,33.1 -573,91.6 -573,91.6 0,0 35.6,-533.6 466.9,-643.4 450.5,-114.7 642.5,531.6 642.5,531.6 0,0 -265.8,-13 -536.4,20.2"
         style="fill:#ffffff;fill-opacity:1;fill-rule:evenodd;stroke:none"
         transform="matrix(0.13333333,0,0,-0.13333333,0,2584)"
         clip-path="url(#clipPath124)" />
      <path
         id="path125"
         d="m 17260.2,12003.2 c -193.3,23.7 -404.5,60.6 -509.4,79.7 25,-137.9 115.3,-457.7 421.4,-535.7 319,-81.3 499.5,281 560.2,433.4 -98.3,-1.6 -282.9,-0.6 -472.2,22.6 z m -112.1,-550.6 c -460.3,117.2 -502,664.2 -503.6,687.4 -1,15.1 5.1,29.9 16.4,39.9 11.4,10 26.8,14.2 41.6,11.3 3,-0.6 303.7,-58.5 569.6,-91.1 v 0 c 263.1,-32.2 525.5,-19.9 528.1,-19.8 15.8,1.1 31.1,-6.2 40.8,-18.6 9.8,-12.5 12.9,-28.9 8.4,-44.1 -63.8,-214.7 -262.2,-579.9 -586.1,-579.9 -36.7,0 -75.2,4.7 -115.2,14.9"
         style="fill:#000000;fill-opacity:1;fill-rule:nonzero;stroke:none"
         transform="matrix(0.13333333,0,0,-0.13333333,0,2584)"
         clip-path="url(#clipPath126)" />
      <path
         id="path127"
         d="m 15220.8,10804.8 c 24.1,0 45,17.8 48.3,42.3 1,7.5 100,755.1 22.9,1585.7 -2.5,26.9 -26.4,46.7 -53.1,44.1 -26.9,-2.5 -46.6,-26.2 -44.1,-53.1 76,-819.1 -21.5,-1556.3 -22.4,-1563.6 -3.6,-26.7 15.1,-51.3 41.8,-54.9 2.2,-0.3 4.4,-0.5 6.6,-0.5"
         style="fill:#000000;fill-opacity:1;fill-rule:nonzero;stroke:none"
         transform="matrix(0.13333333,0,0,-0.13333333,0,2584)"
         clip-path="url(#clipPath128)" />
      <path
         id="path129"
         d="m 17520.5,10203.1 c 3.1,0 6.3,0.3 9.4,0.9 26.5,5.1 43.8,30.8 38.6,57.3 -53.7,275.4 -29.6,622.7 -29.3,626.1 1.9,26.9 -18.3,50.3 -45.2,52.2 -27.1,1.7 -50.3,-18.3 -52.2,-45.2 -1.1,-14.7 -25.3,-363.7 30.9,-651.8 4.5,-23.3 24.9,-39.5 47.8,-39.5"
         style="fill:#000000;fill-opacity:1;fill-rule:nonzero;stroke:none"
         transform="matrix(0.13333333,0,0,-0.13333333,0,2584)"
         clip-path="url(#clipPath130)" />
      <path
         id="path131"
         d="m 17505.5,6338 c 21.4,0 41,14.1 47,35.6 1,3.6 101.1,358.6 204.4,601.2 45.3,106.6 122.1,135.2 178.4,140.5 96.3,9.1 199.1,-43 256.4,-129.2 78.9,-118.5 89.6,-246.1 27.2,-325.2 -55.1,-69.9 -156.3,-84.3 -277.4,-39.7 -25.3,9.4 -53.4,-3.6 -62.7,-28.9 -9.3,-25.3 3.7,-53.4 28.9,-62.7 161.1,-59.3 306.1,-32.8 387.9,70.8 89,112.9 80.1,285.5 -22.6,439.8 -76.7,115.2 -216.1,184.3 -346.7,172.3 -117.1,-10.9 -209.2,-81.7 -259.3,-199.5 -105.7,-248.5 -204.3,-598.2 -208.5,-613 -7.3,-26 7.9,-52.9 33.8,-60.2 4.4,-1.2 8.9,-1.8 13.2,-1.8"
         style="fill:#000000;fill-opacity:1;fill-rule:nonzero;stroke:none"
         transform="matrix(0.13333333,0,0,-0.13333333,0,2584)"
         clip-path="url(#clipPath132)" />
      <path
         id="path133"
         d="m 18608.5,6395.8 c 26.9,0 48.8,21.8 48.8,48.7 0.6,143 -33.6,256.5 -107.5,356.9 -116.6,158.4 -310.1,292.9 -318.3,298.5 -22.2,15.4 -52.6,9.8 -67.9,-12.4 -15.3,-22.2 -9.8,-52.6 12.4,-67.9 1.9,-1.3 188.5,-131.1 295.2,-276 60.9,-82.8 89,-177.7 88.5,-298.8 -0.1,-26.9 21.7,-48.9 48.6,-49 0.1,0 0.2,0 0.2,0"
         style="fill:#000000;fill-opacity:1;fill-rule:nonzero;stroke:none"
         transform="matrix(0.13333333,0,0,-0.13333333,0,2584)"
         clip-path="url(#clipPath134)" />
      <path
         id="path135"
         d="m 18636.2,4209.1 c 121.8,0 225.5,70.7 272.8,187.4 53.8,132.5 22.8,280.8 -77.2,368.9 -20.2,17.9 -51,15.9 -68.9,-4.3 -17.8,-20.3 -15.9,-51.1 4.3,-68.9 67.9,-59.8 89,-166.3 51.4,-259 -16.2,-39.9 -67.6,-132.1 -193.1,-126.2 -618.3,30 -1319.8,160.3 -1378.4,306.2 -45.6,113.5 -7.2,217 26.7,308.4 17.2,46.4 33.4,90.3 36.6,131.2 4.6,59.2 -23.7,110.5 -53.6,164.9 -38,69.1 -77.4,140.5 -65.1,244.6 4.6,38.4 47,98 88,155.5 45.9,64.4 93.4,131 111,196.5 15.2,56.2 -2.9,113.5 -22.1,174.1 -29.4,93.2 -59.8,189.5 22.8,297.4 46.3,60.6 314.3,56.3 808.6,-89.6 406.9,-120 858,-305.3 1096.9,-450.6 50.9,-30.9 85.6,-107.3 84.5,-185.8 -0.7,-49.9 -16.4,-141.8 -113.7,-197.3 -65.6,-37.5 -263.2,10.7 -382.4,56.7 -25.2,9.6 -53.4,-2.8 -63.2,-27.9 -9.7,-25.1 2.8,-53.4 27.9,-63.1 55.2,-21.4 336.8,-124 466.1,-50.5 101.8,58 161.2,160.4 162.9,280.7 1.7,114.9 -49.9,221.1 -131.3,270.6 -464.3,282.3 -1836.6,774 -2033.9,516.1 -113.4,-148.3 -70,-285.7 -38.3,-386.1 15.4,-48.6 28.7,-90.7 21,-119.3 -13.1,-48.5 -55.4,-107.8 -96.3,-165.2 -50.3,-70.7 -97.9,-137.4 -105.4,-200.7 -16,-135.2 35.2,-228.4 76.5,-303.2 23.6,-43 44.1,-80.2 41.7,-110.3 -2.1,-27.3 -16,-64.9 -30.8,-104.7 -36,-97.2 -85.4,-230.4 -25.7,-378.8 120,-298.6 1450.8,-366.7 1464.3,-367.3 5.1,-0.2 10.3,-0.4 15.4,-0.4"
         style="fill:#000000;fill-opacity:1;fill-rule:nonzero;stroke:none"
         transform="matrix(0.13333333,0,0,-0.13333333,0,2584)"
         clip-path="url(#clipPath136)" />
      <path
         id="path137"
         d="m 18951,4665.8 c 171.6,0 300.9,127.9 344.4,267.1 50.1,160 -13,310.3 -160.8,383 -302.8,149 -1306.3,447.1 -1348.9,459.8 -25.9,7.5 -53,-7.1 -60.7,-32.9 -7.6,-25.9 7.1,-53.1 33,-60.7 10.3,-3.1 1038.1,-308.5 1333.5,-453.8 156.1,-76.8 124.2,-223.2 110.8,-266.3 -35.5,-113.6 -146.6,-217.3 -289.9,-195.7 -307.1,46.1 -1184.7,232.4 -1193.5,234.3 -26.3,5.6 -52.3,-11.2 -57.9,-37.6 -5.6,-26.3 11.2,-52.3 37.6,-57.9 8.9,-1.9 889.3,-188.8 1199.3,-235.3 18.1,-2.7 35.8,-4 53.1,-4"
         style="fill:#000000;fill-opacity:1;fill-rule:nonzero;stroke:none"
         transform="matrix(0.13333333,0,0,-0.13333333,0,2584)"
         clip-path="url(#clipPath138)" />
      <path
         id="path139"
         d="m 19842.2,5532.7 c 104.1,0 206.4,15.1 278.7,60.4 56.8,35.5 91.6,85.8 103.5,149.4 37.1,198.7 -132.2,268.9 -311.4,343.3 -97.3,40.4 -207.7,86.2 -300.8,156.9 -83.4,63.4 -177.2,152.9 -260,231.8 -122.6,117 -200.7,189.8 -257.6,213 -111,45.4 -213,52.8 -303,59.4 -105.3,7.8 -188.4,13.9 -260.4,73.8 -20.7,17.3 -51.5,14.5 -68.7,-6.2 -17.3,-20.8 -14.5,-51.5 6.2,-68.8 96.1,-80 202.8,-87.8 315.8,-96.1 86.8,-6.4 176.5,-13 273.2,-52.4 42.7,-17.5 136.5,-106.9 227.2,-193.4 84.6,-80.6 180.5,-172.1 268.3,-238.8 103.1,-78.4 219.6,-126.7 322.4,-169.4 181,-75.1 274.4,-119.7 252.9,-235.1 -6.8,-36.2 -26.2,-63.9 -59.4,-84.7 -145,-90.9 -497,-23.5 -620.3,10.1 -26.2,7.1 -52.9,-8.3 -60,-34.2 -7.1,-26 8.2,-52.9 34.2,-60 13,-3.5 219.4,-59 419.2,-59"
         style="fill:#000000;fill-opacity:1;fill-rule:nonzero;stroke:none"
         transform="matrix(0.13333333,0,0,-0.13333333,0,2584)"
         clip-path="url(#clipPath140)" />
      <path
         id="path141"
         d="m 12895.9,8896.5 c 21.7,0 41.5,14.6 47.2,36.6 16.9,65.1 36.8,119.9 59.2,162.9 356.4,684.57 875.2,912.1 1377.1,1132.1 l 25.4,11.2 c 491.9,215.8 743.2,440.9 753.7,450.4 19.9,18.1 21.5,49 3.4,68.9 -18,20 -48.9,21.6 -68.9,3.5 -2.5,-2.2 -251.4,-224.5 -727.4,-433.4 l -25.5,-11.2 c -517.2,-226.8 -1052.1,-461.36 -1424.4,-1176.4 -25.8,-49.5 -48.3,-111.2 -67.1,-183.6 -6.8,-26.1 8.9,-52.7 35,-59.5 4.1,-1 8.2,-1.5 12.3,-1.5"
         style="fill:#000000;fill-opacity:1;fill-rule:nonzero;stroke:none"
         transform="matrix(0.13333333,0,0,-0.13333333,0,2584)"
         clip-path="url(#clipPath142)" />
      <path
         id="path143"
         d="m 15024.8,1241.2 c 782.2,0 1445.3,1039.2 2039.3,1970.3 270.3,423.5 525.5,823.6 762.5,1074.1 18.6,19.6 17.7,50.5 -1.9,69 -19.6,18.6 -50.4,17.7 -69,-1.9 -243.4,-257.3 -501.1,-661.1 -773.9,-1088.7 -660.6,-1035.4 -1409.3,-2209 -2272.1,-1861.7 -352.5,141.8 -761.8,785.8 -1068.3,1680.6 -279.9,817.5 -355.4,1171.1 -487.3,2047.9 -4,26.7 -28.8,45.3 -55.5,41 -26.7,-4 -45,-28.9 -41,-55.5 132.9,-883.7 209,-1240.2 491.5,-2065 320.1,-934.8 740.4,-1585.1 1124.1,-1739.6 119.9,-48.2 237.1,-70.5 351.6,-70.5"
         style="fill:#000000;fill-opacity:1;fill-rule:nonzero;stroke:none"
         transform="matrix(0.13333333,0,0,-0.13333333,0,2584)"
         clip-path="url(#clipPath144)" />
      <path
         id="path145"
         d="m 14375.5,3337.3 c 12.3,0 24.6,4.7 34.1,14 285.3,279.7 611,511.7 956,757.2 631.1,449.2 1346.5,958.5 1954.5,1890.5 14.8,22.5 8.4,52.8 -14.2,67.5 -22.6,14.7 -52.8,8.4 -67.5,-14.2 -598,-916.5 -1305.4,-1420 -1929.5,-1864.3 -348.1,-247.8 -676.9,-481.9 -967.6,-767 -19.3,-18.9 -19.6,-49.8 -0.7,-69 9.6,-9.8 22.2,-14.7 34.9,-14.7"
         style="fill:#000000;fill-opacity:1;fill-rule:nonzero;stroke:none"
         transform="matrix(0.13333333,0,0,-0.13333333,0,2584)"
         clip-path="url(#clipPath146)" />
      <path
         id="path147"
         d="m 15588.4,4522.2 c 5,0 10,0.7 15,2.3 25.7,8.3 39.7,35.8 31.5,61.5 -4.9,15.1 -487.9,1523.6 -546.9,2856.4 -1.2,26.9 -23.6,48 -50.9,46.6 -26.9,-1.2 -47.8,-24 -46.6,-50.9 59.5,-1346.2 546.6,-2866.9 551.5,-2882.1 6.6,-20.7 25.8,-33.8 46.4,-33.8"
         style="fill:#000000;fill-opacity:1;fill-rule:nonzero;stroke:none"
         transform="matrix(0.13333333,0,0,-0.13333333,0,2584)"
         clip-path="url(#clipPath148)" />
      <path
         id="path149"
         d="m 13565.9,-72.6992 c 23.9,0 44.7,17.5 48.3,41.9023 2.5,17.8985 257.4,1809.4969 108,2890.7969 -3.7,26.7 -28.3,45.1 -55,41.7 -26.7,-3.8 -45.4,-28.4 -41.7,-55.1 147.5,-1067.5 -105.4,-2845.697656 -108,-2863.4984 -3.8,-26.6993 14.7,-51.3985 41.4,-55.3008 2.3,-0.3008 4.7,-0.5 7,-0.5"
         style="fill:#000000;fill-opacity:1;fill-rule:nonzero;stroke:none"
         transform="matrix(0.13333333,0,0,-0.13333333,0,2584)"
         clip-path="url(#clipPath150)" />
      <path
         id="path151"
         d="m 19767.7,6303.8 c 0.7,0 1.5,0 2.2,0 27,1.2 47.8,24.1 46.6,51 -26,574.3 -160.3,1399.5 -161.7,1407.7 -4.4,26.6 -29.3,44.8 -56,40.3 -26.7,-4.3 -44.7,-29.4 -40.3,-56 1.3,-8.3 134.7,-827.8 160.5,-1396.4 1.2,-26.2 22.7,-46.6 48.7,-46.6"
         style="fill:#000000;fill-opacity:1;fill-rule:nonzero;stroke:none"
         transform="matrix(0.13333333,0,0,-0.13333333,0,2584)"
         clip-path="url(#clipPath152)" />
      <path
         id="path153"
         d="m 19835.2,2899.2 c 26.9,0 48.7,21.6 48.9,48.6 1.7,406.4 1,768.1 -2.1,1075 -2,206.2 -11.7,443.4 -21.1,672.9 -9.4,231.4 -19.1,470.7 -21,677.5 -0.3,26.8 -22.1,48.4 -48.8,48.4 -0.2,0 -0.3,0 -0.5,0 -27,-0.3 -48.6,-22.3 -48.4,-49.3 2,-208.3 11.7,-448.4 21.2,-680.6 9.3,-228.7 19,-465.2 21,-669.9 3,-306.4 3.7,-667.7 2,-1073.6 -0.1,-27 21.7,-48.9 48.6,-49 0.1,0 0.2,0 0.2,0"
         style="fill:#000000;fill-opacity:1;fill-rule:nonzero;stroke:none"
         transform="matrix(0.13333333,0,0,-0.13333333,0,2584)"
         clip-path="url(#clipPath154)" />
      <path
         id="path155"
         d="m 19797.4,-28 c 26.7,0 48.4,21.30078 48.8,48 0.2,12.6016 18.5,1268.6 27.2,2559.6 0.2,27 -21.5,48.9 -48.4,49.1 -0.2,0 -0.3,0 -0.4,0 -26.8,0 -48.6,-21.6 -48.8,-48.4 -8.7,-1290.6 -27,-2546.3 -27.2,-2558.8 -0.4,-27 21.1,-49.0977 48.1,-49.5 0.2,0 0.5,0 0.7,0"
         style="fill:#000000;fill-opacity:1;fill-rule:nonzero;stroke:none"
         transform="matrix(0.13333333,0,0,-0.13333333,0,2584)"
         clip-path="url(#clipPath156)" />
      <path
         id="path157"
         d="m 19845.8,7315.7 c 25,0 46.3,19.1 48.6,44.4 58,649.8 -64.7,1271 -312.5,1582.7 -293.1,368.7 -740.3,635.33 -1134.8,870.55 -288.3,171.91 -560.7,334.35 -716.5,505.55 -18.2,20 -49,21.5 -69,3.3 -19.9,-18.1 -21.4,-49 -3.2,-68.9 165.6,-182.1 444,-348.05 738.7,-523.78 387.4,-230.96 826.4,-492.72 1108.4,-847.42 191,-240.2 355.2,-801.3 291.6,-1513.3 -2.4,-26.8 17.4,-50.5 44.3,-52.9 1.5,-0.2 2.9,-0.2 4.4,-0.2"
         style="fill:#000000;fill-opacity:1;fill-rule:nonzero;stroke:none"
         transform="matrix(0.13333333,0,0,-0.13333333,0,2584)"
         clip-path="url(#clipPath158)" />
      <path
         id="path159"
         d="m 16972.7,9675.03 c 320.4,0 598.9,61.43 756.9,175.87 138.3,100.14 169.8,234.3 86.6,368.2 -14.2,22.9 -44.3,30 -67.2,15.7 -22.9,-14.3 -30,-44.4 -15.7,-67.3 55.8,-89.7 35.9,-167.4 -60.9,-237.53 -367.6,-266.19 -1814.2,-278.49 -2629.3,694.13 -17.3,20.6 -48.1,23.3 -68.7,6 -20.7,-17.3 -23.4,-48.1 -6.1,-68.7 490.7,-585.57 1165.9,-779.7 1524.7,-843.31 163.7,-29.01 326.5,-43.06 479.7,-43.06"
         style="fill:#000000;fill-opacity:1;fill-rule:nonzero;stroke:none"
         transform="matrix(0.13333333,0,0,-0.13333333,0,2584)"
         clip-path="url(#clipPath160)" />
      <path
         id="path161"
         d="m 13216.4,5976.3 c 9.3,0 18.7,2.6 27,8.2 485.2,323.4 1285.4,544.8 1876,342.2 25.5,-8.7 53.3,4.9 62,30.4 8.7,25.5 -4.8,53.2 -30.4,62 -649.5,222.8 -1472.2,-27 -1961.7,-353.4 -22.5,-14.9 -28.5,-45.2 -13.6,-67.7 9.4,-14.1 24.9,-21.7 40.7,-21.7"
         style="fill:#000000;fill-opacity:1;fill-rule:nonzero;stroke:none"
         transform="matrix(0.13333333,0,0,-0.13333333,0,2584)"
         clip-path="url(#clipPath162)" />
      <path
         id="path163"
         d="m 10548.6,12824.6 c 24.8,0 46,18.8 48.5,43.9 2.7,26.9 -16.9,50.8 -43.7,53.5 -365.3,36.5 -835.66,350.9 -1070.79,715.8 -14.61,22.7 -44.86,29.2 -67.46,14.6 -22.66,-14.6 -29.2,-44.8 -14.58,-67.5 253.59,-393.5 745.03,-720.3 1143.13,-760.1 1.6,-0.1 3.3,-0.2 4.9,-0.2"
         style="fill:#000000;fill-opacity:1;fill-rule:nonzero;stroke:none"
         transform="matrix(0.13333333,0,0,-0.13333333,0,2584)"
         clip-path="url(#clipPath164)" />
    </g>
  </g>
</svg>
