<?xml version="1.0" encoding="UTF-8" standalone="no"?>
<!-- Created with Inkscape (http://www.inkscape.org/) -->

<svg
   version="1.1"
   id="svg1"
   width="2744.6348"
   height="1809.6161"
   viewBox="0 0 2744.6348 1809.6161"
   xmlns="http://www.w3.org/2000/svg"
   xmlns:svg="http://www.w3.org/2000/svg">
  <defs
     id="defs1" />
  <g
     id="g1"
     style="display:inline"
     transform="translate(-490.92022,-329.87219)">
    <g
       id="group-R5"
       transform="translate(38.095238,-47.619048)">
      <path
         id="path3"
         d="m 7006.41,14921.2 c 85.5,72.9 212.72,137.9 363.23,229.7 140.07,85.5 296.94,199.5 546.75,228.7 361.85,42.3 1007.63,-35.6 1273.41,-212.6 205.61,-137 682.45,-473.7 744.64,-760.6 41.86,-193 108.06,-324.2 19.17,-519 -75.56,-165.3 -309.48,-260.7 -309.48,-260.7 l -802.41,-312.1 -1991.88,8.4 c 0,0 -62.74,122.7 -91.64,437.3 -33.16,361.4 -18.01,933.8 248.21,1160.9"
         style="fill:#cc895f;fill-opacity:1;fill-rule:nonzero;stroke:none"
         transform="matrix(0.13333333,0,0,-0.13333333,0,2437.3333)" />
      <path
         id="path4"
         d="m 6896.17,13389.1 c 20.15,42.6 124.49,99.8 222.01,91.3 143.92,-12.6 311.6,-100.7 487.59,-40.5 213.95,73.3 390.41,423.3 390.41,423.3 0,0 297.97,365.1 553.38,427 309.83,75.2 802.16,-82.8 947.45,-221.4 128.64,-122.7 149.57,-421.9 87.65,-683 -17.63,-74.4 -112.98,-319 -154.46,-519.1 -48.04,-231.8 -48.13,-429 -157.68,-633.5 -338.99,-632.9 -830.58,-764.7 -830.58,-764.7 l -102.87,-400.4 c 0,0 -358.1,302.6 -695.05,547.6 -336.95,245.1 -652.79,432.8 -652.79,432.8 0,0 71.9,198.2 117.87,373.5 45.92,175.3 65.98,327.7 65.98,327.7 0,0 -485.23,202.8 -278.91,639.4"
         style="fill:#ffddc0;fill-opacity:1;fill-rule:nonzero;stroke:none"
         transform="matrix(0.13333333,0,0,-0.13333333,0,2437.3333)" />
      <path
         id="path5"
         d="m 13932.5,7093 224,129.7 4309.5,-859 28.8,-54.9 76,-379.2 -413.7,85.6 -923.1,-668.7 -102.4,-35.7 -2782.1,661.9 -417,1120.3"
         style="fill:#ffffff;fill-opacity:1;fill-rule:nonzero;stroke:none"
         transform="matrix(0.13333333,0,0,-0.13333333,0,2437.3333)" />
      <path
         id="path6"
         d="m 6793.9,12083.3 c 0,0 155.6,18.2 533.63,-226.4 377.99,-244.7 978.4,-752.2 978.4,-752.2 l 86.09,216 c 0,0 542.46,-408.8 446.27,-497.9 -96.16,-89.1 -163.61,-217.5 -163.61,-217.5 0,0 256.93,-304.2 550.87,-1001.98 294,-697.8 619.32,-1827.62 619.32,-1827.62 l 483.93,-717 c 0,0 511.4,-72.6 983.3,-75.5 471.9,-2.9 904.2,63.8 904.2,63.8 l 79.3,-295.3 1060.8,-27.1 c 0,0 174.9,-245 231.5,-530.7 56.7,-285.8 -4.9,-612.5 -4.9,-612.5 0,0 -1255.9,-270.7 -2057,-386.1 -801.1,-115.2 -1147.3,-75.1 -1147.3,-75.1 0,0 4.8,-177.6 144.8,-532.7 140,-355.1 143.9,-559.3 143.9,-559.3 0,0 -533.5,-51.7 -1141.52,-787.4 -360.42,-436.3 -672.46,-779.5 -908.08,-975.7 -161.78,-134.7 -314.35,-193.2 -314.35,-193.2 l -512.56,42.6 c 0,0 -546.61,2792.5 -932.28,4355.7 -385.66,1563.2 -754.47,2703.07 -754.47,2703.07 0,0 -17.36,50.81 -103.7,115.44 -86.3,64.62 -260.74,140.84 -260.74,140.84 0,0 35.28,608.35 294.02,1271.15 145.06,371.7 372,598.7 538.49,869.3 130.47,211.9 221.69,513.3 221.69,513.3"
         style="fill:#ded6d4;fill-opacity:1;fill-rule:nonzero;stroke:none"
         transform="matrix(0.13333333,0,0,-0.13333333,0,2437.3333)" />
      <path
         id="path7"
         d="m 9595.53,3310.5 c 642.97,701.5 1041.27,679.1 1041.27,679.1 0,0 1767,-217.7 3253.8,-707.4 501,-165.1 855.4,-348.2 1070.1,-576.4 364.1,-387.1 323,-728.2 323,-728.2 0,0 -1314.1,-144.6 -3760.4,-87.6 -1524.46,35.4 -2597.76,116.6 -3190.28,172.7 0,0 203.82,130.1 433.3,348.4 236.31,225 503.1,543.6 829.21,899.4"
         style="fill:#576580;fill-opacity:1;fill-rule:nonzero;stroke:none"
         transform="matrix(0.13333333,0,0,-0.13333333,0,2437.3333)" />
      <path
         id="path8"
         d="m 13532.3,7244 c 251.3,39.3 549.9,-286.6 549.9,-286.6 0,0 688.6,570.9 878.4,612.2 189.8,41.2 345.3,-414.8 345.3,-414.8 0,0 71,-71.7 166.7,-214.5 95.6,-142.9 215.8,-356.9 215.8,-356.9 0,0 371.1,-289 209.6,-399.7 -25.6,-17.5 -107.2,-11.1 -243.3,76.6 -138.9,89.5 -327.2,141.4 -526.2,110.7 -258.7,-39.9 -559.9,-324.5 -815.5,-401.4 -351,-105.6 -711.1,-146.4 -711.1,-146.4 0,0 -20.8,324.3 -86.9,544.7 -65.9,220.4 -177.2,336.9 -177.2,336.9 l -1108,-84.1 8.3,319 c 0,0 194.9,13 458.1,79.5 294.7,74.3 669.9,198.9 836.1,224.8"
         style="fill:#ffddc0;fill-opacity:1;fill-rule:nonzero;stroke:none"
         transform="matrix(0.13333333,0,0,-0.13333333,0,2437.3333)" />
      <path
         id="path9"
         d="m 10659.7,14974.1 116.3,51.8 7525.7,-237.8 c 0,0 192.4,-42.5 274.4,-101.3 81.8,-58.8 53.2,-133.8 53.2,-133.8 l 1.7,-1888 -549.9,-2509.5 -7505.3,669.9 V 14857 l 83.9,117.1"
         style="fill:#37445c;fill-opacity:1;fill-rule:nonzero;stroke:none"
         transform="matrix(0.13333333,0,0,-0.13333333,0,2437.3333)" />
      <path
         id="path10"
         d="m 10568.9,10851 7542.1,-681.7 -96.4,-380.55 -722.9,-697.62 -1896.8,206.81 106.5,-583.6 -25.1,-97.3 -816,-558.54 -184.3,-38 -1737.2,233.8 -12.9,127.28 1036.6,529.52 32.2,80.69 -109.5,490.65 -2955.2,316.46 -97.3,51.59 -51.9,133.22 -11.9,867.29"
         style="fill:#e1e2e3;fill-opacity:1;fill-rule:nonzero;stroke:none"
         transform="matrix(0.13333333,0,0,-0.13333333,0,2437.3333)" />
      <path
         id="path11"
         d="m 10732.7,14765.8 90.7,75.8 7419.4,-240 67.7,-65.3 2.2,-3256.5 -275.1,-1120.3 -7297.7,680.4 -7.2,3925.9"
         style="fill:#475774;fill-opacity:1;fill-rule:nonzero;stroke:none"
         transform="matrix(0.13333333,0,0,-0.13333333,0,2437.3333)" />
      <path
         id="path12"
         d="m 18756.3,12789.6 4878.6,-201.6 71.8,-104.7 -852.6,-3090.3 -39.6,-78.79 8.5,-133.62 -1648.3,-2019.29 -147.4,-53.9 -4938.5,609.7 -50.6,83.3 1859.1,1904.44 74.3,63.8 -2.4,110.93 695.2,2867.93 91.9,42.1"
         style="fill:#7085ab;fill-opacity:1;fill-rule:nonzero;stroke:none"
         transform="matrix(0.13333333,0,0,-0.13333333,0,2437.3333)" />
      <path
         id="path13"
         d="m 16819.8,7896.9 c 367.4,-25.1 404.5,-313.2 404.5,-313.2 l 261.5,-39.3 -234,-92.7 -757.8,110.4 c 0,0 -41.7,359.8 325.8,334.8"
         style="fill:#8490a8;fill-opacity:1;fill-rule:nonzero;stroke:none"
         transform="matrix(0.13333333,0,0,-0.13333333,0,2437.3333)" />
      <path
         id="path14"
         d="m 19864.1,7490 c 367.4,-25.1 412.9,-292.4 412.9,-292.4 l 198.8,-37.1 -179.7,-115.6 -757.8,110.3 c 0,0 -41.7,359.8 325.8,334.8"
         style="fill:#8490a8;fill-opacity:1;fill-rule:nonzero;stroke:none"
         transform="matrix(0.13333333,0,0,-0.13333333,0,2437.3333)" />
      <path
         id="path15"
         d="m 18787.3,12624.3 4595.5,-194.5 -802.9,-2921.23 -4450.5,384.12 657.9,2731.61"
         style="fill:#475774;fill-opacity:1;fill-rule:nonzero;stroke:none"
         transform="matrix(0.13333333,0,0,-0.13333333,0,2437.3333)" />
      <path
         id="path16"
         d="m 7177.71,12718.9 c -5.56,0 -11.2,1 -16.69,3.2 -216.32,85.1 -332.04,223.7 -353.77,423.8 -15.53,143.1 38.18,275.5 140.18,345.5 90.48,62 202.05,64.4 314.09,6.5 22.43,-11.5 31.24,-39.1 19.66,-61.5 -11.58,-22.5 -39.16,-31.3 -61.56,-19.7 -80.8,41.7 -159.1,41.4 -220.49,-0.7 -73.08,-50.1 -112.73,-152.3 -101.02,-260.2 17.96,-165.4 112.13,-276.2 296.34,-348.6 23.49,-9.3 35.05,-35.8 25.81,-59.3 -7.07,-18 -24.29,-29 -42.55,-29"
         style="fill:#000000;fill-opacity:1;fill-rule:nonzero;stroke:none"
         transform="matrix(0.13333333,0,0,-0.13333333,0,2437.3333)" />
      <path
         id="path17"
         d="m 7161.04,13050.8 c -18.52,0 -35.95,11.4 -42.82,29.8 -0.15,0.4 -20.35,52.8 -59.42,91.9 -17.83,17.9 -17.83,46.8 0.04,64.7 17.83,17.8 46.79,17.8 64.63,-0.1 53.46,-53.5 79.3,-121.7 80.39,-124.6 8.82,-23.6 -3.19,-49.9 -26.84,-58.8 -5.27,-1.9 -10.67,-2.9 -15.98,-2.9"
         style="fill:#000000;fill-opacity:1;fill-rule:nonzero;stroke:none"
         transform="matrix(0.13333333,0,0,-0.13333333,0,2437.3333)" />
      <path
         id="path18"
         d="m 8644.13,12431.5 c -13.66,0 -27.2,6.2 -36.2,17.8 -15.42,20 -11.73,48.7 8.24,64.1 67.1,51.8 79.59,79.7 81.07,91.6 1.76,14.3 -11.02,31.3 -32,57.9 -28.57,36.2 -67.68,85.8 -70.54,159.7 -5.69,147.7 131.55,388.3 147.21,415.3 12.7,21.7 40.66,29.1 62.48,16.5 21.83,-12.7 29.23,-40.6 16.56,-62.5 -38.87,-66.9 -138.88,-263 -134.94,-365.7 1.72,-44.2 25.64,-74.6 50.99,-106.7 26.94,-34.1 57.48,-72.8 50.97,-125.6 -5.98,-48.4 -41.73,-95.5 -115.92,-152.8 -8.33,-6.5 -18.17,-9.6 -27.92,-9.6"
         style="fill:#000000;fill-opacity:1;fill-rule:nonzero;stroke:none"
         transform="matrix(0.13333333,0,0,-0.13333333,0,2437.3333)" />
      <path
         id="path19"
         d="m 8531.78,13614.6 c -8.57,0 -17.25,2.4 -24.95,7.5 -175.71,114.8 -343.33,42 -350.43,38.9 -22.94,-10.4 -49.98,-0.1 -60.38,22.9 -10.38,22.9 -0.34,49.9 22.53,60.3 8.87,4.1 219.29,97.5 438.26,-45.6 21.13,-13.8 27.07,-42.1 13.26,-63.3 -8.75,-13.4 -23.39,-20.7 -38.29,-20.7"
         style="fill:#000000;fill-opacity:1;fill-rule:nonzero;stroke:none"
         transform="matrix(0.13333333,0,0,-0.13333333,0,2437.3333)" />
      <path
         id="path20"
         d="m 9427.26,13456.6 c -10.47,0 -20.98,3.5 -29.55,10.8 -4.49,3.7 -99.95,80.8 -259.27,37.4 -24.46,-6.6 -49.49,7.8 -56.1,32.1 -6.63,24.4 7.74,49.5 32.09,56.1 208.3,56.8 337.24,-51.4 342.66,-56.1 19.12,-16.5 21.29,-45.3 4.82,-64.5 -9.04,-10.5 -21.8,-15.8 -34.65,-15.8"
         style="fill:#000000;fill-opacity:1;fill-rule:nonzero;stroke:none"
         transform="matrix(0.13333333,0,0,-0.13333333,0,2437.3333)" />
      <path
         id="path21"
         d="m 8314.65,13170.2 c 15.83,75.6 -21.51,147.2 -83.34,159.9 -61.88,12.7 -124.87,-38.1 -140.71,-113.7 -15.82,-75.5 21.55,-147.1 83.34,-159.9 61.88,-12.8 124.92,38.2 140.71,113.7"
         style="fill:#000000;fill-opacity:1;fill-rule:evenodd;stroke:none"
         transform="matrix(0.13333333,0,0,-0.13333333,0,2437.3333)" />
      <path
         id="path22"
         d="m 9194.11,12995.8 c 15.8,75.5 -21.58,147.1 -83.36,159.9 -61.88,12.7 -124.9,-38.1 -140.7,-113.7 -15.82,-75.6 21.51,-147.1 83.35,-159.9 61.87,-12.8 124.85,38.1 140.71,113.7"
         style="fill:#000000;fill-opacity:1;fill-rule:evenodd;stroke:none"
         transform="matrix(0.13333333,0,0,-0.13333333,0,2437.3333)" />
      <path
         id="path23"
         d="m 7555.27,11982.4 c 0,0 209.25,-163.7 434.51,-302.4 225.24,-138.6 436.89,-211.9 436.89,-211.9 l -52.19,-153.8 c 0,0 -239.79,41 -450.64,233.1 -210.83,192.1 -368.57,435 -368.57,435"
         style="fill:#000000;fill-opacity:1;fill-rule:nonzero;stroke:none"
         transform="matrix(0.13333333,0,0,-0.13333333,0,2437.3333)" />
      <path
         id="path24"
         d="m 8138.91,12379.6 c 0,0 -5.36,-367 290.04,-437.5 295.4,-70.4 433.93,293.5 433.93,293.5 0,0 -157.86,9.5 -338.87,45.5 -180.97,36 -385.1,98.5 -385.1,98.5"
         style="fill:#ffffff;fill-opacity:1;fill-rule:evenodd;stroke:none"
         transform="matrix(0.13333333,0,0,-0.13333333,0,2437.3333)" />
      <path
         id="path25"
         d="m 8188.8,12317.3 c 12.43,-98.9 61.12,-285.5 250.75,-330.7 188.71,-44.9 305.13,118.1 354.04,208.9 -63.64,6.2 -166.22,18.4 -278.48,40.8 -121.42,24.1 -251.31,59.5 -326.31,81 z m 313.56,-429.8 c -26.84,0 -54.82,3.2 -84.01,10.2 -261.84,62.4 -327.2,343 -325.17,482.6 0.23,14.4 7.17,27.8 18.79,36.3 11.67,8.4 26.58,10.9 40.31,6.7 2,-0.6 204.13,-62.3 380.65,-97.4 175.91,-34.9 331.15,-44.6 332.69,-44.7 14.53,-0.8 27.76,-8.6 35.64,-20.8 7.9,-12.2 9.5,-27.4 4.33,-41 -47.02,-123.6 -186.68,-331.9 -403.23,-331.9"
         style="fill:#000000;fill-opacity:1;fill-rule:nonzero;stroke:none"
         transform="matrix(0.13333333,0,0,-0.13333333,0,2437.3333)" />
      <path
         id="path26"
         d="m 8399.83,11428.8 c -11.87,0 -23.7,0.6 -35.44,1.9 -259.4,28.8 -596.48,261.3 -815.45,478.8 -156.14,155 -243.97,394.4 -247.65,404.5 -8.59,23.8 3.68,49.9 27.4,58.5 23.63,8.5 49.94,-3.6 58.53,-27.3 0.85,-2.3 84.78,-230.5 226.11,-370.9 245.73,-244 558.74,-430.2 761.17,-452.8 136.1,-15.3 342.42,104.5 539.61,312.1 177.82,187.2 346.3,461.1 391.87,637.1 24.67,95.2 33.09,156.4 41.99,221.2 7.61,55.2 15.46,112.4 33.58,193 22.92,102.2 50.97,174.5 75.72,238.3 15.53,40.1 30.19,77.9 42.55,119.9 34.43,116.9 139.2,472.7 9.24,755 -10.55,23 -0.53,50.1 22.4,60.7 22.9,10.5 50.08,0.4 60.61,-22.4 144.31,-313.5 32.27,-694.1 -4.56,-819.1 -13.45,-45.7 -28.78,-85.2 -45.02,-127.1 -24.75,-63.8 -50.32,-129.8 -71.77,-225.4 -17.27,-76.8 -24.86,-132 -32.19,-185.4 -8.89,-64.5 -18.06,-131.2 -44.06,-231.6 -49.78,-192.2 -223.92,-477 -414.08,-677.2 -100.38,-105.6 -350.61,-341.8 -580.56,-341.8"
         style="fill:#000000;fill-opacity:1;fill-rule:nonzero;stroke:none"
         transform="matrix(0.13333333,0,0,-0.13333333,0,2437.3333)" />
      <path
         id="path27"
         d="m 13630.2,5781.1 c -20.9,0 -39.8,14.5 -44.5,35.8 -5.5,24.6 10,49 34.7,54.5 87.5,19.6 183.1,35.8 275.6,51.5 174.3,29.5 339,57.5 429.7,102.5 183.8,91.2 345.1,183.2 474.8,257 105.2,60 181.2,103.3 225.6,121 121,48.3 414.1,20.2 486.8,-5.5 24.7,-8.8 60,-30.4 104.7,-57.8 55.9,-34.3 225.9,-138.7 258.7,-107.5 4.2,4 5,16.2 2.1,31.1 -18.4,92.6 -165.5,269.5 -363.4,347.1 -115.2,45.2 -424.8,50.7 -534.8,48.9 -26.9,0.8 -46,19.8 -46.4,45 -0.4,25.3 19.8,46 45,46.4 16.8,0.3 413.9,5.8 569.5,-55.2 219,-85.8 393.8,-283.6 419.7,-414.5 12.1,-60.7 -8.7,-95.9 -28.4,-114.7 -83.4,-80.3 -242.2,17.2 -369.8,95.5 -35.3,21.6 -71.7,44 -87.4,49.5 -59.9,21.2 -329.2,43.9 -422.5,6.8 -38.4,-15.3 -116,-59.6 -214.2,-115.5 -123.8,-70.5 -293.2,-167.1 -479.3,-259.5 -102.8,-51 -273.9,-80 -455.1,-110.8 -91.4,-15.5 -185.8,-31.5 -271.1,-50.4 -3.3,-0.8 -6.7,-1.2 -10,-1.2"
         style="fill:#000000;fill-opacity:1;fill-rule:nonzero;stroke:none"
         transform="matrix(0.13333333,0,0,-0.13333333,0,2437.3333)" />
      <path
         id="path28"
         d="m 6856.79,13235.3 c -18.35,0 -35.66,11.1 -42.65,29.3 -5.84,15.2 -142.61,376.7 -100.19,836.3 2.3,25.2 24.43,43.7 49.69,41.4 25.13,-2.4 43.63,-24.6 41.31,-49.7 -40.46,-438.6 93.12,-791.7 94.48,-795.2 9.08,-23.5 -2.66,-50 -26.22,-59 -5.4,-2.1 -10.96,-3.1 -16.42,-3.1"
         style="fill:#000000;fill-opacity:1;fill-rule:nonzero;stroke:none"
         transform="matrix(0.13333333,0,0,-0.13333333,0,2437.3333)" />
      <path
         id="path29"
         d="m 6781.25,14289.2 c -23.7,0 -43.74,18.3 -45.52,42.3 -31.02,417.3 250.39,722.6 530.91,798.1 24.39,6.5 49.44,-7.9 56.01,-32.3 6.53,-24.4 -7.9,-49.4 -32.27,-56 -245.13,-65.9 -490.9,-334.7 -463.52,-703 1.88,-25.2 -17,-47.1 -42.17,-49 -1.16,-0.1 -2.3,-0.1 -3.44,-0.1"
         style="fill:#000000;fill-opacity:1;fill-rule:nonzero;stroke:none"
         transform="matrix(0.13333333,0,0,-0.13333333,0,2437.3333)" />
      <path
         id="path30"
         d="m 9948.3,14608.9 c -2.99,0 -6.01,0.2 -9.04,0.8 -152.7,30.7 -265.3,140 -374.19,245.7 -72.06,69.9 -146.54,142.2 -232.94,193 l -26.29,15.5 c -133.71,79.3 -271.99,161.2 -543.85,184.9 -25.14,2.2 -43.76,24.3 -41.57,49.5 2.17,25.1 24.37,44.1 49.47,41.5 292.66,-25.4 446.67,-116.7 582.54,-197.2 l 26.05,-15.4 c 95.84,-56.4 174.34,-132.6 250.23,-206.2 103.99,-101 202.21,-196.3 328.54,-221.6 24.74,-5 40.79,-29.1 35.81,-53.8 -4.35,-21.8 -23.43,-36.7 -44.76,-36.7"
         style="fill:#000000;fill-opacity:1;fill-rule:nonzero;stroke:none"
         transform="matrix(0.13333333,0,0,-0.13333333,0,2437.3333)" />
      <path
         id="path31"
         d="m 7434.48,15082.8 c -7.94,0 -15.97,2.1 -23.29,6.4 -21.71,12.9 -28.83,41 -15.96,62.7 117.62,197.9 385.51,276.9 579.17,284.3 87.88,3.5 175.6,-3.9 260.48,-11 149.15,-12.4 290.09,-24.1 417.97,21 23.83,8.4 49.92,-4.1 58.29,-27.9 8.41,-23.8 -4.08,-49.9 -27.89,-58.3 -146.34,-51.6 -303.73,-38.5 -455.96,-25.8 -82.13,6.8 -167.11,13.8 -249.36,10.7 -184.25,-7.1 -411.59,-84 -504.11,-239.7 -8.54,-14.4 -23.74,-22.4 -39.34,-22.4"
         style="fill:#000000;fill-opacity:1;fill-rule:nonzero;stroke:none"
         transform="matrix(0.13333333,0,0,-0.13333333,0,2437.3333)" />
      <path
         id="path32"
         d="m 5749.38,9401.9 c -1.46,0 -2.96,0.07 -4.46,0.23 -25.13,2.43 -43.51,24.77 -41.06,49.89 104.62,1075.98 427.44,1547.18 686.82,1925.78 44.88,65.5 87.27,127.4 127.1,190 97.99,154.1 172.87,323.7 228.95,518.6 7.05,24.5 25.84,42.6 51.55,49.6 183.96,50.6 1103.42,-599.1 1656.85,-1120.2 45.83,-43.2 39.4,-120 30.5,-226.3 -5.69,-67.8 -12.14,-144.7 -5.69,-223.7 5.31,-65 50.29,-144.5 107.22,-245.1 57.01,-100.8 127.97,-226.2 188.69,-388.51 8.84,-23.66 -3.14,-49.99 -26.78,-58.83 -23.56,-8.9 -49.98,3.1 -58.82,26.78 -58.19,155.56 -127.19,277.56 -182.64,375.56 -62.46,110.4 -111.82,197.6 -118.76,282.7 -7.07,86.4 0,170.9 5.69,238.7 4.64,55.3 11.63,138.9 -2.07,152.1 -606.11,570.8 -1419.6,1103.8 -1561.46,1099.7 -58.13,-198.3 -135.42,-371.8 -236.11,-530.1 -40.65,-64 -83.47,-126.5 -128.82,-192.7 -253.47,-369.9 -568.91,-830.4 -671.26,-1882.91 -2.3,-23.63 -22.18,-41.29 -45.44,-41.29"
         style="fill:#000000;fill-opacity:1;fill-rule:nonzero;stroke:none"
         transform="matrix(0.13333333,0,0,-0.13333333,0,2437.3333)" />
      <path
         id="path33"
         d="m 6996.92,12016.9 c -6.98,0 -14.08,1.6 -20.73,5 -22.47,11.4 -31.4,39 -19.97,61.4 1.14,2.2 112.89,224.7 163.1,566.1 3.65,25 27.02,42.3 51.85,38.6 24.97,-3.7 42.24,-26.9 38.56,-51.9 -52.55,-357.3 -167.22,-584.8 -172.08,-594.3 -8.08,-15.8 -24.11,-24.9 -40.73,-24.9"
         style="fill:#000000;fill-opacity:1;fill-rule:nonzero;stroke:none"
         transform="matrix(0.13333333,0,0,-0.13333333,0,2437.3333)" />
      <path
         id="path34"
         d="m 8171.02,10513.7 c -7.99,0 -16.07,2.1 -23.43,6.5 -21.65,12.9 -28.7,41 -15.73,62.7 11.71,19.6 28.15,56.8 45.54,96.2 59.36,134.4 133.24,301.8 237.04,318 24.93,3.9 48.34,-13.1 52.24,-38 3.93,-24.9 -13.12,-48.3 -38.04,-52.2 -54.54,-8.6 -130.92,-181.6 -167.63,-264.8 -19.37,-43.8 -36.1,-81.7 -50.74,-106.2 -8.55,-14.3 -23.7,-22.2 -39.25,-22.2"
         style="fill:#000000;fill-opacity:1;fill-rule:nonzero;stroke:none"
         transform="matrix(0.13333333,0,0,-0.13333333,0,2437.3333)" />
      <path
         id="path35"
         d="m 7689.32,10903.5 c -10.34,0 -20.74,3.4 -29.31,10.6 -274.84,229.8 -674.07,541.6 -1015.12,722.6 -22.29,11.8 -30.77,39.5 -18.95,61.8 11.8,22.2 39.43,30.8 61.79,18.9 348.02,-184.6 752.71,-500.6 1030.93,-733.2 19.35,-16.1 21.94,-45 5.73,-64.4 -9.03,-10.7 -22,-16.3 -35.07,-16.3"
         style="fill:#000000;fill-opacity:1;fill-rule:nonzero;stroke:none"
         transform="matrix(0.13333333,0,0,-0.13333333,0,2437.3333)" />
      <path
         id="path36"
         d="m 10563.7,5072.3 c -502.2,0 -738.93,92.8 -894.74,209 -870.6,649.6 -1673.92,1657.2 -2205.49,2324.1 -187.35,235 -349.15,437.9 -472.01,573.5 -16.94,18.8 -15.52,47.6 3.18,64.6 18.72,16.9 47.6,15.5 64.56,-3.2 124.78,-137.7 287.41,-341.7 475.74,-578 528.65,-663.1 1327.56,-1665.2 2188.69,-2307.7 299.37,-223.4 986.17,-366.8 3808.07,263.5 59.2,65.7 -1.6,659.8 -137.3,944.1 -40.3,84.4 -69.8,99.9 -77.3,99.5 -455.5,-63.4 -1750.9,-160.7 -2681.1,-99.2 -79.3,5.3 -87.5,96.2 -93.6,162.6 -3,33.2 -7.5,83.4 -19.7,95.7 -37.8,38.6 -78.3,60.2 -113.9,79.3 -41,22 -79.8,42.7 -94.8,83.6 -24.7,66.7 -108.5,185.9 -235.3,366.3 -271.25,386 -776.2,1104.41 -1371.69,2296.74 -400.36,801.66 -820.61,1078.86 -900.79,1126.26 -29.45,17.4 -28.5,40.9 -25.3,53.3 l 44.27,-11.3 24.95,38.2 c 120.67,-71.4 537.15,-361.7 938.63,-1165.63 C 9381.2,8501.41 9864.66,7813.5 10153.5,7402.6 c 135.6,-192.9 217.4,-309.3 246.2,-387.2 3.1,-8.4 31.5,-23.6 52.2,-34.7 37.3,-20 88.4,-47.4 136,-95.8 35,-35.6 40.4,-94.5 45.6,-151.5 2.3,-25.2 6,-66.2 13.2,-80 923.3,-60.5 2206.2,36 2657.8,98.8 171.2,23.9 267.9,-409.8 301.8,-597.2 32.2,-177.4 91.5,-593.5 -51.1,-625.3 -1514.9,-338.5 -2423.1,-457.4 -2991.5,-457.4"
         style="fill:#000000;fill-opacity:1;fill-rule:nonzero;stroke:none"
         transform="matrix(0.13333333,0,0,-0.13333333,0,2437.3333)" />
      <path
         id="path37"
         d="m 6813.47,7993.3 c -10.31,0 -20.68,3.5 -29.23,10.6 -336.77,280.65 -328.38,1236.09 -158.59,1718.69 8.39,23.78 34.55,36.33 58.29,27.93 23.81,-8.36 36.3,-34.47 27.94,-58.28 -158.37,-450.15 -162.77,-1373.41 130.87,-1618.04 19.39,-16.2 22,-45 5.84,-64.4 -9.03,-10.9 -22.02,-16.5 -35.12,-16.5"
         style="fill:#000000;fill-opacity:1;fill-rule:nonzero;stroke:none"
         transform="matrix(0.13333333,0,0,-0.13333333,0,2437.3333)" />
      <path
         id="path38"
         d="m 9642.97,13570.2 c -18.52,0 -35.97,11.4 -42.82,29.8 -8.82,23.6 3.21,49.9 26.84,58.8 159.44,59.4 265.03,166.3 305.33,309 44.34,157 4.49,340.7 -104.03,479.6 -15.53,19.9 -12.01,48.6 7.88,64.1 19.86,15.6 48.62,12 64.15,-7.8 126.08,-161.4 172.08,-376.3 119.98,-560.7 -33.87,-119.9 -124.04,-281.4 -361.35,-369.9 -5.27,-1.9 -10.67,-2.9 -15.98,-2.9"
         style="fill:#000000;fill-opacity:1;fill-rule:nonzero;stroke:none"
         transform="matrix(0.13333333,0,0,-0.13333333,0,2437.3333)" />
      <path
         id="path39"
         d="m 7678.83,13735.2 c -90.18,0 -184.94,19.4 -279.76,66.2 -22.65,11.1 -31.95,38.5 -20.79,61.2 11.17,22.6 38.6,31.9 61.18,20.8 234.04,-115.3 468.74,-36.4 610.39,76 79.24,62.9 140.76,140 200.27,214.7 124.85,156.5 242.76,304.5 480.9,252 24.66,-5.4 40.23,-29.8 34.81,-54.4 -5.38,-24.7 -29.83,-40.4 -54.44,-34.9 -182.41,40.3 -269.45,-68.9 -389.82,-219.7 -59.75,-75 -127.5,-159.9 -214.91,-229.3 -106.59,-84.6 -259.14,-152.6 -427.83,-152.6"
         style="fill:#000000;fill-opacity:1;fill-rule:nonzero;stroke:none"
         transform="matrix(0.13333333,0,0,-0.13333333,0,2437.3333)" />
      <path
         id="path40"
         d="m 7555.76,13394.9 c -57.75,0 -115.07,21 -167.8,61.7 -19.97,15.5 -23.63,44.2 -8.19,64.2 15.44,19.9 44.18,23.5 64.11,8.1 44.72,-34.5 90.55,-48.1 136.38,-40.6 57.46,9.6 102.94,51.1 126.35,86.7 13.83,21 42.19,26.9 63.28,13.1 21.09,-13.9 26.96,-42.2 13.08,-63.3 -44.05,-67 -114.21,-114.4 -187.67,-126.6 -13.16,-2.2 -26.37,-3.3 -39.54,-3.3"
         style="fill:#000000;fill-opacity:1;fill-rule:nonzero;stroke:none"
         transform="matrix(0.13333333,0,0,-0.13333333,0,2437.3333)" />
      <path
         id="path41"
         d="m 9354.46,14140.5 c -18.42,0 -35.79,11.3 -42.71,29.5 -8.97,23.6 2.88,50 26.49,58.9 42.94,16.4 97.25,68.4 120.81,165.7 5.98,24.5 30.57,39.5 55.19,33.6 24.52,-5.9 39.58,-30.6 33.63,-55.2 -26.72,-110.2 -94.6,-198.1 -177.18,-229.5 -5.34,-2 -10.83,-3 -16.23,-3"
         style="fill:#000000;fill-opacity:1;fill-rule:nonzero;stroke:none"
         transform="matrix(0.13333333,0,0,-0.13333333,0,2437.3333)" />
      <path
         id="path42"
         d="m 9052.46,14237.5 c -0.2,0 -0.4,0 -0.6,0 -25.24,0.3 -45.43,21 -45.12,46.3 1.14,90.3 -27.27,173.5 -75.98,222.5 -36.44,36.6 -82.92,54 -141.28,54.6 -0.1,0 -0.22,0 -0.31,0 -25.1,0 -45.52,20.3 -45.7,45.4 -0.17,25.2 20.15,45.8 45.39,46 0.78,0 1.56,0 2.32,0 80.67,0 151.29,-28.2 204.4,-81.6 66.63,-67 104.01,-172 102.56,-288.1 -0.31,-25 -20.71,-45.1 -45.68,-45.1"
         style="fill:#000000;fill-opacity:1;fill-rule:nonzero;stroke:none"
         transform="matrix(0.13333333,0,0,-0.13333333,0,2437.3333)" />
      <path
         id="path43"
         d="m 15733.9,6485.7 c -13.8,0 -27.4,6.2 -36.4,18 -20.4,26.8 -39.8,61.8 -62.3,102.3 -54.3,97.8 -121.8,219.7 -224.6,252.3 -195.4,61.9 -529.9,62.7 -533.3,62.7 -25.2,0 -45.7,20.5 -45.7,45.7 0,25.3 20.5,45.7 45.7,45.7 v 0 c 14.3,0 352,-0.8 560.9,-67 137.5,-43.6 218.1,-188.9 276.9,-295.1 19.9,-35.8 38.7,-69.7 55.1,-91.2 15.3,-20.1 11.5,-48.7 -8.6,-64 -8.3,-6.4 -18,-9.4 -27.7,-9.4"
         style="fill:#000000;fill-opacity:1;fill-rule:nonzero;stroke:none"
         transform="matrix(0.13333333,0,0,-0.13333333,0,2437.3333)" />
      <path
         id="path44"
         d="m 15481.4,6857.1 c -19,0 -36.6,11.8 -43.2,30.7 -88.7,254.8 -309.1,262.3 -709.4,275.9 -25.2,0.9 -45,22 -44.1,47.2 0.8,25.2 22.7,46 47.2,44.1 411.5,-14 683.4,-23.2 792.6,-337.2 8.3,-23.8 -4.3,-49.9 -28.1,-58.2 -5,-1.7 -10,-2.5 -15,-2.5"
         style="fill:#000000;fill-opacity:1;fill-rule:nonzero;stroke:none"
         transform="matrix(0.13333333,0,0,-0.13333333,0,2437.3333)" />
      <path
         id="path45"
         d="m 13469.3,6560.4 c -22.5,0 -42,16.6 -45.2,39.5 -3.5,25 14,48 38.9,51.5 23.6,3.3 95.3,13.3 117.3,25.5 146.7,81.6 426.4,289.4 696.8,490.5 350,260.1 568.3,420.4 641.9,438.4 281.8,69.1 430,-437.1 436.2,-458.7 6.9,-24.3 -7.1,-49.5 -31.3,-56.5 -24.3,-7 -49.6,7 -56.6,31.2 -1.2,4.5 -133.4,441.8 -326.6,395.2 -59.4,-14.5 -351.4,-231.5 -609,-423 -272.9,-202.8 -555,-412.5 -706.9,-496.9 -30.6,-17.1 -81.8,-26.8 -149.2,-36.2 -2.1,-0.3 -4.2,-0.5 -6.3,-0.5"
         style="fill:#000000;fill-opacity:1;fill-rule:nonzero;stroke:none"
         transform="matrix(0.13333333,0,0,-0.13333333,0,2437.3333)" />
      <path
         id="path46"
         d="m 14913.1,7171.9 c -14.2,0 -28.3,6.6 -37.2,19.1 -14.7,20.5 -10,49.1 10.6,63.7 38,27.2 86.4,64.6 86.6,64.8 l 55.9,-72.4 c 0,0 -50.1,-38.6 -89.3,-66.7 -8.1,-5.8 -17.4,-8.5 -26.6,-8.5"
         style="fill:#000000;fill-opacity:1;fill-rule:nonzero;stroke:none"
         transform="matrix(0.13333333,0,0,-0.13333333,0,2437.3333)" />
      <path
         id="path47"
         d="m 8320.39,11079.7 c -3.26,0 -6.56,0.4 -9.89,1.1 -24.61,5.5 -40.16,29.8 -34.78,54.4 1.07,4.8 27.11,120.5 139.75,351.8 11.02,22.7 38.25,32.2 61.1,21.1 22.69,-11.1 32.11,-38.4 21.06,-61.1 -107,-219.7 -132.39,-330.4 -132.63,-331.5 -4.78,-21.3 -23.66,-35.8 -44.61,-35.8"
         style="fill:#000000;fill-opacity:1;fill-rule:nonzero;stroke:none"
         transform="matrix(0.13333333,0,0,-0.13333333,0,2437.3333)" />
      <path
         id="path48"
         d="m 8657.61,10332.9 c -22.47,0 -42.07,16.6 -45.21,39.5 -32.11,233.4 67.48,345.6 133.37,419.9 44.27,49.9 55.21,66.5 47.76,87.6 -28.19,80.3 -261.55,275.7 -402.02,380.1 -20.26,15.1 -24.48,43.7 -9.44,64 15.08,20.2 43.69,24.4 63.93,9.4 39.49,-29.3 387.11,-290.4 433.75,-423.1 26.33,-75 -20.4,-127.7 -65.61,-178.6 -61.29,-69.1 -137.57,-155.1 -111.19,-346.8 3.44,-25 -14.03,-48.1 -39.05,-51.5 -2.1,-0.3 -4.22,-0.5 -6.29,-0.5"
         style="fill:#000000;fill-opacity:1;fill-rule:nonzero;stroke:none"
         transform="matrix(0.13333333,0,0,-0.13333333,0,2437.3333)" />
      <path
         id="path49"
         d="m 9881.8,7668.2 c -18.66,0 -36.17,11.5 -42.93,30 -85.89,235.6 -169.12,483.9 -257.27,746.7 -153.88,458.92 -312.98,933.48 -488.7,1340.5 -80.49,186.48 -190.88,373.4 -297.61,554.1 -54.23,91.8 -105.44,178.5 -149.82,260.4 -12.01,22.2 -3.78,49.9 18.43,62 22.2,12.1 49.92,3.7 61.94,-18.5 43.58,-80.4 94.37,-166.4 148.15,-257.5 108.18,-183.1 220.04,-372.5 302.81,-564.26 177.24,-410.57 336.99,-886.97 491.47,-1347.68 87.95,-262.26 171,-509.96 256.46,-744.36 8.66,-23.8 -3.57,-50 -27.29,-58.6 -5.15,-1.9 -10.44,-2.8 -15.64,-2.8"
         style="fill:#000000;fill-opacity:1;fill-rule:nonzero;stroke:none"
         transform="matrix(0.13333333,0,0,-0.13333333,0,2437.3333)" />
      <path
         id="path50"
         d="m 8314.19,2028.7 c -17.14,0 -33.58,9.7 -41.37,26.2 -10.76,22.9 -0.94,50.1 21.89,60.9 298.23,140.3 642.45,530.1 975.36,907.1 188.2,213 382.78,433.4 565.63,603.7 268.9,250.6 540.3,355.4 686,411.6 34.4,13.3 72.6,28.1 89.4,37.4 6.3,184.6 -67.6,353.8 -127.2,490.4 -16.2,37.2 -31.4,72 -43.7,104.1 -61.9,160.7 -83.7,271 -109.8,421 -4.3,24.9 12.3,48.6 37.2,52.9 25.1,4.1 48.5,-12.3 52.8,-37.2 25.2,-144.6 46.2,-251 105,-403.9 12,-30.9 26.6,-64.4 42.3,-100.3 65,-149 146,-334.5 134,-546.5 -2.7,-47.4 -48,-64.9 -147.1,-103.1 -140,-54 -400.6,-154.7 -656.6,-393.2 -179.56,-167.4 -372.67,-386 -559.43,-597.5 -339.04,-383.9 -689.62,-780.8 -1004.95,-929.3 -6.29,-2.9 -12.92,-4.3 -19.43,-4.3"
         style="fill:#000000;fill-opacity:1;fill-rule:nonzero;stroke:none"
         transform="matrix(0.13333333,0,0,-0.13333333,0,2437.3333)" />
      <path
         id="path51"
         d="m 10085.8,6231.2 c -5.7,0 -11.5,1.1 -17.1,3.4 -23.4,9.4 -34.7,36.1 -25.2,59.5 90.2,222.4 269.6,354.6 277.2,360.1 20.3,14.8 48.9,10.4 63.7,-10 14.9,-20.4 10.4,-49 -10,-63.9 -1.6,-1.2 -166.2,-123.1 -246.2,-320.6 -7.2,-17.7 -24.3,-28.5 -42.4,-28.5"
         style="fill:#000000;fill-opacity:1;fill-rule:nonzero;stroke:none"
         transform="matrix(0.13333333,0,0,-0.13333333,0,2437.3333)" />
      <path
         id="path52"
         d="m 15308,1932.3 c -22.7,0 -42.4,17 -45.3,40.1 -7.8,63.4 -17.6,117.8 -28.9,161.8 -103.7,402.4 -429.5,692.5 -562.3,763.1 -1120.4,595.6 -3231.5,943.7 -4087.2,1065.7 -24.9,3.5 -42.3,26.7 -38.8,51.7 3.6,24.9 26.8,42.5 51.7,38.8 860.4,-122.7 2984,-473.1 4117.3,-1075.6 149.8,-79.6 495.6,-385 607.9,-820.9 12.2,-47.8 22.7,-106.1 31,-173.3 3.1,-25.1 -14.7,-47.9 -39.7,-51 -1.9,-0.3 -3.8,-0.4 -5.7,-0.4"
         style="fill:#000000;fill-opacity:1;fill-rule:nonzero;stroke:none"
         transform="matrix(0.13333333,0,0,-0.13333333,0,2437.3333)" />
      <path
         id="path53"
         d="m 7783.17,2085.8 c -21.51,0 -40.68,15.2 -44.85,37.1 -606.55,3183.9 -1154.17,5482.4 -1674.15,7026.85 -47.1,139.84 -397.08,296.78 -870.9,390.53 -472.49,93.47 -826.89,80.06 -884.26,14.01 -3.64,-4.17 -5.91,-7.97 -2.16,-18.74 C 5006.94,7525.6 5810.86,4543.8 6218.41,2445.5 c 4.82,-24.7 -11.35,-48.7 -36.14,-53.5 -24.77,-4.8 -48.76,11.4 -53.56,36.1 -406.84,2094.6 -1209.33,5071 -1908.18,7077.37 -13.86,39.76 -6.94,78.39 19.48,108.76 121.66,139.95 667.59,75.71 970.97,15.71 198.04,-39.19 851.05,-187.47 939.82,-451.02 C 6672.11,7630.5 7220.76,5328.1 7828.11,2140 c 4.71,-24.8 -11.56,-48.7 -36.35,-53.4 -2.88,-0.6 -5.75,-0.8 -8.59,-0.8"
         style="fill:#000000;fill-opacity:1;fill-rule:nonzero;stroke:none"
         transform="matrix(0.13333333,0,0,-0.13333333,0,2437.3333)" />
      <path
         id="path54"
         d="m 13817.1,6751 c -11.3,0 -22.6,4.2 -31.5,12.6 -57,54.2 -245.9,51.9 -371.2,50.5 -61.9,-0.7 -115.3,-1.3 -153.3,3.2 -25.1,3 -43,25.8 -39.9,50.9 3,25 25.6,42.9 50.8,39.9 32,-3.9 85.1,-3.2 141.3,-2.6 156.6,1.9 351.4,4.1 435.3,-75.7 18.3,-17.3 19,-46.3 1.6,-64.6 -8.9,-9.4 -21,-14.2 -33.1,-14.2"
         style="fill:#000000;fill-opacity:1;fill-rule:nonzero;stroke:none"
         transform="matrix(0.13333333,0,0,-0.13333333,0,2437.3333)" />
      <path
         id="path55"
         d="m 12257.2,6899.4 c -25.2,0 -45.6,20.4 -45.7,45.6 0,25.3 20.5,45.8 45.7,45.8 72.9,0 192.1,9.6 269.8,27.3 138.4,31.5 285,77 426.7,121 282.4,87.6 549.2,170.3 729.3,136.8 160,-29.7 387.1,-244.4 396.7,-253.5 18.2,-17.4 19,-46.3 1.6,-64.6 -17.4,-18.4 -46.4,-18.9 -64.6,-1.6 -59.9,56.9 -239.7,209.3 -350.5,229.9 -157.9,29.4 -414.1,-50.2 -685.4,-134.3 -143.4,-44.5 -291.7,-90.5 -433.5,-122.8 -85.1,-19.4 -210.3,-29.6 -290,-29.6 h -0.1"
         style="fill:#000000;fill-opacity:1;fill-rule:nonzero;stroke:none"
         transform="matrix(0.13333333,0,0,-0.13333333,0,2437.3333)" />
      <path
         id="path56"
         d="m 12234.3,6586.3 c -3.5,0 -7.1,0.4 -10.7,1.3 -24.5,5.8 -39.7,30.5 -33.8,55.1 31.3,130.8 3.5,311.2 -20.9,357.8 -775.4,-112.1 -1245.9,-51.5 -1590.2,-7.3 -91.7,11.8 -178.3,23 -258.3,29.2 -25.2,1.9 -44,23.9 -42.1,49 2,25.2 24.3,43.7 49.2,42.1 82.3,-6.4 170,-17.7 262.9,-29.6 341.4,-43.9 809,-104 1581.8,9.4 12.5,1.8 36.5,1.3 58.7,-23 57.5,-62.8 82.9,-301.9 47.8,-448.9 -5,-21 -23.7,-35.1 -44.4,-35.1"
         style="fill:#000000;fill-opacity:1;fill-rule:nonzero;stroke:none"
         transform="matrix(0.13333333,0,0,-0.13333333,0,2437.3333)" />
      <path
         id="path57"
         d="m 13395.1,6821.1 c -18.5,0 -36,11.4 -42.8,29.8 -8.8,23.7 3.3,49.9 26.9,58.7 82.1,30.5 227.5,79.3 278.5,66.2 24.4,-6.3 39,-31.3 32.7,-55.7 -6.3,-24 -30.7,-38.4 -54.6,-33 -26.1,3 -136.8,-30.5 -224.8,-63.2 -5.2,-1.9 -10.6,-2.8 -15.9,-2.8"
         style="fill:#000000;fill-opacity:1;fill-rule:nonzero;stroke:none"
         transform="matrix(0.13333333,0,0,-0.13333333,0,2437.3333)" />
      <path
         id="path58"
         d="m 17291.2,9044 c -1.6,0 -3.3,0.09 -4.9,0.27 l -6557.2,711.68 c -121.7,15.71 -199.7,124.6 -199.7,277.55 l 4.5,4761.8 c 0.1,72.4 28.8,140.1 80.8,190.5 52.1,50.4 120.2,76.8 193,74.6 l 7458.6,-232.5 c 144.6,-4.5 257.6,-121.4 257.3,-266 l -5.1,-2614.5 c 0,-25.2 -20.5,-45.6 -45.7,-45.6 0,0 0,0 -0.1,0 -25.2,0.1 -45.6,20.6 -45.6,45.8 l 5.1,2614.5 c 0.2,94.8 -73.9,171.5 -168.7,174.4 l -7458.6,232.6 c -48,1.4 -92.4,-15.9 -126.6,-49 -34.1,-33 -53,-77.4 -53,-124.9 l -4.5,-4761.8 c 0,-82.78 31.3,-175.34 119.1,-186.7 l 6556.2,-711.56 c 25.1,-2.73 43.2,-25.26 40.5,-50.35 -2.6,-23.43 -22.4,-40.79 -45.4,-40.79"
         style="fill:#000000;fill-opacity:1;fill-rule:nonzero;stroke:none"
         transform="matrix(0.13333333,0,0,-0.13333333,0,2437.3333)" />
      <path
         id="path59"
         d="m 10737.3,10809.4 v 0 c -25.2,0 -45.7,20.5 -45.7,45.7 l 0.9,3888.8 c 0,36.6 14.4,70.7 40.7,96.1 26.2,25.5 60.8,39 97.3,37.7 l 7390.4,-230.4 c 72.9,-2.3 129.8,-61.2 129.7,-134.1 l -6.3,-3263 c -0.1,-25.3 -20.5,-45.7 -45.7,-45.7 -0.1,0 -0.1,0 -0.1,0 -25.3,0.1 -45.7,20.6 -45.6,45.8 l 6.3,3263.1 c 0,23.1 -18.1,41.8 -41.2,42.5 l -7390.4,230.4 c -11.3,0.6 -22.5,-3.8 -30.8,-11.9 -8.3,-8.1 -12.9,-18.9 -12.9,-30.5 l -0.9,-3888.8 c 0,-25.2 -20.5,-45.7 -45.7,-45.7"
         style="fill:#000000;fill-opacity:1;fill-rule:nonzero;stroke:none"
         transform="matrix(0.13333333,0,0,-0.13333333,0,2437.3333)" />
      <path
         id="path60"
         d="m 12374.5,14492.8 c -0.5,0 -0.9,0 -1.4,0 l -380.3,11.9 c -25.3,0.8 -45.1,21.9 -44.3,47.1 0.8,25.3 22.4,45.1 47.1,44.3 l 380.3,-12 c 25.3,-0.8 45.1,-21.9 44.3,-47.1 -0.8,-24.7 -21.1,-44.2 -45.7,-44.2"
         style="fill:#7d74f9;fill-opacity:1;fill-rule:nonzero;stroke:none"
         transform="matrix(0.13333333,0,0,-0.13333333,0,2437.3333)" />
      <path
         id="path61"
         d="m 11826.8,14509.9 c -0.5,0 -0.9,0 -1.4,0.1 l -394.7,12.4 c -25.2,0.7 -45,21.9 -44.2,47.1 0.8,25.2 21.7,45.7 47.1,44.2 l 394.6,-12.4 c 25.3,-0.7 45.1,-21.9 44.3,-47.1 -0.8,-24.7 -21.1,-44.3 -45.7,-44.3"
         style="fill:#7d74f9;fill-opacity:1;fill-rule:nonzero;stroke:none"
         transform="matrix(0.13333333,0,0,-0.13333333,0,2437.3333)" />
      <path
         id="path62"
         d="m 11283.3,14527 c -0.4,0 -0.9,0 -1.4,0.1 l -273.8,8.5 c -25.3,0.8 -45.1,21.9 -44.3,47.1 0.8,25.3 21.8,45 47.1,44.3 l 273.9,-8.6 c 25.2,-0.8 45,-21.9 44.2,-47.1 -0.8,-24.7 -21.1,-44.3 -45.7,-44.3"
         style="fill:#7d74f9;fill-opacity:1;fill-rule:nonzero;stroke:none"
         transform="matrix(0.13333333,0,0,-0.13333333,0,2437.3333)" />
      <path
         id="path63"
         d="m 12269.8,13549.6 c -0.7,0 -1.5,0 -2.3,0.1 l -633.2,31.6 c -25.2,1.2 -44.6,22.6 -43.3,47.9 1.2,25.2 23.3,44.3 47.9,43.3 l 633.2,-31.6 c 25.2,-1.2 44.6,-22.7 43.3,-47.9 -1.2,-24.4 -21.4,-43.4 -45.6,-43.4"
         style="fill:#5581d5;fill-opacity:1;fill-rule:nonzero;stroke:none"
         transform="matrix(0.13333333,0,0,-0.13333333,0,2437.3333)" />
      <path
         id="path64"
         d="m 11407.4,13592.6 c -0.8,0 -1.5,0 -2.3,0.1 l -422.9,21.1 c -25.2,1.2 -44.6,22.7 -43.3,47.9 1.2,25.2 23.3,44.6 47.9,43.4 l 422.8,-21.2 c 25.2,-1.2 44.7,-22.6 43.4,-47.9 -1.2,-24.4 -21.4,-43.4 -45.6,-43.4"
         style="fill:#5581d5;fill-opacity:1;fill-rule:nonzero;stroke:none"
         transform="matrix(0.13333333,0,0,-0.13333333,0,2437.3333)" />
      <path
         id="path65"
         d="m 14487.4,14188.7 c -0.6,0 -1.1,0 -1.6,0.1 l -551.9,18.1 c -25.3,0.8 -45,22 -44.2,47.2 0.9,25.2 22.2,45.2 47.2,44.2 l 551.9,-18.2 c 25.2,-0.8 45,-21.9 44.2,-47.2 -0.9,-24.7 -21.1,-44.2 -45.6,-44.2"
         style="fill:#6bc255;fill-opacity:1;fill-rule:nonzero;stroke:none"
         transform="matrix(0.13333333,0,0,-0.13333333,0,2437.3333)" />
      <path
         id="path66"
         d="m 13777.4,14212.1 c -0.5,0 -1,0 -1.5,0 l -754.7,24.8 c -25.2,0.9 -45,22 -44.2,47.2 0.9,25.3 22.9,45.1 47.2,44.2 l 754.7,-24.9 c 25.2,-0.8 45,-21.9 44.1,-47.1 -0.8,-24.7 -21,-44.2 -45.6,-44.2"
         style="fill:#6bc255;fill-opacity:1;fill-rule:nonzero;stroke:none"
         transform="matrix(0.13333333,0,0,-0.13333333,0,2437.3333)" />
      <path
         id="path67"
         d="m 12900.4,14240.9 c -0.5,0 -1,0 -1.6,0 l -388.1,12.8 c -25.2,0.8 -45,22 -44.2,47.2 0.9,25.2 22.4,44.6 47.2,44.2 l 388.1,-12.8 c 25.3,-0.8 45,-21.9 44.2,-47.2 -0.8,-24.7 -21.1,-44.2 -45.6,-44.2"
         style="fill:#6bc255;fill-opacity:1;fill-rule:nonzero;stroke:none"
         transform="matrix(0.13333333,0,0,-0.13333333,0,2437.3333)" />
      <path
         id="path68"
         d="m 12348,14259.1 c -0.5,0 -1,0 -1.5,0 l -663.7,21.8 c -25.3,0.9 -45.1,22 -44.2,47.2 0.8,25.3 22.2,44.7 47.1,44.2 l 663.8,-21.8 c 25.2,-0.9 45,-22 44.2,-47.2 -0.9,-24.7 -21.1,-44.2 -45.7,-44.2"
         style="fill:#6bc255;fill-opacity:1;fill-rule:nonzero;stroke:none"
         transform="matrix(0.13333333,0,0,-0.13333333,0,2437.3333)" />
      <path
         id="path69"
         d="m 11524.3,14286.2 c -0.5,0 -1,0 -1.5,0 l -521.9,17.2 c -25.3,0.8 -45,21.9 -44.2,47.1 0.8,25.3 22.1,45.1 47.2,44.2 l 521.9,-17.1 c 25.2,-0.9 45,-22 44.1,-47.2 -0.8,-24.7 -21.1,-44.2 -45.6,-44.2"
         style="fill:#6bc255;fill-opacity:1;fill-rule:nonzero;stroke:none"
         transform="matrix(0.13333333,0,0,-0.13333333,0,2437.3333)" />
      <path
         id="path70"
         d="m 13271.4,13753.1 c -0.6,0 -1.1,0 -1.6,0 l -592.5,20.5 c -25.2,0.9 -44.9,22.1 -44.1,47.3 0.9,25.2 22.2,44.7 47.3,44.1 l 592.4,-20.6 c 25.3,-0.8 45,-22 44.1,-47.2 -0.8,-24.7 -21.1,-44.1 -45.6,-44.1"
         style="fill:#66d6eb;fill-opacity:1;fill-rule:nonzero;stroke:none"
         transform="matrix(0.13333333,0,0,-0.13333333,0,2437.3333)" />
      <path
         id="path71"
         d="m 12496.3,13780 c -0.5,0 -1.1,0 -1.6,0 l -650.3,22.5 c -25.2,0.9 -45,22.1 -44.1,47.3 0.9,25.2 22.4,45.8 47.3,44.1 l 650.3,-22.6 c 25.2,-0.8 44.9,-22 44.1,-47.2 -0.9,-24.7 -21.2,-44.1 -45.7,-44.1"
         style="fill:#66d6eb;fill-opacity:1;fill-rule:nonzero;stroke:none"
         transform="matrix(0.13333333,0,0,-0.13333333,0,2437.3333)" />
      <path
         id="path72"
         d="m 11605.5,13810.9 c -0.6,0 -1.1,0 -1.6,0 l -599.5,20.8 c -25.3,0.9 -45,22.1 -44.1,47.3 0.8,25.2 22.9,45 47.2,44.1 l 599.5,-20.8 c 25.2,-0.9 45,-22.1 44.1,-47.3 -0.9,-24.7 -21.1,-44.1 -45.6,-44.1"
         style="fill:#66d6eb;fill-opacity:1;fill-rule:nonzero;stroke:none"
         transform="matrix(0.13333333,0,0,-0.13333333,0,2437.3333)" />
      <path
         id="path73"
         d="m 13839.6,13963.9 c -0.6,0 -1.2,0 -1.8,0 l -959.4,36.3 c -25.2,1 -44.9,22.2 -44,47.4 1,25.2 22.8,45.5 47.4,44 l 959.5,-36.3 c 25.2,-1 44.9,-22.2 43.9,-47.4 -0.9,-24.7 -21.2,-44 -45.6,-44"
         style="fill:#faaa47;fill-opacity:1;fill-rule:nonzero;stroke:none"
         transform="matrix(0.13333333,0,0,-0.13333333,0,2437.3333)" />
      <path
         id="path74"
         d="m 12726.7,14006 c -0.6,0 -1.2,0 -1.7,0 l -416.5,15.8 c -25.2,0.9 -44.9,22.1 -43.9,47.4 0.9,25.2 22.5,45.1 47.4,43.9 l 416.4,-15.7 c 25.2,-1 44.9,-22.2 43.9,-47.4 -0.9,-24.7 -21.2,-44 -45.6,-44"
         style="fill:#faaa47;fill-opacity:1;fill-rule:nonzero;stroke:none"
         transform="matrix(0.13333333,0,0,-0.13333333,0,2437.3333)" />
      <path
         id="path75"
         d="m 12103.9,14029.5 c -0.5,0 -1.1,0 -1.7,0.1 l -605.9,22.9 c -25.2,1 -44.9,22.2 -43.9,47.4 0.9,25.2 22,45.1 47.4,44 l 605.8,-23 c 25.3,-0.9 44.9,-22.2 44,-47.4 -0.9,-24.6 -21.2,-44 -45.7,-44"
         style="fill:#faaa47;fill-opacity:1;fill-rule:nonzero;stroke:none"
         transform="matrix(0.13333333,0,0,-0.13333333,0,2437.3333)" />
      <path
         id="path76"
         d="m 11325.9,14059 c -0.6,0 -1.2,0 -1.8,0 l -319.9,12.1 c -25.2,1 -44.9,22.2 -43.9,47.4 0.9,25.3 21.1,44.8 47.4,44 l 319.9,-12.1 c 25.2,-1 44.9,-22.2 43.9,-47.5 -0.9,-24.6 -21.2,-43.9 -45.6,-43.9"
         style="fill:#faaa47;fill-opacity:1;fill-rule:nonzero;stroke:none"
         transform="matrix(0.13333333,0,0,-0.13333333,0,2437.3333)" />
      <path
         id="path77"
         d="m 12535.6,13315.6 c -0.7,0 -1.4,0 -2.1,0 l -528.9,24.1 c -25.2,1.1 -44.7,22.5 -43.6,47.7 1.2,25.2 22.7,44.5 47.7,43.6 l 529,-24.1 c 25.2,-1.1 44.7,-22.5 43.5,-47.7 -1.1,-24.5 -21.3,-43.6 -45.6,-43.6"
         style="fill:#ef588b;fill-opacity:1;fill-rule:nonzero;stroke:none"
         transform="matrix(0.13333333,0,0,-0.13333333,0,2437.3333)" />
      <path
         id="path78"
         d="m 11735.3,13351.9 c -0.8,0 -1.4,0 -2.2,0 l -729.2,33.2 c -25.3,1.1 -44.8,22.5 -43.6,47.7 1.1,25.2 22.9,44.4 47.7,43.6 l 729.3,-33.1 c 25.2,-1.2 44.7,-22.6 43.6,-47.8 -1.1,-24.5 -21.4,-43.6 -45.6,-43.6"
         style="fill:#ef588b;fill-opacity:1;fill-rule:nonzero;stroke:none"
         transform="matrix(0.13333333,0,0,-0.13333333,0,2437.3333)" />
      <path
         id="path79"
         d="m 12373.8,12410.9 c -0.8,0 -1.7,0 -2.5,0.1 l -464.3,25.4 c -25.2,1.3 -44.5,22.9 -43.2,48.1 1.4,25.2 23.4,44.8 48.2,43.1 l 464.3,-25.4 c 25.2,-1.3 44.5,-22.9 43.1,-48.1 -1.3,-24.3 -21.5,-43.2 -45.6,-43.2"
         style="fill:#6bc255;fill-opacity:1;fill-rule:nonzero;stroke:none"
         transform="matrix(0.13333333,0,0,-0.13333333,0,2437.3333)" />
      <path
         id="path80"
         d="m 11676.6,12449 c -0.8,0 -1.7,0 -2.5,0.1 l -683.2,37.3 c -25.2,1.4 -44.5,22.9 -43.1,48.1 1.4,25.3 22.9,44.7 48.1,43.2 l 683.2,-37.4 c 25.2,-1.3 44.5,-22.9 43.1,-48.1 -1.3,-24.3 -21.5,-43.2 -45.6,-43.2"
         style="fill:#6bc255;fill-opacity:1;fill-rule:nonzero;stroke:none"
         transform="matrix(0.13333333,0,0,-0.13333333,0,2437.3333)" />
      <path
         id="path81"
         d="m 13195.2,13047.6 c -0.7,0 -1.5,0 -2.2,0 l -698.9,33.5 c -25.2,1.2 -44.7,22.6 -43.5,47.8 1.3,25.2 22.9,44.2 47.9,43.5 l 698.9,-33.5 c 25.2,-1.2 44.6,-22.6 43.4,-47.8 -1.1,-24.5 -21.3,-43.5 -45.6,-43.5"
         style="fill:#66d6eb;fill-opacity:1;fill-rule:nonzero;stroke:none"
         transform="matrix(0.13333333,0,0,-0.13333333,0,2437.3333)" />
      <path
         id="path82"
         d="m 12324.6,13089.3 c -0.8,0 -1.5,0 -2.3,0 l -694.4,33.3 c -25.2,1.2 -44.6,22.6 -43.4,47.8 1.2,25.2 23.4,43.6 47.8,43.5 l 694.4,-33.3 c 25.2,-1.2 44.7,-22.6 43.5,-47.8 -1.2,-24.5 -21.4,-43.5 -45.6,-43.5"
         style="fill:#66d6eb;fill-opacity:1;fill-rule:nonzero;stroke:none"
         transform="matrix(0.13333333,0,0,-0.13333333,0,2437.3333)" />
      <path
         id="path83"
         d="m 11412.1,13132.9 c -0.7,0 -1.4,0.1 -2.2,0.1 l -413.3,19.8 c -25.3,1.2 -44.7,22.6 -43.5,47.8 1.2,25.2 23,43.6 47.8,43.5 l 413.4,-19.8 c 25.2,-1.2 44.7,-22.6 43.5,-47.8 -1.2,-24.5 -21.4,-43.6 -45.7,-43.6"
         style="fill:#66d6eb;fill-opacity:1;fill-rule:nonzero;stroke:none"
         transform="matrix(0.13333333,0,0,-0.13333333,0,2437.3333)" />
      <path
         id="path84"
         d="m 13638.6,12575.9 c -0.7,0 -1.5,0 -2.3,0 l -759,37.1 c -25.2,1.3 -44.7,22.7 -43.5,47.9 1.3,25.3 22.7,44.8 47.9,43.4 l 759.1,-37.1 c 25.2,-1.2 44.7,-22.6 43.4,-47.9 -1.2,-24.4 -21.4,-43.4 -45.6,-43.4"
         style="fill:#66d6eb;fill-opacity:1;fill-rule:nonzero;stroke:none"
         transform="matrix(0.13333333,0,0,-0.13333333,0,2437.3333)" />
      <path
         id="path85"
         d="m 12676.1,12622.9 c -0.7,0 -1.5,0 -2.2,0.1 l -938.6,45.9 c -25.2,1.3 -44.6,22.7 -43.4,47.9 1.2,25.2 22.6,44.7 47.9,43.4 l 938.5,-45.9 c 25.2,-1.3 44.7,-22.7 43.4,-47.9 -1.2,-24.5 -21.4,-43.5 -45.6,-43.5"
         style="fill:#66d6eb;fill-opacity:1;fill-rule:nonzero;stroke:none"
         transform="matrix(0.13333333,0,0,-0.13333333,0,2437.3333)" />
      <path
         id="path86"
         d="m 11433.2,12683.8 c -0.7,0 -1.5,0 -2.2,0 l -416.6,20.4 c -25.2,1.2 -44.7,22.7 -43.4,47.9 1.2,25.2 22.3,44.7 47.9,43.4 l 416.5,-20.4 c 25.2,-1.2 44.7,-22.7 43.4,-47.9 -1.2,-24.4 -21.4,-43.4 -45.6,-43.4"
         style="fill:#66d6eb;fill-opacity:1;fill-rule:nonzero;stroke:none"
         transform="matrix(0.13333333,0,0,-0.13333333,0,2437.3333)" />
      <path
         id="path87"
         d="m 14392.4,12773.7 c -0.8,0 -1.5,0 -2.3,0 l -710.4,36.1 c -25.2,1.2 -44.6,22.7 -43.3,47.9 1.2,25.2 22.5,44.9 47.9,43.3 l 710.4,-36 c 25.2,-1.3 44.6,-22.7 43.3,-48 -1.2,-24.4 -21.4,-43.3 -45.6,-43.3"
         style="fill:#faaa47;fill-opacity:1;fill-rule:nonzero;stroke:none"
         transform="matrix(0.13333333,0,0,-0.13333333,0,2437.3333)" />
      <path
         id="path88"
         d="m 13484.2,12819.7 c -0.8,0 -1.6,0 -2.4,0.1 l -1015,51.5 c -25.2,1.2 -44.6,22.7 -43.3,47.9 1.3,25.2 22.2,44.7 48,43.3 l 1014.9,-51.4 c 25.2,-1.3 44.6,-22.8 43.3,-48 -1.2,-24.4 -21.4,-43.4 -45.5,-43.4"
         style="fill:#faaa47;fill-opacity:1;fill-rule:nonzero;stroke:none"
         transform="matrix(0.13333333,0,0,-0.13333333,0,2437.3333)" />
      <path
         id="path89"
         d="m 12233.2,12883.2 c -0.8,0 -1.6,0 -2.4,0 l -453.5,23 c -25.2,1.3 -44.6,22.7 -43.4,48 1.3,25.2 22.6,44.6 48,43.3 l 453.6,-23 c 25.2,-1.3 44.6,-22.7 43.3,-48 -1.2,-24.4 -21.4,-43.3 -45.6,-43.3"
         style="fill:#faaa47;fill-opacity:1;fill-rule:nonzero;stroke:none"
         transform="matrix(0.13333333,0,0,-0.13333333,0,2437.3333)" />
      <path
         id="path90"
         d="m 11612.6,12914.7 c -0.8,0 -1.6,0 -2.4,0 l -611.4,31 c -25.2,1.3 -44.6,22.7 -43.3,47.9 1.3,25.2 22.6,44.4 48,43.3 l 611.3,-30.9 c 25.2,-1.3 44.6,-22.8 43.3,-48 -1.2,-24.4 -21.4,-43.3 -45.5,-43.3"
         style="fill:#faaa47;fill-opacity:1;fill-rule:nonzero;stroke:none"
         transform="matrix(0.13333333,0,0,-0.13333333,0,2437.3333)" />
      <path
         id="path91"
         d="m 12592.8,12156.6 c -0.9,0 -1.8,0 -2.7,0.1 l -342.9,20.3 c -25.1,1.5 -44.4,23.2 -42.8,48.4 1.4,25.2 22.4,45 48.3,42.9 l 342.8,-20.4 c 25.2,-1.5 44.4,-23.2 42.9,-48.4 -1.4,-24.2 -21.6,-42.9 -45.6,-42.9"
         style="fill:#ef588b;fill-opacity:1;fill-rule:nonzero;stroke:none"
         transform="matrix(0.13333333,0,0,-0.13333333,0,2437.3333)" />
      <path
         id="path92"
         d="m 12110.6,12185.2 c -0.9,0 -1.8,0 -2.7,0.1 l -485.6,28.9 c -25.2,1.5 -44.4,23.1 -42.9,48.3 1.5,25.2 23,45 48.3,42.9 l 485.6,-28.9 c 25.2,-1.5 44.4,-23.1 42.9,-48.3 -1.4,-24.3 -21.6,-43 -45.6,-43"
         style="fill:#ef588b;fill-opacity:1;fill-rule:nonzero;stroke:none"
         transform="matrix(0.13333333,0,0,-0.13333333,0,2437.3333)" />
      <path
         id="path93"
         d="m 11351.9,12230.4 c -0.9,0 -1.8,0 -2.7,0.1 l -373.2,22.1 c -25.2,1.5 -44.4,23.1 -42.9,48.3 1.5,25.3 23.1,44.8 48.3,42.9 l 373.2,-22.1 c 25.2,-1.5 44.4,-23.1 42.9,-48.3 -1.4,-24.3 -21.6,-43 -45.6,-43"
         style="fill:#ef588b;fill-opacity:1;fill-rule:nonzero;stroke:none"
         transform="matrix(0.13333333,0,0,-0.13333333,0,2437.3333)" />
      <path
         id="path94"
         d="m 12473.3,10918.3 c -1.2,0 -2.3,0 -3.4,0.1 l -362.4,26.8 c -25.2,1.9 -44.1,23.8 -42.2,48.9 1.8,25.2 23.8,44.1 48.9,42.2 l 362.4,-26.7 c 25.2,-1.9 44.1,-23.8 42.2,-49 -1.8,-24 -21.8,-42.3 -45.5,-42.3"
         style="fill:#faaa47;fill-opacity:1;fill-rule:nonzero;stroke:none"
         transform="matrix(0.13333333,0,0,-0.13333333,0,2437.3333)" />
      <path
         id="path95"
         d="m 11918.9,10959.3 c -1.1,0 -2.2,0 -3.4,0.1 l -418.5,30.9 c -25.2,1.9 -44.1,23.8 -42.2,49 1.8,25.2 24.1,44.2 48.9,42.2 l 418.6,-31 c 25.1,-1.8 44,-23.7 42.2,-48.9 -1.8,-24 -21.8,-42.3 -45.6,-42.3"
         style="fill:#faaa47;fill-opacity:1;fill-rule:nonzero;stroke:none"
         transform="matrix(0.13333333,0,0,-0.13333333,0,2437.3333)" />
      <path
         id="path96"
         d="m 11252.8,11008.5 c -1.2,0 -2.3,0.1 -3.5,0.2 l -293.2,21.6 c -25.2,1.9 -44.1,23.8 -42.2,49 1.8,25.1 22.8,44.3 48.9,42.2 l 293.3,-21.7 c 25.2,-1.8 44.1,-23.8 42.2,-48.9 -1.8,-24 -21.8,-42.4 -45.5,-42.4"
         style="fill:#faaa47;fill-opacity:1;fill-rule:nonzero;stroke:none"
         transform="matrix(0.13333333,0,0,-0.13333333,0,2437.3333)" />
      <path
         id="path97"
         d="m 12845.1,11182.8 c -1,0 -2,0 -3,0.1 l -615.3,40 c -25.1,1.6 -44.2,23.4 -42.6,48.6 1.7,25.1 24.1,44.2 48.6,42.6 l 615.3,-40 c 25.2,-1.6 44.2,-23.4 42.6,-48.6 -1.6,-24.1 -21.7,-42.7 -45.6,-42.7"
         style="fill:#5581d5;fill-opacity:1;fill-rule:nonzero;stroke:none"
         transform="matrix(0.13333333,0,0,-0.13333333,0,2437.3333)" />
      <path
         id="path98"
         d="m 11889.8,11244.9 c -1,0 -2,0 -3,0.1 l -930.3,60.4 c -25.2,1.7 -44.3,23.4 -42.7,48.6 1.7,25.2 24,44.1 48.6,42.7 l 930.3,-60.5 c 25.2,-1.6 44.3,-23.4 42.7,-48.6 -1.6,-24.1 -21.7,-42.7 -45.6,-42.7"
         style="fill:#5581d5;fill-opacity:1;fill-rule:nonzero;stroke:none"
         transform="matrix(0.13333333,0,0,-0.13333333,0,2437.3333)" />
      <path
         id="path99"
         d="m 13318.6,11867.8 c -1,0 -1.9,0.1 -2.9,0.1 l -421.9,26 c -25.2,1.5 -44.4,23.2 -42.8,48.4 1.5,25.2 23.2,44.1 48.4,42.8 l 421.9,-26 c 25.2,-1.5 44.4,-23.2 42.9,-48.4 -1.5,-24.2 -21.7,-42.9 -45.6,-42.9"
         style="fill:#7d74f9;fill-opacity:1;fill-rule:nonzero;stroke:none"
         transform="matrix(0.13333333,0,0,-0.13333333,0,2437.3333)" />
      <path
         id="path100"
         d="m 12674.3,11907.5 c -0.9,0 -1.9,0 -2.8,0.1 l -763.2,47 c -25.2,1.5 -44.3,23.2 -42.8,48.4 1.6,25.2 23.3,44.5 48.4,42.8 l 763.2,-47 c 25.2,-1.5 44.4,-23.2 42.8,-48.4 -1.5,-24.2 -21.6,-42.9 -45.6,-42.9"
         style="fill:#7d74f9;fill-opacity:1;fill-rule:nonzero;stroke:none"
         transform="matrix(0.13333333,0,0,-0.13333333,0,2437.3333)" />
      <path
         id="path101"
         d="m 11585.2,11974.5 c -0.9,0 -1.9,0.1 -2.8,0.1 l -599.7,36.9 c -25.2,1.6 -44.3,23.2 -42.8,48.4 1.6,25.2 23.3,44.4 48.4,42.8 l 599.7,-36.8 c 25.2,-1.6 44.3,-23.3 42.8,-48.5 -1.5,-24.2 -21.6,-42.9 -45.6,-42.9"
         style="fill:#7d74f9;fill-opacity:1;fill-rule:nonzero;stroke:none"
         transform="matrix(0.13333333,0,0,-0.13333333,0,2437.3333)" />
      <path
         id="path102"
         d="m 13506.4,11364.4 c -1,0 -2,0.1 -3.1,0.1 l -604.1,39.5 c -25.1,1.6 -44.2,23.4 -42.6,48.6 1.7,25.2 24.1,43.8 48.6,42.6 l 604.1,-39.4 c 25.2,-1.7 44.3,-23.5 42.6,-48.6 -1.6,-24.2 -21.7,-42.8 -45.5,-42.8"
         style="fill:#ef588b;fill-opacity:1;fill-rule:nonzero;stroke:none"
         transform="matrix(0.13333333,0,0,-0.13333333,0,2437.3333)" />
      <path
         id="path103"
         d="m 12501.6,11430 c -1,0 -2,0 -3.1,0.1 l -805.2,52.5 c -25.2,1.7 -44.3,23.4 -42.7,48.6 1.7,25.2 24.2,44.3 48.6,42.6 l 805.3,-52.5 c 25.2,-1.6 44.3,-23.4 42.6,-48.5 -1.6,-24.2 -21.7,-42.8 -45.5,-42.8"
         style="fill:#ef588b;fill-opacity:1;fill-rule:nonzero;stroke:none"
         transform="matrix(0.13333333,0,0,-0.13333333,0,2437.3333)" />
      <path
         id="path104"
         d="m 11450,11498.6 c -1,0 -2,0 -3,0.1 l -468.7,30.6 c -25.2,1.6 -44.3,23.4 -42.7,48.6 1.7,25.2 23.7,44.1 48.6,42.6 l 468.8,-30.6 c 25.2,-1.6 44.2,-23.4 42.6,-48.5 -1.6,-24.2 -21.7,-42.8 -45.6,-42.8"
         style="fill:#ef588b;fill-opacity:1;fill-rule:nonzero;stroke:none"
         transform="matrix(0.13333333,0,0,-0.13333333,0,2437.3333)" />
      <path
         id="path105"
         d="m 17878.6,11264.8 c -1.1,0 -2.2,0.1 -3.3,0.1 l -6897.7,497.9 c -25.2,1.9 -44.1,23.7 -42.3,48.9 1.8,25.2 23.4,44.2 48.9,42.3 l 6897.7,-497.9 c 25.1,-1.8 44.1,-23.7 42.2,-48.8 -1.7,-24.1 -21.7,-42.5 -45.5,-42.5"
         style="fill:#000000;fill-opacity:1;fill-rule:nonzero;stroke:none"
         transform="matrix(0.13333333,0,0,-0.13333333,0,2437.3333)" />
      <path
         id="path106"
         d="m 20174.6,12058.9 c -0.7,0 -1.4,0 -2.1,0 l -633.4,28.4 c -25.2,1.2 -44.7,22.5 -43.6,47.7 1.2,25.3 22.6,44.2 47.7,43.7 l 633.4,-28.5 c 25.2,-1.1 44.7,-22.5 43.6,-47.7 -1.1,-24.5 -21.3,-43.6 -45.6,-43.6"
         style="fill:#5581d5;fill-opacity:1;fill-rule:nonzero;stroke:none"
         transform="matrix(0.13333333,0,0,-0.13333333,0,2437.3333)" />
      <path
         id="path107"
         d="m 19312,12097.6 c -0.8,0 -1.4,0 -2.1,0 l -423,19 c -25.2,1.1 -44.8,22.5 -43.6,47.7 1.1,25.2 22.6,44.5 47.7,43.6 l 423,-19 c 25.2,-1.1 44.7,-22.5 43.6,-47.7 -1.2,-24.5 -21.4,-43.6 -45.6,-43.6"
         style="fill:#5581d5;fill-opacity:1;fill-rule:nonzero;stroke:none"
         transform="matrix(0.13333333,0,0,-0.13333333,0,2437.3333)" />
      <path
         id="path108"
         d="m 21177.5,12243.9 c -0.6,0 -1.3,0 -2,0 l -592.2,26.1 c -25.3,1.1 -44.8,22.4 -43.7,47.7 1.1,25.1 22.6,44.4 47.7,43.6 l 592.2,-26 c 25.2,-1.2 44.8,-22.5 43.6,-47.7 -1,-24.5 -21.2,-43.7 -45.6,-43.7"
         style="fill:#66d6eb;fill-opacity:1;fill-rule:nonzero;stroke:none"
         transform="matrix(0.13333333,0,0,-0.13333333,0,2437.3333)" />
      <path
         id="path109"
         d="m 20402.8,12277.9 c -0.7,0 -1.4,0.1 -2.1,0.1 l -650.1,28.6 c -25.2,1.1 -44.8,22.5 -43.6,47.7 1.1,25.1 23,44.5 47.6,43.6 l 650.1,-28.6 c 25.3,-1.1 44.8,-22.4 43.7,-47.7 -1.1,-24.5 -21.3,-43.7 -45.6,-43.7"
         style="fill:#66d6eb;fill-opacity:1;fill-rule:nonzero;stroke:none"
         transform="matrix(0.13333333,0,0,-0.13333333,0,2437.3333)" />
      <path
         id="path110"
         d="m 19512.2,12317.1 c -0.7,0 -1.4,0 -2,0.1 l -599.4,26.3 c -25.2,1.1 -44.7,22.5 -43.6,47.7 1.1,25.2 23.1,44.2 47.6,43.6 l 599.4,-26.3 c 25.2,-1.1 44.7,-22.5 43.6,-47.7 -1.1,-24.5 -21.3,-43.7 -45.6,-43.7"
         style="fill:#66d6eb;fill-opacity:1;fill-rule:nonzero;stroke:none"
         transform="matrix(0.13333333,0,0,-0.13333333,0,2437.3333)" />
      <path
         id="path111"
         d="m 20336.2,11811.8 c -0.8,0 -1.5,0 -2.3,0.1 l -528.8,25.7 c -25.3,1.2 -44.7,22.6 -43.5,47.9 1.3,25.2 22.4,44.2 47.9,43.4 l 528.9,-25.7 c 25.2,-1.3 44.6,-22.7 43.4,-47.9 -1.2,-24.5 -21.4,-43.5 -45.6,-43.5"
         style="fill:#ef588b;fill-opacity:1;fill-rule:nonzero;stroke:none"
         transform="matrix(0.13333333,0,0,-0.13333333,0,2437.3333)" />
      <path
         id="path112"
         d="m 19535.9,11850.8 c -0.8,0 -1.5,0 -2.3,0 l -729.1,35.5 c -25.2,1.2 -44.6,22.7 -43.4,47.9 1.2,25.2 22.8,44.7 47.8,43.4 l 729.2,-35.5 c 25.2,-1.2 44.6,-22.6 43.4,-47.8 -1.2,-24.5 -21.4,-43.5 -45.6,-43.5"
         style="fill:#ef588b;fill-opacity:1;fill-rule:nonzero;stroke:none"
         transform="matrix(0.13333333,0,0,-0.13333333,0,2437.3333)" />
      <path
         id="path113"
         d="m 20032.2,11085.9 c -0.8,0 -1.7,0 -2.5,0.1 l -464.3,25.3 c -25.3,1.4 -44.5,22.9 -43.2,48.2 1.4,25.2 23.2,44.3 48.2,43.1 l 464.3,-25.4 c 25.2,-1.3 44.5,-22.9 43.1,-48.1 -1.3,-24.3 -21.5,-43.2 -45.6,-43.2"
         style="fill:#6bc255;fill-opacity:1;fill-rule:nonzero;stroke:none"
         transform="matrix(0.13333333,0,0,-0.13333333,0,2437.3333)" />
      <path
         id="path114"
         d="m 19335.1,11124 c -0.9,0 -1.7,0 -2.6,0.1 l -683.2,37.3 c -25.2,1.4 -44.5,22.9 -43.1,48.2 1.3,25.2 23.4,44.7 48.1,43.1 l 683.2,-37.3 c 25.2,-1.4 44.5,-23 43.1,-48.2 -1.3,-24.3 -21.4,-43.2 -45.5,-43.2"
         style="fill:#6bc255;fill-opacity:1;fill-rule:nonzero;stroke:none"
         transform="matrix(0.13333333,0,0,-0.13333333,0,2437.3333)" />
      <path
         id="path115"
         d="m 21297.1,11250.9 c -0.8,0 -1.6,0 -2.3,0 l -759.1,37.1 c -25.2,1.3 -44.6,22.7 -43.4,47.9 1.3,25.2 22.5,44.2 47.9,43.5 l 759,-37.2 c 25.3,-1.2 44.7,-22.6 43.5,-47.8 -1.2,-24.5 -21.5,-43.5 -45.6,-43.5"
         style="fill:#66d6eb;fill-opacity:1;fill-rule:nonzero;stroke:none"
         transform="matrix(0.13333333,0,0,-0.13333333,0,2437.3333)" />
      <path
         id="path116"
         d="m 20334.6,11298 c -0.8,0 -1.5,0 -2.3,0 l -938.5,45.9 c -25.3,1.3 -44.7,22.7 -43.5,47.9 1.3,25.3 22.8,44.1 47.9,43.4 l 938.6,-45.9 c 25.2,-1.2 44.6,-22.6 43.4,-47.9 -1.2,-24.4 -21.4,-43.4 -45.6,-43.4"
         style="fill:#66d6eb;fill-opacity:1;fill-rule:nonzero;stroke:none"
         transform="matrix(0.13333333,0,0,-0.13333333,0,2437.3333)" />
      <path
         id="path117"
         d="m 19091.7,11358.7 c -0.8,0 -1.6,0.1 -2.3,0.1 l -416.6,20.4 c -25.2,1.2 -44.6,22.6 -43.4,47.9 1.3,25.2 22.4,44 47.9,43.4 l 416.6,-20.4 c 25.2,-1.3 44.6,-22.7 43.4,-47.9 -1.2,-24.5 -21.4,-43.5 -45.6,-43.5"
         style="fill:#66d6eb;fill-opacity:1;fill-rule:nonzero;stroke:none"
         transform="matrix(0.13333333,0,0,-0.13333333,0,2437.3333)" />
      <path
         id="path118"
         d="m 22126.2,11471.5 c -0.8,0 -1.6,0.1 -2.4,0.1 l -710.4,36 c -25.2,1.3 -44.5,22.8 -43.3,48 1.3,25.2 22.9,44.7 48,43.3 l 710.4,-36 c 25.2,-1.3 44.6,-22.8 43.3,-48 -1.2,-24.4 -21.4,-43.4 -45.6,-43.4"
         style="fill:#faaa47;fill-opacity:1;fill-rule:nonzero;stroke:none"
         transform="matrix(0.13333333,0,0,-0.13333333,0,2437.3333)" />
      <path
         id="path119"
         d="m 21218,11517.6 c -0.8,0 -1.6,0 -2.4,0.1 l -1015,51.4 c -25.2,1.3 -44.6,22.8 -43.3,48 1.3,25.2 22.9,44.3 47.9,43.3 l 1015,-51.5 c 25.3,-1.2 44.6,-22.7 43.4,-47.9 -1.3,-24.4 -21.4,-43.4 -45.6,-43.4"
         style="fill:#faaa47;fill-opacity:1;fill-rule:nonzero;stroke:none"
         transform="matrix(0.13333333,0,0,-0.13333333,0,2437.3333)" />
      <path
         id="path120"
         d="m 19967,11581 c -0.8,0 -1.5,0 -2.4,0.1 l -453.5,23 c -25.2,1.3 -44.6,22.7 -43.3,47.9 1.3,25.3 23,44.8 47.9,43.3 l 453.6,-22.9 c 25.2,-1.3 44.6,-22.8 43.3,-48 -1.2,-24.4 -21.4,-43.4 -45.6,-43.4"
         style="fill:#faaa47;fill-opacity:1;fill-rule:nonzero;stroke:none"
         transform="matrix(0.13333333,0,0,-0.13333333,0,2437.3333)" />
      <path
         id="path121"
         d="m 19346.3,11612.5 c -0.8,0 -1.5,0 -2.3,0 l -611.4,31.1 c -25.2,1.2 -44.6,22.7 -43.4,47.9 1.3,25.3 23.4,44.9 48,43.3 l 611.4,-31 c 25.2,-1.3 44.6,-22.7 43.3,-48 -1.2,-24.4 -21.4,-43.3 -45.6,-43.3"
         style="fill:#faaa47;fill-opacity:1;fill-rule:nonzero;stroke:none"
         transform="matrix(0.13333333,0,0,-0.13333333,0,2437.3333)" />
      <path
         id="path122"
         d="m 19905.7,9925.44 c -1.1,0 -2.2,0.05 -3.3,0.12 l -362.4,25.99 c -25.2,1.81 -44.1,23.68 -42.3,48.85 1.8,25.2 24.1,44 48.8,42.3 l 362.4,-26 c 25.2,-1.8 44.1,-23.64 42.3,-48.83 -1.7,-24.06 -21.8,-42.43 -45.5,-42.43"
         style="fill:#faaa47;fill-opacity:1;fill-rule:nonzero;stroke:none"
         transform="matrix(0.13333333,0,0,-0.13333333,0,2437.3333)" />
      <path
         id="path123"
         d="m 19351.3,9965.25 c -1.1,0 -2.2,0.05 -3.3,0.12 l -418.6,30.05 c -25.2,1.81 -44.1,23.68 -42.3,48.88 1.8,25.2 23.7,43.8 48.8,42.3 l 418.6,-30.1 c 25.2,-1.8 44.1,-23.6 42.3,-48.8 -1.7,-24.08 -21.8,-42.45 -45.5,-42.45"
         style="fill:#faaa47;fill-opacity:1;fill-rule:nonzero;stroke:none"
         transform="matrix(0.13333333,0,0,-0.13333333,0,2437.3333)" />
      <path
         id="path124"
         d="m 18685,10013.1 c -1.1,0 -2.1,0 -3.3,0.1 l -293.3,21.1 c -25.1,1.8 -44.1,23.7 -42.3,48.8 1.8,25.2 23.8,43.8 48.9,42.3 l 293.3,-21 c 25.1,-1.8 44.1,-23.7 42.3,-48.9 -1.7,-24 -21.8,-42.4 -45.6,-42.4"
         style="fill:#faaa47;fill-opacity:1;fill-rule:nonzero;stroke:none"
         transform="matrix(0.13333333,0,0,-0.13333333,0,2437.3333)" />
      <path
         id="path125"
         d="m 20317,10152.7 c -1.1,0 -2.1,0 -3.2,0.1 l -615.1,42.8 c -25.2,1.7 -44.2,23.6 -42.5,48.7 1.8,25.2 24,44.3 48.8,42.4 l 615.1,-42.7 c 25.2,-1.8 44.2,-23.6 42.5,-48.8 -1.7,-24.1 -21.8,-42.5 -45.6,-42.5"
         style="fill:#5581d5;fill-opacity:1;fill-rule:nonzero;stroke:none"
         transform="matrix(0.13333333,0,0,-0.13333333,0,2437.3333)" />
      <path
         id="path126"
         d="m 19361.9,10219 c -1,0 -2.1,0.1 -3.2,0.1 l -930,64.7 c -25.2,1.7 -44.2,23.6 -42.4,48.8 1.7,25.1 24.1,44 48.7,42.4 l 930.1,-64.7 c 25.1,-1.7 44.1,-23.6 42.4,-48.7 -1.7,-24.2 -21.8,-42.6 -45.6,-42.6"
         style="fill:#5581d5;fill-opacity:1;fill-rule:nonzero;stroke:none"
         transform="matrix(0.13333333,0,0,-0.13333333,0,2437.3333)" />
      <path
         id="path127"
         d="m 20935,10813.6 c -0.9,0 -1.7,0 -2.6,0.1 l -422,22.9 c -25.2,1.4 -44.5,23 -43.1,48.2 1.3,25.2 22.9,44.6 48.1,43.1 l 422,-23 c 25.2,-1.4 44.5,-22.9 43.1,-48.1 -1.3,-24.4 -21.4,-43.2 -45.5,-43.2"
         style="fill:#7d74f9;fill-opacity:1;fill-rule:nonzero;stroke:none"
         transform="matrix(0.13333333,0,0,-0.13333333,0,2437.3333)" />
      <path
         id="path128"
         d="m 20290.5,10848.6 c -0.8,0 -1.7,0.1 -2.5,0.1 l -763.6,41.5 c -25.1,1.4 -44.5,23 -43.1,48.1 1.4,25.3 23.4,44.9 48.1,43.2 l 763.6,-41.5 c 25.2,-1.4 44.5,-22.9 43.1,-48.1 -1.3,-24.4 -21.5,-43.3 -45.6,-43.3"
         style="fill:#7d74f9;fill-opacity:1;fill-rule:nonzero;stroke:none"
         transform="matrix(0.13333333,0,0,-0.13333333,0,2437.3333)" />
      <path
         id="path129"
         d="m 19201,10907.9 c -0.9,0 -1.7,0.1 -2.6,0.1 l -599.9,32.6 c -25.2,1.4 -44.5,23 -43.1,48.2 1.3,25.2 23,44.3 48.1,43.1 l 599.9,-32.6 c 25.2,-1.4 44.5,-22.9 43.1,-48.1 -1.3,-24.4 -21.4,-43.3 -45.5,-43.3"
         style="fill:#7d74f9;fill-opacity:1;fill-rule:nonzero;stroke:none"
         transform="matrix(0.13333333,0,0,-0.13333333,0,2437.3333)" />
      <path
         id="path130"
         d="m 20999.8,10339.4 c -1,0 -2.1,0 -3.2,0.1 l -603.9,41.9 c -25.2,1.7 -44.2,23.5 -42.5,48.7 1.8,25.2 24,43.9 48.8,42.5 l 603.9,-42 c 25.2,-1.7 44.2,-23.5 42.5,-48.7 -1.7,-24.1 -21.8,-42.5 -45.6,-42.5"
         style="fill:#ef588b;fill-opacity:1;fill-rule:nonzero;stroke:none"
         transform="matrix(0.13333333,0,0,-0.13333333,0,2437.3333)" />
      <path
         id="path131"
         d="m 19995.3,10409.1 c -1.1,0 -2.1,0 -3.2,0.1 l -805.1,55.8 c -25.1,1.8 -44.1,23.6 -42.4,48.8 1.8,25.2 24,44.1 48.8,42.4 l 805,-55.9 c 25.2,-1.7 44.2,-23.5 42.5,-48.7 -1.7,-24.1 -21.8,-42.5 -45.6,-42.5"
         style="fill:#ef588b;fill-opacity:1;fill-rule:nonzero;stroke:none"
         transform="matrix(0.13333333,0,0,-0.13333333,0,2437.3333)" />
      <path
         id="path132"
         d="m 18944.1,10481.9 c -1.1,0 -2.2,0.1 -3.2,0.1 l -468.6,32.6 c -25.2,1.7 -44.2,23.6 -42.4,48.8 1.7,25.1 24,44.2 48.7,42.4 l 468.6,-32.6 c 25.2,-1.7 44.2,-23.6 42.4,-48.7 -1.7,-24.1 -21.7,-42.6 -45.5,-42.6"
         style="fill:#ef588b;fill-opacity:1;fill-rule:nonzero;stroke:none"
         transform="matrix(0.13333333,0,0,-0.13333333,0,2437.3333)" />
      <path
         id="path133"
         d="m 22490.4,10454.5 c -1,0 -2,0.1 -3,0.1 l -3947.9,256.2 c -25.2,1.7 -44.3,23.4 -42.7,48.6 1.6,25.2 23.7,44.5 48.6,42.6 l 3947.9,-256.2 c 25.2,-1.6 44.3,-23.4 42.7,-48.5 -1.6,-24.2 -21.7,-42.8 -45.6,-42.8"
         style="fill:#000000;fill-opacity:1;fill-rule:nonzero;stroke:none"
         transform="matrix(0.13333333,0,0,-0.13333333,0,2437.3333)" />
      <path
         id="path134"
         d="m 18017.1,10124.9 -7414.4,679.2 8.3,91 7414.4,-679.2 -8.3,-91"
         style="fill:#000000;fill-opacity:1;fill-rule:nonzero;stroke:none"
         transform="matrix(0.13333333,0,0,-0.13333333,0,2437.3333)" />
      <path
         id="path135"
         d="m 17143.3,5275.6 c -33.2,0 -60,5.7 -64,6.6 l -2752.8,650.9 c -24.5,5.8 -39.8,30.4 -34,55 5.8,24.5 30.2,39.5 55.1,34 l 2752.3,-650.8 c 10.2,-2.3 44,-7.2 71.1,-2 32.5,6.4 64.1,28.4 64.5,28.6 l 1196.9,863.2 c 18.1,13.1 15.6,32.1 14.4,37.6 -1.2,5.5 -6.8,23.9 -28.8,28.2 l -2964.1,581.5 c -24.8,4.9 -41,28.9 -36.1,53.7 4.9,24.8 28.9,40.9 53.7,36 l 2964.1,-581.5 c 50.9,-10 89.4,-47.7 100.5,-98.4 11.1,-50.7 -8.2,-101 -50.2,-131.3 l -1197.4,-863.5 c -5.2,-3.6 -48.8,-33.7 -100,-43.8 -15.4,-2.9 -30.9,-4 -45.2,-4"
         style="fill:#000000;fill-opacity:1;fill-rule:nonzero;stroke:none"
         transform="matrix(0.13333333,0,0,-0.13333333,0,2437.3333)" />
      <path
         id="path136"
         d="m 13925.8,7046.7 c -16.4,0 -32.3,8.9 -40.5,24.5 -11.7,22.3 -3.1,50 19.3,61.7 l 200,104.7 c 25.8,13.4 55.7,17.7 84.1,12.2 l 148.9,-29.2 c 24.8,-4.9 40.9,-28.9 36.1,-53.7 -4.9,-24.8 -29.1,-40.8 -53.7,-36.1 l -148.8,29.3 c -8.3,1.6 -16.8,0.3 -24.2,-3.5 l -200,-104.7 c -6.8,-3.6 -14,-5.2 -21.2,-5.2"
         style="fill:#000000;fill-opacity:1;fill-rule:nonzero;stroke:none"
         transform="matrix(0.13333333,0,0,-0.13333333,0,2437.3333)" />
      <path
         id="path137"
         d="m 18575,5888.7 c -2.5,0 -5,0.2 -7.6,0.6 l -399.9,67.2 c -24.8,4.2 -41.7,27.8 -37.5,52.7 4.2,24.9 27.5,41.5 52.7,37.5 l 333.1,-56 -64.7,293.5 c -5.4,24.6 10.1,49 34.8,54.4 24.5,5.4 49,-10.1 54.5,-34.8 l 79.2,-359.6 c 3.3,-14.8 -1,-30.3 -11.5,-41.3 -8.7,-9.2 -20.7,-14.2 -33.1,-14.2"
         style="fill:#000000;fill-opacity:1;fill-rule:nonzero;stroke:none"
         transform="matrix(0.13333333,0,0,-0.13333333,0,2437.3333)" />
      <path
         id="path138"
         d="m 17207.7,5525.1 c -3.3,0 -6.6,0.4 -10,1.2 l -2248.8,506.4 c -24.6,5.5 -40.1,30 -34.5,54.6 5.5,24.6 30,40.1 54.6,34.5 l 2248.7,-506.4 c 24.7,-5.5 40.1,-30 34.6,-54.6 -4.8,-21.2 -23.7,-35.7 -44.6,-35.7"
         style="fill:#000000;fill-opacity:1;fill-rule:nonzero;stroke:none"
         transform="matrix(0.13333333,0,0,-0.13333333,0,2437.3333)" />
      <path
         id="path139"
         d="m 17480.9,5731.2 c -3.3,0 -6.7,0.4 -10.1,1.1 L 16036.9,6057 c -24.7,5.6 -40.1,30.1 -34.5,54.7 5.5,24.6 30.1,40 54.6,34.5 l 1434,-324.7 c 24.6,-5.6 40,-30.1 34.5,-54.7 -4.9,-21.2 -23.7,-35.6 -44.6,-35.6"
         style="fill:#000000;fill-opacity:1;fill-rule:nonzero;stroke:none"
         transform="matrix(0.13333333,0,0,-0.13333333,0,2437.3333)" />
      <path
         id="path140"
         d="m 17774.9,5938.4 c -3.1,0 -6.4,0.3 -9.6,1 l -1688.8,363.4 c -24.7,5.3 -40.4,29.6 -35.1,54.3 5.3,24.7 29.6,40.5 54.3,35 l 1688.8,-363.4 c 24.7,-5.3 40.4,-29.6 35.1,-54.2 -4.6,-21.5 -23.6,-36.1 -44.7,-36.1"
         style="fill:#000000;fill-opacity:1;fill-rule:nonzero;stroke:none"
         transform="matrix(0.13333333,0,0,-0.13333333,0,2437.3333)" />
      <path
         id="path141"
         d="m 18078.9,6134.9 c -3.1,0 -6.2,0.3 -9.4,0.9 l -1969.8,409.8 c -24.6,5.2 -40.5,29.4 -35.4,54.1 5.1,24.7 29.1,40.5 54.1,35.4 l 1969.7,-409.7 c 24.7,-5.2 40.6,-29.4 35.5,-54.1 -4.5,-21.6 -23.5,-36.4 -44.7,-36.4"
         style="fill:#000000;fill-opacity:1;fill-rule:nonzero;stroke:none"
         transform="matrix(0.13333333,0,0,-0.13333333,0,2437.3333)" />
      <path
         id="path142"
         d="m 16792.7,5530.1 c -15.1,0 -29.9,7.5 -38.6,21.2 -13.5,21.4 -7.1,49.6 14.2,63.1 l 1152.7,727.7 c 21.4,13.5 49.5,7.1 63,-14.2 13.5,-21.4 7.1,-49.6 -14.2,-63.1 l -1152.7,-727.7 c -7.6,-4.8 -16,-7 -24.4,-7"
         style="fill:#000000;fill-opacity:1;fill-rule:nonzero;stroke:none"
         transform="matrix(0.13333333,0,0,-0.13333333,0,2437.3333)" />
      <path
         id="path143"
         d="m 16334.2,5635.1 c -15.2,0 -30,7.6 -38.7,21.3 -13.5,21.4 -7.1,49.6 14.2,63.1 l 1152.7,727.7 c 21.3,13.5 49.6,7.1 63,-14.2 13.5,-21.3 7.1,-49.6 -14.2,-63.1 l -1152.7,-727.7 c -7.5,-4.8 -16,-7.1 -24.3,-7.1"
         style="fill:#000000;fill-opacity:1;fill-rule:nonzero;stroke:none"
         transform="matrix(0.13333333,0,0,-0.13333333,0,2437.3333)" />
      <path
         id="path144"
         d="m 15844.9,5743.3 c -15.2,0 -30,7.6 -38.7,21.3 -13.5,21.4 -7.1,49.6 14.2,63.1 l 1152.7,727.7 c 21.5,13.4 49.6,7 63.1,-14.2 13.5,-21.4 7.1,-49.6 -14.2,-63.1 l -1152.8,-727.7 c -7.5,-4.8 -16,-7.1 -24.3,-7.1"
         style="fill:#000000;fill-opacity:1;fill-rule:nonzero;stroke:none"
         transform="matrix(0.13333333,0,0,-0.13333333,0,2437.3333)" />
      <path
         id="path145"
         d="m 16087.5,6310 c -15.3,0 -30.2,7.7 -38.9,21.6 -13.3,21.4 -6.8,49.6 14.6,62.9 l 403.5,251.6 c 21.5,13.4 49.6,6.8 63,-14.6 13.3,-21.4 6.8,-49.6 -14.6,-62.9 L 16111.6,6317 c -7.5,-4.7 -15.9,-7 -24.1,-7 z m -724.1,-460.4 c -15,0 -29.6,7.3 -38.4,20.8 -13.8,21.1 -7.7,49.4 13.4,63.1 l 305.8,198.9 c 21.1,13.8 49.4,7.7 63.2,-13.4 13.8,-21.2 7.7,-49.5 -13.4,-63.2 L 15388.2,5857 c -7.7,-5.1 -16.3,-7.4 -24.8,-7.4"
         style="fill:#000000;fill-opacity:1;fill-rule:nonzero;stroke:none"
         transform="matrix(0.13333333,0,0,-0.13333333,0,2437.3333)" />
      <path
         id="path146"
         d="m 15731.6,6505.7 c -15.3,0 -30.3,7.8 -38.9,21.8 -13.3,21.5 -6.5,49.6 15,62.9 l 261.9,161 c 21.4,13.2 49.6,6.5 62.8,-15 13.3,-21.5 6.6,-49.7 -14.9,-62.9 l -262,-161 c -7.4,-4.6 -15.7,-6.8 -23.9,-6.8 z m -772,-471.9 c -15.3,0 -30.3,7.8 -39,21.9 -13.2,21.5 -6.4,49.6 15.1,62.8 l 466.3,285.6 c 21.6,13.2 49.7,6.4 62.8,-15.1 13.2,-21.5 6.4,-49.6 -15.1,-62.8 l -466.2,-285.6 c -7.5,-4.6 -15.7,-6.8 -23.9,-6.8"
         style="fill:#000000;fill-opacity:1;fill-rule:nonzero;stroke:none"
         transform="matrix(0.13333333,0,0,-0.13333333,0,2437.3333)" />
      <path
         id="path147"
         d="m 14472.6,7982.1 c -12.6,0 -20.7,0.3 -21.8,0.3 -1.6,0 -3.2,0.1 -4.7,0.4 l -1692.6,223.5 c -27.7,3.7 -80.8,31.5 -83.2,110.65 -2.3,69.85 44.3,115.76 72.2,131.88 l 947.8,484.45 c 1.6,0.8 3.2,1.51 4.8,2.1 9.2,3.57 31,15.66 38.1,29.59 7.2,14.19 6.6,42.88 3.9,58.72 l -89,423.47 c -5.2,24.7 10.6,48.93 35.3,54.11 24.9,5.11 48.9,-10.65 54.1,-35.32 l 89.2,-424.81 c 1.6,-8.2 12,-70.51 -12.1,-117.67 -22.8,-44.82 -71.3,-67.13 -84.6,-72.57 l -943.8,-482.36 c -0.3,-0.31 -25.6,-17 -24.6,-48.69 0.5,-15.4 4.7,-22.54 7.4,-23.6 l 1686.5,-222.55 c 13.7,-0.4 85.5,-1.1 134,8 40.9,7.6 107,46.4 126.9,59.4 l 671.7,470.72 c 10.8,7.5 43.5,34.05 54.6,58.95 10,22.4 6,53.16 3.5,63.06 l -101.7,537.51 c -4.7,24.82 11.6,48.71 36.4,53.4 24.9,4.84 48.7,-11.64 53.4,-36.4 l 101.2,-534.91 c 1,-3.84 15.5,-64.36 -9.3,-119.92 -23.6,-52.89 -79.6,-92.47 -85.9,-96.8 l -672.7,-471.31 c -10.7,-7 -95.2,-61.3 -161.4,-73.6 -44.8,-8.4 -102.7,-9.7 -133.6,-9.7"
         style="fill:#000000;fill-opacity:1;fill-rule:nonzero;stroke:none"
         transform="matrix(0.13333333,0,0,-0.13333333,0,2437.3333)" />
      <path
         id="path148"
         d="m 14493.3,8124.7 c -23.8,0 -43.4,1.2 -47.4,1.5 l -1702.5,207.18 c -25.1,3.03 -43,25.8 -39.9,50.88 3,25.04 25.8,43.46 50.9,39.8 l 1700.1,-206.86 c 22.1,-1.5 69.3,-2.2 91.4,2.5 20,4.3 69.9,30.5 98.9,47.7 l 612.1,434.75 c 5.6,4.37 21.5,19.68 26.6,32.75 5.1,13.25 2.7,33.52 1.4,39.54 l -95.9,511.94 c -4.6,24.82 11.7,48.69 36.5,53.34 25.1,4.62 48.7,-11.74 53.4,-36.51 l 95.6,-510.69 c 0.8,-3.48 10.3,-49.13 -5.8,-90.6 -15.8,-40.74 -53.4,-70.19 -57.6,-73.41 l -616.5,-437.61 c -16.9,-10.2 -87.9,-51.7 -129.7,-60.6 -20.7,-4.4 -48.1,-5.6 -71.6,-5.6"
         style="fill:#000000;fill-opacity:1;fill-rule:nonzero;stroke:none"
         transform="matrix(0.13333333,0,0,-0.13333333,0,2437.3333)" />
      <path
         id="path149"
         d="m 15476.4,8674.83 c -1.9,0 -3.7,0.09 -5.5,0.32 l -1468.6,176.77 c -25.1,3.04 -43,25.79 -40,50.83 3.1,25.08 26.2,42.85 50.9,39.95 l 1468.6,-176.77 c 25.1,-3.04 42.9,-25.8 39.9,-50.84 -2.8,-23.22 -22.5,-40.26 -45.3,-40.26"
         style="fill:#000000;fill-opacity:1;fill-rule:nonzero;stroke:none"
         transform="matrix(0.13333333,0,0,-0.13333333,0,2437.3333)" />
      <path
         id="path150"
         d="m 18630.5,12570.5 c -25.2,0 -45.6,20.4 -45.7,45.6 l -4.4,1937.9 c 0,1.5 0,3 0.2,4.6 0.1,1.9 3.7,61.7 -55,101.5 -61.2,41.6 -193.6,68.3 -239.5,75.1 -25,3.7 -42.3,27 -38.5,51.9 3.6,25 26.6,42.4 51.9,38.6 7.6,-1.2 186.6,-28.2 277.5,-90 96.2,-65.3 95.8,-164 94.8,-183 l 4.4,-1936.4 c 0.1,-25.3 -20.3,-45.8 -45.6,-45.8 0,0 0,0 -0.1,0"
         style="fill:#000000;fill-opacity:1;fill-rule:nonzero;stroke:none"
         transform="matrix(0.13333333,0,0,-0.13333333,0,2437.3333)" />
      <path
         id="path151"
         d="m 21484,3098.4 c -2.9,0 -5.9,0.3 -8.9,0.9 l -10238.6,2014 c -24.7,4.9 -40.9,28.9 -36,53.7 4.9,24.8 29,40.9 53.7,36 L 21492.8,3189 c 24.8,-4.9 40.9,-28.9 36,-53.7 -4.3,-21.8 -23.4,-36.9 -44.8,-36.9"
         style="fill:#000000;fill-opacity:1;fill-rule:nonzero;stroke:none"
         transform="matrix(0.13333333,0,0,-0.13333333,0,2437.3333)" />
      <path
         id="path152"
         d="m 5226.89,6298.8 c -2.92,0 -5.89,0.3 -8.88,0.8 l -1700.72,335.3 c -3.12,0.2 -62.06,8.4 -93.92,54.7 -28.16,41 -27.49,102.3 -27.07,114.2 l 0.43,336.9 c 0.33,9.8 4.39,83.1 49.72,135.4 43.77,50.6 119.54,73 128.01,75.4 L 4846.92,7631 c 24.59,5.4 49.03,-10.2 54.43,-34.8 5.42,-24.7 -10.18,-49.1 -34.84,-54.5 L 3596.65,7262.9 c -13.17,-3.9 -59.16,-21.3 -81.12,-46.7 -20.62,-23.8 -26.8,-64 -27.44,-77.5 l -0.41,-336.5 c -0.53,-18.9 3.01,-49.1 11.03,-60.8 6.67,-9.7 25.59,-15.3 33.2,-16.3 l 1703.77,-335.8 c 24.77,-4.9 40.88,-28.9 36,-53.6 -4.29,-21.8 -23.39,-36.9 -44.79,-36.9"
         style="fill:#000000;fill-opacity:1;fill-rule:nonzero;stroke:none"
         transform="matrix(0.13333333,0,0,-0.13333333,0,2437.3333)" />
      <path
         id="path153"
         d="m 9612.58,8572.54 c -21.16,0 -40.12,14.74 -44.68,36.24 -5.22,24.73 10.58,48.95 35.28,54.19 l 2964.52,626.27 c 2.7,0.55 61.4,12.47 116.8,15.35 56.1,2.9 107,-3.53 109.2,-3.79 l 959.7,-106 c 25.1,-2.78 43.2,-25.37 40.4,-50.45 -2.8,-25.08 -25.3,-43.16 -50.4,-40.41 l -960.6,106.1 c -1.3,0.14 -45.8,5.72 -93.5,3.29 -48.5,-2.52 -102.5,-13.48 -103,-13.59 L 9622.06,8573.53 c -3.17,-0.68 -6.36,-0.99 -9.48,-0.99"
         style="fill:#000000;fill-opacity:1;fill-rule:nonzero;stroke:none"
         transform="matrix(0.13333333,0,0,-0.13333333,0,2437.3333)" />
      <path
         id="path154"
         d="m 17010.7,8762.13 c -1.6,0 -3.2,0.09 -4.8,0.26 l -1528.5,159.5 c -25.1,2.59 -43.3,25.09 -40.7,50.17 2.6,25.13 24.6,43.74 50.2,40.7 l 1528.5,-159.5 c 25.1,-2.59 43.3,-25.08 40.7,-50.16 -2.5,-23.53 -22.3,-40.97 -45.4,-40.97"
         style="fill:#000000;fill-opacity:1;fill-rule:nonzero;stroke:none"
         transform="matrix(0.13333333,0,0,-0.13333333,0,2437.3333)" />
      <path
         id="path155"
         d="m 23935.3,8017.6 c -1.6,0 -3.3,0.1 -4.9,0.3 L 22068.2,8217 c -25,2.7 -43.2,25.2 -40.5,50.3 2.7,25.1 24.7,43.54 50.3,40.6 l 1862.1,-199.1 c 25.1,-2.7 43.2,-25.3 40.6,-50.3 -2.5,-23.5 -22.3,-40.9 -45.4,-40.9"
         style="fill:#000000;fill-opacity:1;fill-rule:nonzero;stroke:none"
         transform="matrix(0.13333333,0,0,-0.13333333,0,2437.3333)" />
      <path
         id="path156"
         d="m 22102.9,3619.9 c -2.8,0 -5.7,0.3 -8.5,0.8 l -9279,1752.4 c -24.8,4.7 -41.1,28.6 -36.4,53.4 4.6,24.8 28.6,41.2 53.3,36.4 l 9279,-1752.4 c 24.9,-4.7 41.2,-28.5 36.5,-53.3 -4.2,-22 -23.3,-37.3 -44.9,-37.3"
         style="fill:#000000;fill-opacity:1;fill-rule:nonzero;stroke:none"
         transform="matrix(0.13333333,0,0,-0.13333333,0,2437.3333)" />
      <path
         id="path157"
         d="m 5068.51,6833.4 c -2.82,0 -5.65,0.3 -8.51,0.8 l -1607.84,303 c -24.82,4.6 -41.13,28.6 -36.47,53.4 4.72,24.7 28.61,40.9 53.38,36.4 l 1607.85,-303 c 24.81,-4.6 41.12,-28.5 36.46,-53.3 -4.15,-22 -23.32,-37.3 -44.87,-37.3"
         style="fill:#000000;fill-opacity:1;fill-rule:nonzero;stroke:none"
         transform="matrix(0.13333333,0,0,-0.13333333,0,2437.3333)" />
      <path
         id="path158"
         d="m 18700.4,12771.2 h 0.5 z m -681.5,-2904.53 c -1.9,-18.14 -0.2,-44 5.3,-51.77 3.9,-5.58 21.6,-10.8 33.6,-11.38 l 4672.2,-446 c 14.6,-1.92 39,-1.03 50.1,5.98 10.9,6.92 21.7,28.07 25.5,40.17 l 842.8,3056.13 c 0.4,1.6 6.5,26 -9.9,55.4 -13.6,24.5 -32.8,27.7 -35,28 l -4821.2,201.1 c -13,1 -41.6,-0.5 -55.2,-10.2 0,0 -0.1,0 -0.1,-0.1 -13.6,-9.6 -24,-36 -26.9,-47.2 z m 4725.6,-601.44 c -13.2,0 -22.8,1.18 -25.2,1.54 l -4667.6,445.6 c -4.4,0.06 -69.5,3.46 -102.3,49.92 -29.4,41.81 -22.5,106.1 -20.9,118.55 0.3,1.56 0.5,3.12 0.9,4.66 l 682,2823.3 c 1.8,7.1 17.9,67.8 62.5,99.6 44.4,31.8 107,27.7 114.1,27.1 l 4821.8,-201.1 c 8,-0.6 70.7,-6.5 108.6,-74.8 35.5,-63.7 19.5,-119.5 17.6,-125.6 l -842.7,-3055.97 c -2.2,-7.48 -20.4,-63.93 -64.4,-91.8 -27.7,-17.48 -61.6,-21 -84.4,-21"
         style="fill:#000000;fill-opacity:1;fill-rule:nonzero;stroke:none"
         transform="matrix(0.13333333,0,0,-0.13333333,0,2437.3333)" />
      <path
         id="path159"
         d="m 20995.8,7060.6 c -57.2,0 -111.5,7.4 -120.5,8.7 l -614.3,79 c -25,3.2 -42.7,26.1 -39.5,51.2 3.3,24.9 25.7,42.1 51.2,39.4 l 614.9,-79 c 33.8,-4.8 130.3,-14.2 177,-1.4 51.9,14.4 88.7,54 89.2,54.4 l 1611.7,1976.32 c 5.1,9.65 26.6,55.97 8.9,118.18 -6.9,24.28 7.2,49.54 31.5,56.44 24.3,6.82 49.6,-7.17 56.5,-31.49 30.9,-109.03 -18.2,-189.81 -20.3,-193.2 -1,-1.65 -2.1,-3.23 -3.3,-4.73 L 21223,7153.3 c -3.7,-4.2 -55.8,-61.2 -134.1,-82.9 -26.7,-7.3 -60.3,-9.8 -93.1,-9.8"
         style="fill:#000000;fill-opacity:1;fill-rule:nonzero;stroke:none"
         transform="matrix(0.13333333,0,0,-0.13333333,0,2437.3333)" />
      <path
         id="path160"
         d="m 19540.3,7241.3 c -1.9,0 -3.9,0.1 -5.9,0.4 l -2324.7,298.7 c -25,3.3 -42.7,26.2 -39.5,51.3 3.3,24.9 25.8,42.2 51.2,39.4 l 2324.7,-298.7 c 25,-3.3 42.7,-26.2 39.5,-51.2 -3,-23.1 -22.7,-39.9 -45.3,-39.9"
         style="fill:#000000;fill-opacity:1;fill-rule:nonzero;stroke:none"
         transform="matrix(0.13333333,0,0,-0.13333333,0,2437.3333)" />
      <path
         id="path161"
         d="m 16487.4,7633.7 c -1.9,0 -3.9,0.2 -5.9,0.4 l -373.9,48 c -4.6,0.4 -60.7,7.2 -88.9,67.9 -25.6,54.9 3.3,101.2 22.1,118 l 1837.6,1874.29 c 2.5,3.1 45.8,52.39 110.8,67.17 24.3,5.75 49,-9.82 54.6,-34.44 5.6,-24.61 -9.7,-49.09 -34.4,-54.69 -35.9,-8.17 -63.4,-39.47 -63.7,-39.78 L 16103.8,7801.9 c -5.7,-6 -3.6,-10.6 -2.3,-13.3 6,-12.8 15.1,-15.4 17.8,-15.8 l 373.8,-48 c 25.1,-3.2 42.8,-26.2 39.6,-51.2 -3,-23 -22.6,-39.9 -45.3,-39.9"
         style="fill:#000000;fill-opacity:1;fill-rule:nonzero;stroke:none"
         transform="matrix(0.13333333,0,0,-0.13333333,0,2437.3333)" />
      <path
         id="path162"
         d="m 20959.9,7208.7 c -14.9,0 -25.6,1.4 -28,1.7 l -757.6,94.6 c -25.1,3.1 -42.8,26 -39.7,51 3.1,25 25.8,42.7 51,39.7 l 758.2,-94.7 c 9.3,-1.2 37,-2.4 56.3,5.6 19.5,8 38.6,28.6 44.3,35.9 l 1641.1,1992.44 c 16,19.46 44.8,22.32 64.4,6.23 19.5,-16.05 22.2,-44.86 6.2,-64.34 L 21115.7,7285.4 c -2.7,-3.5 -35.2,-44.5 -80.7,-63.3 -26.4,-10.9 -54.7,-13.4 -75.1,-13.4"
         style="fill:#000000;fill-opacity:1;fill-rule:nonzero;stroke:none"
         transform="matrix(0.13333333,0,0,-0.13333333,0,2437.3333)" />
      <path
         id="path163"
         d="m 19600.6,7377 c -1.9,0 -3.8,0.1 -5.7,0.3 l -2419.7,302.1 c -25.1,3.2 -42.8,26 -39.7,51 3.1,25.1 25.7,42.7 51,39.7 L 19606.2,7468 c 25.1,-3.1 42.8,-25.9 39.7,-51 -2.9,-23.1 -22.6,-40 -45.3,-40"
         style="fill:#000000;fill-opacity:1;fill-rule:nonzero;stroke:none"
         transform="matrix(0.13333333,0,0,-0.13333333,0,2437.3333)" />
      <path
         id="path164"
         d="m 16525.6,7760.9 c -1.8,0 -3.8,0.1 -5.7,0.3 l -412.5,51.5 c -25.1,3.2 -42.8,26 -39.7,51 3.1,25.1 25.8,42.6 51,39.7 l 412.6,-51.5 c 25,-3.1 42.8,-26 39.6,-51 -2.9,-23.1 -22.5,-40 -45.3,-40"
         style="fill:#000000;fill-opacity:1;fill-rule:nonzero;stroke:none"
         transform="matrix(0.13333333,0,0,-0.13333333,0,2437.3333)" />
      <path
         id="path165"
         d="m 22714.7,9406.14 c -4.1,0 -8.2,0.56 -12.3,1.7 -24.3,6.74 -38.5,31.93 -31.8,56.26 l 863.4,3108.5 c 6.7,24.3 31.9,38.5 56.3,31.8 24.3,-6.7 38.5,-31.9 31.8,-56.2 l -863.4,-3108.56 c -5.6,-20.24 -24,-33.5 -44,-33.5"
         style="fill:#000000;fill-opacity:1;fill-rule:nonzero;stroke:none"
         transform="matrix(0.13333333,0,0,-0.13333333,0,2437.3333)" />
      <path
         id="path166"
         d="m 18184.7,9939.61 4361.6,-396.01 775.3,2841.1 -4497.6,190.5 z m 4395.7,-490.69 c -1.4,0 -2.8,0.07 -4.2,0.18 l -4452.6,404.27 c -13.2,1.21 -25.2,8.12 -33,18.92 -7.7,10.83 -10.4,24.46 -7.2,37.38 l 660.6,2723.53 c 5.1,21.2 25,35.4 46.3,34.9 l 4592.4,-194.5 c 14,-0.6 26.8,-7.4 35,-18.7 8.2,-11.2 10.9,-25.5 7.2,-39 l -800.5,-2933.31 c -5.4,-20.01 -23.6,-33.67 -44,-33.67"
         style="fill:#000000;fill-opacity:1;fill-rule:nonzero;stroke:none"
         transform="matrix(0.13333333,0,0,-0.13333333,0,2437.3333)" />
      <path
         id="path167"
         d="m 17130.8,8643.02 4285.9,-488.62 791,913.57 -4258,414.69 z m 4304.7,-582.52 c -1.7,0 -3.4,0.1 -5.2,0.3 l -4402.4,501.97 c -17.4,1.96 -32.1,13.62 -37.9,30.03 -5.9,16.47 -1.9,34.77 10.3,47.27 l 899.3,922.12 c 9.7,9.91 23.4,15.04 37.2,13.57 l 4367.7,-425.38 c 17,-1.65 31.6,-12.66 38,-28.52 6.3,-15.87 3.3,-33.94 -7.9,-46.88 L 21470,8076.3 c -8.7,-10.1 -21.3,-15.8 -34.5,-15.8"
         style="fill:#000000;fill-opacity:1;fill-rule:nonzero;stroke:none"
         transform="matrix(0.13333333,0,0,-0.13333333,0,2437.3333)" />
      <path
         id="path168"
         d="m 18152.9,7834.4 1408.3,-176.4 370.7,401.4 -1371.2,172.2 z M 19578.8,7564 c -1.9,0 -3.8,0.1 -5.7,0.3 l -1525.8,191.2 c -17.5,2.2 -32.1,14.2 -37.7,30.8 -5.6,16.7 -1.1,35 11.5,47.3 l 491.6,478.84 c 9.9,9.69 23.5,14.38 37.6,12.59 l 1481.2,-185.93 c 16.9,-2.2 31.3,-13.6 37.2,-29.7 5.8,-16.1 2.3,-34.1 -9.4,-46.7 l -446.9,-484 c -8.7,-9.5 -20.9,-14.7 -33.6,-14.7"
         style="fill:#000000;fill-opacity:1;fill-rule:nonzero;stroke:none"
         transform="matrix(0.13333333,0,0,-0.13333333,0,2437.3333)" />
      <path
         id="path169"
         d="m 19587.4,7192.3 642.5,-87.3 c -6.4,93.7 -53.7,294.4 -335,328.6 -112.9,13.7 -195.8,-5.7 -246.4,-57.6 -53.7,-55.3 -61.4,-137.9 -61.1,-183.7 z m 688.1,-185.3 c -2,0 -4.1,0.1 -6.1,0.4 l -731.5,99.3 c -20.1,2.8 -36,18.5 -39,38.6 -1.1,7.3 -25.7,181.6 84.1,294.4 71.5,73.5 180.2,101.9 322.8,84.6 v 0 c 451.6,-54.8 415.6,-471.9 415.2,-476.1 -1.2,-12.4 -7.4,-23.7 -17.1,-31.4 -8.1,-6.4 -18.1,-9.8 -28.4,-9.8"
         style="fill:#000000;fill-opacity:1;fill-rule:nonzero;stroke:none"
         transform="matrix(0.13333333,0,0,-0.13333333,0,2437.3333)" />
      <path
         id="path170"
         d="m 16537.5,7606.3 642.7,-87.3 c -6.5,93.8 -53.8,294.5 -335.1,328.7 v 0 c -112.5,13.7 -195.4,-5.6 -246,-57.3 -54.3,-55.5 -62,-138.2 -61.6,-184.1 z m 688.3,-185.3 c -2.1,0 -4.1,0.2 -6.2,0.4 l -731.4,99.4 c -20.2,2.7 -36.1,18.4 -39.1,38.5 -1.1,7.4 -25.6,181.7 84.2,294.5 71.5,73.5 180.4,101.8 322.8,84.7 v 0 c 451.6,-54.9 415.6,-472.1 415.2,-476.3 -1.3,-12.3 -7.5,-23.6 -17.2,-31.4 -8.1,-6.3 -18.1,-9.8 -28.3,-9.8"
         style="fill:#000000;fill-opacity:1;fill-rule:nonzero;stroke:none"
         transform="matrix(0.13333333,0,0,-0.13333333,0,2437.3333)" />
      <path
         id="path171"
         d="m 17238.4,7420.6 c -19.4,0 -37.3,12.3 -43.6,31.8 -7.6,24.1 5.7,49.8 29.7,57.4 l 241.5,77.1 c 23.9,7.7 49.8,-5.6 57.4,-29.7 7.7,-24.1 -5.6,-49.8 -29.6,-57.4 l -241.5,-77.1 c -4.6,-1.5 -9.3,-2.1 -13.9,-2.1"
         style="fill:#000000;fill-opacity:1;fill-rule:nonzero;stroke:none"
         transform="matrix(0.13333333,0,0,-0.13333333,0,2437.3333)" />
      <path
         id="path172"
         d="m 20282.9,7007.4 c -17.1,0 -33.3,9.5 -41.2,25.8 -11,22.7 -1.5,50 21.2,61 l 217.1,104.9 c 22.7,10.9 50.1,1.4 61,-21.3 11,-22.7 1.5,-50 -21.3,-61 l -217,-104.9 c -6.4,-3.1 -13.2,-4.5 -19.8,-4.5"
         style="fill:#000000;fill-opacity:1;fill-rule:nonzero;stroke:none"
         transform="matrix(0.13333333,0,0,-0.13333333,0,2437.3333)" />
      <path
         id="path173"
         d="m 21592.7,7635 c -17,0 -33.3,9.5 -41.2,25.8 -11,22.7 -1.5,50 21.3,61 l 569.3,275 c 6.4,2.8 10.7,6.3 11.6,8.1 -0.7,-0.5 -4.8,1.1 -7.7,1.6 l -229.5,22.7 c -25.1,2.5 -43.5,24.9 -41,50 2.5,25.2 25.5,43.1 50,41 l 232,-24.399 c 41.12,-2.3817 84.5,-33.301 87.5,-84.801 3.2,-56.1 -45.299,-79.1825 -71.599,-89.1825 L 21612.5,7639.5 c -6.4,-3.1 -13.2,-4.5 -19.8,-4.5"
         style="fill:#000000;fill-opacity:1;fill-rule:nonzero;stroke:none"
         transform="matrix(0.13333333,0,0,-0.13333333,0,2437.3333)" />
      <path
         id="path174"
         d="m 4246.1,2971.7 c -25.23,0 -45.69,20.4 -45.69,45.7 v 3501.4 c 0,25.2 20.46,45.7 45.69,45.7 25.24,0 45.71,-20.5 45.71,-45.7 V 3017.4 c 0,-25.3 -20.47,-45.7 -45.71,-45.7"
         style="fill:#000000;fill-opacity:1;fill-rule:nonzero;stroke:none"
         transform="matrix(0.13333333,0,0,-0.13333333,0,2437.3333)" />
      <path
         id="path175"
         d="m 5340.67,2586.7 c -25.23,0 -45.69,20.5 -45.69,45.7 v 3317 c 0,25.3 20.46,45.7 45.69,45.7 25.24,0 45.71,-20.4 45.71,-45.7 v -3317 c 0,-25.2 -20.47,-45.7 -45.71,-45.7"
         style="fill:#000000;fill-opacity:1;fill-rule:nonzero;stroke:none"
         transform="matrix(0.13333333,0,0,-0.13333333,0,2437.3333)" />
      <path
         id="path176"
         d="m 7464.81,2134.6 c -22.07,0 -41.48,16 -45.07,38.5 -395.37,2484.2 -1168.48,5430.6 -1591.65,6804.95 -30.57,99.24 -495.74,280.6 -843.6,328.86 -25.01,3.49 -42.46,26.56 -39.01,51.55 3.48,24.99 26.67,42.44 51.55,39.01 282.77,-39.26 863.21,-213.35 918.4,-392.57 423.95,-1376.8 1198.46,-4328.6 1594.59,-6817.4 3.95,-25 -13.03,-48.3 -37.96,-52.3 -2.43,-0.4 -4.86,-0.6 -7.25,-0.6"
         style="fill:#000000;fill-opacity:1;fill-rule:nonzero;stroke:none"
         transform="matrix(0.13333333,0,0,-0.13333333,0,2437.3333)" />
      <path
         id="path177"
         d="m 13044.2,3478.7 c -25.2,0 -45.7,20.4 -45.7,45.7 v 1275.3 c 0,25.3 20.5,45.7 45.7,45.7 25.2,0 45.7,-20.4 45.7,-45.7 V 3524.4 c 0,-25.3 -20.5,-45.7 -45.7,-45.7"
         style="fill:#000000;fill-opacity:1;fill-rule:nonzero;stroke:none"
         transform="matrix(0.13333333,0,0,-0.13333333,0,2437.3333)" />
      <path
         id="path178"
         d="m 14138.8,3144.7 c -25.3,0 -45.7,20.5 -45.7,45.7 v 1345.8 c 0,25.3 20.4,45.7 45.7,45.7 25.2,0 45.6,-20.4 45.6,-45.7 V 3190.4 c 0,-25.2 -20.4,-45.7 -45.6,-45.7"
         style="fill:#000000;fill-opacity:1;fill-rule:nonzero;stroke:none"
         transform="matrix(0.13333333,0,0,-0.13333333,0,2437.3333)" />
    </g>
    <path
       style="fill:#9f5800;fill-opacity:0.499297;fill-rule:nonzero;stroke:none;stroke-width:4.5;stroke-opacity:1"
       d="m 1728.8184,1160.2574 c -59.7775,10.4077 -118.1722,24.263 -177.6437,36.3116 -76.534,16.5685 -155.2659,32.6001 -230.2514,49.5647 12.453,36.1344 25.5244,77.1565 40.2088,112.4591 16.1989,29.6351 38.2005,54.4258 56.9745,82.3927 34.7777,7.5472 71.1935,9.1515 106.6669,11.6186 46.3467,2.255 92.1239,-3.3906 138.0774,-8.5798 9.5151,-0.2582 5.644,16.7279 15.8981,14.4997 46.583,-3.9114 92.5334,-25.3766 137.9232,-35.1712 22.9542,-5.8322 51.0001,-7.9596 69.8628,8.1149 12.0286,10.3806 14.3968,3.6289 22.1357,-1.5587 15.8544,-7.4364 24.5935,-6.8911 37.269,-2.6358 8.737,2.7497 10.2319,-2.7467 22.561,-12.9993 19.7886,-13.2644 37.8253,-30.2489 60.2941,-38.8536 21.4974,-4.3284 35.5607,16.9174 44.2771,33.6772 5.3314,8.6759 8.059,20.0116 12.9652,28.6565 6.6038,5.9718 13.4349,12.1482 17.4359,20.2787 132.2297,26.2194 265.339,49.9536 397.3361,77.3057 12.1651,7.4432 9.8108,24.3714 13.8644,36.4855 1.0721,10.0834 6.1157,20.1812 4.9482,30.9471 -8.5648,3.0184 -18.5766,-1.3684 -27.5333,-1.8644 -10.7653,-1.0791 -21.1819,-6.1128 -31.5239,-5.4244 -42.3879,28.1953 -82.3387,61.0087 -124.6339,88.5512 -14.0546,5.9507 -28.6795,-2.8261 -42.7989,-4.439 -114.2457,-25.9774 -229.0342,-53.8685 -343.0787,-80.7088 -13.8352,6.9164 -80.0153,16.4375 -91.9188,19.5736 -0.4216,1.4681 1.0533,30.5702 -13.4028,34.1468 -19.7367,3.5392 -46.9231,10.0894 -65.6486,13.9442 0.66,1.1169 43.6,8.7499 49.8002,9.8319 389.9447,73.1644 758.3702,142.6213 1148.0535,217.1653 4.556,-0.908 11.7526,5.3024 14.7413,1.4501 79.8742,-191.1735 160.0492,-382.95 239.2224,-574.4149 -161.312,-17.4048 -163.2695,-17.7389 -247.6807,-26.1787 -0.2432,0.6514 -6.6626,7.3816 -11.1745,13.718 22.2203,2.7862 25.514,1.0567 30.4941,8.3123 1.7306,3.5405 1.807,6.8445 0.9785,9.2625 -1.4175,4.137 -5.2823,5.9759 -11.9178,9.1795 -23.8312,12.1111 -46.7663,22.565 -70.6005,35.4239 -20.0622,23.5204 -40.2773,51.1505 -60.9817,72.2023 -7.4566,3.5553 -13.9438,5.6443 -21.4055,5.6788 -10.7472,0.05 -22.4129,-2.5032 -35.483,-3.545 -10.6821,-1.1748 -19.7419,-3.8185 -29.4049,-3.7234 -12.7442,6.052 -14.1671,7.0451 -31.6922,14.3146 -37.0805,-5.9516 -62.7827,-7.8414 -101.878,-14.5416 -4.1334,-4.965 -1.6193,-10.804 -2.3069,-17.2818 -88.0976,-11.021 -177.6386,-23.9058 -265.7909,-34.0641 -12.8356,2.449 -25.5228,7.8159 -37.928,10.954 -33.5078,-4.9328 -67.4128,-7.9928 -100.5484,-14.9749 -4.1982,-4.9545 1.6206,-17.1816 -6.1733,-14.8805 -15.0949,-3.0551 -33.3659,-1.8568 -47.6659,-7.7547 -8.2087,-5.6508 -8.3236,-17.8914 -0.1499,-23.7667 38.4959,-39.7105 77.3898,-79.4145 115.8531,-118.7007 -62.5645,-7.6384 -111.3827,-12.6755 -190.4646,-20.2779 2.2341,17.0623 11.3558,32.7657 -3.0318,46.9515 -35.3477,25.5206 -69.639,49.7947 -105.8173,73.5532 -19.9789,8.9961 -42.005,2.3815 -63.5695,0.4576 -64.0032,-8.9929 -128.1346,-15.9881 -191.9916,-25.4965 -15.1311,-1.3788 -17.3079,-24.6813 -3.767,-30.4223 42.1533,-26.071 89.6815,-43.2779 132.0128,-69.0176 5.0676,-4.656 0.2546,-10.9098 -0.2646,-21.5823 -46.0941,-3.5682 -93.4485,-10.502 -139.7318,-14.1247 z"
       id="path197" />
    <path
       style="display:inline;fill:#9f5800;fill-opacity:0.498039;fill-rule:nonzero;stroke:none;stroke-width:2;stroke-opacity:1"
       d="m 610.73214,1757.4805 c -0.1053,77.8657 -0.43803,155.8785 -0.65331,233.6522 15.24469,7.5 31.85037,12.0889 47.72203,18.1762 28.27923,9.8801 56.6963,20.4554 84.97542,29.6798 1.36397,-41.3549 0.62319,-82.781 0.91938,-124.1641 0.0696,-106.7839 0.024,-213.5679 0.0372,-320.3518 -4.18613,-14.8206 -7.66932,-29.9744 -12.5032,-44.5331 -39.86854,-8.7674 -80.03513,-16.1402 -120.05552,-24.1853 -0.14733,77.242 -0.29466,154.4841 -0.44199,231.7261 z"
       id="path198" />
    <path
       style="fill:#9f5800;fill-opacity:0.498039;fill-rule:nonzero;stroke:none;stroke-width:2;stroke-opacity:1"
       d="m 683.03684,1386.2171 c -53.17922,10.1155 -105.97,22.3087 -158.76352,34.261 -4.49699,1.9417 -12.26387,1.7096 -14.59574,6.2131 65.49141,13.9176 131.74048,25.5568 197.65041,37.9074 -7.08124,-26.2913 -14.64261,-52.6884 -23.1926,-78.4585 h -0.24126 z"
       id="path199" />
    <path
       style="fill:#9f5800;fill-opacity:0.498039;fill-rule:nonzero;stroke:none;stroke-width:2;stroke-opacity:1"
       d="m 504.2747,1464.4754 c 0.57862,8.7181 -1.57798,18.4752 1.54258,26.6217 73.34042,16.4307 147.59562,29.6078 221.08684,44.7143 -4.27446,-19.0113 -9.70747,-38.4573 -15.85957,-56.978 -68.69361,-13.6691 -137.60604,-26.2247 -206.41308,-39.3114 -0.11892,8.3178 -0.23785,16.6356 -0.35677,24.9534 z"
       id="path200" />
    <path
       style="display:inline;fill:#9f5800;fill-opacity:0.498039;fill-rule:nonzero;stroke:none;stroke-width:2;stroke-opacity:1"
       d="m 1747.4517,1673.3762 c -52.1622,9.4727 -120.4009,21.5928 -172.8316,29.5785 10.636,3.2248 37.062,7.8478 45.2366,8.8629 426.344,85.443 823.293,160.8204 1249.5866,246.5154 12.7911,3.2146 26.5813,4.3525 38.7611,8.9926 4.1835,3.3823 8.2156,-5.5652 12.1643,-6.8035 21.0732,-17.4772 43.1791,-34.844 63.0216,-53.1082 -146.0118,-28.3056 -292.2917,-55.3064 -438.4066,-83.11 -265.9847,-50.1126 -518.2985,-99.627 -784.4273,-148.9653 z"
       id="path201" />
    <path
       style="fill:#9f5800;fill-opacity:0.498039;fill-rule:nonzero;stroke:none;stroke-width:2;stroke-opacity:1"
       d="m 1783.9081,1757.0042 c -1.1189,49.1252 -0.7583,98.2984 -0.4507,147.4391 0.4513,3.2795 -0.5441,7.3299 1.2431,10.1694 42.8853,11.7727 85.6875,24.1742 127.4325,39.5507 3.6282,2.7418 5.4634,0.7066 4.6461,-3.3553 0.8438,-55.2775 0.6727,-110.5805 -0.036,-165.86 0.3126,-4.7883 -7.6824,-2.2739 -10.669,-4.1787 -40.7324,-7.8358 -81.4344,-16.0836 -122.1658,-23.7652 z"
       id="path202" />
    <path
       style="display:inline;fill:#7fcfc5;fill-opacity:1;fill-rule:nonzero;stroke:none;stroke-width:2;stroke-opacity:1"
       d="m 648.47096,1109.4037 c -11.52649,1.2871 -25.44284,-1.3002 -34.9963,6.531 0.90203,12.3128 7.43215,23.9284 10.60334,35.9112 81.34204,244.2159 149.84244,492.658 207.54587,743.4874 12.42429,56.6574 25.85101,113.1788 35.40705,170.4017 0.0767,5.0348 8.48153,3.6629 11.82358,5.5357 49.2589,10.4814 99.34103,20.5987 148.42,29.6733 -34.5659,-213.7908 -82.655,-425.1802 -136.18034,-634.9518 -23.41538,-89.9348 -47.36863,-179.7955 -75.04152,-268.5222 -3.98955,-15.3427 -21.49969,-19.5925 -33.97304,-25.9499 -26.37703,-11.5834 -54.64452,-17.4857 -82.52619,-24.001 -5.90379,-4.0473 1.17328,-13.2569 7.31143,-10.5506 36.19263,6.4778 72.70112,16.363 104.41361,35.4915 9.90784,5.3262 16.28141,14.8274 18.40989,25.7689 46.45166,153.7001 86.35825,309.3263 123.05112,465.6227 32.39071,140.4539 62.34754,281.5848 85.02224,423.9625 3.0999,4.9695 -2.5898,16.3184 4.6775,16.2758 8.9261,0.7305 18.4834,3.7976 27.1155,3.2675 -42.4021,-222.5771 -88.05302,-444.9463 -144.01707,-664.6635 -23.7618,-93.0396 -50.09951,-185.4404 -80.23089,-276.6273 -18.89291,-20.1493 -46.16854,-29.3552 -71.81199,-37.585 -40.57027,-11.4917 -82.76117,-19.0981 -125.02379,-19.0779 z"
       id="path203" />
  </g>
</svg>
