<?xml version="1.0" encoding="UTF-8" standalone="no"?>
<!-- Created with Inkscape (http://www.inkscape.org/) -->

<svg
   version="1.1"
   id="svg1"
   width="132.92726"
   height="149.61086"
   viewBox="0 0 132.92726 149.61086"
   xmlns="http://www.w3.org/2000/svg"
   xmlns:svg="http://www.w3.org/2000/svg">
  <defs
     id="defs1" />
  <g
     id="g1"
     transform="translate(341.37982,58.328691)">
    <g
       id="group-R5">
      <path
         id="path2626"
         d="m -223.03076,-13.533736 c -0.13067,-0.102667 -0.272,-0.193334 -0.432,-0.258667 l -0.28133,-0.07867 -0.156,-0.108 c -0.36667,-0.270666 -0.76,-0.506666 -1.15734,-0.730666 -0.71066,-0.752 -1.54,-1.437334 -2.34533,-2.121334 -0.17733,-0.152 -0.33867,-0.318666 -0.50933,-0.478666 0.256,-2.364 -1.22667,-4.785333 -2.55067,-6.661333 -2.048,-2.904 -4.064,-6.153334 -6.516,-8.736 -0.3,-0.708 -0.888,-1.026667 -1.54266,-1.070667 -1.18267,-1.642666 -3.204,-2.992 -4.71867,-3.852 -2.62267,-1.490666 -6.1168,-2.792 -9.3876,-3.048 -2.70213,-1.668 -6.6636,-0.977333 -9.60933,-0.708 -1.762,0.16 -4.0912,0.285334 -6.23547,0.733334 -2.4484,-0.484 -5.2344,-0.294667 -7.32293,-0.185334 -1.89734,0.09867 -4.82454,0.09333 -7.2416,0.694667 -0.81467,0.04933 -1.64854,0.06667 -2.51827,0.0027 -3.7704,-0.278667 -6.57653,1.076 -9.47347,3.389333 -2.3792,1.898667 -6.87293,5.153333 -8.73173,8.546666 -4.35573,2.718667 -8.09067,6.24 -12.24853,9.232 -2.84427,2.046667 -6.00094,4.374667 -5.03747,8.202667 0.40413,1.6039995 1.49587,3.0719995 2.21667,4.5439995 1.338,2.7346666 2.4136,5.59733316 3.90733,8.2546664 1.4416,2.5626666 3.0656,5.0093332 4.64107,7.4919998 1.38866,2.1880003 2.49173,4.5453333 3.7772,6.7906663 0.11613,3.468 3.7672,8.101333 5.25613,10.496 1.5996,2.570667 3.14333,5.146667 4.58653,7.813333 1.70054,3.141333 3.52867,8.798667 7.19427,10.054667 l 0.1588,0.288 c 0.12867,0.301333 0.22613,0.616 0.29067,0.943999 0.11773,0.413334 0.39373,0.666667 0.724,0.792 4.03746,6.641334 9.19533,12.449333 13.88853,18.662667 0.30053,0.397333 0.72133,0.668 1.18173,0.818666 l 0.0484,0.181334 c -0.009,2.02 2.66987,3.478666 4.09427,1.526666 0.536,-0.733333 0.75267,-1.629333 0.83187,-2.556 1.58066,-3.573333 2.8296,-7.282666 4.17653,-10.949333 0.23173,-0.632 0.526,-1.294666 0.84587,-1.977333 2.914,-0.364 4.40306,-3.912 5.46293,-6.293333 0.49747,-1.117333 1.04373,-2.202667 1.61253,-3.276 0.56147,-0.238667 1.06507,-0.673333 1.40054,-1.370667 0.44586,-0.926666 0.87346,-1.861333 1.2984,-2.798666 2.1964,-4.476 4.8668,-8.674667 7.5908,-12.865333 2.22666,-3.426667 5.83466,-7.893333 6.71066,-12.166667 2.572,-2.754666 4.21334,-6.3426662 6.38267,-9.4133328 2.74266,-3.88133323 6.51066,-6.8906665 8.78133,-11.0919997 0.42933,-0.7946667 0.392,-1.5146666 0.0867,-2.0933333 0.24533,-0.196 0.444,-0.44 0.58,-0.7093333 0.504,-0.2066667 0.93866,-0.5893329 1.16533,-1.1199999 0.40267,-0.941333 -0.0307,-2.184 -0.876,-2.741333"
         style="fill:#ae2a7c;fill-opacity:1;fill-rule:nonzero;stroke:none;stroke-width:0.133333" />
      <path
         id="path2627"
         d="m -225.07343,-7.6017365 c -0.11466,-0.648 -0.89733,-0.9853333 -1.368,-0.432 -1.09066,1.2813333 -2.54933,2.2266666 -4.07466,3.1213333 -0.12934,-0.070667 -0.26934,-0.1333334 -0.42934,-0.1706667 -2.34933,-0.5586667 -5.41599,2.0799999 -7.07866,3.4839999 -0.908,0.768 -2.29867,2.14533329 -3.008,3.6066666 -0.3,0.2386667 -0.56667,0.5373333 -0.772,0.916 -1.75733,3.2466666 -3.09867,6.7279998 -4.132,10.2879994 -0.53067,0.970667 -1.056,1.942667 -1.536,2.930667 -0.30533,0.629333 -0.34133,1.248 -0.192,1.812 -0.60533,1.164 -1.2152,2.328 -1.8152,3.498666 -2.21773,4.325334 -4.4744,8.725334 -5.93853,13.370667 -1.46774,4.657333 -4.40627,9.102666 -5.0656,13.975999 -0.12707,0.942667 1.00986,1.453334 1.6416,0.756 2.7048,-2.988 3.96253,-7.438666 5.6048,-11.070666 1.028,-2.274667 2.39786,-4.376 3.51346,-6.610666 1.1528,-2.309334 3.01814,-4.021334 4.24747,-6.233334 1.12533,-2.025333 2.252,-4.088 3.24933,-6.205333 0.176,-0.214667 0.332,-0.456 0.432,-0.762666 0.0533,-0.164 0.10267,-0.329334 0.156,-0.494667 3.15467,-5.361333 5.89467,-10.9986665 9.72267,-15.9293331 2.296,-2.95866657 7.60666,-5.5533332 6.84266,-9.8506664"
         style="fill:#81296b;fill-opacity:1;fill-rule:nonzero;stroke:none;stroke-width:0.133333" />
      <path
         id="path2628"
         d="m -291.48089,-22.244403 c -0.91507,-0.518666 -1.90467,-0.657333 -2.72187,-1.382666 -0.31666,-0.281334 -0.65053,-0.430667 -0.98173,-0.492 -0.48333,-0.769334 -0.95307,-1.556 -1.55307,-2.222667 -0.96773,-1.074667 -2.33493,-4.068 -4.148,-3.361333 l -0.0703,0.02667 c -0.24694,0.096 -0.4568,0.242667 -0.6328,0.42 -1.09894,0.249334 -2.05267,1.008 -3.12867,1.836 -2.21307,1.701334 -4.32707,3.569334 -6.4536,5.376 -3.42293,2.908 -8.26147,5.166667 -10.17293,9.444 -0.81827,1.830667 1.05106,3.3319999 2.752,2.8533332 0.48546,-0.1373333 0.97293,-0.3026662 1.45893,-0.4813332 0.4844,0.6999999 1.25147,1.2973332 1.80933,1.6933332 0.4532,0.3213333 0.9828,0.624 1.5448,0.8986666 1.276,0.912 2.69894,1.6933333 3.68547,2.4226666 1.49373,1.1066667 2.9072,2.2893333 4.352,3.4573333 0.4308,0.3493333 0.8396,0.7186666 1.25893,1.06666663 0.50987,0.77733331 1.39427,1.22799996 2.2932,1.30799996 l 0.17027,0.0493333 c 0.2204,0.0493333 0.45373,0.0133333 0.66253,-0.0813333 1.03747,-0.18933333 1.924,-0.92799997 2.02654,-2.31199989 0.22453,-3.0266666 3.236,-6.4746666 4.7016,-8.9933334 0.38693,-0.665333 2.54013,-3.668 3.49266,-6.110666 0.524,-0.510667 0.8672,-1.185334 0.86307,-1.877334 0.55933,-1.128 0.3604,-2.649333 -1.2084,-3.537333"
         style="fill:#81296b;fill-opacity:1;fill-rule:nonzero;stroke:none;stroke-width:0.133333" />
      <path
         id="path2629"
         d="m -241.96009,-2.3377366 -0.24667,-0.2706667 0.34934,0.050667 c -2.40534,-3.9159999 -5.11067,-7.6359997 -7.2448,-11.7159997 -0.99054,-1.894667 -1.54787,-5.592 -3.726,-6.504 -0.81254,-0.34 -1.838,-0.141334 -2.52454,0.424 -1.5572,-0.366667 -3.51866,0.105333 -5.00413,0.116 -0.57653,0.004 -1.15467,0.0013 -1.7344,-0.004 l -0.0375,-0.0013 h -0.006 c -3.0792,-0.02667 -6.18494,-0.133333 -9.23907,0.181334 -1.7276,0.178666 -3.4276,0.416 -5.13493,0.622666 -1.52027,-0.241333 -3.04054,-0.482666 -4.56507,-0.698666 -0.88853,-0.125334 -1.9516,-0.184 -2.99787,-0.102667 -0.398,-0.985333 -1.56826,-1.585333 -2.65626,-1.181333 -1.14947,0.426666 -2.5308,1.348 -3.01507,2.525333 -0.23653,0.574667 -0.23547,1.189333 -0.0735,1.746667 -1.80733,1.324 -3.20573,3.946666 -4.13906,5.426666 -1.07867,1.710667 -2.1036,3.4506671 -3.13907,5.1853338 -0.66933,1.1213333 -1.83747,2.3879999 -2.2464,3.6266665 -0.23693,0.7186667 -0.0484,1.58 0.39853,2.20666666 -0.162,0.0453333 -0.322,0.0826667 -0.48493,0.13466666 -1.75627,0.55733332 -0.45107,3.19466658 0.9776,2.44799998 0.174,-0.041333 0.3464,-0.076 0.51827,-0.1093334 0.1812,0.052 0.37853,0.073333 0.59373,0.048 1.59947,-0.1906666 3.2088,-0.2533333 4.82187,-0.2546666 1.98173,0.164 3.96093,0.4853333 6.0708,0.592 1.19213,0.06 2.43546,-0.1093334 3.65786,-0.424 3.6,-0.108 7.0828,-0.6186667 10.68907,-1.09200001 1.06507,-0.13866666 2.13227,-0.25999999 3.2004,-0.37333332 l 0.30213,0.0866667 c 6.03654,1.15066663 14.06667,1.25199993 19.8252,-1.26666663 0.25067,-0.0426667 0.50267,-0.08 0.756,-0.0973333 0.84934,0.71200015 1.76,1.36133347 2.73067,1.93600012 2.08667,1.23599978 5.204,-1.06799998 3.324,-3.26133342"
         style="fill:#de86b3;fill-opacity:1;fill-rule:nonzero;stroke:none;stroke-width:0.133333" />
      <path
         id="path2630"
         d="m -276.23502,60.610262 c -0.52347,-2.616 -2.00827,-5.210667 -3.262,-7.566667 -1.63014,-3.062666 -3.32707,-6.150666 -4.80987,-9.285333 -1.94013,-4.101333 -3.91973,-7.968 -6.4656,-11.535999 -0.0219,-2.208 -0.91147,-4.236 -1.64947,-6.370667 -0.99746,-2.886667 -2.1308,-5.722667 -3.24066,-8.566666 -0.79067,-2.025334 -1.66454,-5.244 -3.0724,-7.7506669 -0.5036,-2.3426666 -1.102,-4.7826666 -2.30774,-6.4386665 -0.2172,-0.2986667 -0.50946,-0.428 -0.8048,-0.4346667 0.13334,-0.492 0.0808,-1.036 -0.26973,-1.524 -2.14533,-2.9893332 -6.1656,-4.4773332 -9.33173,-6.1066665 -2.11987,-1.0893333 -4.40054,-2.2613332 -6.5896,-3.1799999 -0.50467,-0.2106666 -1.22347,0.1666667 -1.11987,0.7826667 0.1704,1.0053333 0.97347,1.8239999 1.9328,2.5133332 -0.30307,0.4866667 -0.39373,1.0826667 -0.0859,1.7013333 2.98174,5.9986665 6.24787,11.8826664 9.56347,17.7026663 1.18333,2.076 2.60533,4.008 3.8876,6.024 0.17387,3.325333 2.6036,6.361333 4.3692,9.082666 1.55733,2.4 3.186,4.744 4.686,7.184 1.78747,2.906667 3.3224,6.12 5.48067,8.770667 l 0.0557,0.122666 c 1.40987,3.085333 3.11933,5.866667 5.25373,8.496 0.83587,1.030667 1.5504,2.182667 2.49054,3.124 1.348,1.349333 2.08546,3.064 3.6776,4.102666 0.62093,0.405334 1.80053,0.09467 1.612,-0.846666"
         style="fill:#de86b3;fill-opacity:1;fill-rule:nonzero;stroke:none;stroke-width:0.133333" />
      <path
         id="path2631"
         d="m -249.99956,-34.200403 c 0.0172,-1.373333 -0.39893,-2.689333 -1.5604,-3.721333 -1.58133,-1.404 -4.58026,-2.137333 -6.6032,-1.476 -1.1224,0.368 -1.5896,1.930667 -0.84533,2.852 0.5428,0.669334 1.19333,1.046667 1.95787,1.416 0.26453,0.128 0.56146,0.214667 0.83386,0.326667 0.0968,0.04133 0.514,0.252 0.6724,0.325333 -0.0552,0.246667 -0.15786,0.541333 -0.2828,0.845333 -3.48906,0.524 -7.00786,1.284 -10.46466,1.841334 -2.15774,0.349333 -7.3656,0.890666 -7.07814,4.090666 0.29014,3.222667 5.87667,2.289334 7.89174,2.178667 4.81826,-0.264 9.14733,-1.464 13.76306,-2.708 1.2676,-0.341333 1.76667,-1.412 1.7776,-2.532 l 0.007,0.02933 c 0.1308,-1.206666 0.16094,-2.346666 -0.0692,-3.468"
         style="fill:#de86b3;fill-opacity:1;fill-rule:nonzero;stroke:none;stroke-width:0.133333" />
      <path
         id="path2632"
         d="m -276.83036,-12.609736 c -0.46773,-1.28 -1.5,-2.057334 -2.69626,-2.428 -1.3376,-1.848 -4.04427,-0.858667 -5.52614,0.273333 -1.87293,1.430667 -3.226,3.725333 -3.19053,6.1119999 0.0343,2.3239999 2.0176,4.5319998 4.3796,4.6319998 2.29427,0.098667 4.21827,-1.1466666 5.67613,-2.8293332 1.3452,-1.5533333 2.08387,-3.7733335 1.3572,-5.7599995"
         style="fill:#ffffff;fill-opacity:1;fill-rule:nonzero;stroke:none;stroke-width:0.133333" />
      <path
         id="path2633"
         d="m -269.45849,-13.248403 c -0.6208,-0.494667 -1.49373,-0.497333 -2.13587,-0.04533 -0.3,0.210666 -0.5552,0.501333 -0.66933,0.854666 -0.24533,0.758667 -0.1484,1.548 0.51467,2.077334 0.6192,0.4933329 1.48533,0.4946662 2.12706,0.04533 0.2968,-0.208 0.56667,-0.493333 0.68014,-0.845333 0.2464,-0.762667 0.14906,-1.556 -0.51667,-2.086667"
         style="fill:#ffffff;fill-opacity:1;fill-rule:nonzero;stroke:none;stroke-width:0.133333" />
      <path
         id="path2634"
         d="m -240.18009,-0.64840334 c -0.44533,-2.55599996 -3.4,-6.96266646 -4.28,-8.63199976 -1.39733,-2.6453329 -2.872,-5.2559999 -4.36453,-7.8479999 -0.5416,-0.941333 -1.1708,-2.382667 -1.99787,-3.385333 0.18493,-0.01333 0.37707,-0.08533 0.562,-0.241334 4.31373,-3.634666 8.6604,-7.223999 12.84573,-11.005333 3.168,4.445334 5.39067,9.458667 8.692,13.789333 1.28533,1.684 2.63467,3.318667 3.972,4.962667 0.45867,0.564 0.91333,1.129333 1.36667,1.698667 -5.60667,3.6026662 -11.98267,5.9213328 -16.796,10.66133266 z m 4.31867,8.16666644 c -4.26667,6.7933329 -8.868,13.3773329 -12.92094,20.2999999 -3.97706,6.794666 -7.44426,13.858666 -11.09853,20.826666 -0.2604,0.496 -0.5348,0.985333 -0.8036,1.477333 2.1828,-4.497333 4.33747,-9.004 6.24693,-13.626666 2.47654,-5.998667 4.7848,-12.06 7.42947,-17.988 2.42933,-5.449333 3.83067,-11.6253329 7.35867,-16.5013327 l 0.0267,-0.046667 c 0.14667,-0.124 0.268,-0.2973333 0.33734,-0.544 l 0.0173,-0.058667 0.048,-0.2453333 0.0747,-0.053333 c 3.89466,-3.4466666 8.54266,-5.6546665 13.04266,-8.1319998 -3.492,4.6946665 -6.64266,9.6306664 -9.75866,14.5919996 z m -35.4996,60.7613319 c -2.7136,-4.764 -4.39534,-9.789333 -6.4068,-14.94 -2.2912,-5.866666 -5.4912,-11.366666 -8.15414,-17.066666 -5.17453,-11.074666 -10.11506,-22.290666 -13.83386,-33.9386658 7.81506,2.128 16.5864,0.081333 24.4604,-0.3946666 5.70573,-0.3453333 11.4844,-0.2053333 17.20106,-0.3293333 5.1792,-0.112 10.98227,-0.64400002 16.1916,0.24 -2.63066,3.9039999 -4.032,8.4159997 -5.77066,12.7733327 -2.4944,6.249333 -5.32614,12.382667 -7.85534,18.625333 -2.5224,6.226667 -5.40106,12.262667 -8.35626,18.292 -2.676,5.46 -4.70934,11.361333 -7.476,16.738666 z m -11.7912,-15.230666 c -4.72187,-6.376 -8.94427,-13.161333 -13.15107,-19.884 -8.35,-13.344 -15.9416,-27.1639992 -22.26867,-41.5799988 5.32494,3.4026666 10.7296,6.6599998 16.34054,9.5773331 l 0.036,0.1306666 c -0.009,0.2293334 -0.0193,0.4573334 -0.0287,0.6853334 -0.0135,0.3226666 0.18653,0.5946666 0.44227,0.7493333 2.59266,11.9639994 8.6052,23.4119994 13.58946,34.4706654 2.748,6.097334 6.0996,11.902667 8.5324,18.142667 0.5468,1.402666 1.05934,2.814666 1.57854,4.221333 -1.75667,-2.116 -3.42494,-4.290667 -5.0708,-6.513333 z m -37.25147,-65.289332 c 1.74893,-3.321333 5.85773,-5.874667 8.53693,-8.204 1.97494,-1.717333 3.96667,-3.404 6.00107,-5.053333 1.3848,-1.124 3.6676,-2.433333 5.02293,-4.010667 2.89894,3.494667 6.3432,6.698667 10.2468,8.968 l -0.0525,0.165333 c -0.6844,3.681334 -3.26827,6.850667 -5.19333,9.973334 -1.9796,3.2119995 -3.3328,6.7533327 -5.13587,10.06399932 -6.60627,-3.74133322 -13.0636,-7.73733312 -19.41413,-11.89599932 z m 67.9796,-6.845333 c 1.6032,3.189333 3.57293,6.258666 5.22,9.4146662 1.18667,2.2706666 2.37333,4.5439999 3.51333,6.8399998 0.348,0.7013334 0.68267,1.4093333 1.008,2.12133333 -3.86266,-0.46800003 -7.9892,-0.19733333 -11.7872,-0.15866667 -6.07186,0.0626667 -12.13746,0.41999999 -18.21093,0.46533332 -8.92387,0.0666667 -17.8156,2.37999992 -26.68693,0.93199998 2.7776,-3.42933326 4.23493,-8.03333316 6.5844,-11.74799996 1.48906,-2.354666 3.7016,-5.193333 4.1088,-8.101333 7.3084,-0.654667 14.76466,0.377333 22.0672,0.770667 4.45,0.24 9.86666,0.942666 14.18333,-0.536 z m -37.2536,-20.473333 c 7.0984,-0.824 14.19213,-0.558667 21.3156,-0.772 5.45573,-0.164 10.78333,-0.956 16.1792,0.192 0.2848,0.06 0.51867,0.01067 0.702,-0.101333 2.27147,1.28 4.62613,2.402666 6.9648,3.552 1.39467,0.685333 2.76,1.417333 4.07867,2.238666 0.552,0.342667 1.016,0.718667 1.516,1.030667 -2.82934,2.650666 -5.772,5.172 -8.72934,7.68 -0.65466,0.448 -1.30826,0.901333 -1.96293,1.365333 -1.14733,0.813333 -2.6416,1.748 -3.4692,3.002667 -4.32813,1.594666 -10.012,0.678666 -14.5204,0.439999 -7.1708,-0.378666 -14.36293,-1.201333 -21.51867,-0.263999 0.0948,-0.357334 0.014,-0.741334 -0.35786,-0.957334 -4.12387,-2.408 -7.29214,-5.885333 -10.40254,-9.433333 l -0.0767,-0.194667 c 3.35053,-2.698666 6.8428,-5.195999 10.28133,-7.778666 z m 68.48826,27.107999 c -1.096,-2.16 -3.79066,-4.684 -5.196,-6.470666 -3.76,-4.782667 -6.024,-10.501333 -9.93999,-15.212 -0.15334,-0.184 -0.38134,-0.325333 -0.62667,-0.398666 -1.012,-1.681334 -3.544,-2.64 -5.17733,-3.470667 -2.988,-1.518667 -6.12534,-2.716 -9.06907,-4.328 -0.31827,-0.173333 -0.60213,-0.149333 -0.82453,-0.01733 -4.2412,-1.889334 -10.51934,-0.585334 -14.90414,-0.313334 -7.3172,0.454667 -14.56826,0.165334 -21.85733,1.057334 -0.3312,-0.436 -0.94373,-0.658667 -1.5052,-0.232 -3.8896,2.962666 -8.00787,5.696 -11.43227,9.209333 l -0.18333,0.296 c -0.2448,0.202666 -0.398,0.505333 -0.35,0.836 -2.12707,1.178666 -4.16987,3.541333 -5.84067,4.909333 -2.23693,1.833333 -4.3916,3.745333 -6.56666,5.649333 -2.07294,1.816 -8.70574,6.312 -7.96974,9.686667 0.0771,0.352 0.37907,0.624 0.7104,0.733333 6.11667,14.5039995 13.63694,28.350666 21.83067,41.777332 4.16413,6.824 8.47973,13.585333 13.02613,20.161333 2.2916,3.314667 4.7932,6.484 7.2708,9.658666 1.41294,1.812 3.0292,3.369334 4.42294,5.113334 0.9052,1.892 1.94733,3.72 3.24626,5.433333 0.55054,0.726666 1.71774,0.56 2.06094,-0.277333 0.0803,-0.194667 0.15106,-0.384 0.22666,-0.574667 0.11814,-0.096 0.22187,-0.222667 0.29787,-0.392 3.10987,-6.949333 7.4464,-13.224 11.1932,-19.829333 4.18333,-7.373333 7.73747,-15.081333 12.0224,-22.407999 3.83867,-6.565334 8.248,-12.796 12.288,-19.2399999 4.23066,-6.7493332 8.52666,-13.4559997 13.66266,-19.5626661 0.64667,-0.769333 -0.0133,-1.696 -0.816,-1.794667"
         style="fill:#422000;fill-opacity:1;fill-rule:nonzero;stroke:none;stroke-width:0.133333" />
      <path
         id="path2635"
         d="m -288.26316,19.602263 0.004,0.06933 -0.004,-0.06933"
         style="fill:#422000;fill-opacity:1;fill-rule:nonzero;stroke:none;stroke-width:0.133333" />
      <path
         id="path2636"
         d="m -286.89649,23.703596 0.005,0.068 -0.005,-0.068"
         style="fill:#422000;fill-opacity:1;fill-rule:nonzero;stroke:none;stroke-width:0.133333" />
      <path
         id="path2637"
         d="m -286.37769,14.73293 c -0.53853,-0.036 -1.0464,-0.253334 -1.58493,-0.290667 -0.60307,-0.04133 -0.6364,0.832 -0.0349,0.825333 0.5328,-0.0053 1.05267,0.170667 1.58814,0.164 0.3984,-0.004 0.43173,-0.670666 0.0317,-0.698666"
         style="fill:#422000;fill-opacity:1;fill-rule:nonzero;stroke:none;stroke-width:0.133333" />
      <path
         id="path2638"
         d="m -283.94902,18.015596 c -0.36987,-0.362666 -1.0068,-0.373333 -1.49227,-0.448 -0.58067,-0.09067 -1.15573,-0.150666 -1.74373,-0.168 -0.824,-0.02533 -0.7068,1.285334 0.126,1.285334 0.54333,0.0013 1.08706,0.06133 1.62866,0.096 0.474,0.03067 1.08227,0.106666 1.46,-0.24 0.16614,-0.152 0.18947,-0.361334 0.0213,-0.525334"
         style="fill:#422000;fill-opacity:1;fill-rule:nonzero;stroke:none;stroke-width:0.133333" />
      <path
         id="path2639"
         d="m -282.20329,21.851596 c -0.8952,-0.338667 -1.8276,-0.592 -2.78427,-0.664 -0.7376,-0.056 -0.7688,1.032 -0.0381,1.005333 0.89173,-0.03333 1.75213,0.153334 2.63187,0.265334 0.34626,0.044 0.54533,-0.472 0.19053,-0.606667"
         style="fill:#422000;fill-opacity:1;fill-rule:nonzero;stroke:none;stroke-width:0.133333" />
      <path
         id="path2640"
         d="m -276.09436,33.887596 c -1.05986,-0.278667 -2.06093,-0.626667 -3.0448,-1.113334 -0.67346,-0.332 -1.14746,0.734667 -0.47346,1.064 1.04893,0.513334 2.176,0.974667 3.3344,1.165334 0.7328,0.121333 0.8776,-0.934667 0.18386,-1.116"
         style="fill:#422000;fill-opacity:1;fill-rule:nonzero;stroke:none;stroke-width:0.133333" />
      <path
         id="path2641"
         d="m -272.93142,41.088929 c -0.41347,-0.816 -1.31707,-0.881333 -2.12134,-1.189333 -0.99373,-0.381334 -1.94786,-0.86 -2.87813,-1.374667 -0.8708,-0.482667 -1.46187,0.925333 -0.61187,1.410667 0.9276,0.529333 1.87707,1.002666 2.86294,1.413333 0.8292,0.346667 1.71253,0.861333 2.55053,0.382667 0.19427,-0.110667 0.3,-0.441334 0.19787,-0.642667"
         style="fill:#422000;fill-opacity:1;fill-rule:nonzero;stroke:none;stroke-width:0.133333" />
      <path
         id="path2642"
         d="m -233.57076,-19.56707 c -0.23466,0.710667 -0.516,1.409334 -0.92266,2.041334 -0.43734,0.677333 -1.03334,1.052 -1.64,1.546666 -0.56267,0.458667 -0.1,1.414667 0.616,1.146667 1.65466,-0.62 2.58266,-2.674667 3.05999,-4.241333 0.224,-0.736 -0.86399,-1.246667 -1.11333,-0.493334"
         style="fill:#422000;fill-opacity:1;fill-rule:nonzero;stroke:none;stroke-width:0.133333" />
      <path
         id="path2643"
         d="m -231.93876,-15.376403 c -0.45867,0.516 -0.89333,1.052 -1.34533,1.574667 -0.44,0.509333 -1.092,0.956 -1.372,1.568 -0.28,0.613333 0.34933,1.149333 0.93067,0.978666 0.64666,-0.192 1.15066,-0.889333 1.58533,-1.38 0.504,-0.569333 0.96933,-1.170666 1.468,-1.744 0.68533,-0.785333 -0.58,-1.773333 -1.26667,-0.997333"
         style="fill:#422000;fill-opacity:1;fill-rule:nonzero;stroke:none;stroke-width:0.133333" />
      <path
         id="path2644"
         d="m -296.28662,-50.344402 c -1.2948,-1.396 -2.76347,-2.614667 -4.64734,-3.077333 -1.288,-0.316 -1.5308,1.685333 -0.2844,2.02 1.28134,0.342666 2.36667,1.388 3.2224,2.352 0.91667,1.032 2.64374,-0.286667 1.70934,-1.294667"
         style="fill:#422000;fill-opacity:1;fill-rule:nonzero;stroke:none;stroke-width:0.133333" />
      <path
         id="path2645"
         d="m -291.78662,-52.079069 c -0.45147,-1.673333 -1.388,-3.213333 -2.50667,-4.524 -0.8344,-0.977333 -2.42867,0.198667 -1.6048,1.205334 1.00373,1.228 1.7344,2.565333 2.14333,4.101333 0.35054,1.317333 2.31974,0.52 1.96814,-0.782667"
         style="fill:#422000;fill-opacity:1;fill-rule:nonzero;stroke:none;stroke-width:0.133333" />
      <path
         id="path2646"
         d="m -287.90276,-56.852402 c -0.39373,-1.145333 -2.11613,-0.457333 -1.7416,0.68 0.41614,1.262667 0.84947,2.516 1.03067,3.838667 0.10213,0.746666 -0.24627,2.030666 0.80627,2.233333 0.28133,0.05467 0.64746,-0.07867 0.8084,-0.321333 1.12813,-1.705334 -0.31467,-4.716 -0.90374,-6.430667"
         style="fill:#422000;fill-opacity:1;fill-rule:nonzero;stroke:none;stroke-width:0.133333" />
      <path
         id="path2647"
         d="m -245.22409,-57.737735 c -0.168,0.569333 -0.36533,1.125333 -0.58933,1.674666 -0.26267,0.641334 -0.66134,1.233334 -0.78534,1.918667 -0.12533,0.682667 0.80134,1.34 1.35734,0.816 0.95333,-0.9 1.40533,-2.436 1.76933,-3.669333 0.34267,-1.16 -1.404,-1.917334 -1.752,-0.74"
         style="fill:#422000;fill-opacity:1;fill-rule:nonzero;stroke:none;stroke-width:0.133333" />
      <path
         id="path2648"
         d="m -230.78143,-55.532402 c -0.0627,-0.269333 -0.38933,-0.42 -0.64,-0.401333 -0.69866,0.05467 -0.924,0.445333 -1.36533,0.949333 -0.576,0.66 -1.23466,1.237333 -1.90266,1.801333 -1.24134,1.046667 -2.57334,1.978667 -3.81734,3.022667 -0.796,0.666667 0.14,1.964 0.96267,1.306667 1.37733,-1.102667 2.84,-2.092 4.22,-3.193334 1.00266,-0.798666 2.87866,-2.045333 2.54266,-3.485333"
         style="fill:#422000;fill-opacity:1;fill-rule:nonzero;stroke:none;stroke-width:0.133333" />
      <path
         id="path2649"
         d="m -325.15942,-26.803069 c -0.45947,-1.294667 -2.09334,-1.508 -3.28814,-1.801334 -1.63946,-0.401333 -3.31973,-0.602666 -4.95413,-1.034666 -1.23493,-0.326667 -1.48853,1.625333 -0.27867,1.956 1.46254,0.398666 2.95947,0.641333 4.44067,0.958666 1.16093,0.248 2.57867,1.074667 3.75053,0.634667 0.28587,-0.108 0.43067,-0.426667 0.32974,-0.713333"
         style="fill:#422000;fill-opacity:1;fill-rule:nonzero;stroke:none;stroke-width:0.133333" />
      <path
         id="path2650"
         d="m -330.12982,-16.88707 c -0.70254,-1.410666 -2.4968,-1.372 -3.90934,-1.477333 -2.062,-0.152 -4.13173,-0.02267 -6.1932,-0.210667 -1.31986,-0.121333 -1.61306,1.913334 -0.28653,2.04 1.85053,0.177334 3.7084,0.138667 5.56413,0.202667 1.4812,0.052 3.28587,0.793333 4.63227,0.07067 0.1916,-0.102667 0.28853,-0.432 0.19267,-0.625334"
         style="fill:#422000;fill-opacity:1;fill-rule:nonzero;stroke:none;stroke-width:0.133333" />
      <path
         id="path2651"
         d="m -327.45942,15.307596 c -1.2272,-0.2 -2.53654,0.922667 -3.5464,1.533334 -1.486,0.898666 -2.9172,1.896 -4.20934,3.058666 -0.762,0.685333 0.1656,1.984 0.95614,1.297333 1.19386,-1.033333 2.4948,-1.912 3.848,-2.722666 1.11146,-0.665333 2.82293,-1.096 3.43173,-2.282667 0.1896,-0.368 -0.0943,-0.82 -0.48013,-0.884"
         style="fill:#422000;fill-opacity:1;fill-rule:nonzero;stroke:none;stroke-width:0.133333" />
      <path
         id="path2652"
         d="m -315.49236,30.664929 c -1.09786,0.24 -1.92706,1.005334 -2.84733,1.614667 -1.18333,0.784 -2.43227,1.466666 -3.6588,2.177333 -1.09427,0.634667 0.0963,2.202667 1.17853,1.572 1.10427,-0.642667 2.21414,-1.274667 3.29694,-1.953333 1.0104,-0.633334 2.26306,-1.324 2.69013,-2.5 0.1484,-0.408 -0.1432,-1.024 -0.65947,-0.910667"
         style="fill:#422000;fill-opacity:1;fill-rule:nonzero;stroke:none;stroke-width:0.133333" />
      <path
         id="path2653"
         d="m -306.67716,48.198262 c -1.16306,0.288 -2.0584,1.326667 -2.9912,2.029333 -1.03746,0.781334 -2.09266,1.528 -3.0292,2.432 -0.79053,0.765334 0.23187,2.165334 1.03027,1.390667 1.0188,-0.989333 2.1792,-1.798667 3.3088,-2.653333 0.9256,-0.7 2.10373,-1.505334 2.20427,-2.758667 0.0244,-0.313333 -0.22187,-0.513333 -0.52294,-0.44"
         style="fill:#422000;fill-opacity:1;fill-rule:nonzero;stroke:none;stroke-width:0.133333" />
      <path
         id="path2654"
         d="m -295.54129,61.582262 c -1.03747,1.205333 -1.69107,2.765333 -2.53907,4.109333 -0.85986,1.364 -1.8036,2.673333 -2.75253,3.974667 -0.748,1.026666 0.80987,2.24 1.564,1.209333 1.07187,-1.466667 2.112,-2.950667 3.08333,-4.485333 0.824,-1.301334 1.74427,-2.674667 2.03654,-4.202667 0.15466,-0.806667 -0.90107,-1.174667 -1.39227,-0.605333"
         style="fill:#422000;fill-opacity:1;fill-rule:nonzero;stroke:none;stroke-width:0.133333" />
      <path
         id="path2655"
         d="m -269.64276,78.115595 c -0.15053,-0.418667 -0.83906,-0.496 -0.99853,-0.03467 -1.26773,3.66 -0.24893,8.218666 -0.37347,12.037333 -0.0437,1.334667 2.0256,1.64 2.07294,0.289333 0.136,-3.858666 0.61773,-8.626666 -0.70094,-12.291999"
         style="fill:#422000;fill-opacity:1;fill-rule:nonzero;stroke:none;stroke-width:0.133333" />
      <path
         id="path2656"
         d="m -245.80009,73.795595 c -0.99867,-1.113334 -1.976,-2.246667 -2.93067,-3.398667 -0.8792,-1.06 -1.70533,-2.652 -3.01413,-3.189333 -0.49173,-0.201333 -1.0964,0.186667 -1.02027,0.745333 0.1776,1.302667 1.2948,2.288 2.1124,3.26 1.0704,1.274667 2.182,2.514667 3.314,3.734667 0.83067,0.894666 2.37067,-0.224 1.53867,-1.152"
         style="fill:#422000;fill-opacity:1;fill-rule:nonzero;stroke:none;stroke-width:0.133333" />
      <path
         id="path2657"
         d="m -231.14143,59.355595 c -3.19733,-1.866666 -6.81733,-3.225333 -10.14399,-4.886666 -0.96267,-0.48 -1.61067,1.045333 -0.65734,1.530666 3.232,1.648 6.78267,4.164 10.492,4.38 0.624,0.03733 0.848,-0.709333 0.30933,-1.024"
         style="fill:#422000;fill-opacity:1;fill-rule:nonzero;stroke:none;stroke-width:0.133333" />
      <path
         id="path2658"
         d="m -227.50943,50.928929 c -1.504,-1.064 -3.23466,-1.526667 -4.98666,-2.036 -1.88933,-0.550667 -3.71067,-1.229334 -5.56133,-1.892 -0.78667,-0.281334 -1.572,0.817333 -0.79334,1.328 1.51334,0.990666 3.19467,1.546666 4.90934,2.092 1.93733,0.617333 3.89199,1.350666 5.88799,1.745333 0.67467,0.133333 1.11734,-0.833333 0.544,-1.237333"
         style="fill:#422000;fill-opacity:1;fill-rule:nonzero;stroke:none;stroke-width:0.133333" />
      <path
         id="path2659"
         d="m -212.00409,29.836929 c -0.38267,-1.332 -2.18134,-1.794666 -3.35334,-2.133333 -1.56133,-0.452 -3.17333,-0.665333 -4.752,-1.041333 -1.34666,-0.321334 -1.62933,1.809333 -0.29333,2.125333 1.22133,0.289333 2.46133,0.486667 3.68667,0.761333 1.284,0.289334 2.584,1.242667 3.86,1.344 0.616,0.04933 1.02133,-0.469333 0.852,-1.056"
         style="fill:#422000;fill-opacity:1;fill-rule:nonzero;stroke:none;stroke-width:0.133333" />
      <path
         id="path2660"
         d="m -211.96409,20.342263 c -2.556,-0.198667 -5.30134,-0.052 -7.86534,0.07733 -1.056,0.05333 -0.87466,1.681333 0.17334,1.625333 2.50933,-0.137333 5.44666,0.429334 7.79333,-0.633333 0.46133,-0.209333 0.5,-1.022667 -0.10133,-1.069333"
         style="fill:#422000;fill-opacity:1;fill-rule:nonzero;stroke:none;stroke-width:0.133333" />
      <path
         id="path2661"
         d="m -209.90009,-8.8057365 c -0.85467,-0.054667 -1.69334,-0.2426666 -2.548,-0.2986666 -1.13867,-0.073333 -1.17067,1.5973333 -0.0373,1.5573333 0.84934,-0.029333 1.696,0.073333 2.54534,0.044 0.74133,-0.026667 0.78533,-1.2546667 0.04,-1.3026667"
         style="fill:#422000;fill-opacity:1;fill-rule:nonzero;stroke:none;stroke-width:0.133333" />
      <path
         id="path2662"
         d="m -208.76276,-17.012403 c -0.92267,-0.38 -1.88133,-0.064 -2.79867,0.233333 -1.39066,0.452 -2.71866,0.921334 -4.19466,0.972 -1.284,0.04267 -1.04267,2.018667 0.228,1.973334 1.316,-0.048 2.55733,-0.394667 3.80266,-0.802667 1.072,-0.350667 2.41334,-0.661333 3.15734,-1.56 0.21333,-0.257333 0.12133,-0.686667 -0.19467,-0.816"
         style="fill:#422000;fill-opacity:1;fill-rule:nonzero;stroke:none;stroke-width:0.133333" />
    </g>
  </g>
</svg>
