<?xml version="1.0" encoding="UTF-8" standalone="no"?>
<!-- Created with Inkscape (http://www.inkscape.org/) -->

<svg
   version="1.1"
   id="svg1"
   width="28.331451"
   height="40.103012"
   viewBox="0 0 28.331452 40.103012"
   xmlns="http://www.w3.org/2000/svg"
   xmlns:svg="http://www.w3.org/2000/svg">
  <defs
     id="defs1" />
  <g
     id="g1"
     transform="translate(-202.49745,-93.111161)">
    <g
       id="group-R5">
      <path
         id="path2821"
         d="m 218.47173,99.200933 c 0.40666,2.886667 0.78133,5.789337 0.67466,8.710667 -0.024,0.664 -0.46,2.49867 -0.66133,3.81333 -2.04267,-1.364 -6.224,-2.53333 -7.424,-2.60666 -0.93067,-0.056 -1.684,0.18933 -2.26933,0.60666 l -0.06,-0.0533 c -1.88,-1.456 -4.00667,0.0947 -4.44134,2.03733 l -0.007,0.0253 c -0.22267,0.99733 0.48933,1.916 1.15866,2.52666 l 0.30934,0.216 c -0.544,2.86134 1.86133,5.276 4.02933,6.78134 1.08133,0.75066 2.16,0.90933 3.10933,0.67333 0.62,0.45067 1.24134,0.89867 1.85334,1.36133 0.87733,0.664 1.74133,1.34267 2.58133,2.05467 1.01733,0.86133 1.90267,1.22533 3.00133,1.856 0.432,0.248 0.87867,0.35333 1.32267,0.4 0.424,0.48 0.912,0.91467 1.484,1.288 1.32667,0.86933 3.656,0.54533 4.11733,-1.248 1.17867,-4.576 -0.42933,-9.89733 -0.192,-14.67467 0.25467,-5.132 0.496,-10.212 -0.872,-15.221331 -1.31866,-4.834666 -8.428,-3.610666 -7.71466,1.453334"
         style="fill:#ba313b;fill-opacity:1;fill-rule:nonzero;stroke:none;stroke-width:0.133333" />
      <path
         id="path2822"
         d="m 227.05306,105.53427 c 0.632,7.79066 -3.568,15.276 -1.67733,22.736 -4.84,-3.73467 -10.812,-5.93867 -15.04267,-10.488 -1.05733,-1.13734 -3.68933,-3.69067 -3.392,-5.172 1.26933,-0.89467 2.53867,-1.78934 3.80933,-2.68267 1.072,0.49067 2.03467,1.13867 2.88667,1.94533 2.06133,1.68267 3.61067,3.85334 5.80267,5.396 2.08666,1.46934 4.316,-1.17066 2.944,-3.13733 -2.488,-3.56533 -3.16,-9.03067 -3.12,-13.29733 0.024,-2.549337 0.21333,-5.557337 3.32133,-3.802671 2.808,1.586667 4.22933,5.542671 4.468,8.502671 z m -5.05067,-12.238671 c -7.196,-1.630666 -7.30933,7.882671 -5.75066,15.469331 -1.69734,-1.416 -3.52667,-2.59733 -5.8,-2.96933 -3.45067,-0.564 -7.48934,0.504 -7.9,4.44667 -1.12267,10.79733 15.448,18.41733 24.036,21.2 0.12666,0.24666 0.232,0.49333 0.37733,0.74133 1.272,2.17333 4.872,0.564 3.59333,-1.63867 -4.18133,-7.2 0.088,-15.424 0.148,-23.08666 0.0413,-5.34134 -2.752,-12.814671 -8.704,-14.162671"
         style="fill:#422000;fill-opacity:1;fill-rule:nonzero;stroke:none;stroke-width:0.133333" />
    </g>
  </g>
</svg>
