<?xml version="1.0" encoding="UTF-8" standalone="no"?>
<!-- Created with Inkscape (http://www.inkscape.org/) -->

<svg
   version="1.1"
   id="svg1"
   width="28.746269"
   height="36.867767"
   viewBox="0 0 28.746269 36.867767"
   xmlns="http://www.w3.org/2000/svg"
   xmlns:svg="http://www.w3.org/2000/svg">
  <defs
     id="defs1" />
  <g
     id="g1"
     transform="translate(-118.28391,-98.385834)">
    <g
       id="group-R5">
      <path
         id="path2813"
         d="m 138.84902,102.83211 c -1.19466,2.47467 -2.424,4.94667 -4.04,7.18 -0.368,0.508 -1.672,1.71733 -2.51866,2.64133 -0.88667,-2.14 -3.54934,-5.25066 -4.452,-5.93733 -0.69867,-0.532 -1.41867,-0.73467 -2.09734,-0.71467 l -0.0173,-0.0733 c -0.71067,-2.128 -3.19067,-2.028 -4.55067,-0.73467 l -0.0173,0.0173 c -0.69867,0.66533 -0.62267,1.75866 -0.41733,2.588 l 0.128,0.33066 c -1.92667,1.95734 -1.308,5.112 -0.4,7.42934 0.45333,1.156 1.216,1.84533 2.084,2.15866 0.24933,0.67867 0.50133,1.356 0.73866,2.03867 0.34,0.98133 0.65867,1.96667 0.944,2.96533 0.34534,1.208 0.84934,1.95867 1.38,3.02934 0.208,0.42 0.50267,0.73733 0.82534,1.008 0.0813,0.59733 0.236,1.19466 0.48666,1.78666 0.58534,1.37867 2.58,2.34534 3.88267,1.18267 3.324,-2.968 4.856,-7.98133 7.54933,-11.60133 2.892,-3.88934 5.74534,-7.744 7.30134,-12.38667 1.50266,-4.48133 -4.712,-7.250667 -6.80934,-2.908"
         style="fill:#ba313b;fill-opacity:1;fill-rule:nonzero;stroke:none;stroke-width:0.133333" />
      <path
         id="path2820"
         d="m 142.25302,112.29744 c -3.59333,6.436 -10.81066,10.1 -13.24266,16.93734 -1.83467,-5.46534 -5.35734,-10.32667 -6.28667,-16.11067 -0.232,-1.44533 -0.95733,-4.828 0.0547,-5.832 1.464,-0.036 2.928,-0.0707 4.392,-0.10533 0.58266,0.94666 0.99733,1.96 1.24133,3.04 0.73333,2.39866 0.80933,4.91333 1.71733,7.27333 0.86534,2.24667 3.996,1.34667 3.95334,-0.91467 -0.08,-4.1 2.26133,-8.73466 4.53066,-12.05733 1.35734,-1.98667 3.084,-4.244 4.59734,-1.23867 1.36933,2.716 0.40666,6.56267 -0.95734,9.008 z m 2.46134,-12.24133 c -4.784,-5.053333 -9.86267,2.34267 -12.62267,9.10667 -0.58667,-2 -1.40133,-3.88667 -2.98667,-5.37067 -2.40933,-2.252 -6.13466,-3.53333 -8.524,-0.65867 -6.54533,7.872 2.444,22.53734 7.71467,29.22267 -0.0307,0.26133 -0.0773,0.51067 -0.0933,0.78 -0.144,2.37067 3.52133,2.99733 3.67466,0.60133 0.50134,-7.836 8.16134,-12.04266 12.22934,-18.016 2.83466,-4.164 4.56533,-11.48666 0.608,-15.66533"
         style="fill:#422000;fill-opacity:1;fill-rule:nonzero;stroke:none;stroke-width:0.133333" />
    </g>
  </g>
</svg>
