<?xml version="1.0" encoding="UTF-8" standalone="no"?>
<!-- Created with Inkscape (http://www.inkscape.org/) -->

<svg
   version="1.1"
   id="svg1"
   width="149.47302"
   height="123.15192"
   viewBox="0 0 149.47302 123.15192"
   xmlns="http://www.w3.org/2000/svg"
   xmlns:svg="http://www.w3.org/2000/svg">
  <defs
     id="defs1" />
  <g
     id="g1"
     transform="translate(22.63909,-876.7263)">
    <g
       id="group-R5">
      <path
         id="path3498"
         d="m 84.596081,932.53477 c -0.72,0.49066 -1.697333,0.036 -2.389333,-0.336 -0.573334,-0.30934 -0.192,-1.17067 0.417333,-0.924 0.642667,0.25866 1.454667,0.228 1.996,0.664 0.188,0.152 0.176,0.46 -0.024,0.596 z m -2.478667,5.20933 c -0.697333,-0.392 -1.384,-0.75067 -2.148,-1.00133 -0.634666,-0.20667 -1.650666,-0.64667 -2.321333,-0.42267 -0.650667,0.216 -0.796,-0.896 -0.072,-0.832 0.445333,0.0387 0.945333,-0.14533 1.389333,-0.18 0.474667,-0.036 0.944,-0.0387 1.416,0.0293 0.917334,0.13067 1.834667,0.43467 2.581334,0.99334 0.744,0.55466 -0.016,1.88133 -0.845334,1.41333 z m -7.814666,7.78133 c -0.409334,-0.45466 -0.676,-1.012 -1.110667,-1.452 -0.433333,-0.43866 -0.853333,-0.852 -1.369333,-1.19333 -0.366667,-0.24133 -0.05733,-0.848 0.348,-0.75867 1.518666,0.332 3.226666,1.18934 3.592,2.84267 0.193333,0.87467 -0.988,1.088 -1.46,0.56133 z m -6.317333,4.61467 c -0.137334,-0.67733 -0.312,-1.212 -0.741334,-1.77467 -0.402666,-0.528 -0.906666,-0.94266 -1.345333,-1.43066 -0.201333,-0.224 0.02533,-0.54534 0.272,-0.57867 1.901333,-0.26133 3.833333,2.03867 3.698667,3.81867 -0.088,1.14666 -1.684,0.956 -1.884,-0.0347 z m -6.878667,2.36267 c -0.197333,0.788 -1.232,0.952 -1.574666,0.16533 -0.230667,-0.528 -0.232,-1.12267 -0.442667,-1.66267 -0.117333,-0.30133 -0.2,-0.724 -0.324,-0.97866 -0.113333,-0.236 0.148,-0.46267 0.368,-0.432 0.614666,0.084 1.073333,0.204 1.450666,0.82133 0.381334,0.62667 0.709334,1.34133 0.522667,2.08667 z m -7.694666,3.296 c -0.390667,-0.65067 -0.566667,-1.49867 -0.609334,-2.256 -0.036,-0.64267 -0.14,-1.41734 0.152,-2.01067 0.06933,-0.14 0.261334,-0.19333 0.382667,-0.0853 0.468,0.41333 0.728,1.17466 0.912,1.75733 0.210667,0.672 0.532,1.33067 0.624,2.032 0.1,0.76667 -1.037333,1.26667 -1.461333,0.56267 z m -9.297333,-0.704 c -0.825334,-1.53467 -0.150667,-3.448 0.172,-5.02267 0.128,-0.62667 0.981333,-0.56533 1.084,0.0413 0.256,1.51734 0.214666,3.05067 0.448,4.572 0.165333,1.07467 -1.266667,1.22534 -1.704,0.40934 z m -8.329334,-2.64534 c -0.273333,0.77334 -0.338666,1.68934 -1.025333,2.20667 -0.308,0.232 -0.861333,0.18933 -1.068,-0.16667 -0.88,-1.51466 0.817333,-4.28 2.210667,-5.02666 0.38,-0.204 1.006666,0.0147 0.874666,0.54666 -0.213333,0.864 -0.696,1.60667 -0.992,2.44 z m -4.859999,-3.27333 c -1.206667,0.74533 -2.526667,1.03467 -3.610667,2.02933 -0.525333,0.48134 -0.997333,1.01867 -1.332,1.652 -0.289333,0.54534 -0.457333,0.93734 -1.046667,1.184 -0.272,0.11467 -0.696,0.0173 -0.848,-0.25466 -0.810666,-1.448 0.917334,-3.34267 2.034667,-4.17867 1.273333,-0.952 3.070667,-1.968 4.697333,-1.46667 0.429334,0.13334 0.465334,0.812 0.105334,1.03467 z m 80.687994,-15.22933 c -6.004,-1.07467 -11.92133,-2.76667 -17.981329,-3.52134 -5.389334,-0.67066 -10.909333,-0.42533 -16.424,0.31334 -0.26,2.92533 -3.624,5.75333 -5.516,7.596 -3.361333,3.27333 -7.074666,6.57333 -11.658666,7.96933 -4.982667,1.51733 -10.325333,1.81867 -15.502666,1.36133 -5.182667,-0.45733 -11.292,-0.884 -16.389333,-2.57333 -4.258667,2.00933 -8.464,4.2 -12.673333,6.56933 -5.6840003,3.2 -11.2800001,6.632 -17.4173333,8.912 -3.2773332,1.21867 -6.7679998,2.53334 -10.2999997,3.48534 2.058667,0.192 4.0986665,0.452 6.0773331,1.252 3.1853333,1.288 6.05866656,3.18666 8.5493332,5.55866 5.4933332,5.23067 10.3813327,10.97347 16.5746667,15.4464 13.823999,9.9844 32.995999,13.6296 49.410665,8.36294 7.284,-2.33747 16.761333,-4.67334 22.438666,-10.0656 5.741333,-5.45307 8.256,-12.76774 10.737336,-20.08107 3.57866,-10.552 7.54666,-21.99467 15.804,-29.74267 -1.952,-0.152 -3.90667,-0.516 -5.72934,-0.84266"
         style="fill:#ff7290;fill-opacity:1;fill-rule:nonzero;stroke:none;stroke-width:0.133333" />
      <path
         id="path3499"
         d="m 82.274748,922.77477 c -0.489334,0.95733 -1.352,2.90266 -2.662667,2.70266 -0.22,-0.0347 -0.412,-0.19333 -0.488,-0.40266 -0.358667,-0.98667 0.696,-1.9 1.168,-2.684 0.577333,-0.96 0.96,-2.02934 1.329333,-3.07867 0.06667,-0.192 0.373334,-0.264 0.516,-0.11733 0.964,0.98533 0.726667,2.424 0.137334,3.58 z m -11.137333,4.17866 c -0.32,0.86534 -1.548,0.40667 -1.472,-0.428 0.06533,-0.70933 0.369333,-1.43066 0.396,-2.13466 0.0093,-0.24934 0.294666,-0.47334 0.518666,-0.268 0.766667,0.70266 0.912,1.87466 0.557334,2.83066 z m -5.553334,1.36134 c -0.302666,0.42 -1.114666,0.33866 -1.249333,-0.19734 -0.153333,-0.60266 -0.08,-1.26666 -0.0053,-1.88266 0.068,-0.56267 0.068,-1.10267 0.394666,-1.584 l 0.382667,-0.0867 c 1.158667,0.57867 1.144,2.82267 0.477333,3.75067 z m -3.836,0.18533 c -0.304,1.09867 -2.012,0.916 -1.801333,-0.27067 0.122667,-0.692 0.07867,-1.49066 0.318667,-2.14533 0.198666,-0.54533 0.858666,-0.46667 1.181333,-0.12533 0.556,0.59066 0.502667,1.81466 0.301333,2.54133 z m -6.691999,1.36933 c -0.338667,-0.992 -0.72,-2.31466 -0.369334,-3.34266 0.188,-0.55067 1.046667,-0.63067 1.352,-0.148 0.536,0.84266 0.782667,2.04 0.958667,3.012 0.204,1.12666 -1.573333,1.55466 -1.941333,0.47866 z m -6.845334,2.12 c -1.313333,-0.57733 -2.555999,-2.77066 -1.955999,-4.17866 0.143999,-0.336 0.623999,-0.468 0.906666,-0.216 0.473333,0.424 0.701333,1.03866 1.08,1.54133 0.352,0.46933 0.808,0.90933 1.112,1.404 0.472,0.77067 -0.212,1.85867 -1.142667,1.44933 z m -6.621333,2.61334 c -0.028,0.27466 -0.198666,0.50533 -0.530666,0.54533 l -0.08933,0.0187 h -0.0027 -0.0013 l -0.333333,0.0107 c -0.885333,-0.252 -1.290667,-0.96933 -1.710667,-1.74 -0.314666,-0.57733 -0.726666,-1.19466 -0.725333,-1.87333 0.0013,-0.53867 0.484,-0.98667 1.029333,-0.748 0.642667,0.28 0.972,0.88667 1.350667,1.44267 0.408,0.59866 0.977333,1.21066 1.069333,1.94933 0.016,0.12933 -0.0067,0.26533 -0.056,0.39467 z m -9.770666,3.61733 c -1.132,0.424 -2.433333,-0.728 -2.950667,-1.63867 -0.5,-0.88133 -1.029333,-2.036 -0.634666,-3.052 0.102666,-0.26266 0.436,-0.29733 0.641333,-0.148 0.912,0.668 1.074667,1.99334 1.96,2.712 0.429333,0.348 2.368,1.60934 0.984,2.12667 z m -5.166667,3.25333 c -0.905333,0.91334 -2.277333,0.94667 -3.424,0.41734 -0.638666,-0.29467 -1.274666,-0.65334 -1.786666,-1.14134 -0.445334,-0.42533 -0.690667,-0.912 -1.073334,-1.37333 -0.292,-0.35067 0.173334,-0.91867 0.573334,-0.69333 0.429333,0.24133 0.924,0.38 1.364,0.62133 0.362666,0.19867 0.714666,0.43333 1.096,0.59733 0.953333,0.412 1.876,0.304 2.854666,0.54 0.42,0.10134 0.762667,0.66267 0.396,1.032 z M 106.90541,917.3001 c -4.45066,-9.764 -7.797329,-19.42933 -15.314663,-27.408 -7.741333,-8.21866 -17.685333,-13.48933 -29.022666,-9.64266 -8.807999,2.98933 -13.046666,8.852 -15.163999,17.46533 1.62,1.66533 2.616,3.56 2.401333,5.672 -0.101333,1.004 -1.761333,1.28533 -2.034667,0.23867 -1.12,-4.28267 -5.995999,-6.89867 -9.675999,-8.68667 -3.881334,-1.88533 -7.872,-3.384 -12.252,-3.428 -12.509333,-0.12667 -22.9973327,8.45867 -26.51599932,20.296 -3.75466658,12.632 -0.85066668,26.50133 -5.58533318,38.88133 -1.652,4.31867 -4.2559995,8.54133 -7.8999995,11.488 3.76,-1.32133 7.7226662,-2.25733 11.3719994,-3.712 6.0946665,-2.43067 11.6626664,-5.81333 17.3586666,-9.036 11.622666,-6.576 23.173332,-11.984 36.122665,-15.38933 6.413334,-1.68667 12.882667,-3.19334 19.397333,-4.43334 6.234667,-1.188 12.613333,-2.57066 18.996,-2.21733 6.112,0.33867 12.002669,1.76267 17.973329,3.00667 2.88667,0.60133 5.772,1.10666 8.692,1.51466 0.71467,0.1 1.448,0.20134 2.184,0.27067 -5.31466,-2.98133 -8.66266,-9.68 -11.032,-14.88"
         style="fill:#db517a;fill-opacity:1;fill-rule:nonzero;stroke:none;stroke-width:0.133333" />
      <path
         id="path3500"
         d="m 118.91341,930.51743 c -0.50533,-0.22133 -1.012,-0.42533 -1.51733,-0.64 0.003,-0.904 -0.356,-1.82533 -1.24667,-2.49333 -4.66533,-3.49867 -10.64933,-4.83467 -16.675996,-5.20667 -1.2,-0.58133 -2.336,-1.12666 -3.2,-1.38933 -3.421333,-1.03733 -7.032,-1.67467 -10.576,-2.10533 -3.633333,-0.44134 -7.334666,-0.75867 -11.052,-0.94934 -10.762666,-1.10933 -21.602666,-0.856 -32.078665,1.984 -17.573333,4.764 -29.645333,20.292 -42.26133268,32.34534 -4.36133322,2.384 -8.78799982,4.64133 -13.33066632,6.66 -0.102667,0.204 -0.192,0.412 -0.313333,0.608 l 0.064,-0.0827 -0.072,0.0987 c -0.076,0.12133 -0.173334,0.23066 -0.254667,0.34933 -0.394667,0.54133 -0.776,1.088 -1.222667,1.612 -0.446666,0.52267 -1.024,0.95067 -1.664,1.28533 0.498667,1.59467 2.361334,2.98667 4.389334,2.12934 4.9533328,-2.09734 9.7493327,-4.54534 14.4986659,-7.084 0.4773334,-0.10667 0.952,-0.33334 1.392,-0.748 v 0 c 3.8159999,-2.056 7.6106661,-4.15334 11.4400001,-6.16267 4.089333,-2.14533 7.911999,-4.82267 11.858666,-7.21467 5.397333,-3.272 11.354666,-5.112 17.158666,-7.492 2.649333,-1.08666 5.414667,-2.10933 8.246667,-3.04933 0.588,1.508 2.384,2.73867 4.32,1.9 8.985333,-3.89333 18.574666,-5.29067 28.239999,-6.34 2.030666,-0.22133 4.193333,-0.428 6.409333,-0.55867 8.461333,1.28667 16.741336,4.25467 24.471996,7.63467 3.448,1.508 6.452,-3.57067 2.976,-5.09067"
         style="fill:#c23b6b;fill-opacity:1;fill-rule:nonzero;stroke:none;stroke-width:0.133333" />
      <path
         id="path3501"
         d="m 97.306747,894.90677 c -3.468,-7.05067 -9.189333,-11.79467 -15.798666,-15.79867 -3.261333,-1.976 -6.222667,3.124 -2.977333,5.09067 5.806666,3.51733 10.638666,7.49067 13.683999,13.684 1.678667,3.412 6.762667,0.42267 5.092,-2.976"
         style="fill:#c23b6b;fill-opacity:1;fill-rule:nonzero;stroke:none;stroke-width:0.133333" />
      <path
         id="path3502"
         d="m 2.2934163,918.0921 c 0.6586666,-4.044 2.2146666,-7.836 2.5466666,-11.932 0.3066666,-3.792 -5.59199989,-3.76266 -5.8973332,0 -0.332,4.1 -1.976,8.15734 -2.6413333,12.236 -0.672,4.124 0.724,8.116 0.168,12.224 -0.5053333,3.71733 5.1759999,5.32133 5.6853332,1.568 0.6453333,-4.75467 -0.6346666,-9.36 0.1386667,-14.096"
         style="fill:#c23b6b;fill-opacity:1;fill-rule:nonzero;stroke:none;stroke-width:0.133333" />
      <path
         id="path3503"
         d="m 114.46675,933.73343 -0.30267,0.18667 c -1.48267,-0.328 -3.01867,-0.416 -4.524,-0.67867 -0.332,-0.276 -0.80933,-0.368 -1.27067,-0.28133 l -0.13466,-0.0293 c -0.952,-0.268 -1.608,0.372 -1.77334,1.12 l -0.04,0.0947 c -0.10666,0.53734 -0.17866,1.072 -0.22266,1.60534 -5.348,10.9 -7.802669,23.46933 -12.008003,34.82266 -3.748,10.12107 -10.611999,16.03614 -19.890666,19.7132 -0.12,-0.007 -0.236,-0.024 -0.361333,-10e-4 -7.849333,1.424 -14.358666,3.08226 -22.549333,2.49066 -9.561333,-0.6896 -18.941333,-6.1844 -26.858666,-11.15466 -7.658666,-4.80814 -13.498666,-11.52947 -20.8679994,-16.62814 -4.57733325,-3.16533 -11.2826664,-4.67333 -15.6973326,-0.66666 -0.218667,0.19866 -0.03333,0.57333 0.22,0.61866 10.2679994,1.85067 14.8586659,8.72667 22.141332,15.28294 6.9,6.2104 14.998667,11.14786 23.453333,14.94893 7.24,3.25467 15.498666,4.13747 23.352,3.7468 5.767999,-0.28533 14.318666,-1.0692 18.498666,-5.49893 l 0.028,-0.0437 c 8.618666,-1.42546 16.997333,-6.25466 21.333333,-13.90413 4.974669,-8.77587 8.941329,-19.2492 11.154669,-29.7492 0.35066,-0.58267 0.66666,-1.16533 0.95733,-1.66267 1.18933,-2.02933 2.05333,-4.21866 2.23467,-6.508 1.48533,-1.52266 3.27333,-2.83733 5.36,-4.00533 2.488,-1.39333 0.25866,-5.21333 -2.232,-3.81867"
         style="fill:#db517a;fill-opacity:1;fill-rule:nonzero;stroke:none;stroke-width:0.133333" />
      <path
         id="path3504"
         d="m 72.221415,939.5521 c 0.02667,-0.212 0.064,-0.42 0.07467,-0.63467 0.016,-0.35066 -0.444,-0.64 -0.754666,-0.49733 -0.357334,0.164 -0.694667,0.35733 -1.037334,0.54133 -0.728,0.009 -1.485333,0.29067 -2.134666,0.98534 -0.248,0.26533 -0.490667,0.53466 -0.734667,0.80133 -2.913333,2.048 -5.610667,4.41067 -9.113333,5.62267 -3.569333,1.23466 -7.361333,1.144 -11.014667,1.57333 -2.114666,-0.82267 -4.245333,-1.58533 -6.557333,-1.38133 -1.166666,0.104 -2.265333,1.512 -1.672,2.67066 7.072,13.80934 33.518666,8.60534 34.025333,-7.164 0.036,-1.09333 -0.412,-1.96933 -1.081333,-2.51733"
         style="fill:#db517a;fill-opacity:1;fill-rule:nonzero;stroke:none;stroke-width:0.133333" />
      <path
         id="path3505"
         d="m 35.652082,895.61477 c -0.0027,-0.18267 -0.0053,-0.36667 -0.0067,-0.54933 -0.02,-1.396 -1.317333,-2.35867 -2.541333,-2.62667 l -0.101333,-0.016 c -0.416,-0.388 -0.904,-0.74133 -1.488,-1.03733 -2.378667,-1.204 -5.342667,-1.25067 -7.72,-0.16 -1.365333,-0.32667 -2.750667,-0.088 -4.014667,0.536 -1.189333,0.21466 -2.398666,0.47466 -3.635999,0.736 -1.18,0.24933 -1.905334,1.01066 -2.214667,1.892 -0.405333,0.18533 -0.793333,0.41866 -1.14,0.76533 l -0.03867,0.2 c 0.852,2.208 3.370667,3.23067 5.196,4.53067 1.070667,0.764 2.154667,1.51333 3.257333,2.23333 0.429334,0.47067 0.944,0.828 1.544,1.01467 0.413334,0.63066 1.012,1.17466 1.846667,1.584 4.684,2.29733 9.504,-2.44534 10.116,-7.09334 0.628,-0.47866 0.954666,-1.11333 0.941333,-2.00933"
         style="fill:#ff7290;fill-opacity:1;fill-rule:nonzero;stroke:none;stroke-width:0.133333" />
      <path
         id="path3506"
         d="m 72.928081,878.9321 c -1.153333,-0.0907 -2.249333,0.188 -3.281333,0.68934 l -0.05733,-0.11467 c -1.438667,-1.26933 -3.166667,-1.18933 -4.833334,-0.48533 -1.001333,-0.208 -2.068,-0.14267 -2.942666,0.24533 -2.237333,0.992 -4.005333,2.688 -5.478667,4.60933 -3.425333,0.29734 -5.502666,2.688 -7.092,5.568 -2.288,4.14667 -2.205333,7.216 -1.385333,11.748 0.402667,2.23334 2.329333,3.22267 4.426667,2.652 1.917333,-0.52133 4.792,-1.10133 6.026666,-2.856 1.349334,-1.91866 1.833333,-4.12666 2.512,-6.32933 1.594667,-2.10267 2.977333,-4.292 4.618667,-6.52533 1.378666,-1.87734 2.916,-3.58 4.689333,-5.09334 1.226667,-1.04533 2.404,-1.948 3.170666,-3.37733 0.148,-0.27467 -0.04667,-0.704 -0.373333,-0.73067"
         style="fill:#ff7290;fill-opacity:1;fill-rule:nonzero;stroke:none;stroke-width:0.133333" />
      <path
         id="path3507"
         d="m 48.705415,966.07877 c -2.038667,-0.89467 -4.473333,-1.048 -6.477333,-0.336 l -0.229333,0.10266 c -0.473334,-0.34533 -1.016,-0.588 -1.633334,-0.65333 -2.816,-0.30133 -4.905333,1.464 -6.012,3.93067 -0.812,1.80933 -0.736,3.64933 -0.09467,5.29466 0.036,3.83867 3.813333,6.9556 7.852,7.20414 1.836,0.112 3.644,-0.288 5.242666,-1.0708 2.497333,-0.45214 4.918667,-1.7428 6.497333,-3.348 4.197334,-4.268 0.142667,-10.94267 -5.145333,-11.124"
         style="fill:#ff939f;fill-opacity:1;fill-rule:nonzero;stroke:none;stroke-width:0.133333" />
      <path
         id="path3508"
         d="m 83.114748,959.30543 c -2.293334,-3.836 -7.136,-5.05466 -11.252,-3.89066 -4.524,1.28 -7.422667,5.43866 -7.328,10.08666 0.08267,4.08267 2.250667,6.804 5.148,8.04267 2.066667,1.52267 4.942666,2.08667 7.546666,0.82933 0.218667,-0.10533 0.429334,-0.23066 0.638667,-0.35466 1.06,-0.30934 2.054667,-0.77467 2.890667,-1.352 4.165333,-2.876 4.825333,-9.232 2.356,-13.36134"
         style="fill:#ff939f;fill-opacity:1;fill-rule:nonzero;stroke:none;stroke-width:0.133333" />
      <path
         id="path3509"
         d="m 54.825415,977.18143 c -0.738667,-1.52133 -2.190667,-2.40133 -3.877333,-2.46266 -0.133334,-0.004 -0.265334,0.0213 -0.398667,0.028 -0.294667,-0.0453 -0.598667,-0.0627 -0.918667,-0.016 -3.763999,0.544 -3.941333,6.1304 -1.5,8.2304 2.350667,2.02293 5.372,-0.0787 6.54,-2.27867 0.534667,-1.0052 0.658667,-2.4624 0.154667,-3.50107"
         style="fill:#ffffff;fill-opacity:1;fill-rule:nonzero;stroke:none;stroke-width:0.133333" />
      <path
         id="path3510"
         d="m 75.474748,974.68277 c -0.048,-0.46934 -0.264,-0.876 -0.510667,-1.26934 l -0.02533,-0.0533 c -0.106667,-0.24933 -0.225334,-0.47067 -0.36,-0.66 -0.356,-0.61333 -1.086667,-1.096 -1.738667,-1.16667 -2.730666,-0.29733 -3.941333,2.496 -3.116,4.74 0.450667,1.22534 1.761334,1.98534 3.042667,1.844 1.106666,-0.12133 1.938666,-0.83866 2.332,-1.77733 0.298666,-0.52133 0.441333,-1.02133 0.376,-1.65733"
         style="fill:#ffffff;fill-opacity:1;fill-rule:nonzero;stroke:none;stroke-width:0.133333" />
      <path
         id="path3511"
         d="m 65.996081,888.06277 c -0.03733,-0.27733 -0.269333,-0.532 -0.572,-0.49467 -4.909333,0.59734 -11.175999,11.49067 -5.903999,14.75467 0.570666,0.35333 1.317333,0.0253 1.722666,-0.40267 0.834667,-0.88266 1.022667,-1.82666 1.128,-3.02533 0.136,-1.55467 0.514667,-2.97867 1.144,-4.408 0.86,-1.95333 2.792,-4.188 2.481333,-6.424"
         style="fill:#ffffff;fill-opacity:1;fill-rule:nonzero;stroke:none;stroke-width:0.133333" />
      <path
         id="path3512"
         d="m 115.75341,931.90943 c -2.92,-0.408 -5.80533,-0.91333 -8.692,-1.51466 -5.97066,-1.244 -11.861329,-2.668 -17.973329,-3.00667 -6.382667,-0.35333 -12.761333,1.02933 -18.996,2.21733 -6.514666,1.24 -12.983999,2.74667 -19.397333,4.43334 -12.949333,3.40533 -24.499999,8.81333 -36.122665,15.38933 -5.6960002,3.22267 -11.2640001,6.60533 -17.3586666,9.036 -3.6493332,1.45467 -7.6119994,2.39067 -11.3719994,3.712 3.644,-2.94667 6.2479995,-7.16933 7.8999995,-11.488 4.7346665,-12.38 1.8306666,-26.24933 5.58533318,-38.88133 3.51866662,-11.83733 14.00666632,-20.42267 26.51599932,-20.296 4.38,0.044 8.370666,1.54267 12.252,3.428 3.68,1.788 8.555999,4.404 9.675999,8.68667 0.273334,1.04666 1.933334,0.76533 2.034667,-0.23867 0.214667,-2.112 -0.781333,-4.00667 -2.401333,-5.672 2.117333,-8.61333 6.356,-14.476 15.163999,-17.46533 11.337333,-3.84667 21.281333,1.424 29.022666,9.64266 7.517334,7.97867 10.864003,17.644 15.314663,27.408 2.36934,5.2 5.71734,11.89867 11.032,14.88 -0.736,-0.0693 -1.46933,-0.17067 -2.184,-0.27067 z M 31.886749,943.3921 c 6.668,-2.93733 13.513333,-5.40533 20.790666,-7.268 6.884,-1.76267 14.133333,-3.712 21.434666,-4.92133 -3.86,6.252 -10.761333,11.74666 -17.822666,13.24533 -5.016,1.06267 -10.256,0.77067 -15.309333,0.22267 -2.893333,-0.31334 -6.024,-1.008 -9.093333,-1.27867 z m 69.652001,21.14 c -2.481336,7.31333 -4.996003,14.628 -10.737336,20.08107 -5.677333,5.39226 -15.154666,7.72813 -22.438666,10.0656 -16.414666,5.26666 -35.586666,1.62146 -49.410665,-8.36294 -6.193334,-4.47293 -11.0813335,-10.21573 -16.5746667,-15.4464 -2.49066664,-2.372 -5.3639999,-4.27066 -8.5493332,-5.55866 -1.9786666,-0.8 -4.0186661,-1.06 -6.0773331,-1.252 3.5319999,-0.952 7.0226665,-2.26667 10.2999997,-3.48534 6.1373332,-2.28 11.733333,-5.712 17.4173333,-8.912 4.209333,-2.36933 8.414666,-4.56 12.673333,-6.56933 5.097333,1.68933 11.206666,2.116 16.389333,2.57333 5.177333,0.45734 10.519999,0.156 15.502666,-1.36133 4.584,-1.396 8.297333,-4.696 11.658666,-7.96933 1.892,-1.84267 5.256,-4.67067 5.516,-7.596 5.514667,-0.73867 11.034666,-0.984 16.424,-0.31334 6.059999,0.75467 11.977329,2.44667 17.981329,3.52134 1.82267,0.32666 3.77734,0.69066 5.72934,0.84266 -8.25734,7.748 -12.22534,19.19067 -15.804,29.74267 z m 25.27733,-32.93467 -0.052,-0.23733 c -0.14133,-0.64 -0.584,-0.98933 -1.23867,-0.976 -0.988,0.0187 -1.564,0.23867 -2.24666,0.68667 -1.23067,-0.47867 -2.48667,-0.71734 -3.724,-1.32267 -2.83467,-1.38667 -4.74267,-3.94667 -6.36667,-6.55067 -3.40267,-5.456 -5.61733,-11.53199 -8.12933,-17.41733 -4.196,-9.832 -11.094669,-18.932 -20.073336,-24.856 -14.362666,-9.47733 -36.535999,-2.28 -39.297332,15.28667 -3.816,-2.94533 -9.318667,-4.99467 -12.332,-5.99467 -9.68,-3.21466 -20.442666,-0.0387 -27.7973325,6.68534 -9.2879997,8.492 -10.5999997,21.36799 -11.193333,33.19599 -0.352,7.01067 -0.7586667,14.07334 -3.208,20.724 -1.1253333,3.05334 -2.9933335,5.752 -5.1546665,8.15467 -0.185333,0.20533 -2.473333,2.08267 -4.262667,3.584 -0.109333,-0.11067 -0.241333,-0.196 -0.42,-0.20267 -1.717333,-0.06 -3.162666,0.57067 -3.890666,2.196 -0.181333,0.404 0.0053,1.02667 0.465333,1.16534 0.290667,0.088 0.652,0.14133 1.032,0.17333 0.412,0.196 0.934667,0.14933 1.504,-0.0413 0.672,-0.096 1.301333,-0.31867 1.790667,-0.66667 0.586666,-0.072 1.174666,-0.168 1.762666,-0.27333 3.118667,1.49866 6.7693336,1.59466 9.9800001,3.00266 3.9186666,1.71734 7.0586665,4.85067 9.9119998,7.94534 5.2546665,5.69866 10.9453331,11.04146 17.4626661,15.27053 12.854666,8.3412 30.773333,10.88547 45.525332,6.90947 7.72,-2.08134 15.914667,-4.85214 22.777333,-9.0052 6.201333,-3.75214 9.773333,-10.55627 12.305336,-17.0908 5.06933,-13.08267 8.168,-28.45334 19.928,-37.32 1.60533,-0.29467 3.13066,-0.888 4.48666,-1.956 0.3,-0.236 0.54134,-0.67467 0.45467,-1.06934"
         style="fill:#422000;fill-opacity:1;fill-rule:nonzero;stroke:none;stroke-width:0.133333" />
      <path
         id="path3513"
         d="m 26.256082,940.44143 c -0.978666,-0.236 -1.901333,-0.128 -2.854666,-0.54 -0.381334,-0.164 -0.733334,-0.39866 -1.096,-0.59733 -0.44,-0.24133 -0.934667,-0.38 -1.364,-0.62133 -0.4,-0.22534 -0.865334,0.34266 -0.573334,0.69333 0.382667,0.46133 0.628,0.948 1.073334,1.37333 0.512,0.488 1.148,0.84667 1.786666,1.14134 1.146667,0.52933 2.518667,0.496 3.424,-0.41734 0.366667,-0.36933 0.024,-0.93066 -0.396,-1.032"
         style="fill:#422000;fill-opacity:1;fill-rule:nonzero;stroke:none;stroke-width:0.133333" />
      <path
         id="path3514"
         d="m 30.834749,936.09343 c -0.885333,-0.71866 -1.048,-2.044 -1.96,-2.712 -0.205333,-0.14933 -0.538667,-0.11466 -0.641333,0.148 -0.394667,1.016 0.134666,2.17067 0.634666,3.052 0.517334,0.91067 1.818667,2.06267 2.950667,1.63867 1.384,-0.51733 -0.554667,-1.77867 -0.984,-2.12667"
         style="fill:#422000;fill-opacity:1;fill-rule:nonzero;stroke:none;stroke-width:0.133333" />
      <path
         id="path3515"
         d="m 39.225415,930.8161 c -0.545333,-0.23867 -1.028,0.20933 -1.029333,0.748 -0.0013,0.67867 0.410667,1.296 0.725333,1.87333 0.42,0.77067 0.825334,1.488 1.710667,1.74 l 0.333333,-0.0107 h 0.0013 0.0027 l 0.08933,-0.0187 c 0.332,-0.04 0.502666,-0.27067 0.530666,-0.54533 0.04933,-0.12934 0.072,-0.26534 0.056,-0.39467 -0.092,-0.73867 -0.661333,-1.35067 -1.069333,-1.94933 -0.378667,-0.556 -0.708,-1.16267 -1.350667,-1.44267"
         style="fill:#422000;fill-opacity:1;fill-rule:nonzero;stroke:none;stroke-width:0.133333" />
      <path
         id="path3516"
         d="m 48.241415,929.1361 c -0.378667,-0.50267 -0.606667,-1.11733 -1.08,-1.54133 -0.282667,-0.252 -0.762667,-0.12 -0.906666,0.216 -0.6,1.408 0.642666,3.60133 1.955999,4.17866 0.930667,0.40934 1.614667,-0.67866 1.142667,-1.44933 -0.304,-0.49467 -0.76,-0.93467 -1.112,-1.404"
         style="fill:#422000;fill-opacity:1;fill-rule:nonzero;stroke:none;stroke-width:0.133333" />
      <path
         id="path3517"
         d="m 54.686748,926.52677 c -0.350666,1.028 0.03067,2.35066 0.369334,3.34266 0.368,1.076 2.145333,0.648 1.941333,-0.47866 -0.176,-0.972 -0.422667,-2.16934 -0.958667,-3.012 -0.305333,-0.48267 -1.164,-0.40267 -1.352,0.148"
         style="fill:#422000;fill-opacity:1;fill-rule:nonzero;stroke:none;stroke-width:0.133333" />
      <path
         id="path3518"
         d="m 60.265415,926.0841 c -0.24,0.65467 -0.196,1.45333 -0.318667,2.14533 -0.210667,1.18667 1.497333,1.36934 1.801333,0.27067 0.201334,-0.72667 0.254667,-1.95067 -0.301333,-2.54133 -0.322667,-0.34134 -0.982667,-0.42 -1.181333,0.12533"
         style="fill:#422000;fill-opacity:1;fill-rule:nonzero;stroke:none;stroke-width:0.133333" />
      <path
         id="path3519"
         d="m 65.106748,924.5641 -0.382667,0.0867 c -0.326666,0.48133 -0.326666,1.02133 -0.394666,1.584 -0.07467,0.616 -0.148,1.28 0.0053,1.88266 0.134667,0.536 0.946667,0.61734 1.249333,0.19734 0.666667,-0.928 0.681334,-3.172 -0.477333,-3.75067"
         style="fill:#422000;fill-opacity:1;fill-rule:nonzero;stroke:none;stroke-width:0.133333" />
      <path
         id="path3520"
         d="m 70.061415,924.39077 c -0.02667,0.704 -0.330667,1.42533 -0.396,2.13466 -0.076,0.83467 1.152,1.29334 1.472,0.428 0.354666,-0.956 0.209333,-2.128 -0.557334,-2.83066 -0.224,-0.20534 -0.509333,0.0187 -0.518666,0.268"
         style="fill:#422000;fill-opacity:1;fill-rule:nonzero;stroke:none;stroke-width:0.133333" />
      <path
         id="path3521"
         d="m 81.621414,919.3121 c -0.369333,1.04933 -0.752,2.11867 -1.329333,3.07867 -0.472,0.784 -1.526667,1.69733 -1.168,2.684 0.076,0.20933 0.268,0.368 0.488,0.40266 1.310667,0.2 2.173333,-1.74533 2.662667,-2.70266 0.589333,-1.156 0.826666,-2.59467 -0.137334,-3.58 -0.142666,-0.14667 -0.449333,-0.0747 -0.516,0.11733"
         style="fill:#422000;fill-opacity:1;fill-rule:nonzero;stroke:none;stroke-width:0.133333" />
      <path
         id="path3522"
         d="m 30.820082,948.14143 c -1.626666,-0.50133 -3.424,0.51467 -4.697333,1.46667 -1.117333,0.836 -2.845333,2.73067 -2.034667,4.17867 0.152,0.272 0.576,0.36933 0.848,0.25466 0.589334,-0.24666 0.757334,-0.63866 1.046667,-1.184 0.334667,-0.63333 0.806667,-1.17066 1.332,-1.652 1.084,-0.99466 2.404,-1.284 3.610667,-2.02933 0.36,-0.22267 0.324,-0.90133 -0.105334,-1.03467"
         style="fill:#422000;fill-opacity:1;fill-rule:nonzero;stroke:none;stroke-width:0.133333" />
      <path
         id="path3523"
         d="m 35.902749,949.46277 c -1.393334,0.74666 -3.090667,3.512 -2.210667,5.02666 0.206667,0.356 0.76,0.39867 1.068,0.16667 0.686667,-0.51733 0.752,-1.43333 1.025333,-2.20667 0.296,-0.83333 0.778667,-1.576 0.992,-2.44 0.132,-0.532 -0.494666,-0.75066 -0.874666,-0.54666"
         style="fill:#422000;fill-opacity:1;fill-rule:nonzero;stroke:none;stroke-width:0.133333" />
      <path
         id="path3524"
         d="m 44.286749,950.0721 c -0.322667,1.57467 -0.997334,3.488 -0.172,5.02267 0.437333,0.816 1.869333,0.66533 1.704,-0.40934 -0.233334,-1.52133 -0.192,-3.05466 -0.448,-4.572 -0.102667,-0.60666 -0.956,-0.668 -1.084,-0.0413"
         style="fill:#422000;fill-opacity:1;fill-rule:nonzero;stroke:none;stroke-width:0.133333" />
      <path
         id="path3525"
         d="m 53.337415,951.44677 c -0.121333,-0.108 -0.313333,-0.0547 -0.382667,0.0853 -0.292,0.59333 -0.188,1.368 -0.152,2.01067 0.04267,0.75733 0.218667,1.60533 0.609334,2.256 0.424,0.704 1.561333,0.204 1.461333,-0.56267 -0.092,-0.70133 -0.413333,-1.36 -0.624,-2.032 -0.184,-0.58267 -0.444,-1.344 -0.912,-1.75733"
         style="fill:#422000;fill-opacity:1;fill-rule:nonzero;stroke:none;stroke-width:0.133333" />
      <path
         id="path3526"
         d="m 59.133415,949.59477 c -0.22,-0.0307 -0.481333,0.196 -0.368,0.432 0.124,0.25466 0.206667,0.67733 0.324,0.97866 0.210667,0.54 0.212,1.13467 0.442667,1.66267 0.342666,0.78667 1.377333,0.62267 1.574666,-0.16533 0.186667,-0.74534 -0.141333,-1.46 -0.522667,-2.08667 -0.377333,-0.61733 -0.836,-0.73733 -1.450666,-0.82133"
         style="fill:#422000;fill-opacity:1;fill-rule:nonzero;stroke:none;stroke-width:0.133333" />
      <path
         id="path3527"
         d="m 66.170748,946.3561 c -0.246667,0.0333 -0.473333,0.35467 -0.272,0.57867 0.438667,0.488 0.942667,0.90266 1.345333,1.43066 0.429334,0.56267 0.604,1.09734 0.741334,1.77467 0.2,0.99067 1.796,1.18133 1.884,0.0347 0.134666,-1.78 -1.797334,-4.08 -3.698667,-3.81867"
         style="fill:#422000;fill-opacity:1;fill-rule:nonzero;stroke:none;stroke-width:0.133333" />
      <path
         id="path3528"
         d="m 72.170748,942.12143 c -0.405333,-0.0893 -0.714667,0.51734 -0.348,0.75867 0.516,0.34133 0.936,0.75467 1.369333,1.19333 0.434667,0.44 0.701333,0.99734 1.110667,1.452 0.472,0.52667 1.653333,0.31334 1.46,-0.56133 -0.365334,-1.65333 -2.073334,-2.51067 -3.592,-2.84267"
         style="fill:#422000;fill-opacity:1;fill-rule:nonzero;stroke:none;stroke-width:0.133333" />
      <path
         id="path3529"
         d="m 80.381414,935.33743 c -0.472,-0.068 -0.941333,-0.0653 -1.416,-0.0293 -0.444,0.0347 -0.944,0.21867 -1.389333,0.18 -0.724,-0.064 -0.578667,1.048 0.072,0.832 0.670667,-0.224 1.686667,0.216 2.321333,0.42267 0.764,0.25066 1.450667,0.60933 2.148,1.00133 0.829334,0.468 1.589334,-0.85867 0.845334,-1.41333 -0.746667,-0.55867 -1.664,-0.86267 -2.581334,-0.99334"
         style="fill:#422000;fill-opacity:1;fill-rule:nonzero;stroke:none;stroke-width:0.133333" />
      <path
         id="path3530"
         d="m 82.624081,931.27477 c -0.609333,-0.24667 -0.990667,0.61466 -0.417333,0.924 0.692,0.372 1.669333,0.82666 2.389333,0.336 0.2,-0.136 0.212,-0.444 0.024,-0.596 -0.541333,-0.436 -1.353333,-0.40534 -1.996,-0.664"
         style="fill:#422000;fill-opacity:1;fill-rule:nonzero;stroke:none;stroke-width:0.133333" />
    </g>
  </g>
</svg>
