<?xml version="1.0" encoding="UTF-8" standalone="no"?>
<!-- Created with Inkscape (http://www.inkscape.org/) -->

<svg
   version="1.1"
   id="svg1"
   width="88.617584"
   height="88.626984"
   viewBox="0 0 88.617585 88.626984"
   xmlns="http://www.w3.org/2000/svg"
   xmlns:svg="http://www.w3.org/2000/svg">
  <defs
     id="defs1" />
  <g
     id="g1"
     transform="translate(146.56052,269.52838)">
    <g
       id="group-R5">
      <path
         id="path3086"
         d="m -60.450989,-239.77329 c -1.041333,-5.62534 1.122667,-10.49067 1.046667,-16.01734 -0.008,-0.63333 -0.221333,-1.09866 -0.54,-1.42666 1.249333,-4.90667 -0.981333,-12.05867 -6.070666,-11.884 -6.188,0.21333 -10.493333,5.37733 -15.262667,8.644 -3.453333,2.36533 -6.350666,3.896 -7.365333,7.412 -0.130666,0.064 -0.262666,0.14133 -0.392,0.244 -2.252,1.77733 -4.708,0.47333 -7.209333,-0.20134 -2.425333,-0.65466 -4.959999,-1.02933 -7.265329,0.212 -0.24267,0.13067 -0.444,0.28934 -0.608,0.46534 -0.12934,0.064 -0.256,0.132 -0.37734,0.204 -2.848,-4.184 -7.35866,-8.404 -12.45333,-8.80534 -1.67733,-1.10666 -3.38933,-2.136 -5.18533,-2.88533 -3.36934,-2.21067 -6.62267,-4.67733 -9.82134,-0.9 -0.66933,0.252 -1.27466,0.58 -1.76266,1.02667 -0.224,-0.028 -0.45334,-0.016 -0.67467,0.0827 -6.70933,2.992 -5.31733,12.31734 -2.96667,17.828 1.32667,3.11067 2.50134,5.64134 2.16267,9.16534 -0.24267,2.50933 -1.524,4.98666 -1.85733,7.54133 -0.472,3.62 1.768,7.352 3.53333,10.30666 l 0.14133,0.19467 c 0.012,0.876 0.54267,1.676 1.7,1.716 4.268,0.14667 8.28134,-2.188 12.13067,-3.72267 0.67867,-0.27066 1.34667,-0.58 1.97867,-0.932 -0.216,0.56934 -0.45467,1.13467 -0.74267,1.68934 -1.53467,2.95866 -3.14133,5.79333 -5.24667,8.38533 -4.13066,5.088 -10.416,7.18267 -14.75866,11.96 -0.31067,0.34267 -0.37867,0.7 -0.31334,1.028 -1.468,1.092 -2.84666,2.40267 -4.23866,4.04 -0.11334,0.13467 0.0293,0.37867 0.20533,0.3 2.416,-1.08 4.75067,-2.09067 7.12533,-3.012 l 0.19734,0.0507 c 4.96666,0.32 9.66266,-2.77467 13.996,-4.864 1.35866,-0.65467 3.17866,-1.54667 4.58,-2.712 0.0693,0.324 0.12933,0.64266 0.16133,0.94666 0.43867,4.204 0.12533,8.72267 -1.92933,12.48534 -0.45334,0.828 0.57866,2.00133 1.45333,1.544 5.13333,-2.68134 9.144,-6.46534 12.94533,-10.79067 0.54,-0.616 1.44934,-1.572 2.37334,-2.68 0.232,-0.552 0.448,-1.11067 0.67466,-1.66533 0.21734,-0.53067 1.064,-0.67334 1.222669,0 0.525333,2.248 1.421333,4.384 2.056,6.59333 2.802667,3.99067 6.428,7.14 9.518667,10.83867 0.482666,0.852 1.063999,1.62666 1.797333,2.24666 l 0.01067,-0.0133 c 0.797334,0.64267 2.142667,-0.16133 1.732,-1.24133 -1.928,-5.072 -2.38,-9.07867 -2.048,-14.33867 3.584,3.29333 8.057334,5.84533 12.12,8.132 1.130667,0.636 2.062667,-1.08667 1.144,-1.87333 -4.504,-3.86 -3.384,-9.796 -5.056,-14.75334 -0.14,-0.41333 -0.304,-0.81466 -0.450666,-1.22533 0.09733,-3.41733 -2.137334,-7.35733 -3.381334,-10.16267 -0.504,-1.13733 -1.248,-3.21733 -2.298666,-4.82266 2.02,0.52533 4.030666,1.08666 6.037333,1.74533 0.509333,0.41067 1.012,0.82667 1.52,1.23467 1.358667,1.09066 3.306666,2.336 5.184,2.45333 0.132,0.172 0.289333,0.336 0.484,0.488 4.468,3.45333 12.355999,-2.272 12.707999,-7.45333 0.294667,-4.35067 -0.874666,-8.55733 -1.664,-12.82133"
         style="fill:#b84a72;fill-opacity:1;fill-rule:nonzero;stroke:none;stroke-width:0.133333" />
      <path
         id="path3087"
         d="m -104.78165,-253.15596 c -0.496,-0.3 -0.99067,-0.628 -1.484,-0.97067 0.02,-0.27066 -0.0533,-0.548 -0.252,-0.796 -1.37334,-1.70533 -2.74267,-3.06266 -4.828,-3.00533 -1.11334,-0.764 -2.21067,-1.55467 -3.332,-2.32533 -2.788,-1.91734 -6.16267,-2.67734 -8.952,-4.60267 -2.42267,-1.67333 -4.33067,-1.34533 -6.24667,-0.50667 -2.33067,0.25867 -4.56533,1.076 -6.10267,2.93467 -0.26933,0.324 -0.37733,0.65867 -0.392,0.98 -0.50266,0.40667 -0.784,1.05333 -0.44,1.72267 0.948,1.83866 2.65067,2.12266 4.58934,2.49333 1.91733,0.36667 3.83066,0.66133 5.73333,0.984 0.21867,0.48667 0.66,0.89467 1.35333,1.04933 6.25067,1.39867 12.90934,4.25067 19.26934,4.52667 1.20933,0.052 2.432,-1.66933 1.084,-2.484"
         style="fill:#77204a;fill-opacity:1;fill-rule:nonzero;stroke:none;stroke-width:0.133333" />
      <path
         id="path3088"
         d="m -97.953654,-226.5173 -0.04933,-0.005 c -0.118666,-0.36667 -0.357333,-0.69467 -0.737333,-0.94133 0.373333,-0.12667 0.712,-0.28 0.994667,-0.47334 0.237333,0.25734 0.534666,0.46667 0.862666,0.652 -0.353333,0.20934 -0.714666,0.47334 -1.070666,0.768 z m -6.591996,-1.96399 0.0467,-0.1 c 0.112,-0.47734 0.26934,-0.91867 0.424,-1.35334 0.0213,0.54534 0.132,1.03867 0.35067,1.46 -0.26933,-0.0107 -0.544,-0.012 -0.82133,-0.007 z m 39.330662,-40.48934 c -0.876,0.10667 -1.672,0.53867 -2.385334,1.08134 -0.146666,-0.0107 -0.296,-0.008 -0.454666,0.0267 -1.596,0.34134 -2.809334,0.83067 -4.108,1.73467 -2.368,1.30267 -4.426667,3.13333 -6.652,4.72133 -2.574667,1.83734 -6.504,2.96134 -8.493333,5.56134 -0.836,0.632 -1.494667,1.456 -1.904,2.54666 -0.196,0.52134 0.102667,1.10267 0.548,1.312 -0.234667,0.056 -0.429333,0.24267 -0.498667,0.496 -0.44,1.62 0.888,4.12667 1.366667,5.64267 0.316,1 0.421333,2.036 0.496,3.072 -0.238667,0.96533 -0.268,2.01467 0.02667,2.85467 -0.463999,0.91866 -0.449333,2.19866 -0.106666,3.15866 -0.341333,0.104 -0.652,0.33734 -0.830667,0.67734 -0.472,0.9 -3.522666,6.55866 -4.256,2.93066 -0.232,-1.14666 -1.617333,-1.4 -2.194666,-0.35466 -0.264,0.47866 -1.173334,3.208 -1.406667,2.19066 l -0.02133,-0.12533 c 0.084,-1.232 -0.06533,-2.604 -0.250667,-3.948 -0.193333,-1.38933 -2.489333,-1.59067 -2.557333,-0.072 -0.02667,0.60133 -0.07467,1.28133 -0.101334,1.98667 -0.03467,0.13733 -0.044,0.27866 -0.09333,0.41333 -0.364,1.53733 -0.987999,1.852 -1.873329,0.944 -0.12534,-1.34667 -1.008,-2.77333 -1.56267,-3.976 -0.10667,-0.232 -0.524,-0.27467 -0.55333,0.0413 l -0.003,0.016 c -0.112,-0.84533 -0.52933,-1.628 -1.05333,-2.44933 l -0.128,-0.132 c 0.16,-0.12133 0.33333,-0.22933 0.47066,-0.37333 0.68534,-0.72134 0.176,-1.83067 -0.28266,-2.65067 -0.13734,-0.276 -0.292,-0.54267 -0.44667,-0.784 -0.10533,-0.16533 -0.24933,-0.25733 -0.40267,-0.31867 0.001,-0.30133 -0.0187,-0.60266 -0.0253,-0.86 -0.009,-0.38 -0.028,-0.752 -0.048,-1.11866 0.14133,-0.32 0.13467,-0.72267 -0.052,-1.05467 -0.0467,-1.17067 -0.0227,-2.31867 0.34533,-3.53333 0.24534,-0.808 -0.79733,-1.6 -1.36133,-0.80667 -0.74133,1.04267 -1.19333,2.272 -1.156,3.508 -2.77467,-0.85467 -7.72933,-2.408 -8.40667,-0.0973 -0.69066,0.136 -1.172,0.984 -0.65066,1.60133 0.73466,0.872 1.80666,1.29467 2.88133,1.06667 0.48933,0.14666 0.99467,0.216 1.42933,0.18533 0.39867,-0.028 0.66667,-0.272 0.79467,-0.58267 0.12533,0.001 0.24267,0.0187 0.37333,0.008 1.104,-0.0933 2.216,0.24 3.28667,-0.0533 l 0.056,-0.0373 c 0.224,0.06 0.45067,0.112 0.67733,0.16266 0.0547,0.66134 0.0813,1.32667 -0.12,1.916 -0.18533,0.54667 -1.62533,0.81467 -2.076,0.96934 -0.824,0.284 -0.82133,1.55466 -0.0133,1.852 0.12,0.0453 0.25333,0.096 0.38667,0.148 -1.15734,0.124 -2.344,0.0493 -3.50667,0.0413 -1.23467,-0.008 -4.32933,-0.46533 -4.80667,1.16133 -0.14133,0.48534 0.136,0.92 0.66534,0.912 2.28266,-0.0387 4.644,0.0147 6.96533,-0.0587 l -0.0373,0.06 0.1,0.276 c 1.58933,0.66933 3.24666,0.72133 4.09333,2.52 l 0.0333,0.0493 c -0.15066,0.48267 -0.52666,0.91333 -1.276,1.276 -2.27866,1.10267 -4.81866,1.588 -7.10133,2.74133 -0.69867,0.352 -0.79067,1.68934 0.19867,1.712 2.836,0.0653 5.22266,-1.27066 7.73466,-2.352 -0.23466,0.77734 -0.64,1.54267 -0.83866,2.288 -0.11334,0.428 0.072,0.73333 0.36266,0.896 -0.35333,0.32133 -0.60533,0.748 -0.65066,1.18133 -0.79067,0.412 -1.54534,1 -2.22134,1.43067 -1.988,1.26267 -4.90533,3.696 -7.33733,3.62 -2.49733,-0.0787 -1.16133,3.108 0.21867,2.47733 2.13866,-0.084 4.016,-1.14133 5.80133,-2.31333 1.01733,-0.668 2.39333,-1.39067 3.63867,-2.228 0.18533,0.82267 0.58533,1.54533 1.45333,1.948 1.25867,0.58533 2.392,0.36667 3.492,-0.104 -0.94,1.892 -1.544,3.92133 -2.30267,5.92133 -1.056,2.78134 -2.76933,5.47467 -2.78666,8.50267 -0.005,0.888 1.296,1.016 1.62933,0.27733 0.62133,-1.38133 1.15467,-2.79066 1.664,-4.20666 0.21067,-0.35867 0.41733,-0.71467 0.604,-1.072 1.24133,-2.36534 2.08133,-4.9 2.974666,-7.41067 1.069333,-1.516 2.293333,-2.912 3.076,-4.64 l 0.032,-0.104 c 0.232,-0.18267 0.464,-0.32267 0.694666,-0.412 -1.421333,3.08933 -1.856,6.468 -2.293333,9.86267 -0.456,3.53066 -2.201329,7.81466 -1.759999,11.384 0.418666,3.37466 3.809332,6.932 5.646666,9.608 2.336,3.39866 4.972,6.788 8.154666,9.424 0.592,0.49066 1.510667,-0.14134 1.233333,-0.86934 -2.414666,-6.32933 -12.537333,-13.372 -10.241333,-20.808 1.758667,-5.7 2.436,-12.38133 2.448,-18.40133 0.277334,-0.003 0.177334,0.17067 0.326667,0.96133 0.218667,1.15334 0.561333,2.23467 0.950667,3.34267 0.958666,2.72133 2.184,5.34 3.321333,7.988 0.705333,1.64267 3.174666,0.708 2.592,-0.98267 -0.866667,-3.476 -2.32,-6.74533 -3.38,-10.15333 l -0.01467,-0.12267 c 0.933334,0.332 1.812,0.704 2.930667,0.58 2.058666,-0.22533 1.965333,-3.09333 0.05333,-3.48933 -1.370667,-0.284 -2.830666,-0.68533 -4.169333,-0.248 -0.262667,-0.32933 -0.568,-0.58133 -0.913333,-0.74 2.248,-0.464 3.646666,-2.94533 4.518666,-5.20266 1.437333,1.14533 3.444,1.68 5.197333,2.20933 1.36,0.40933 2.332,-1.09867 1.281334,-2.11867 -1.508,-1.46266 -4.106667,-1.592 -5.533334,-3.06266 l 0.217334,-0.264 c 0.102666,-0.24 0.166666,-0.484 0.22,-0.73067 0.564,-0.0213 1.136,-0.48 1.330666,-1.08933 l 0.01467,0.003 c 1.001333,0.14934 1.962667,-0.0533 2.874667,-0.46133 1.037333,-0.46533 1.725333,-1.34133 2.864,-1.60933 0.274666,-0.064 0.357333,-0.504 0.121333,-0.66134 -1.406667,-0.94 -3.366667,-1.10666 -4.964,-0.59733 -0.210667,0.0667 -0.376,0.168 -0.504,0.292 -0.34,-0.0587 -0.676,-0.0853 -1.010667,-0.10133 -0.032,-0.43467 -0.04133,-0.88134 -0.048,-1.32267 0.242667,-0.63067 0.761334,-0.98133 1.658667,-1.292 2.030667,-0.70133 5.1,-0.39867 6.161333,-2.68933 0.156,-0.33734 -0.121333,-0.832 -0.528,-0.75867 -0.813333,0.14667 -1.534666,0.524 -2.349333,0.66533 -0.790667,0.13867 -1.642667,0.0573 -2.444,0.104 -1.044,0.0627 -2.089333,0.192 -3.006667,0.64534 -0.181333,-0.496 -0.386666,-0.98534 -0.568,-1.464 -0.505333,-1.34 -1.156,-3.95734 -2.577333,-4.672 0.153334,-0.0173 0.309334,-0.0667 0.46,-0.18934 0.317333,-0.25733 0.606667,-0.51733 0.902667,-0.77466 1.077333,-0.17467 2.14,-0.572 3.18,-1.11067 1.533333,-0.13867 3.153333,-0.056 4.348,-0.27467 2.698666,-0.49466 5.321333,-1.73333 7.883999,-2.676 3.884,-1.428 8.006667,-2.464 9.605334,-6.71866 0.913333,-2.43067 -0.398667,-5.65867 -3.368,-5.30134"
         style="fill:#77204a;fill-opacity:1;fill-rule:nonzero;stroke:none;stroke-width:0.133333" />
      <path
         id="path3089"
         d="m -90.162988,-251.05463 c -3.125333,-0.25333 -6.706666,-3.42533 -9.846662,-1.804 -0.42667,0.0133 -0.85467,0.076 -1.27734,0.22934 -1.48666,0.53866 -2.86133,1.316 -2.72133,3.108 0.12933,1.64533 0.352,7.12 2.95067,6.688 0.336,-0.0547 0.68266,-0.24667 0.91466,-0.52267 1.662669,0.58267 3.741336,-10e-4 4.154669,-1.97467 0.193333,-0.92 -0.096,-1.828 -0.474667,-2.66533 0.277334,-0.19467 0.532,-0.448 0.728,-0.74267 1.673334,0.59467 3.36,1.68134 5.013334,1.80534 2.662666,0.19866 3.241333,-3.904 0.558666,-4.12134"
         style="fill:#ca6d90;fill-opacity:1;fill-rule:nonzero;stroke:none;stroke-width:0.133333" />
      <path
         id="path3090"
         d="m -60.009655,-228.83863 c 0.210666,-1.51733 0.184,-3.076 0.114666,-4.70266 -0.03067,-0.71467 -0.417333,-1.23867 -0.941333,-1.564 0.02267,-0.87867 -0.1,-1.78667 -0.177333,-2.584 -0.38,-3.92134 -0.396,-7.75867 0.316,-11.63734 0.149333,-0.816 -0.193333,-1.53066 -0.748,-2.024 0.708,-1.21333 1.394666,-2.43466 1.794666,-3.92133 0.625334,-2.31333 -0.617333,-5.508 -0.962666,-7.80667 -0.07067,-0.464 -0.66,-0.58266 -0.886667,-0.16 l -0.09333,0.2 c -0.34,-0.0853 -0.708,-0.0413 -1.046667,0.23867 -0.698666,0.58 -1.308,1.036 -1.776,1.836 -0.494666,0.844 -0.953333,1.732 -1.6,2.472 -1.024,1.17333 -2.454666,2.04667 -3.822666,2.74933 -0.993334,0.51067 -2.181334,0.784 -2.829334,1.75334 -0.08533,0.128 -0.138666,0.32266 -0.02133,0.456 1.912,2.18 5.816,0.10933 7.616,-1.244 0.546667,-0.41067 1.042667,-0.872 1.497333,-1.372 -0.976,2.32933 -3.176,4.41733 -4.150666,6.68666 -0.630667,1.472 0.408,2.91067 1.805333,3.20267 -0.178667,2.352 -0.157333,4.68933 -0.01867,7.10933 0.282667,4.94 -4.405333,3.632 -7.826666,4.84534 -2.076,0.736 -1.598667,3.34 0.0027,4.212 2.64,1.43733 5.761334,2.06799 8.529334,1.42933 -1.197334,2.28533 -3.394667,3.416 -5.001334,6.256 -0.882666,1.56 -0.05733,4.188 2.170667,3.724 4.530667,-0.944 9.569333,-4.33867 8.358666,-9.55334 -0.04933,-0.21199 -0.162666,-0.41466 -0.302666,-0.60133"
         style="fill:#ca6d90;fill-opacity:1;fill-rule:nonzero;stroke:none;stroke-width:0.133333" />
      <path
         id="path3091"
         d="m -119.20965,-252.54929 c -3.072,-1.92934 -6.60667,-2.29734 -9.76934,-4.02267 -1.15333,-0.62933 -2.444,-0.90667 -3.75333,-0.78533 -2.10667,0.19333 -2.92933,-1.35467 -4.812,-1.49334 -0.89467,-0.0667 -1.74667,0.58667 -1.63333,1.55334 0.0787,0.66266 0.18933,1.316 0.324,1.964 -0.42934,3.192 0.356,6.49066 2.20266,9.184 v 0.15333 c 0.13734,1.48667 0.2,1.68267 0.9,3.04267 0.11067,0.21466 0.252,0.40266 0.41334,0.56266 0.21066,0.516 0.44266,1.02267 0.68933,1.524 0.0347,2.73867 -0.70667,5.248 -1.15867,8.116 -0.26933,1.70934 -0.23333,3.196 0.24934,4.81333 -0.0107,0.16934 -0.008,0.34667 0.024,0.53867 0.26,1.616 0.51066,3.132 1.13866,4.51733 0.27467,0.964 0.55334,1.92534 0.87334,2.89334 0.64266,1.93866 3.20133,1.55466 3.97866,0.0107 0.95867,-1.90133 0.5,-4.01466 -0.24266,-6.02133 1.19866,-0.048 2.29866,-0.904 2.02666,-2.48266 -0.064,-0.37067 -0.13466,-0.74267 -0.20533,-1.11467 -0.244,-2.08 0.692,-2.888 2.59067,-4.408 0.75866,-0.60667 1.15333,-1.98267 0.384,-2.768 -0.90267,-0.92 -1.804,-1.68267 -2.83334,-2.46267 -0.74,-0.56 -1.21333,-1.32 -1.65733,-2.104 -0.024,-2.16266 -0.88667,-4.26266 -1.41067,-6.32266 0.0373,-1.29334 0.16267,-2.58267 0.424,-3.86534 0.08,-0.39066 0,-0.712 -0.168,-0.96266 -0.0413,-0.13867 -0.088,-0.27734 -0.164,-0.41067 l -0.18933,-0.32933 c 0.18133,0.048 0.36,0.11066 0.53333,0.19066 3.25334,1.516 7.24267,2.472 10.82134,1.85734 0.57866,-0.1 1.06133,-0.96667 0.424,-1.368"
         style="fill:#ca6d90;fill-opacity:1;fill-rule:nonzero;stroke:none;stroke-width:0.133333" />
      <path
         id="path3092"
         d="m -117.20699,-208.98796 c -4.25466,1.11466 -8.08933,4.172 -12.372,5.63866 -3.35733,1.14934 -6.092,2.704 -8.8,4.56934 l -0.16933,0.0387 c -0.73867,0.24934 -1.42133,0.704 -2.056,1.14667 -0.8,0.55867 -2.83467,2.33467 -1.90267,3.48667 0.90667,1.12 2.06934,-0.57467 2.652,-1.19467 0.15334,-0.16267 0.32534,-0.3 0.49067,-0.44667 1.22267,-0.41333 2.40667,-0.928 3.636,-1.444 2.99733,-1.26 6.06533,-1.83866 9.18533,-2.684 4.196,-1.13733 9.48534,-3.472 10.72134,-7.96533 0.228,-0.83067 -0.71467,-1.32133 -1.38534,-1.14533"
         style="fill:#ca6d90;fill-opacity:1;fill-rule:nonzero;stroke:none;stroke-width:0.133333" />
      <path
         id="path3093"
         d="m -99.256321,-217.54263 c -0.105333,-0.31467 -0.606667,-0.36933 -0.733333,-0.0373 -0.671996,1.75466 -0.785336,3.31066 -1.070666,5.18 -0.64133,4.21733 -3.916,8.18933 -6.87733,10.99333 -2.192,2.07467 -4.27867,3.78933 -6.23467,5.72133 -0.212,-0.14533 -0.44,-0.24933 -0.68667,-0.31466 -0.096,-0.48534 -0.16,-0.968 -0.444,-1.39734 -0.15333,-0.232 -0.57333,-0.288 -0.74,-0.0333 -0.376,0.57067 -0.37333,1.19067 -0.55866,1.82267 -0.172,0.20266 -0.30667,0.44 -0.37067,0.68933 -0.15067,0.57867 -0.23467,1.16667 -0.35333,1.752 -0.10134,0.49733 -0.29467,0.87867 -0.22667,1.35467 -0.13733,0.18666 -0.27733,0.36133 -0.41333,0.556 -0.70134,0.72133 0.452,1.95866 1.21466,1.29733 0.356,-0.30933 0.72934,-0.61467 1.09734,-0.92133 0.27066,-0.12667 0.492,-0.30934 0.65866,-0.552 4.42534,-3.62 9.48,-7.196 12.524,-11.93867 2.39467,-3.73067 4.664002,-9.82 3.214669,-14.172"
         style="fill:#ca6d90;fill-opacity:1;fill-rule:nonzero;stroke:none;stroke-width:0.133333" />
      <path
         id="path3094"
         d="m -74.906988,-194.3253 c -1.772,-3.58666 -5.248,-5.81466 -8.169333,-8.39866 -0.594667,-0.52667 -5.594667,-6.408 -6.465333,-4.72 -1.282667,2.48133 2.847999,5.81733 4.450666,7.29733 2.786667,2.57333 5.925333,5.16 9.561333,6.384 0.32,0.108 0.818667,-0.16533 0.622667,-0.56267"
         style="fill:#ca6d90;fill-opacity:1;fill-rule:nonzero;stroke:none;stroke-width:0.133333" />
      <path
         id="path3095"
         d="m -99.441654,-246.51863 c -0.825336,-0.83866 -2.130666,-0.17333 -2.581336,0.66934 -0.23466,0.43466 -0.38133,0.964 -0.43866,1.51066 -0.14934,0.472 -0.236,0.972 -0.232,1.48134 -0.0733,0.396 -0.0213,0.81866 0.0853,1.21733 0.0707,0.264 0.22533,0.46533 0.424,0.61067 0.76267,1.10533 2.18133,1.108 2.897332,-0.14 l 0.134667,-0.25334 c 0.396,-0.344 0.632,-0.85066 0.584,-1.36 0.08,-0.25466 0.148,-0.512 0.189333,-0.78 0.185334,-1.168 -0.262666,-2.14133 -1.062666,-2.956"
         style="fill:#e1bbc2;fill-opacity:1;fill-rule:nonzero;stroke:none;stroke-width:0.133333" />
      <path
         id="path3096"
         d="m -96.956321,-246.55863 v 0 c 0.146667,-0.164 0.349333,-0.38933 0,0"
         style="fill:#e1bbc2;fill-opacity:1;fill-rule:nonzero;stroke:none;stroke-width:0.133333" />
      <path
         id="path3097"
         d="m -95.214988,-246.41863 -0.084,-0.092 c -0.462666,-0.51733 -1.169333,-0.592 -1.657333,-0.048 l -0.084,0.0933 c -0.585333,0.652 -0.105333,1.71866 0.712,1.85066 0.910667,0.14667 1.809333,-1.028 1.113333,-1.804"
         style="fill:#e1bbc2;fill-opacity:1;fill-rule:nonzero;stroke:none;stroke-width:0.133333" />
      <path
         id="path3098"
         d="m -86.240321,-244.15996 c 1.121333,-0.272 2.202666,-0.736 3.304,-1.08 1.032,-0.32133 2.076,-0.55467 3.133333,-0.704 -2.072,0.652 -4.244,1.028 -6.106667,2.11733 l -0.064,0.0787 -0.233333,-0.0413 c -0.01467,-0.12267 -0.01333,-0.24667 -0.03333,-0.37067 z m 8.197333,3.63067 c -2.684,1.364 -5.493333,1.04266 -8.476,1.552 0.07333,-0.36667 0.141333,-0.73334 0.198667,-1.10134 2.765333,-0.61066 5.5,-0.82 8.277333,-0.45066 z m -9.565333,6.81733 c 0.112,-0.71733 0.232,-1.43333 0.389333,-2.13467 l 0.068,-0.29733 c 2.374667,1.05733 4.924,2.07467 6.486667,4.17333 -2.314667,-0.576 -4.608,-1.924 -6.944,-1.74133 z m 24.894666,11.09333 c -0.796,0.77333 -1.633333,1.50133 -2.428,2.27467 -2.654667,2.58 -5.098667,0.948 -7.404,-0.736 -1.852,-1.35334 -3.948,-2.34667 -6.056,-3.27734 -1.241333,-0.87866 -2.581333,-1.536 -4.062666,-2.188 -1.013334,-0.44666 -2.034667,-0.87066 -3.053334,-1.30266 -1.084,-0.45734 -2.175999,-0.63867 -2.746666,-1.36667 0.03733,-0.14133 0.08933,-0.288 0.122667,-0.42 0.290666,-1.15466 0.468,-2.352 0.650666,-3.548 2.502667,1.18667 5.401333,2.376 8.138667,2.636 0.409333,0.0387 0.874666,-0.36933 0.661333,-0.808 -1.568,-3.22666 -4.884,-4.564 -8.008,-5.88666 0.1,-0.42667 0.194667,-0.85467 0.286667,-1.28267 3.378666,0.86667 7.492,0.15867 10.302666,-1.87067 0.381334,-0.276 0.204,-0.80933 -0.212,-0.91466 -3.168,-0.79734 -6.473333,-0.76534 -9.641333,0.003 0.044,-0.50666 0.056,-1.01333 0.04,-1.52 0.256,-0.172 0.506667,-0.352 0.829333,-0.44133 l 0.02533,-0.136 -0.118667,-0.08 c 2.984,-0.15733 6.404,-1.29733 8.932,-2.756 0.510667,-0.29467 0.102667,-0.94667 -0.357333,-0.95733 -3.08,-0.072 -6.812,0.54266 -9.646667,2.01733 l -0.044,-0.18667 c -0.5,-1.692 -1.096,-4.40266 -2.397333,-6.004 1.196,-0.832 2.937333,-0.856 4.334666,-1.05866 1.952,-0.28267 3.809334,-1.04 5.641334,-1.73734 1.950666,-0.74266 3.925333,-1.42133 5.885333,-2.14133 3.764,0.22267 7.842666,-2.024 10.278666,-4.70933 0.265334,-0.29467 1.22,-1.464 1.832,-2.6 0.198667,1.74133 0.294667,3.52666 0.644,5.22666 0.344,1.67334 0.596,3.41067 0.104,5.096 -0.384,1.312 -1.329333,2.41067 -1.741333,3.73467 -0.766667,2.46267 0.213333,5.67067 0.418667,8.16667 0.270666,3.30133 0.572,6.556 1.186666,9.81333 0.713333,3.76933 0.417333,6.224 -2.397333,8.96133 z m -19.032,6.608 c 1.538667,3.868 1.652,8.10667 2.468,12.152 0.890667,4.42 2.729334,8.21867 5.66,11.10533 -1.678666,-0.98133 -3.298666,-2.08266 -4.853333,-2.92666 -3.385333,-1.84 -6.018667,-4.16934 -8.636,-6.92267 -0.28,-0.80267 -0.693333,-1.44667 -1.32,-1.736 -0.125333,-0.0587 -0.265333,0.0933 -0.178666,0.21067 0.710666,0.964 0.401333,3.556 0.509333,4.74666 0.222667,2.452 0.226667,4.9 0.550667,7.34667 0.295999,2.24267 0.946666,4.29333 1.921333,6.184 -2.734667,-2.24667 -5.356,-4.612 -7.689333,-7.308 -1.742667,-2.01333 -3.272,-4.276 -4.405334,-6.68667 -0.929333,-1.97733 -1.246666,-3.97866 -2.298662,-5.85733 1.286662,-2.74133 2.087996,-5.70667 2.458662,-8.71067 0.332,-2.68 0.02667,-5.89333 1.168,-8.4 0.561334,-1.23333 1.292,-2.43466 1.308,-3.812 0.377334,0.02 0.76,0.0373 1.144,0.0453 l -0.008,0.06 -0.088,0.1 c -0.386666,1.58133 0.141334,3.484 0.281334,5.09066 0.173333,1.97734 0.213333,4.032 0.98,5.89067 0.225333,0.544 1.029333,0.36133 0.996,-0.22533 -0.121334,-2.164 -0.418667,-4.32934 -0.650667,-6.484 -0.101333,-0.93867 -0.178667,-2.04 -0.514667,-2.99467 l 0.012,-0.248 c 0.01733,-0.364 0.05867,-0.728 0.02667,-1.09067 l -0.02933,-0.10666 c 0.936,-0.0373 1.853333,-0.18934 2.698666,-0.55467 -0.128,1.208 0.286667,2.45333 0.701334,3.584 0.592,1.616 1.417333,3.428 2.539999,4.74667 0.369334,0.43333 1.036,0.0907 0.877334,-0.46267 -0.429334,-1.48267 -1.326667,-2.84133 -1.966667,-4.24133 -0.473333,-1.03734 -0.724,-2.10934 -1.004,-3.18534 1.085334,0.64534 2.272,1.132 3.482667,1.57067 0.953333,3.14533 2.650666,6.08133 3.858666,9.12 z m -22.553335,14.12667 c -2.55733,3.448 -6.02133,6.14133 -9.45333,8.66266 -1.28267,0.94267 -2.756,1.82134 -4.2,2.75334 2.164,-4.852 2.62533,-10.55067 2.368,-15.812 l 0.003,-0.003 -0.0147,-0.28667 -0.0147,-0.356 c -0.02,-0.344 -0.488,-0.32933 -0.56933,-0.028 -0.0347,0.12934 -0.0627,0.26 -0.096,0.39067 -2.664,2.17067 -4.95733,4.43733 -8.10133,5.98267 -2.74267,1.34933 -5.90934,1.87866 -8.85734,2.59466 -3.23866,0.788 -6.46666,1.76934 -9.132,3.56267 3.13467,-4.03333 7.636,-7.05333 11.62,-10.17333 5.66,-4.432 10.716,-9.552 14.05067,-15.976 0.10533,-0.204 0.096,-0.38934 0.0213,-0.54134 4.51334,-1.596 8.89867,-3.46666 12.36934,-6.91733 0.424,0.216 0.85866,0.40267 1.30133,0.56267 -2.028,1.28133 -3.68667,3.09466 -5.48,4.67733 -1.396,1.23333 -2.92267,2.28667 -4.24,3.61333 -1.87867,1.89067 -4.98533,4.96534 -4.064,7.92934 0.0773,0.248 0.392,0.21466 0.504,0.0227 0.81733,-1.38933 1.33467,-2.86933 2.26933,-4.22 1.17334,-1.69733 2.76534,-3.10666 4.312,-4.44933 2.63867,-2.29333 5.332,-4.53867 7.448,-7.35067 0.32,0.0893 0.64267,0.16 0.968,0.22134 -0.208,0.22 -0.43733,0.42666 -0.572,0.58266 -0.61333,0.70534 -1.29866,1.356 -1.948,2.02934 -0.996,1.036 -2.57733,2.2 -2.93466,3.664 -0.08,0.324 0.312,0.50266 0.556,0.35333 1.44933,-0.88933 2.61466,-2.53067 3.73466,-3.78133 0.68134,-0.76267 1.54934,-1.70267 1.82134,-2.74134 0.41466,0.0507 0.834662,0.0587 1.254662,0.056 -1.254662,1.20134 -2.228002,3.03334 -3.037332,4.5 -1.92933,3.49734 -3.828,7.46934 -3.988,11.524 -0.012,0.33067 0.50933,0.40267 0.62267,0.10934 1.328,-3.41867 2.44533,-6.82934 4.03866,-10.148 0.668,-1.39334 2.952002,-4.05867 3.089336,-5.83467 0.648,0.12133 1.470666,0.164 2.162666,10e-4 -0.16,1.332 -1.046666,2.61734 -1.598666,3.81067 -0.928,2.008 -0.774667,4.936 -0.965334,7.104 -0.449333,5.11867 -2.190662,9.78667 -5.248002,13.91067 z m -2.596,-30.11333 c -1.984,1.08133 -3.972,2.212 -6.22133,2.408 1.624,-1.33867 3.94533,-1.79067 5.92,-2.33067 z m -0.48533,-6.48 c -1.51333,0.176 -3.02,0.48266 -4.528,0.67733 -1.05467,0.136 -2.088,0.132 -3.14933,0.04 -0.0867,-0.008 -2.32,0.003 -1.40534,-0.308 0.912,-0.30933 1.94934,-0.33467 2.90134,-0.4 2.052,-0.14267 4.12533,-0.10533 6.18133,-0.009 z m -2.84667,-6.332 c -1.21333,0.18133 -2.416,0.41333 -3.44933,0.36266 -0.612,-0.0413 -1.17333,-0.252 -1.684,-0.63066 0.0467,-0.56667 0.0947,-1.13334 0.14133,-1.7 0.40534,0.0747 0.8,0.19333 1.18134,0.35333 0.74133,0.27067 1.452,0.64 2.16266,0.98267 0.51467,0.248 1.07067,0.45333 1.648,0.632 z m -11.35333,23.61066 c -2.50933,0.8 -4.84133,1.808 -7.284,2.776 -3.11333,1.23467 -5.15067,-1.036 -5.40933,-4.036 -0.11467,-1.344 -0.65067,-2.66667 -1.13067,-3.90667 -1.31467,-3.39866 0.38933,-6.29333 1.15467,-9.54533 0.66,-2.808 -0.37334,-5.66 -1.45867,-8.204 -1.31467,-3.07866 -2.71867,-5.812 -2.956,-9.21866 -0.14133,-2.03867 0.22133,-3.95067 0.89067,-5.77334 1.548,1.916 6.084,2.82534 7.8,3.17734 8.00933,1.644 16.19066,5.79733 24.49733,5.90666 -0.412,1.75334 -0.156,3.66134 0.108,5.476 -1.484,-0.50666 -3.03467,-0.832 -4.576,-1.11333 -1.20267,-0.21867 -2.22533,-0.752 -3.35333,-1.20533 -0.80267,-0.32134 -3.15867,-1.22267 -3.50134,0.29733 -0.37333,1.656 1.616,2.668 2.97467,3.00133 2.656,0.65067 5.83467,-1.27866 8.2,0.48934 0.14533,0.108 0.316,0.116 0.472,0.0707 v 0.003 c 0.164,1.32267 0.48,2.62667 0.784,3.91733 -1.69067,-0.60933 -5.46267,-0.28933 -6.44133,-0.29466 -1.49734,-0.009 -6.22,-0.51334 -7.09867,1.23333 -0.11333,0.22533 0.009,0.52 0.23467,0.61867 4.472,1.94133 9.06,-0.23334 13.68266,0.128 0.22667,1.09866 0.38267,2.18666 0.384,3.26933 -1.836,0.636 -3.57866,1.32267 -5.508,1.80267 -2.07333,0.516 -4.204,1.20933 -5.57866,2.93733 -0.21067,0.26533 -0.08,0.76667 0.3,0.79067 3.70266,0.23733 7.34533,-1.98534 10.616,-3.712 -0.18267,0.908 -0.51467,1.81333 -1.07734,2.716 l -0.0933,0.0507 c -4.84,4.14667 -10.62533,6.43333 -16.632,8.348 z m -8.248,-36.27066 c -0.34533,-0.0747 -0.688,-0.16 -1.03333,-0.232 -0.14267,-0.0307 -0.32134,-0.0653 -0.51467,-0.10267 -0.11333,-0.41733 -0.45333,-0.80933 -0.75867,-1.15733 0.46134,0.0867 0.924,0.16933 1.38667,0.24666 0.284,0.43867 0.58133,0.872 0.92,1.24534 z m 4.06533,-2.66 c -0.132,-0.22267 -0.27466,-0.47467 -0.428,-0.73067 0.268,0.11333 0.528,0.23867 0.78134,0.37333 0.19066,0.68267 0.41466,1.37334 0.696,2.05734 -0.35467,-0.59067 -0.736,-1.16534 -1.04934,-1.7 z m -3.56133,1.628 c 0.344,0.044 0.688,0.0787 1.03067,0.108 0.21866,0.376 0.45066,0.74533 0.72133,1.09733 0.416,0.54 1.204,-0.04 0.852,-0.612 -0.0853,-0.14133 -0.18267,-0.276 -0.27333,-0.41467 l 0.024,10e-4 c 0.252,0.004 0.268,-0.34134 0.08,-0.44267 -0.18,-0.0973 -0.37334,-0.16667 -0.56,-0.248 -0.72667,-1.04133 -1.49867,-2.05467 -2.19734,-3.108 l 0.096,0.0787 c 0.51867,0.164 1.032,0.35733 1.54934,0.53466 0.41466,0.79067 0.984,1.56534 1.368,2.292 0.0973,0.18667 0.192,0.384 0.288,0.58267 l 0.072,0.24533 0.0653,0.0373 c 0.33067,0.7 0.66667,1.43066 1.108,2.048 -1.32,-0.36667 -2.64667,-0.69867 -3.98267,-1 0.11334,-0.11867 0.18667,-0.28534 0.13334,-0.452 -0.084,-0.264 -0.22134,-0.50934 -0.37467,-0.748 z m 8.38933,3.47466 c -0.29733,-0.096 -0.59866,-0.19333 -0.89333,-0.288 -0.15067,-0.34133 -0.32933,-0.672 -0.51467,-1 0.33334,0.14934 0.668,0.296 1.00534,0.43734 0.13066,0.28666 0.252,0.57333 0.40266,0.85066 z m 6.24134,1.444 c -0.40267,0.004 -0.81067,0.005 -1.16934,-0.0907 -0.132,-0.0347 -0.204,0.064 -0.20933,0.17066 -0.26,-0.076 -0.52,-0.152 -0.77867,-0.23066 -0.0733,-0.46534 -0.28,-0.9 -0.51333,-1.324 0.55467,0.31466 1.11867,0.61066 1.69467,0.892 0.30133,0.148 0.63333,0.38266 0.976,0.58266 z m -21.46,-7.97066 c 1.58533,-2.40134 5.324,-3.77334 7.98666,-4.328 3.396,-0.70667 6.13067,2.824 9.012,4.19733 4.58534,2.184 11.64667,4.81467 14.05334,9.69867 0.0813,0.164 0.19733,0.26533 0.32266,0.328 l -0.0973,0.092 -0.0147,-0.003 c -1.80666,0.032 -3.65333,-0.18667 -5.50666,-0.536 l 0.24266,-0.005 0.19067,-0.13467 c 0.112,-0.15733 0.14133,-0.372 0.0173,-0.53467 -0.54933,-0.71733 -1.13866,-1.35066 -1.90533,-1.83466 -0.18133,-0.11334 -0.33733,0.14133 -0.24667,0.292 0.43334,0.72 0.92267,1.38666 1.43334,2.05333 l 0.21333,0.152 c -0.37467,-0.0707 -0.74933,-0.13867 -1.124,-0.22 l 0.0147,-0.0707 c 0.0267,-0.632 -0.75467,-1.33333 -1.132,-1.79066 -0.456,-0.55334 -0.99467,-1.26134 -1.73867,-1.40134 -0.19867,-0.0373 -0.30933,0.18 -0.21867,0.33867 0.16267,0.28133 0.36267,0.544 0.56267,0.80667 -0.228,-0.12534 -0.46533,-0.23734 -0.672,-0.34534 -0.916,-0.476 -1.864,-0.876 -2.73467,-1.43333 -0.19066,-0.12267 -0.39466,-0.0973 -0.54933,-10e-4 -0.51467,-0.88534 -1.06133,-1.75334 -1.64267,-2.596 -0.12933,-0.188 -0.47466,-0.028 -0.368,0.18666 0.468,0.928 0.896,1.87334 1.296,2.832 l 0.0413,0.11067 c -0.108,-0.088 -0.24,-0.152 -0.41067,-0.152 -0.812,0 -0.67733,1.252 0.124,1.252 0.32267,0 0.49067,-0.19733 0.532,-0.436 0.10667,0.30533 0.216,0.61333 0.34533,0.908 -0.44933,-0.14267 -0.89733,-0.284 -1.34133,-0.42667 -0.0907,-0.312 -0.224,-0.60666 -0.36933,-0.89866 0.15066,-0.11334 0.20933,-0.336 0.032,-0.504 -0.16267,-0.15334 -0.34134,-0.28 -0.52,-0.40667 -0.072,-0.12667 -0.144,-0.25467 -0.21334,-0.38267 -0.544,-1.01733 -1.08933,-2.03066 -1.59866,-3.06666 -0.24534,-0.49867 -1.05334,-0.22934 -0.828,0.30133 0.33333,0.784 0.68266,1.56133 1.032,2.33733 -0.37334,-0.136 -0.756,-0.25733 -1.14267,-0.37066 -0.172,-0.284 -0.34133,-0.568 -0.49867,-0.856 -0.272,-0.496 -0.52666,-1.004 -0.78133,-1.51067 0.19467,0.10667 0.392,0.21333 0.59333,0.312 0.20534,0.1 0.46267,-0.17067 0.30134,-0.35867 -0.41334,-0.48266 -0.92267,-0.82933 -1.47867,-1.104 -0.15467,-0.30933 -0.30667,-0.61866 -0.46667,-0.924 -0.0853,-0.164 -0.376,-0.0587 -0.34266,0.12 0.0307,0.164 0.0867,0.33867 0.124,0.50534 -0.364,-0.13467 -0.74267,-0.24534 -1.12534,-0.344 -0.404,-0.53467 -0.88266,-0.99467 -1.468,-1.16667 -0.16133,-0.048 -0.25866,0.13467 -0.228,0.26667 0.044,0.18533 0.128,0.36933 0.20267,0.55333 -0.42933,-0.0933 -0.852,-0.188 -1.24933,-0.30133 -0.148,-0.0413 -0.212,0.11733 -0.15734,0.22666 -0.112,-0.168 -0.236,-0.32933 -0.34266,-0.5 -0.136,-0.21866 -0.45067,0.007 -0.32534,0.22534 0.54,0.944 0.96667,1.93866 1.44267,2.90933 -0.45733,-0.10933 -0.92533,-0.192 -1.40267,-0.24933 l -0.092,-0.112 c -0.612,-0.768 -1.3,-1.47334 -1.844,-2.29467 -0.12,-0.18133 -0.42266,-0.0307 -0.34133,0.17333 0.29867,0.75734 0.67333,1.44267 1.09733,2.12667 -0.496,-0.0307 -0.99333,-0.0467 -1.48933,-0.0573 -0.46,-0.524 -0.93333,-1.04134 -1.35467,-1.58934 -0.124,-0.16133 -0.38133,0.012 -0.26133,0.18 0.31467,0.43734 0.588,0.91467 0.856,1.39467 -0.784,-0.0107 -1.552,-0.0213 -2.28,-0.0667 -0.21067,-0.012 -0.28133,0.3 -0.0613,0.332 0.90933,0.128 1.83466,0.3 2.76666,0.47734 l 0.196,0.34266 c 0.136,0.21867 0.27867,0.496 0.44534,0.76 -2.12934,-0.504 -4.83467,-1.47466 -3.512,-3.47866 z m 32.49466,10.73733 c 0.124,-0.27733 0.0627,-0.51467 -0.076,-0.69333 3.176,-3.048 9.724002,0.46266 13.397336,0.93866 l 0.288,-0.0293 c 0.594666,1.276 0.92,2.88267 1.378666,4.08 1.085334,2.83467 0.761334,5.30267 0.141334,8.176 -0.553334,2.56533 -1.169334,5.09733 -1.494667,7.70533 -0.316,2.528 -2.789333,2.408 -4.829333,2.324 0.218666,-0.77066 0.332,-1.62933 0.517333,-2.24666 0.298667,-0.992 0.910667,-2.59467 0.164,-3.51334 -0.157333,-0.19333 -0.490667,-0.25466 -0.654667,-0.0227 -0.746666,1.06533 -0.810666,2.94933 -1.122666,4.20666 -0.124,0.49867 -0.365334,1.24267 -0.348,1.88 l -0.0053,0.0133 c -0.432,0.0693 -0.921333,0.04 -1.376,-0.0307 0.814667,-1.81333 1.085334,-4.08533 -0.169333,-5.70667 -0.185333,-0.23866 -0.633333,-0.18933 -0.669333,0.15067 -0.206667,1.88933 0.05067,3.56667 -0.725334,5.29866 -1.357336,-0.21466 -2.665336,-0.40933 -3.960006,-0.97066 1.452,-2.54267 1.59734,-4.90667 0.85734,-7.90133 -0.93734,-3.78934 -3.00267,-9.85067 -1.31334,-13.65867 z m 33.129335,-10.68533 c -0.05333,0.12 -0.117333,0.22666 -0.169333,0.35066 -0.354667,0.86134 -0.808,1.776 -1.037334,2.692 -0.7,0.24667 -1.390666,0.484 -2.044,0.69867 0.261334,-0.53733 0.433334,-1.148 0.656,-1.66933 0.405334,-0.95334 0.873334,-1.87867 1.366667,-2.788 0.405333,0.244 0.82,0.476 1.228,0.716 z m 1.754667,0.99466 c -0.08533,0.32134 -0.152,0.64667 -0.166667,0.95867 -0.496,0.21467 -0.996,0.42133 -1.496,0.61333 0.182667,-0.48 0.326667,-0.98 0.489333,-1.45466 0.076,-0.21734 0.144,-0.43867 0.216,-0.65734 0.165334,0.0907 0.324,0.192 0.492,0.28 0.156,0.0813 0.310667,0.172 0.465334,0.26 z m 4.730666,-2.01866 c -0.149333,0.132 -0.281333,0.27466 -0.438666,0.4 -0.342667,-0.17067 -0.732,-0.26934 -1.112,-0.38267 0.07867,-0.29067 0.133333,-0.568 0.181333,-0.81867 0.432,0.30134 0.894667,0.59867 1.369333,0.80134 z m -13.053333,0.34533 c 2.497334,-1.48133 4.58,-3.588 7.174667,-4.89467 2.154666,-1.08533 10.483999,-1.96266 7.506666,2.73334 l -0.138666,0.196 c -0.258667,-0.0947 -0.526667,-0.0667 -0.829334,-0.104 -0.478666,-0.0573 -0.882666,-0.336 -1.233333,-0.64667 -0.408,-0.36133 -0.896,0.27067 -0.526667,0.644 l 0.06133,0.0547 c -0.561334,-0.29067 -1.296,-0.57734 -1.726667,-1.00667 -0.184,-0.184 -0.453333,0.132 -0.261333,0.31067 0.212,0.19733 0.378666,0.48933 0.584,0.70533 l 0.298666,0.27467 -0.101333,0.21333 c -0.052,0.28133 -0.121333,0.55333 -0.202667,0.82133 l -0.341333,-0.168 c 0.116,-0.25066 0.222667,-0.504 0.366667,-0.74933 0.198666,-0.33733 -0.36,-0.68667 -0.582667,-0.364 -0.169333,0.24667 -0.32,0.50667 -0.473333,0.764 -0.42,-0.23733 -0.833334,-0.48533 -1.230667,-0.732 -0.210667,-0.13067 -0.382667,0.19467 -0.221333,0.348 0.369333,0.34933 0.732,0.67867 1.110666,0.988 -0.166666,0.31867 -0.329333,0.63867 -0.464,0.97333 l -0.04133,0.108 c -0.336,-0.13466 -0.673333,-0.264 -1.017333,-0.384 0.137333,-0.428 0.276,-0.85466 0.425333,-1.27733 0.07733,-0.21733 -0.209333,-0.44667 -0.364,-0.232 -0.3,0.41467 -0.558667,0.82933 -0.796,1.25733 -0.966667,-0.31866 -1.922667,-0.61466 -2.761333,-0.96666 -0.22,-0.092 -0.36,0.21466 -0.156,0.332 0.222666,0.12666 0.438666,0.26133 0.658666,0.392 -0.506666,0.79866 -0.989333,1.608 -1.437333,2.44 -0.445333,0.824 -1.084,1.80133 -1.097333,2.76533 -0.456,0.152 -0.910667,0.324 -1.365333,0.49333 0.505333,-1.5 1.030666,-3.10133 1.882666,-4.39066 0.134667,-0.20267 -0.152,-0.45334 -0.296,-0.248 -1.124,1.612 -2.158666,3.128 -2.746666,5.04266 l -0.0027,0.0333 c -0.472,0.18533 -0.944,0.37066 -1.417333,0.556 0.208,-0.45467 0.4,-0.91867 0.614666,-1.31734 0.541334,-1.00666 1.214667,-2.05066 1.369334,-3.20266 0.028,-0.2 -0.226667,-0.33734 -0.364,-0.17067 -0.737334,0.89867 -1.282667,1.984 -1.881334,2.98 -0.412,0.688 -0.981333,1.46267 -1.213333,2.27467 -0.408,0.15066 -0.814667,0.304 -1.225333,0.44133 0.193333,-0.388 0.358666,-0.79467 0.541333,-1.15467 0.478667,-0.94 0.881333,-1.91866 1.248,-2.90666 0.08,-0.212 -0.237333,-0.36667 -0.322667,-0.15067 -0.390666,0.99467 -0.952,1.88133 -1.510666,2.788 -0.325334,0.52533 -0.749334,1.108 -0.952,1.72 -0.32,0.0947 -0.636,0.208 -0.96,0.28667 0.118666,-0.25467 0.226666,-0.51734 0.353333,-0.76667 0.313333,-0.61867 0.672,-1.21467 1.006667,-1.82133 0.106666,-0.192 -0.194667,-0.32667 -0.305334,-0.14267 -0.318666,0.53067 -0.646666,1.056 -0.96,1.58933 -0.232,0.396 -0.492,0.812 -0.638666,1.25467 -0.228,0.048 -0.454667,0.104 -0.684,0.14267 -1.176,0.19866 -2.52,0.27066 -3.710667,0.65333 2.22,-4.23733 7.421333,-6.44533 11.357333,-8.78 z m 18.257333,27.91067 c -0.453333,-2.40534 -0.546667,-4.91467 -0.748,-7.35067 -0.205333,-2.46267 -1.113333,-5.58667 -0.428,-8.004 0.4,-1.40667 1.288,-2.61067 1.657333,-4.05467 0.393334,-1.53733 -0.07867,-3.38 -0.384,-4.87866 -0.404,-1.98534 -0.604,-4.79734 -1.649333,-6.764 0.102667,-0.87067 -0.114667,-1.776 -0.822666,-2.70267 -1.257334,-1.64533 -4.9,-1.53467 -6.693334,-1.47867 -3.516,0.11067 -6.315999,3.268 -9.019999,5.08534 -4.604,3.09466 -12.397333,5.776 -13.286667,12 l -0.01867,0.0147 c -0.177334,0.003 -0.336,0.116 -0.424,0.27067 -3.202667,-1.008 -10.863992,-3.33733 -13.338662,-0.63067 -0.85467,-2.54 -3.52933,-4.25066 -5.63867,-5.65466 -3.136,-2.08667 -6.45866,-3.452 -9.836,-5.06534 -3.81466,-1.82133 -5.10666,-4.64266 -9.69066,-3.73733 -3.03067,0.6 -6.20267,2.36133 -8.216,4.70667 -0.48267,0.56133 -0.756,1.07733 -0.86534,1.55466 -2.69466,4.19467 -2.11466,10.03867 -0.28933,14.51334 0.79867,1.956 1.736,3.82666 2.388,5.84266 0.88933,2.74934 -0.068,5.224 -0.948,7.804 -1.396,4.09334 0.24133,6.57333 0.97867,10.55333 0.43066,2.32267 0.56933,5.54934 3.588,6.06534 3.25066,0.55333 6.108,-1.476 9.03466,-2.56267 1.71467,-0.636 3.46934,-1.216 5.21867,-1.81467 -3.67733,6.76267 -9.332,11.82934 -15.384,16.47334 -5.02533,3.856 -10.484,7.892 -12.844,14.00666 -0.34133,0.88534 0.86,1.35334 1.31733,0.57067 3.20267,-5.46667 10.02267,-6.53067 15.672,-7.904 4.78134,-1.16133 9.704,-3.312 12.808,-7.252 -1.14,5.78 -1.14133,11.76667 -4.53866,16.62533 -0.83067,0.74134 -1.57467,1.54934 -2.14534,2.472 -0.46666,0.752 0.43334,1.936 1.18934,1.21467 l 0.16,-0.16533 0.005,0.004 0.0253,-0.036 c 0.652,-0.64 1.24934,-1.31734 1.78667,-2.032 1.132,-0.964 2.44267,-1.71334 3.70267,-2.60134 1.99733,-1.40933 3.988,-2.824 5.928,-4.30933 3.27733,-2.512 6.25733,-5.36667 8.612,-8.768 0.51066,-0.73867 0.96533,-1.51067 1.38666,-2.29867 0.58134,2.07334 0.966665,4.18534 1.893332,6.16267 1.041333,2.22267 2.616,4.24933 4.162666,6.136 3.524,4.3 8.009333,7.77467 12.372,11.17067 0.829333,0.64666 1.668,-0.54 0.976,-1.24667 -3.985333,-4.07467 -4.805333,-8.89467 -5.250667,-14.34933 -0.06933,-0.84534 -0.05067,-2.4 -0.234666,-3.90134 1.777333,2.46534 4.073333,4.25867 6.818666,5.86 4.050667,2.36134 8.136,5.18667 12.786667,6.12134 1.017333,0.20533 1.344,-1.268 0.469333,-1.68267 -3.390667,-1.60667 -6.26,-3.69333 -8.297333,-6.88 -1.916,-2.99467 -2.504,-6.74267 -3.118667,-10.17467 -0.570666,-3.18266 -1.058666,-6.212 -2.296,-9.22133 -1.122666,-2.72933 -2.502666,-5.34533 -3.757333,-8.02133 0.845333,0.29866 1.684,0.60133 2.484,0.95333 2.374667,1.04267 4.804,2.07067 7.018667,3.428 1.561333,0.95733 2.887999,2.14933 4.565333,2.92267 2.557333,1.18 4.713333,-0.29734 6.538666,-2.03067 1.849334,-1.75733 4.6,-3.56267 5.237333,-6.20667 0.704,-2.92133 -0.07467,-5.86666 -0.617333,-8.75199"
         style="fill:#422000;fill-opacity:1;fill-rule:nonzero;stroke:none;stroke-width:0.133333" />
      <path
         id="path3099"
         d="m -89.481654,-219.2013 c -1.126667,-2.364 -1.654667,-4.748 -2.234667,-7.28 -0.06533,-0.28266 -0.472,-0.20133 -0.525333,0.0427 -0.446667,2.08 0.224,4.09067 0.942666,6.03733 0.86,2.332 1.948,5.07067 3.502667,7.02534 0.185333,0.23466 0.614666,0.124 0.574666,-0.20667 -0.239999,-1.99733 -1.405333,-3.82533 -2.259999,-5.61867"
         style="fill:#422000;fill-opacity:1;fill-rule:nonzero;stroke:none;stroke-width:0.133333" />
    </g>
  </g>
</svg>
