<?xml version="1.0" encoding="UTF-8" standalone="no"?>
<!-- Created with Inkscape (http://www.inkscape.org/) -->

<svg
   version="1.1"
   id="svg1"
   width="163.26511"
   height="174.5351"
   viewBox="0 0 163.26511 174.5351"
   xmlns="http://www.w3.org/2000/svg"
   xmlns:svg="http://www.w3.org/2000/svg">
  <defs
     id="defs1" />
  <g
     id="g1"
     transform="translate(-306.6415,-1018.7517)">
    <g
       id="group-R5">
      <path
         id="path3346"
         d="m 393.57515,1038.2119 c -1.63333,4.816 -3.328,9.6067 -4.88133,14.448 -0.664,2.068 -1.23733,4.2067 -1.85867,6.3294 0.82267,-1.108 1.676,-2.184 2.47334,-3.24 3.016,-3.996 5.852,-8.1254 8.228,-12.54 2.88933,-5.3667 6.74,-12.3947 6.34266,-18.82 -0.31333,-5.0627 -5.7,2.7053 -6.392,4.092 -1.56533,3.1373 -2.788,6.4146 -3.912,9.7306"
         style="fill:#4c7790;fill-opacity:1;fill-rule:nonzero;stroke:none;stroke-width:0.133333" />
      <path
         id="path3347"
         d="m 382.30315,1048.6066 c 0.536,-2.3973 1.47334,-4.568 3.07334,-6.1947 0.24533,-0.2506 0.63466,0.028 0.49466,0.3427 -2.94933,6.6347 -2.27866,13.4733 -2.26666,20.528 0,0.4253 -0.28134,0.672 -0.6,0.7427 l -0.0747,0.3026 0.15333,0.068 c 0.124,0.076 0.252,0.1667 0.37867,0.2507 0.22133,-0.5453 0.46667,-1.084 0.744,-1.6093 0.75867,-5.3027 2.80133,-10.6774 4.44267,-15.636 1.532,-4.628 3.036,-9.2934 4.74266,-13.86 1.468,-3.928 3.09334,-8.2054 6.18267,-11.1694 0.268,-0.2573 0.64533,-0.5533 1.07867,-0.8293 -3.32134,-0.8693 -6.71467,-1.0227 -10.076,0.4093 -4.81734,2.0534 -6.89067,5.896 -7.844,10.876 -0.468,2.4494 -0.76134,4.9227 -0.96,7.404 0.13866,1.676 0.23066,3.3614 0.30666,5.06 0.0493,1.108 0.13067,2.212 0.224,3.3147"
         style="fill:#7abbc9;fill-opacity:1;fill-rule:nonzero;stroke:none;stroke-width:0.133333" />
      <path
         id="path3348"
         d="m 373.60049,1061.9906 c -0.33867,-0.5533 -0.65734,-1.0947 -0.96,-1.5547 -1.11334,-1.688 -2.05467,-3.3813 -2.85867,-5.2333 -0.11867,-0.272 0.28267,-0.3987 0.43867,-0.2 1.34666,1.712 2.776,3.3747 4.16933,5.0493 1.04667,1.2574 2.632,2.7214 2.972,4.3707 0.14133,-0.049 0.28933,-0.075 0.43333,-0.1147 -0.80133,-1.7973 -1.67733,-3.5666 -2.39866,-5.3866 -0.0827,-0.2067 0.17733,-0.4014 0.36133,-0.3 1.90933,1.06 3.068,3.3546 3.884,5.4 l 0.0747,-0.017 c -1.41467,-4.26 -3.85334,-8.0026 -5.796,-12.0573 -2.05334,-4.2853 -3.75467,-8.844 -4.484,-13.56 -0.41334,-2.6773 -1.076,-9.1987 0.74266,-12.808 -2.98133,0.84 -5.68,2.1987 -7.56266,4.9987 -2.62267,3.9026 -2.88534,8.628 -1.44267,13.0466 2.29467,7.028 6.90533,13.3814 12.42667,18.3667"
         style="fill:#7abbc9;fill-opacity:1;fill-rule:nonzero;stroke:none;stroke-width:0.133333" />
      <path
         id="path3349"
         d="m 373.94315,1047.2746 c 1.5,3.6707 3.85467,7.2827 5.59067,11.044 -0.54,-4.6587 -0.19867,-9.6707 -0.012,-14.0547 0.044,-1.0253 0.088,-2.088 0.13867,-3.1613 -0.108,-1.876 -0.268,-3.7453 -0.596,-5.5853 -0.476,-2.6614 -1.13334,-7.1574 -2.94267,-9.3894 -2.70533,-3.336 -4.76933,0.9214 -5.064,2.9867 -0.26,1.8227 -0.308,3.6813 -0.148,5.5173 0.37733,4.3414 1.38267,8.6054 3.03333,12.6427"
         style="fill:#4c7790;fill-opacity:1;fill-rule:nonzero;stroke:none;stroke-width:0.133333" />
      <path
         id="path3350"
         d="m 383.25249,1067.1506 c -0.372,-0.312 -0.80267,-0.6587 -1.26667,-0.9107 l -0.008,0.091 c -0.0387,0.172 -0.24133,0.1747 -0.336,0.057 l -0.0387,-0.035 c -0.72266,0.1893 -1.45733,0.34 -2.19466,0.4866 -0.14667,0.081 -0.296,0.1054 -0.444,0.091 -0.53067,0.1107 -1.05867,0.232 -1.576,0.3893 -0.912,0.2787 -1.80134,0.7307 -2.72667,0.9214 -1.49733,1.796 -1.968,4.1133 0.412,5.764 2.74533,1.904 9.32667,2.6866 10.22,-1.8454 0.40533,-2.0573 -0.46267,-3.6866 -2.04133,-5.0093"
         style="fill:#7abbc9;fill-opacity:1;fill-rule:nonzero;stroke:none;stroke-width:0.133333" />
      <path
         id="path3351"
         d="m 384.96849,1105.2198 c -1.692,-5.2401 -2.53067,-10.6412 -3.24534,-16.0879 -0.50266,-3.828 0.028,-7.7666 -0.73466,-11.5546 -1.024,0.1386 -2.08534,0.096 -3.12134,-0.1174 -1.61466,4.768 -3.19733,9.2667 -3.92133,14.3067 -0.72533,5.048 -1.16133,10.1772 -1.22267,15.2797 -0.0267,2.2991 -0.112,5.1538 1.34,7.0975 2.66534,3.5667 7.16,3.5667 11.06267,2.3505 1.444,-0.4505 3.444,-1.4385 5.34667,-2.077 -2.70534,-2.2855 -4.80934,-7.0454 -5.504,-9.1975"
         style="fill:#7abbc9;fill-opacity:1;fill-rule:nonzero;stroke:none;stroke-width:0.133333" />
      <path
         id="path3352"
         d="m 393.82449,1109.6063 c -0.412,-2.089 -1.10667,-4.101 -2.03734,-6.0172 -1.63866,-3.377 -3.69466,-6.5305 -5.332,-9.9052 -1.24,-2.5533 -1.84266,-5.1413 -2.45466,-7.9013 -0.25867,-1.1653 -0.48667,-2.5493 -0.832,-3.8987 0.0387,0.8587 0.048,1.7094 0.0707,2.5094 0.108,3.6226 0.63067,7.2013 1.25334,10.772 1.05333,6.041 2.43466,14.116 7.86666,18.0134 2.144,1.537 1.68,-2.4844 1.46534,-3.5724"
         style="fill:#4c7790;fill-opacity:1;fill-rule:nonzero;stroke:none;stroke-width:0.133333" />
      <path
         id="path3353"
         d="m 407.18449,1088.7319 c 1.07066,0.1627 3.52933,0.5054 2.70666,-1.4226 -0.372,-0.8694 -0.852,-1.6774 -1.41733,-2.436 -1.15333,-1.548 -2.42667,-3.0227 -3.86667,-4.312 -2.352,-2.104 -5.392,-3.6347 -8.31333,-4.7947 -2.37467,-0.9427 -6.15067,-2.7493 -8.96,-2.7773 1.81733,3.3013 4.71467,6.2093 7.468,8.544 3.432,2.9093 7.76933,6.4973 12.38267,7.1986"
         style="fill:#4c7790;fill-opacity:1;fill-rule:nonzero;stroke:none;stroke-width:0.133333" />
      <path
         id="path3354"
         d="m 331.28049,1081.2026 -0.152,-0.2133 c 0.16266,0.1933 -0.34,-0.2227 -0.112,-0.1027 -0.20534,-0.108 -0.252,-0.085 -0.216,-0.088 -0.204,0.011 -0.12934,-0.023 -0.39067,0.093 -0.34667,0.156 -0.87067,0.7414 -1.27467,1.0707 -0.10266,0.084 -0.23066,0.1587 -0.364,0.2227 -0.25466,0.7906 -0.17333,1.648 0.69734,1.8306 0.476,0.1 0.94933,0.1454 1.37466,-0.037 0.21334,-0.092 0.42534,-0.2933 0.548,-0.556 0.28534,-0.612 0.284,-1.3667 -0.0147,-2.0453 -0.06,-0.136 0.0387,0.028 -0.096,-0.1747"
         style="fill:#7abbc9;fill-opacity:1;fill-rule:nonzero;stroke:none;stroke-width:0.133333" />
      <path
         id="path3355"
         d="m 329.56715,1085.8413 c -1.48,-0.2854 -2.63866,-1.288 -2.49466,-2.9027 0.0413,-0.4533 0.17866,-0.8813 0.38933,-1.256 l -0.003,-0.016 c -0.0707,-1.184 1.51734,-2.5093 2.596,-2.728 2.07867,-0.4227 3.468,1.4467 3.43334,3.396 -0.0373,2.1907 -1.60667,3.9533 -3.92134,3.5067 z m 22.24534,-3.2774 c -0.38667,-0.988 0.46933,-2.256 1.428,-2.548 0.89333,-0.2733 1.79466,0.041 2.49333,0.6227 1.32533,1.1027 2.55333,3.3627 1.72133,5.0867 -0.49066,1.0146 -1.51866,1.5586 -2.62,1.636 -1.212,0.085 -2.976,-0.035 -3.68933,-1.2054 -0.776,-1.2733 -0.27467,-2.616 0.712,-3.524 z m -18.37734,13.096 c 0.64,-1.7693 2.30267,-3.268 4.288,-2.9773 2.29467,0.3373 3.61734,2.5667 3.93067,4.7147 3.04,0.6626 6.35333,1.2304 9.12,2.7105 l 0.22267,0.2052 c 1.30133,-2.8464 2.88133,-5.5451 4.41466,-7.9597 2.832,-4.4614 6.77334,-9.8987 11.60667,-13.1467 -1.79867,0.1253 -3.604,0.059 -5.396,-0.3053 -4.108,-0.836 -7.99067,-2.5347 -11.496,-4.8334 -3.476,-2.2773 -6.75733,-5.0773 -9.32267,-8.368 l -0.13333,0.089 0.24,0.1413 c 0.376,0.328 0.42933,1.096 -0.0787,1.352 -4.70133,2.36 -8.828,5.8733 -12.91066,9.176 -2.11334,1.7093 -4.18134,3.4867 -6.392,5.0733 -1.85867,1.3334 -3.74534,2.632 -5.62667,3.9334 -0.012,0.1746 -0.0947,0.3493 -0.29333,0.488 -1.652,1.1546 -3.28,2.352 -4.96933,3.452 6.09066,3.044 12.89333,4.3333 19.54533,5.6 1.08666,0.208 2.168,0.4346 3.25066,0.6546"
         style="fill:#d93b6a;fill-opacity:1;fill-rule:nonzero;stroke:none;stroke-width:0.133333" />
      <path
         id="path3356"
         d="m 355.28049,1085.2306 c 0.26533,-0.1187 0.396,-0.3133 0.43066,-0.7267 0.064,-0.7386 -0.46133,-1.7853 -1.11466,-2.3746 -0.724,0.384 -1.32667,1.0213 -1.65334,1.7693 -0.14933,0.3453 -0.44666,0.9973 -0.08,1.2533 0.58,0.4054 1.77867,0.3654 2.41734,0.079"
         style="fill:#7abbc9;fill-opacity:1;fill-rule:nonzero;stroke:none;stroke-width:0.133333" />
      <path
         id="path3357"
         d="m 348.28982,1059.9613 -0.06,0.045 c -0.46933,0.3707 -0.93467,0.7453 -1.39733,1.1227 -0.612,0.5 -1.29067,1.156 -2.02934,1.5333 2.232,1.808 4.77334,3.16 7.59867,3.732 -1.58,-2.044 -2.944,-4.1933 -4.112,-6.4333"
         style="fill:#d93b6a;fill-opacity:1;fill-rule:nonzero;stroke:none;stroke-width:0.133333" />
      <path
         id="path3358"
         d="m 372.77515,1067.6679 c 0.48934,-0.616 1.06534,-1.1653 1.66534,-1.6226 l 0.328,-0.2374 c -3.332,-2.644 -6.76134,-6.0386 -9.62667,-9.86 -2.02933,2.9187 -7.328,0.784 -7.66667,-2.5946 l -0.12533,0.108 c -1.46533,1.2186 -3.19067,2.8986 -5.168,3.1506 l -0.072,-0.01 c 2.156,2.004 4.656,3.6747 7.22533,4.976 4.288,2.1693 9.628,3.052 13.44,6.0853"
         style="fill:#d93b6a;fill-opacity:1;fill-rule:nonzero;stroke:none;stroke-width:0.133333" />
      <path
         id="path3359"
         d="m 342.06582,1064.1746 c 2.32267,3.1107 5.31333,5.7787 8.48133,7.8547 3.41867,2.24 7.33867,4.3333 11.44667,4.876 3.27067,0.432 6.36133,0.124 9.464,-0.536 -0.89467,-0.3907 -1.74533,-0.8654 -2.44,-1.216 -2.03333,-1.024 -4.48267,-1.9267 -6.33467,-3.236 -0.35066,-0.248 -0.18533,-0.8547 0.20134,-0.9587 1.71066,-0.464 4.004,1.0493 5.468,1.7533 1.17466,0.5654 3.228,1.9614 4.89866,2.3174 -0.58666,-0.5387 -1.08266,-1.152 -1.41733,-1.8467 -0.88667,-0.236 -1.77467,-0.792 -2.508,-1.1773 -1.08,-0.5667 -2.14933,-1.0787 -3.14,-1.7947 -0.20267,-0.1453 -0.036,-0.4333 0.16533,-0.452 1.33867,-0.1307 2.43067,0.3627 3.644,0.872 0.43334,0.1827 0.91467,0.3387 1.396,0.5053 l -0.003,-0.099 c 0.0333,-0.736 0.244,-1.44 0.56933,-2.096 -5.20533,-3.4774 -11.84933,-4.16 -17.09467,-7.764 -2.448,-1.6814 -4.73333,-3.6414 -6.604,-5.904 1.688,4.28 4.10667,8.2333 7.204,11.8373 0.456,0.5307 -0.0293,1.5573 -0.736,1.52 -6.17466,-0.3213 -11.30933,-3.8093 -15.12666,-8.44 0.59466,1.22 1.30266,2.3907 2.09733,3.5053 0.176,0.1107 0.316,0.28 0.368,0.4787"
         style="fill:#7abbc9;fill-opacity:1;fill-rule:nonzero;stroke:none;stroke-width:0.133333" />
      <path
         id="path3360"
         d="m 361.02049,1055.2439 c 1.02,0.3534 2.28133,0.4054 2.75466,-0.7386 l 0.15734,-0.2334 c -0.932,-1.3693 -1.79067,-2.7813 -2.52934,-4.232 -0.464,0.4147 -1.01466,0.7867 -1.44266,1.1627 -0.45467,0.4013 -0.91734,0.7933 -1.37467,1.1907 l 0.084,0.18 c 0.31333,1.276 1.084,2.2333 2.35067,2.6706"
         style="fill:#7abbc9;fill-opacity:1;fill-rule:nonzero;stroke:none;stroke-width:0.133333" />
      <path
         id="path3361"
         d="m 372.70315,1087.4426 c 0.41067,-2.1053 0.94934,-4.2347 1.71467,-6.2133 -0.95867,1.4293 -1.8,2.94 -2.54267,4.4893 -1.144,2.384 -1.83466,5.216 -3.42533,7.3267 -0.20267,0.2706 -0.72267,0.095 -0.69867,-0.2507 0.36267,-5.2453 4.21867,-10.6387 8.00534,-14.396 0.26,-0.4453 0.532,-0.8813 0.83066,-1.292 l -0.12666,-0.06 c -0.11334,0.1707 -0.27734,0.3187 -0.54,0.392 -0.132,0.036 -0.268,0.067 -0.4,0.104 l -0.1,0.244 c -2.144,1.2533 -4.004,2.5373 -5.728,4.36 -1.31334,1.3893 -2.48134,3.252 -4.08934,4.3067 -0.28533,0.188 -0.58533,-0.1387 -0.464,-0.4227 0.92267,-2.1533 3.18934,-4.2973 4.93734,-5.816 0.74933,-0.6533 1.54933,-1.3467 2.42133,-1.892 l -0.11467,0.029 c -6.59333,3.2294 -11.77466,9.532 -15.536,15.6627 -3.12533,5.0917 -6.48933,11.3923 -6.624,17.6281 2.66,-4.003 5.44667,-7.8188 9.07067,-11.0828 0.58267,-0.524 1.71733,0.036 1.688,0.8052 -0.12,3.0839 -0.10667,6.1412 0.0693,9.1975 1.18,-3.0267 2.62134,-5.9412 4.19067,-8.8147 2.49067,-4.5613 4.49067,-9.468 7.05867,-13.9533 0.10266,-0.18 0.24666,-0.292 0.40266,-0.352"
         style="fill:#7abbc9;fill-opacity:1;fill-rule:nonzero;stroke:none;stroke-width:0.133333" />
      <path
         id="path3362"
         d="m 448.53915,1087.2439 c 0.68934,0.52 2.12133,0.5 2.35067,-0.5493 0.19333,-0.8773 -0.28267,-1.7987 -0.996,-2.308 -0.86667,-0.6187 -1.35467,0.104 -2.17733,0.3333 -0.0893,0.3574 -0.20267,0.7067 -0.0773,1.0907 0.18,0.556 0.42,1.0707 0.9,1.4333"
         style="fill:#7abbc9;fill-opacity:1;fill-rule:nonzero;stroke:none;stroke-width:0.133333" />
      <path
         id="path3363"
         d="m 427.12449,1097.5626 c 1.07733,0.4653 1.61466,0.1933 1.82933,-0.8173 0.22133,-1.0334 0.084,-2.4 -0.428,-3.1934 -0.18,-0.28 -0.14,-0.26 -0.364,-0.412 -10e-4,0 0.0267,-0.025 -0.14533,0.01 0.064,-0.012 -0.16267,0.089 -0.30134,0.2214 -0.276,0.26 -0.58666,0.5146 -0.94,0.652 -0.148,0.057 -0.284,0.06 -0.40666,0.027 -0.29067,0.348 -0.524,0.7467 -0.66534,1.1547 -0.41866,1.2053 0.388,1.9133 1.42134,2.36"
         style="fill:#7abbc9;fill-opacity:1;fill-rule:nonzero;stroke:none;stroke-width:0.133333" />
      <path
         id="path3364"
         d="m 433.34715,1038.8413 c 0.0587,0.916 0.368,1.9093 1.10667,2.5146 0.87733,0.7187 1.83067,0.52 2.76933,0.9454 0.25067,-2.228 0.064,-4.488 -0.72,-6.6414 -0.0627,-0.1706 -0.136,-0.3346 -0.20266,-0.5026 -0.63734,0.292 -1.356,0.468 -1.868,1.0146 -0.68534,0.7307 -1.152,1.6387 -1.08534,2.6694"
         style="fill:#7abbc9;fill-opacity:1;fill-rule:nonzero;stroke:none;stroke-width:0.133333" />
      <path
         id="path3365"
         d="m 383.74582,1076.7159 c 1.83333,2.86 3.06933,6.212 4.77733,9.152 1.88,3.236 3.948,6.5427 6.656,9.164 2.84667,2.756 5.796,3.4014 9.20534,0.9694 2.00666,-1.432 2.91866,-2.9827 3.85066,-4.784 -4.14533,-0.048 -9.65733,-4.1227 -11.952,-5.9267 -3.492,-2.7467 -7.93466,-6.5947 -9.712,-11.0973 -0.676,1.0986 -1.67066,1.936 -2.82533,2.5226"
         style="fill:#7abbc9;fill-opacity:1;fill-rule:nonzero;stroke:none;stroke-width:0.133333" />
      <path
         id="path3366"
         d="m 446.77382,1064.8866 c 1.42,0.744 2.6,0.083 3.66933,-0.7893 -1.32,-0.6414 -2.67466,-1.204 -4.05866,-1.6934 -0.32534,0.34 -0.71067,0.7254 -0.56534,1.24 0.14534,0.512 0.47067,0.9894 0.95467,1.2427"
         style="fill:#7abbc9;fill-opacity:1;fill-rule:nonzero;stroke:none;stroke-width:0.133333" />
      <path
         id="path3367"
         d="m 464.88582,1083.0679 c 0.63066,0.7627 1.27866,1.072 2.06266,1.436 -0.23733,-2.2586 -0.84533,-4.5013 -1.86133,-6.6573 -1.94533,1.184 -1.61333,3.5147 -0.20133,5.2213"
         style="fill:#7abbc9;fill-opacity:1;fill-rule:nonzero;stroke:none;stroke-width:0.133333" />
      <path
         id="path3368"
         d="m 422.57515,1053.7853 c 0.79467,-0.2974 1.40267,-1.188 0.83734,-1.9547 -0.37867,-0.5133 -1.07334,-0.9187 -1.73067,-0.824 -0.44,0.064 -0.67067,0.448 -0.91867,0.8213 0.268,0.9827 0.684,2.38 1.812,1.9574"
         style="fill:#7abbc9;fill-opacity:1;fill-rule:nonzero;stroke:none;stroke-width:0.133333" />
      <path
         id="path3369"
         d="m 367.68449,1101.6558 c -0.55334,1.0145 -1.09467,2.0323 -1.62134,3.052 0.668,0.096 1.34267,0.3052 1.952,0.4839 0.78934,0.2333 1.90267,0.427 2.644,0.9428 0.032,-3.8386 0.392,-7.7466 0.9,-11.5279 -1.19866,2.4427 -2.652,4.8039 -3.87466,7.0492"
         style="fill:#d93b6a;fill-opacity:1;fill-rule:nonzero;stroke:none;stroke-width:0.133333" />
      <path
         id="path3370"
         d="m 337.41649,1094.2306 c -1.29467,-0.1733 -2.08534,0.6933 -2.652,1.696 1.672,0.3467 3.34266,0.7027 5.012,1.0653 -0.34534,-1.2666 -0.95334,-2.5733 -2.36,-2.7613"
         style="fill:#7abbc9;fill-opacity:1;fill-rule:nonzero;stroke:none;stroke-width:0.133333" />
      <path
         id="path3371"
         d="m 447.08049,1106.0985 c -0.73867,0.3084 -1.69867,0.8828 -1.84267,1.7546 -0.17067,1.0266 0.71733,1.6199 1.124,2.4256 1.68533,-0.5693 3.32933,-1.2442 4.92666,-2.024 -0.0373,-0.127 -0.06,-0.2641 -0.0507,-0.424 0.144,-2.2442 -2.61333,-2.3734 -4.15733,-1.7322"
         style="fill:#7abbc9;fill-opacity:1;fill-rule:nonzero;stroke:none;stroke-width:0.133333" />
      <path
         id="path3372"
         d="m 404.27915,1064.5706 c 1.13067,-0.1013 2.388,-1.9547 1.716,-2.876 -0.47866,-0.6573 -1.79866,-0.968 -2.64133,-0.7627 -0.292,0.071 -0.46267,0.1174 -0.62667,0.2347 -0.0987,0.069 -0.12666,0.04 -0.192,0.2307 0.0547,-0.16 -0.012,0.176 -0.016,0.212 0.016,-0.136 -0.004,0.208 -0.003,0.1826 -0.003,0.1494 -0.0147,0.3027 -0.052,0.4494 l 0.02,-0.031 -0.028,0.06 -0.032,0.1187 -0.0547,0.063 -0.14933,0.1694 -0.0493,0.059 0.0307,-0.045 -0.15333,0.093 c 0.02,0.2707 0.1,0.5387 0.28666,0.8027 0.424,0.6027 1.17334,1.108 1.944,1.04"
         style="fill:#7abbc9;fill-opacity:1;fill-rule:nonzero;stroke:none;stroke-width:0.133333" />
      <path
         id="path3373"
         d="m 413.65515,1034.0199 c 0.82934,-0.26 1.77867,-1.1213 1.45734,-1.908 -0.19734,-0.4866 -0.892,-0.9773 -1.48267,-0.9453 -0.32267,0.019 -0.54667,0.097 -0.77333,0.42 -0.14134,0.2 -0.204,0.4467 -0.284,0.6747 -0.11067,0.3146 -0.244,0.476 -0.47067,0.712 l -0.0373,0.024 c -0.0227,0.16 -0.012,0.3226 0.10933,0.4853 0.31867,0.4293 0.952,0.7027 1.48133,0.5373"
         style="fill:#7abbc9;fill-opacity:1;fill-rule:nonzero;stroke:none;stroke-width:0.133333" />
      <path
         id="path3374"
         d="m 407.92715,1061.5853 c 0.54667,2.4893 -1.99466,5.4346 -4.592,4.6666 -1.21066,-0.3586 -2.33066,-1.1693 -2.78933,-2.3906 -0.30933,-0.824 -0.24,-1.732 0.17067,-2.46 -0.0133,-0.5 0.15866,-1.012 0.50666,-1.3667 0.616,-0.6267 1.46267,-0.9347 2.33334,-0.984 1.72666,-0.099 3.952,0.6293 4.37066,2.5347 z m 3.124,-29.5334 c -0.0667,-1.3933 1.57467,-2.644 2.952,-2.4733 1.344,0.1667 2.81334,1.3813 2.756,2.8413 -0.0733,1.8867 -2.30533,3.6867 -4.18533,3.0574 -0.96,-0.3214 -1.85067,-1.004 -2.00667,-2.0694 -0.0787,-0.5346 0.12934,-1.024 0.484,-1.356 z m 7.204,74.2184 c 0.82267,1.4402 0.28534,3.0938 -1.164,3.8818 -1.44666,0.7865 -3.14666,0.4838 -4.28266,-0.6135 -0.188,0.076 -0.42,0.043 -0.59334,-0.075 -1.62933,-1.1135 -0.66933,-3.8818 0.79067,-4.6896 1.65867,-0.9198 4.30133,-0.1651 5.24933,1.4958 z m 3.67334,-57.0477 c 1.396,0.087 3.01066,1.0533 3.336,2.512 0.416,1.8693 -1.148,3.9293 -3.15867,3.7307 -1.01333,-0.1014 -1.82933,-0.768 -2.324,-1.632 -0.24533,-0.4294 -0.37867,-1.0254 -0.35467,-1.5947 -1.116,-1.512 1.124,-3.1027 2.50134,-3.016 z m 2.968,44.42 c 0.292,-0.292 0.62266,-0.516 0.97066,-0.696 0.232,-0.8707 1.30534,-1.6933 2.18267,-1.6573 0.892,0.036 1.62133,0.5293 2.05467,1.3106 0.86133,1.552 1.18933,3.896 0.29333,5.512 -1.276,2.3002 -4.16533,1.5371 -5.72,-0.089 -1.19333,-1.2493 -0.956,-3.2027 0.21867,-4.38 z m 3.31066,-21.2147 c 0.25334,-0.5026 0.65467,-0.948 1.06534,-1.164 0.88,-0.4613 1.81466,-0.4933 2.736,-0.1066 1.73333,0.728 3.24,2.5866 3.11733,4.5293 -0.16,2.5373 -3.704,3.54 -5.71867,2.6813 -2.424,-1.0333 -3.132,-4.1973 -1.2,-5.94 z m 18.69467,11.4294 c 0.25067,-1.8507 2.97467,-1.8107 4.184,-0.872 1.32133,1.0266 2.248,3.0426 1.49466,4.668 -0.95066,2.052 -3.80133,2.4813 -5.40799,0.9306 -0.72267,-0.696 -1.38534,-1.6853 -1.33734,-2.7373 0.032,-0.704 0.32667,-1.7347 1.06667,-1.9893 z m -53.52133,-29.9454 c -2.76667,3.832 -6.50134,7.652 -8.136,12.1547 1.232,1.1867 2.23733,2.6813 2.29866,4.2813 0.009,0.2374 -0.0133,0.46 -0.0253,0.6867 1.25467,0.051 2.62667,0.5867 3.72,0.8893 2.00667,0.5547 4.01467,1.1587 5.932,1.98 3.456,1.48 6.97733,3.2027 9.64667,5.908 1.96933,1.9974 7.94933,7.824 4.19066,10.604 l -0.17466,0.1014 c 0.18133,5.2786 -8.996,10.8197 -13.43467,8.8014 -4.10133,-1.8668 -7.184,-6.7481 -9.352,-10.4894 -0.75333,-1.3014 -1.55467,-2.6787 -2.31333,-4.0987 0.0307,0.1427 0.0613,0.288 0.092,0.428 0.93733,4.252 2.28933,7.712 4.448,11.5333 2.22666,3.944 4.88,8.1987 5.47066,12.7811 0.0293,0.2271 0.0653,0.5229 0.10267,0.8457 l 0.0813,-0.018 c 10.71467,0.14 21.224,2.911 31.99867,2.8083 5.74267,-0.056 11.56267,-0.7255 17.03733,-2.3828 -0.936,-0.7521 -1.48533,-2.2719 -1.19333,-3.3068 0.388,-1.3683 1.52267,-2.3077 2.81067,-2.8265 2.67733,-1.0803 6.25999,-0.512 6.59733,2.6734 2.21333,-1.239 4.32133,-2.6974 6.27466,-4.4374 5.12667,-4.564 7.70934,-10.5494 7.608,-16.5654 l -0.184,0.012 c -3.79466,-0.9893 -6.91333,-8.1346 -2.112,-9.0693 -0.92933,-1.8133 -2.124,-3.564 -3.628,-5.1947 -2.688,-2.916 -5.744,-5.252 -9.04933,-7.068 -1.65733,1.908 -4.93866,2.9427 -6.87866,0.868 -0.972,-1.0386 -1.40134,-2.98 -0.412,-3.9253 -5.27467,-1.6213 -10.912,-2.216 -16.564,-1.92 l -0.15334,-0.02 c -1.972,1.3547 -4.09333,2.6253 -6.344,3.1093 -0.68533,0.148 -1.132,-0.6853 -0.53866,-1.124 4.44533,-3.276 9.57066,-6.024 12.69066,-10.7493 1.46,-2.2093 2.57867,-4.756 3.108,-7.3947 -2.63466,1.1227 -5.44133,-2.4413 -5.392,-4.8333 0.0307,-1.4587 0.49734,-2.8413 1.58534,-3.852 0.60666,-0.564 1.60933,-1.1173 2.552,-1.2053 -2.56534,-5.2187 -7.56,-8.956 -13.456,-9.652 -5.42667,-0.64 -10.716,0.5866 -16.10667,0.5533 0.31467,4.1493 -2.036,9.6547 -3.33333,12.56 -2.596,5.8147 -5.73467,11.388 -9.464,16.5533"
         style="fill:#d93b6a;fill-opacity:1;fill-rule:nonzero;stroke:none;stroke-width:0.133333" />
      <path
         id="path3375"
         d="m 416.13249,1108.5187 c 0.53466,-0.2629 0.82133,-0.7973 0.45333,-1.2733 -0.52667,-0.6813 -1.924,-1.3057 -2.708,-0.7057 -0.34133,0.2604 -0.49333,0.6853 -0.52933,1.1057 l -0.016,0.2119 0.25866,0.137 c 0.74534,0.6031 1.61867,0.9787 2.54134,0.5244"
         style="fill:#7abbc9;fill-opacity:1;fill-rule:nonzero;stroke:none;stroke-width:0.133333" />
      <path
         id="path3376"
         d="m 430.95782,1076.7719 c 0.94,-0.065 2.60933,-0.424 2.20667,-1.7093 -0.27467,-0.88 -1.06267,-1.9107 -1.99734,-2.1667 -1.33733,-0.368 -1.20133,1.0587 -2.304,1.5387 l -0.23866,0.024 c 0.136,1.2627 0.87066,2.4147 2.33333,2.3133"
         style="fill:#7abbc9;fill-opacity:1;fill-rule:nonzero;stroke:none;stroke-width:0.133333" />
      <path
         id="path3377"
         d="m 459.52315,1126.8157 c -0.54533,0.615 -1.45467,0.7666 -2.18667,1.0786 -0.75733,0.323 -1.60666,0.5511 -2.34,0.9068 -0.44,0.2135 -0.86266,-0.3933 -0.42133,-0.6573 0.808,-0.4812 1.5,-1.0453 2.38133,-1.424 0.732,-0.3145 1.58534,-0.7531 2.384,-0.4744 0.24,0.084 0.37067,0.3583 0.18267,0.5703 z m -10.08933,5.0573 c -0.548,0.864 -1.82267,1.1843 -2.76667,1.3911 -0.68133,0.1489 -1.024,-0.8844 -0.33333,-1.0427 0.548,-0.1255 1.08533,-0.2964 1.59467,-0.5349 0.38666,-0.1812 0.71466,-0.3495 1.148,-0.3735 0.26933,-0.014 0.51466,0.312 0.35733,0.56 z m -4.96533,1.6203 c -0.4,0.6828 -1.09067,0.8812 -1.82934,1.0265 -0.7,0.1375 -1.396,0.2573 -2.108,0.1896 -0.67466,-0.066 -0.56266,-0.9692 -0.064,-1.1828 0.68667,-0.2948 1.476,-0.376 2.204,-0.536 0.58134,-0.128 1.08667,-0.1963 1.648,0.036 0.168,0.069 0.24,0.3131 0.14934,0.4667 z m -6.60534,1.877 c -0.41066,0.3828 -0.928,0.3923 -1.45733,0.511 -0.264,0.058 -0.52933,0.1464 -0.79733,0.1838 -0.324,0.045 -0.664,0.014 -0.976,0.1068 -0.27467,0.083 -0.45734,-0.3078 -0.20934,-0.4589 0.30934,-0.1891 0.54134,-0.4823 0.84534,-0.6916 0.26666,-0.1828 0.66266,-0.3084 0.97733,-0.3693 0.56533,-0.111 1.14667,-0.2228 1.592,0.2209 0.12667,0.1255 0.17067,0.3615 0.0253,0.4973 z m -7.504,2.3547 c -0.39333,0.6057 -1.05466,0.7787 -1.74266,0.8803 -0.42,0.062 -0.82667,0.092 -1.252,0.073 -0.412,-0.019 -0.53067,-0.1641 -0.87867,-0.3428 -0.19867,-0.1025 -0.136,-0.352 0.0413,-0.4306 0.296,-0.1292 0.44267,-0.2708 0.784,-0.3256 0.36,-0.057 0.72667,-0.1026 1.08267,-0.1796 0.58133,-0.1256 1.18267,-0.3188 1.76133,-0.111 0.16534,0.06 0.32134,0.2547 0.204,0.4359 z m -6.51466,0.9828 c -0.50267,0.6188 -1.47734,0.6016 -2.216,0.6412 -0.75734,0.043 -1.47867,0.066 -2.188,-0.2396 -0.34134,-0.1468 -0.24534,-0.6297 0.064,-0.7401 0.74266,-0.2656 1.55066,-0.2682 2.32666,-0.3682 0.70134,-0.091 1.38667,-0.2609 1.98667,0.1854 0.16667,0.1256 0.144,0.3761 0.0267,0.5213 z m -8.60534,0.7776 c -0.476,0.6797 -1.452,0.6224 -2.19733,0.6 -0.80667,-0.024 -1.43467,-0.1457 -2.11333,-0.5724 -0.136,-0.085 -0.188,-0.3171 -0.0173,-0.4036 0.77334,-0.3973 1.452,-0.4443 2.32,-0.476 0.69334,-0.026 1.43067,-0.1573 1.98134,0.3463 0.15733,0.1442 0.13866,0.3442 0.0267,0.5057 z m -8.61733,0.1891 c -0.72533,0.5172 -1.73733,0.3442 -2.584,0.3532 -0.79333,0.01 -1.53467,-0.109 -2.296,-0.3292 l -0.0307,-0.188 c 0.82267,-0.4719 1.644,-0.7308 2.592,-0.8251 0.82134,-0.083 1.69734,-0.1989 2.37067,0.3532 0.21067,0.1719 0.15067,0.4907 -0.052,0.6359 z m -7.65467,-0.2318 c -0.50933,0.788 -1.52666,0.5532 -2.344,0.473 -0.83066,-0.081 -1.644,-0.2292 -2.33733,-0.7094 -0.41467,-0.2849 -0.064,-0.8292 0.31467,-0.889 0.78933,-0.124 1.62266,-0.01 2.41733,0.036 0.67333,0.036 1.56,-0.079 1.924,0.6147 0.0733,0.14 0.11867,0.3281 0.0253,0.4749 z m -7.15866,-0.6989 c -0.51467,0.288 -1.00934,0.176 -1.56267,0.048 -0.56667,-0.1318 -1.21067,-0.1796 -1.65333,-0.5906 -0.21067,-0.1948 -0.17334,-0.5157 0.0547,-0.6786 0.82534,-0.5855 2.78667,-0.1319 3.26267,0.7656 0.08,0.1516 0.064,0.3625 -0.10133,0.4557 z m -5.38267,-0.6812 c -0.55067,0.1785 -1.15467,-0.01 -1.708,-0.095 -0.55467,-0.086 -1.044,-0.1797 -1.52267,-0.4787 -0.19866,-0.125 -0.28266,-0.4718 -0.028,-0.601 0.976,-0.4948 3.048,-0.4751 3.46,0.7958 0.052,0.1588 -0.0467,0.3291 -0.20133,0.3787 z m -5.328,-0.4975 c -0.49333,0.5172 -1.06,0.3667 -1.69867,0.288 -0.71066,-0.089 -1.356,-0.2692 -1.99066,-0.5905 -0.312,-0.1573 -0.23334,-0.5735 0.06,-0.6891 0.98533,-0.3948 3.28933,-0.751 3.712,0.6104 0.04,0.1291 0.0107,0.2828 -0.0827,0.3812 z m -7.45733,-0.7172 c -0.768,0.3642 -1.54667,-0.036 -2.304,-0.2801 -0.62134,-0.2 -1.4,-0.3068 -1.88,-0.7772 -0.25334,-0.2495 -0.18667,-0.6989 0.17466,-0.8109 0.756,-0.2343 1.76134,0.073 2.49734,0.2933 0.67866,0.2015 1.44133,0.3749 1.67466,1.1296 0.0467,0.1505 -0.008,0.3719 -0.16266,0.4453 z m -7.69067,-3.0082 c -0.16933,0.739 -0.95867,0.6244 -1.492,0.339 -0.64667,-0.3453 -1.34533,-0.5376 -1.96267,-0.9333 -0.26533,-0.1709 -0.41066,-0.6615 -0.044,-0.836 0.72,-0.3443 1.35867,-0.3323 2.10667,-0.044 0.55467,0.2136 1.56533,0.7162 1.392,1.4746 z m -6.85067,-2.1907 c -0.672,0.4161 -1.444,0.056 -2.128,-0.1584 -0.67733,-0.2135 -1.34533,-0.4572 -1.896,-0.9171 -0.284,-0.239 -0.20266,-0.8032 0.188,-0.8854 0.76267,-0.1631 1.54534,-0.073 2.284,0.164 0.676,0.2172 1.58,0.4704 1.744,1.2652 0.0413,0.2041 -0.003,0.4145 -0.192,0.5317 z m -6.552,-2.4823 c -0.61066,0.6318 -1.56,0.3558 -2.288,0.077 -0.85866,-0.3265 -1.70266,-0.7041 -2.30933,-1.4161 -0.24267,-0.285 0.0493,-0.7506 0.38667,-0.7516 0.84,-0.01 1.56666,0.401 2.33866,0.6718 0.66,0.2334 1.484,0.3068 1.912,0.9147 0.104,0.1468 0.084,0.376 -0.04,0.5041 z m -7.26266,-2.5469 c -0.87334,0.3401 -1.824,-0.053 -2.69067,-0.2651 -0.96533,-0.2374 -1.70533,-0.5734 -2.56667,-1.0297 -0.21333,-0.1129 -0.12,-0.4036 0.0987,-0.4291 1.08133,-0.1256 2.004,-0.1349 3.09333,0.1 0.84934,0.1838 1.72667,0.34 2.26667,1.0734 0.15067,0.2052 0.007,0.4693 -0.20133,0.5505 z m -8.24534,-2.7588 c -0.61733,0.1948 -1.108,-0.2505 -1.648,-0.4849 -0.48133,-0.2094 -1.31466,-0.6787 -1.84933,-0.6151 -0.30533,0.036 -0.32,-0.4412 -0.016,-0.4771 0.36133,-0.043 0.66667,-0.2494 1.048,-0.2505 0.432,0 0.80133,0.07 1.21067,0.2068 0.616,0.2036 1.492,0.5728 1.45066,1.3479 -0.007,0.1249 -0.0693,0.2333 -0.196,0.2729 z m -7.60666,-2.0423 c -0.77334,-0.059 -1.272,-0.7057 -1.84267,-1.176 -0.62533,-0.5177 -1.36267,-1.1749 -2.112,-1.4937 -0.21467,-0.091 -0.13467,-0.4667 0.10267,-0.4489 0.944,0.065 1.71066,0.1582 2.52666,0.6984 0.68534,0.4536 1.70534,1.088 1.70934,2.0041 0,0.1985 -0.16,0.4333 -0.384,0.4161 z m -7.60934,-4.1057 c -0.652,0.2188 -1.29866,-0.188 -1.9,-0.4307 -0.38666,-0.1573 -0.78133,-0.3172 -1.136,-0.5369 -0.256,-0.1589 -0.46266,-0.3787 -0.76266,-0.4573 -0.284,-0.073 -0.184,-0.5178 0.10133,-0.4443 0.396,0.1025 0.816,-0.038 1.20667,0.072 0.28666,0.079 0.576,0.1546 0.85466,0.2588 0.636,0.2385 1.472,0.3948 1.82667,1.0214 0.112,0.1974 0.032,0.4427 -0.19067,0.5171 z m -6.32399,-2.8129 c -0.16534,0.094 -0.40267,0.1453 -0.57734,0.033 -0.892,-0.5708 -1.79866,-1.1109 -2.696,-1.6724 -0.33333,-0.2095 -0.30933,-0.8729 0.18267,-0.8396 1.19067,0.08 2.30267,0.7531 3.15733,1.5557 0.14134,0.1334 0.24534,0.3574 0.184,0.5547 -0.0507,0.1683 -0.0933,0.2787 -0.25066,0.3683 z m 150.21866,-14.8776 c -7.43867,10.0161 -20.22267,14.8416 -32.33867,15.6238 -12.64133,0.8178 -24.92,-1.8598 -37.44933,-2.8 -0.10267,1.2443 -0.49467,2.3844 -1.56667,2.7068 l -0.32666,0.055 -0.292,0.1803 c -4.30134,1.6317 -9.796,4.2 -14.45067,3.4702 -5,-0.7822 -8.272,-4.2068 -8.55067,-9.3156 -0.036,-0.6573 -0.0307,-1.3281 -0.044,-1.9937 -0.11466,0.06 -0.236,0.1057 -0.36933,0.1151 -0.91467,0.058 -2.076,-0.6682 -2.93067,-0.9667 -0.70266,-0.2453 -1.45866,-0.4629 -2.144,-0.7869 -1.53333,3.1134 -2.86933,6.3 -3.752,9.7041 -0.30933,1.1959 -1.96933,1.1251 -2.14,-0.1135 -0.54666,-3.9521 -0.672,-7.8974 -0.59466,-11.8666 -3.34534,3.4588 -5.94534,7.4812 -8.576,11.5306 -0.572,0.8787 -1.75067,0.1922 -1.888,-0.6078 -0.768,-4.4932 0.34666,-9.1547 2.19866,-13.5203 -3.884,-0.061 -8.05866,-1.5301 -11.86133,-2.3396 -3.66267,-0.7801 -7.32267,-1.5255 -10.99733,-2.2455 -6.452,-1.2653 -13.00267,-2.688 -18.82933,-5.8266 -0.32,3.9173 0.63466,8.1534 1.00266,12.021 0.252,2.6574 0.49467,5.3178 0.82267,7.9667 0.152,1.2163 0.59867,2.7537 0.49733,4.0163 5.20667,3.464 11.43067,5.4785 17.212,7.728 6.53867,2.5453 13.10667,5.0344 19.68267,7.4797 12.94933,4.812 26.70266,8.0161 40.39466,9.8427 13.288,1.7734 26.82534,1.6641 39.988,-1.0386 6.66667,-1.3692 13.24534,-3.2853 19.536,-5.8973 5.112,-2.124 10.364,-4.4 14.52133,-8.1052 l -0.068,0.014 c -0.62266,0.093 -0.96666,-0.9052 -0.39333,-1.1921 0.55733,-0.2797 1.10133,-0.6693 1.67733,-0.9251 1.00134,-5.3666 1.476,-10.8572 2.396,-16.2733 0.464,-2.7349 0.62534,-5.5053 0.73067,-8.2813 -0.33867,0.5546 -0.69733,1.1041 -1.09733,1.6412"
         style="fill:#ae2a56;fill-opacity:1;fill-rule:nonzero;stroke:none;stroke-width:0.133333" />
      <path
         id="path3378"
         d="m 444.18715,1178.2651 c -0.32533,0.8719 -1.52666,1.2896 -2.364,1.488 -0.93733,0.223 -1.852,0.3428 -2.80933,0.1787 -0.896,-0.1547 -0.736,-1.4213 0.104,-1.5224 0.81467,-0.099 1.652,-0.1161 2.436,-0.376 0.66,-0.2188 1.324,-0.6932 2.02533,-0.6907 0.512,0 0.77867,0.4651 0.608,0.9224 z m -11.372,2.687 c -0.46533,0.9333 -1.79866,1.201 -2.71466,1.4942 -0.87334,0.2814 -1.828,0.6215 -2.74934,0.4084 -0.34533,-0.079 -0.53466,-0.539 -0.26666,-0.8093 0.73866,-0.7443 1.828,-0.9948 2.792,-1.3267 0.856,-0.2962 1.83733,-0.7801 2.72533,-0.415 0.244,0.1016 0.324,0.427 0.21333,0.6484 z m -10.792,3.4693 c -0.452,0.7943 -1.43733,0.7197 -2.24533,0.8609 -0.45733,0.082 -0.98533,0.2495 -1.452,0.2246 -0.47067,-0.027 -0.792,-0.1256 -1.24,-0.2428 -0.26933,-0.072 -0.37333,-0.4588 -0.108,-0.6126 0.83067,-0.477 1.53467,-0.7437 2.496,-0.9342 0.776,-0.1547 1.82133,-0.5522 2.43867,0.1197 0.144,0.1573 0.22666,0.3817 0.11066,0.5844 z m -9.52933,2.2479 c -0.384,1.1161 -1.76,1.2974 -2.80133,1.313 -1.01734,0.015 -1.992,-10e-4 -2.76,-0.736 -0.13734,-0.1317 -0.1,-0.3186 0.0373,-0.429 0.85067,-0.6814 1.88533,-0.5694 2.912,-0.6959 0.75467,-0.094 1.63067,-0.376 2.344,-0.014 0.18533,0.095 0.34267,0.348 0.268,0.5615 z m -11.50133,1.536 c -0.82267,0.055 -1.75867,0.1708 -2.46,-0.347 -0.15734,-0.1156 -0.12267,-0.3385 -0.024,-0.4744 0.56933,-0.7776 1.78266,-0.8573 2.664,-0.9109 0.62933,-0.038 1.984,-0.1224 2.02533,0.8219 0.0467,1.0145 -1.6,0.8692 -2.20533,0.9104 z m -7.56134,0.1828 c -0.184,0.8573 -1.34666,0.7609 -1.996,0.7213 -0.74266,-0.045 -1.556,-0.082 -2.21333,-0.4631 -0.46933,-0.2718 -0.37333,-0.8462 0.0813,-1.0598 0.71734,-0.3375 4.44934,-0.7104 4.128,0.8016 z m -9.92,-0.9162 c -1.112,0.1796 -2.06533,0 -3.192,-0.067 -0.87866,-0.052 -1.77733,-0.06 -2.57066,-0.4735 -0.42667,-0.2197 -0.32267,-0.7692 0.0747,-0.9401 1.024,-0.4411 2.27867,-0.3651 3.36934,-0.261 1.14533,0.1079 1.912,0.3224 2.556,1.2918 0.13466,0.2041 -0.0293,0.4161 -0.23734,0.4494 z m -10.608,-1.7052 c -0.52666,0.8068 -1.46666,0.5771 -2.32133,0.5 -1.00667,-0.09 -2.07867,-0.151 -2.968,-0.6786 -0.476,-0.2844 -0.316,-0.9282 0.21333,-1.0058 0.94267,-0.1396 1.916,0.021 2.86267,0.055 0.74933,0.026 1.78133,-0.1276 2.18667,0.6391 0.076,0.1437 0.124,0.3396 0.0267,0.4906 z m -8.39866,-1.3442 c -0.636,0.9306 -1.832,0.6401 -2.768,0.3838 -1.012,-0.2756 -2.44,-0.513 -3.176,-1.3037 -0.20667,-0.2229 -0.27467,-0.6787 0.0627,-0.8427 1.112,-0.5374 2.33867,-0.017 3.468,0.2719 0.82134,0.2109 1.97067,0.2921 2.39734,1.1349 z m -9.62667,-1.3599 c -0.39333,-0.1147 -1.07333,-0.3053 -1.54933,-0.6281 -0.87867,0.14 -1.872,-0.1371 -2.68134,-0.4079 -0.792,-0.264 -2.60266,-0.8547 -2.36933,-1.9907 0.19867,-0.9614 2.004,-0.276 2.5,-0.1082 1.16667,0.3937 2.73867,0.3672 3.70667,1.1708 l 0.0387,0.073 c 0.25734,0.063 0.5,0.1292 0.688,0.1692 1.11867,0.2376 0.74,2.0334 -0.33333,1.7215 z m -10.64267,-4.9111 c -0.936,0.9308 -2.68,0.2667 -3.71466,-0.2118 -0.96134,-0.4438 -2.26934,-1.0172 -2.432,-2.1934 -0.02,-0.14 0.0987,-0.2692 0.22133,-0.3118 1.01733,-0.3506 2.12267,0.376 3.06933,0.6894 0.908,0.3011 2.43467,0.4934 2.90134,1.4319 0.0947,0.1896 0.12133,0.4291 -0.0453,0.5957 z m -10.412,-3.4754 c -1.21733,0.2625 -2.296,-0.4307 -3.22,-1.175 -0.708,-0.5677 -1.97866,-1.2865 -2.26,-2.1734 -0.1,-0.3131 0.0827,-0.5866 0.36534,-0.7079 0.93333,-0.4 2.01733,0.4948 2.76133,0.9787 0.83467,0.5442 1.908,0.9494 2.63867,1.6078 0.44,0.3974 0.38933,1.323 -0.28534,1.4698 z m -9.19333,-6.0427 c -0.97867,0.088 -1.584,-0.6229 -2.284,-1.1923 -0.77867,-0.6317 -1.64667,-1.1066 -2.46,-1.6864 -0.63733,-0.4536 -0.008,-1.2478 0.59333,-1.2026 1.056,0.079 1.98267,0.6813 2.81067,1.301 0.79467,0.5959 1.75067,1.2318 1.75867,2.3214 0.003,0.248 -0.17467,0.436 -0.41867,0.4589 z m 125.29867,-33.6147 c -6.40267,2.6934 -12.98934,4.7814 -19.77067,6.285 -13.344,2.9573 -27.4,3.3562 -40.93333,1.5 -14.284,-1.9583 -28.74134,-5.1344 -42.21867,-10.3266 -6.96,-2.6812 -13.93867,-5.3265 -20.85733,-8.113 -3.77467,-1.5187 -7.72,-2.9735 -11.33867,-4.9402 0.824,2.7787 0.0813,6.0522 0.14134,8.8704 0.1,4.675 0.696,9.2724 1.07066,13.9239 0.36534,4.5349 0.884,9.0605 1.16933,13.6005 0.132,2.0934 0.25734,4.1918 0.25467,6.2891 0,0.2625 -0.0907,2.7324 -0.25067,3.7776 0.16,0.1333 0.28267,0.3105 0.35334,0.5037 l 0.0187,0.016 c 3.19734,4.1973 9.00934,7.3462 13.50534,9.9932 5.46933,3.2202 11.36666,5.7281 17.46266,7.5041 12.40534,3.6147 25.26134,5.4677 38.124,6.4745 24.06,1.8839 47.20534,-3.9932 68.556,-14.8374 0.0133,-0.4172 0.0133,-0.836 0.0253,-1.2532 -1.65866,1.2896 -4.34533,1.9573 -6.39199,2.1041 -0.844,0.062 -1.04134,-1.1468 -0.27067,-1.4255 1.90533,-0.6906 3.96133,-1.1188 5.68933,-2.2172 0.376,-0.2385 0.74133,-0.1869 1.004,0.01 0.136,-6.74 0.028,-13.4828 0.208,-20.2228 0.184,-6.9038 0.20533,-14.3224 1.928,-21.0839 -2.40267,1.3427 -4.92933,2.4948 -7.47866,3.5681"
         style="fill:#ae2a56;fill-opacity:1;fill-rule:nonzero;stroke:none;stroke-width:0.133333" />
      <path
         id="path3379"
         d="m 446.68849,1117.8985 c -0.336,-0.4375 -0.852,-0.712 -1.50534,-0.6162 -1.59466,0.235 -3.18533,0.4964 -4.77333,0.7631 0.624,-0.2308 1.25067,-0.4453 1.868,-0.7016 2.308,-0.9547 1.14267,-4.4589 -1.26133,-3.6839 -0.836,0.2678 -1.664,0.5255 -2.488,0.7735 -0.308,-0.6271 -0.94,-1.1177 -1.87734,-1.1495 -1.184,-0.041 -2.35066,0.019 -3.51066,0.1162 -0.404,-1.0214 -1.344,-1.8694 -2.75067,-1.936 -2.44133,-0.1162 -27.78667,2.137 -27.96667,1.5584 -0.06,-0.1932 -0.3,-0.2438 -0.44,-0.1027 -0.244,0.2453 -0.48933,0.4923 -0.73333,0.7385 -0.27733,0.2787 -0.27867,0.724 -0.0907,1.047 0.33867,0.5801 0.72534,1.041 1.148,1.4145 0.064,0.488 0.41734,0.8469 0.888,0.9745 0.43867,0.1187 0.892,0.199 1.344,0.2787 -0.284,0.9307 -0.048,1.9604 0.66934,2.6785 -0.444,0.099 -0.888,0.1792 -1.33067,0.2855 -2.17333,0.5271 -2.236,2.9469 -1.07467,4.3469 -1.788,1.2386 -1.21466,3.9984 0.9,4.7282 -0.28666,0.8452 0.0653,1.8546 1.23467,2.164 1.17867,0.312 2.38667,0.5718 3.60533,0.8036 -0.16533,0.212 -0.26266,0.463 -0.32266,0.724 -1.152,0.6641 -2.26267,1.5057 -3.31734,2.624 -1.25066,1.327 -0.72,3.8322 0.976,4.5202 5.956,2.4199 13.66934,-0.6109 19.772,-1.3109 3.63867,-0.4172 13.876,-4.2 15.99334,-3.3943 3.68666,1.4027 6.34533,-3.9964 2.93066,-5.588 0.56667,-0.688 0.47467,-1.7084 -0.044,-2.3786 1.01867,-1.1495 0.49467,-3.1391 -1.39733,-3.1 -1.08933,0.021 -2.172,0.088 -3.25333,0.1729 0.46133,-0.2303 0.92133,-0.4625 1.38266,-0.6959 2.06934,-0.788 4.092,-1.7625 6.05467,-2.9718 1.5,-0.924 0.70267,-2.7375 -0.62933,-3.0828"
         style="fill:#d93b6a;fill-opacity:1;fill-rule:nonzero;stroke:none;stroke-width:0.133333" />
      <path
         id="path3380"
         d="m 432.97782,1176.4849 c -0.068,-0.5146 -0.24933,-1.013 -0.53467,-1.4463 0.29867,-0.3 0.59067,-0.6109 0.868,-0.9443 1.10534,-1.3302 0.796,-2.889 -0.208,-3.8584 0.4,-0.2109 0.80667,-0.4 1.19867,-0.6374 2.48667,-1.5079 1.41333,-4.5812 -0.73333,-5.5522 1.52266,-1.564 1.45733,-4.7666 -1.25867,-5.0785 -0.82533,-0.095 -1.64133,-0.1371 -2.45333,-0.1521 1.08533,-0.5396 2.14933,-1.1344 3.17866,-1.8224 1.588,-1.0626 1.30934,-3.3615 -0.052,-4.2812 1.24534,-0.6095 2.48267,-1.2418 3.69734,-1.9298 1.80933,-1.025 1.13333,-4.0584 -0.872,-4.3489 -0.79734,-0.1147 -1.592,-0.1948 -2.384,-0.2604 1.22,-1.2292 0.99466,-3.6943 -1.132,-4.0505 -4.452,-0.7438 -8.9,-0.5746 -13.36534,-0.436 -1.97733,-0.06 -3.956,-0.052 -5.94133,0.084 -2.332,0.159 -2.76667,4.0084 -0.30133,4.2 0.69733,0.055 1.39466,0.087 2.092,0.1136 -2.35734,0.9162 -4.688,1.9334 -6.992,3.0348 -2.39334,1.1423 -2.14,5.5959 0.988,5.021 5.20133,-0.9558 10.348,-2.2158 15.55333,-2.8491 -4.55467,1.7693 -9.22667,3.2693 -13.8,4.9881 -2.00667,0.7531 -2.04133,3.6078 -0.536,4.5411 -0.6,0.2708 -1.19733,0.5521 -1.784,0.8599 -2.532,1.3256 -0.71733,4.8589 1.66133,4.848 0.41067,0 0.82,-0.016 1.228,-0.034 -1.02533,1.3958 -0.592,3.5786 0.82534,4.5906 -1.24267,1.5 -0.992,3.7291 0.61066,4.6864 -0.3,0.05 -0.59333,0.1 -0.87866,0.1536 l -0.064,0.01 0.001,0.01 c -0.26667,0.051 -0.53333,0.1011 -0.78667,0.1547 -3.46,0.748 -2.18533,6.0401 1.08267,6.0027 0.33467,0.9385 1.11467,1.7437 2.22,2.0582 -1.46533,1.8246 0.30933,5.123 3.18267,4.4496 l 0.18933,-0.044 c 0.60933,0.3266 1.34267,0.4652 2.16933,0.2666 3.536,-0.8494 7.02267,-1.8109 10.50267,-2.8656 0.50667,-0.153 0.892,-0.3905 1.19067,-0.6744 0.95066,-0.3052 1.90133,-0.6104 2.856,-0.9068 1.888,-0.5865 2.28666,-2.3308 1.74133,-3.7478 0.7,-1.7866 -0.828,-4.1079 -2.96,-4.1444"
         style="fill:#d93b6a;fill-opacity:1;fill-rule:nonzero;stroke:none;stroke-width:0.133333" />
      <path
         id="path3381"
         d="m 379.63782,1184.9011 c -4.008,-2.0333 -8.53333,-2.0666 -12.92933,-2.849 -5.112,-0.911 -10.15334,-2.2323 -15.17067,-3.552 -4.53067,-1.1923 -9.07333,-2.3631 -13.55333,-3.7334 -4.32134,-1.3213 -8.32267,-3.6 -12.73867,-4.5333 -0.336,-0.071 -0.64,0.3077 -0.43733,0.6104 4.72266,7.064 15.65866,9.0801 23.34533,11.288 8.904,2.5563 22.132,7.8323 31.3,4.9 0.96,-0.3068 1.09467,-1.6677 0.184,-2.1307"
         style="fill:#d93b6a;fill-opacity:1;fill-rule:nonzero;stroke:none;stroke-width:0.133333" />
      <path
         id="path3382"
         d="m 383.64849,1136.5515 c -10.55067,-5.0088 -22.20267,-8.8385 -33.13867,-13.0342 -9.06133,-3.4776 -19.51733,-4.0043 -28.028,-8.8068 -0.44133,-0.2495 -1.04133,0.3322 -0.704,0.7598 5.75067,7.2948 14.68,8.7522 23.17067,11.2094 12.468,3.6068 24.75333,13.0776 38.16133,12.363 1.292,-0.068 1.756,-1.912 0.53867,-2.4912"
         style="fill:#d93b6a;fill-opacity:1;fill-rule:nonzero;stroke:none;stroke-width:0.133333" />
      <path
         id="path3383"
         d="m 334.27115,1100.2906 c -5.36933,-2.4813 -11.15733,-3.3373 -17.09066,-3.0507 -0.564,0.027 -0.84533,0.8947 -0.26,1.1347 5.5,2.2493 11.13466,3.776 17.064,3.1733 0.62133,-0.062 0.936,-0.9573 0.28666,-1.2573"
         style="fill:#d93b6a;fill-opacity:1;fill-rule:nonzero;stroke:none;stroke-width:0.133333" />
      <path
         id="path3384"
         d="m 379.25382,1060.9946 c -1.45333,-1.7173 -3.20533,-2.9907 -5.06267,-4.2773 -2.14133,-1.4827 -3.78933,-3.5254 -5.87466,-5.012 -0.66267,-0.4734 -1.76934,-0.336 -1.92667,0.62 -0.91867,5.588 6.56667,8.136 9.42933,11.696 0.5,0.6226 1.08934,0.8986 1.66667,0.944 0.44667,0.1426 0.94133,0.016 1.30933,-0.3027 1.23067,-0.6933 1.89867,-2.3973 0.45867,-3.668"
         style="fill:#4c7790;fill-opacity:1;fill-rule:nonzero;stroke:none;stroke-width:0.133333" />
      <path
         id="path3385"
         d="m 384.43915,1060.3719 c 0.21467,-5.3026 0.764,-10.5386 0.98134,-15.8466 0.016,-0.388 -0.476,-0.496 -0.71467,-0.2654 -4.97467,4.8094 -3.94267,13.8974 -3.98,20.196 -0.003,0.42 0.14267,0.7667 0.37333,1.0334 -0.10266,-0.037 -0.196,-0.083 -0.32,-0.1 -2.03733,-0.2787 -4.32666,0.9093 -5.74666,2.2986 -0.23734,0.232 -0.43067,0.4827 -0.596,0.744 -0.38667,0 -0.76534,0.1494 -1.036,0.5414 -1.07867,1.56 -0.33867,3.668 0.99866,4.9293 0.19867,0.952 0.672,1.84 1.45334,2.5893 -1.13867,0.025 -2.368,-0.061 -3.36934,-0.4773 -0.15733,-0.065 -0.328,-0.017 -0.456,0.077 l 0.24934,-0.3253 c 1.42133,0.06 1.82,-1.6533 1.292,-2.648 -0.61467,-1.1573 -0.91734,-2.08 -0.624,-3.3827 0.29466,-2.256 -3.01334,-2.932 -3.48534,-0.6733 -0.092,0.6227 -0.23466,1.2133 -0.292,1.8413 -0.0413,0.4454 0.0613,0.8267 0.248,1.14 -3.37733,-0.724 -6.55066,-2.4493 -10.06133,-2.4986 -0.54533,-0.01 -0.6,0.6906 -0.21333,0.94 2.15466,1.3973 4.50133,2.78 6.964,3.788 -0.19467,0.152 -0.34534,0.3666 -0.444,0.5986 -2.628,0.1934 -4.55067,0.3294 -6.76934,1.8174 -0.25333,0.1693 -0.16266,0.6733 0.188,0.62 1.52534,-0.228 5.08134,0.3 8.168,0.212 0.99467,0.3466 2.16,0.01 3.164,-0.4467 0.61734,-0.1987 1.132,-0.4773 1.50934,-0.8573 -0.0693,0.1146 -0.096,0.252 0.009,0.3973 0.168,0.232 0.36133,0.412 0.55067,0.6 -0.52667,0.2693 -1.03734,0.5587 -1.51867,0.884 -2.28933,1.3067 -4.652,4.052 -5.36267,5.0773 -0.62533,0.9014 -0.28666,1.9054 0.37734,2.4174 -0.31334,0.4413 -0.62,0.8893 -0.92,1.3426 l -0.21067,0.2907 0.009,0.01 c -0.0853,0.1307 -0.18,0.2534 -0.264,0.3854 -1.08533,1.716 1.81467,3.5986 2.988,1.9426 1.36667,-1.9266 2.644,-3.9133 4.01734,-5.8346 h 0.044 l 0.17333,-0.04 c -0.14,0.392 -0.29467,0.78 -0.47333,1.1666 -1.21067,1.9374 -2.35734,3.928 -3.51734,5.828 -0.32933,0.5067 -0.648,1.0094 -0.932,1.5 -1.10666,1.7307 1.79334,3.1387 2.88267,1.3974 0.95467,-1.524 2.58267,-3.7454 3.89733,-6.1307 1.256,-1.9053 2.44534,-3.8453 3.29734,-5.88 -0.172,2.288 0.0627,4.712 -0.007,6.7507 h 0.004 c 0.088,1.812 2.98667,1.9054 3.04533,-0.18 0.04,-1.4093 0.009,-2.8173 0.004,-4.2253 0.96267,0.3413 2.27067,-0.1907 2.10667,-1.472 -0.20933,-1.6267 -0.336,-3.3707 -0.98133,-4.892 -0.13467,-0.3187 -0.40267,-0.6347 -0.74534,-0.7373 -0.348,-0.416 -0.952,-0.564 -1.54533,-0.3294 0.54267,-0.6906 0.648,-1.7 -0.24133,-2.424 -2.34934,-1.9146 0.788,-5.1346 2.908,-5.5373 1.216,-0.2293 1.23733,-2.0227 0.28666,-2.5747 0.3,0.1467 0.616,0.1934 0.936,0.1267 0.43867,-0.041 0.86267,-0.212 1.168,-0.5653 0.172,-0.1974 0.32934,-0.3854 0.47867,-0.5707 1.04667,-0.62 1.18667,-1.164 1.41467,-2.5107 0.17466,-1.0293 -0.52934,-1.8066 -1.36134,-2.056"
         style="fill:#4c7790;fill-opacity:1;fill-rule:nonzero;stroke:none;stroke-width:0.133333" />
      <path
         id="path3386"
         d="m 387.97382,1075.1119 -0.0227,-0.2506 -0.0227,-0.24 -0.0147,0.043 c -0.0747,-0.2453 -0.21333,-0.484 -0.42133,-0.6986 -0.94667,-0.984 -2.096,-0.1894 -2.944,0.4266 -0.30534,0.2214 -0.612,0.4387 -0.924,0.6494 -0.13867,0.095 -0.28134,0.1853 -0.424,0.2733 l -0.18667,0.108 c -0.15467,0.088 -0.06,0.043 0.036,-0.01 -0.74267,0.3814 -1.23467,1.0934 -0.94533,1.964 0.25866,0.776 1.204,1.3307 2.00266,1.0027 0.708,-0.1373 1.452,-0.7013 2.06134,-1.076 0.32,-0.196 0.63466,-0.3987 0.952,-0.5973 0.63066,-0.396 0.86666,-0.952 0.85333,-1.5974"
         style="fill:#4c7790;fill-opacity:1;fill-rule:nonzero;stroke:none;stroke-width:0.133333" />
      <path
         id="path3387"
         d="m 339.59649,1095.9826 c -0.28134,-0.732 -0.83334,-1.0507 -1.28934,-1.64 -0.276,-0.3547 -0.99466,-0.1253 -0.78266,0.356 0.24933,0.5667 0.16533,1.2373 0.324,1.8333 0.304,1.1494 2.172,0.5507 1.748,-0.5493"
         style="fill:#4c7790;fill-opacity:1;fill-rule:nonzero;stroke:none;stroke-width:0.133333" />
      <path
         id="path3388"
         d="m 331.88982,1081.4399 c -0.052,-0.204 -0.124,-0.3866 -0.25067,-0.5573 -0.70666,-0.9547 -1.96133,-0.6067 -2.312,0.4427 l -0.0147,0.045 c -0.28134,0.8453 0.752,1.7587 1.56133,1.456 0.704,-0.052 1.21067,-0.6253 1.016,-1.3867"
         style="fill:#4c7790;fill-opacity:1;fill-rule:nonzero;stroke:none;stroke-width:0.133333" />
      <path
         id="path3389"
         d="m 355.97649,1083.6773 c -0.0813,-0.1707 -0.19467,-0.3227 -0.34134,-0.444 -0.188,-0.2747 -0.35866,-0.5987 -0.39733,-0.896 -0.04,-0.316 -0.43733,-0.4094 -0.59733,-0.168 h -0.005 c -0.136,-0.093 -0.308,-0.044 -0.44133,0.017 -0.53733,0.2493 -0.91867,0.7173 -1.39067,1.0533 -0.488,0.3467 -0.72533,0.9507 -0.53466,1.532 0.23733,0.728 0.90666,0.9614 1.59066,0.8654 0.176,0.1506 0.388,0.2733 0.66,0.328 1.35067,0.272 2.15867,-1.268 1.45734,-2.284"
         style="fill:#4c7790;fill-opacity:1;fill-rule:nonzero;stroke:none;stroke-width:0.133333" />
      <path
         id="path3390"
         d="m 363.07782,1051.8906 c -0.40933,-0.6067 -0.93333,-1.1947 -1.66667,-1.384 -0.20666,-0.053 -0.484,0.059 -0.568,0.264 -0.29466,0.7253 -0.11066,1.4147 0.116,2.132 0.26667,0.844 0.70134,1.9133 1.476,2.3787 0.80667,0.4853 1.94134,-0.2987 1.83867,-1.2094 -0.0907,-0.8213 -0.74533,-1.5133 -1.196,-2.1813"
         style="fill:#4c7790;fill-opacity:1;fill-rule:nonzero;stroke:none;stroke-width:0.133333" />
      <path
         id="path3391"
         d="m 436.85915,1039.2213 c -0.332,-0.068 -0.74933,-0.7174 -1.29466,-0.8214 -0.35334,-0.068 -0.756,0.073 -1.01334,0.3414 l -0.0333,0.029 -0.056,0.051 c -1.79867,-0.128 -2.496,2.144 -0.92,3.076 0.828,0.4893 2.18,0.572 3.108,0.4173 0.70267,-0.116 1.29067,-0.5133 1.43867,-1.256 0.16666,-0.8387 -0.39467,-1.6667 -1.22934,-1.8373"
         style="fill:#4c7790;fill-opacity:1;fill-rule:nonzero;stroke:none;stroke-width:0.133333" />
      <path
         id="path3392"
         d="m 386.59115,1108.1187 c -0.236,-0.9041 -0.47333,-1.479 -1.14266,-2.1333 -0.47867,-0.4667 -1.11734,-0.4973 -1.65867,-0.2656 -0.13867,-0.3744 -0.26667,-0.7599 -0.37733,-1.1708 -0.38934,-1.4547 -2.91334,-1.3932 -3.028,0.1896 -0.10134,1.3948 -0.15067,2.7828 -0.39467,4.1255 -0.55067,-1.4151 -0.86133,-2.9854 -1.37067,-4.3203 -0.61066,-1.6027 -2.71733,-1.3573 -3.16666,0.2041 -0.236,0.8188 -0.41067,1.6522 -0.576,2.4866 -0.0733,-0.4735 -0.144,-0.9491 -0.22934,-1.4282 -0.14,-0.7906 -1.388,-0.8292 -1.68133,-0.1385 -1.14,2.6843 -0.54133,5.5692 0.84,8.0495 0.58133,1.0437 2.23867,0.8342 2.70533,-0.1855 0.376,-0.8213 0.644,-1.6719 0.86934,-2.5344 0.47466,1.0464 1.08266,2.0276 1.96666,2.8891 0.82934,0.8078 2.08267,0.3308 2.59867,-0.5411 0.552,-0.9349 0.90133,-1.9095 1.12933,-2.9084 0.57334,0.3041 1.24267,0.2495 1.736,-0.1292 1.008,0 2.116,-0.9 1.78,-2.1891"
         style="fill:#9cd3d6;fill-opacity:1;fill-rule:nonzero;stroke:none;stroke-width:0.133333" />
      <path
         id="path3393"
         d="m 402.73649,1091.5026 c -0.57467,-1.1267 -1.73734,-2.0973 -2.48,-3.14 -1.11334,-1.5667 -3.87867,-0.344 -3.11067,1.54 0.15067,0.3707 0.28267,0.7013 0.32533,1.1 v 0 h -0.005 l -0.18667,-0.1254 c -0.29066,-0.3106 -0.59733,-0.612 -0.916,-0.9013 -1.40533,-1.276 -3.76266,0.74 -2.52933,2.252 l 0.25467,0.2867 c 0.54533,1.3453 1.73866,2.7586 2.72666,3.572 1.24267,1.0226 3.076,-0.1987 2.59467,-1.7414 l -0.10933,-0.2613 c 0.23333,-0.128 0.44133,-0.2733 0.61866,-0.4387 l 0.20267,0.1947 c 1.66,1.312 3.492,-0.6147 2.61467,-2.336"
         style="fill:#9cd3d6;fill-opacity:1;fill-rule:nonzero;stroke:none;stroke-width:0.133333" />
      <path
         id="path3394"
         d="m 395.25249,1027.5119 c 0.10666,-0.2586 0.22,-0.5146 0.308,-0.78 0.548,-1.664 -1.012,-3.3253 -2.668,-2.2946 -1.11467,0.6946 -2.20934,1.4386 -3.32667,2.14 0.072,-0.1267 0.088,-0.28 -0.0587,-0.4027 -0.548,-0.4587 -1.04266,-1.4813 -1.91733,-1.3333 l -0.16933,0.048 c -0.46534,-0.184 -0.988,-0.1667 -1.45467,0.2306 -1.74267,1.4814 -2.62533,3.348 -2.56,5.6507 l 0.0227,0.1507 c -0.116,0.4933 -0.216,0.9866 -0.304,1.4746 -0.31067,1.7174 1.86666,2.764 3.02,1.4587 0.59333,-0.672 1.116,-1.436 1.54266,-2.252 0.84267,-0.356 1.66,-0.7667 2.45867,-1.2147 -0.0427,0.148 -0.10267,0.2894 -0.13733,0.4414 -0.39334,1.7146 1.552,2.6253 2.876,1.8893 1.30266,-0.724 2.17066,-1.6147 2.84266,-2.9467 0.376,-0.744 0.11734,-1.7013 -0.47466,-2.26"
         style="fill:#9cd3d6;fill-opacity:1;fill-rule:nonzero;stroke:none;stroke-width:0.133333" />
      <path
         id="path3395"
         d="m 369.26849,1032.6666 0.0173,-0.116 c 0.32533,-1.632 -1.704,-2.68 -2.84933,-1.9147 -0.11867,-0.5106 -0.30934,-1.0133 -0.57867,-1.4946 -0.45333,-0.8107 -1.90267,-0.952 -2.44533,-0.152 -0.66,0.9746 -1.13467,2.0066 -1.504,3.0746 -0.64,-0.053 -1.28667,0.236 -1.64934,0.98 -1.24,2.5374 -1.37066,5.5667 -0.63066,8.268 0.252,0.9147 1.40933,1.4707 2.284,1.128 2.16666,-0.848 3.78933,-2.696 5.03866,-4.7813 0.572,0.021 1.16267,-0.1627 1.548,-0.5747 0.58667,-0.6266 1.124,-1.3226 1.54934,-2.072 0.59333,-0.924 0.0453,-1.884 -0.78,-2.3453"
         style="fill:#9cd3d6;fill-opacity:1;fill-rule:nonzero;stroke:none;stroke-width:0.133333" />
      <path
         id="path3396"
         d="m 361.01382,1068.1279 c -0.26,-1.4586 -1.25467,-2.5106 -2.272,-3.5373 -0.93467,-0.9467 -1.89733,-1.7413 -3.07467,-2.3453 -0.65333,-0.3347 -1.35333,0.3026 -1.164,0.9826 0.32934,1.1907 0.97867,2.1734 1.70667,3.1747 0.70533,0.9707 1.38,2.22 2.364,2.9267 0.904,0.648 2.688,0.196 2.44,-1.2014"
         style="fill:#9cd3d6;fill-opacity:1;fill-rule:nonzero;stroke:none;stroke-width:0.133333" />
      <path
         id="path3397"
         d="m 360.06849,1094.5959 c 0.11066,-0.2 0.0467,-0.504 -0.16267,-0.62 l 0.048,0.01 c -0.14133,-0.2893 -0.504,-0.4067 -0.79733,-0.412 -0.968,-0.02 -1.848,0.7013 -2.56,1.376 -1.22667,0.6667 -2.37867,2.3013 -3.03334,3.18 -1.50666,1.6505 1.04667,3.7573 2.60267,2.2307 0.66267,-0.6495 1.26267,-1.3614 1.90267,-2.0334 0.68933,-0.724 1.21066,-1.2146 1.19066,-2.2826 l -0.0187,-0.075 c 0.0907,-0.124 0.18266,-0.2453 0.272,-0.3707 0.22,-0.308 0.496,-0.624 0.556,-1"
         style="fill:#9cd3d6;fill-opacity:1;fill-rule:nonzero;stroke:none;stroke-width:0.133333" />
      <path
         id="path3398"
         d="m 385.04715,1067.6986 c 0.31867,0.14 0.57334,-0.3453 0.252,-0.48 -0.50266,-0.2093 -1.03066,-0.3507 -1.56266,-0.4613 l -0.12667,-0.01 -0.15333,-0.1294 -0.0347,-0.023 -0.0773,-0.053 -0.0773,-0.024 c -0.828,-0.4426 -2.036,-0.18 -2.48133,0.7507 -0.67333,1.4107 -0.74,2.636 -0.27467,4.124 0.176,0.5627 0.77467,1.172 1.39467,1.2133 0.15333,0.01 0.30667,0.02 0.46,0.031 1.032,0.068 1.91867,-0.3947 2.16133,-1.468 -0.11733,0.516 -0.048,0.1867 0.0453,0.02 0.0733,-0.132 0.152,-0.2627 0.22666,-0.3947 0.304,-0.5426 0.33067,-1.1053 0.16534,-1.6973 l -0.0347,0.023 c -0.13467,-0.3414 -0.372,-0.6414 -0.66267,-0.868 -0.0787,-0.2587 -0.15866,-0.516 -0.23066,-0.784 l -0.0467,-0.099 c 0.33733,0.017 0.91067,0.264 1.05733,0.328"
         style="fill:#9cd3d6;fill-opacity:1;fill-rule:nonzero;stroke:none;stroke-width:0.133333" />
      <path
         id="path3399"
         d="m 428.71649,1125.4187 c -0.2,0.039 -0.40267,0.089 -0.604,0.1371 0.99333,-0.7615 1.932,-1.5917 2.74,-2.6 0.85466,-1.0652 0.40666,-3.0771 -1.144,-3.2172 l -0.2,-0.014 c 0.52266,-0.9427 0.39866,-2.2307 -0.82534,-2.6515 l -0.328,-0.1109 c 0.072,-0.2641 0.0747,-0.5548 -0.0227,-0.8615 -0.412,-1.2933 -1.776,-1.6958 -2.96134,-1.9933 -1.084,-0.2719 -2.064,-0.2281 -3.104,-0.1213 -0.768,0.08 -1.104,0.6802 -1.03733,1.2546 -0.736,-0.057 -1.47467,-0.072 -2.21333,-0.01 -0.31867,-0.082 -0.62667,-0.018 -0.9,0.1319 -0.71467,0.2411 -0.976,0.7984 -0.94534,1.376 -0.10133,0.6077 0.124,1.2213 0.86534,1.5077 0.22933,0.1454 0.48666,0.2215 0.76,0.1964 0.26533,0.056 0.52933,0.112 0.79333,0.1678 -0.26933,0.099 -0.54,0.1801 -0.80933,0.2896 -1.83334,0.7426 -1.73067,3.4306 0.28266,3.8489 1.796,0.3749 3.59734,0.5136 5.40534,0.6093 -1.7,1.1538 -3.53067,2.1547 -5.11467,3.459 -1.38933,1.1437 -0.98267,3.1437 0.764,3.6238 0.36,0.1 0.71733,0.1652 1.07067,0.212 -0.62534,0.5027 -1.24,1.023 -1.82,1.5932 -1.15467,1.136 -0.304,2.711 0.93733,3.2256 -0.25867,0.1547 -0.51333,0.3135 -0.776,0.4651 -1.74533,1.0161 -0.932,3.1453 0.55333,3.7948 0.38267,0.9745 1.408,1.7052 2.78,1.3547 0.732,-0.1864 1.184,-0.3984 1.6,-0.7292 0.87867,-0.4 1.756,-0.8015 2.63467,-1.2 1.73067,-0.7843 1.73467,-2.7052 0.73467,-3.6906 0.59866,-0.5057 1.18666,-1.0333 1.76266,-1.588 1.37067,-1.3204 0.164,-3.0614 -1.32133,-3.4094 0.59333,-0.4307 1.18,-0.8719 1.73867,-1.3479 1.33866,-1.1417 0.91733,-4.136 -1.296,-3.7027"
         style="fill:#ed6a7f;fill-opacity:1;fill-rule:nonzero;stroke:none;stroke-width:0.133333" />
      <path
         id="path3400"
         d="m 424.40849,1180.3745 c 1.44133,-2.4984 4.10266,-5.2411 1.66,-7.8438 -0.868,-0.9254 -1.77334,-1.651 -2.98667,-1.8484 0.34267,-0.3702 0.66667,-0.7584 1.032,-1.1078 0.81867,-0.8318 1.664,-1.6104 2.42133,-2.501 1.296,-1.5256 -0.0347,-3.4761 -1.80666,-3.5204 -0.90534,0.01 -1.808,-0.039 -2.71067,-0.097 0.99867,-1.2333 1.976,-2.4771 2.80133,-3.8855 0.576,-0.9838 -0.032,-2.4156 -1.03066,-2.8453 -2.16,-0.2973 -2.28267,-1.0036 -0.36934,-2.1187 1.10134,-0.8026 1.06667,-2.612 0.18667,-3.4666 0.884,-0.8814 1.572,-1.897 1.83333,-3.1824 0.148,-0.7214 -0.14266,-1.5386 -0.71866,-2.0015 -0.52,-0.4172 -1.06667,-0.688 -1.632,-0.8959 0.312,-1.336 -0.84267,-3.0453 -2.55734,-2.4776 -1.02666,0.3402 -1.556,0.5484 -2.17866,0.9 -0.34,0.111 -0.676,0.2307 -1.02667,0.3136 -1.13467,0.3495 -1.38,1.3812 -1.05867,2.228 -0.0107,0.7959 0.35334,1.5798 1.17734,1.8491 1.27066,0.4151 2.53466,0.6749 3.844,0.9484 -1.91067,-0.3975 -3.64,1.4093 -5.172,2.7573 -1.58534,1.3943 -0.86134,3.8094 1.31866,3.8676 -0.28533,1.4563 0.492,2.8 2.35467,4.0068 -1.11333,1.4746 -2.388,2.824 -3.46267,4.3323 -0.89733,1.2584 -0.44266,3.2147 1.256,3.4849 0.72934,0.1162 1.45067,0.2016 2.16934,0.2735 -1.69334,1.6812 -3.04267,3.6203 -1.84,5.4667 0.96666,1.4828 1.82133,2.1948 3.692,2.1958 -0.228,0 -2.25734,5.1458 -2.464,5.899 -0.244,0.8864 0.21066,1.6973 0.88933,2.2093 -0.44933,2.5719 3.39867,4.2199 4.33733,1.5281 0.42267,-1.2134 0.53734,-1.939 0.524,-3.2322 -0.005,-0.4787 -0.196,-0.8948 -0.48266,-1.236"
         style="fill:#ed6a7f;fill-opacity:1;fill-rule:nonzero;stroke:none;stroke-width:0.133333" />
      <path
         id="path3401"
         d="m 457.82182,1132.4974 c 0.236,-0.4963 0.22266,-0.9333 -0.23334,-1.2109 -0.724,-0.4402 -1.696,0.2562 -2.36533,0.512 -0.23867,0.091 -0.48533,0.1718 -0.732,0.2546 h -0.0547 c -3.30266,0.6708 -6.22533,2.9068 -9.57733,3.8323 -3.98133,1.0984 -8.008,1.8078 -11.83066,3.4036 -2.348,0.1854 -1.99334,4.8922 0.97066,3.8802 4.804,-1.6385 13.124,-1.8989 18.452,-4.8401 0.48667,-0.1333 0.95867,-0.3172 1.356,-0.4907 1.816,-0.7921 3.55867,-2.2733 4.08,-4.2478 0.11467,-0.4334 0.0707,-0.7974 -0.0653,-1.0959"
         style="fill:#812a48;fill-opacity:1;fill-rule:nonzero;stroke:none;stroke-width:0.133333" />
      <path
         id="path3402"
         d="m 467.15115,1099.4839 c 0.10667,-0.3146 0.22133,-0.6188 0.31333,-0.9466 0.408,-1.4587 -1.664,-1.9667 -2.35866,-0.8134 -2.09334,3.4772 -4.52,5.9918 -8.03334,8.0558 -1.72533,1.0136 -0.648,3.8281 1.268,3.6324 0.24,-0.024 0.47067,-0.09 0.70667,-0.1308 -0.796,1.1718 -1.71733,2.2584 -2.91333,3.225 -1.36134,1.099 -0.83734,3.788 1.21466,3.5031 l 0.232,-0.04 c -0.124,0.137 -0.256,0.2666 -0.37733,0.4052 -1.03733,1.1881 -0.22,2.7614 1.12,3.1589 0.30133,0.091 0.60267,0.1463 0.90533,0.2197 -0.34533,0.347 -0.69866,0.6948 -1.068,1.0563 -0.80533,0.7907 -0.524,2.0093 0.22,2.6932 -0.75466,0.5693 -1.54533,1.0975 -2.39333,1.6547 -2.18133,1.436 0.076,4.6734 2.27867,3.324 0.62933,-0.3854 1.03333,-0.6692 1.364,-0.9735 1.11333,-0.8145 2.16133,-1.6615 3.14,-2.6265 0.776,0 1.54133,-0.4146 1.73333,-1.3812 0.24933,-1.2495 0.40133,-2.9938 0.104,-4.499 0.0987,-0.4 0.10667,-0.812 -0.008,-1.1824 1.03867,-5.1041 1.13067,-10.4066 2.67067,-15.3801 0.14933,-0.4136 0.29333,-0.8292 0.38666,-1.2625 0.14667,-0.6818 -0.0893,-1.2692 -0.50533,-1.6922"
         style="fill:#812a48;fill-opacity:1;fill-rule:nonzero;stroke:none;stroke-width:0.133333" />
      <path
         id="path3403"
         d="m 312.97649,1101.537 c -0.38133,-2.676 -0.604,-9.4357 -3.74267,-10.5237 -0.47466,-0.1654 -1.06933,0.1906 -1.26933,0.6133 -1.18133,2.5053 0.416,7.5932 0.68267,10.2385 0.41333,4.1079 0.552,8.2308 0.88133,12.3427 0.20667,2.5813 4.49067,2.9333 4.63867,0.2229 0.232,-4.2577 -0.592,-8.6948 -1.19067,-12.8937"
         style="fill:#812a48;fill-opacity:1;fill-rule:nonzero;stroke:none;stroke-width:0.133333" />
      <path
         id="path3404"
         d="m 407.04715,1142.1063 c -2.188,1.0656 -5.94266,1.0656 -9.59333,0.8162 -0.0467,-0.4746 -0.292,-0.9131 -0.796,-1.0986 -6.14133,-2.2598 -13.12533,-2.7692 -19.56667,-3.8869 -7.96666,-1.3823 -15.80666,-3.4916 -23.664,-5.3787 -7.372,-1.7702 -14.63733,-3.7609 -21.868,-6.0462 -4.368,-1.3803 -8.12666,-4.4615 -12.44266,-5.7548 -0.716,-0.4776 -1.44667,-0.94 -2.228,-1.387 -1.788,-1.0224 -3.66667,1.2256 -3.11333,2.8203 0.0947,0.336 0.30533,0.6548 0.66933,0.9131 1.83333,1.3057 3.64533,2.6068 5.408,4.0041 0.74666,0.5923 1.54666,0.6376 2.21866,0.3683 13.232,6.9666 27.87734,11.3636 42.14267,15.624 8.12533,2.4276 16.804,3.9213 25.28933,4.176 5.76,0.1718 13.904,1.024 18.964,-2.276 1.5,-0.9787 0.25467,-3.7084 -1.42,-2.8938"
         style="fill:#812a48;fill-opacity:1;fill-rule:nonzero;stroke:none;stroke-width:0.133333" />
      <path
         id="path3405"
         d="m 400.61515,1112.8651 c -0.312,-1.2265 -1.82666,-1.7786 -2.932,-1.4041 -2.356,0.7989 -3.94133,2.5724 -5.856,4.0776 -1.95066,1.5333 -4.47733,0.9224 -6.41333,2.4853 -1.85867,0.096 -3.61333,0.2464 -4.98,0.6188 l -0.31467,-0.1374 c -0.772,-0.3495 -1.39466,-0.9642 -2.24133,-1.148 -0.79733,-0.175 -1.39067,0.4704 -1.42133,1.2162 -0.0453,1.0875 0.80533,2.0224 1.628,2.6146 0.73066,0.5265 1.712,1.0625 2.664,1.0692 3.58,1.2532 9.24133,0.4344 11.93866,10e-4 5.172,-0.8306 9.37467,-3.7104 7.928,-9.3932"
         style="fill:#812a48;fill-opacity:1;fill-rule:nonzero;stroke:none;stroke-width:0.133333" />
      <path
         id="path3406"
         d="m 368.23649,1106.5761 c 0.14666,0.043 -0.62934,-0.2307 -0.90134,-0.311 l -0.21466,-0.064 c -0.97067,-0.8438 -2.976,-0.6734 -3.45467,1.011 -0.0827,0.2932 -0.156,0.5822 -0.22133,0.8796 -0.13334,0.6057 0.024,1.0974 0.328,1.4614 -0.372,0.4214 -0.736,0.8495 -1.09467,1.2683 -0.75067,0.8787 -3.60133,3.5787 -2.252,4.8183 1.27733,1.1733 3.31467,-1.0516 4.12,-1.8678 1.124,-1.1426 2.71333,-3.1521 3.93333,-3.6718 1.73734,-0.7375 1.536,-3.012 -0.24266,-3.524"
         style="fill:#812a48;fill-opacity:1;fill-rule:nonzero;stroke:none;stroke-width:0.133333" />
      <path
         id="path3407"
         d="m 357.12315,1103.5037 c -1.41333,1.4906 -2.332,3.3974 -3.308,5.1844 -0.52,0.9505 -1.084,1.876 -1.71866,2.7557 -0.608,0.8427 -1.49467,1.2505 -2.16,2.0109 -0.65734,0.7506 -0.19467,1.7823 0.684,2.0427 2.29733,0.6813 4.456,-1.9109 5.56,-3.5604 1.192,-1.7812 2.09333,-3.8411 3.44933,-5.5131 l 0.10133,-0.1014 c 0.0893,-0.1251 0.17867,-0.2506 0.268,-0.3746 1.40134,-1.9666 -1.184,-4.2297 -2.876,-2.4442"
         style="fill:#812a48;fill-opacity:1;fill-rule:nonzero;stroke:none;stroke-width:0.133333" />
      <path
         id="path3408"
         d="m 347.64982,1182.7678 c -3.948,-3.6704 -9.94533,-4.7667 -14.76267,-7.0068 -6.15333,-2.8609 -9.67466,-7.0719 -14.236,-11.7969 -0.99333,-1.0282 -2.50533,0.2464 -2.17866,1.4412 1.68133,6.1682 7.992,10.2478 13.28666,13.1041 4.97334,2.6839 11.76267,5.8984 17.552,5.1823 0.448,-0.056 0.70134,-0.5864 0.33867,-0.9239"
         style="fill:#812a48;fill-opacity:1;fill-rule:nonzero;stroke:none;stroke-width:0.133333" />
      <path
         id="path3409"
         d="m 411.56582,1185.873 c -10.53467,0.4776 -22.06667,0.072 -32.43467,2.0015 -0.37466,0.071 -0.32,0.5562 -0.0693,0.7198 3.748,2.4536 8.67733,2.2536 13.12933,2.035 1.65867,0.9921 3.72,0.9828 5.63867,1.0894 2.63067,0.1464 5.752,0.1506 8.056,-1.2614 l 0.0467,-0.04 c 2.10933,-0.1642 4.20533,-0.5052 6.284,-1.2319 1.83866,-0.6416 1.28,-3.4 -0.65067,-3.3124"
         style="fill:#812a48;fill-opacity:1;fill-rule:nonzero;stroke:none;stroke-width:0.133333" />
      <path
         id="path3410"
         d="m 452.79915,1172.9667 c -0.524,0.1359 -1.03067,0.337 -1.52933,0.5626 -2.20267,0.7708 -4.71733,1.6104 -5.94133,3.4556 l -0.0613,0.1365 c -0.504,0.3583 -0.988,0.7344 -1.396,1.1667 -1.41733,1.501 0.384,3.5369 2.10934,3.0906 1.47466,-0.3828 2.79733,-1.5573 4.048,-2.399 1.44799,-0.9703 2.95599,-1.7599 4.49066,-2.5796 1.936,-1.036 0.284,-4.2443 -1.72,-3.4334"
         style="fill:#812a48;fill-opacity:1;fill-rule:nonzero;stroke:none;stroke-width:0.133333" />
      <path
         id="path3411"
         d="m 466.08448,1106.6626 c -0.92,5.4161 -1.39466,10.9067 -2.396,16.2733 -0.576,0.2558 -1.12,0.6454 -1.67733,0.9251 -0.57333,0.2869 -0.22933,1.2853 0.39333,1.1921 l 0.068,-0.014 c -4.15733,3.7052 -9.40933,5.9812 -14.52133,8.1052 -6.29066,2.612 -12.86933,4.5281 -19.536,5.8973 -13.16266,2.7027 -26.7,2.812 -39.988,1.0386 -13.692,-1.8266 -27.44533,-5.0307 -40.39466,-9.8427 -6.576,-2.4453 -13.144,-4.9344 -19.68267,-7.4797 -5.78133,-2.2495 -12.00533,-4.264 -17.212,-7.728 0.10134,-1.2626 -0.34533,-2.8 -0.49733,-4.0163 -0.328,-2.6489 -0.57067,-5.3093 -0.82267,-7.9667 -0.368,-3.8676 -1.32266,-8.1037 -1.00266,-12.021 5.82666,3.1386 12.37733,4.5613 18.82933,5.8266 3.67466,0.72 7.33466,1.4654 10.99733,2.2455 3.80267,0.8095 7.97733,2.2787 11.86133,2.3396 -1.852,4.3656 -2.96666,9.0271 -2.19866,13.5203 0.13733,0.8 1.316,1.4865 1.888,0.6078 2.63066,-4.0494 5.23066,-8.0718 8.576,-11.5306 -0.0773,3.9692 0.048,7.9145 0.59466,11.8666 0.17067,1.2386 1.83067,1.3094 2.14,0.1135 0.88267,-3.4041 2.21867,-6.5907 3.752,-9.7041 0.68534,0.324 1.44134,0.5416 2.144,0.7869 0.85467,0.2985 2.016,1.0251 2.93067,0.9667 0.13333,-0.01 0.25467,-0.055 0.36933,-0.1151 0.0133,0.6656 0.008,1.3364 0.044,1.9937 0.27867,5.1088 3.55067,8.5334 8.55067,9.3156 4.65467,0.7298 10.14933,-1.8385 14.45067,-3.4702 l 0.292,-0.1803 0.32666,-0.055 c 1.072,-0.3224 1.464,-1.4625 1.56667,-2.7068 12.52933,0.9402 24.808,3.6178 37.44933,2.8 12.116,-0.7822 24.9,-5.6077 32.33867,-15.6238 0.4,-0.5371 0.75866,-1.0866 1.09733,-1.6412 -0.10533,2.776 -0.26667,5.5464 -0.73067,8.2813 z m -10.60533,45.8719 c -0.18,6.74 -0.072,13.4828 -0.208,20.2228 -0.26267,-0.1963 -0.628,-0.2479 -1.004,-0.01 -1.728,1.0984 -3.784,1.5266 -5.68933,2.2172 -0.77067,0.2787 -0.57333,1.487 0.27067,1.4255 2.04666,-0.1468 4.73333,-0.8145 6.39199,-2.1041 -0.012,0.4172 -0.012,0.836 -0.0253,1.2532 -21.35066,10.8442 -44.496,16.7213 -68.556,14.8374 -12.86266,-1.0068 -25.71866,-2.8598 -38.124,-6.4745 -6.096,-1.776 -11.99333,-4.2839 -17.46266,-7.5041 -4.496,-2.647 -10.308,-5.7959 -13.50534,-9.9932 l -0.0187,-0.016 c -0.0707,-0.1932 -0.19334,-0.3704 -0.35334,-0.5037 0.16,-1.0452 0.25067,-3.5151 0.25067,-3.7776 0.003,-2.0973 -0.12267,-4.1957 -0.25467,-6.2891 -0.28533,-4.54 -0.80399,-9.0656 -1.16933,-13.6005 -0.37466,-4.6515 -0.97066,-9.2489 -1.07066,-13.9239 -0.06,-2.8182 0.68266,-6.0917 -0.14134,-8.8704 3.61867,1.9667 7.564,3.4215 11.33867,4.9402 6.91866,2.7865 13.89733,5.4318 20.85733,8.113 13.47733,5.1922 27.93467,8.3683 42.21867,10.3266 13.53333,1.8562 27.58933,1.4573 40.93333,-1.5 6.78133,-1.5036 13.368,-3.5916 19.77067,-6.285 2.54933,-1.0733 5.07599,-2.2254 7.47866,-3.5681 -1.72267,6.7615 -1.744,14.1801 -1.928,21.0839 z m -115.70266,-55.5426 c -1.66934,-0.3626 -3.34,-0.7186 -5.012,-1.0653 0.56666,-1.0027 1.35733,-1.8693 2.652,-1.696 1.40666,0.188 2.01466,1.4947 2.36,2.7613 z m -24.168,-11.0386 c 0.19867,-0.1387 0.28133,-0.3134 0.29333,-0.488 1.88133,-1.3014 3.768,-2.6 5.62667,-3.9334 2.21066,-1.5866 4.27866,-3.364 6.392,-5.0733 4.08266,-3.3027 8.20933,-6.816 12.91066,-9.176 0.508,-0.256 0.45467,-1.024 0.0787,-1.352 l -0.24,-0.1413 0.13333,-0.089 c 2.56534,3.2907 5.84667,6.0907 9.32267,8.368 3.50533,2.2987 7.388,3.9974 11.496,4.8334 1.792,0.364 3.59733,0.4306 5.396,0.3053 -4.83333,3.248 -8.77467,8.6853 -11.60667,13.1467 -1.53333,2.4146 -3.11333,5.1133 -4.41466,7.9597 l -0.22267,-0.2052 c -2.76667,-1.4801 -6.08,-2.0479 -9.12,-2.7105 -0.31333,-2.148 -1.636,-4.3774 -3.93067,-4.7147 -1.98533,-0.2907 -3.648,1.208 -4.288,2.9773 -1.08266,-0.22 -2.164,-0.4466 -3.25066,-0.6546 -6.652,-1.2667 -13.45467,-2.556 -19.54533,-5.6 1.68933,-1.1 3.31733,-2.2974 4.96933,-3.452 z m 23.992,-25.7627 c 3.81733,4.6307 8.952,8.1187 15.12666,8.44 0.70667,0.037 1.192,-0.9893 0.736,-1.52 -3.09733,-3.604 -5.516,-7.5573 -7.204,-11.8373 1.87067,2.2626 4.156,4.2226 6.604,5.904 5.24534,3.604 11.88934,4.2866 17.09467,7.764 -0.32533,0.656 -0.536,1.36 -0.56933,2.096 l 0.003,0.099 c -0.48133,-0.1666 -0.96266,-0.3226 -1.396,-0.5053 -1.21333,-0.5093 -2.30533,-1.0027 -3.644,-0.872 -0.20133,0.019 -0.368,0.3067 -0.16533,0.452 0.99067,0.716 2.06,1.228 3.14,1.7947 0.73333,0.3853 1.62133,0.9413 2.508,1.1773 0.33467,0.6947 0.83067,1.308 1.41733,1.8467 -1.67066,-0.356 -3.724,-1.752 -4.89866,-2.3174 -1.464,-0.704 -3.75734,-2.2173 -5.468,-1.7533 -0.38667,0.104 -0.552,0.7107 -0.20134,0.9587 1.852,1.3093 4.30134,2.212 6.33467,3.236 0.69467,0.3506 1.54533,0.8253 2.44,1.216 -3.10267,0.66 -6.19333,0.968 -9.464,0.536 -4.108,-0.5427 -8.028,-2.636 -11.44667,-4.876 -3.168,-2.076 -6.15866,-4.744 -8.48133,-7.8547 -0.052,-0.1987 -0.192,-0.368 -0.368,-0.4787 -0.79467,-1.1146 -1.50267,-2.2853 -2.09733,-3.5053 z m 7.232,0.9387 c 0.46266,-0.3774 0.928,-0.752 1.39733,-1.1227 l 0.06,-0.045 c 1.168,2.24 2.532,4.3893 4.112,6.4333 -2.82533,-0.572 -5.36667,-1.924 -7.59867,-3.732 0.73867,-0.3773 1.41734,-1.0333 2.02934,-1.5333 z m 5.34933,-4.5174 c 1.97733,-0.252 3.70267,-1.932 5.168,-3.1506 l 0.12533,-0.108 c 0.33867,3.3786 5.63734,5.5133 7.66667,2.5946 2.86533,3.8214 6.29467,7.216 9.62667,9.86 l -0.328,0.2374 c -0.6,0.4573 -1.176,1.0066 -1.66534,1.6226 -3.812,-3.0333 -9.152,-3.916 -13.44,-6.0853 -2.56933,-1.3013 -5.06933,-2.972 -7.22533,-4.976 z m 7.77867,-5.4093 c 0.428,-0.376 0.97866,-0.748 1.44266,-1.1627 0.73867,1.4507 1.59734,2.8627 2.52934,4.232 l -0.15734,0.2334 c -0.47333,1.144 -1.73466,1.092 -2.75466,0.7386 -1.26667,-0.4373 -2.03734,-1.3946 -2.35067,-2.6706 l -0.084,-0.18 c 0.45733,-0.3974 0.92,-0.7894 1.37467,-1.1907 z m 2.656,-20.6253 c 1.88266,-2.8 4.58133,-4.1587 7.56266,-4.9987 -1.81866,3.6093 -1.156,10.1307 -0.74266,12.808 0.72933,4.716 2.43066,9.2747 4.484,13.56 1.94266,4.0547 4.38133,7.7973 5.796,12.0573 l -0.0747,0.017 c -0.816,-2.0454 -1.97467,-4.34 -3.884,-5.4 -0.184,-0.1014 -0.444,0.093 -0.36133,0.3 0.72133,1.82 1.59733,3.5893 2.39866,5.3866 -0.144,0.04 -0.292,0.065 -0.43333,0.1147 -0.34,-1.6493 -1.92533,-3.1133 -2.972,-4.3707 -1.39333,-1.6746 -2.82267,-3.3373 -4.16933,-5.0493 -0.156,-0.1987 -0.55734,-0.072 -0.43867,0.2 0.804,1.852 1.74533,3.5453 2.85867,5.2333 0.30266,0.46 0.62133,1.0014 0.96,1.5547 -5.52134,-4.9853 -10.132,-11.3387 -12.42667,-18.3667 -1.44267,-4.4186 -1.18,-9.144 1.44267,-13.0466 z m 8.44133,-1.4627 c 0.29467,-2.0653 2.35867,-6.3227 5.064,-2.9867 1.80933,2.232 2.46667,6.728 2.94267,9.3894 0.328,1.84 0.488,3.7093 0.596,5.5853 -0.0507,1.0733 -0.0947,2.136 -0.13867,3.1613 -0.18667,4.384 -0.528,9.396 0.012,14.0547 -1.736,-3.7613 -4.09067,-7.3733 -5.59067,-11.044 -1.65066,-4.0373 -2.656,-8.3013 -3.03333,-12.6427 -0.16,-1.836 -0.112,-3.6946 0.148,-5.5173 z m 11.67467,3.7133 c 0.95333,-4.98 3.02666,-8.8226 7.844,-10.876 3.36133,-1.432 6.75466,-1.2786 10.076,-0.4093 -0.43334,0.276 -0.81067,0.572 -1.07867,0.8293 -3.08933,2.964 -4.71467,7.2414 -6.18267,11.1694 -1.70666,4.5666 -3.21066,9.232 -4.74266,13.86 -1.64134,4.9586 -3.684,10.3333 -4.44267,15.636 -0.27733,0.5253 -0.52267,1.064 -0.744,1.6093 -0.12667,-0.084 -0.25467,-0.1747 -0.37867,-0.2507 l -0.15333,-0.068 0.0747,-0.3026 c 0.31866,-0.071 0.6,-0.3174 0.6,-0.7427 -0.012,-7.0547 -0.68267,-13.8933 2.26666,-20.528 0.14,-0.3147 -0.24933,-0.5933 -0.49466,-0.3427 -1.6,1.6267 -2.53734,3.7974 -3.07334,6.1947 -0.0933,-1.1027 -0.17466,-2.2067 -0.224,-3.3147 -0.076,-1.6986 -0.168,-3.384 -0.30666,-5.06 0.19866,-2.4813 0.492,-4.9546 0.96,-7.404 z m 21.14666,-8.4386 c 0.39734,6.4253 -3.45333,13.4533 -6.34266,18.82 -2.376,4.4146 -5.212,8.544 -8.228,12.54 -0.79734,1.056 -1.65067,2.132 -2.47334,3.24 0.62134,-2.1227 1.19467,-4.2614 1.85867,-6.3294 1.55333,-4.8413 3.248,-9.632 4.88133,-14.448 1.124,-3.316 2.34667,-6.5933 3.912,-9.7306 0.692,-1.3867 6.07867,-9.1547 6.392,-4.092 z m -19.38666,70.776 c -0.62267,-3.5707 -1.14534,-7.1494 -1.25334,-10.772 -0.0227,-0.8 -0.032,-1.6507 -0.0707,-2.5094 0.34533,1.3494 0.57333,2.7334 0.832,3.8987 0.612,2.76 1.21466,5.348 2.45466,7.9013 1.63734,3.3747 3.69334,6.5282 5.332,9.9052 0.93067,1.9162 1.62534,3.9282 2.03734,6.0172 0.21466,1.088 0.67866,5.1094 -1.46534,3.5724 -5.432,-3.8974 -6.81333,-11.9724 -7.86666,-18.0134 z m -10.54667,-3.3987 c 0.724,-5.04 2.30667,-9.5387 3.92133,-14.3067 1.036,0.2134 2.09734,0.256 3.12134,0.1174 0.76266,3.788 0.232,7.7266 0.73466,11.5546 0.71467,5.4467 1.55334,10.8478 3.24534,16.0879 0.69466,2.1521 2.79866,6.912 5.504,9.1975 -1.90267,0.6385 -3.90267,1.6265 -5.34667,2.077 -3.90267,1.2162 -8.39733,1.2162 -11.06267,-2.3505 -1.452,-1.9437 -1.36666,-4.7984 -1.34,-7.0975 0.0613,-5.1025 0.49734,-10.2317 1.22267,-15.2797 z m 11.348,-19.6067 c -0.89333,4.532 -7.47467,3.7494 -10.22,1.8454 -2.38,-1.6507 -1.90933,-3.968 -0.412,-5.764 0.92533,-0.1907 1.81467,-0.6427 2.72667,-0.9214 0.51733,-0.1573 1.04533,-0.2786 1.576,-0.3893 0.148,0.015 0.29733,-0.01 0.444,-0.091 0.73733,-0.1466 1.472,-0.2973 2.19466,-0.4866 l 0.0387,0.035 c 0.0947,0.1174 0.29733,0.1147 0.336,-0.057 l 0.008,-0.091 c 0.464,0.252 0.89467,0.5987 1.26667,0.9107 1.57866,1.3227 2.44666,2.952 2.04133,5.0093 z m 2.04,0.8294 c 2.80933,0.028 6.58533,1.8346 8.96,2.7773 2.92133,1.16 5.96133,2.6907 8.31333,4.7947 1.44,1.2893 2.71334,2.764 3.86667,4.312 0.56533,0.7586 1.04533,1.5666 1.41733,2.436 0.82267,1.928 -1.636,1.5853 -2.70666,1.4226 -4.61334,-0.7013 -8.95067,-4.2893 -12.38267,-7.1986 -2.75333,-2.3347 -5.65067,-5.2427 -7.468,-8.544 z m 8.94933,12.3013 c 2.29467,1.804 7.80667,5.8787 11.952,5.9267 -0.932,1.8013 -1.844,3.352 -3.85066,4.784 -3.40934,2.432 -6.35867,1.7866 -9.20534,-0.9694 -2.708,-2.6213 -4.776,-5.928 -6.656,-9.164 -1.708,-2.94 -2.944,-6.292 -4.77733,-9.152 1.15467,-0.5866 2.14933,-1.424 2.82533,-2.5226 1.77734,4.5026 6.22,8.3506 9.712,11.0973 z m -31.04133,16.4573 c -1.56933,2.8735 -3.01067,5.788 -4.19067,8.8147 -0.176,-3.0563 -0.18933,-6.1136 -0.0693,-9.1975 0.0293,-0.7692 -1.10533,-1.3292 -1.688,-0.8052 -3.624,3.264 -6.41067,7.0798 -9.07067,11.0828 0.13467,-6.2358 3.49867,-12.5364 6.624,-17.6281 3.76134,-6.1307 8.94267,-12.4333 15.536,-15.6627 l 0.11467,-0.029 c -0.872,0.5453 -1.672,1.2387 -2.42133,1.892 -1.748,1.5187 -4.01467,3.6627 -4.93734,5.816 -0.12133,0.284 0.17867,0.6107 0.464,0.4227 1.608,-1.0547 2.776,-2.9174 4.08934,-4.3067 1.724,-1.8227 3.584,-3.1067 5.728,-4.36 l 0.1,-0.244 c 0.132,-0.037 0.268,-0.068 0.4,-0.104 0.26266,-0.073 0.42666,-0.2213 0.54,-0.392 l 0.12666,0.06 c -0.29866,0.4107 -0.57066,0.8467 -0.83066,1.292 -3.78667,3.7573 -7.64267,9.1507 -8.00534,14.396 -0.024,0.3453 0.496,0.5213 0.69867,0.2507 1.59067,-2.1107 2.28133,-4.9427 3.42533,-7.3267 0.74267,-1.5493 1.584,-3.06 2.54267,-4.4893 -0.76533,1.9786 -1.304,4.108 -1.71467,6.2133 -0.156,0.06 -0.3,0.172 -0.40266,0.352 -2.568,4.4853 -4.568,9.392 -7.05867,13.9533 z m 5.41733,4.3866 c -0.74133,-0.5158 -1.85466,-0.7095 -2.644,-0.9428 -0.60933,-0.1787 -1.284,-0.388 -1.952,-0.4839 0.52667,-1.0197 1.068,-2.0375 1.62134,-3.052 1.22266,-2.2453 2.676,-4.6065 3.87466,-7.0492 -0.508,3.7813 -0.868,7.6893 -0.9,11.5279 z m 80.62933,2.1202 c -1.59733,0.7798 -3.24133,1.4547 -4.92666,2.024 -0.40667,-0.8057 -1.29467,-1.399 -1.124,-2.4256 0.144,-0.8718 1.104,-1.4462 1.84267,-1.7546 1.544,-0.6412 4.30133,-0.512 4.15733,1.7322 -0.009,0.1599 0.0133,0.297 0.0507,0.424 z m -45.11066,-83.4561 c 5.39067,0.033 10.68,-1.1933 16.10667,-0.5533 5.896,0.696 10.89066,4.4333 13.456,9.652 -0.94267,0.088 -1.94534,0.6413 -2.552,1.2053 -1.088,1.0107 -1.55467,2.3933 -1.58534,3.852 -0.0493,2.392 2.75734,5.956 5.392,4.8333 -0.52933,2.6387 -1.648,5.1854 -3.108,7.3947 -3.12,4.7253 -8.24533,7.4733 -12.69066,10.7493 -0.59334,0.4387 -0.14667,1.272 0.53866,1.124 2.25067,-0.484 4.372,-1.7546 6.344,-3.1093 l 0.15334,0.02 c 5.652,-0.296 11.28933,0.2987 16.564,1.92 -0.98934,0.9453 -0.56,2.8867 0.412,3.9253 1.94,2.0747 5.22133,1.04 6.87866,-0.868 3.30533,1.816 6.36133,4.152 9.04933,7.068 1.504,1.6307 2.69867,3.3814 3.628,5.1947 -4.80133,0.9347 -1.68266,8.08 2.112,9.0693 l 0.184,-0.012 c 0.10134,6.016 -2.48133,12.0014 -7.608,16.5654 -1.95333,1.74 -4.06133,3.1984 -6.27466,4.4374 -0.33734,-3.1854 -3.92,-3.7537 -6.59733,-2.6734 -1.288,0.5188 -2.42267,1.4582 -2.81067,2.8265 -0.292,1.0349 0.25733,2.5547 1.19333,3.3068 -5.47466,1.6573 -11.29466,2.3265 -17.03733,2.3828 -10.77467,0.1027 -21.284,-2.6683 -31.99867,-2.8083 l -0.0813,0.018 c -0.0373,-0.3228 -0.0733,-0.6186 -0.10267,-0.8457 -0.59066,-4.5824 -3.244,-8.8371 -5.47066,-12.7811 -2.15867,-3.8213 -3.51067,-7.2813 -4.448,-11.5333 -0.0307,-0.14 -0.0613,-0.2853 -0.092,-0.428 0.75866,1.42 1.56,2.7973 2.31333,4.0987 2.168,3.7413 5.25067,8.6226 9.352,10.4894 4.43867,2.0183 13.616,-3.5228 13.43467,-8.8014 l 0.17466,-0.1014 c 3.75867,-2.78 -2.22133,-8.6066 -4.19066,-10.604 -2.66934,-2.7053 -6.19067,-4.428 -9.64667,-5.908 -1.91733,-0.8213 -3.92533,-1.4253 -5.932,-1.98 -1.09333,-0.3026 -2.46533,-0.8386 -3.72,-0.8893 0.012,-0.2267 0.0347,-0.4493 0.0253,-0.6867 -0.0613,-1.6 -1.06666,-3.0946 -2.29866,-4.2813 1.63466,-4.5027 5.36933,-8.3227 8.136,-12.1547 3.72933,-5.1653 6.868,-10.7386 9.464,-16.5533 1.29733,-2.9053 3.648,-8.4107 3.33333,-12.56 z m 30.32533,10.8613 c 0.784,2.1534 0.97067,4.4134 0.72,6.6414 -0.93866,-0.4254 -1.892,-0.2267 -2.76933,-0.9454 -0.73867,-0.6053 -1.048,-1.5986 -1.10667,-2.5146 -0.0667,-1.0307 0.4,-1.9387 1.08534,-2.6694 0.512,-0.5466 1.23066,-0.7226 1.868,-1.0146 0.0667,0.168 0.14,0.332 0.20266,0.5026 z m 9.88134,26.744 c 1.384,0.4894 2.73866,1.052 4.05866,1.6934 -1.06933,0.872 -2.24933,1.5333 -3.66933,0.7893 -0.484,-0.2533 -0.80933,-0.7307 -0.95467,-1.2427 -0.14533,-0.5146 0.24,-0.9 0.56534,-1.24 z m 20.56399,22.1 c -0.784,-0.364 -1.432,-0.6733 -2.06266,-1.436 -1.412,-1.7066 -1.744,-4.0373 0.20133,-5.2213 1.016,2.156 1.624,4.3987 1.86133,6.6573 z m -4.40266,-14.8306 c -7.71467,-8.2827 -20.088,-12.8907 -31.44267,-11.9294 2.11734,-1.656 3.98134,-3.7386 5.35467,-6.024 2.95867,-4.9213 4.01067,-10.428 2.55733,-16.0186 -3.82133,-14.696 -20.96133,-15.1827 -33.05466,-12.2147 -0.21467,-0.8613 -0.57467,-1.6387 -1.14934,-2.2693 -0.41066,-0.452 -0.952,-0.6027 -1.53066,-0.5934 -6.79334,-4.3533 -17.47867,-0.6506 -20.88667,6.3267 -0.84133,1.7213 -1.39733,3.608 -1.796,5.5573 -0.18933,-0.7813 -0.39467,-1.56 -0.64,-2.3346 -0.72667,-2.2987 -1.66533,-6.1654 -4.424,-6.8814 -1.576,-0.4093 -2.78667,-0.2173 -3.71733,0.376 -7.89734,0.2934 -13.61467,7.8854 -13.41467,15.5627 0.08,3.064 0.884,6.104 2.16,9.0307 -1.416,0.7173 -2.78267,2.44 -3.88933,3.4026 -1.54934,1.3467 -3.15734,2.5814 -4.94134,3.6 -0.26,0.148 -0.34266,0.4187 -0.30933,0.6787 -2.72267,-2.724 -4.79867,-6.0213 -5.57467,-9.848 -0.21866,-1.0733 -2.028,-0.6933 -1.876,0.38 0.588,4.164 1.772,8.0853 3.48,11.768 l -0.26533,0.228 c -0.46267,0.3773 -0.92133,0.7627 -1.37867,1.148 -0.69866,0.592 -1.644,1.2573 -2.13466,2.0733 -2.508,-2.3093 -4.572,-5.18 -6.13867,-8.0893 -0.46133,-0.856 -1.90533,-0.312 -1.77867,0.6187 0.528,3.8733 2.09067,7.3573 4.28267,10.4413 -0.22133,0.1853 -0.44933,0.364 -0.668,0.536 -0.288,0.2267 -0.57467,0.4453 -0.84,0.6973 l -0.08,0.1467 c -0.58667,0.316 -1.14,0.7187 -1.56133,0.9853 -2.99067,1.9 -5.772,4.164 -8.54267,6.364 -2.37733,1.888 -4.69467,3.8507 -7.096,5.7067 -2.144,1.6573 -4.39867,3.1733 -6.612,4.7347 -1.11733,0.7906 -2.47333,1.58 -3.54133,2.5706 -1.14,0.692 -2.24,1.4774 -3.39733,2.1534 -0.432,0.252 -0.54134,0.6813 -0.45334,1.0866 -0.15066,0.128 -0.27733,0.2987 -0.33066,0.5547 -0.69067,3.3213 0.108,7.0107 0.408,10.3425 0.43866,4.8532 0.58266,9.9282 1.58,14.7068 0.12,0.5746 0.55333,0.8814 1.004,0.9495 0.90133,0.7385 1.86,1.3943 2.84266,2.0156 l 0.036,0.059 c 0.83734,0.652 0.14934,5.7104 0.096,6.5068 -0.14133,2.0771 -0.16666,4.1359 -0.112,6.2187 0.12,4.6147 0.73467,9.2063 1.10267,13.8052 0.36533,4.5797 0.84267,9.1464 1.072,13.736 0.10533,2.0812 0.10933,4.164 0.0667,6.2468 -0.0267,1.2573 -0.544,2.5292 0.47733,3.4209 0.30533,0.2682 0.79467,0.3271 1.20267,0.1948 2.75733,3.7974 7.29866,6.0682 11.08666,8.6906 4.71333,3.263 9.98667,5.6734 15.34533,7.6598 12.91467,4.7882 26.916,6.7178 40.56267,7.9735 24.54133,2.2599 50.784,-2.2172 72.164,-14.9344 0.70533,0.2292 1.72533,-0.2083 1.76533,-1.2067 0.292,-7.2412 0.15467,-14.488 0.20533,-21.7318 0.0587,-8.2458 0.98267,-16.24 1.712,-24.4214 l -0.02,-0.239 c 2.28534,-1.4558 4.41867,-3.1344 6.26667,-5.1916 0.3,-0.3334 0.29733,-0.7599 0.14933,-1.1428 0.59734,-1.2906 0.592,-2.952 0.688,-4.3026 0.24134,-3.3802 0.60134,-6.5964 1.20134,-9.9417 0.96133,-5.352 1.452,-11.0264 1.33066,-16.6117 2.23867,-8.108 -0.63333,-16.92 -6.60266,-23.328"
         style="fill:#422000;fill-opacity:1;fill-rule:nonzero;stroke:none;stroke-width:0.133333" />
      <path
         id="path3412"
         d="m 331.39115,1083.4226 c -0.12266,0.2627 -0.33466,0.464 -0.548,0.556 -0.42533,0.1827 -0.89866,0.1373 -1.37466,0.037 -0.87067,-0.1826 -0.952,-1.04 -0.69734,-1.8306 0.13334,-0.064 0.26134,-0.1387 0.364,-0.2227 0.404,-0.3293 0.928,-0.9147 1.27467,-1.0707 0.26133,-0.116 0.18667,-0.083 0.39067,-0.093 -0.036,0 0.0107,-0.02 0.216,0.088 -0.228,-0.12 0.27466,0.296 0.112,0.1027 l 0.152,0.2133 c 0.13466,0.2027 0.036,0.039 0.096,0.1747 0.29866,0.6786 0.3,1.4333 0.0147,2.0453 z m 2.09734,-1.088 c 0.0347,-1.9493 -1.35467,-3.8187 -3.43334,-3.396 -1.07866,0.2187 -2.66666,1.544 -2.596,2.728 l 0.003,0.016 c -0.21067,0.3747 -0.348,0.8027 -0.38933,1.256 -0.144,1.6147 1.01466,2.6173 2.49466,2.9027 2.31467,0.4466 3.884,-1.316 3.92134,-3.5067"
         style="fill:#422000;fill-opacity:1;fill-rule:nonzero;stroke:none;stroke-width:0.133333" />
      <path
         id="path3413"
         d="m 352.94315,1083.8986 c 0.32667,-0.748 0.92934,-1.3853 1.65334,-1.7693 0.65333,0.5893 1.17866,1.636 1.11466,2.3746 -0.0347,0.4134 -0.16533,0.608 -0.43066,0.7267 -0.63867,0.2867 -1.83734,0.3267 -2.41734,-0.079 -0.36666,-0.256 -0.0693,-0.908 0.08,-1.2533 z m -1.79733,2.2573 c 0.71333,1.1707 2.47733,1.2907 3.68933,1.2054 1.10134,-0.077 2.12934,-0.6214 2.62,-1.636 0.832,-1.724 -0.396,-3.984 -1.72133,-5.0867 -0.69867,-0.5813 -1.6,-0.896 -2.49333,-0.6227 -0.95867,0.292 -1.81467,1.56 -1.428,2.548 l 0.0453,0.068 c -0.98667,0.908 -1.488,2.2507 -0.712,3.524"
         style="fill:#422000;fill-opacity:1;fill-rule:nonzero;stroke:none;stroke-width:0.133333" />
      <path
         id="path3414"
         d="m 413.34849,1107.6454 c 0.036,-0.4204 0.188,-0.8453 0.52933,-1.1057 0.784,-0.6 2.18133,0.024 2.708,0.7057 0.368,0.476 0.0813,1.0104 -0.45333,1.2733 -0.92267,0.4543 -1.796,0.079 -2.54134,-0.5244 l -0.25866,-0.137 z m -1.13334,1.8187 c 0.17334,0.1172 0.40534,0.1505 0.59334,0.075 1.136,1.0973 2.836,1.4 4.28266,0.6135 1.44934,-0.788 1.98667,-2.4416 1.164,-3.8818 -0.948,-1.6609 -3.59066,-2.4156 -5.24933,-1.4958 -1.46,0.8078 -2.42,3.5761 -0.79067,4.6896"
         style="fill:#422000;fill-opacity:1;fill-rule:nonzero;stroke:none;stroke-width:0.133333" />
      <path
         id="path3415"
         d="m 447.71649,1084.7199 c 0.82266,-0.2293 1.31066,-0.952 2.17733,-0.3333 0.71333,0.5093 1.18933,1.4307 0.996,2.308 -0.22934,1.0493 -1.66133,1.0693 -2.35067,0.5493 -0.48,-0.3626 -0.72,-0.8773 -0.9,-1.4333 -0.12533,-0.384 -0.012,-0.7333 0.0773,-1.0907 z m 4.86399,2.9334 c 0.75334,-1.6254 -0.17333,-3.6414 -1.49466,-4.668 -1.20933,-0.9387 -3.93333,-0.9787 -4.184,0.872 -0.74,0.2546 -1.03467,1.2853 -1.06667,1.9893 -0.048,1.052 0.61467,2.0413 1.33734,2.7373 1.60666,1.5507 4.45733,1.1214 5.40799,-0.9306"
         style="fill:#422000;fill-opacity:1;fill-rule:nonzero;stroke:none;stroke-width:0.133333" />
      <path
         id="path3416"
         d="m 428.86315,1074.4346 c 1.10267,-0.48 0.96667,-1.9067 2.304,-1.5387 0.93467,0.256 1.72267,1.2867 1.99734,2.1667 0.40266,1.2853 -1.26667,1.644 -2.20667,1.7093 -1.46267,0.1014 -2.19733,-1.0506 -2.33333,-2.3133 z m 0.544,3.9333 c 2.01467,0.8587 5.55867,-0.144 5.71867,-2.6813 0.12267,-1.9427 -1.384,-3.8013 -3.11733,-4.5293 -0.92134,-0.3867 -1.856,-0.3547 -2.736,0.1066 -0.41067,0.216 -0.812,0.6614 -1.06534,1.164 -1.932,1.7427 -1.224,4.9067 1.2,5.94"
         style="fill:#422000;fill-opacity:1;fill-rule:nonzero;stroke:none;stroke-width:0.133333" />
      <path
         id="path3417"
         d="m 402.20182,1062.6346 -0.0307,0.045 0.0493,-0.059 0.14933,-0.1694 0.0547,-0.063 0.032,-0.1187 0.028,-0.06 -0.02,0.031 c 0.0373,-0.1467 0.0493,-0.3 0.052,-0.4494 -0.001,0.025 0.0187,-0.3186 0.003,-0.1826 0.004,-0.036 0.0707,-0.372 0.016,-0.212 0.0653,-0.1907 0.0933,-0.1614 0.192,-0.2307 0.164,-0.1173 0.33467,-0.164 0.62667,-0.2347 0.84267,-0.2053 2.16267,0.1054 2.64133,0.7627 0.672,0.9213 -0.58533,2.7747 -1.716,2.876 -0.77066,0.068 -1.52,-0.4373 -1.944,-1.04 -0.18666,-0.264 -0.26666,-0.532 -0.28666,-0.8027 z m -1.48533,-1.2333 c -0.41067,0.728 -0.48,1.636 -0.17067,2.46 0.45867,1.2213 1.57867,2.032 2.78933,2.3906 2.59734,0.768 5.13867,-2.1773 4.592,-4.6666 -0.41866,-1.9054 -2.644,-2.6334 -4.37066,-2.5347 -0.87067,0.049 -1.71734,0.3573 -2.33334,0.984 -0.348,0.3547 -0.52,0.8667 -0.50666,1.3667"
         style="fill:#422000;fill-opacity:1;fill-rule:nonzero;stroke:none;stroke-width:0.133333" />
      <path
         id="path3418"
         d="m 412.10182,1032.9733 c 0.22667,-0.236 0.36,-0.3974 0.47067,-0.712 0.08,-0.228 0.14266,-0.4747 0.284,-0.6747 0.22666,-0.3227 0.45066,-0.4013 0.77333,-0.42 0.59067,-0.032 1.28533,0.4587 1.48267,0.9453 0.32133,0.7867 -0.628,1.648 -1.45734,1.908 -0.52933,0.1654 -1.16266,-0.108 -1.48133,-0.5373 -0.12133,-0.1627 -0.132,-0.3253 -0.10933,-0.4853 z m 0.472,2.504 c 1.88,0.6293 4.112,-1.1707 4.18533,-3.0574 0.0573,-1.46 -1.412,-2.6746 -2.756,-2.8413 -1.37733,-0.1707 -3.01866,1.08 -2.952,2.4733 -0.35466,0.332 -0.56266,0.8214 -0.484,1.356 0.156,1.0654 1.04667,1.748 2.00667,2.0694"
         style="fill:#422000;fill-opacity:1;fill-rule:nonzero;stroke:none;stroke-width:0.133333" />
      <path
         id="path3419"
         d="m 421.68182,1051.0066 c 0.65733,-0.095 1.352,0.3107 1.73067,0.824 0.56533,0.7667 -0.0427,1.6573 -0.83734,1.9547 -1.128,0.4226 -1.544,-0.9747 -1.812,-1.9574 0.248,-0.3733 0.47867,-0.7573 0.91867,-0.8213 z m -1.9,2.8267 c 0.49467,0.864 1.31067,1.5306 2.324,1.632 2.01067,0.1986 3.57467,-1.8614 3.15867,-3.7307 -0.32534,-1.4587 -1.94,-2.4253 -3.336,-2.512 -1.37734,-0.087 -3.61734,1.504 -2.50134,3.016 -0.024,0.5693 0.10934,1.1653 0.35467,1.5947"
         style="fill:#422000;fill-opacity:1;fill-rule:nonzero;stroke:none;stroke-width:0.133333" />
      <path
         id="path3420"
         d="m 425.70315,1095.2026 c 0.14134,-0.408 0.37467,-0.8067 0.66534,-1.1547 0.12266,0.033 0.25866,0.031 0.40666,-0.027 0.35334,-0.1374 0.664,-0.392 0.94,-0.652 0.13867,-0.132 0.36534,-0.2334 0.30134,-0.2214 0.172,-0.033 0.144,-0.01 0.14533,-0.01 0.224,0.152 0.184,0.132 0.364,0.412 0.512,0.7934 0.64933,2.16 0.428,3.1934 -0.21467,1.0106 -0.752,1.2826 -1.82933,0.8173 -1.03334,-0.4467 -1.84,-1.1547 -1.42134,-2.36 z m 4.69467,2.9093 c 0.896,-1.616 0.568,-3.96 -0.29333,-5.512 -0.43334,-0.7813 -1.16267,-1.2746 -2.05467,-1.3106 -0.87733,-0.036 -1.95067,0.7866 -2.18267,1.6573 -0.348,0.18 -0.67866,0.404 -0.97066,0.696 -1.17467,1.1773 -1.412,3.1307 -0.21867,4.38 1.55467,1.6264 4.444,2.3895 5.72,0.089"
         style="fill:#422000;fill-opacity:1;fill-rule:nonzero;stroke:none;stroke-width:0.133333" />
      <path
         id="path3421"
         d="m 312.40849,1112.4214 c -0.492,-0.033 -0.516,0.6301 -0.18267,0.8396 0.89734,0.5615 1.804,1.1016 2.696,1.6724 0.17467,0.112 0.412,0.061 0.57734,-0.033 0.15733,-0.09 0.2,-0.2 0.25066,-0.3683 0.0613,-0.1973 -0.0427,-0.4213 -0.184,-0.5547 -0.85466,-0.8026 -1.96666,-1.476 -3.15733,-1.5557"
         style="fill:#422000;fill-opacity:1;fill-rule:nonzero;stroke:none;stroke-width:0.133333" />
      <path
         id="path3422"
         d="m 320.18715,1116.1745 c -0.27866,-0.1042 -0.568,-0.1802 -0.85466,-0.2588 -0.39067,-0.1094 -0.81067,0.031 -1.20667,-0.072 -0.28533,-0.074 -0.38533,0.3708 -0.10133,0.4443 0.3,0.079 0.50666,0.2984 0.76266,0.4573 0.35467,0.2197 0.74934,0.3796 1.136,0.5369 0.60134,0.2427 1.248,0.6495 1.9,0.4307 0.22267,-0.074 0.30267,-0.3197 0.19067,-0.5171 -0.35467,-0.6266 -1.19067,-0.7829 -1.82667,-1.0214"
         style="fill:#422000;fill-opacity:1;fill-rule:nonzero;stroke:none;stroke-width:0.133333" />
      <path
         id="path3423"
         d="m 328.10715,1119.3985 c -0.816,-0.5402 -1.58266,-0.6334 -2.52666,-0.6984 -0.23734,-0.018 -0.31734,0.3582 -0.10267,0.4489 0.74933,0.3188 1.48667,0.976 2.112,1.4937 0.57067,0.4703 1.06933,1.1172 1.84267,1.176 0.224,0.017 0.384,-0.2176 0.384,-0.4161 -0.004,-0.9161 -1.024,-1.5505 -1.70934,-2.0041"
         style="fill:#422000;fill-opacity:1;fill-rule:nonzero;stroke:none;stroke-width:0.133333" />
      <path
         id="path3424"
         d="m 335.78449,1122.2402 c -0.40934,-0.1365 -0.77867,-0.2084 -1.21067,-0.2068 -0.38133,0 -0.68667,0.2077 -1.048,0.2505 -0.304,0.036 -0.28933,0.5135 0.016,0.4771 0.53467,-0.064 1.368,0.4057 1.84933,0.6151 0.54,0.2344 1.03067,0.6797 1.648,0.4849 0.12667,-0.04 0.18934,-0.148 0.196,-0.2729 0.0413,-0.7751 -0.83466,-1.1443 -1.45066,-1.3479"
         style="fill:#422000;fill-opacity:1;fill-rule:nonzero;stroke:none;stroke-width:0.133333" />
      <path
         id="path3425"
         d="m 343.21915,1124.9959 c -1.08933,-0.2349 -2.012,-0.2256 -3.09333,-0.1 -0.21867,0.025 -0.312,0.3162 -0.0987,0.4291 0.86134,0.4563 1.60134,0.7923 2.56667,1.0297 0.86667,0.212 1.81733,0.6052 2.69067,0.2651 0.208,-0.081 0.352,-0.3453 0.20133,-0.5505 -0.54,-0.7334 -1.41733,-0.8896 -2.26667,-1.0734"
         style="fill:#422000;fill-opacity:1;fill-rule:nonzero;stroke:none;stroke-width:0.133333" />
      <path
         id="path3426"
         d="m 350.67515,1127.7479 c -0.772,-0.2708 -1.49866,-0.6786 -2.33866,-0.6718 -0.33734,10e-4 -0.62934,0.4666 -0.38667,0.7516 0.60667,0.712 1.45067,1.0896 2.30933,1.4161 0.728,0.2787 1.67734,0.5547 2.288,-0.077 0.124,-0.1281 0.144,-0.3573 0.04,-0.5041 -0.428,-0.6079 -1.252,-0.6813 -1.912,-0.9147"
         style="fill:#422000;fill-opacity:1;fill-rule:nonzero;stroke:none;stroke-width:0.133333" />
      <path
         id="path3427"
         d="m 357.54715,1129.8521 c -0.73866,-0.2375 -1.52133,-0.3271 -2.284,-0.164 -0.39066,0.082 -0.472,0.6464 -0.188,0.8854 0.55067,0.4599 1.21867,0.7036 1.896,0.9171 0.684,0.2147 1.456,0.5745 2.128,0.1584 0.18934,-0.1172 0.23334,-0.3276 0.192,-0.5317 -0.164,-0.7948 -1.068,-1.048 -1.744,-1.2652"
         style="fill:#422000;fill-opacity:1;fill-rule:nonzero;stroke:none;stroke-width:0.133333" />
      <path
         id="path3428"
         d="m 364.55782,1132.3651 c -0.748,-0.288 -1.38667,-0.3 -2.10667,0.044 -0.36666,0.1745 -0.22133,0.6651 0.044,0.836 0.61734,0.3957 1.316,0.588 1.96267,0.9333 0.53333,0.2854 1.32267,0.4 1.492,-0.339 0.17333,-0.7584 -0.83733,-1.261 -1.392,-1.4746"
         style="fill:#422000;fill-opacity:1;fill-rule:nonzero;stroke:none;stroke-width:0.133333" />
      <path
         id="path3429"
         d="m 372.12849,1135.273 c -0.736,-0.2199 -1.74134,-0.5276 -2.49734,-0.2933 -0.36133,0.112 -0.428,0.5614 -0.17466,0.8109 0.48,0.4704 1.25866,0.5772 1.88,0.7772 0.75733,0.2443 1.536,0.6443 2.304,0.2801 0.15466,-0.073 0.20933,-0.2948 0.16266,-0.4453 -0.23333,-0.7547 -0.996,-0.9281 -1.67466,-1.1296"
         style="fill:#422000;fill-opacity:1;fill-rule:nonzero;stroke:none;stroke-width:0.133333" />
      <path
         id="path3430"
         d="m 377.46849,1136.5735 c -0.29334,0.1156 -0.372,0.5318 -0.06,0.6891 0.63466,0.3213 1.28,0.5015 1.99066,0.5905 0.63867,0.079 1.20534,0.2292 1.69867,-0.288 0.0933,-0.098 0.12267,-0.2521 0.0827,-0.3812 -0.42267,-1.3614 -2.72667,-1.0052 -3.712,-0.6104"
         style="fill:#422000;fill-opacity:1;fill-rule:nonzero;stroke:none;stroke-width:0.133333" />
      <path
         id="path3431"
         d="m 383.16715,1136.8881 c -0.25466,0.1292 -0.17066,0.476 0.028,0.601 0.47867,0.299 0.968,0.3922 1.52267,0.4787 0.55333,0.087 1.15733,0.2733 1.708,0.095 0.15467,-0.05 0.25333,-0.2199 0.20133,-0.3787 -0.412,-1.2709 -2.484,-1.2906 -3.46,-0.7958"
         style="fill:#422000;fill-opacity:1;fill-rule:nonzero;stroke:none;stroke-width:0.133333" />
      <path
         id="path3432"
         d="m 388.64715,1137.5225 c -0.228,0.1629 -0.26533,0.4838 -0.0547,0.6786 0.44266,0.411 1.08666,0.4588 1.65333,0.5906 0.55333,0.1281 1.048,0.2401 1.56267,-0.048 0.16533,-0.093 0.18133,-0.3041 0.10133,-0.4557 -0.476,-0.8975 -2.43733,-1.3511 -3.26267,-0.7656"
         style="fill:#422000;fill-opacity:1;fill-rule:nonzero;stroke:none;stroke-width:0.133333" />
      <path
         id="path3433"
         d="m 397.01782,1138.3531 c -0.79467,-0.043 -1.628,-0.1598 -2.41733,-0.036 -0.37867,0.06 -0.72934,0.6041 -0.31467,0.889 0.69333,0.4802 1.50667,0.6282 2.33733,0.7094 0.81734,0.08 1.83467,0.315 2.344,-0.473 0.0933,-0.1468 0.048,-0.3349 -0.0253,-0.4749 -0.364,-0.6933 -1.25067,-0.5787 -1.924,-0.6147"
         style="fill:#422000;fill-opacity:1;fill-rule:nonzero;stroke:none;stroke-width:0.133333" />
      <path
         id="path3434"
         d="m 404.30315,1138.6854 c -0.948,0.094 -1.76933,0.3532 -2.592,0.8251 l 0.0307,0.188 c 0.76133,0.2202 1.50267,0.336 2.296,0.3292 0.84667,-0.01 1.85867,0.164 2.584,-0.3532 0.20267,-0.1452 0.26267,-0.464 0.052,-0.6359 -0.67333,-0.5521 -1.54933,-0.436 -2.37067,-0.3532"
         style="fill:#422000;fill-opacity:1;fill-rule:nonzero;stroke:none;stroke-width:0.133333" />
      <path
         id="path3435"
         d="m 413.23115,1138.6334 c -0.868,0.032 -1.54666,0.079 -2.32,0.476 -0.17066,0.086 -0.11866,0.3183 0.0173,0.4036 0.67866,0.4267 1.30666,0.548 2.11333,0.5724 0.74533,0.022 1.72133,0.08 2.19733,-0.6 0.112,-0.1615 0.13067,-0.3615 -0.0267,-0.5057 -0.55067,-0.5036 -1.288,-0.3719 -1.98134,-0.3463"
         style="fill:#422000;fill-opacity:1;fill-rule:nonzero;stroke:none;stroke-width:0.133333" />
      <path
         id="path3436"
         d="m 421.83115,1138.0011 c -0.776,0.1 -1.584,0.1026 -2.32666,0.3682 -0.30934,0.1104 -0.40534,0.5933 -0.064,0.7401 0.70933,0.3052 1.43066,0.2823 2.188,0.2396 0.73866,-0.04 1.71333,-0.022 2.216,-0.6412 0.11733,-0.1452 0.14,-0.3957 -0.0267,-0.5213 -0.6,-0.4463 -1.28533,-0.276 -1.98667,-0.1854"
         style="fill:#422000;fill-opacity:1;fill-rule:nonzero;stroke:none;stroke-width:0.133333" />
      <path
         id="path3437"
         d="m 430.15515,1137.2891 c -0.57866,-0.2078 -1.18,-0.015 -1.76133,0.111 -0.356,0.077 -0.72267,0.1224 -1.08267,0.1796 -0.34133,0.055 -0.488,0.1964 -0.784,0.3256 -0.17733,0.079 -0.24,0.3281 -0.0413,0.4306 0.348,0.1787 0.46667,0.324 0.87867,0.3428 0.42533,0.019 0.832,-0.011 1.252,-0.073 0.688,-0.1016 1.34933,-0.2746 1.74266,-0.8803 0.11734,-0.1812 -0.0387,-0.376 -0.204,-0.4359"
         style="fill:#422000;fill-opacity:1;fill-rule:nonzero;stroke:none;stroke-width:0.133333" />
      <path
         id="path3438"
         d="m 436.24582,1134.6521 c -0.31467,0.061 -0.71067,0.1865 -0.97733,0.3693 -0.304,0.2093 -0.536,0.5025 -0.84534,0.6916 -0.248,0.1511 -0.0653,0.5417 0.20934,0.4589 0.312,-0.093 0.652,-0.061 0.976,-0.1068 0.268,-0.037 0.53333,-0.1254 0.79733,-0.1838 0.52933,-0.1187 1.04667,-0.1282 1.45733,-0.511 0.14534,-0.1358 0.10134,-0.3718 -0.0253,-0.4973 -0.44533,-0.4437 -1.02667,-0.3319 -1.592,-0.2209"
         style="fill:#422000;fill-opacity:1;fill-rule:nonzero;stroke:none;stroke-width:0.133333" />
      <path
         id="path3439"
         d="m 442.67115,1132.9906 c -0.728,0.16 -1.51733,0.2412 -2.204,0.536 -0.49866,0.2136 -0.61066,1.1172 0.064,1.1828 0.712,0.068 1.408,-0.052 2.108,-0.1896 0.73867,-0.1453 1.42934,-0.3437 1.82934,-1.0265 0.0907,-0.1536 0.0187,-0.3974 -0.14934,-0.4667 -0.56133,-0.2323 -1.06666,-0.164 -1.648,-0.036"
         style="fill:#422000;fill-opacity:1;fill-rule:nonzero;stroke:none;stroke-width:0.133333" />
      <path
         id="path3440"
         d="m 449.07649,1131.313 c -0.43334,0.024 -0.76134,0.1923 -1.148,0.3735 -0.50934,0.2385 -1.04667,0.4094 -1.59467,0.5349 -0.69067,0.1583 -0.348,1.1916 0.33333,1.0427 0.944,-0.2068 2.21867,-0.5271 2.76667,-1.3911 0.15733,-0.248 -0.088,-0.5745 -0.35733,-0.56"
         style="fill:#422000;fill-opacity:1;fill-rule:nonzero;stroke:none;stroke-width:0.133333" />
      <path
         id="path3441"
         d="m 459.34048,1126.2454 c -0.79866,-0.2787 -1.652,0.1599 -2.384,0.4744 -0.88133,0.3787 -1.57333,0.9428 -2.38133,1.424 -0.44133,0.264 -0.0187,0.8708 0.42133,0.6573 0.73334,-0.3557 1.58267,-0.5838 2.34,-0.9068 0.732,-0.312 1.64134,-0.4636 2.18667,-1.0786 0.188,-0.212 0.0573,-0.4864 -0.18267,-0.5703"
         style="fill:#422000;fill-opacity:1;fill-rule:nonzero;stroke:none;stroke-width:0.133333" />
      <path
         id="path3442"
         d="m 323.28982,1165.8531 c -0.828,-0.6197 -1.75467,-1.2224 -2.81067,-1.301 -0.60133,-0.045 -1.23066,0.749 -0.59333,1.2026 0.81333,0.5798 1.68133,1.0547 2.46,1.6864 0.7,0.5694 1.30533,1.2803 2.284,1.1923 0.244,-0.023 0.42133,-0.2109 0.41867,-0.4589 -0.008,-1.0896 -0.964,-1.7255 -1.75867,-2.3214"
         style="fill:#422000;fill-opacity:1;fill-rule:nonzero;stroke:none;stroke-width:0.133333" />
      <path
         id="path3443"
         d="m 331.46982,1171.5985 c -0.744,-0.4839 -1.828,-1.3787 -2.76133,-0.9787 -0.28267,0.1213 -0.46534,0.3948 -0.36534,0.7079 0.28134,0.8869 1.552,1.6057 2.26,2.1734 0.924,0.7443 2.00267,1.4375 3.22,1.175 0.67467,-0.1468 0.72534,-1.0724 0.28534,-1.4698 -0.73067,-0.6584 -1.804,-1.0636 -2.63867,-1.6078"
         style="fill:#422000;fill-opacity:1;fill-rule:nonzero;stroke:none;stroke-width:0.133333" />
      <path
         id="path3444"
         d="m 341.37915,1176.1239 c -0.94666,-0.3134 -2.052,-1.04 -3.06933,-0.6894 -0.12267,0.043 -0.24133,0.1718 -0.22133,0.3118 0.16266,1.1762 1.47066,1.7496 2.432,2.1934 1.03466,0.4785 2.77866,1.1426 3.71466,0.2118 0.16667,-0.1666 0.14,-0.4061 0.0453,-0.5957 -0.46667,-0.9385 -1.99334,-1.1308 -2.90134,-1.4319"
         style="fill:#422000;fill-opacity:1;fill-rule:nonzero;stroke:none;stroke-width:0.133333" />
      <path
         id="path3445"
         d="m 355.21115,1181.3411 c -0.188,-0.04 -0.43066,-0.1066 -0.688,-0.1692 l -0.0387,-0.073 c -0.968,-0.8036 -2.54,-0.7771 -3.70667,-1.1708 -0.496,-0.1678 -2.30133,-0.8532 -2.5,0.1082 -0.23333,1.136 1.57733,1.7267 2.36933,1.9907 0.80934,0.2708 1.80267,0.5479 2.68134,0.4079 0.476,0.3228 1.156,0.5134 1.54933,0.6281 1.07333,0.3119 1.452,-1.4839 0.33333,-1.7215"
         style="fill:#422000;fill-opacity:1;fill-rule:nonzero;stroke:none;stroke-width:0.133333" />
      <path
         id="path3446"
         d="m 362.09115,1182.9318 c -1.12933,-0.2891 -2.356,-0.8093 -3.468,-0.2719 -0.33733,0.164 -0.26933,0.6198 -0.0627,0.8427 0.736,0.7907 2.164,1.0281 3.176,1.3037 0.936,0.2563 2.132,0.5468 2.768,-0.3838 l -0.016,-0.3558 c -0.42667,-0.8428 -1.576,-0.924 -2.39734,-1.1349"
         style="fill:#422000;fill-opacity:1;fill-rule:nonzero;stroke:none;stroke-width:0.133333" />
      <path
         id="path3447"
         d="m 370.68982,1184.637 c -0.94667,-0.033 -1.92,-0.1943 -2.86267,-0.055 -0.52933,0.078 -0.68933,0.7214 -0.21333,1.0058 0.88933,0.5276 1.96133,0.589 2.968,0.6786 0.85467,0.077 1.79467,0.3068 2.32133,-0.5 0.0973,-0.151 0.0493,-0.3469 -0.0267,-0.4906 -0.40534,-0.7667 -1.43734,-0.6135 -2.18667,-0.6391"
         style="fill:#422000;fill-opacity:1;fill-rule:nonzero;stroke:none;stroke-width:0.133333" />
      <path
         id="path3448"
         d="m 381.19249,1185.7307 c -1.09067,-0.1041 -2.34534,-0.1801 -3.36934,0.261 -0.39733,0.1709 -0.50133,0.7204 -0.0747,0.9401 0.79333,0.4136 1.692,0.4213 2.57066,0.4735 1.12667,0.067 2.08,0.2462 3.192,0.067 0.208,-0.033 0.372,-0.2453 0.23734,-0.4494 -0.644,-0.9694 -1.41067,-1.1839 -2.556,-1.2918"
         style="fill:#422000;fill-opacity:1;fill-rule:nonzero;stroke:none;stroke-width:0.133333" />
      <path
         id="path3449"
         d="m 389.30315,1187.5865 c -0.45466,0.2136 -0.55066,0.788 -0.0813,1.0598 0.65733,0.3814 1.47067,0.4178 2.21333,0.4631 0.64934,0.04 1.812,0.136 1.996,-0.7213 0.32134,-1.512 -3.41066,-1.1391 -4.128,-0.8016"
         style="fill:#422000;fill-opacity:1;fill-rule:nonzero;stroke:none;stroke-width:0.133333" />
      <path
         id="path3450"
         d="m 401.17249,1186.473 c -0.88134,0.054 -2.09467,0.1333 -2.664,0.9109 -0.0987,0.1359 -0.13334,0.3588 0.024,0.4744 0.70133,0.5178 1.63733,0.4016 2.46,0.347 0.60533,-0.041 2.252,0.1041 2.20533,-0.9104 -0.0413,-0.9443 -1.396,-0.8604 -2.02533,-0.8219"
         style="fill:#422000;fill-opacity:1;fill-rule:nonzero;stroke:none;stroke-width:0.133333" />
      <path
         id="path3451"
         d="m 412.22582,1186.1078 c -0.71333,-0.3624 -1.58933,-0.08 -2.344,0.014 -1.02667,0.1265 -2.06133,0.014 -2.912,0.6959 -0.13733,0.1104 -0.17467,0.2973 -0.0373,0.429 0.768,0.735 1.74266,0.7511 2.76,0.736 1.04133,-0.016 2.41733,-0.1969 2.80133,-1.313 0.0747,-0.2135 -0.0827,-0.4667 -0.268,-0.5615"
         style="fill:#422000;fill-opacity:1;fill-rule:nonzero;stroke:none;stroke-width:0.133333" />
      <path
         id="path3452"
         d="m 419.47382,1183.7173 c -0.96133,0.1905 -1.66533,0.4572 -2.496,0.9342 -0.26533,0.1538 -0.16133,0.5402 0.108,0.6126 0.448,0.1172 0.76933,0.2156 1.24,0.2428 0.46667,0.025 0.99467,-0.1428 1.452,-0.2246 0.808,-0.1412 1.79333,-0.067 2.24533,-0.8609 0.116,-0.2027 0.0333,-0.4271 -0.11066,-0.5844 -0.61734,-0.6719 -1.66267,-0.2744 -2.43867,-0.1197"
         style="fill:#422000;fill-opacity:1;fill-rule:nonzero;stroke:none;stroke-width:0.133333" />
      <path
         id="path3453"
         d="m 432.60182,1180.3037 c -0.888,-0.3651 -1.86933,0.1188 -2.72533,0.415 -0.964,0.3319 -2.05334,0.5824 -2.792,1.3267 -0.268,0.2703 -0.0787,0.7307 0.26666,0.8093 0.92134,0.2131 1.876,-0.127 2.74934,-0.4084 0.916,-0.2932 2.24933,-0.5609 2.71466,-1.4942 0.11067,-0.2214 0.0307,-0.5468 -0.21333,-0.6484"
         style="fill:#422000;fill-opacity:1;fill-rule:nonzero;stroke:none;stroke-width:0.133333" />
      <path
         id="path3454"
         d="m 443.57915,1177.3427 c -0.70133,0 -1.36533,0.4719 -2.02533,0.6907 -0.784,0.2599 -1.62133,0.2771 -2.436,0.376 -0.84,0.1011 -1,1.3677 -0.104,1.5224 0.95733,0.1641 1.872,0.044 2.80933,-0.1787 0.83734,-0.1984 2.03867,-0.6161 2.364,-1.488 0.17067,-0.4573 -0.096,-0.9213 -0.608,-0.9224"
         style="fill:#422000;fill-opacity:1;fill-rule:nonzero;stroke:none;stroke-width:0.133333" />
    </g>
  </g>
</svg>
